<?xml version="1.0" encoding="UTF-8" standalone="no"?>
<!DOCTYPE svg PUBLIC "-//W3C//DTD SVG 1.1//EN"
 "http://www.w3.org/Graphics/SVG/1.1/DTD/svg11.dtd">
<!-- Generated by graphviz version 15.0.0 (0)
 -->
<!-- Title: PFDSL Pages: 1 -->
<svg width="952pt" height="286pt"
 viewBox="0.00 0.00 952.00 286.00" xmlns="http://www.w3.org/2000/svg" xmlns:xlink="http://www.w3.org/1999/xlink">
<g id="graph0" class="graph" transform="scale(1 1) rotate(0) translate(4 282.31)">
<title>PFDSL</title>
<polygon fill="white" stroke="none" points="-4,4 -4,-282.31 948.43,-282.31 948.43,4 -4,4"/>
<text xml:space="preserve" text-anchor="middle" x="472.22" y="-261.71" font-family="Times,serif" font-size="14.00">Issue 依存フロー（2026&#45;06） — diff</text>
<text xml:space="preserve" text-anchor="middle" x="472.22" y="-244.91" font-family="Times,serif" font-size="14.00">green = added · red = removed · yellow = changed</text>
<!-- cli_tool_v0011 -->
<g id="node1" class="node">
<title>cli_tool_v0011</title>
<polygon fill="#f5f5f5" stroke="#bbbbbb" points="126,-170.5 3.6,-170.5 3.6,-112.1 126,-112.1 126,-170.5"/>
<text xml:space="preserve" text-anchor="middle" x="64.8" y="-153.9" font-family="Times,serif" font-size="14.00" fill="#777777">cli_tool_v0011</text>
<text xml:space="preserve" text-anchor="middle" x="64.8" y="-137.1" font-family="Times,serif" font-size="14.00" fill="#777777">CLI v0.0</text>
<text xml:space="preserve" text-anchor="middle" x="64.8" y="-120.3" font-family="Times,serif" font-size="14.00" fill="#777777">11（公開済み）</text>
</g>
<!-- implement_basepath -->
<g id="node5" class="node">
<title>implement_basepath</title>
<ellipse fill="#c3e6cb" stroke="#28a745" cx="258.84" cy="-130.3" rx="93.24" ry="41.3"/>
<text xml:space="preserve" text-anchor="middle" x="258.84" y="-142.9" font-family="Times,serif" font-size="14.00">implement_basepath</text>
<text xml:space="preserve" text-anchor="middle" x="258.84" y="-126.1" font-family="Times,serif" font-size="14.00">basePath</text>
<text xml:space="preserve" text-anchor="middle" x="258.84" y="-109.3" font-family="Times,serif" font-size="14.00">フィールド実装</text>
</g>
<!-- cli_tool_v0011&#45;&gt;implement_basepath -->
<g id="edge1" class="edge">
<title>cli_tool_v0011&#45;&gt;implement_basepath</title>
<path fill="none" stroke="#28a745" d="M126.3,-137.83C135.39,-137.31 144.97,-136.76 154.65,-136.21"/>
<polygon fill="#28a745" stroke="#28a745" points="154.73,-139.71 164.52,-135.64 154.33,-132.72 154.73,-139.71"/>
</g>
<!-- cli_tool_v0012 -->
<g id="node2" class="node">
<title>cli_tool_v0012</title>
<polygon fill="#c3e6cb" stroke="#28a745" points="944.43,-151.1 786.03,-151.1 786.03,-109.5 944.43,-109.5 944.43,-151.1"/>
<text xml:space="preserve" text-anchor="middle" x="865.23" y="-134.5" font-family="Times,serif" font-size="14.00">cli_tool_v0012</text>
<text xml:space="preserve" text-anchor="middle" x="865.23" y="-117.7" font-family="Times,serif" font-size="14.00">CLI v0.0.12（次期）</text>
</g>
<!-- ext_v0015 -->
<g id="node3" class="node">
<title>ext_v0015</title>
<polygon fill="#c3e6cb" stroke="#28a745" points="926.43,-70.5 804.03,-70.5 804.03,-12.1 926.43,-12.1 926.43,-70.5"/>
<text xml:space="preserve" text-anchor="middle" x="865.23" y="-53.9" font-family="Times,serif" font-size="14.00">ext_v0015</text>
<text xml:space="preserve" text-anchor="middle" x="865.23" y="-37.1" font-family="Times,serif" font-size="14.00">extension v0.0</text>
<text xml:space="preserve" text-anchor="middle" x="865.23" y="-20.3" font-family="Times,serif" font-size="14.00">15（次期）</text>
</g>
<!-- i261_basepath -->
<g id="node4" class="node">
<title>i261_basepath</title>
<polygon fill="#c3e6cb" stroke="#28a745" points="517.67,-167.9 388.07,-167.9 388.07,-92.7 517.67,-92.7 517.67,-167.9"/>
<text xml:space="preserve" text-anchor="middle" x="452.87" y="-151.3" font-family="Times,serif" font-size="14.00">i261_basepath</text>
<text xml:space="preserve" text-anchor="middle" x="452.87" y="-134.5" font-family="Times,serif" font-size="14.00">basePath</text>
<text xml:space="preserve" text-anchor="middle" x="452.87" y="-117.7" font-family="Times,serif" font-size="14.00">フィールド実装 </text>
<text xml:space="preserve" text-anchor="middle" x="452.87" y="-100.9" font-family="Times,serif" font-size="14.00">#261)</text>
</g>
<!-- integrate_spec_v0010 -->
<g id="node6" class="node">
<title>integrate_spec_v0010</title>
<ellipse fill="#c3e6cb" stroke="#28a745" cx="651.85" cy="-207.3" rx="98.18" ry="29.42"/>
<text xml:space="preserve" text-anchor="middle" x="651.85" y="-211.5" font-family="Times,serif" font-size="14.00">integrate_spec_v0010</text>
<text xml:space="preserve" text-anchor="middle" x="651.85" y="-194.7" font-family="Times,serif" font-size="14.00">仕様書 v0.0.10統合</text>
</g>
<!-- i261_basepath&#45;&gt;integrate_spec_v0010 -->
<g id="edge2" class="edge">
<title>i261_basepath&#45;&gt;integrate_spec_v0010</title>
<path fill="none" stroke="#28a745" d="M518.1,-155.4C538.08,-163.21 560.21,-171.86 580.58,-179.83"/>
<polygon fill="#28a745" stroke="#28a745" points="579.06,-182.99 589.65,-183.37 581.61,-176.47 579.06,-182.99"/>
</g>
<!-- publish_cli_v0012 -->
<g id="node7" class="node">
<title>publish_cli_v0012</title>
<ellipse fill="#c3e6cb" stroke="#28a745" cx="651.85" cy="-130.3" rx="89.13" ry="29.42"/>
<text xml:space="preserve" text-anchor="middle" x="651.85" y="-134.5" font-family="Times,serif" font-size="14.00">publish_cli_v0012</text>
<text xml:space="preserve" text-anchor="middle" x="651.85" y="-117.7" font-family="Times,serif" font-size="14.00">CLI v0.0.12リリース</text>
</g>
<!-- i261_basepath&#45;&gt;publish_cli_v0012 -->
<g id="edge3" class="edge">
<title>i261_basepath&#45;&gt;publish_cli_v0012</title>
<path fill="none" stroke="#28a745" d="M518.1,-130.3C528.71,-130.3 539.92,-130.3 551.16,-130.3"/>
<polygon fill="#28a745" stroke="#28a745" points="550.87,-133.8 560.87,-130.3 550.87,-126.8 550.87,-133.8"/>
</g>
<!-- publish_ext_v0015 -->
<g id="node8" class="node">
<title>publish_ext_v0015</title>
<ellipse fill="#c3e6cb" stroke="#28a745" cx="651.85" cy="-41.3" rx="87.21" ry="41.3"/>
<text xml:space="preserve" text-anchor="middle" x="651.85" y="-53.9" font-family="Times,serif" font-size="14.00">publish_ext_v0015</text>
<text xml:space="preserve" text-anchor="middle" x="651.85" y="-37.1" font-family="Times,serif" font-size="14.00">extension v0.0</text>
<text xml:space="preserve" text-anchor="middle" x="651.85" y="-20.3" font-family="Times,serif" font-size="14.00">15リリース</text>
</g>
<!-- i261_basepath&#45;&gt;publish_ext_v0015 -->
<g id="edge4" class="edge">
<title>i261_basepath&#45;&gt;publish_ext_v0015</title>
<path fill="none" stroke="#28a745" d="M518.1,-101.28C537.13,-92.68 558.12,-83.2 577.67,-74.36"/>
<polygon fill="#28a745" stroke="#28a745" points="579.01,-77.6 586.68,-70.29 576.12,-71.22 579.01,-77.6"/>
</g>
<!-- implement_basepath&#45;&gt;i261_basepath -->
<g id="edge5" class="edge">
<title>implement_basepath&#45;&gt;i261_basepath</title>
<path fill="none" stroke="#28a745" d="M352.48,-130.3C360.47,-130.3 368.49,-130.3 376.32,-130.3"/>
<polygon fill="#28a745" stroke="#28a745" points="376.12,-133.8 386.12,-130.3 376.12,-126.8 376.12,-133.8"/>
</g>
<!-- spec_v0010 -->
<g id="node9" class="node">
<title>spec_v0010</title>
<polygon fill="#c3e6cb" stroke="#28a745" points="940.83,-236.5 789.63,-236.5 789.63,-178.1 940.83,-178.1 940.83,-236.5"/>
<text xml:space="preserve" text-anchor="middle" x="865.23" y="-219.9" font-family="Times,serif" font-size="14.00">spec_v0010</text>
<text xml:space="preserve" text-anchor="middle" x="865.23" y="-203.1" font-family="Times,serif" font-size="14.00">仕様書 v0.0</text>
<text xml:space="preserve" text-anchor="middle" x="865.23" y="-186.3" font-family="Times,serif" font-size="14.00">10（basePath統合）</text>
</g>
<!-- integrate_spec_v0010&#45;&gt;spec_v0010 -->
<g id="edge6" class="edge">
<title>integrate_spec_v0010&#45;&gt;spec_v0010</title>
<path fill="none" stroke="#28a745" d="M750.5,-207.3C759.63,-207.3 768.83,-207.3 777.85,-207.3"/>
<polygon fill="#28a745" stroke="#28a745" points="777.63,-210.8 787.63,-207.3 777.63,-203.8 777.63,-210.8"/>
</g>
<!-- publish_cli_v0012&#45;&gt;cli_tool_v0012 -->
<g id="edge7" class="edge">
<title>publish_cli_v0012&#45;&gt;cli_tool_v0012</title>
<path fill="none" stroke="#28a745" d="M741.27,-130.3C752.19,-130.3 763.36,-130.3 774.29,-130.3"/>
<polygon fill="#28a745" stroke="#28a745" points="774.08,-133.8 784.08,-130.3 774.08,-126.8 774.08,-133.8"/>
</g>
<!-- publish_ext_v0015&#45;&gt;ext_v0015 -->
<g id="edge8" class="edge">
<title>publish_ext_v0015&#45;&gt;ext_v0015</title>
<path fill="none" stroke="#28a745" d="M739.44,-41.3C756.95,-41.3 775.18,-41.3 792.13,-41.3"/>
<polygon fill="#28a745" stroke="#28a745" points="792.11,-44.8 802.11,-41.3 792.11,-37.8 792.11,-44.8"/>
</g>
<!-- spec_v009 -->
<g id="node10" class="node">
<title>spec_v009</title>
<polygon fill="#f5f5f5" stroke="#bbbbbb" points="129.6,-94.5 0,-94.5 0,-36.1 129.6,-36.1 129.6,-94.5"/>
<text xml:space="preserve" text-anchor="middle" x="64.8" y="-77.9" font-family="Times,serif" font-size="14.00" fill="#777777">spec_v009</text>
<text xml:space="preserve" text-anchor="middle" x="64.8" y="-61.1" font-family="Times,serif" font-size="14.00" fill="#777777">仕様書 v0.0</text>
<text xml:space="preserve" text-anchor="middle" x="64.8" y="-44.3" font-family="Times,serif" font-size="14.00" fill="#777777">9（index:統合）</text>
</g>
<!-- spec_v009&#45;&gt;implement_basepath -->
<g id="edge9" class="edge">
<title>spec_v009&#45;&gt;implement_basepath</title>
<path fill="none" stroke="#28a745" d="M130.01,-87.03C143.96,-91.75 158.92,-96.82 173.52,-101.76"/>
<polygon fill="#28a745" stroke="#28a745" points="172.03,-104.95 182.63,-104.84 174.28,-98.32 172.03,-104.95"/>
</g>
<!-- spec_v009&#45;&gt;integrate_spec_v0010 -->
<g id="edge10" class="edge">
<title>spec_v009&#45;&gt;integrate_spec_v0010</title>
<path fill="none" stroke="#28a745" stroke-dasharray="5,2" d="M129.72,-48.12C223.79,-26.87 400.95,-2.58 517.67,-83.3 551.42,-106.63 524.39,-139.56 553.67,-168.3 558.7,-173.22 564.42,-177.56 570.53,-181.36"/>
<polygon fill="#28a745" stroke="#28a745" points="568.63,-184.3 579.06,-186.16 572.06,-178.2 568.63,-184.3"/>
</g>
</g>
</svg>
