<?xml version="1.0" encoding="UTF-8" standalone="no"?>
<!DOCTYPE svg PUBLIC "-//W3C//DTD SVG 1.1//EN"
 "http://www.w3.org/Graphics/SVG/1.1/DTD/svg11.dtd">
<!-- Generated by graphviz version 15.1.0 (0)
 -->
<!-- Title: PFDSL Pages: 1 -->
<svg width="642pt" height="309pt"
 viewBox="0.00 0.00 642.00 309.00" xmlns="http://www.w3.org/2000/svg" xmlns:xlink="http://www.w3.org/1999/xlink">
<g id="graph0" class="graph" transform="scale(1 1) rotate(0) translate(4 305.5)">
<title>PFDSL</title>
<polygon fill="white" stroke="none" points="-4,4 -4,-305.5 637.68,-305.5 637.68,4 -4,4"/>
<text xml:space="preserve" text-anchor="middle" x="316.84" y="-284.9" font-family="Times,serif" font-size="14.00">Issue 依存フロー（2026&#45;06） — diff</text>
<text xml:space="preserve" text-anchor="middle" x="316.84" y="-268.1" font-family="Times,serif" font-size="14.00">green = added · red = removed · yellow = changed</text>
<!-- adoption_probe -->
<g id="node1" class="node">
<title>adoption_probe</title>
<polygon fill="#c3e6cb" stroke="#28a745" points="622.88,-78.9 478.88,-78.9 478.88,-3.7 622.88,-3.7 622.88,-78.9"/>
<text xml:space="preserve" text-anchor="middle" x="550.88" y="-62.3" font-family="Times,serif" font-size="14.00">adoption_probe</text>
<text xml:space="preserve" text-anchor="middle" x="550.88" y="-45.5" font-family="Times,serif" font-size="14.00">skill sync</text>
<text xml:space="preserve" text-anchor="middle" x="550.88" y="-28.7" font-family="Times,serif" font-size="14.00">採用初日プローブ </text>
<text xml:space="preserve" text-anchor="middle" x="550.88" y="-11.9" font-family="Times,serif" font-size="14.00">#352)</text>
</g>
<!-- cli_tool_v0015 -->
<g id="node2" class="node">
<title>cli_tool_v0015</title>
<polygon fill="#f5f5f5" stroke="#bbbbbb" points="162,-62.1 3.6,-62.1 3.6,-20.5 162,-20.5 162,-62.1"/>
<text xml:space="preserve" text-anchor="middle" x="82.8" y="-45.5" font-family="Times,serif" font-size="14.00" fill="#777777">cli_tool_v0015</text>
<text xml:space="preserve" text-anchor="middle" x="82.8" y="-28.7" font-family="Times,serif" font-size="14.00" fill="#777777">CLI v0.0.15（次期）</text>
</g>
<!-- i352_probe_adoption_day -->
<g id="node5" class="node">
<title>i352_probe_adoption_day</title>
<ellipse fill="#c3e6cb" stroke="#28a745" cx="316.84" cy="-41.3" rx="115.24" ry="41.3"/>
<text xml:space="preserve" text-anchor="middle" x="316.84" y="-53.9" font-family="Times,serif" font-size="14.00">i352_probe_adoption_day</text>
<text xml:space="preserve" text-anchor="middle" x="316.84" y="-37.1" font-family="Times,serif" font-size="14.00">採用初日プローブ実</text>
<text xml:space="preserve" text-anchor="middle" x="316.84" y="-20.3" font-family="Times,serif" font-size="14.00">施</text>
</g>
<!-- cli_tool_v0015&#45;&gt;i352_probe_adoption_day -->
<g id="edge1" class="edge">
<title>cli_tool_v0015&#45;&gt;i352_probe_adoption_day</title>
<path fill="none" stroke="#28a745" d="M162.36,-41.3C171.24,-41.3 180.45,-41.3 189.74,-41.3"/>
<polygon fill="#28a745" stroke="#28a745" points="189.59,-44.8 199.59,-41.3 189.59,-37.8 189.59,-44.8"/>
</g>
<!-- extends_probe -->
<g id="node3" class="node">
<title>extends_probe</title>
<polygon fill="#f5c6cb" stroke="#dc3545" points="633.68,-219.9 468.08,-219.9 468.08,-144.7 633.68,-144.7 633.68,-219.9"/>
<text xml:space="preserve" text-anchor="middle" x="550.88" y="-203.3" font-family="Times,serif" font-size="14.00">extends_probe</text>
<text xml:space="preserve" text-anchor="middle" x="550.88" y="-186.5" font-family="Times,serif" font-size="14.00">extends 意味論の</text>
<text xml:space="preserve" text-anchor="middle" x="550.88" y="-169.7" font-family="Times,serif" font-size="14.00">agent プローブ (#304</text>
<text xml:space="preserve" text-anchor="middle" x="550.88" y="-152.9" font-family="Times,serif" font-size="14.00">)</text>
</g>
<!-- i304_probe_extends_spec -->
<g id="node4" class="node">
<title>i304_probe_extends_spec</title>
<ellipse fill="#f5c6cb" stroke="#dc3545" cx="316.84" cy="-182.3" rx="114.13" ry="41.3"/>
<text xml:space="preserve" text-anchor="middle" x="316.84" y="-194.9" font-family="Times,serif" font-size="14.00">i304_probe_extends_spec</text>
<text xml:space="preserve" text-anchor="middle" x="316.84" y="-178.1" font-family="Times,serif" font-size="14.00">extends</text>
<text xml:space="preserve" text-anchor="middle" x="316.84" y="-161.3" font-family="Times,serif" font-size="14.00">意味論プローブ</text>
</g>
<!-- i304_probe_extends_spec&#45;&gt;extends_probe -->
<g id="edge2" class="edge">
<title>i304_probe_extends_spec&#45;&gt;extends_probe</title>
<path fill="none" stroke="#dc3545" stroke-dasharray="5,2" d="M431.14,-182.3C439.6,-182.3 448.08,-182.3 456.41,-182.3"/>
<polygon fill="#dc3545" stroke="#dc3545" points="456.12,-185.8 466.12,-182.3 456.12,-178.8 456.12,-185.8"/>
</g>
<!-- i352_probe_adoption_day&#45;&gt;adoption_probe -->
<g id="edge3" class="edge">
<title>i352_probe_adoption_day&#45;&gt;adoption_probe</title>
<path fill="none" stroke="#28a745" d="M432.5,-41.3C444.11,-41.3 455.74,-41.3 466.92,-41.3"/>
<polygon fill="#28a745" stroke="#28a745" points="466.87,-44.8 476.87,-41.3 466.87,-37.8 466.87,-44.8"/>
</g>
<!-- multifile_toolchain -->
<g id="node6" class="node">
<title>multifile_toolchain</title>
<polygon fill="#f5f5f5" stroke="#bbbbbb" points="162,-259.9 3.6,-259.9 3.6,-184.7 162,-184.7 162,-259.9"/>
<text xml:space="preserve" text-anchor="middle" x="82.8" y="-243.3" font-family="Times,serif" font-size="14.00" fill="#777777">multifile_toolchain</text>
<text xml:space="preserve" text-anchor="middle" x="82.8" y="-226.5" font-family="Times,serif" font-size="14.00" fill="#777777">spec v0.0.8</text>
<text xml:space="preserve" text-anchor="middle" x="82.8" y="-209.7" font-family="Times,serif" font-size="14.00" fill="#777777">実装済みツールチェ</text>
<text xml:space="preserve" text-anchor="middle" x="82.8" y="-192.9" font-family="Times,serif" font-size="14.00" fill="#777777">ーン (#148)</text>
</g>
<!-- multifile_toolchain&#45;&gt;i304_probe_extends_spec -->
<g id="edge4" class="edge">
<title>multifile_toolchain&#45;&gt;i304_probe_extends_spec</title>
<path fill="none" stroke="#dc3545" stroke-dasharray="5,2" d="M162.36,-208.75C175.09,-206.56 188.51,-204.25 201.88,-201.94"/>
<polygon fill="#dc3545" stroke="#dc3545" points="202.34,-205.41 211.6,-200.26 201.15,-198.51 202.34,-205.41"/>
</g>
<!-- spec_v0011 -->
<g id="node7" class="node">
<title>spec_v0011</title>
<polygon fill="#f5f5f5" stroke="#bbbbbb" points="165.6,-166.9 0,-166.9 0,-91.7 165.6,-91.7 165.6,-166.9"/>
<text xml:space="preserve" text-anchor="middle" x="82.8" y="-150.3" font-family="Times,serif" font-size="14.00" fill="#777777">spec_v0011</text>
<text xml:space="preserve" text-anchor="middle" x="82.8" y="-133.5" font-family="Times,serif" font-size="14.00" fill="#777777">仕様書 v0.0</text>
<text xml:space="preserve" text-anchor="middle" x="82.8" y="-116.7" font-family="Times,serif" font-size="14.00" fill="#777777">11（waiting/suspende</text>
<text xml:space="preserve" text-anchor="middle" x="82.8" y="-99.9" font-family="Times,serif" font-size="14.00" fill="#777777">d/type統合）</text>
</g>
<!-- spec_v0011&#45;&gt;i304_probe_extends_spec -->
<g id="edge5" class="edge">
<title>spec_v0011&#45;&gt;i304_probe_extends_spec</title>
<path fill="none" stroke="#dc3545" stroke-dasharray="5,2" d="M165.93,-148.06C179.75,-151.21 194.27,-154.53 208.61,-157.8"/>
<polygon fill="#dc3545" stroke="#dc3545" points="207.52,-161.15 218.05,-159.96 209.08,-154.32 207.52,-161.15"/>
</g>
</g>
</svg>
