<?xml version="1.0" encoding="UTF-8" standalone="no"?>
<!DOCTYPE svg PUBLIC "-//W3C//DTD SVG 1.1//EN"
 "http://www.w3.org/Graphics/SVG/1.1/DTD/svg11.dtd">
<!-- Generated by graphviz version 15.1.0 (0)
 -->
<!-- Title: PFDSL Pages: 1 -->
<svg width="1574pt" height="525pt"
 viewBox="0.00 0.00 1574.00 525.00" xmlns="http://www.w3.org/2000/svg" xmlns:xlink="http://www.w3.org/1999/xlink">
<g id="graph0" class="graph" transform="scale(1 1) rotate(0) translate(4 521.31)">
<title>PFDSL</title>
<polygon fill="white" stroke="none" points="-4,4 -4,-521.31 1570.44,-521.31 1570.44,4 -4,4"/>
<text xml:space="preserve" text-anchor="middle" x="783.22" y="-500.71" font-family="Times,serif" font-size="14.00">Issue 依存フロー（2026&#45;06） — diff</text>
<text xml:space="preserve" text-anchor="middle" x="783.22" y="-483.91" font-family="Times,serif" font-size="14.00">green = added · red = removed · yellow = changed</text>
<!-- cli_tool_v0012 -->
<g id="node1" class="node">
<title>cli_tool_v0012</title>
<polygon fill="#ffeeba" stroke="#e0a800" points="147.6,-391.5 25.2,-391.5 25.2,-333.1 147.6,-333.1 147.6,-391.5"/>
<text xml:space="preserve" text-anchor="middle" x="86.4" y="-374.9" font-family="Times,serif" font-size="14.00">cli_tool_v0012</text>
<text xml:space="preserve" text-anchor="middle" x="86.4" y="-358.1" font-family="Times,serif" font-size="14.00">CLI v0.0</text>
<text xml:space="preserve" text-anchor="middle" x="86.4" y="-341.3" font-family="Times,serif" font-size="14.00">12（公開済み）</text>
</g>
<!-- publish_cli_v0013 -->
<g id="node18" class="node">
<title>publish_cli_v0013</title>
<ellipse fill="#c3e6cb" stroke="#28a745" cx="297.93" cy="-334.3" rx="89.13" ry="29.42"/>
<text xml:space="preserve" text-anchor="middle" x="297.93" y="-338.5" font-family="Times,serif" font-size="14.00">publish_cli_v0013</text>
<text xml:space="preserve" text-anchor="middle" x="297.93" y="-321.7" font-family="Times,serif" font-size="14.00">CLI v0.0.13リリース</text>
</g>
<!-- cli_tool_v0012&#45;&gt;publish_cli_v0013 -->
<g id="edge1" class="edge">
<title>cli_tool_v0012&#45;&gt;publish_cli_v0013</title>
<path fill="none" stroke="#28a745" d="M148.01,-354.2C165.3,-351.88 184.56,-349.31 203.34,-346.8"/>
<polygon fill="#28a745" stroke="#28a745" points="203.69,-350.29 213.14,-345.49 202.76,-343.35 203.69,-350.29"/>
</g>
<!-- update_pfd_ops_skill -->
<g id="node21" class="node">
<title>update_pfd_ops_skill</title>
<ellipse fill="#f5f5f5" stroke="#bbbbbb" cx="704.39" cy="-446.3" rx="96.55" ry="29.42"/>
<text xml:space="preserve" text-anchor="middle" x="704.39" y="-450.5" font-family="Times,serif" font-size="14.00" fill="#777777">update_pfd_ops_skill</text>
<text xml:space="preserve" text-anchor="middle" x="704.39" y="-433.7" font-family="Times,serif" font-size="14.00" fill="#777777">pfd&#45;ops スキル更新</text>
</g>
<!-- cli_tool_v0012&#45;&gt;update_pfd_ops_skill -->
<g id="edge2" class="edge">
<title>cli_tool_v0012&#45;&gt;update_pfd_ops_skill</title>
<path fill="none" stroke="#dc3545" stroke-dasharray="5,2" d="M147.87,-370.54C254.2,-385.04 475.58,-415.23 604.46,-432.8"/>
<polygon fill="#dc3545" stroke="#dc3545" points="603.61,-436.22 613.99,-434.1 604.55,-429.28 603.61,-436.22"/>
</g>
<!-- cli_tool_v0013 -->
<g id="node2" class="node">
<title>cli_tool_v0013</title>
<polygon fill="#c3e6cb" stroke="#28a745" points="545.46,-309.5 423.06,-309.5 423.06,-251.1 545.46,-251.1 545.46,-309.5"/>
<text xml:space="preserve" text-anchor="middle" x="484.26" y="-292.9" font-family="Times,serif" font-size="14.00">cli_tool_v0013</text>
<text xml:space="preserve" text-anchor="middle" x="484.26" y="-276.1" font-family="Times,serif" font-size="14.00">CLI v0.0</text>
<text xml:space="preserve" text-anchor="middle" x="484.26" y="-259.3" font-family="Times,serif" font-size="14.00">13（公開済み）</text>
</g>
<!-- implement_blocked_by -->
<g id="node11" class="node">
<title>implement_blocked_by</title>
<ellipse fill="#c3e6cb" stroke="#28a745" cx="704.39" cy="-142.3" rx="104.79" ry="41.3"/>
<text xml:space="preserve" text-anchor="middle" x="704.39" y="-154.9" font-family="Times,serif" font-size="14.00">implement_blocked_by</text>
<text xml:space="preserve" text-anchor="middle" x="704.39" y="-138.1" font-family="Times,serif" font-size="14.00">blockedBy</text>
<text xml:space="preserve" text-anchor="middle" x="704.39" y="-121.3" font-family="Times,serif" font-size="14.00">フィールド実装</text>
</g>
<!-- cli_tool_v0013&#45;&gt;implement_blocked_by -->
<g id="edge3" class="edge">
<title>cli_tool_v0013&#45;&gt;implement_blocked_by</title>
<path fill="none" stroke="#28a745" d="M514.67,-250.98C532.86,-233.88 557.29,-212.72 581.46,-197.3 593.2,-189.81 606.13,-182.81 619.05,-176.48"/>
<polygon fill="#28a745" stroke="#28a745" points="620.5,-179.67 628.02,-172.21 617.49,-173.35 620.5,-179.67"/>
</g>
<!-- implement_status_set -->
<g id="node13" class="node">
<title>implement_status_set</title>
<ellipse fill="#c3e6cb" stroke="#28a745" cx="704.39" cy="-41.3" rx="97.1" ry="41.3"/>
<text xml:space="preserve" text-anchor="middle" x="704.39" y="-53.9" font-family="Times,serif" font-size="14.00">implement_status_set</text>
<text xml:space="preserve" text-anchor="middle" x="704.39" y="-37.1" font-family="Times,serif" font-size="14.00">status&#45;set</text>
<text xml:space="preserve" text-anchor="middle" x="704.39" y="-20.3" font-family="Times,serif" font-size="14.00">コマンド実装</text>
</g>
<!-- cli_tool_v0013&#45;&gt;implement_status_set -->
<g id="edge4" class="edge">
<title>cli_tool_v0013&#45;&gt;implement_status_set</title>
<path fill="none" stroke="#28a745" d="M493.28,-250.92C505.78,-210.21 533.58,-136.64 581.46,-92.3 591,-83.46 602.28,-76.05 614.08,-69.85"/>
<polygon fill="#28a745" stroke="#28a745" points="615.29,-73.15 622.72,-65.59 612.2,-66.87 615.29,-73.15"/>
</g>
<!-- implement_type_field -->
<g id="node14" class="node">
<title>implement_type_field</title>
<ellipse fill="#c3e6cb" stroke="#28a745" cx="704.39" cy="-369.3" rx="98.74" ry="29.42"/>
<text xml:space="preserve" text-anchor="middle" x="704.39" y="-373.5" font-family="Times,serif" font-size="14.00">implement_type_field</text>
<text xml:space="preserve" text-anchor="middle" x="704.39" y="-356.7" font-family="Times,serif" font-size="14.00">type フィールド実装</text>
</g>
<!-- cli_tool_v0013&#45;&gt;implement_type_field -->
<g id="edge5" class="edge">
<title>cli_tool_v0013&#45;&gt;implement_type_field</title>
<path fill="none" stroke="#28a745" d="M538.43,-309.97C552.22,-317.1 567.21,-324.36 581.46,-330.3 594.25,-335.62 608.04,-340.66 621.59,-345.25"/>
<polygon fill="#28a745" stroke="#28a745" points="620.35,-348.52 630.94,-348.35 622.55,-341.88 620.35,-348.52"/>
</g>
<!-- implement_w002_hierarchy -->
<g id="node15" class="node">
<title>implement_w002_hierarchy</title>
<ellipse fill="#c3e6cb" stroke="#28a745" cx="704.39" cy="-280.3" rx="122.92" ry="41.3"/>
<text xml:space="preserve" text-anchor="middle" x="704.39" y="-292.9" font-family="Times,serif" font-size="14.00">implement_w002_hierarchy</text>
<text xml:space="preserve" text-anchor="middle" x="704.39" y="-276.1" font-family="Times,serif" font-size="14.00">W002 criteria</text>
<text xml:space="preserve" text-anchor="middle" x="704.39" y="-259.3" font-family="Times,serif" font-size="14.00">階層化実装</text>
</g>
<!-- cli_tool_v0013&#45;&gt;implement_w002_hierarchy -->
<g id="edge6" class="edge">
<title>cli_tool_v0013&#45;&gt;implement_w002_hierarchy</title>
<path fill="none" stroke="#28a745" d="M545.73,-280.3C553.45,-280.3 561.57,-280.3 569.89,-280.3"/>
<polygon fill="#28a745" stroke="#28a745" points="569.83,-283.8 579.83,-280.3 569.83,-276.8 569.83,-283.8"/>
</g>
<!-- publish_cli_v0014 -->
<g id="node19" class="node">
<title>publish_cli_v0014</title>
<ellipse fill="#c3e6cb" stroke="#28a745" cx="1207.68" cy="-211.3" rx="89.13" ry="29.42"/>
<text xml:space="preserve" text-anchor="middle" x="1207.68" y="-215.5" font-family="Times,serif" font-size="14.00">publish_cli_v0014</text>
<text xml:space="preserve" text-anchor="middle" x="1207.68" y="-198.7" font-family="Times,serif" font-size="14.00">CLI v0.0.14リリース</text>
</g>
<!-- cli_tool_v0013&#45;&gt;publish_cli_v0014 -->
<g id="edge7" class="edge">
<title>cli_tool_v0013&#45;&gt;publish_cli_v0014</title>
<path fill="none" stroke="#28a745" d="M532,-250.66C547.2,-242.51 564.52,-234.71 581.46,-230.3 764.13,-182.71 986.98,-190.98 1111.23,-201.2"/>
<polygon fill="#28a745" stroke="#28a745" points="1110.81,-204.68 1121.07,-202.03 1111.4,-197.7 1110.81,-204.68"/>
</g>
<!-- cli_tool_v0013&#45;&gt;update_pfd_ops_skill -->
<g id="edge8" class="edge">
<title>cli_tool_v0013&#45;&gt;update_pfd_ops_skill</title>
<path fill="none" stroke="#28a745" d="M500.62,-309.96C516.97,-338.78 545.46,-381.8 581.46,-407.3 591.56,-414.45 603.04,-420.33 614.82,-425.16"/>
<polygon fill="#28a745" stroke="#28a745" points="613.21,-428.3 623.8,-428.6 615.71,-421.76 613.21,-428.3"/>
</g>
<!-- cli_tool_v0014 -->
<g id="node3" class="node">
<title>cli_tool_v0014</title>
<polygon fill="#c3e6cb" stroke="#28a745" points="1552.04,-232.1 1393.64,-232.1 1393.64,-190.5 1552.04,-190.5 1552.04,-232.1"/>
<text xml:space="preserve" text-anchor="middle" x="1472.84" y="-215.5" font-family="Times,serif" font-size="14.00">cli_tool_v0014</text>
<text xml:space="preserve" text-anchor="middle" x="1472.84" y="-198.7" font-family="Times,serif" font-size="14.00">CLI v0.0.14（次期）</text>
</g>
<!-- i268_type_field -->
<g id="node4" class="node">
<title>i268_type_field</title>
<polygon fill="#c3e6cb" stroke="#28a745" points="1032.51,-388.5 866.91,-388.5 866.91,-330.1 1032.51,-330.1 1032.51,-388.5"/>
<text xml:space="preserve" text-anchor="middle" x="949.71" y="-371.9" font-family="Times,serif" font-size="14.00">i268_type_field</text>
<text xml:space="preserve" text-anchor="middle" x="949.71" y="-355.1" font-family="Times,serif" font-size="14.00">type フィールド追加 </text>
<text xml:space="preserve" text-anchor="middle" x="949.71" y="-338.3" font-family="Times,serif" font-size="14.00">(#268)</text>
</g>
<!-- implement_audit_sync -->
<g id="node10" class="node">
<title>implement_audit_sync</title>
<ellipse fill="#c3e6cb" stroke="#28a745" cx="1207.68" cy="-359.3" rx="101.49" ry="41.3"/>
<text xml:space="preserve" text-anchor="middle" x="1207.68" y="-371.9" font-family="Times,serif" font-size="14.00">implement_audit_sync</text>
<text xml:space="preserve" text-anchor="middle" x="1207.68" y="-355.1" font-family="Times,serif" font-size="14.00">audit&#45;sync</text>
<text xml:space="preserve" text-anchor="middle" x="1207.68" y="-338.3" font-family="Times,serif" font-size="14.00">コマンド実装</text>
</g>
<!-- i268_type_field&#45;&gt;implement_audit_sync -->
<g id="edge9" class="edge">
<title>i268_type_field&#45;&gt;implement_audit_sync</title>
<path fill="none" stroke="#28a745" d="M1032.76,-359.3C1052.38,-359.3 1073.65,-359.3 1094.37,-359.3"/>
<polygon fill="#28a745" stroke="#28a745" points="1094.3,-362.8 1104.3,-359.3 1094.3,-355.8 1094.3,-362.8"/>
</g>
<!-- i268_type_field&#45;&gt;publish_cli_v0014 -->
<g id="edge10" class="edge">
<title>i268_type_field&#45;&gt;publish_cli_v0014</title>
<path fill="none" stroke="#28a745" d="M1005.07,-329.71C1015.41,-323.99 1026.12,-318 1036.11,-312.3 1075.96,-289.54 1120.57,-263.09 1154.17,-242.97"/>
<polygon fill="#28a745" stroke="#28a745" points="1155.71,-246.12 1162.49,-237.98 1152.11,-240.12 1155.71,-246.12"/>
</g>
<!-- i269_audit_sync -->
<g id="node5" class="node">
<title>i269_audit_sync</title>
<polygon fill="#c3e6cb" stroke="#28a745" points="1544.84,-396.9 1400.84,-396.9 1400.84,-321.7 1544.84,-321.7 1544.84,-396.9"/>
<text xml:space="preserve" text-anchor="middle" x="1472.84" y="-380.3" font-family="Times,serif" font-size="14.00">i269_audit_sync</text>
<text xml:space="preserve" text-anchor="middle" x="1472.84" y="-363.5" font-family="Times,serif" font-size="14.00">workflow/roadmap</text>
<text xml:space="preserve" text-anchor="middle" x="1472.84" y="-346.7" font-family="Times,serif" font-size="14.00">同期監査コマンド </text>
<text xml:space="preserve" text-anchor="middle" x="1472.84" y="-329.9" font-family="Times,serif" font-size="14.00">#269)</text>
</g>
<!-- i272_w002_hierarchy -->
<g id="node6" class="node">
<title>i272_w002_hierarchy</title>
<polygon fill="#c3e6cb" stroke="#28a745" points="1036.11,-303.5 863.31,-303.5 863.31,-245.1 1036.11,-245.1 1036.11,-303.5"/>
<text xml:space="preserve" text-anchor="middle" x="949.71" y="-286.9" font-family="Times,serif" font-size="14.00">i272_w002_hierarchy</text>
<text xml:space="preserve" text-anchor="middle" x="949.71" y="-270.1" font-family="Times,serif" font-size="14.00">W002 criteria 階層化 </text>
<text xml:space="preserve" text-anchor="middle" x="949.71" y="-253.3" font-family="Times,serif" font-size="14.00">(#272)</text>
</g>
<!-- i272_w002_hierarchy&#45;&gt;publish_cli_v0014 -->
<g id="edge11" class="edge">
<title>i272_w002_hierarchy&#45;&gt;publish_cli_v0014</title>
<path fill="none" stroke="#28a745" d="M1036.3,-253.23C1064.66,-246.25 1096.14,-238.5 1124.25,-231.58"/>
<polygon fill="#28a745" stroke="#28a745" points="1124.91,-235.02 1133.79,-229.24 1123.24,-228.23 1124.91,-235.02"/>
</g>
<!-- i273_blocked_by -->
<g id="node7" class="node">
<title>i273_blocked_by</title>
<polygon fill="#c3e6cb" stroke="#28a745" points="1021.71,-177.5 877.71,-177.5 877.71,-119.1 1021.71,-119.1 1021.71,-177.5"/>
<text xml:space="preserve" text-anchor="middle" x="949.71" y="-160.9" font-family="Times,serif" font-size="14.00">i273_blocked_by</text>
<text xml:space="preserve" text-anchor="middle" x="949.71" y="-144.1" font-family="Times,serif" font-size="14.00">blockedBy</text>
<text xml:space="preserve" text-anchor="middle" x="949.71" y="-127.3" font-family="Times,serif" font-size="14.00">フィールド (#273)</text>
</g>
<!-- i273_blocked_by&#45;&gt;publish_cli_v0014 -->
<g id="edge12" class="edge">
<title>i273_blocked_by&#45;&gt;publish_cli_v0014</title>
<path fill="none" stroke="#28a745" d="M1022.01,-165.84C1053.78,-173.66 1091.38,-182.92 1124.33,-191.03"/>
<polygon fill="#28a745" stroke="#28a745" points="1123.3,-194.38 1133.85,-193.37 1124.97,-187.58 1123.3,-194.38"/>
</g>
<!-- i277_status_set -->
<g id="node8" class="node">
<title>i277_status_set</title>
<polygon fill="#c3e6cb" stroke="#28a745" points="1032.51,-83.5 866.91,-83.5 866.91,-25.1 1032.51,-25.1 1032.51,-83.5"/>
<text xml:space="preserve" text-anchor="middle" x="949.71" y="-66.9" font-family="Times,serif" font-size="14.00">i277_status_set</text>
<text xml:space="preserve" text-anchor="middle" x="949.71" y="-50.1" font-family="Times,serif" font-size="14.00">status&#45;set コマンド </text>
<text xml:space="preserve" text-anchor="middle" x="949.71" y="-33.3" font-family="Times,serif" font-size="14.00">#277)</text>
</g>
<!-- implement_release_automation -->
<g id="node12" class="node">
<title>implement_release_automation</title>
<ellipse fill="#c3e6cb" stroke="#28a745" cx="1207.68" cy="-54.3" rx="135.56" ry="41.3"/>
<text xml:space="preserve" text-anchor="middle" x="1207.68" y="-66.9" font-family="Times,serif" font-size="14.00">implement_release_automation</text>
<text xml:space="preserve" text-anchor="middle" x="1207.68" y="-50.1" font-family="Times,serif" font-size="14.00">make release roadmap</text>
<text xml:space="preserve" text-anchor="middle" x="1207.68" y="-33.3" font-family="Times,serif" font-size="14.00">自動更新実装</text>
</g>
<!-- i277_status_set&#45;&gt;implement_release_automation -->
<g id="edge13" class="edge">
<title>i277_status_set&#45;&gt;implement_release_automation</title>
<path fill="none" stroke="#28a745" d="M1032.76,-54.3C1041.8,-54.3 1051.19,-54.3 1060.72,-54.3"/>
<polygon fill="#28a745" stroke="#28a745" points="1060.43,-57.8 1070.43,-54.3 1060.43,-50.8 1060.43,-57.8"/>
</g>
<!-- i277_status_set&#45;&gt;publish_cli_v0014 -->
<g id="edge14" class="edge">
<title>i277_status_set&#45;&gt;publish_cli_v0014</title>
<path fill="none" stroke="#28a745" d="M998.86,-83.83C1043.25,-111.05 1108.97,-151.36 1154.57,-179.33"/>
<polygon fill="#28a745" stroke="#28a745" points="1152.63,-182.25 1162.98,-184.49 1156.29,-176.28 1152.63,-182.25"/>
</g>
<!-- i278_release_automation -->
<g id="node9" class="node">
<title>i278_release_automation</title>
<polygon fill="#c3e6cb" stroke="#28a745" points="1566.44,-83.5 1379.24,-83.5 1379.24,-25.1 1566.44,-25.1 1566.44,-83.5"/>
<text xml:space="preserve" text-anchor="middle" x="1472.84" y="-66.9" font-family="Times,serif" font-size="14.00">i278_release_automation</text>
<text xml:space="preserve" text-anchor="middle" x="1472.84" y="-50.1" font-family="Times,serif" font-size="14.00">make release roadmap</text>
<text xml:space="preserve" text-anchor="middle" x="1472.84" y="-33.3" font-family="Times,serif" font-size="14.00">自動更新 (#278)</text>
</g>
<!-- implement_audit_sync&#45;&gt;i269_audit_sync -->
<g id="edge15" class="edge">
<title>implement_audit_sync&#45;&gt;i269_audit_sync</title>
<path fill="none" stroke="#28a745" d="M1309.3,-359.3C1335.72,-359.3 1363.91,-359.3 1389.27,-359.3"/>
<polygon fill="#28a745" stroke="#28a745" points="1389.19,-362.8 1399.19,-359.3 1389.19,-355.8 1389.19,-362.8"/>
</g>
<!-- implement_blocked_by&#45;&gt;i273_blocked_by -->
<g id="edge16" class="edge">
<title>implement_blocked_by&#45;&gt;i273_blocked_by</title>
<path fill="none" stroke="#28a745" d="M809.29,-144.86C828.24,-145.32 847.78,-145.81 866.01,-146.26"/>
<polygon fill="#28a745" stroke="#28a745" points="865.88,-149.75 875.96,-146.5 866.05,-142.76 865.88,-149.75"/>
</g>
<!-- implement_release_automation&#45;&gt;i278_release_automation -->
<g id="edge17" class="edge">
<title>implement_release_automation&#45;&gt;i278_release_automation</title>
<path fill="none" stroke="#28a745" d="M1343.73,-54.3C1351.7,-54.3 1359.65,-54.3 1367.47,-54.3"/>
<polygon fill="#28a745" stroke="#28a745" points="1367.31,-57.8 1377.31,-54.3 1367.31,-50.8 1367.31,-57.8"/>
</g>
<!-- implement_status_set&#45;&gt;i277_status_set -->
<g id="edge18" class="edge">
<title>implement_status_set&#45;&gt;i277_status_set</title>
<path fill="none" stroke="#28a745" d="M801.21,-46.41C819.07,-47.37 837.72,-48.37 855.51,-49.32"/>
<polygon fill="#28a745" stroke="#28a745" points="855.07,-52.8 865.24,-49.84 855.45,-45.81 855.07,-52.8"/>
</g>
<!-- implement_type_field&#45;&gt;i268_type_field -->
<g id="edge19" class="edge">
<title>implement_type_field&#45;&gt;i268_type_field</title>
<path fill="none" stroke="#28a745" d="M802.61,-365.3C819.98,-364.59 838.05,-363.84 855.31,-363.13"/>
<polygon fill="#28a745" stroke="#28a745" points="855.17,-366.64 865.01,-362.73 854.88,-359.65 855.17,-366.64"/>
</g>
<!-- implement_w002_hierarchy&#45;&gt;i272_w002_hierarchy -->
<g id="edge20" class="edge">
<title>implement_w002_hierarchy&#45;&gt;i272_w002_hierarchy</title>
<path fill="none" stroke="#28a745" d="M827.41,-277.29C835.45,-277.09 843.5,-276.89 851.4,-276.69"/>
<polygon fill="#28a745" stroke="#28a745" points="851.44,-280.19 861.35,-276.45 851.26,-273.2 851.44,-280.19"/>
</g>
<!-- pfd_ops_skill_ready -->
<g id="node16" class="node">
<title>pfd_ops_skill_ready</title>
<polygon fill="#ffeeba" stroke="#e0a800" points="169.2,-467.5 3.6,-467.5 3.6,-409.1 169.2,-409.1 169.2,-467.5"/>
<text xml:space="preserve" text-anchor="middle" x="86.4" y="-450.9" font-family="Times,serif" font-size="14.00">pfd_ops_skill_ready</text>
<text xml:space="preserve" text-anchor="middle" x="86.4" y="-434.1" font-family="Times,serif" font-size="14.00">pfd&#45;ops スキル ready</text>
<text xml:space="preserve" text-anchor="middle" x="86.4" y="-417.3" font-family="Times,serif" font-size="14.00">コマンド対応</text>
</g>
<!-- publish_cli_v0012 -->
<g id="node17" class="node">
<title>publish_cli_v0012</title>
<ellipse fill="#f5f5f5" stroke="#bbbbbb" cx="297.93" cy="-257.3" rx="89.13" ry="29.42"/>
<text xml:space="preserve" text-anchor="middle" x="297.93" y="-261.5" font-family="Times,serif" font-size="14.00" fill="#777777">publish_cli_v0012</text>
<text xml:space="preserve" text-anchor="middle" x="297.93" y="-244.7" font-family="Times,serif" font-size="14.00" fill="#777777">CLI v0.0.12リリース</text>
</g>
<!-- publish_cli_v0013&#45;&gt;cli_tool_v0013 -->
<g id="edge21" class="edge">
<title>publish_cli_v0013&#45;&gt;cli_tool_v0013</title>
<path fill="none" stroke="#28a745" d="M365.48,-314.8C380.5,-310.4 396.51,-305.71 411.72,-301.25"/>
<polygon fill="#28a745" stroke="#28a745" points="412.57,-304.65 421.18,-298.48 410.6,-297.93 412.57,-304.65"/>
</g>
<!-- publish_cli_v0014&#45;&gt;cli_tool_v0014 -->
<g id="edge22" class="edge">
<title>publish_cli_v0014&#45;&gt;cli_tool_v0014</title>
<path fill="none" stroke="#28a745" d="M1297.04,-211.3C1324.47,-211.3 1354.72,-211.3 1382.23,-211.3"/>
<polygon fill="#28a745" stroke="#28a745" points="1381.92,-214.8 1391.92,-211.3 1381.92,-207.8 1381.92,-214.8"/>
</g>
<!-- ready_cmd -->
<g id="node20" class="node">
<title>ready_cmd</title>
<polygon fill="#ffeeba" stroke="#e0a800" points="172.8,-315.5 0,-315.5 0,-257.1 172.8,-257.1 172.8,-315.5"/>
<text xml:space="preserve" text-anchor="middle" x="86.4" y="-298.9" font-family="Times,serif" font-size="14.00">ready_cmd</text>
<text xml:space="preserve" text-anchor="middle" x="86.4" y="-282.1" font-family="Times,serif" font-size="14.00">pfdsl ready コマンド </text>
<text xml:space="preserve" text-anchor="middle" x="86.4" y="-265.3" font-family="Times,serif" font-size="14.00">(PR #267)</text>
</g>
<!-- ready_cmd&#45;&gt;publish_cli_v0012 -->
<g id="edge23" class="edge">
<title>ready_cmd&#45;&gt;publish_cli_v0012</title>
<path fill="none" stroke="#dc3545" stroke-dasharray="5,2" d="M173.23,-274.42C183.44,-273 193.89,-271.56 204.19,-270.13"/>
<polygon fill="#dc3545" stroke="#dc3545" points="204.36,-273.64 213.79,-268.8 203.41,-266.71 204.36,-273.64"/>
</g>
<!-- ready_cmd&#45;&gt;publish_cli_v0013 -->
<g id="edge24" class="edge">
<title>ready_cmd&#45;&gt;publish_cli_v0013</title>
<path fill="none" stroke="#28a745" d="M173.23,-305.96C186.39,-308.97 199.95,-312.08 213.07,-315.08"/>
<polygon fill="#28a745" stroke="#28a745" points="211.95,-318.42 222.48,-317.24 213.51,-311.59 211.95,-318.42"/>
</g>
</g>
</svg>
