<?xml version="1.0" encoding="UTF-8" standalone="no"?>
<!DOCTYPE svg PUBLIC "-//W3C//DTD SVG 1.1//EN"
 "http://www.w3.org/Graphics/SVG/1.1/DTD/svg11.dtd">
<!-- Generated by graphviz version 15.1.0 (0)
 -->
<!-- Title: PFDSL Pages: 1 -->
<svg width="651pt" height="132pt"
 viewBox="0.00 0.00 651.00 132.00" xmlns="http://www.w3.org/2000/svg" xmlns:xlink="http://www.w3.org/1999/xlink">
<g id="graph0" class="graph" transform="scale(1 1) rotate(0) translate(4 128.19)">
<title>PFDSL</title>
<polygon fill="white" stroke="none" points="-4,4 -4,-128.19 647.35,-128.19 647.35,4 -4,4"/>
<text xml:space="preserve" text-anchor="middle" x="321.68" y="-107.59" font-family="Times,serif" font-size="14.00">Issue 依存フロー（2026&#45;06） — diff</text>
<text xml:space="preserve" text-anchor="middle" x="321.68" y="-90.79" font-family="Times,serif" font-size="14.00">green = added · red = removed · yellow = changed</text>
<!-- cli_tool_v0015 -->
<g id="node1" class="node">
<title>cli_tool_v0015</title>
<polygon fill="#f5f5f5" stroke="#bbbbbb" points="158.4,-62.1 0,-62.1 0,-20.5 158.4,-20.5 158.4,-62.1"/>
<text xml:space="preserve" text-anchor="middle" x="79.2" y="-45.5" font-family="Times,serif" font-size="14.00" fill="#777777">cli_tool_v0015</text>
<text xml:space="preserve" text-anchor="middle" x="79.2" y="-28.7" font-family="Times,serif" font-size="14.00" fill="#777777">CLI v0.0.15（次期）</text>
</g>
<!-- i354_implement_ops_checkers -->
<g id="node2" class="node">
<title>i354_implement_ops_checkers</title>
<ellipse fill="#f5c6cb" stroke="#dc3545" cx="328.88" cy="-41.3" rx="134.48" ry="41.3"/>
<text xml:space="preserve" text-anchor="middle" x="328.88" y="-53.9" font-family="Times,serif" font-size="14.00">i354_implement_ops_checkers</text>
<text xml:space="preserve" text-anchor="middle" x="328.88" y="-37.1" font-family="Times,serif" font-size="14.00">サイクル機械化スク</text>
<text xml:space="preserve" text-anchor="middle" x="328.88" y="-20.3" font-family="Times,serif" font-size="14.00">リプト実装</text>
</g>
<!-- cli_tool_v0015&#45;&gt;i354_implement_ops_checkers -->
<g id="edge1" class="edge">
<title>cli_tool_v0015&#45;&gt;i354_implement_ops_checkers</title>
<path fill="none" stroke="#dc3545" stroke-dasharray="5,2" d="M158.57,-41.3C166.46,-41.3 174.64,-41.3 182.95,-41.3"/>
<polygon fill="#dc3545" stroke="#dc3545" points="182.83,-44.8 192.83,-41.3 182.83,-37.8 182.83,-44.8"/>
</g>
<!-- ops_checkers -->
<g id="node3" class="node">
<title>ops_checkers</title>
<polygon fill="#f5c6cb" stroke="#dc3545" points="643.35,-78.9 499.35,-78.9 499.35,-3.7 643.35,-3.7 643.35,-78.9"/>
<text xml:space="preserve" text-anchor="middle" x="571.35" y="-62.3" font-family="Times,serif" font-size="14.00">ops_checkers</text>
<text xml:space="preserve" text-anchor="middle" x="571.35" y="-45.5" font-family="Times,serif" font-size="14.00">cycle&#45;status /</text>
<text xml:space="preserve" text-anchor="middle" x="571.35" y="-28.7" font-family="Times,serif" font-size="14.00">gate&#45;check</text>
<text xml:space="preserve" text-anchor="middle" x="571.35" y="-11.9" font-family="Times,serif" font-size="14.00">スクリプト (#354)</text>
</g>
<!-- i354_implement_ops_checkers&#45;&gt;ops_checkers -->
<g id="edge2" class="edge">
<title>i354_implement_ops_checkers&#45;&gt;ops_checkers</title>
<path fill="none" stroke="#dc3545" stroke-dasharray="5,2" d="M463.83,-41.3C471.85,-41.3 479.79,-41.3 487.5,-41.3"/>
<polygon fill="#dc3545" stroke="#dc3545" points="487.49,-44.8 497.49,-41.3 487.49,-37.8 487.49,-44.8"/>
</g>
</g>
</svg>
