<?xml version="1.0" encoding="UTF-8" standalone="no"?>
<!DOCTYPE svg PUBLIC "-//W3C//DTD SVG 1.1//EN"
 "http://www.w3.org/Graphics/SVG/1.1/DTD/svg11.dtd">
<!-- Generated by graphviz version 15.0.0 (0)
 -->
<!-- Title: PFDSL Pages: 1 -->
<svg width="578pt" height="132pt"
 viewBox="0.00 0.00 578.00 132.00" xmlns="http://www.w3.org/2000/svg" xmlns:xlink="http://www.w3.org/1999/xlink">
<g id="graph0" class="graph" transform="scale(1 1) rotate(0) translate(4 128.19)">
<title>PFDSL</title>
<polygon fill="white" stroke="none" points="-4,4 -4,-128.19 573.98,-128.19 573.98,4 -4,4"/>
<text xml:space="preserve" text-anchor="middle" x="284.99" y="-107.59" font-family="Times,serif" font-size="14.00">Issue 依存フロー（2026&#45;06） — diff</text>
<text xml:space="preserve" text-anchor="middle" x="284.99" y="-90.79" font-family="Times,serif" font-size="14.00">green = added · red = removed · yellow = changed</text>
<!-- cli_tool_v009 -->
<g id="node1" class="node">
<title>cli_tool_v009</title>
<polygon fill="#f5f5f5" stroke="#bbbbbb" points="115.2,-70.5 0,-70.5 0,-12.1 115.2,-12.1 115.2,-70.5"/>
<text xml:space="preserve" text-anchor="middle" x="57.6" y="-53.9" font-family="Times,serif" font-size="14.00" fill="#777777">cli_tool_v009</text>
<text xml:space="preserve" text-anchor="middle" x="57.6" y="-37.1" font-family="Times,serif" font-size="14.00" fill="#777777">CLI v0.0</text>
<text xml:space="preserve" text-anchor="middle" x="57.6" y="-20.3" font-family="Times,serif" font-size="14.00" fill="#777777">9（公開済み）</text>
</g>
<!-- implement_nested_groups -->
<g id="node3" class="node">
<title>implement_nested_groups</title>
<ellipse fill="#f5c6cb" stroke="#dc3545" cx="266.99" cy="-41.3" rx="115.79" ry="41.3"/>
<text xml:space="preserve" text-anchor="middle" x="266.99" y="-53.9" font-family="Times,serif" font-size="14.00">implement_nested_groups</text>
<text xml:space="preserve" text-anchor="middle" x="266.99" y="-37.1" font-family="Times,serif" font-size="14.00">group 内 group</text>
<text xml:space="preserve" text-anchor="middle" x="266.99" y="-20.3" font-family="Times,serif" font-size="14.00">ネスト実装</text>
</g>
<!-- cli_tool_v009&#45;&gt;implement_nested_groups -->
<g id="edge1" class="edge">
<title>cli_tool_v009&#45;&gt;implement_nested_groups</title>
<path fill="none" stroke="#dc3545" stroke-dasharray="5,2" d="M115.54,-41.3C123.21,-41.3 131.31,-41.3 139.61,-41.3"/>
<polygon fill="#dc3545" stroke="#dc3545" points="139.52,-44.8 149.52,-41.3 139.52,-37.8 139.52,-44.8"/>
</g>
<!-- i183_nested_groups -->
<g id="node2" class="node">
<title>i183_nested_groups</title>
<polygon fill="#f5c6cb" stroke="#dc3545" points="569.98,-70.5 418.78,-70.5 418.78,-12.1 569.98,-12.1 569.98,-70.5"/>
<text xml:space="preserve" text-anchor="middle" x="494.38" y="-53.9" font-family="Times,serif" font-size="14.00">i183_nested_groups</text>
<text xml:space="preserve" text-anchor="middle" x="494.38" y="-37.1" font-family="Times,serif" font-size="14.00">group 内 group</text>
<text xml:space="preserve" text-anchor="middle" x="494.38" y="-20.3" font-family="Times,serif" font-size="14.00">ネスト表現 (#183)</text>
</g>
<!-- implement_nested_groups&#45;&gt;i183_nested_groups -->
<g id="edge2" class="edge">
<title>implement_nested_groups&#45;&gt;i183_nested_groups</title>
<path fill="none" stroke="#dc3545" stroke-dasharray="5,2" d="M383,-41.3C391.09,-41.3 399.17,-41.3 407.06,-41.3"/>
<polygon fill="#dc3545" stroke="#dc3545" points="406.97,-44.8 416.97,-41.3 406.97,-37.8 406.97,-44.8"/>
</g>
</g>
</svg>
