<?xml version="1.0" encoding="UTF-8" standalone="no"?>
<!DOCTYPE svg PUBLIC "-//W3C//DTD SVG 1.1//EN"
 "http://www.w3.org/Graphics/SVG/1.1/DTD/svg11.dtd">
<!-- Generated by graphviz version 15.0.0 (0)
 -->
<!-- Title: PFDSL Pages: 1 -->
<svg width="619pt" height="599pt"
 viewBox="0.00 0.00 619.00 599.00" xmlns="http://www.w3.org/2000/svg" xmlns:xlink="http://www.w3.org/1999/xlink">
<g id="graph0" class="graph" transform="scale(1 1) rotate(0) translate(4 594.62)">
<title>PFDSL</title>
<polygon fill="white" stroke="none" points="-4,4 -4,-594.62 614.92,-594.62 614.92,4 -4,4"/>
<text xml:space="preserve" text-anchor="middle" x="305.46" y="-574.02" font-family="Times,serif" font-size="14.00">Issue 依存フロー（2026&#45;06） — diff</text>
<text xml:space="preserve" text-anchor="middle" x="305.46" y="-557.22" font-family="Times,serif" font-size="14.00">green = added · red = removed · yellow = changed</text>
<!-- cli_tool_v0011 -->
<g id="node1" class="node">
<title>cli_tool_v0011</title>
<polygon fill="#f5f5f5" stroke="#bbbbbb" points="154.8,-58.62 3.6,-58.62 3.6,-0.22 154.8,-0.22 154.8,-58.62"/>
<text xml:space="preserve" text-anchor="middle" x="79.2" y="-42.02" font-family="Times,serif" font-size="14.00" fill="#777777">cli_tool_v0011</text>
<text xml:space="preserve" text-anchor="middle" x="79.2" y="-25.22" font-family="Times,serif" font-size="14.00" fill="#777777">CLI v0.0</text>
<text xml:space="preserve" text-anchor="middle" x="79.2" y="-8.42" font-family="Times,serif" font-size="14.00" fill="#777777">11（次期リリース）</text>
</g>
<!-- consult_pfd_tools -->
<g id="node2" class="node">
<title>consult_pfd_tools</title>
<ellipse fill="#f5c6cb" stroke="#dc3545" cx="276.66" cy="-29.42" rx="82.26" ry="29.42"/>
<text xml:space="preserve" text-anchor="middle" x="276.66" y="-33.62" font-family="Times,serif" font-size="14.00">consult_pfd_tools</text>
<text xml:space="preserve" text-anchor="middle" x="276.66" y="-16.82" font-family="Times,serif" font-size="14.00">pfd&#45;tools 打診</text>
</g>
<!-- cli_tool_v0011&#45;&gt;consult_pfd_tools -->
<g id="edge1" class="edge">
<title>cli_tool_v0011&#45;&gt;consult_pfd_tools</title>
<path fill="none" stroke="#dc3545" stroke-dasharray="5,2" d="M155.21,-29.42C164.24,-29.42 173.55,-29.42 182.79,-29.42"/>
<polygon fill="#dc3545" stroke="#dc3545" points="182.51,-32.92 192.51,-29.42 182.51,-25.92 182.51,-32.92"/>
</g>
<!-- i222_pfd_tools_consultation -->
<g id="node9" class="node">
<title>i222_pfd_tools_consultation</title>
<polygon fill="#f5c6cb" stroke="#dc3545" points="610.92,-50.22 394.92,-50.22 394.92,-8.62 610.92,-8.62 610.92,-50.22"/>
<text xml:space="preserve" text-anchor="middle" x="502.92" y="-33.62" font-family="Times,serif" font-size="14.00">i222_pfd_tools_consultation</text>
<text xml:space="preserve" text-anchor="middle" x="502.92" y="-16.82" font-family="Times,serif" font-size="14.00">pfd&#45;tools 打診 (#222)</text>
</g>
<!-- consult_pfd_tools&#45;&gt;i222_pfd_tools_consultation -->
<g id="edge2" class="edge">
<title>consult_pfd_tools&#45;&gt;i222_pfd_tools_consultation</title>
<path fill="none" stroke="#dc3545" stroke-dasharray="5,2" d="M359.26,-29.42C367.09,-29.42 375.13,-29.42 383.22,-29.42"/>
<polygon fill="#dc3545" stroke="#dc3545" points="383.16,-32.92 393.16,-29.42 383.16,-25.92 383.16,-32.92"/>
</g>
<!-- i216_hover_jump -->
<g id="node3" class="node">
<title>i216_hover_jump</title>
<polygon fill="#ffeeba" stroke="#e0a800" points="150.58,-134.62 7.82,-134.62 7.82,-76.22 150.58,-76.22 150.58,-134.62"/>
<text xml:space="preserve" text-anchor="middle" x="79.2" y="-118.02" font-family="Times,serif" font-size="14.00">i216_hover_jump</text>
<text xml:space="preserve" text-anchor="middle" x="79.2" y="-101.22" font-family="Times,serif" font-size="14.00">hover/quickpick jump </text>
<text xml:space="preserve" text-anchor="middle" x="79.2" y="-84.42" font-family="Times,serif" font-size="14.00">(#216)</text>
</g>
<!-- i217_run_command -->
<g id="node4" class="node">
<title>i217_run_command</title>
<polygon fill="#ffeeba" stroke="#e0a800" points="147.6,-210.62 10.8,-210.62 10.8,-152.22 147.6,-152.22 147.6,-210.62"/>
<text xml:space="preserve" text-anchor="middle" x="79.2" y="-194.02" font-family="Times,serif" font-size="14.00">i217_run_command</text>
<text xml:space="preserve" text-anchor="middle" x="79.2" y="-177.22" font-family="Times,serif" font-size="14.00">process command</text>
<text xml:space="preserve" text-anchor="middle" x="79.2" y="-160.42" font-family="Times,serif" font-size="14.00">実行 (#217)</text>
</g>
<!-- i218_group_hover -->
<g id="node5" class="node">
<title>i218_group_hover</title>
<polygon fill="#ffeeba" stroke="#e0a800" points="158.4,-286.62 0,-286.62 0,-228.22 158.4,-228.22 158.4,-286.62"/>
<text xml:space="preserve" text-anchor="middle" x="79.2" y="-270.02" font-family="Times,serif" font-size="14.00">i218_group_hover</text>
<text xml:space="preserve" text-anchor="middle" x="79.2" y="-253.22" font-family="Times,serif" font-size="14.00">group hover</text>
<text xml:space="preserve" text-anchor="middle" x="79.2" y="-236.42" font-family="Times,serif" font-size="14.00">メンバー一覧 (#218)</text>
</g>
<!-- i219_w002_line -->
<g id="node6" class="node">
<title>i219_w002_line</title>
<polygon fill="#ffeeba" stroke="#e0a800" points="151.2,-362.62 7.2,-362.62 7.2,-304.22 151.2,-304.22 151.2,-362.62"/>
<text xml:space="preserve" text-anchor="middle" x="79.2" y="-346.02" font-family="Times,serif" font-size="14.00">i219_w002_line</text>
<text xml:space="preserve" text-anchor="middle" x="79.2" y="-329.22" font-family="Times,serif" font-size="14.00">W002 診断行番号修</text>
<text xml:space="preserve" text-anchor="middle" x="79.2" y="-312.42" font-family="Times,serif" font-size="14.00">正 (#219)</text>
</g>
<!-- i220_schedule_field -->
<g id="node7" class="node">
<title>i220_schedule_field</title>
<polygon fill="#ffeeba" stroke="#e0a800" points="158.4,-456.02 0,-456.02 0,-380.82 158.4,-380.82 158.4,-456.02"/>
<text xml:space="preserve" text-anchor="middle" x="79.2" y="-439.42" font-family="Times,serif" font-size="14.00">i220_schedule_field</text>
<text xml:space="preserve" text-anchor="middle" x="79.2" y="-422.62" font-family="Times,serif" font-size="14.00">schedule:</text>
<text xml:space="preserve" text-anchor="middle" x="79.2" y="-405.82" font-family="Times,serif" font-size="14.00">フィールド仕様・実</text>
<text xml:space="preserve" text-anchor="middle" x="79.2" y="-389.02" font-family="Times,serif" font-size="14.00">装 (#220)</text>
</g>
<!-- i221_index_renum -->
<g id="node8" class="node">
<title>i221_index_renum</title>
<polygon fill="#ffeeba" stroke="#e0a800" points="154.8,-549.02 3.6,-549.02 3.6,-473.82 154.8,-473.82 154.8,-549.02"/>
<text xml:space="preserve" text-anchor="middle" x="79.2" y="-532.42" font-family="Times,serif" font-size="14.00">i221_index_renum</text>
<text xml:space="preserve" text-anchor="middle" x="79.2" y="-515.62" font-family="Times,serif" font-size="14.00">index フィールド +</text>
<text xml:space="preserve" text-anchor="middle" x="79.2" y="-498.82" font-family="Times,serif" font-size="14.00">renum コマンド </text>
<text xml:space="preserve" text-anchor="middle" x="79.2" y="-482.02" font-family="Times,serif" font-size="14.00">#221)</text>
</g>
</g>
</svg>
