<?xml version="1.0" encoding="UTF-8" standalone="no"?>
<!DOCTYPE svg PUBLIC "-//W3C//DTD SVG 1.1//EN"
 "http://www.w3.org/Graphics/SVG/1.1/DTD/svg11.dtd">
<!-- Generated by graphviz version 15.0.0 (0)
 -->
<!-- Title: PFDSL Pages: 1 -->
<svg width="416pt" height="140pt"
 viewBox="0.00 0.00 416.00 140.00" xmlns="http://www.w3.org/2000/svg" xmlns:xlink="http://www.w3.org/1999/xlink">
<g id="graph0" class="graph" transform="scale(1 1) rotate(0) translate(4 135.6)">
<title>PFDSL</title>
<polygon fill="white" stroke="none" points="-4,4 -4,-135.6 411.83,-135.6 411.83,4 -4,4"/>
<text xml:space="preserve" text-anchor="middle" x="203.91" y="-115" font-family="Times,serif" font-size="14.00">diff</text>
<text xml:space="preserve" text-anchor="middle" x="203.91" y="-98.2" font-family="Times,serif" font-size="14.00">green = added · red = removed · yellow = changed</text>
<!-- api_spec -->
<g id="node1" class="node">
<title>api_spec</title>
<polygon fill="#f5c6cb" stroke="#dc3545" points="276.41,-90 211.43,-90 211.43,-54 276.41,-54 276.41,-90"/>
<text xml:space="preserve" text-anchor="middle" x="243.92" y="-67.8" font-family="Times,serif" font-size="14.00">api_spec</text>
</g>
<!-- build_api -->
<g id="node2" class="node">
<title>build_api</title>
<ellipse fill="#f5f5f5" stroke="#bbbbbb" cx="360.31" cy="-45" rx="47.51" ry="18"/>
<text xml:space="preserve" text-anchor="middle" x="360.31" y="-40.8" font-family="Times,serif" font-size="14.00" fill="#777777">build_api</text>
</g>
<!-- api_spec&#45;&gt;build_api -->
<g id="edge1" class="edge">
<title>api_spec&#45;&gt;build_api</title>
<path fill="none" stroke="#dc3545" stroke-dasharray="5,2" d="M276.79,-64.48C286.6,-62.16 297.66,-59.55 308.42,-57.01"/>
<polygon fill="#dc3545" stroke="#dc3545" points="309.05,-60.46 317.98,-54.76 307.45,-53.65 309.05,-60.46"/>
</g>
<!-- migrate -->
<g id="node3" class="node">
<title>migrate</title>
<ellipse fill="#c3e6cb" stroke="#28a745" cx="134.51" cy="-18" rx="40.53" ry="18"/>
<text xml:space="preserve" text-anchor="middle" x="134.51" y="-13.8" font-family="Times,serif" font-size="14.00">migrate</text>
</g>
<!-- migrated -->
<g id="node4" class="node">
<title>migrated</title>
<polygon fill="#c3e6cb" stroke="#28a745" points="276.8,-36 211.04,-36 211.04,0 276.8,0 276.8,-36"/>
<text xml:space="preserve" text-anchor="middle" x="243.92" y="-13.8" font-family="Times,serif" font-size="14.00">migrated</text>
</g>
<!-- migrate&#45;&gt;migrated -->
<g id="edge2" class="edge">
<title>migrate&#45;&gt;migrated</title>
<path fill="none" stroke="#28a745" d="M175.51,-18C183.28,-18 191.47,-18 199.35,-18"/>
<polygon fill="#28a745" stroke="#28a745" points="199.08,-21.5 209.08,-18 199.08,-14.5 199.08,-21.5"/>
</g>
<!-- migrated&#45;&gt;build_api -->
<g id="edge3" class="edge">
<title>migrated&#45;&gt;build_api</title>
<path fill="none" stroke="#28a745" d="M277.09,-25.59C286.8,-27.88 297.71,-30.46 308.33,-32.97"/>
<polygon fill="#28a745" stroke="#28a745" points="307.22,-36.3 317.76,-35.19 308.83,-29.49 307.22,-36.3"/>
</g>
<!-- schema -->
<g id="node5" class="node">
<title>schema</title>
<polygon fill="#c3e6cb" stroke="#28a745" points="57.98,-36 0,-36 0,0 57.98,0 57.98,-36"/>
<text xml:space="preserve" text-anchor="middle" x="28.99" y="-13.8" font-family="Times,serif" font-size="14.00">schema</text>
</g>
<!-- schema&#45;&gt;migrate -->
<g id="edge4" class="edge">
<title>schema&#45;&gt;migrate</title>
<path fill="none" stroke="#28a745" d="M58.28,-18C65.68,-18 73.9,-18 82.11,-18"/>
<polygon fill="#28a745" stroke="#28a745" points="82.1,-21.5 92.1,-18 82.1,-14.5 82.1,-21.5"/>
</g>
</g>
</svg>
