<?xml version="1.0" encoding="UTF-8" standalone="no"?>
<!DOCTYPE svg PUBLIC "-//W3C//DTD SVG 1.1//EN"
 "http://www.w3.org/Graphics/SVG/1.1/DTD/svg11.dtd">
<!-- Generated by graphviz version 15.0.0 (0)
 -->
<!-- Title: PFDSL Pages: 1 -->
<svg width="364pt" height="186pt"
 viewBox="0.00 0.00 364.00 186.00" xmlns="http://www.w3.org/2000/svg" xmlns:xlink="http://www.w3.org/1999/xlink">
<g id="graph0" class="graph" transform="scale(1 1) rotate(0) translate(4 182)">
<title>PFDSL</title>
<polygon fill="white" stroke="none" points="-4,4 -4,-182 360.23,-182 360.23,4 -4,4"/>
<g id="clust1" class="cluster">
<title>cluster_backend</title>
<polygon fill="lightyellow" stroke="lightyellow" points="15.01,-8 15.01,-85 341.62,-85 341.62,-8 15.01,-8"/>
<text xml:space="preserve" text-anchor="middle" x="178.31" y="-68.4" font-family="Times,serif" font-size="14.00">Backend</text>
</g>
<g id="clust2" class="cluster">
<title>cluster_frontend</title>
<polygon fill="lightblue" stroke="lightblue" points="8,-93 8,-170 348.23,-170 348.23,-93 8,-93"/>
<text xml:space="preserve" text-anchor="middle" x="178.11" y="-153.4" font-family="Times,serif" font-size="14.00">Frontend</text>
</g>
<!-- api_spec -->
<g id="node1" class="node">
<title>api_spec</title>
<polygon fill="none" stroke="black" stroke-width="2" points="87.99,-52 23.01,-52 23.01,-16 87.99,-16 87.99,-52"/>
<text xml:space="preserve" text-anchor="middle" x="55.5" y="-29.8" font-family="Times,serif" font-size="14.00">api_spec</text>
</g>
<!-- build_api -->
<g id="node2" class="node">
<title>build_api</title>
<ellipse fill="none" stroke="black" cx="178.51" cy="-34" rx="47.51" ry="18"/>
<text xml:space="preserve" text-anchor="middle" x="178.51" y="-29.8" font-family="Times,serif" font-size="14.00">build_api</text>
</g>
<!-- api_spec&#45;&gt;build_api -->
<g id="edge1" class="edge">
<title>api_spec&#45;&gt;build_api</title>
<path fill="none" stroke="black" d="M88.93,-34C98.39,-34 109.02,-34 119.56,-34"/>
<polygon fill="black" stroke="black" points="119.37,-37.5 129.37,-34 119.37,-30.5 119.37,-37.5"/>
</g>
<!-- endpoint -->
<g id="node3" class="node">
<title>endpoint</title>
<polygon fill="none" stroke="black" stroke-width="2" points="333.62,-52 268.63,-52 268.63,-16 333.62,-16 333.62,-52"/>
<text xml:space="preserve" text-anchor="middle" x="301.12" y="-29.8" font-family="Times,serif" font-size="14.00">endpoint</text>
</g>
<!-- build_api&#45;&gt;endpoint -->
<g id="edge2" class="edge">
<title>build_api&#45;&gt;endpoint</title>
<path fill="none" stroke="black" d="M226.49,-34C236.36,-34 246.74,-34 256.49,-34"/>
<polygon fill="black" stroke="black" points="256.47,-37.5 266.47,-34 256.47,-30.5 256.47,-37.5"/>
</g>
<!-- build_ui -->
<g id="node4" class="node">
<title>build_ui</title>
<ellipse fill="none" stroke="black" cx="178.51" cy="-119" rx="43.23" ry="18"/>
<text xml:space="preserve" text-anchor="middle" x="178.51" y="-114.8" font-family="Times,serif" font-size="14.00">build_ui</text>
</g>
<!-- component -->
<g id="node5" class="node">
<title>component</title>
<polygon fill="none" stroke="black" stroke-width="2" points="340.23,-137 262.02,-137 262.02,-101 340.23,-101 340.23,-137"/>
<text xml:space="preserve" text-anchor="middle" x="301.12" y="-114.8" font-family="Times,serif" font-size="14.00">component</text>
</g>
<!-- build_ui&#45;&gt;component -->
<g id="edge4" class="edge">
<title>build_ui&#45;&gt;component</title>
<path fill="none" stroke="black" d="M222.03,-119C231,-119 240.54,-119 249.76,-119"/>
<polygon fill="black" stroke="black" points="249.69,-122.5 259.69,-119 249.69,-115.5 249.69,-122.5"/>
</g>
<!-- ui_mockup -->
<g id="node6" class="node">
<title>ui_mockup</title>
<polygon fill="none" stroke="black" stroke-width="2" points="94.99,-137 16,-137 16,-101 94.99,-101 94.99,-137"/>
<text xml:space="preserve" text-anchor="middle" x="55.5" y="-114.8" font-family="Times,serif" font-size="14.00">ui_mockup</text>
</g>
<!-- ui_mockup&#45;&gt;build_ui -->
<g id="edge3" class="edge">
<title>ui_mockup&#45;&gt;build_ui</title>
<path fill="none" stroke="black" d="M95.79,-119C104.71,-119 114.35,-119 123.76,-119"/>
<polygon fill="black" stroke="black" points="123.56,-122.5 133.56,-119 123.56,-115.5 123.56,-122.5"/>
</g>
</g>
</svg>
