<?xml version="1.0" encoding="UTF-8" standalone="no"?>
<!DOCTYPE svg PUBLIC "-//W3C//DTD SVG 1.1//EN"
 "http://www.w3.org/Graphics/SVG/1.1/DTD/svg11.dtd">
<!-- Generated by graphviz version 15.0.0 (0)
 -->
<!-- Title: PFDSL Pages: 1 -->
<svg width="588pt" height="186pt"
 viewBox="0.00 0.00 588.00 186.00" xmlns="http://www.w3.org/2000/svg" xmlns:xlink="http://www.w3.org/1999/xlink">
<g id="graph0" class="graph" transform="scale(1 1) rotate(0) translate(4 182)">
<title>PFDSL</title>
<polygon fill="white" stroke="none" points="-4,4 -4,-182 583.68,-182 583.68,4 -4,4"/>
<g id="clust1" class="cluster">
<title>cluster_backend</title>
<polygon fill="lightyellow" stroke="lightyellow" points="359.66,-8 359.66,-85 571.68,-85 571.68,-8 359.66,-8"/>
<text xml:space="preserve" text-anchor="middle" x="465.67" y="-68.4" font-family="Times,serif" font-size="14.00">Backend</text>
</g>
<g id="clust2" class="cluster">
<title>cluster_db</title>
<polygon fill="#ffd9b3" stroke="#b3987d" points="18.51,-8 18.51,-85 333.43,-85 333.43,-8 18.51,-8"/>
<text xml:space="preserve" text-anchor="middle" x="175.97" y="-68.4" font-family="Times,serif" font-size="14.00">DB Layer</text>
</g>
<g id="clust3" class="cluster">
<title>cluster_frontend</title>
<polygon fill="lightblue" stroke="lightblue" points="8,-93 8,-170 339.66,-170 339.66,-93 8,-93"/>
<text xml:space="preserve" text-anchor="middle" x="173.83" y="-153.4" font-family="Times,serif" font-size="14.00">Frontend</text>
</g>
<!-- build_api -->
<g id="node1" class="node">
<title>build_api</title>
<ellipse fill="none" stroke="black" cx="415.17" cy="-34" rx="47.51" ry="18"/>
<text xml:space="preserve" text-anchor="middle" x="415.17" y="-29.8" font-family="Times,serif" font-size="14.00">build_api</text>
</g>
<!-- endpoint -->
<g id="node2" class="node">
<title>endpoint</title>
<polygon fill="none" stroke="black" stroke-width="2" points="563.68,-52 498.68,-52 498.68,-16 563.68,-16 563.68,-52"/>
<text xml:space="preserve" text-anchor="middle" x="531.18" y="-29.8" font-family="Times,serif" font-size="14.00">endpoint</text>
</g>
<!-- build_api&#45;&gt;endpoint -->
<g id="edge4" class="edge">
<title>build_api&#45;&gt;endpoint</title>
<path fill="none" stroke="black" d="M462.87,-34C470.71,-34 478.82,-34 486.58,-34"/>
<polygon fill="black" stroke="black" points="486.49,-37.5 496.49,-34 486.49,-30.5 486.49,-37.5"/>
</g>
<!-- migrate -->
<g id="node3" class="node">
<title>migrate</title>
<ellipse fill="none" stroke="black" cx="174.22" cy="-34" rx="40.53" ry="18"/>
<text xml:space="preserve" text-anchor="middle" x="174.22" y="-29.8" font-family="Times,serif" font-size="14.00">migrate</text>
</g>
<!-- migrated -->
<g id="node4" class="node">
<title>migrated</title>
<polygon fill="none" stroke="black" points="325.43,-52 259.67,-52 259.67,-16 325.43,-16 325.43,-52"/>
<text xml:space="preserve" text-anchor="middle" x="292.55" y="-29.8" font-family="Times,serif" font-size="14.00">migrated</text>
</g>
<!-- migrate&#45;&gt;migrated -->
<g id="edge2" class="edge">
<title>migrate&#45;&gt;migrated</title>
<path fill="none" stroke="black" d="M214.93,-34C225.56,-34 237.12,-34 247.95,-34"/>
<polygon fill="black" stroke="black" points="247.83,-37.5 257.83,-34 247.83,-30.5 247.83,-37.5"/>
</g>
<!-- migrated&#45;&gt;build_api -->
<g id="edge3" class="edge">
<title>migrated&#45;&gt;build_api</title>
<path fill="none" stroke="black" d="M325.88,-34C335.1,-34 345.45,-34 355.73,-34"/>
<polygon fill="black" stroke="black" points="355.73,-37.5 365.73,-34 355.73,-30.5 355.73,-37.5"/>
</g>
<!-- schema -->
<g id="node5" class="node">
<title>schema</title>
<polygon fill="none" stroke="black" stroke-width="2" points="84.49,-52 26.51,-52 26.51,-16 84.49,-16 84.49,-52"/>
<text xml:space="preserve" text-anchor="middle" x="55.5" y="-29.8" font-family="Times,serif" font-size="14.00">schema</text>
</g>
<!-- schema&#45;&gt;migrate -->
<g id="edge1" class="edge">
<title>schema&#45;&gt;migrate</title>
<path fill="none" stroke="black" d="M85.35,-34C96.41,-34 109.39,-34 121.93,-34"/>
<polygon fill="black" stroke="black" points="121.74,-37.5 131.74,-34 121.74,-30.5 121.74,-37.5"/>
</g>
<!-- build_ui -->
<g id="node6" class="node">
<title>build_ui</title>
<ellipse fill="none" stroke="black" cx="174.22" cy="-119" rx="43.23" ry="18"/>
<text xml:space="preserve" text-anchor="middle" x="174.22" y="-114.8" font-family="Times,serif" font-size="14.00">build_ui</text>
</g>
<!-- component -->
<g id="node7" class="node">
<title>component</title>
<polygon fill="none" stroke="black" stroke-width="2" points="331.66,-137 253.45,-137 253.45,-101 331.66,-101 331.66,-137"/>
<text xml:space="preserve" text-anchor="middle" x="292.55" y="-114.8" font-family="Times,serif" font-size="14.00">component</text>
</g>
<!-- build_ui&#45;&gt;component -->
<g id="edge6" class="edge">
<title>build_ui&#45;&gt;component</title>
<path fill="none" stroke="black" d="M217.88,-119C225.55,-119 233.6,-119 241.46,-119"/>
<polygon fill="black" stroke="black" points="241.24,-122.5 251.24,-119 241.24,-115.5 241.24,-122.5"/>
</g>
<!-- ui_mockup -->
<g id="node8" class="node">
<title>ui_mockup</title>
<polygon fill="none" stroke="black" stroke-width="2" points="94.99,-137 16,-137 16,-101 94.99,-101 94.99,-137"/>
<text xml:space="preserve" text-anchor="middle" x="55.5" y="-114.8" font-family="Times,serif" font-size="14.00">ui_mockup</text>
</g>
<!-- ui_mockup&#45;&gt;build_ui -->
<g id="edge5" class="edge">
<title>ui_mockup&#45;&gt;build_ui</title>
<path fill="none" stroke="black" d="M95.69,-119C103.25,-119 111.3,-119 119.24,-119"/>
<polygon fill="black" stroke="black" points="119.21,-122.5 129.21,-119 119.21,-115.5 119.21,-122.5"/>
</g>
</g>
</svg>
