<?xml version="1.0" encoding="UTF-8" standalone="no"?>
<!DOCTYPE svg PUBLIC "-//W3C//DTD SVG 1.1//EN"
 "http://www.w3.org/Graphics/SVG/1.1/DTD/svg11.dtd">
<!-- Generated by graphviz version 15.0.0 (0)
 -->
<!-- Title: PFDSL Pages: 1 -->
<svg width="610pt" height="185pt"
 viewBox="0.00 0.00 610.00 185.00" xmlns="http://www.w3.org/2000/svg" xmlns:xlink="http://www.w3.org/1999/xlink">
<g id="graph0" class="graph" transform="scale(1 1) rotate(0) translate(4 181.43)">
<title>PFDSL</title>
<polygon fill="white" stroke="none" points="-4,4 -4,-181.43 606.29,-181.43 606.29,4 -4,4"/>
<text xml:space="preserve" text-anchor="middle" x="301.15" y="-160.83" font-family="Times,serif" font-size="14.00">Issue 依存フロー（2026&#45;06） — diff</text>
<text xml:space="preserve" text-anchor="middle" x="301.15" y="-144.03" font-family="Times,serif" font-size="14.00">green = added · red = removed · yellow = changed</text>
<!-- address_audit_findings -->
<g id="node1" class="node">
<title>address_audit_findings</title>
<ellipse fill="#c3e6cb" stroke="#28a745" cx="275.95" cy="-106.42" rx="103.15" ry="29.42"/>
<text xml:space="preserve" text-anchor="middle" x="275.95" y="-110.62" font-family="Times,serif" font-size="14.00">address_audit_findings</text>
<text xml:space="preserve" text-anchor="middle" x="275.95" y="-93.82" font-family="Times,serif" font-size="14.00">監査改善の反映</text>
</g>
<!-- i198_audit_improvements -->
<g id="node3" class="node">
<title>i198_audit_improvements</title>
<polygon fill="#c3e6cb" stroke="#28a745" points="602.29,-135.62 415.09,-135.62 415.09,-77.22 602.29,-77.22 602.29,-135.62"/>
<text xml:space="preserve" text-anchor="middle" x="508.69" y="-119.02" font-family="Times,serif" font-size="14.00">i198_audit_improvements</text>
<text xml:space="preserve" text-anchor="middle" x="508.69" y="-102.22" font-family="Times,serif" font-size="14.00">監査改善の反映 </text>
<text xml:space="preserve" text-anchor="middle" x="508.69" y="-85.42" font-family="Times,serif" font-size="14.00">#198)</text>
</g>
<!-- address_audit_findings&#45;&gt;i198_audit_improvements -->
<g id="edge1" class="edge">
<title>address_audit_findings&#45;&gt;i198_audit_improvements</title>
<path fill="none" stroke="#28a745" d="M379.5,-106.42C387.51,-106.42 395.62,-106.42 403.64,-106.42"/>
<polygon fill="#28a745" stroke="#28a745" points="403.41,-109.92 413.41,-106.42 403.41,-102.92 403.41,-109.92"/>
</g>
<!-- cli_tool -->
<g id="node2" class="node">
<title>cli_tool</title>
<polygon fill="#f5f5f5" stroke="#bbbbbb" points="136.8,-88.22 0,-88.22 0,-46.62 136.8,-46.62 136.8,-88.22"/>
<text xml:space="preserve" text-anchor="middle" x="68.4" y="-71.62" font-family="Times,serif" font-size="14.00" fill="#777777">cli_tool</text>
<text xml:space="preserve" text-anchor="middle" x="68.4" y="-54.82" font-family="Times,serif" font-size="14.00" fill="#777777">CLI 実装（現行）</text>
</g>
<!-- cli_tool&#45;&gt;address_audit_findings -->
<g id="edge2" class="edge">
<title>cli_tool&#45;&gt;address_audit_findings</title>
<path fill="none" stroke="#28a745" d="M137.27,-80.29C150.37,-82.78 164.34,-85.43 178.15,-88.05"/>
<polygon fill="#28a745" stroke="#28a745" points="177.22,-91.44 187.7,-89.86 178.52,-84.56 177.22,-91.44"/>
</g>
<!-- publish_libraries -->
<g id="node5" class="node">
<title>publish_libraries</title>
<ellipse fill="#c3e6cb" stroke="#28a745" cx="275.95" cy="-29.42" rx="77.85" ry="29.42"/>
<text xml:space="preserve" text-anchor="middle" x="275.95" y="-33.62" font-family="Times,serif" font-size="14.00">publish_libraries</text>
<text xml:space="preserve" text-anchor="middle" x="275.95" y="-16.82" font-family="Times,serif" font-size="14.00">ライブラリ公開</text>
</g>
<!-- cli_tool&#45;&gt;publish_libraries -->
<g id="edge3" class="edge">
<title>cli_tool&#45;&gt;publish_libraries</title>
<path fill="none" stroke="#28a745" d="M137.27,-54.87C155.47,-51.5 175.32,-47.83 194.14,-44.36"/>
<polygon fill="#28a745" stroke="#28a745" points="194.7,-47.81 203.9,-42.55 193.43,-40.93 194.7,-47.81"/>
</g>
<!-- i201_published_libs -->
<g id="node4" class="node">
<title>i201_published_libs</title>
<polygon fill="#c3e6cb" stroke="#28a745" points="587.89,-58.62 429.49,-58.62 429.49,-0.22 587.89,-0.22 587.89,-58.62"/>
<text xml:space="preserve" text-anchor="middle" x="508.69" y="-42.02" font-family="Times,serif" font-size="14.00">i201_published_libs</text>
<text xml:space="preserve" text-anchor="middle" x="508.69" y="-25.22" font-family="Times,serif" font-size="14.00">公開ライブラリ群 </text>
<text xml:space="preserve" text-anchor="middle" x="508.69" y="-8.42" font-family="Times,serif" font-size="14.00">#201)</text>
</g>
<!-- publish_libraries&#45;&gt;i201_published_libs -->
<g id="edge4" class="edge">
<title>publish_libraries&#45;&gt;i201_published_libs</title>
<path fill="none" stroke="#28a745" d="M354.1,-29.42C374.44,-29.42 396.57,-29.42 417.53,-29.42"/>
<polygon fill="#28a745" stroke="#28a745" points="417.52,-32.92 427.52,-29.42 417.52,-25.92 417.52,-32.92"/>
</g>
</g>
</svg>
