<?xml version="1.0" encoding="UTF-8" standalone="no"?>
<!DOCTYPE svg PUBLIC "-//W3C//DTD SVG 1.1//EN"
 "http://www.w3.org/Graphics/SVG/1.1/DTD/svg11.dtd">
<!-- Generated by graphviz version 15.0.0 (0)
 -->
<!-- Title: PFDSL Pages: 1 -->
<svg width="584pt" height="132pt"
 viewBox="0.00 0.00 584.00 132.00" xmlns="http://www.w3.org/2000/svg" xmlns:xlink="http://www.w3.org/1999/xlink">
<g id="graph0" class="graph" transform="scale(1 1) rotate(0) translate(4 128.19)">
<title>PFDSL</title>
<polygon fill="white" stroke="none" points="-4,4 -4,-128.19 579.95,-128.19 579.95,4 -4,4"/>
<text xml:space="preserve" text-anchor="middle" x="287.98" y="-107.59" font-family="Times,serif" font-size="14.00">Issue 依存フロー（2026&#45;06） — diff</text>
<text xml:space="preserve" text-anchor="middle" x="287.98" y="-90.79" font-family="Times,serif" font-size="14.00">green = added · red = removed · yellow = changed</text>
<!-- cli_tool -->
<g id="node1" class="node">
<title>cli_tool</title>
<polygon fill="#f5f5f5" stroke="#bbbbbb" points="136.8,-62.1 0,-62.1 0,-20.5 136.8,-20.5 136.8,-62.1"/>
<text xml:space="preserve" text-anchor="middle" x="68.4" y="-45.5" font-family="Times,serif" font-size="14.00" fill="#777777">cli_tool</text>
<text xml:space="preserve" text-anchor="middle" x="68.4" y="-28.7" font-family="Times,serif" font-size="14.00" fill="#777777">CLI 実装（現行）</text>
</g>
<!-- publish_extension -->
<g id="node3" class="node">
<title>publish_extension</title>
<ellipse fill="#f5c6cb" stroke="#dc3545" cx="259.18" cy="-41.3" rx="86.38" ry="41.3"/>
<text xml:space="preserve" text-anchor="middle" x="259.18" y="-53.9" font-family="Times,serif" font-size="14.00">publish_extension</text>
<text xml:space="preserve" text-anchor="middle" x="259.18" y="-37.1" font-family="Times,serif" font-size="14.00">extension自動公開実</text>
<text xml:space="preserve" text-anchor="middle" x="259.18" y="-20.3" font-family="Times,serif" font-size="14.00">装</text>
</g>
<!-- cli_tool&#45;&gt;publish_extension -->
<g id="edge1" class="edge">
<title>cli_tool&#45;&gt;publish_extension</title>
<path fill="none" stroke="#dc3545" stroke-dasharray="5,2" d="M137.29,-41.3C145.05,-41.3 153.06,-41.3 161.11,-41.3"/>
<polygon fill="#dc3545" stroke="#dc3545" points="160.96,-44.8 170.96,-41.3 160.96,-37.8 160.96,-44.8"/>
</g>
<!-- i119_published_extension -->
<g id="node2" class="node">
<title>i119_published_extension</title>
<polygon fill="#f5c6cb" stroke="#dc3545" points="575.95,-70.5 381.55,-70.5 381.55,-12.1 575.95,-12.1 575.95,-70.5"/>
<text xml:space="preserve" text-anchor="middle" x="478.75" y="-53.9" font-family="Times,serif" font-size="14.00">i119_published_extension</text>
<text xml:space="preserve" text-anchor="middle" x="478.75" y="-37.1" font-family="Times,serif" font-size="14.00">Marketplace 公開済み</text>
<text xml:space="preserve" text-anchor="middle" x="478.75" y="-20.3" font-family="Times,serif" font-size="14.00"> extension (#119)</text>
</g>
<!-- publish_extension&#45;&gt;i119_published_extension -->
<g id="edge2" class="edge">
<title>publish_extension&#45;&gt;i119_published_extension</title>
<path fill="none" stroke="#dc3545" stroke-dasharray="5,2" d="M345.86,-41.3C353.78,-41.3 361.87,-41.3 369.96,-41.3"/>
<polygon fill="#dc3545" stroke="#dc3545" points="369.85,-44.8 379.85,-41.3 369.85,-37.8 369.85,-44.8"/>
</g>
</g>
</svg>
