<?xml version="1.0" encoding="UTF-8" standalone="no"?>
<!DOCTYPE svg PUBLIC "-//W3C//DTD SVG 1.1//EN"
 "http://www.w3.org/Graphics/SVG/1.1/DTD/svg11.dtd">
<!-- Generated by graphviz version 15.0.0 (0)
 -->
<!-- Title: PFDSL Pages: 1 -->
<svg width="615pt" height="201pt"
 viewBox="0.00 0.00 615.00 201.00" xmlns="http://www.w3.org/2000/svg" xmlns:xlink="http://www.w3.org/1999/xlink">
<g id="graph0" class="graph" transform="scale(1 1) rotate(0) translate(4 196.8)">
<title>PFDSL</title>
<polygon fill="white" stroke="none" points="-4,4 -4,-196.8 611.47,-196.8 611.47,4 -4,4"/>
<text xml:space="preserve" text-anchor="middle" x="303.73" y="-176.2" font-family="Times,serif" font-size="14.00">Issue 依存フロー（2026&#45;06） — diff</text>
<text xml:space="preserve" text-anchor="middle" x="303.73" y="-159.4" font-family="Times,serif" font-size="14.00">green = added · red = removed · yellow = changed</text>
<!-- cli_tool_v009 -->
<g id="node1" class="node">
<title>cli_tool_v009</title>
<polygon fill="#f5f5f5" stroke="#bbbbbb" points="133.2,-75.2 18,-75.2 18,-16.8 133.2,-16.8 133.2,-75.2"/>
<text xml:space="preserve" text-anchor="middle" x="75.6" y="-58.6" font-family="Times,serif" font-size="14.00" fill="#777777">cli_tool_v009</text>
<text xml:space="preserve" text-anchor="middle" x="75.6" y="-41.8" font-family="Times,serif" font-size="14.00" fill="#777777">CLI v0.0</text>
<text xml:space="preserve" text-anchor="middle" x="75.6" y="-25" font-family="Times,serif" font-size="14.00" fill="#777777">9（公開済み）</text>
</g>
<!-- implement_location_array -->
<g id="node4" class="node">
<title>implement_location_array</title>
<ellipse fill="#f5c6cb" stroke="#dc3545" cx="300.13" cy="-46" rx="112.93" ry="18"/>
<text xml:space="preserve" text-anchor="middle" x="300.13" y="-41.8" font-family="Times,serif" font-size="14.00">implement_location_array</text>
</g>
<!-- cli_tool_v009&#45;&gt;implement_location_array -->
<g id="edge1" class="edge">
<title>cli_tool_v009&#45;&gt;implement_location_array</title>
<path fill="none" stroke="#dc3545" stroke-dasharray="5,2" d="M133.62,-46C146.65,-46 161,-46 175.63,-46"/>
<polygon fill="#dc3545" stroke="#dc3545" points="175.35,-49.5 185.35,-46 175.35,-42.5 175.35,-49.5"/>
</g>
<!-- i182_location_array -->
<g id="node2" class="node">
<title>i182_location_array</title>
<polygon fill="#f5c6cb" stroke="#dc3545" points="607.47,-92 449.07,-92 449.07,0 607.47,0 607.47,-92"/>
<text xml:space="preserve" text-anchor="middle" x="528.27" y="-75.4" font-family="Times,serif" font-size="14.00">i182_location_array</text>
<text xml:space="preserve" text-anchor="middle" x="528.27" y="-58.6" font-family="Times,serif" font-size="14.00">location string[]</text>
<text xml:space="preserve" text-anchor="middle" x="528.27" y="-41.8" font-family="Times,serif" font-size="14.00">対応と Quick Pick</text>
<text xml:space="preserve" text-anchor="middle" x="528.27" y="-25" font-family="Times,serif" font-size="14.00">ナビゲーション </text>
<text xml:space="preserve" text-anchor="middle" x="528.27" y="-8.2" font-family="Times,serif" font-size="14.00">#182)</text>
</g>
<!-- i183_nested_groups -->
<g id="node3" class="node">
<title>i183_nested_groups</title>
<polygon fill="#ffeeba" stroke="#e0a800" points="151.2,-151.2 0,-151.2 0,-92.8 151.2,-92.8 151.2,-151.2"/>
<text xml:space="preserve" text-anchor="middle" x="75.6" y="-134.6" font-family="Times,serif" font-size="14.00">i183_nested_groups</text>
<text xml:space="preserve" text-anchor="middle" x="75.6" y="-117.8" font-family="Times,serif" font-size="14.00">group 内 group</text>
<text xml:space="preserve" text-anchor="middle" x="75.6" y="-101" font-family="Times,serif" font-size="14.00">ネスト表現 (#183)</text>
</g>
<!-- implement_location_array&#45;&gt;i182_location_array -->
<g id="edge2" class="edge">
<title>implement_location_array&#45;&gt;i182_location_array</title>
<path fill="none" stroke="#dc3545" stroke-dasharray="5,2" d="M413.54,-46C421.51,-46 429.48,-46 437.3,-46"/>
<polygon fill="#dc3545" stroke="#dc3545" points="437.11,-49.5 447.11,-46 437.11,-42.5 437.11,-49.5"/>
</g>
</g>
</svg>
