<?xml version="1.0" encoding="UTF-8" standalone="no"?>
<!DOCTYPE svg PUBLIC "-//W3C//DTD SVG 1.1//EN"
 "http://www.w3.org/Graphics/SVG/1.1/DTD/svg11.dtd">
<!-- Generated by graphviz version 15.0.0 (0)
 -->
<!-- Title: PFDSL Pages: 1 -->
<svg width="585pt" height="222pt"
 viewBox="0.00 0.00 585.00 222.00" xmlns="http://www.w3.org/2000/svg" xmlns:xlink="http://www.w3.org/1999/xlink">
<g id="graph0" class="graph" transform="scale(1 1) rotate(0) translate(4 217.9)">
<title>PFDSL</title>
<polygon fill="white" stroke="none" points="-4,4 -4,-217.9 581.18,-217.9 581.18,4 -4,4"/>
<text xml:space="preserve" text-anchor="middle" x="288.59" y="-197.3" font-family="Times,serif" font-size="14.00">Issue 依存フロー（2026&#45;06） — diff</text>
<text xml:space="preserve" text-anchor="middle" x="288.59" y="-180.5" font-family="Times,serif" font-size="14.00">green = added · red = removed · yellow = changed</text>
<!-- cli_tool_v009 -->
<g id="node1" class="node">
<title>cli_tool_v009</title>
<polygon fill="#f5f5f5" stroke="#bbbbbb" points="115.2,-108.5 0,-108.5 0,-50.1 115.2,-50.1 115.2,-108.5"/>
<text xml:space="preserve" text-anchor="middle" x="57.6" y="-91.9" font-family="Times,serif" font-size="14.00" fill="#777777">cli_tool_v009</text>
<text xml:space="preserve" text-anchor="middle" x="57.6" y="-75.1" font-family="Times,serif" font-size="14.00" fill="#777777">CLI v0.0</text>
<text xml:space="preserve" text-anchor="middle" x="57.6" y="-58.3" font-family="Times,serif" font-size="14.00" fill="#777777">9（公開済み）</text>
</g>
<!-- implement_location_array -->
<g id="node4" class="node">
<title>implement_location_array</title>
<ellipse fill="#c3e6cb" stroke="#28a745" cx="266.99" cy="-122.3" rx="112.93" ry="18"/>
<text xml:space="preserve" text-anchor="middle" x="266.99" y="-118.1" font-family="Times,serif" font-size="14.00">implement_location_array</text>
</g>
<!-- cli_tool_v009&#45;&gt;implement_location_array -->
<g id="edge1" class="edge">
<title>cli_tool_v009&#45;&gt;implement_location_array</title>
<path fill="none" stroke="#28a745" d="M115.54,-91.1C137.18,-95.59 162.25,-100.79 185.65,-105.64"/>
<polygon fill="#28a745" stroke="#28a745" points="184.63,-109 195.13,-107.6 186.05,-102.15 184.63,-109"/>
</g>
<!-- implement_nested_groups -->
<g id="node5" class="node">
<title>implement_nested_groups</title>
<ellipse fill="#c3e6cb" stroke="#28a745" cx="266.99" cy="-41.3" rx="115.79" ry="41.3"/>
<text xml:space="preserve" text-anchor="middle" x="266.99" y="-53.9" font-family="Times,serif" font-size="14.00">implement_nested_groups</text>
<text xml:space="preserve" text-anchor="middle" x="266.99" y="-37.1" font-family="Times,serif" font-size="14.00">group 内 group</text>
<text xml:space="preserve" text-anchor="middle" x="266.99" y="-20.3" font-family="Times,serif" font-size="14.00">ネスト実装</text>
</g>
<!-- cli_tool_v009&#45;&gt;implement_nested_groups -->
<g id="edge2" class="edge">
<title>cli_tool_v009&#45;&gt;implement_nested_groups</title>
<path fill="none" stroke="#28a745" d="M115.54,-68.86C127.05,-66.75 139.52,-64.47 152.19,-62.15"/>
<polygon fill="#28a745" stroke="#28a745" points="152.67,-65.62 161.87,-60.37 151.4,-58.73 152.67,-65.62"/>
</g>
<!-- i182_location_array -->
<g id="node2" class="node">
<title>i182_location_array</title>
<polygon fill="#c3e6cb" stroke="#28a745" points="577.18,-172.3 418.78,-172.3 418.78,-80.3 577.18,-80.3 577.18,-172.3"/>
<text xml:space="preserve" text-anchor="middle" x="497.98" y="-155.7" font-family="Times,serif" font-size="14.00">i182_location_array</text>
<text xml:space="preserve" text-anchor="middle" x="497.98" y="-138.9" font-family="Times,serif" font-size="14.00">location string[]</text>
<text xml:space="preserve" text-anchor="middle" x="497.98" y="-122.1" font-family="Times,serif" font-size="14.00">対応と Quick Pick</text>
<text xml:space="preserve" text-anchor="middle" x="497.98" y="-105.3" font-family="Times,serif" font-size="14.00">ナビゲーション </text>
<text xml:space="preserve" text-anchor="middle" x="497.98" y="-88.5" font-family="Times,serif" font-size="14.00">#182)</text>
</g>
<!-- i183_nested_groups -->
<g id="node3" class="node">
<title>i183_nested_groups</title>
<polygon fill="#c3e6cb" stroke="#28a745" points="573.58,-62.5 422.38,-62.5 422.38,-4.1 573.58,-4.1 573.58,-62.5"/>
<text xml:space="preserve" text-anchor="middle" x="497.98" y="-45.9" font-family="Times,serif" font-size="14.00">i183_nested_groups</text>
<text xml:space="preserve" text-anchor="middle" x="497.98" y="-29.1" font-family="Times,serif" font-size="14.00">group 内 group</text>
<text xml:space="preserve" text-anchor="middle" x="497.98" y="-12.3" font-family="Times,serif" font-size="14.00">ネスト表現 (#183)</text>
</g>
<!-- implement_location_array&#45;&gt;i182_location_array -->
<g id="edge3" class="edge">
<title>implement_location_array&#45;&gt;i182_location_array</title>
<path fill="none" stroke="#28a745" d="M379.47,-124.24C388.74,-124.4 398.05,-124.57 407.13,-124.73"/>
<polygon fill="#28a745" stroke="#28a745" points="406.93,-128.22 416.99,-124.9 407.06,-121.22 406.93,-128.22"/>
</g>
<!-- implement_nested_groups&#45;&gt;i183_nested_groups -->
<g id="edge4" class="edge">
<title>implement_nested_groups&#45;&gt;i183_nested_groups</title>
<path fill="none" stroke="#28a745" d="M382.49,-37.3C391.92,-36.97 401.35,-36.64 410.53,-36.32"/>
<polygon fill="#28a745" stroke="#28a745" points="410.62,-39.81 420.49,-35.97 410.37,-32.82 410.62,-39.81"/>
</g>
</g>
</svg>
