<?xml version="1.0" encoding="UTF-8" standalone="no"?>
<!DOCTYPE svg PUBLIC "-//W3C//DTD SVG 1.1//EN"
 "http://www.w3.org/Graphics/SVG/1.1/DTD/svg11.dtd">
<!-- Generated by graphviz version 15.1.0 (0)
 -->
<!-- Title: PFDSL Pages: 1 -->
<svg width="1839pt" height="714pt"
 viewBox="0.00 0.00 1839.00 714.00" xmlns="http://www.w3.org/2000/svg" xmlns:xlink="http://www.w3.org/1999/xlink">
<g id="graph0" class="graph" transform="scale(1 1) rotate(0) translate(4 710.19)">
<title>PFDSL</title>
<polygon fill="white" stroke="none" points="-4,4 -4,-710.19 1835.01,-710.19 1835.01,4 -4,4"/>
<text xml:space="preserve" text-anchor="middle" x="915.51" y="-689.59" font-family="Times,serif" font-size="14.00">Issue 依存フロー（2026&#45;06） — diff</text>
<text xml:space="preserve" text-anchor="middle" x="915.51" y="-672.79" font-family="Times,serif" font-size="14.00">green = added · red = removed · yellow = changed</text>
<!-- cli_release_ansi_color -->
<g id="node1" class="node">
<title>cli_release_ansi_color</title>
<polygon fill="#f5f5f5" stroke="#bbbbbb" points="180,-212.9 0,-212.9 0,-137.7 180,-137.7 180,-212.9"/>
<text xml:space="preserve" text-anchor="middle" x="90" y="-196.3" font-family="Times,serif" font-size="14.00" fill="#777777">cli_release_ansi_color</text>
<text xml:space="preserve" text-anchor="middle" x="90" y="-179.5" font-family="Times,serif" font-size="14.00" fill="#777777">CLIリリース:</text>
<text xml:space="preserve" text-anchor="middle" x="90" y="-162.7" font-family="Times,serif" font-size="14.00" fill="#777777">診断ANSIカラー出</text>
<text xml:space="preserve" text-anchor="middle" x="90" y="-145.9" font-family="Times,serif" font-size="14.00" fill="#777777">力（npm v0.0.20）</text>
</g>
<!-- i476_implement_field_get -->
<g id="node12" class="node">
<title>i476_implement_field_get</title>
<ellipse fill="#c3e6cb" stroke="#28a745" cx="374.11" cy="-320.3" rx="116.34" ry="41.3"/>
<text xml:space="preserve" text-anchor="middle" x="374.11" y="-332.9" font-family="Times,serif" font-size="14.00">i476_implement_field_get</text>
<text xml:space="preserve" text-anchor="middle" x="374.11" y="-316.1" font-family="Times,serif" font-size="14.00">フィールド値取得コ</text>
<text xml:space="preserve" text-anchor="middle" x="374.11" y="-299.3" font-family="Times,serif" font-size="14.00">マンド実装</text>
</g>
<!-- cli_release_ansi_color&#45;&gt;i476_implement_field_get -->
<g id="edge1" class="edge">
<title>cli_release_ansi_color&#45;&gt;i476_implement_field_get</title>
<path fill="none" stroke="#28a745" d="M134.02,-213.27C157.08,-232.13 186.73,-254.08 216,-269.3 232.7,-277.97 251.16,-285.55 269.38,-292.03"/>
<polygon fill="#28a745" stroke="#28a745" points="268.04,-295.27 278.64,-295.22 270.32,-288.65 268.04,-295.27"/>
</g>
<!-- i478_relax_v011 -->
<g id="node13" class="node">
<title>i478_relax_v011</title>
<ellipse fill="#c3e6cb" stroke="#28a745" cx="374.11" cy="-41.3" rx="80.33" ry="41.3"/>
<text xml:space="preserve" text-anchor="middle" x="374.11" y="-53.9" font-family="Times,serif" font-size="14.00">i478_relax_v011</text>
<text xml:space="preserve" text-anchor="middle" x="374.11" y="-37.1" font-family="Times,serif" font-size="14.00">V011 意味論緩和実</text>
<text xml:space="preserve" text-anchor="middle" x="374.11" y="-20.3" font-family="Times,serif" font-size="14.00">装</text>
</g>
<!-- cli_release_ansi_color&#45;&gt;i478_relax_v011 -->
<g id="edge2" class="edge">
<title>cli_release_ansi_color&#45;&gt;i478_relax_v011</title>
<path fill="none" stroke="#28a745" d="M141.42,-137.26C163.49,-121.84 190.2,-104.76 216,-92.3 239.62,-80.89 266.42,-71.12 291.11,-63.28"/>
<polygon fill="#28a745" stroke="#28a745" points="291.95,-66.68 300.47,-60.37 289.88,-59.99 291.95,-66.68"/>
</g>
<!-- i479_implement_graph_analysis -->
<g id="node14" class="node">
<title>i479_implement_graph_analysis</title>
<ellipse fill="#c3e6cb" stroke="#28a745" cx="374.11" cy="-219.3" rx="140.53" ry="41.3"/>
<text xml:space="preserve" text-anchor="middle" x="374.11" y="-231.9" font-family="Times,serif" font-size="14.00">i479_implement_graph_analysis</text>
<text xml:space="preserve" text-anchor="middle" x="374.11" y="-215.1" font-family="Times,serif" font-size="14.00">graph&#45;analysis</text>
<text xml:space="preserve" text-anchor="middle" x="374.11" y="-198.3" font-family="Times,serif" font-size="14.00">サブコマンド実装</text>
</g>
<!-- cli_release_ansi_color&#45;&gt;i479_implement_graph_analysis -->
<g id="edge3" class="edge">
<title>cli_release_ansi_color&#45;&gt;i479_implement_graph_analysis</title>
<path fill="none" stroke="#28a745" d="M180.26,-189.22C198.63,-192.08 218.36,-195.16 237.94,-198.21"/>
<polygon fill="#28a745" stroke="#28a745" points="237.2,-201.64 247.62,-199.72 238.28,-194.72 237.2,-201.64"/>
</g>
<!-- i480_relax_incomplete_graph -->
<g id="node15" class="node">
<title>i480_relax_incomplete_graph</title>
<ellipse fill="#c3e6cb" stroke="#28a745" cx="374.11" cy="-130.3" rx="130.07" ry="29.42"/>
<text xml:space="preserve" text-anchor="middle" x="374.11" y="-134.5" font-family="Times,serif" font-size="14.00">i480_relax_incomplete_graph</text>
<text xml:space="preserve" text-anchor="middle" x="374.11" y="-117.7" font-family="Times,serif" font-size="14.00">書き途中許容実装</text>
</g>
<!-- cli_release_ansi_color&#45;&gt;i480_relax_incomplete_graph -->
<g id="edge4" class="edge">
<title>cli_release_ansi_color&#45;&gt;i480_relax_incomplete_graph</title>
<path fill="none" stroke="#28a745" d="M180.26,-161.06C204.17,-157.24 230.38,-153.06 255.56,-149.05"/>
<polygon fill="#28a745" stroke="#28a745" points="255.84,-152.55 265.17,-147.51 254.74,-145.63 255.84,-152.55"/>
</g>
<!-- cli_release_grill_tolerance -->
<g id="node2" class="node">
<title>cli_release_grill_tolerance</title>
<polygon fill="#c3e6cb" stroke="#28a745" points="1831.01,-147.5 1615.01,-147.5 1615.01,-89.1 1831.01,-89.1 1831.01,-147.5"/>
<text xml:space="preserve" text-anchor="middle" x="1723.01" y="-130.9" font-family="Times,serif" font-size="14.00">cli_release_grill_tolerance</text>
<text xml:space="preserve" text-anchor="middle" x="1723.01" y="-114.1" font-family="Times,serif" font-size="14.00">CLIリリース:</text>
<text xml:space="preserve" text-anchor="middle" x="1723.01" y="-97.3" font-family="Times,serif" font-size="14.00">診断緩和 + pfd&#45;grill</text>
</g>
<!-- cli_release_query_tools -->
<g id="node3" class="node">
<title>cli_release_query_tools</title>
<polygon fill="#c3e6cb" stroke="#28a745" points="1307.05,-317.9 1119.85,-317.9 1119.85,-242.7 1307.05,-242.7 1307.05,-317.9"/>
<text xml:space="preserve" text-anchor="middle" x="1213.45" y="-301.3" font-family="Times,serif" font-size="14.00">cli_release_query_tools</text>
<text xml:space="preserve" text-anchor="middle" x="1213.45" y="-284.5" font-family="Times,serif" font-size="14.00">CLIリリース:</text>
<text xml:space="preserve" text-anchor="middle" x="1213.45" y="-267.7" font-family="Times,serif" font-size="14.00">フィールド取得 +</text>
<text xml:space="preserve" text-anchor="middle" x="1213.45" y="-250.9" font-family="Times,serif" font-size="14.00">graph 分析</text>
</g>
<!-- def_insertion -->
<g id="node4" class="node">
<title>def_insertion</title>
<polygon fill="#c3e6cb" stroke="#28a745" points="733.83,-450.5 568.23,-450.5 568.23,-392.1 733.83,-392.1 733.83,-450.5"/>
<text xml:space="preserve" text-anchor="middle" x="651.03" y="-433.9" font-family="Times,serif" font-size="14.00">def_insertion</text>
<text xml:space="preserve" text-anchor="middle" x="651.03" y="-417.1" font-family="Times,serif" font-size="14.00">frontmatter 定義挿入</text>
<text xml:space="preserve" text-anchor="middle" x="651.03" y="-400.3" font-family="Times,serif" font-size="14.00">code action (#484)</text>
</g>
<!-- publish_ext_editing -->
<g id="node24" class="node">
<title>publish_ext_editing</title>
<ellipse fill="#c3e6cb" stroke="#28a745" cx="1461.03" cy="-459.3" rx="89.95" ry="41.3"/>
<text xml:space="preserve" text-anchor="middle" x="1461.03" y="-471.9" font-family="Times,serif" font-size="14.00">publish_ext_editing</text>
<text xml:space="preserve" text-anchor="middle" x="1461.03" y="-455.1" font-family="Times,serif" font-size="14.00">extension</text>
<text xml:space="preserve" text-anchor="middle" x="1461.03" y="-438.3" font-family="Times,serif" font-size="14.00">編集支援リリース</text>
</g>
<!-- def_insertion&#45;&gt;publish_ext_editing -->
<g id="edge5" class="edge">
<title>def_insertion&#45;&gt;publish_ext_editing</title>
<path fill="none" stroke="#28a745" d="M734.31,-422.87C858.5,-425.57 1101.22,-432.12 1307.05,-445.3 1324.6,-446.42 1343.26,-447.89 1361.29,-449.46"/>
<polygon fill="#28a745" stroke="#28a745" points="1360.95,-452.94 1371.22,-450.34 1361.57,-445.97 1360.95,-452.94"/>
</g>
<!-- editor_connector -->
<g id="node5" class="node">
<title>editor_connector</title>
<polygon fill="#c3e6cb" stroke="#28a745" points="723.03,-559.9 579.03,-559.9 579.03,-484.7 723.03,-484.7 723.03,-559.9"/>
<text xml:space="preserve" text-anchor="middle" x="651.03" y="-543.3" font-family="Times,serif" font-size="14.00">editor_connector</text>
<text xml:space="preserve" text-anchor="middle" x="651.03" y="-526.5" font-family="Times,serif" font-size="14.00">エディタ</text>
<text xml:space="preserve" text-anchor="middle" x="651.03" y="-509.7" font-family="Times,serif" font-size="14.00">コネクタ編集支援 </text>
<text xml:space="preserve" text-anchor="middle" x="651.03" y="-492.9" font-family="Times,serif" font-size="14.00">#482)</text>
</g>
<!-- i483_implement_preview_connector -->
<g id="node18" class="node">
<title>i483_implement_preview_connector</title>
<ellipse fill="#c3e6cb" stroke="#28a745" cx="926.84" cy="-528.3" rx="157.01" ry="41.3"/>
<text xml:space="preserve" text-anchor="middle" x="926.84" y="-540.9" font-family="Times,serif" font-size="14.00">i483_implement_preview_connector</text>
<text xml:space="preserve" text-anchor="middle" x="926.84" y="-524.1" font-family="Times,serif" font-size="14.00">Preview コネクタ UI</text>
<text xml:space="preserve" text-anchor="middle" x="926.84" y="-507.3" font-family="Times,serif" font-size="14.00">実装</text>
</g>
<!-- editor_connector&#45;&gt;i483_implement_preview_connector -->
<g id="edge6" class="edge">
<title>editor_connector&#45;&gt;i483_implement_preview_connector</title>
<path fill="none" stroke="#28a745" d="M723.25,-523.86C734.42,-524.1 746.34,-524.36 758.61,-524.63"/>
<polygon fill="#28a745" stroke="#28a745" points="758.37,-528.13 768.44,-524.85 758.52,-521.13 758.37,-528.13"/>
</g>
<!-- editor_connector&#45;&gt;publish_ext_editing -->
<g id="edge7" class="edge">
<title>editor_connector&#45;&gt;publish_ext_editing</title>
<path fill="none" stroke="#28a745" d="M723.52,-491.33C738.56,-486.03 754.51,-481.28 769.83,-478.3 976.97,-437.92 1225.63,-444.09 1360.74,-451.88"/>
<polygon fill="#28a745" stroke="#28a745" points="1360.16,-455.36 1370.35,-452.45 1360.57,-448.37 1360.16,-455.36"/>
</g>
<!-- ext_editing_release -->
<g id="node6" class="node">
<title>ext_editing_release</title>
<polygon fill="#c3e6cb" stroke="#28a745" points="1802.21,-488.5 1643.81,-488.5 1643.81,-430.1 1802.21,-430.1 1802.21,-488.5"/>
<text xml:space="preserve" text-anchor="middle" x="1723.01" y="-471.9" font-family="Times,serif" font-size="14.00">ext_editing_release</text>
<text xml:space="preserve" text-anchor="middle" x="1723.01" y="-455.1" font-family="Times,serif" font-size="14.00">extension</text>
<text xml:space="preserve" text-anchor="middle" x="1723.01" y="-438.3" font-family="Times,serif" font-size="14.00">編集支援リリース</text>
</g>
<!-- ext_v0015 -->
<g id="node7" class="node">
<title>ext_v0015</title>
<polygon fill="#f5f5f5" stroke="#bbbbbb" points="151.2,-500.5 28.8,-500.5 28.8,-442.1 151.2,-442.1 151.2,-500.5"/>
<text xml:space="preserve" text-anchor="middle" x="90" y="-483.9" font-family="Times,serif" font-size="14.00" fill="#777777">ext_v0015</text>
<text xml:space="preserve" text-anchor="middle" x="90" y="-467.1" font-family="Times,serif" font-size="14.00" fill="#777777">extension v0.0</text>
<text xml:space="preserve" text-anchor="middle" x="90" y="-450.3" font-family="Times,serif" font-size="14.00" fill="#777777">15（次期）</text>
</g>
<!-- i482_implement_editor_connector -->
<g id="node17" class="node">
<title>i482_implement_editor_connector</title>
<ellipse fill="#c3e6cb" stroke="#28a745" cx="374.11" cy="-522.3" rx="148.22" ry="41.3"/>
<text xml:space="preserve" text-anchor="middle" x="374.11" y="-534.9" font-family="Times,serif" font-size="14.00">i482_implement_editor_connector</text>
<text xml:space="preserve" text-anchor="middle" x="374.11" y="-518.1" font-family="Times,serif" font-size="14.00">エディタ</text>
<text xml:space="preserve" text-anchor="middle" x="374.11" y="-501.3" font-family="Times,serif" font-size="14.00">コネクタ編集実装</text>
</g>
<!-- ext_v0015&#45;&gt;i482_implement_editor_connector -->
<g id="edge8" class="edge">
<title>ext_v0015&#45;&gt;i482_implement_editor_connector</title>
<path fill="none" stroke="#28a745" d="M151.52,-482.24C176.9,-486.82 207.51,-492.36 237.77,-497.83"/>
<polygon fill="#28a745" stroke="#28a745" points="236.93,-501.23 247.4,-499.57 238.18,-494.35 236.93,-501.23"/>
</g>
<!-- i484_implement_def_insertion -->
<g id="node19" class="node">
<title>i484_implement_def_insertion</title>
<ellipse fill="#c3e6cb" stroke="#28a745" cx="374.11" cy="-421.3" rx="133.38" ry="41.3"/>
<text xml:space="preserve" text-anchor="middle" x="374.11" y="-433.9" font-family="Times,serif" font-size="14.00">i484_implement_def_insertion</text>
<text xml:space="preserve" text-anchor="middle" x="374.11" y="-417.1" font-family="Times,serif" font-size="14.00">定義挿入 code action</text>
<text xml:space="preserve" text-anchor="middle" x="374.11" y="-400.3" font-family="Times,serif" font-size="14.00">実装</text>
</g>
<!-- ext_v0015&#45;&gt;i484_implement_def_insertion -->
<g id="edge9" class="edge">
<title>ext_v0015&#45;&gt;i484_implement_def_insertion</title>
<path fill="none" stroke="#28a745" d="M151.52,-460.57C179.3,-455.64 213.35,-449.61 246.35,-443.76"/>
<polygon fill="#28a745" stroke="#28a745" points="246.77,-447.24 256,-442.05 245.54,-440.35 246.77,-447.24"/>
</g>
<!-- field_get_cmd -->
<g id="node8" class="node">
<title>field_get_cmd</title>
<polygon fill="#c3e6cb" stroke="#28a745" points="726.63,-353.9 575.43,-353.9 575.43,-278.7 726.63,-278.7 726.63,-353.9"/>
<text xml:space="preserve" text-anchor="middle" x="651.03" y="-337.3" font-family="Times,serif" font-size="14.00">field_get_cmd</text>
<text xml:space="preserve" text-anchor="middle" x="651.03" y="-320.5" font-family="Times,serif" font-size="14.00">ノード</text>
<text xml:space="preserve" text-anchor="middle" x="651.03" y="-303.7" font-family="Times,serif" font-size="14.00">フィールド値取得コ</text>
<text xml:space="preserve" text-anchor="middle" x="651.03" y="-286.9" font-family="Times,serif" font-size="14.00">マンド (#476)</text>
</g>
<!-- publish_cli_query_tools -->
<g id="node23" class="node">
<title>publish_cli_query_tools</title>
<ellipse fill="#c3e6cb" stroke="#28a745" cx="926.84" cy="-280.3" rx="107" ry="41.3"/>
<text xml:space="preserve" text-anchor="middle" x="926.84" y="-292.9" font-family="Times,serif" font-size="14.00">publish_cli_query_tools</text>
<text xml:space="preserve" text-anchor="middle" x="926.84" y="-276.1" font-family="Times,serif" font-size="14.00">CLI フィールド取得</text>
<text xml:space="preserve" text-anchor="middle" x="926.84" y="-259.3" font-family="Times,serif" font-size="14.00">+ graph 分析公開</text>
</g>
<!-- field_get_cmd&#45;&gt;publish_cli_query_tools -->
<g id="edge10" class="edge">
<title>field_get_cmd&#45;&gt;publish_cli_query_tools</title>
<path fill="none" stroke="#28a745" d="M726.85,-306.46C753.67,-302.93 784.52,-298.88 813.8,-295.03"/>
<polygon fill="#28a745" stroke="#28a745" points="813.97,-298.53 823.43,-293.76 813.06,-291.59 813.97,-298.53"/>
</g>
<!-- graph_analysis -->
<g id="node9" class="node">
<title>graph_analysis</title>
<polygon fill="#c3e6cb" stroke="#28a745" points="715.83,-258.9 586.23,-258.9 586.23,-183.7 715.83,-183.7 715.83,-258.9"/>
<text xml:space="preserve" text-anchor="middle" x="651.03" y="-242.3" font-family="Times,serif" font-size="14.00">graph_analysis</text>
<text xml:space="preserve" text-anchor="middle" x="651.03" y="-225.5" font-family="Times,serif" font-size="14.00">graph&#45;analysis</text>
<text xml:space="preserve" text-anchor="middle" x="651.03" y="-208.7" font-family="Times,serif" font-size="14.00">サブコマンド群 </text>
<text xml:space="preserve" text-anchor="middle" x="651.03" y="-191.9" font-family="Times,serif" font-size="14.00">#479)</text>
</g>
<!-- graph_analysis&#45;&gt;publish_cli_query_tools -->
<g id="edge11" class="edge">
<title>graph_analysis&#45;&gt;publish_cli_query_tools</title>
<path fill="none" stroke="#28a745" d="M716.23,-235.13C747.67,-241.9 786.32,-250.23 821.83,-257.88"/>
<polygon fill="#28a745" stroke="#28a745" points="820.75,-261.23 831.26,-259.92 822.22,-254.39 820.75,-261.23"/>
</g>
<!-- grill_skill -->
<g id="node10" class="node">
<title>grill_skill</title>
<polygon fill="#c3e6cb" stroke="#28a745" points="1303.45,-147.5 1123.45,-147.5 1123.45,-89.1 1303.45,-89.1 1303.45,-147.5"/>
<text xml:space="preserve" text-anchor="middle" x="1213.45" y="-130.9" font-family="Times,serif" font-size="14.00">grill_skill</text>
<text xml:space="preserve" text-anchor="middle" x="1213.45" y="-114.1" font-family="Times,serif" font-size="14.00">pfd&#45;grill スキル (#481</text>
<text xml:space="preserve" text-anchor="middle" x="1213.45" y="-97.3" font-family="Times,serif" font-size="14.00">)</text>
</g>
<!-- publish_cli_grill_tolerance -->
<g id="node22" class="node">
<title>publish_cli_grill_tolerance</title>
<ellipse fill="#c3e6cb" stroke="#28a745" cx="1461.03" cy="-118.3" rx="117.98" ry="41.3"/>
<text xml:space="preserve" text-anchor="middle" x="1461.03" y="-130.9" font-family="Times,serif" font-size="14.00">publish_cli_grill_tolerance</text>
<text xml:space="preserve" text-anchor="middle" x="1461.03" y="-114.1" font-family="Times,serif" font-size="14.00">CLI 診断緩和 + grill</text>
<text xml:space="preserve" text-anchor="middle" x="1461.03" y="-97.3" font-family="Times,serif" font-size="14.00">公開</text>
</g>
<!-- grill_skill&#45;&gt;publish_cli_grill_tolerance -->
<g id="edge12" class="edge">
<title>grill_skill&#45;&gt;publish_cli_grill_tolerance</title>
<path fill="none" stroke="#28a745" d="M1303.81,-118.3C1312.78,-118.3 1322.01,-118.3 1331.28,-118.3"/>
<polygon fill="#28a745" stroke="#28a745" points="1331.08,-121.8 1341.08,-118.3 1331.08,-114.8 1331.08,-121.8"/>
</g>
<!-- i278_implement_release_automation -->
<g id="node11" class="node">
<title>i278_implement_release_automation</title>
<ellipse fill="#f5c6cb" stroke="#dc3545" cx="374.11" cy="-623.3" rx="158.11" ry="41.3"/>
<text xml:space="preserve" text-anchor="middle" x="374.11" y="-635.9" font-family="Times,serif" font-size="14.00">i278_implement_release_automation</text>
<text xml:space="preserve" text-anchor="middle" x="374.11" y="-619.1" font-family="Times,serif" font-size="14.00">make release roadmap</text>
<text xml:space="preserve" text-anchor="middle" x="374.11" y="-602.3" font-family="Times,serif" font-size="14.00">自動更新実装</text>
</g>
<!-- release_automation -->
<g id="node25" class="node">
<title>release_automation</title>
<polygon fill="#f5c6cb" stroke="#dc3545" points="733.83,-652.5 568.23,-652.5 568.23,-594.1 733.83,-594.1 733.83,-652.5"/>
<text xml:space="preserve" text-anchor="middle" x="651.03" y="-635.9" font-family="Times,serif" font-size="14.00">release_automation</text>
<text xml:space="preserve" text-anchor="middle" x="651.03" y="-619.1" font-family="Times,serif" font-size="14.00">make release roadmap</text>
<text xml:space="preserve" text-anchor="middle" x="651.03" y="-602.3" font-family="Times,serif" font-size="14.00">自動更新 (#278)</text>
</g>
<!-- i278_implement_release_automation&#45;&gt;release_automation -->
<g id="edge13" class="edge">
<title>i278_implement_release_automation&#45;&gt;release_automation</title>
<path fill="none" stroke="#dc3545" stroke-dasharray="5,2" d="M532.64,-623.3C540.78,-623.3 548.83,-623.3 556.66,-623.3"/>
<polygon fill="#dc3545" stroke="#dc3545" points="556.46,-626.8 566.46,-623.3 556.45,-619.8 556.46,-626.8"/>
</g>
<!-- i476_implement_field_get&#45;&gt;field_get_cmd -->
<g id="edge14" class="edge">
<title>i476_implement_field_get&#45;&gt;field_get_cmd</title>
<path fill="none" stroke="#28a745" d="M490.51,-318.62C515.13,-318.26 540.73,-317.89 564.02,-317.55"/>
<polygon fill="#28a745" stroke="#28a745" points="563.79,-321.05 573.74,-317.41 563.69,-314.05 563.79,-321.05"/>
</g>
<!-- v011_semantics -->
<g id="node27" class="node">
<title>v011_semantics</title>
<polygon fill="#c3e6cb" stroke="#28a745" points="1006.04,-70.5 847.64,-70.5 847.64,-12.1 1006.04,-12.1 1006.04,-70.5"/>
<text xml:space="preserve" text-anchor="middle" x="926.84" y="-53.9" font-family="Times,serif" font-size="14.00">v011_semantics</text>
<text xml:space="preserve" text-anchor="middle" x="926.84" y="-37.1" font-family="Times,serif" font-size="14.00">V011 strict</text>
<text xml:space="preserve" text-anchor="middle" x="926.84" y="-20.3" font-family="Times,serif" font-size="14.00">意味論の緩和 (#478)</text>
</g>
<!-- i478_relax_v011&#45;&gt;v011_semantics -->
<g id="edge15" class="edge">
<title>i478_relax_v011&#45;&gt;v011_semantics</title>
<path fill="none" stroke="#28a745" d="M454.9,-41.3C556.14,-41.3 730.29,-41.3 836.07,-41.3"/>
<polygon fill="#28a745" stroke="#28a745" points="835.84,-44.8 845.84,-41.3 835.84,-37.8 835.84,-44.8"/>
</g>
<!-- i479_implement_graph_analysis&#45;&gt;graph_analysis -->
<g id="edge16" class="edge">
<title>i479_implement_graph_analysis&#45;&gt;graph_analysis</title>
<path fill="none" stroke="#28a745" d="M514.99,-220.31C535.53,-220.46 556,-220.61 574.56,-220.75"/>
<polygon fill="#28a745" stroke="#28a745" points="574.32,-224.24 584.34,-220.82 574.37,-217.24 574.32,-224.24"/>
</g>
<!-- incomplete_tolerance -->
<g id="node20" class="node">
<title>incomplete_tolerance</title>
<polygon fill="#c3e6cb" stroke="#28a745" points="733.83,-159.5 568.23,-159.5 568.23,-101.1 733.83,-101.1 733.83,-159.5"/>
<text xml:space="preserve" text-anchor="middle" x="651.03" y="-142.9" font-family="Times,serif" font-size="14.00">incomplete_tolerance</text>
<text xml:space="preserve" text-anchor="middle" x="651.03" y="-126.1" font-family="Times,serif" font-size="14.00">書き途中グラフ非stri</text>
<text xml:space="preserve" text-anchor="middle" x="651.03" y="-109.3" font-family="Times,serif" font-size="14.00">ct許容 (#480)</text>
</g>
<!-- i480_relax_incomplete_graph&#45;&gt;incomplete_tolerance -->
<g id="edge17" class="edge">
<title>i480_relax_incomplete_graph&#45;&gt;incomplete_tolerance</title>
<path fill="none" stroke="#28a745" d="M504.52,-130.3C522.06,-130.3 539.77,-130.3 556.52,-130.3"/>
<polygon fill="#28a745" stroke="#28a745" points="556.42,-133.8 566.42,-130.3 556.42,-126.8 556.42,-133.8"/>
</g>
<!-- i481_create_grill_skill -->
<g id="node16" class="node">
<title>i481_create_grill_skill</title>
<ellipse fill="#c3e6cb" stroke="#28a745" cx="926.84" cy="-118.3" rx="100.94" ry="29.42"/>
<text xml:space="preserve" text-anchor="middle" x="926.84" y="-122.5" font-family="Times,serif" font-size="14.00">i481_create_grill_skill</text>
<text xml:space="preserve" text-anchor="middle" x="926.84" y="-105.7" font-family="Times,serif" font-size="14.00">pfd&#45;grill スキル作成</text>
</g>
<!-- i481_create_grill_skill&#45;&gt;grill_skill -->
<g id="edge18" class="edge">
<title>i481_create_grill_skill&#45;&gt;grill_skill</title>
<path fill="none" stroke="#28a745" d="M1028.18,-118.3C1055.21,-118.3 1084.46,-118.3 1111.52,-118.3"/>
<polygon fill="#28a745" stroke="#28a745" points="1111.45,-121.8 1121.45,-118.3 1111.45,-114.8 1111.45,-121.8"/>
</g>
<!-- i482_implement_editor_connector&#45;&gt;editor_connector -->
<g id="edge19" class="edge">
<title>i482_implement_editor_connector&#45;&gt;editor_connector</title>
<path fill="none" stroke="#28a745" d="M522.63,-522.3C538.01,-522.3 553.22,-522.3 567.48,-522.3"/>
<polygon fill="#28a745" stroke="#28a745" points="567.19,-525.8 577.19,-522.3 567.19,-518.8 567.19,-525.8"/>
</g>
<!-- preview_connector -->
<g id="node21" class="node">
<title>preview_connector</title>
<polygon fill="#c3e6cb" stroke="#28a745" points="1285.45,-563.9 1141.45,-563.9 1141.45,-488.7 1285.45,-488.7 1285.45,-563.9"/>
<text xml:space="preserve" text-anchor="middle" x="1213.45" y="-547.3" font-family="Times,serif" font-size="14.00">preview_connector</text>
<text xml:space="preserve" text-anchor="middle" x="1213.45" y="-530.5" font-family="Times,serif" font-size="14.00">Preview</text>
<text xml:space="preserve" text-anchor="middle" x="1213.45" y="-513.7" font-family="Times,serif" font-size="14.00">コネクタ生成 UI </text>
<text xml:space="preserve" text-anchor="middle" x="1213.45" y="-496.9" font-family="Times,serif" font-size="14.00">#483)</text>
</g>
<!-- i483_implement_preview_connector&#45;&gt;preview_connector -->
<g id="edge20" class="edge">
<title>i483_implement_preview_connector&#45;&gt;preview_connector</title>
<path fill="none" stroke="#28a745" d="M1083.89,-527.2C1099.62,-527.09 1115.13,-526.98 1129.63,-526.88"/>
<polygon fill="#28a745" stroke="#28a745" points="1129.54,-530.38 1139.51,-526.81 1129.49,-523.38 1129.54,-530.38"/>
</g>
<!-- i484_implement_def_insertion&#45;&gt;def_insertion -->
<g id="edge21" class="edge">
<title>i484_implement_def_insertion&#45;&gt;def_insertion</title>
<path fill="none" stroke="#28a745" d="M507.74,-421.3C524.31,-421.3 540.98,-421.3 556.78,-421.3"/>
<polygon fill="#28a745" stroke="#28a745" points="556.6,-424.8 566.6,-421.3 556.6,-417.8 556.6,-424.8"/>
</g>
<!-- incomplete_tolerance&#45;&gt;i481_create_grill_skill -->
<g id="edge22" class="edge">
<title>incomplete_tolerance&#45;&gt;i481_create_grill_skill</title>
<path fill="none" stroke="#28a745" d="M734.18,-126.69C759.79,-125.57 788.47,-124.32 815.68,-123.12"/>
<polygon fill="#28a745" stroke="#28a745" points="815.48,-126.64 825.32,-122.7 815.17,-119.64 815.48,-126.64"/>
</g>
<!-- incomplete_tolerance&#45;&gt;publish_cli_grill_tolerance -->
<g id="edge23" class="edge">
<title>incomplete_tolerance&#45;&gt;publish_cli_grill_tolerance</title>
<path fill="none" stroke="#28a745" d="M734.04,-150.78C745.97,-153.06 758.17,-155.02 769.83,-156.3 1007.19,-182.18 1070.05,-185.29 1307.05,-156.3 1323.77,-154.25 1341.28,-150.99 1358.25,-147.23"/>
<polygon fill="#28a745" stroke="#28a745" points="1358.87,-150.67 1367.83,-145.02 1357.3,-143.85 1358.87,-150.67"/>
</g>
<!-- preview_connector&#45;&gt;publish_ext_editing -->
<g id="edge24" class="edge">
<title>preview_connector&#45;&gt;publish_ext_editing</title>
<path fill="none" stroke="#28a745" d="M1285.81,-506.83C1312.69,-499.49 1343.59,-491.06 1371.82,-483.36"/>
<polygon fill="#28a745" stroke="#28a745" points="1372.73,-486.74 1381.45,-480.73 1370.88,-479.99 1372.73,-486.74"/>
</g>
<!-- publish_cli_grill_tolerance&#45;&gt;cli_release_grill_tolerance -->
<g id="edge25" class="edge">
<title>publish_cli_grill_tolerance&#45;&gt;cli_release_grill_tolerance</title>
<path fill="none" stroke="#28a745" d="M1579.47,-118.3C1587.34,-118.3 1595.27,-118.3 1603.14,-118.3"/>
<polygon fill="#28a745" stroke="#28a745" points="1603.11,-121.8 1613.11,-118.3 1603.11,-114.8 1603.11,-121.8"/>
</g>
<!-- publish_cli_query_tools&#45;&gt;cli_release_query_tools -->
<g id="edge26" class="edge">
<title>publish_cli_query_tools&#45;&gt;cli_release_query_tools</title>
<path fill="none" stroke="#28a745" d="M1034.22,-280.3C1058.49,-280.3 1084.24,-280.3 1108.4,-280.3"/>
<polygon fill="#28a745" stroke="#28a745" points="1108.24,-283.8 1118.24,-280.3 1108.24,-276.8 1108.24,-283.8"/>
</g>
<!-- publish_ext_editing&#45;&gt;ext_editing_release -->
<g id="edge27" class="edge">
<title>publish_ext_editing&#45;&gt;ext_editing_release</title>
<path fill="none" stroke="#28a745" d="M1551.14,-459.3C1577.26,-459.3 1605.83,-459.3 1632.01,-459.3"/>
<polygon fill="#28a745" stroke="#28a745" points="1631.94,-462.8 1641.94,-459.3 1631.94,-455.8 1631.94,-462.8"/>
</g>
<!-- status_set -->
<g id="node26" class="node">
<title>status_set</title>
<polygon fill="#f5f5f5" stroke="#bbbbbb" points="172.8,-652.5 7.2,-652.5 7.2,-594.1 172.8,-594.1 172.8,-652.5"/>
<text xml:space="preserve" text-anchor="middle" x="90" y="-635.9" font-family="Times,serif" font-size="14.00" fill="#777777">status_set</text>
<text xml:space="preserve" text-anchor="middle" x="90" y="-619.1" font-family="Times,serif" font-size="14.00" fill="#777777">status&#45;set コマンド </text>
<text xml:space="preserve" text-anchor="middle" x="90" y="-602.3" font-family="Times,serif" font-size="14.00" fill="#777777">#277)</text>
</g>
<!-- status_set&#45;&gt;i278_implement_release_automation -->
<g id="edge28" class="edge">
<title>status_set&#45;&gt;i278_implement_release_automation</title>
<path fill="none" stroke="#dc3545" stroke-dasharray="5,2" d="M172.98,-623.3C183.06,-623.3 193.63,-623.3 204.43,-623.3"/>
<polygon fill="#dc3545" stroke="#dc3545" points="204.24,-626.8 214.24,-623.3 204.24,-619.8 204.24,-626.8"/>
</g>
<!-- v011_semantics&#45;&gt;publish_cli_grill_tolerance -->
<g id="edge29" class="edge">
<title>v011_semantics&#45;&gt;publish_cli_grill_tolerance</title>
<path fill="none" stroke="#28a745" d="M1006.36,-46.13C1083.36,-51.63 1203.88,-62.27 1307.05,-80.3 1322.93,-83.07 1339.6,-86.58 1355.86,-90.34"/>
<polygon fill="#28a745" stroke="#28a745" points="1355.03,-93.74 1365.56,-92.63 1356.64,-86.93 1355.03,-93.74"/>
</g>
</g>
</svg>
