<?xml version="1.0" encoding="UTF-8" standalone="no"?>
<!DOCTYPE svg PUBLIC "-//W3C//DTD SVG 1.1//EN"
 "http://www.w3.org/Graphics/SVG/1.1/DTD/svg11.dtd">
<!-- Generated by graphviz version 15.1.0 (0)
 -->
<!-- Title: PFDSL Pages: 1 -->
<svg width="462pt" height="168pt"
 viewBox="0.00 0.00 462.00 168.00" xmlns="http://www.w3.org/2000/svg" xmlns:xlink="http://www.w3.org/1999/xlink">
<g id="graph0" class="graph" transform="scale(1 1) rotate(0) translate(4 163.82)">
<title>PFDSL</title>
<polygon fill="white" stroke="none" points="-4,4 -4,-163.82 458.04,-163.82 458.04,4 -4,4"/>
<text xml:space="preserve" text-anchor="middle" x="227.02" y="-143.22" font-family="Times,serif" font-size="14.00">pfdsl開発ワークフロー — diff</text>
<text xml:space="preserve" text-anchor="middle" x="227.02" y="-126.42" font-family="Times,serif" font-size="14.00">green = added · red = removed · yellow = changed</text>
<!-- gen_skill -->
<g id="node1" class="node">
<title>gen_skill</title>
<ellipse fill="#f5f5f5" stroke="#bbbbbb" cx="405.61" cy="-29.42" rx="48.44" ry="29.42"/>
<text xml:space="preserve" text-anchor="middle" x="405.61" y="-33.62" font-family="Times,serif" font-size="14.00" fill="#777777">gen_skill</text>
<text xml:space="preserve" text-anchor="middle" x="405.61" y="-16.82" font-family="Times,serif" font-size="14.00" fill="#777777">スキル生成</text>
</g>
<!-- maintain_template -->
<g id="node2" class="node">
<title>maintain_template</title>
<ellipse fill="#f5f5f5" stroke="#bbbbbb" cx="84.98" cy="-29.42" rx="84.98" ry="29.42"/>
<text xml:space="preserve" text-anchor="middle" x="84.98" y="-33.62" font-family="Times,serif" font-size="14.00" fill="#777777">maintain_template</text>
<text xml:space="preserve" text-anchor="middle" x="84.98" y="-16.82" font-family="Times,serif" font-size="14.00" fill="#777777">テンプレート整備</text>
</g>
<!-- quality_guide -->
<g id="node3" class="node">
<title>quality_guide</title>
<polygon fill="#c3e6cb" stroke="#28a745" points="321.17,-50.22 205.97,-50.22 205.97,-8.62 321.17,-8.62 321.17,-50.22"/>
<text xml:space="preserve" text-anchor="middle" x="263.57" y="-33.62" font-family="Times,serif" font-size="14.00">quality_guide</text>
<text xml:space="preserve" text-anchor="middle" x="263.57" y="-16.82" font-family="Times,serif" font-size="14.00">品質ガイド</text>
</g>
<!-- maintain_template&#45;&gt;quality_guide -->
<g id="edge1" class="edge">
<title>maintain_template&#45;&gt;quality_guide</title>
<path fill="none" stroke="#28a745" d="M170.4,-29.42C178.44,-29.42 186.53,-29.42 194.39,-29.42"/>
<polygon fill="#28a745" stroke="#28a745" points="194.2,-32.92 204.2,-29.42 194.2,-25.92 194.2,-32.92"/>
</g>
<!-- quality_guide&#45;&gt;gen_skill -->
<g id="edge2" class="edge">
<title>quality_guide&#45;&gt;gen_skill</title>
<path fill="none" stroke="#28a745" d="M321.53,-29.42C329.46,-29.42 337.63,-29.42 345.61,-29.42"/>
<polygon fill="#28a745" stroke="#28a745" points="345.58,-32.92 355.58,-29.42 345.58,-25.92 345.58,-32.92"/>
</g>
<!-- skill_template -->
<g id="node4" class="node">
<title>skill_template</title>
<polygon fill="#ffeeba" stroke="#e0a800" points="160.58,-118.22 9.38,-118.22 9.38,-76.62 160.58,-76.62 160.58,-118.22"/>
<text xml:space="preserve" text-anchor="middle" x="84.98" y="-101.62" font-family="Times,serif" font-size="14.00">skill_template</text>
<text xml:space="preserve" text-anchor="middle" x="84.98" y="-84.82" font-family="Times,serif" font-size="14.00">スキルテンプレート</text>
</g>
</g>
</svg>
