<?xml version="1.0" encoding="UTF-8" standalone="no"?>
<!DOCTYPE svg PUBLIC "-//W3C//DTD SVG 1.1//EN"
 "http://www.w3.org/Graphics/SVG/1.1/DTD/svg11.dtd">
<!-- Generated by graphviz version 15.0.0 (0)
 -->
<!-- Title: PFDSL Pages: 1 -->
<svg width="653pt" height="327pt"
 viewBox="0.00 0.00 653.00 327.00" xmlns="http://www.w3.org/2000/svg" xmlns:xlink="http://www.w3.org/1999/xlink">
<g id="graph0" class="graph" transform="scale(1 1) rotate(0) translate(4 323.22)">
<title>PFDSL</title>
<polygon fill="white" stroke="none" points="-4,4 -4,-323.22 648.62,-323.22 648.62,4 -4,4"/>
<text xml:space="preserve" text-anchor="middle" x="322.31" y="-302.62" font-family="Times,serif" font-size="14.00">Issue 依存フロー（2026&#45;06） — diff</text>
<text xml:space="preserve" text-anchor="middle" x="322.31" y="-285.82" font-family="Times,serif" font-size="14.00">green = added · red = removed · yellow = changed</text>
<!-- cli_tool -->
<g id="node1" class="node">
<title>cli_tool</title>
<polygon fill="#f5f5f5" stroke="#bbbbbb" points="183.63,-50.22 46.83,-50.22 46.83,-8.62 183.63,-8.62 183.63,-50.22"/>
<text xml:space="preserve" text-anchor="middle" x="115.23" y="-33.62" font-family="Times,serif" font-size="14.00" fill="#777777">cli_tool</text>
<text xml:space="preserve" text-anchor="middle" x="115.23" y="-16.82" font-family="Times,serif" font-size="14.00" fill="#777777">CLI 実装（現行）</text>
</g>
<!-- publish_libraries -->
<g id="node9" class="node">
<title>publish_libraries</title>
<ellipse fill="#f5c6cb" stroke="#dc3545" cx="344.31" cy="-29.42" rx="77.85" ry="29.42"/>
<text xml:space="preserve" text-anchor="middle" x="344.31" y="-33.62" font-family="Times,serif" font-size="14.00">publish_libraries</text>
<text xml:space="preserve" text-anchor="middle" x="344.31" y="-16.82" font-family="Times,serif" font-size="14.00">ライブラリ公開</text>
</g>
<!-- cli_tool&#45;&gt;publish_libraries -->
<g id="edge1" class="edge">
<title>cli_tool&#45;&gt;publish_libraries</title>
<path fill="none" stroke="#dc3545" stroke-dasharray="5,2" d="M184.05,-29.42C206.29,-29.42 231.34,-29.42 254.87,-29.42"/>
<polygon fill="#dc3545" stroke="#dc3545" points="254.77,-32.92 264.77,-29.42 254.77,-25.92 254.77,-32.92"/>
</g>
<!-- i201_published_libs -->
<g id="node2" class="node">
<title>i201_published_libs</title>
<polygon fill="#f5c6cb" stroke="#dc3545" points="630.59,-58.62 472.19,-58.62 472.19,-0.22 630.59,-0.22 630.59,-58.62"/>
<text xml:space="preserve" text-anchor="middle" x="551.39" y="-42.02" font-family="Times,serif" font-size="14.00">i201_published_libs</text>
<text xml:space="preserve" text-anchor="middle" x="551.39" y="-25.22" font-family="Times,serif" font-size="14.00">公開ライブラリ群 </text>
<text xml:space="preserve" text-anchor="middle" x="551.39" y="-8.42" font-family="Times,serif" font-size="14.00">#201)</text>
</g>
<!-- i221_index_reindex -->
<g id="node3" class="node">
<title>i221_index_reindex</title>
<polygon fill="#f5c6cb" stroke="#dc3545" points="419.91,-245.02 268.71,-245.02 268.71,-169.82 419.91,-169.82 419.91,-245.02"/>
<text xml:space="preserve" text-anchor="middle" x="344.31" y="-228.42" font-family="Times,serif" font-size="14.00">i221_index_reindex</text>
<text xml:space="preserve" text-anchor="middle" x="344.31" y="-211.62" font-family="Times,serif" font-size="14.00">index フィールド +</text>
<text xml:space="preserve" text-anchor="middle" x="344.31" y="-194.82" font-family="Times,serif" font-size="14.00">reindex コマンド </text>
<text xml:space="preserve" text-anchor="middle" x="344.31" y="-178.02" font-family="Times,serif" font-size="14.00">#221)</text>
</g>
<!-- integrate_spec_v009 -->
<g id="node7" class="node">
<title>integrate_spec_v009</title>
<ellipse fill="#f5f5f5" stroke="#bbbbbb" cx="551.39" cy="-203.42" rx="93.23" ry="29.42"/>
<text xml:space="preserve" text-anchor="middle" x="551.39" y="-207.62" font-family="Times,serif" font-size="14.00" fill="#777777">integrate_spec_v009</text>
<text xml:space="preserve" text-anchor="middle" x="551.39" y="-190.82" font-family="Times,serif" font-size="14.00" fill="#777777">仕様書 v0.0.9統合</text>
</g>
<!-- i221_index_reindex&#45;&gt;integrate_spec_v009 -->
<g id="edge2" class="edge">
<title>i221_index_reindex&#45;&gt;integrate_spec_v009</title>
<path fill="none" stroke="#dc3545" stroke-dasharray="5,2" d="M420.22,-205.95C428.83,-205.79 437.72,-205.61 446.62,-205.44"/>
<polygon fill="#dc3545" stroke="#dc3545" points="446.44,-208.94 456.37,-205.25 446.3,-201.95 446.44,-208.94"/>
</g>
<!-- publish_cli_v0011 -->
<g id="node8" class="node">
<title>publish_cli_v0011</title>
<ellipse fill="#f5f5f5" stroke="#bbbbbb" cx="551.39" cy="-118.42" rx="89.13" ry="29.42"/>
<text xml:space="preserve" text-anchor="middle" x="551.39" y="-122.62" font-family="Times,serif" font-size="14.00" fill="#777777">publish_cli_v0011</text>
<text xml:space="preserve" text-anchor="middle" x="551.39" y="-105.82" font-family="Times,serif" font-size="14.00" fill="#777777">CLI v0.0.11リリース</text>
</g>
<!-- i221_index_reindex&#45;&gt;publish_cli_v0011 -->
<g id="edge3" class="edge">
<title>i221_index_reindex&#45;&gt;publish_cli_v0011</title>
<path fill="none" stroke="#dc3545" stroke-dasharray="5,2" d="M420.22,-174.91C441.75,-165.56 465.04,-155.45 485.89,-146.41"/>
<polygon fill="#dc3545" stroke="#dc3545" points="487.06,-149.71 494.84,-142.52 484.27,-143.29 487.06,-149.71"/>
</g>
<!-- i236_node_sort -->
<g id="node4" class="node">
<title>i236_node_sort</title>
<polygon fill="#ffeeba" stroke="#e0a800" points="194.43,-277.62 36.03,-277.62 36.03,-219.22 194.43,-219.22 194.43,-277.62"/>
<text xml:space="preserve" text-anchor="middle" x="115.23" y="-261.02" font-family="Times,serif" font-size="14.00">i236_node_sort</text>
<text xml:space="preserve" text-anchor="middle" x="115.23" y="-244.22" font-family="Times,serif" font-size="14.00">node 定義の並べ替え</text>
<text xml:space="preserve" text-anchor="middle" x="115.23" y="-227.42" font-family="Times,serif" font-size="14.00"> (#236)</text>
</g>
<!-- implement_index_reindex -->
<g id="node5" class="node">
<title>implement_index_reindex</title>
<ellipse fill="#f5f5f5" stroke="#bbbbbb" cx="115.23" cy="-160.42" rx="115.23" ry="41.3"/>
<text xml:space="preserve" text-anchor="middle" x="115.23" y="-173.02" font-family="Times,serif" font-size="14.00" fill="#777777">implement_index_reindex</text>
<text xml:space="preserve" text-anchor="middle" x="115.23" y="-156.22" font-family="Times,serif" font-size="14.00" fill="#777777">index フィールド +</text>
<text xml:space="preserve" text-anchor="middle" x="115.23" y="-139.42" font-family="Times,serif" font-size="14.00" fill="#777777">reindex 実装</text>
</g>
<!-- implement_index_reindex&#45;&gt;i221_index_reindex -->
<g id="edge4" class="edge">
<title>implement_index_reindex&#45;&gt;i221_index_reindex</title>
<path fill="none" stroke="#dc3545" stroke-dasharray="5,2" d="M215.83,-181.03C229.61,-183.88 243.67,-186.79 257.17,-189.59"/>
<polygon fill="#dc3545" stroke="#dc3545" points="256.39,-193 266.89,-191.6 257.8,-186.14 256.39,-193"/>
</g>
<!-- index_reindex -->
<g id="node6" class="node">
<title>index_reindex</title>
<polygon fill="#c3e6cb" stroke="#28a745" points="419.91,-152.02 268.71,-152.02 268.71,-76.82 419.91,-76.82 419.91,-152.02"/>
<text xml:space="preserve" text-anchor="middle" x="344.31" y="-135.42" font-family="Times,serif" font-size="14.00">index_reindex</text>
<text xml:space="preserve" text-anchor="middle" x="344.31" y="-118.62" font-family="Times,serif" font-size="14.00">index フィールド +</text>
<text xml:space="preserve" text-anchor="middle" x="344.31" y="-101.82" font-family="Times,serif" font-size="14.00">reindex コマンド </text>
<text xml:space="preserve" text-anchor="middle" x="344.31" y="-85.02" font-family="Times,serif" font-size="14.00">#221)</text>
</g>
<!-- implement_index_reindex&#45;&gt;index_reindex -->
<g id="edge5" class="edge">
<title>implement_index_reindex&#45;&gt;index_reindex</title>
<path fill="none" stroke="#28a745" d="M216.16,-140.17C229.83,-137.4 243.76,-134.58 257.15,-131.87"/>
<polygon fill="#28a745" stroke="#28a745" points="257.66,-135.34 266.77,-129.92 256.27,-128.48 257.66,-135.34"/>
</g>
<!-- index_reindex&#45;&gt;integrate_spec_v009 -->
<g id="edge6" class="edge">
<title>index_reindex&#45;&gt;integrate_spec_v009</title>
<path fill="none" stroke="#28a745" d="M420.22,-146.92C441.36,-156.1 464.2,-166.01 484.75,-174.93"/>
<polygon fill="#28a745" stroke="#28a745" points="483.32,-178.12 493.89,-178.89 486.11,-171.7 483.32,-178.12"/>
</g>
<!-- index_reindex&#45;&gt;publish_cli_v0011 -->
<g id="edge7" class="edge">
<title>index_reindex&#45;&gt;publish_cli_v0011</title>
<path fill="none" stroke="#28a745" d="M420.22,-115.88C430.11,-116.07 440.38,-116.27 450.6,-116.47"/>
<polygon fill="#28a745" stroke="#28a745" points="450.53,-119.97 460.6,-116.66 450.67,-112.97 450.53,-119.97"/>
</g>
<!-- publish_libraries&#45;&gt;i201_published_libs -->
<g id="edge8" class="edge">
<title>publish_libraries&#45;&gt;i201_published_libs</title>
<path fill="none" stroke="#dc3545" stroke-dasharray="5,2" d="M422.55,-29.42C434.89,-29.42 447.76,-29.42 460.37,-29.42"/>
<polygon fill="#dc3545" stroke="#dc3545" points="460.34,-32.92 470.34,-29.42 460.34,-25.92 460.34,-32.92"/>
</g>
</g>
</svg>
