<?xml version="1.0" encoding="UTF-8" standalone="no"?>
<!DOCTYPE svg PUBLIC "-//W3C//DTD SVG 1.1//EN"
 "http://www.w3.org/Graphics/SVG/1.1/DTD/svg11.dtd">
<!-- Generated by graphviz version 15.1.0 (0)
 -->
<!-- Title: PFDSL Pages: 1 -->
<svg width="525pt" height="1267pt"
 viewBox="0.00 0.00 525.00 1267.00" xmlns="http://www.w3.org/2000/svg" xmlns:xlink="http://www.w3.org/1999/xlink">
<g id="graph0" class="graph" transform="scale(1 1) rotate(0) translate(4 1262.6)">
<title>PFDSL</title>
<polygon fill="white" stroke="none" points="-4,4 -4,-1262.6 521.18,-1262.6 521.18,4 -4,4"/>
<text xml:space="preserve" text-anchor="middle" x="258.59" y="-1242" font-family="Times,serif" font-size="14.00">pfdsl開発ワークフロー — diff</text>
<text xml:space="preserve" text-anchor="middle" x="258.59" y="-1225.2" font-family="Times,serif" font-size="14.00">green = added · red = removed · yellow = changed</text>
<!-- bindings_pfd_ops -->
<g id="node1" class="node">
<title>bindings_pfd_ops</title>
<polygon fill="#ffeeba" stroke="#e0a800" points="158.4,-58.4 21.6,-58.4 21.6,0 158.4,0 158.4,-58.4"/>
<text xml:space="preserve" text-anchor="middle" x="90" y="-41.8" font-family="Times,serif" font-size="14.00">bindings_pfd_ops</text>
<text xml:space="preserve" text-anchor="middle" x="90" y="-25" font-family="Times,serif" font-size="14.00">pfd&#45;ops</text>
<text xml:space="preserve" text-anchor="middle" x="90" y="-8.2" font-family="Times,serif" font-size="14.00">バインディング</text>
</g>
<!-- bindings_pfd_retro -->
<g id="node2" class="node">
<title>bindings_pfd_retro</title>
<polygon fill="#ffeeba" stroke="#e0a800" points="165.6,-134.4 14.4,-134.4 14.4,-76 165.6,-76 165.6,-134.4"/>
<text xml:space="preserve" text-anchor="middle" x="90" y="-117.8" font-family="Times,serif" font-size="14.00">bindings_pfd_retro</text>
<text xml:space="preserve" text-anchor="middle" x="90" y="-101" font-family="Times,serif" font-size="14.00">pfd&#45;retro</text>
<text xml:space="preserve" text-anchor="middle" x="90" y="-84.2" font-family="Times,serif" font-size="14.00">バインディング</text>
</g>
<!-- develop -->
<g id="node3" class="node">
<title>develop</title>
<ellipse fill="#f5f5f5" stroke="#bbbbbb" cx="90" cy="-318.2" rx="78.14" ry="29.42"/>
<text xml:space="preserve" text-anchor="middle" x="90" y="-322.4" font-family="Times,serif" font-size="14.00" fill="#777777">develop</text>
<text xml:space="preserve" text-anchor="middle" x="90" y="-305.6" font-family="Times,serif" font-size="14.00" fill="#777777">ツールチェーン開発</text>
</g>
<!-- draft_adrs -->
<g id="node4" class="node">
<title>draft_adrs</title>
<ellipse fill="#f5f5f5" stroke="#bbbbbb" cx="90" cy="-182.2" rx="51.44" ry="29.42"/>
<text xml:space="preserve" text-anchor="middle" x="90" y="-186.4" font-family="Times,serif" font-size="14.00" fill="#777777">draft_adrs</text>
<text xml:space="preserve" text-anchor="middle" x="90" y="-169.6" font-family="Times,serif" font-size="14.00" fill="#777777">ADR 起草</text>
</g>
<!-- ecosystem_skill -->
<g id="node5" class="node">
<title>ecosystem_skill</title>
<polygon fill="#ffeeba" stroke="#e0a800" points="162,-424.4 18,-424.4 18,-366 162,-366 162,-424.4"/>
<text xml:space="preserve" text-anchor="middle" x="90" y="-407.8" font-family="Times,serif" font-size="14.00">ecosystem_skill</text>
<text xml:space="preserve" text-anchor="middle" x="90" y="-391" font-family="Times,serif" font-size="14.00">PFDセット構築スキ</text>
<text xml:space="preserve" text-anchor="middle" x="90" y="-374.2" font-family="Times,serif" font-size="14.00">ル</text>
</g>
<!-- gen_skill -->
<g id="node6" class="node">
<title>gen_skill</title>
<ellipse fill="#f5f5f5" stroke="#bbbbbb" cx="90" cy="-626.2" rx="48.44" ry="29.42"/>
<text xml:space="preserve" text-anchor="middle" x="90" y="-630.4" font-family="Times,serif" font-size="14.00" fill="#777777">gen_skill</text>
<text xml:space="preserve" text-anchor="middle" x="90" y="-613.6" font-family="Times,serif" font-size="14.00" fill="#777777">スキル生成</text>
</g>
<!-- pfdsl_skill -->
<g id="node9" class="node">
<title>pfdsl_skill</title>
<polygon fill="#c3e6cb" stroke="#28a745" points="361.68,-693.4 224.88,-693.4 224.88,-635 361.68,-635 361.68,-693.4"/>
<text xml:space="preserve" text-anchor="middle" x="293.28" y="-676.8" font-family="Times,serif" font-size="14.00">pfdsl_skill</text>
<text xml:space="preserve" text-anchor="middle" x="293.28" y="-660" font-family="Times,serif" font-size="14.00">AI agent</text>
<text xml:space="preserve" text-anchor="middle" x="293.28" y="-643.2" font-family="Times,serif" font-size="14.00">スキル（リポ内）</text>
</g>
<!-- gen_skill&#45;&gt;pfdsl_skill -->
<g id="edge1" class="edge">
<title>gen_skill&#45;&gt;pfdsl_skill</title>
<path fill="none" stroke="#28a745" d="M138.45,-629.33C160.82,-632.7 188.12,-637.59 213.47,-642.72"/>
<polygon fill="#28a745" stroke="#28a745" points="212.6,-646.11 223.1,-644.7 214.01,-639.25 212.6,-646.11"/>
</g>
<!-- skill -->
<g id="node16" class="node">
<title>skill</title>
<polygon fill="#f5c6cb" stroke="#dc3545" points="361.68,-617.4 224.88,-617.4 224.88,-559 361.68,-559 361.68,-617.4"/>
<text xml:space="preserve" text-anchor="middle" x="293.28" y="-600.8" font-family="Times,serif" font-size="14.00">skill</text>
<text xml:space="preserve" text-anchor="middle" x="293.28" y="-584" font-family="Times,serif" font-size="14.00">AI agent</text>
<text xml:space="preserve" text-anchor="middle" x="293.28" y="-567.2" font-family="Times,serif" font-size="14.00">スキル（リポ内）</text>
</g>
<!-- gen_skill&#45;&gt;skill -->
<g id="edge2" class="edge">
<title>gen_skill&#45;&gt;skill</title>
<path fill="none" stroke="#dc3545" stroke-dasharray="5,2" d="M133.19,-612.62C156.4,-607.22 185.94,-601.31 213.25,-596.51"/>
<polygon fill="#dc3545" stroke="#dc3545" points="213.64,-599.99 222.9,-594.85 212.46,-593.1 213.64,-599.99"/>
</g>
<!-- ops_skill_general -->
<g id="node7" class="node">
<title>ops_skill_general</title>
<polygon fill="#ffeeba" stroke="#e0a800" points="162,-732.4 18,-732.4 18,-674 162,-674 162,-732.4"/>
<text xml:space="preserve" text-anchor="middle" x="90" y="-715.8" font-family="Times,serif" font-size="14.00">ops_skill_general</text>
<text xml:space="preserve" text-anchor="middle" x="90" y="-699" font-family="Times,serif" font-size="14.00">PFD運用スキル（汎</text>
<text xml:space="preserve" text-anchor="middle" x="90" y="-682.2" font-family="Times,serif" font-size="14.00">用層）</text>
</g>
<!-- ops_skill_l3 -->
<g id="node8" class="node">
<title>ops_skill_l3</title>
<polygon fill="#ffeeba" stroke="#e0a800" points="165.6,-825.8 14.4,-825.8 14.4,-750.6 165.6,-750.6 165.6,-825.8"/>
<text xml:space="preserve" text-anchor="middle" x="90" y="-809.2" font-family="Times,serif" font-size="14.00">ops_skill_l3</text>
<text xml:space="preserve" text-anchor="middle" x="90" y="-792.4" font-family="Times,serif" font-size="14.00">PFD運用スキル（Git</text>
<text xml:space="preserve" text-anchor="middle" x="90" y="-775.6" font-family="Times,serif" font-size="14.00">Hub Issuesバックエ</text>
<text xml:space="preserve" text-anchor="middle" x="90" y="-758.8" font-family="Times,serif" font-size="14.00">ンド層）</text>
</g>
<!-- pfdsl_skill&#45;&gt;gen_skill -->
<g id="edge6" class="edge">
<title>pfdsl_skill&#45;&gt;gen_skill</title>
<path fill="none" stroke="#28a745" stroke-dasharray="5,2" d="M224.4,-657.81C198.21,-653.41 168.71,-647.7 144.12,-642.26"/>
<polygon fill="#28a745" stroke="#28a745" points="145.2,-638.92 134.67,-640.12 143.65,-645.74 145.2,-638.92"/>
</g>
<!-- publish_cli -->
<g id="node10" class="node">
<title>publish_cli</title>
<ellipse fill="#f5f5f5" stroke="#bbbbbb" cx="461.87" cy="-626.2" rx="55.31" ry="29.42"/>
<text xml:space="preserve" text-anchor="middle" x="461.87" y="-630.4" font-family="Times,serif" font-size="14.00" fill="#777777">publish_cli</text>
<text xml:space="preserve" text-anchor="middle" x="461.87" y="-613.6" font-family="Times,serif" font-size="14.00" fill="#777777">CLI 公開</text>
</g>
<!-- pfdsl_skill&#45;&gt;publish_cli -->
<g id="edge3" class="edge">
<title>pfdsl_skill&#45;&gt;publish_cli</title>
<path fill="none" stroke="#28a745" d="M362.04,-648.74C374.45,-645.91 387.34,-642.97 399.56,-640.19"/>
<polygon fill="#28a745" stroke="#28a745" points="400.1,-643.65 409.07,-638.02 398.54,-636.83 400.1,-643.65"/>
</g>
<!-- review_examples -->
<g id="node14" class="node">
<title>review_examples</title>
<ellipse fill="#f5f5f5" stroke="#bbbbbb" cx="90" cy="-549.2" rx="80.58" ry="29.42"/>
<text xml:space="preserve" text-anchor="middle" x="90" y="-553.4" font-family="Times,serif" font-size="14.00" fill="#777777">review_examples</text>
<text xml:space="preserve" text-anchor="middle" x="90" y="-536.6" font-family="Times,serif" font-size="14.00" fill="#777777">実践例レビュー</text>
</g>
<!-- pfdsl_skill&#45;&gt;review_examples -->
<g id="edge7" class="edge">
<title>pfdsl_skill&#45;&gt;review_examples</title>
<path fill="none" stroke="#28a745" stroke-dasharray="5,2" d="M228.41,-634.54C224.1,-631.89 219.92,-629.11 216,-626.2 197.3,-612.36 199.03,-601.58 180,-588.2 173.19,-583.41 165.69,-579.02 158.03,-575.05"/>
<polygon fill="#28a745" stroke="#28a745" points="159.79,-572.01 149.27,-570.74 156.7,-578.29 159.79,-572.01"/>
</g>
<!-- write_examples -->
<g id="node21" class="node">
<title>write_examples</title>
<ellipse fill="#f5f5f5" stroke="#bbbbbb" cx="90" cy="-472.2" rx="73.99" ry="29.42"/>
<text xml:space="preserve" text-anchor="middle" x="90" y="-476.4" font-family="Times,serif" font-size="14.00" fill="#777777">write_examples</text>
<text xml:space="preserve" text-anchor="middle" x="90" y="-459.6" font-family="Times,serif" font-size="14.00" fill="#777777">実践例執筆</text>
</g>
<!-- pfdsl_skill&#45;&gt;write_examples -->
<g id="edge8" class="edge">
<title>pfdsl_skill&#45;&gt;write_examples</title>
<path fill="none" stroke="#28a745" stroke-dasharray="5,2" d="M224.59,-634.68C221.49,-632.06 218.59,-629.24 216,-626.2 181.25,-585.45 215.74,-551.09 180,-511.2 174.3,-504.84 167.38,-499.47 159.93,-494.95"/>
<polygon fill="#28a745" stroke="#28a745" points="162.06,-492.12 151.61,-490.39 158.7,-498.26 162.06,-492.12"/>
</g>
<!-- readme -->
<g id="node11" class="node">
<title>readme</title>
<polygon fill="#ffeeba" stroke="#e0a800" points="127.56,-885 52.44,-885 52.44,-843.4 127.56,-843.4 127.56,-885"/>
<text xml:space="preserve" text-anchor="middle" x="90" y="-868.4" font-family="Times,serif" font-size="14.00">readme</text>
<text xml:space="preserve" text-anchor="middle" x="90" y="-851.6" font-family="Times,serif" font-size="14.00">README</text>
</g>
<!-- render_previews -->
<g id="node12" class="node">
<title>render_previews</title>
<ellipse fill="#ffeeba" stroke="#e0a800" cx="293.28" cy="-250.2" rx="77.28" ry="29.42"/>
<text xml:space="preserve" text-anchor="middle" x="293.28" y="-254.4" font-family="Times,serif" font-size="14.00">render_previews</text>
<text xml:space="preserve" text-anchor="middle" x="293.28" y="-237.6" font-family="Times,serif" font-size="14.00">サンプル描画</text>
</g>
<!-- retro_skill -->
<g id="node13" class="node">
<title>retro_skill</title>
<polygon fill="#ffeeba" stroke="#e0a800" points="165.6,-961.4 14.4,-961.4 14.4,-903 165.6,-903 165.6,-961.4"/>
<text xml:space="preserve" text-anchor="middle" x="90" y="-944.8" font-family="Times,serif" font-size="14.00">retro_skill</text>
<text xml:space="preserve" text-anchor="middle" x="90" y="-928" font-family="Times,serif" font-size="14.00">ふりかえり監査スキ</text>
<text xml:space="preserve" text-anchor="middle" x="90" y="-911.2" font-family="Times,serif" font-size="14.00">ル</text>
</g>
<!-- review_perspectives -->
<g id="node15" class="node">
<title>review_perspectives</title>
<polygon fill="#ffeeba" stroke="#e0a800" points="169.2,-1021 10.8,-1021 10.8,-979.4 169.2,-979.4 169.2,-1021"/>
<text xml:space="preserve" text-anchor="middle" x="90" y="-1004.4" font-family="Times,serif" font-size="14.00">review_perspectives</text>
<text xml:space="preserve" text-anchor="middle" x="90" y="-987.6" font-family="Times,serif" font-size="14.00">レビュー観点集</text>
</g>
<!-- skill&#45;&gt;gen_skill -->
<g id="edge9" class="edge">
<title>skill&#45;&gt;gen_skill</title>
<path fill="none" stroke="#dc3545" stroke-dasharray="5,2" d="M224.58,-607.4C200.28,-612.49 173.1,-617.55 149.64,-621.33"/>
<polygon fill="#dc3545" stroke="#dc3545" points="149.28,-617.84 139.94,-622.84 150.36,-624.76 149.28,-617.84"/>
</g>
<!-- skill&#45;&gt;publish_cli -->
<g id="edge4" class="edge">
<title>skill&#45;&gt;publish_cli</title>
<path fill="none" stroke="#dc3545" stroke-dasharray="5,2" d="M362.04,-603.66C374.45,-606.49 387.34,-609.43 399.56,-612.21"/>
<polygon fill="#dc3545" stroke="#dc3545" points="398.54,-615.57 409.07,-614.38 400.1,-608.75 398.54,-615.57"/>
</g>
<!-- skill&#45;&gt;review_examples -->
<g id="edge10" class="edge">
<title>skill&#45;&gt;review_examples</title>
<path fill="none" stroke="#dc3545" stroke-dasharray="5,2" d="M224.66,-575.1C208.11,-571.89 190.23,-568.43 173.1,-565.11"/>
<polygon fill="#dc3545" stroke="#dc3545" points="173.93,-561.7 163.45,-563.24 172.6,-568.58 173.93,-561.7"/>
</g>
<!-- skill&#45;&gt;write_examples -->
<g id="edge11" class="edge">
<title>skill&#45;&gt;write_examples</title>
<path fill="none" stroke="#dc3545" stroke-dasharray="5,2" d="M252.92,-558.51C231.89,-543.35 205.21,-525.2 180,-511.2 171.54,-506.5 162.39,-501.94 153.3,-497.71"/>
<polygon fill="#dc3545" stroke="#dc3545" points="155.03,-494.65 144.47,-493.7 152.13,-501.02 155.03,-494.65"/>
</g>
<!-- spec_stress_skill -->
<g id="node17" class="node">
<title>spec_stress_skill</title>
<polygon fill="#ffeeba" stroke="#e0a800" points="176.4,-1081 3.6,-1081 3.6,-1039.4 176.4,-1039.4 176.4,-1081"/>
<text xml:space="preserve" text-anchor="middle" x="90" y="-1064.4" font-family="Times,serif" font-size="14.00">spec_stress_skill</text>
<text xml:space="preserve" text-anchor="middle" x="90" y="-1047.6" font-family="Times,serif" font-size="14.00">仕様stress&#45;testスキル</text>
</g>
<!-- toolchain -->
<g id="node18" class="node">
<title>toolchain</title>
<polygon fill="#f5f5f5" stroke="#bbbbbb" points="151.2,-271 28.8,-271 28.8,-229.4 151.2,-229.4 151.2,-271"/>
<text xml:space="preserve" text-anchor="middle" x="90" y="-254.4" font-family="Times,serif" font-size="14.00" fill="#777777">toolchain</text>
<text xml:space="preserve" text-anchor="middle" x="90" y="-237.6" font-family="Times,serif" font-size="14.00" fill="#777777">ツールチェーン</text>
</g>
<!-- toolchain&#45;&gt;develop -->
<g id="edge12" class="edge">
<title>toolchain&#45;&gt;develop</title>
<path fill="none" stroke="#28a745" stroke-dasharray="5,2" d="M90,-271.45C90,-273.42 90,-275.38 90,-277.35"/>
<polygon fill="#28a745" stroke="#28a745" points="86.5,-277.1 90,-287.1 93.5,-277.1 86.5,-277.1"/>
</g>
<!-- toolchain&#45;&gt;draft_adrs -->
<g id="edge13" class="edge">
<title>toolchain&#45;&gt;draft_adrs</title>
<path fill="none" stroke="#28a745" stroke-dasharray="5,2" d="M90,-228.98C90,-227.12 90,-225.26 90,-223.39"/>
<polygon fill="#28a745" stroke="#28a745" points="93.5,-223.46 90,-213.46 86.5,-223.46 93.5,-223.46"/>
</g>
<!-- toolchain&#45;&gt;render_previews -->
<g id="edge5" class="edge">
<title>toolchain&#45;&gt;render_previews</title>
<path fill="none" stroke="#dc3545" stroke-dasharray="5,2" d="M151.66,-250.2C168.26,-250.2 186.6,-250.2 204.39,-250.2"/>
<polygon fill="#dc3545" stroke="#dc3545" points="204.17,-253.7 214.17,-250.2 204.17,-246.7 204.17,-253.7"/>
</g>
<!-- vscode_ext_debug_skill -->
<g id="node19" class="node">
<title>vscode_ext_debug_skill</title>
<polygon fill="#ffeeba" stroke="#e0a800" points="180,-1157.4 0,-1157.4 0,-1099 180,-1099 180,-1157.4"/>
<text xml:space="preserve" text-anchor="middle" x="90" y="-1140.8" font-family="Times,serif" font-size="14.00">vscode_ext_debug_skill</text>
<text xml:space="preserve" text-anchor="middle" x="90" y="-1124" font-family="Times,serif" font-size="14.00">VSCode拡張デバッ</text>
<text xml:space="preserve" text-anchor="middle" x="90" y="-1107.2" font-family="Times,serif" font-size="14.00">グスキル</text>
</g>
<!-- workflow_md -->
<g id="node20" class="node">
<title>workflow_md</title>
<polygon fill="#ffeeba" stroke="#e0a800" points="158.4,-1217 21.6,-1217 21.6,-1175.4 158.4,-1175.4 158.4,-1217"/>
<text xml:space="preserve" text-anchor="middle" x="90" y="-1200.4" font-family="Times,serif" font-size="14.00">workflow_md</text>
<text xml:space="preserve" text-anchor="middle" x="90" y="-1183.6" font-family="Times,serif" font-size="14.00">生態系 companion</text>
</g>
</g>
</svg>
