<?xml version="1.0" encoding="UTF-8" standalone="no"?>
<!DOCTYPE svg PUBLIC "-//W3C//DTD SVG 1.1//EN"
 "http://www.w3.org/Graphics/SVG/1.1/DTD/svg11.dtd">
<!-- Generated by graphviz version 15.0.0 (0)
 -->
<!-- Title: PFDSL Pages: 1 -->
<svg width="567pt" height="184pt"
 viewBox="0.00 0.00 567.00 184.00" xmlns="http://www.w3.org/2000/svg" xmlns:xlink="http://www.w3.org/1999/xlink">
<g id="graph0" class="graph" transform="scale(1 1) rotate(0) translate(4 180)">
<title>PFDSL</title>
<polygon fill="white" stroke="none" points="-4,4 -4,-180 563.32,-180 563.32,4 -4,4"/>
<text xml:space="preserve" text-anchor="middle" x="279.66" y="-159.4" font-family="Times,serif" font-size="14.00">Issue 依存フロー（2026&#45;06） — diff</text>
<text xml:space="preserve" text-anchor="middle" x="279.66" y="-142.6" font-family="Times,serif" font-size="14.00">green = added · red = removed · yellow = changed</text>
<!-- fix_w002_line -->
<g id="node1" class="node">
<title>fix_w002_line</title>
<ellipse fill="#f5f5f5" stroke="#bbbbbb" cx="82.53" cy="-67.2" rx="82.53" ry="41.3"/>
<text xml:space="preserve" text-anchor="middle" x="82.53" y="-79.8" font-family="Times,serif" font-size="14.00" fill="#777777">fix_w002_line</text>
<text xml:space="preserve" text-anchor="middle" x="82.53" y="-63" font-family="Times,serif" font-size="14.00" fill="#777777">W002 診断行番号修</text>
<text xml:space="preserve" text-anchor="middle" x="82.53" y="-46.2" font-family="Times,serif" font-size="14.00" fill="#777777">正</text>
</g>
<!-- i219_w002_line -->
<g id="node2" class="node">
<title>i219_w002_line</title>
<polygon fill="#f5c6cb" stroke="#dc3545" points="345.06,-134.4 201.06,-134.4 201.06,-76 345.06,-76 345.06,-134.4"/>
<text xml:space="preserve" text-anchor="middle" x="273.06" y="-117.8" font-family="Times,serif" font-size="14.00">i219_w002_line</text>
<text xml:space="preserve" text-anchor="middle" x="273.06" y="-101" font-family="Times,serif" font-size="14.00">W002 診断行番号修</text>
<text xml:space="preserve" text-anchor="middle" x="273.06" y="-84.2" font-family="Times,serif" font-size="14.00">正 (#219)</text>
</g>
<!-- fix_w002_line&#45;&gt;i219_w002_line -->
<g id="edge1" class="edge">
<title>fix_w002_line&#45;&gt;i219_w002_line</title>
<path fill="none" stroke="#dc3545" stroke-dasharray="5,2" d="M159.67,-82.55C169.54,-84.54 179.69,-86.58 189.67,-88.59"/>
<polygon fill="#dc3545" stroke="#dc3545" points="188.84,-92 199.34,-90.54 190.23,-85.14 188.84,-92"/>
</g>
<!-- w002_line -->
<g id="node4" class="node">
<title>w002_line</title>
<polygon fill="#c3e6cb" stroke="#28a745" points="345.06,-58.4 201.06,-58.4 201.06,0 345.06,0 345.06,-58.4"/>
<text xml:space="preserve" text-anchor="middle" x="273.06" y="-41.8" font-family="Times,serif" font-size="14.00">w002_line</text>
<text xml:space="preserve" text-anchor="middle" x="273.06" y="-25" font-family="Times,serif" font-size="14.00">W002 診断行番号修</text>
<text xml:space="preserve" text-anchor="middle" x="273.06" y="-8.2" font-family="Times,serif" font-size="14.00">正 (#219)</text>
</g>
<!-- fix_w002_line&#45;&gt;w002_line -->
<g id="edge2" class="edge">
<title>fix_w002_line&#45;&gt;w002_line</title>
<path fill="none" stroke="#28a745" d="M159.67,-51.85C169.54,-49.86 179.69,-47.82 189.67,-45.81"/>
<polygon fill="#28a745" stroke="#28a745" points="190.23,-49.26 199.34,-43.86 188.84,-42.4 190.23,-49.26"/>
</g>
<!-- publish_cli_v0011 -->
<g id="node3" class="node">
<title>publish_cli_v0011</title>
<ellipse fill="#f5f5f5" stroke="#bbbbbb" cx="470.19" cy="-67.2" rx="89.13" ry="29.42"/>
<text xml:space="preserve" text-anchor="middle" x="470.19" y="-71.4" font-family="Times,serif" font-size="14.00" fill="#777777">publish_cli_v0011</text>
<text xml:space="preserve" text-anchor="middle" x="470.19" y="-54.6" font-family="Times,serif" font-size="14.00" fill="#777777">CLI v0.0.11リリース</text>
</g>
<!-- i219_w002_line&#45;&gt;publish_cli_v0011 -->
<g id="edge3" class="edge">
<title>i219_w002_line&#45;&gt;publish_cli_v0011</title>
<path fill="none" stroke="#dc3545" stroke-dasharray="5,2" d="M345.33,-91.32C357.09,-89.03 369.39,-86.64 381.49,-84.28"/>
<polygon fill="#dc3545" stroke="#dc3545" points="381.89,-87.77 391.03,-82.42 380.55,-80.9 381.89,-87.77"/>
</g>
<!-- w002_line&#45;&gt;publish_cli_v0011 -->
<g id="edge4" class="edge">
<title>w002_line&#45;&gt;publish_cli_v0011</title>
<path fill="none" stroke="#28a745" d="M345.33,-43.08C357.09,-45.37 369.39,-47.76 381.49,-50.12"/>
<polygon fill="#28a745" stroke="#28a745" points="380.55,-53.5 391.03,-51.98 381.89,-46.63 380.55,-53.5"/>
</g>
</g>
</svg>
