<?xml version="1.0" encoding="UTF-8" standalone="no"?>
<!DOCTYPE svg PUBLIC "-//W3C//DTD SVG 1.1//EN"
 "http://www.w3.org/Graphics/SVG/1.1/DTD/svg11.dtd">
<!-- Generated by graphviz version 15.0.0 (0)
 -->
<!-- Title: PFDSL Pages: 1 -->
<svg width="644pt" height="488pt"
 viewBox="0.00 0.00 644.00 488.00" xmlns="http://www.w3.org/2000/svg" xmlns:xlink="http://www.w3.org/1999/xlink">
<g id="graph0" class="graph" transform="scale(1 1) rotate(0) translate(4 484)">
<title>PFDSL</title>
<polygon fill="white" stroke="none" points="-4,4 -4,-484 640.39,-484 640.39,4 -4,4"/>
<text xml:space="preserve" text-anchor="middle" x="318.19" y="-463.4" font-family="Times,serif" font-size="14.00">Issue 依存フロー（2026&#45;06） — diff</text>
<text xml:space="preserve" text-anchor="middle" x="318.19" y="-446.6" font-family="Times,serif" font-size="14.00">green = added · red = removed · yellow = changed</text>
<!-- group_hover -->
<g id="node1" class="node">
<title>group_hover</title>
<polygon fill="#c3e6cb" stroke="#28a745" points="425.97,-134.4 267.57,-134.4 267.57,-76 425.97,-76 425.97,-134.4"/>
<text xml:space="preserve" text-anchor="middle" x="346.77" y="-117.8" font-family="Times,serif" font-size="14.00">group_hover</text>
<text xml:space="preserve" text-anchor="middle" x="346.77" y="-101" font-family="Times,serif" font-size="14.00">group hover</text>
<text xml:space="preserve" text-anchor="middle" x="346.77" y="-84.2" font-family="Times,serif" font-size="14.00">メンバー一覧 (#218)</text>
</g>
<!-- publish_ext_v0014 -->
<g id="node9" class="node">
<title>publish_ext_v0014</title>
<ellipse fill="#f5f5f5" stroke="#bbbbbb" cx="549.18" cy="-219.2" rx="87.21" ry="41.3"/>
<text xml:space="preserve" text-anchor="middle" x="549.18" y="-231.8" font-family="Times,serif" font-size="14.00" fill="#777777">publish_ext_v0014</text>
<text xml:space="preserve" text-anchor="middle" x="549.18" y="-215" font-family="Times,serif" font-size="14.00" fill="#777777">extension v0.0</text>
<text xml:space="preserve" text-anchor="middle" x="549.18" y="-198.2" font-family="Times,serif" font-size="14.00" fill="#777777">14リリース</text>
</g>
<!-- group_hover&#45;&gt;publish_ext_v0014 -->
<g id="edge1" class="edge">
<title>group_hover&#45;&gt;publish_ext_v0014</title>
<path fill="none" stroke="#28a745" d="M409.97,-134.69C415.42,-137.5 420.82,-140.36 425.97,-143.2 446.37,-154.46 468.12,-167.6 487.53,-179.76"/>
<polygon fill="#28a745" stroke="#28a745" points="485.55,-182.64 495.87,-185.01 489.28,-176.72 485.55,-182.64"/>
</g>
<!-- hover_jump -->
<g id="node2" class="node">
<title>hover_jump</title>
<polygon fill="#c3e6cb" stroke="#28a745" points="418.15,-438.4 275.39,-438.4 275.39,-380 418.15,-380 418.15,-438.4"/>
<text xml:space="preserve" text-anchor="middle" x="346.77" y="-421.8" font-family="Times,serif" font-size="14.00">hover_jump</text>
<text xml:space="preserve" text-anchor="middle" x="346.77" y="-405" font-family="Times,serif" font-size="14.00">hover/quickpick jump </text>
<text xml:space="preserve" text-anchor="middle" x="346.77" y="-388.2" font-family="Times,serif" font-size="14.00">(#216)</text>
</g>
<!-- hover_jump&#45;&gt;publish_ext_v0014 -->
<g id="edge2" class="edge">
<title>hover_jump&#45;&gt;publish_ext_v0014</title>
<path fill="none" stroke="#28a745" d="M413.93,-379.75C418.14,-377.06 422.19,-374.21 425.97,-371.2 462.36,-342.19 494.9,-300.52 517.23,-268.15"/>
<polygon fill="#28a745" stroke="#28a745" points="519.97,-270.34 522.69,-260.1 514.18,-266.41 519.97,-270.34"/>
</g>
<!-- i216_hover_jump -->
<g id="node3" class="node">
<title>i216_hover_jump</title>
<polygon fill="#f5c6cb" stroke="#dc3545" points="418.15,-362.4 275.39,-362.4 275.39,-304 418.15,-304 418.15,-362.4"/>
<text xml:space="preserve" text-anchor="middle" x="346.77" y="-345.8" font-family="Times,serif" font-size="14.00">i216_hover_jump</text>
<text xml:space="preserve" text-anchor="middle" x="346.77" y="-329" font-family="Times,serif" font-size="14.00">hover/quickpick jump </text>
<text xml:space="preserve" text-anchor="middle" x="346.77" y="-312.2" font-family="Times,serif" font-size="14.00">(#216)</text>
</g>
<!-- i216_hover_jump&#45;&gt;publish_ext_v0014 -->
<g id="edge3" class="edge">
<title>i216_hover_jump&#45;&gt;publish_ext_v0014</title>
<path fill="none" stroke="#dc3545" stroke-dasharray="5,2" d="M409.97,-303.71C415.42,-300.9 420.82,-298.04 425.97,-295.2 446.37,-283.94 468.12,-270.8 487.53,-258.64"/>
<polygon fill="#dc3545" stroke="#dc3545" points="489.28,-261.68 495.87,-253.39 485.55,-255.76 489.28,-261.68"/>
</g>
<!-- i217_run_command -->
<g id="node4" class="node">
<title>i217_run_command</title>
<polygon fill="#f5c6cb" stroke="#dc3545" points="415.17,-286.4 278.37,-286.4 278.37,-228 415.17,-228 415.17,-286.4"/>
<text xml:space="preserve" text-anchor="middle" x="346.77" y="-269.8" font-family="Times,serif" font-size="14.00">i217_run_command</text>
<text xml:space="preserve" text-anchor="middle" x="346.77" y="-253" font-family="Times,serif" font-size="14.00">process command</text>
<text xml:space="preserve" text-anchor="middle" x="346.77" y="-236.2" font-family="Times,serif" font-size="14.00">実行 (#217)</text>
</g>
<!-- i217_run_command&#45;&gt;publish_ext_v0014 -->
<g id="edge4" class="edge">
<title>i217_run_command&#45;&gt;publish_ext_v0014</title>
<path fill="none" stroke="#dc3545" stroke-dasharray="5,2" d="M415.62,-244.33C428.79,-241.84 442.8,-239.18 456.59,-236.57"/>
<polygon fill="#dc3545" stroke="#dc3545" points="456.92,-240.07 466.09,-234.77 455.61,-233.19 456.92,-240.07"/>
</g>
<!-- i218_group_hover -->
<g id="node5" class="node">
<title>i218_group_hover</title>
<polygon fill="#f5c6cb" stroke="#dc3545" points="425.97,-58.4 267.57,-58.4 267.57,0 425.97,0 425.97,-58.4"/>
<text xml:space="preserve" text-anchor="middle" x="346.77" y="-41.8" font-family="Times,serif" font-size="14.00">i218_group_hover</text>
<text xml:space="preserve" text-anchor="middle" x="346.77" y="-25" font-family="Times,serif" font-size="14.00">group hover</text>
<text xml:space="preserve" text-anchor="middle" x="346.77" y="-8.2" font-family="Times,serif" font-size="14.00">メンバー一覧 (#218)</text>
</g>
<!-- i218_group_hover&#45;&gt;publish_ext_v0014 -->
<g id="edge5" class="edge">
<title>i218_group_hover&#45;&gt;publish_ext_v0014</title>
<path fill="none" stroke="#dc3545" stroke-dasharray="5,2" d="M413.93,-58.65C418.14,-61.34 422.19,-64.19 425.97,-67.2 462.36,-96.21 494.9,-137.88 517.23,-170.25"/>
<polygon fill="#dc3545" stroke="#dc3545" points="514.18,-171.99 522.69,-178.3 519.97,-168.06 514.18,-171.99"/>
</g>
<!-- implement_group_hover -->
<g id="node6" class="node">
<title>implement_group_hover</title>
<ellipse fill="#f5f5f5" stroke="#bbbbbb" cx="115.79" cy="-80.2" rx="109.19" ry="41.3"/>
<text xml:space="preserve" text-anchor="middle" x="115.79" y="-92.8" font-family="Times,serif" font-size="14.00" fill="#777777">implement_group_hover</text>
<text xml:space="preserve" text-anchor="middle" x="115.79" y="-76" font-family="Times,serif" font-size="14.00" fill="#777777">group hover</text>
<text xml:space="preserve" text-anchor="middle" x="115.79" y="-59.2" font-family="Times,serif" font-size="14.00" fill="#777777">メンバー一覧実装</text>
</g>
<!-- implement_group_hover&#45;&gt;group_hover -->
<g id="edge6" class="edge">
<title>implement_group_hover&#45;&gt;group_hover</title>
<path fill="none" stroke="#28a745" d="M221.23,-91.6C232.82,-92.87 244.54,-94.15 255.93,-95.39"/>
<polygon fill="#28a745" stroke="#28a745" points="255.36,-98.85 265.68,-96.46 256.12,-91.89 255.36,-98.85"/>
</g>
<!-- implement_group_hover&#45;&gt;i218_group_hover -->
<g id="edge7" class="edge">
<title>implement_group_hover&#45;&gt;i218_group_hover</title>
<path fill="none" stroke="#dc3545" stroke-dasharray="5,2" d="M210.58,-59.31C225.69,-55.94 241.29,-52.47 256.3,-49.13"/>
<polygon fill="#dc3545" stroke="#dc3545" points="256.62,-52.64 265.62,-47.05 255.1,-45.81 256.62,-52.64"/>
</g>
<!-- implement_hover_jump -->
<g id="node7" class="node">
<title>implement_hover_jump</title>
<ellipse fill="#f5f5f5" stroke="#bbbbbb" cx="115.79" cy="-371.2" rx="106.44" ry="41.3"/>
<text xml:space="preserve" text-anchor="middle" x="115.79" y="-383.8" font-family="Times,serif" font-size="14.00" fill="#777777">implement_hover_jump</text>
<text xml:space="preserve" text-anchor="middle" x="115.79" y="-367" font-family="Times,serif" font-size="14.00" fill="#777777">hover/quickpick</text>
<text xml:space="preserve" text-anchor="middle" x="115.79" y="-350.2" font-family="Times,serif" font-size="14.00" fill="#777777">ジャンプ実装</text>
</g>
<!-- implement_hover_jump&#45;&gt;hover_jump -->
<g id="edge8" class="edge">
<title>implement_hover_jump&#45;&gt;hover_jump</title>
<path fill="none" stroke="#28a745" d="M214.23,-387.37C230.84,-390.13 247.95,-392.97 264.1,-395.65"/>
<polygon fill="#28a745" stroke="#28a745" points="263.18,-399.04 273.62,-397.23 264.33,-392.14 263.18,-399.04"/>
</g>
<!-- implement_hover_jump&#45;&gt;i216_hover_jump -->
<g id="edge9" class="edge">
<title>implement_hover_jump&#45;&gt;i216_hover_jump</title>
<path fill="none" stroke="#dc3545" stroke-dasharray="5,2" d="M214.23,-355.03C230.84,-352.27 247.95,-349.43 264.1,-346.75"/>
<polygon fill="#dc3545" stroke="#dc3545" points="264.33,-350.26 273.62,-345.17 263.18,-343.36 264.33,-350.26"/>
</g>
<!-- implement_run_command -->
<g id="node8" class="node">
<title>implement_run_command</title>
<ellipse fill="#f5f5f5" stroke="#bbbbbb" cx="115.79" cy="-206.2" rx="115.79" ry="41.3"/>
<text xml:space="preserve" text-anchor="middle" x="115.79" y="-218.8" font-family="Times,serif" font-size="14.00" fill="#777777">implement_run_command</text>
<text xml:space="preserve" text-anchor="middle" x="115.79" y="-202" font-family="Times,serif" font-size="14.00" fill="#777777">process command</text>
<text xml:space="preserve" text-anchor="middle" x="115.79" y="-185.2" font-family="Times,serif" font-size="14.00" fill="#777777">実行実装</text>
</g>
<!-- implement_run_command&#45;&gt;i217_run_command -->
<g id="edge10" class="edge">
<title>implement_run_command&#45;&gt;i217_run_command</title>
<path fill="none" stroke="#dc3545" stroke-dasharray="5,2" d="M214.89,-228.05C232.32,-231.93 250.26,-235.93 267.06,-239.67"/>
<polygon fill="#dc3545" stroke="#dc3545" points="265.92,-243 276.44,-241.76 267.44,-236.17 265.92,-243"/>
</g>
<!-- run_command -->
<g id="node10" class="node">
<title>run_command</title>
<polygon fill="#c3e6cb" stroke="#28a745" points="411.57,-210.4 281.97,-210.4 281.97,-152 411.57,-152 411.57,-210.4"/>
<text xml:space="preserve" text-anchor="middle" x="346.77" y="-193.8" font-family="Times,serif" font-size="14.00">run_command</text>
<text xml:space="preserve" text-anchor="middle" x="346.77" y="-177" font-family="Times,serif" font-size="14.00">process command</text>
<text xml:space="preserve" text-anchor="middle" x="346.77" y="-160.2" font-family="Times,serif" font-size="14.00">実行 (#217)</text>
</g>
<!-- implement_run_command&#45;&gt;run_command -->
<g id="edge11" class="edge">
<title>implement_run_command&#45;&gt;run_command</title>
<path fill="none" stroke="#28a745" d="M226.92,-194.18C241.74,-192.56 256.67,-190.93 270.69,-189.4"/>
<polygon fill="#28a745" stroke="#28a745" points="270.67,-192.92 280.23,-188.36 269.91,-185.96 270.67,-192.92"/>
</g>
<!-- run_command&#45;&gt;publish_ext_v0014 -->
<g id="edge12" class="edge">
<title>run_command&#45;&gt;publish_ext_v0014</title>
<path fill="none" stroke="#28a745" d="M412.01,-193.38C426.29,-196.09 441.69,-199.01 456.82,-201.88"/>
<polygon fill="#28a745" stroke="#28a745" points="455.81,-205.25 466.29,-203.67 457.11,-198.37 455.81,-205.25"/>
</g>
</g>
</svg>
