<?xml version="1.0" encoding="UTF-8" standalone="no"?>
<!DOCTYPE svg PUBLIC "-//W3C//DTD SVG 1.1//EN"
 "http://www.w3.org/Graphics/SVG/1.1/DTD/svg11.dtd">
<!-- Generated by graphviz version 15.1.0 (0)
 -->
<!-- Title: PFDSL Pages: 1 -->
<svg width="642pt" height="132pt"
 viewBox="0.00 0.00 642.00 132.00" xmlns="http://www.w3.org/2000/svg" xmlns:xlink="http://www.w3.org/1999/xlink">
<g id="graph0" class="graph" transform="scale(1 1) rotate(0) translate(4 128.19)">
<title>PFDSL</title>
<polygon fill="white" stroke="none" points="-4,4 -4,-128.19 638.16,-128.19 638.16,4 -4,4"/>
<text xml:space="preserve" text-anchor="middle" x="317.08" y="-107.59" font-family="Times,serif" font-size="14.00">Issue 依存フロー（2026&#45;06） — diff</text>
<text xml:space="preserve" text-anchor="middle" x="317.08" y="-90.79" font-family="Times,serif" font-size="14.00">green = added · red = removed · yellow = changed</text>
<!-- cli_tool_v0015 -->
<g id="node1" class="node">
<title>cli_tool_v0015</title>
<polygon fill="#f5f5f5" stroke="#bbbbbb" points="158.4,-62.1 0,-62.1 0,-20.5 158.4,-20.5 158.4,-62.1"/>
<text xml:space="preserve" text-anchor="middle" x="79.2" y="-45.5" font-family="Times,serif" font-size="14.00" fill="#777777">cli_tool_v0015</text>
<text xml:space="preserve" text-anchor="middle" x="79.2" y="-28.7" font-family="Times,serif" font-size="14.00" fill="#777777">CLI v0.0.15（次期）</text>
</g>
<!-- i355_implement_retro_due -->
<g id="node2" class="node">
<title>i355_implement_retro_due</title>
<ellipse fill="#f5c6cb" stroke="#dc3545" cx="313.48" cy="-41.3" rx="119.08" ry="41.3"/>
<text xml:space="preserve" text-anchor="middle" x="313.48" y="-53.9" font-family="Times,serif" font-size="14.00">i355_implement_retro_due</text>
<text xml:space="preserve" text-anchor="middle" x="313.48" y="-37.1" font-family="Times,serif" font-size="14.00">retro&#45;due 判定 + hook</text>
<text xml:space="preserve" text-anchor="middle" x="313.48" y="-20.3" font-family="Times,serif" font-size="14.00">実装</text>
</g>
<!-- cli_tool_v0015&#45;&gt;i355_implement_retro_due -->
<g id="edge1" class="edge">
<title>cli_tool_v0015&#45;&gt;i355_implement_retro_due</title>
<path fill="none" stroke="#dc3545" stroke-dasharray="5,2" d="M158.84,-41.3C166.71,-41.3 174.84,-41.3 183.06,-41.3"/>
<polygon fill="#dc3545" stroke="#dc3545" points="182.8,-44.8 192.8,-41.3 182.8,-37.8 182.8,-44.8"/>
</g>
<!-- retro_due_hook -->
<g id="node3" class="node">
<title>retro_due_hook</title>
<polygon fill="#f5c6cb" stroke="#dc3545" points="634.16,-70.5 468.56,-70.5 468.56,-12.1 634.16,-12.1 634.16,-70.5"/>
<text xml:space="preserve" text-anchor="middle" x="551.36" y="-53.9" font-family="Times,serif" font-size="14.00">retro_due_hook</text>
<text xml:space="preserve" text-anchor="middle" x="551.36" y="-37.1" font-family="Times,serif" font-size="14.00">retro&#45;due 起動判定 +</text>
<text xml:space="preserve" text-anchor="middle" x="551.36" y="-20.3" font-family="Times,serif" font-size="14.00">Stop hook (#355)</text>
</g>
<!-- i355_implement_retro_due&#45;&gt;retro_due_hook -->
<g id="edge2" class="edge">
<title>i355_implement_retro_due&#45;&gt;retro_due_hook</title>
<path fill="none" stroke="#dc3545" stroke-dasharray="5,2" d="M432.77,-41.3C440.8,-41.3 448.83,-41.3 456.71,-41.3"/>
<polygon fill="#dc3545" stroke="#dc3545" points="456.61,-44.8 466.61,-41.3 456.61,-37.8 456.61,-44.8"/>
</g>
</g>
</svg>
