<?xml version="1.0" encoding="UTF-8" standalone="no"?>
<!DOCTYPE svg PUBLIC "-//W3C//DTD SVG 1.1//EN"
 "http://www.w3.org/Graphics/SVG/1.1/DTD/svg11.dtd">
<!-- Generated by graphviz version 15.1.0 (0)
 -->
<!-- Title: PFDSL Pages: 1 -->
<svg width="996pt" height="132pt"
 viewBox="0.00 0.00 996.00 132.00" xmlns="http://www.w3.org/2000/svg" xmlns:xlink="http://www.w3.org/1999/xlink">
<g id="graph0" class="graph" transform="scale(1 1) rotate(0) translate(4 128.19)">
<title>PFDSL</title>
<polygon fill="white" stroke="none" points="-4,4 -4,-128.19 992.16,-128.19 992.16,4 -4,4"/>
<text xml:space="preserve" text-anchor="middle" x="494.08" y="-107.59" font-family="Times,serif" font-size="14.00">Issue 依存フロー（2026&#45;06） — diff</text>
<text xml:space="preserve" text-anchor="middle" x="494.08" y="-90.79" font-family="Times,serif" font-size="14.00">green = added · red = removed · yellow = changed</text>
<!-- i328_design_spec_ids -->
<g id="node1" class="node">
<title>i328_design_spec_ids</title>
<ellipse fill="#c3e6cb" stroke="#28a745" cx="300.35" cy="-41.3" rx="98.75" ry="41.3"/>
<text xml:space="preserve" text-anchor="middle" x="300.35" y="-53.9" font-family="Times,serif" font-size="14.00">i328_design_spec_ids</text>
<text xml:space="preserve" text-anchor="middle" x="300.35" y="-37.1" font-family="Times,serif" font-size="14.00">仕様ID構文設計・最</text>
<text xml:space="preserve" text-anchor="middle" x="300.35" y="-20.3" font-family="Times,serif" font-size="14.00">小lint実装</text>
</g>
<!-- spec_id_syntax -->
<g id="node4" class="node">
<title>spec_id_syntax</title>
<polygon fill="#c3e6cb" stroke="#28a745" points="571.9,-70.5 435.1,-70.5 435.1,-12.1 571.9,-12.1 571.9,-70.5"/>
<text xml:space="preserve" text-anchor="middle" x="503.5" y="-53.9" font-family="Times,serif" font-size="14.00">spec_id_syntax</text>
<text xml:space="preserve" text-anchor="middle" x="503.5" y="-37.1" font-family="Times,serif" font-size="14.00">仕様ID構文 ADR +</text>
<text xml:space="preserve" text-anchor="middle" x="503.5" y="-20.3" font-family="Times,serif" font-size="14.00">最小lint (#328)</text>
</g>
<!-- i328_design_spec_ids&#45;&gt;spec_id_syntax -->
<g id="edge1" class="edge">
<title>i328_design_spec_ids&#45;&gt;spec_id_syntax</title>
<path fill="none" stroke="#28a745" d="M399.57,-41.3C407.54,-41.3 415.54,-41.3 423.35,-41.3"/>
<polygon fill="#28a745" stroke="#28a745" points="423.13,-44.8 433.13,-41.3 423.13,-37.8 423.13,-44.8"/>
</g>
<!-- migrate_spec_id_refs -->
<g id="node2" class="node">
<title>migrate_spec_id_refs</title>
<ellipse fill="#c3e6cb" stroke="#28a745" cx="704.43" cy="-41.3" rx="96.53" ry="41.3"/>
<text xml:space="preserve" text-anchor="middle" x="704.43" y="-53.9" font-family="Times,serif" font-size="14.00">migrate_spec_id_refs</text>
<text xml:space="preserve" text-anchor="middle" x="704.43" y="-37.1" font-family="Times,serif" font-size="14.00">spec.md</text>
<text xml:space="preserve" text-anchor="middle" x="704.43" y="-20.3" font-family="Times,serif" font-size="14.00">仕様ID参照移行</text>
</g>
<!-- spec_id_refs -->
<g id="node3" class="node">
<title>spec_id_refs</title>
<polygon fill="#c3e6cb" stroke="#28a745" points="988.16,-70.5 836.96,-70.5 836.96,-12.1 988.16,-12.1 988.16,-70.5"/>
<text xml:space="preserve" text-anchor="middle" x="912.56" y="-53.9" font-family="Times,serif" font-size="14.00">spec_id_refs</text>
<text xml:space="preserve" text-anchor="middle" x="912.56" y="-37.1" font-family="Times,serif" font-size="14.00">仕様ID相互参照化済</text>
<text xml:space="preserve" text-anchor="middle" x="912.56" y="-20.3" font-family="Times,serif" font-size="14.00">み spec.md</text>
</g>
<!-- migrate_spec_id_refs&#45;&gt;spec_id_refs -->
<g id="edge2" class="edge">
<title>migrate_spec_id_refs&#45;&gt;spec_id_refs</title>
<path fill="none" stroke="#28a745" d="M801.25,-41.3C809.23,-41.3 817.27,-41.3 825.18,-41.3"/>
<polygon fill="#28a745" stroke="#28a745" points="825.13,-44.8 835.13,-41.3 825.13,-37.8 825.13,-44.8"/>
</g>
<!-- spec_id_syntax&#45;&gt;migrate_spec_id_refs -->
<g id="edge3" class="edge">
<title>spec_id_syntax&#45;&gt;migrate_spec_id_refs</title>
<path fill="none" stroke="#28a745" d="M572.13,-41.3C579.86,-41.3 587.88,-41.3 595.97,-41.3"/>
<polygon fill="#28a745" stroke="#28a745" points="595.92,-44.8 605.92,-41.3 595.92,-37.8 595.92,-44.8"/>
</g>
<!-- spec_v0011 -->
<g id="node5" class="node">
<title>spec_v0011</title>
<polygon fill="#f5f5f5" stroke="#bbbbbb" points="165.6,-78.9 0,-78.9 0,-3.7 165.6,-3.7 165.6,-78.9"/>
<text xml:space="preserve" text-anchor="middle" x="82.8" y="-62.3" font-family="Times,serif" font-size="14.00" fill="#777777">spec_v0011</text>
<text xml:space="preserve" text-anchor="middle" x="82.8" y="-45.5" font-family="Times,serif" font-size="14.00" fill="#777777">仕様書 v0.0</text>
<text xml:space="preserve" text-anchor="middle" x="82.8" y="-28.7" font-family="Times,serif" font-size="14.00" fill="#777777">11（waiting/suspende</text>
<text xml:space="preserve" text-anchor="middle" x="82.8" y="-11.9" font-family="Times,serif" font-size="14.00" fill="#777777">d/type統合）</text>
</g>
<!-- spec_v0011&#45;&gt;i328_design_spec_ids -->
<g id="edge4" class="edge">
<title>spec_v0011&#45;&gt;i328_design_spec_ids</title>
<path fill="none" stroke="#28a745" d="M165.91,-41.3C173.75,-41.3 181.79,-41.3 189.84,-41.3"/>
<polygon fill="#28a745" stroke="#28a745" points="189.69,-44.8 199.69,-41.3 189.69,-37.8 189.69,-44.8"/>
</g>
</g>
</svg>
