<?xml version="1.0" encoding="UTF-8" standalone="no"?>
<!DOCTYPE svg PUBLIC "-//W3C//DTD SVG 1.1//EN"
 "http://www.w3.org/Graphics/SVG/1.1/DTD/svg11.dtd">
<!-- Generated by graphviz version 15.1.0 (0)
 -->
<!-- Title: PFDSL Pages: 1 -->
<svg width="711pt" height="209pt"
 viewBox="0.00 0.00 711.00 209.00" xmlns="http://www.w3.org/2000/svg" xmlns:xlink="http://www.w3.org/1999/xlink">
<g id="graph0" class="graph" transform="scale(1 1) rotate(0) translate(4 205.31)">
<title>PFDSL</title>
<polygon fill="white" stroke="none" points="-4,4 -4,-205.31 706.93,-205.31 706.93,4 -4,4"/>
<text xml:space="preserve" text-anchor="middle" x="351.46" y="-184.71" font-family="Times,serif" font-size="14.00">Issue 依存フロー（2026&#45;06） — diff</text>
<text xml:space="preserve" text-anchor="middle" x="351.46" y="-167.91" font-family="Times,serif" font-size="14.00">green = added · red = removed · yellow = changed</text>
<!-- i277_status_set -->
<g id="node1" class="node">
<title>i277_status_set</title>
<polygon fill="#f5c6cb" stroke="#dc3545" points="395.8,-140.62 230.2,-140.62 230.2,-82.22 395.8,-82.22 395.8,-140.62"/>
<text xml:space="preserve" text-anchor="middle" x="313" y="-124.02" font-family="Times,serif" font-size="14.00">i277_status_set</text>
<text xml:space="preserve" text-anchor="middle" x="313" y="-107.22" font-family="Times,serif" font-size="14.00">status&#45;set コマンド </text>
<text xml:space="preserve" text-anchor="middle" x="313" y="-90.42" font-family="Times,serif" font-size="14.00">#277)</text>
</g>
<!-- implement_release_automation -->
<g id="node2" class="node">
<title>implement_release_automation</title>
<ellipse fill="#f5f5f5" stroke="#bbbbbb" cx="567.36" cy="-118.42" rx="135.56" ry="41.3"/>
<text xml:space="preserve" text-anchor="middle" x="567.36" y="-131.02" font-family="Times,serif" font-size="14.00" fill="#777777">implement_release_automation</text>
<text xml:space="preserve" text-anchor="middle" x="567.36" y="-114.22" font-family="Times,serif" font-size="14.00" fill="#777777">make release roadmap</text>
<text xml:space="preserve" text-anchor="middle" x="567.36" y="-97.42" font-family="Times,serif" font-size="14.00" fill="#777777">自動更新実装</text>
</g>
<!-- i277_status_set&#45;&gt;implement_release_automation -->
<g id="edge1" class="edge">
<title>i277_status_set&#45;&gt;implement_release_automation</title>
<path fill="none" stroke="#dc3545" stroke-dasharray="5,2" d="M396.28,-113.7C404.19,-113.92 412.37,-114.14 420.66,-114.37"/>
<polygon fill="#dc3545" stroke="#dc3545" points="420.41,-117.87 430.5,-114.65 420.6,-110.87 420.41,-117.87"/>
</g>
<!-- publish_cli_v0014 -->
<g id="node4" class="node">
<title>publish_cli_v0014</title>
<ellipse fill="#f5f5f5" stroke="#bbbbbb" cx="567.36" cy="-29.42" rx="89.13" ry="29.42"/>
<text xml:space="preserve" text-anchor="middle" x="567.36" y="-33.62" font-family="Times,serif" font-size="14.00" fill="#777777">publish_cli_v0014</text>
<text xml:space="preserve" text-anchor="middle" x="567.36" y="-16.82" font-family="Times,serif" font-size="14.00" fill="#777777">CLI v0.0.14リリース</text>
</g>
<!-- i277_status_set&#45;&gt;publish_cli_v0014 -->
<g id="edge2" class="edge">
<title>i277_status_set&#45;&gt;publish_cli_v0014</title>
<path fill="none" stroke="#dc3545" stroke-dasharray="5,2" d="M392.95,-81.76C405.88,-77.15 419.17,-72.54 431.8,-68.42 449.59,-62.6 468.85,-56.75 487.08,-51.42"/>
<polygon fill="#dc3545" stroke="#dc3545" points="487.89,-54.83 496.52,-48.68 485.94,-48.11 487.89,-54.83"/>
</g>
<!-- implement_status_set -->
<g id="node3" class="node">
<title>implement_status_set</title>
<ellipse fill="#f5f5f5" stroke="#bbbbbb" cx="97.1" cy="-73.42" rx="97.1" ry="41.3"/>
<text xml:space="preserve" text-anchor="middle" x="97.1" y="-86.02" font-family="Times,serif" font-size="14.00" fill="#777777">implement_status_set</text>
<text xml:space="preserve" text-anchor="middle" x="97.1" y="-69.22" font-family="Times,serif" font-size="14.00" fill="#777777">status&#45;set</text>
<text xml:space="preserve" text-anchor="middle" x="97.1" y="-52.42" font-family="Times,serif" font-size="14.00" fill="#777777">コマンド実装</text>
</g>
<!-- implement_status_set&#45;&gt;i277_status_set -->
<g id="edge3" class="edge">
<title>implement_status_set&#45;&gt;i277_status_set</title>
<path fill="none" stroke="#dc3545" stroke-dasharray="5,2" d="M187.26,-89.26C197.62,-91.1 208.2,-92.98 218.61,-94.82"/>
<polygon fill="#dc3545" stroke="#dc3545" points="217.87,-98.25 228.33,-96.55 219.09,-91.36 217.87,-98.25"/>
</g>
<!-- status_set -->
<g id="node5" class="node">
<title>status_set</title>
<polygon fill="#c3e6cb" stroke="#28a745" points="395.8,-64.62 230.2,-64.62 230.2,-6.22 395.8,-6.22 395.8,-64.62"/>
<text xml:space="preserve" text-anchor="middle" x="313" y="-48.02" font-family="Times,serif" font-size="14.00">status_set</text>
<text xml:space="preserve" text-anchor="middle" x="313" y="-31.22" font-family="Times,serif" font-size="14.00">status&#45;set コマンド </text>
<text xml:space="preserve" text-anchor="middle" x="313" y="-14.42" font-family="Times,serif" font-size="14.00">#277)</text>
</g>
<!-- implement_status_set&#45;&gt;status_set -->
<g id="edge4" class="edge">
<title>implement_status_set&#45;&gt;status_set</title>
<path fill="none" stroke="#28a745" d="M187.26,-57.58C197.62,-55.74 208.2,-53.86 218.61,-52.01"/>
<polygon fill="#28a745" stroke="#28a745" points="219.09,-55.48 228.33,-50.28 217.87,-48.58 219.09,-55.48"/>
</g>
<!-- status_set&#45;&gt;implement_release_automation -->
<g id="edge5" class="edge">
<title>status_set&#45;&gt;implement_release_automation</title>
<path fill="none" stroke="#28a745" d="M396.28,-62.48C417.67,-69.51 440.97,-77.18 463.28,-84.51"/>
<polygon fill="#28a745" stroke="#28a745" points="462.11,-87.81 472.7,-87.61 464.3,-81.16 462.11,-87.81"/>
</g>
<!-- status_set&#45;&gt;publish_cli_v0014 -->
<g id="edge6" class="edge">
<title>status_set&#45;&gt;publish_cli_v0014</title>
<path fill="none" stroke="#28a745" d="M396.28,-33.46C418.78,-32.92 443.4,-32.34 466.75,-31.78"/>
<polygon fill="#28a745" stroke="#28a745" points="466.67,-35.29 476.59,-31.55 466.51,-28.29 466.67,-35.29"/>
</g>
</g>
</svg>
