<?xml version="1.0" encoding="UTF-8" standalone="no"?>
<!DOCTYPE svg PUBLIC "-//W3C//DTD SVG 1.1//EN"
 "http://www.w3.org/Graphics/SVG/1.1/DTD/svg11.dtd">
<!-- Generated by graphviz version 15.1.0 (0)
 -->
<!-- Title: PFDSL Pages: 1 -->
<svg width="313pt" height="815pt"
 viewBox="0.00 0.00 313.00 815.00" xmlns="http://www.w3.org/2000/svg" xmlns:xlink="http://www.w3.org/1999/xlink">
<g id="graph0" class="graph" transform="scale(1 1) rotate(0) translate(4 811.4)">
<title>PFDSL</title>
<polygon fill="white" stroke="none" points="-4,4 -4,-811.4 308.8,-811.4 308.8,4 -4,4"/>
<text xml:space="preserve" text-anchor="middle" x="152.4" y="-790.8" font-family="Times,serif" font-size="14.00">Issue 依存フロー（2026&#45;06） — diff</text>
<text xml:space="preserve" text-anchor="middle" x="152.4" y="-774" font-family="Times,serif" font-size="14.00">green = added · red = removed · yellow = changed</text>
<!-- incomplete_tolerance -->
<g id="node1" class="node">
<title>incomplete_tolerance</title>
<polygon fill="#ffeeba" stroke="#e0a800" points="235.2,-58.4 69.6,-58.4 69.6,0 235.2,0 235.2,-58.4"/>
<text xml:space="preserve" text-anchor="middle" x="152.4" y="-41.8" font-family="Times,serif" font-size="14.00">incomplete_tolerance</text>
<text xml:space="preserve" text-anchor="middle" x="152.4" y="-25" font-family="Times,serif" font-size="14.00">書き途中グラフ非stri</text>
<text xml:space="preserve" text-anchor="middle" x="152.4" y="-8.2" font-family="Times,serif" font-size="14.00">ct許容 (#480)</text>
</g>
<!-- integrate_spec -->
<g id="node2" class="node">
<title>integrate_spec</title>
<ellipse fill="#f5f5f5" stroke="#bbbbbb" cx="152.4" cy="-165.2" rx="68.48" ry="29.42"/>
<text xml:space="preserve" text-anchor="middle" x="152.4" y="-169.4" font-family="Times,serif" font-size="14.00" fill="#777777">integrate_spec</text>
<text xml:space="preserve" text-anchor="middle" x="152.4" y="-152.6" font-family="Times,serif" font-size="14.00" fill="#777777">仕様統合</text>
</g>
<!-- integrate_spec_v0010 -->
<g id="node3" class="node">
<title>integrate_spec_v0010</title>
<ellipse fill="#f5f5f5" stroke="#bbbbbb" cx="152.4" cy="-319.2" rx="98.18" ry="29.42"/>
<text xml:space="preserve" text-anchor="middle" x="152.4" y="-323.4" font-family="Times,serif" font-size="14.00" fill="#777777">integrate_spec_v0010</text>
<text xml:space="preserve" text-anchor="middle" x="152.4" y="-306.6" font-family="Times,serif" font-size="14.00" fill="#777777">仕様書 v0.0.10統合</text>
</g>
<!-- integrate_spec_v0011 -->
<g id="node4" class="node">
<title>integrate_spec_v0011</title>
<ellipse fill="#f5f5f5" stroke="#bbbbbb" cx="152.4" cy="-473.2" rx="98.18" ry="29.42"/>
<text xml:space="preserve" text-anchor="middle" x="152.4" y="-477.4" font-family="Times,serif" font-size="14.00" fill="#777777">integrate_spec_v0011</text>
<text xml:space="preserve" text-anchor="middle" x="152.4" y="-460.6" font-family="Times,serif" font-size="14.00" fill="#777777">仕様書 v0.0.11統合</text>
</g>
<!-- spec_v0010 -->
<g id="node5" class="node">
<title>spec_v0010</title>
<polygon fill="#ffeeba" stroke="#e0a800" points="228,-425.4 76.8,-425.4 76.8,-367 228,-367 228,-425.4"/>
<text xml:space="preserve" text-anchor="middle" x="152.4" y="-408.8" font-family="Times,serif" font-size="14.00">spec_v0010</text>
<text xml:space="preserve" text-anchor="middle" x="152.4" y="-392" font-family="Times,serif" font-size="14.00">仕様書 v0.0</text>
<text xml:space="preserve" text-anchor="middle" x="152.4" y="-375.2" font-family="Times,serif" font-size="14.00">10（basePath統合）</text>
</g>
<!-- spec_v0010&#45;&gt;integrate_spec_v0011 -->
<g id="edge1" class="edge">
<title>spec_v0010&#45;&gt;integrate_spec_v0011</title>
<path fill="none" stroke="#dc3545" stroke-dasharray="5,2" d="M152.4,-425.68C152.4,-427.81 152.4,-429.95 152.4,-432.08"/>
<polygon fill="#dc3545" stroke="#dc3545" points="148.9,-431.98 152.4,-441.98 155.9,-431.98 148.9,-431.98"/>
</g>
<!-- spec_v0011 -->
<g id="node6" class="node">
<title>spec_v0011</title>
<polygon fill="#ffeeba" stroke="#e0a800" points="235.2,-595.8 69.6,-595.8 69.6,-520.6 235.2,-520.6 235.2,-595.8"/>
<text xml:space="preserve" text-anchor="middle" x="152.4" y="-579.2" font-family="Times,serif" font-size="14.00">spec_v0011</text>
<text xml:space="preserve" text-anchor="middle" x="152.4" y="-562.4" font-family="Times,serif" font-size="14.00">仕様書 v0.0</text>
<text xml:space="preserve" text-anchor="middle" x="152.4" y="-545.6" font-family="Times,serif" font-size="14.00">11（waiting/suspende</text>
<text xml:space="preserve" text-anchor="middle" x="152.4" y="-528.8" font-family="Times,serif" font-size="14.00">d/type統合）</text>
</g>
<!-- spec_v006 -->
<g id="node7" class="node">
<title>spec_v006</title>
<polygon fill="#f5f5f5" stroke="#bbbbbb" points="210,-118 94.8,-118 94.8,-76.4 210,-76.4 210,-118"/>
<text xml:space="preserve" text-anchor="middle" x="152.4" y="-101.4" font-family="Times,serif" font-size="14.00" fill="#777777">spec_v006</text>
<text xml:space="preserve" text-anchor="middle" x="152.4" y="-84.6" font-family="Times,serif" font-size="14.00" fill="#777777">仕様書 v0.0.6</text>
</g>
<!-- spec_v006&#45;&gt;integrate_spec -->
<g id="edge2" class="edge">
<title>spec_v006&#45;&gt;integrate_spec</title>
<path fill="none" stroke="#dc3545" stroke-dasharray="5,2" d="M152.4,-118.45C152.4,-120.42 152.4,-122.38 152.4,-124.35"/>
<polygon fill="#dc3545" stroke="#dc3545" points="148.9,-124.1 152.4,-134.1 155.9,-124.1 148.9,-124.1"/>
</g>
<!-- spec_v007 -->
<g id="node8" class="node">
<title>spec_v007</title>
<polygon fill="#ffeeba" stroke="#e0a800" points="231.6,-672.4 73.2,-672.4 73.2,-614 231.6,-614 231.6,-672.4"/>
<text xml:space="preserve" text-anchor="middle" x="152.4" y="-655.8" font-family="Times,serif" font-size="14.00">spec_v007</text>
<text xml:space="preserve" text-anchor="middle" x="152.4" y="-639" font-family="Times,serif" font-size="14.00">仕様書 v0.0.7（統合</text>
<text xml:space="preserve" text-anchor="middle" x="152.4" y="-622.2" font-family="Times,serif" font-size="14.00">）</text>
</g>
<!-- spec_v008 -->
<g id="node9" class="node">
<title>spec_v008</title>
<polygon fill="#ffeeba" stroke="#e0a800" points="224.4,-765.8 80.4,-765.8 80.4,-690.6 224.4,-690.6 224.4,-765.8"/>
<text xml:space="preserve" text-anchor="middle" x="152.4" y="-749.2" font-family="Times,serif" font-size="14.00">spec_v008</text>
<text xml:space="preserve" text-anchor="middle" x="152.4" y="-732.4" font-family="Times,serif" font-size="14.00">仕様書 v0.0</text>
<text xml:space="preserve" text-anchor="middle" x="152.4" y="-715.6" font-family="Times,serif" font-size="14.00">8（マルチファイル</text>
<text xml:space="preserve" text-anchor="middle" x="152.4" y="-698.8" font-family="Times,serif" font-size="14.00">統合）</text>
</g>
<!-- spec_v009 -->
<g id="node10" class="node">
<title>spec_v009</title>
<polygon fill="#ffeeba" stroke="#e0a800" points="217.2,-271.4 87.6,-271.4 87.6,-213 217.2,-213 217.2,-271.4"/>
<text xml:space="preserve" text-anchor="middle" x="152.4" y="-254.8" font-family="Times,serif" font-size="14.00">spec_v009</text>
<text xml:space="preserve" text-anchor="middle" x="152.4" y="-238" font-family="Times,serif" font-size="14.00">仕様書 v0.0</text>
<text xml:space="preserve" text-anchor="middle" x="152.4" y="-221.2" font-family="Times,serif" font-size="14.00">9（index:統合）</text>
</g>
<!-- spec_v009&#45;&gt;integrate_spec_v0010 -->
<g id="edge3" class="edge">
<title>spec_v009&#45;&gt;integrate_spec_v0010</title>
<path fill="none" stroke="#dc3545" stroke-dasharray="5,2" d="M152.4,-271.68C152.4,-273.81 152.4,-275.95 152.4,-278.08"/>
<polygon fill="#dc3545" stroke="#dc3545" points="148.9,-277.98 152.4,-287.98 155.9,-277.98 148.9,-277.98"/>
</g>
</g>
</svg>
