<?xml version="1.0" encoding="UTF-8" standalone="no"?>
<!DOCTYPE svg PUBLIC "-//W3C//DTD SVG 1.1//EN"
 "http://www.w3.org/Graphics/SVG/1.1/DTD/svg11.dtd">
<!-- Generated by graphviz version 15.1.0 (0)
 -->
<!-- Title: PFDSL Pages: 1 -->
<svg width="313pt" height="887pt"
 viewBox="0.00 0.00 313.00 887.00" xmlns="http://www.w3.org/2000/svg" xmlns:xlink="http://www.w3.org/1999/xlink">
<g id="graph0" class="graph" transform="scale(1 1) rotate(0) translate(4 883.2)">
<title>PFDSL</title>
<polygon fill="white" stroke="none" points="-4,4 -4,-883.2 308.8,-883.2 308.8,4 -4,4"/>
<text xml:space="preserve" text-anchor="middle" x="152.4" y="-862.6" font-family="Times,serif" font-size="14.00">pfdsl CLI 変換パイプライン — diff</text>
<text xml:space="preserve" text-anchor="middle" x="152.4" y="-845.8" font-family="Times,serif" font-size="14.00">green = added · red = removed · yellow = changed</text>
<!-- diagnostics_report -->
<g id="node1" class="node">
<title>diagnostics_report</title>
<polygon fill="#ffeeba" stroke="#e0a800" points="228,-41.6 76.8,-41.6 76.8,0 228,0 228,-41.6"/>
<text xml:space="preserve" text-anchor="middle" x="152.4" y="-25" font-family="Times,serif" font-size="14.00">diagnostics_report</text>
<text xml:space="preserve" text-anchor="middle" x="152.4" y="-8.2" font-family="Times,serif" font-size="14.00">診断結果</text>
</g>
<!-- diff_report -->
<g id="node2" class="node">
<title>diff_report</title>
<polygon fill="#ffeeba" stroke="#e0a800" points="206.4,-101.6 98.4,-101.6 98.4,-60 206.4,-60 206.4,-101.6"/>
<text xml:space="preserve" text-anchor="middle" x="152.4" y="-85" font-family="Times,serif" font-size="14.00">diff_report</text>
<text xml:space="preserve" text-anchor="middle" x="152.4" y="-68.2" font-family="Times,serif" font-size="14.00">差分レポート</text>
</g>
<!-- dot_graph -->
<g id="node3" class="node">
<title>dot_graph</title>
<polygon fill="#ffeeba" stroke="#e0a800" points="195.6,-161.6 109.2,-161.6 109.2,-120 195.6,-120 195.6,-161.6"/>
<text xml:space="preserve" text-anchor="middle" x="152.4" y="-145" font-family="Times,serif" font-size="14.00">dot_graph</text>
<text xml:space="preserve" text-anchor="middle" x="152.4" y="-128.2" font-family="Times,serif" font-size="14.00">DOTグラフ</text>
</g>
<!-- drift_report -->
<g id="node4" class="node">
<title>drift_report</title>
<polygon fill="#ffeeba" stroke="#e0a800" points="206.4,-221.6 98.4,-221.6 98.4,-180 206.4,-180 206.4,-221.6"/>
<text xml:space="preserve" text-anchor="middle" x="152.4" y="-205" font-family="Times,serif" font-size="14.00">drift_report</text>
<text xml:space="preserve" text-anchor="middle" x="152.4" y="-188.2" font-family="Times,serif" font-size="14.00">配置鮮度警告</text>
</g>
<!-- formatted_source -->
<g id="node5" class="node">
<title>formatted_source</title>
<polygon fill="#ffeeba" stroke="#e0a800" points="220.8,-281.6 84,-281.6 84,-240 220.8,-240 220.8,-281.6"/>
<text xml:space="preserve" text-anchor="middle" x="152.4" y="-265" font-family="Times,serif" font-size="14.00">formatted_source</text>
<text xml:space="preserve" text-anchor="middle" x="152.4" y="-248.2" font-family="Times,serif" font-size="14.00">整形済みソース</text>
</g>
<!-- gh_labels -->
<g id="node6" class="node">
<title>gh_labels</title>
<polygon fill="#ffeeba" stroke="#e0a800" points="235.2,-341.6 69.6,-341.6 69.6,-300 235.2,-300 235.2,-341.6"/>
<text xml:space="preserve" text-anchor="middle" x="152.4" y="-325" font-family="Times,serif" font-size="14.00">gh_labels</text>
<text xml:space="preserve" text-anchor="middle" x="152.4" y="-308.2" font-family="Times,serif" font-size="14.00">GitHubラベル整備結果</text>
</g>
<!-- installed_l3_layer -->
<g id="node7" class="node">
<title>installed_l3_layer</title>
<polygon fill="#ffeeba" stroke="#e0a800" points="228,-401.6 76.8,-401.6 76.8,-360 228,-360 228,-401.6"/>
<text xml:space="preserve" text-anchor="middle" x="152.4" y="-385" font-family="Times,serif" font-size="14.00">installed_l3_layer</text>
<text xml:space="preserve" text-anchor="middle" x="152.4" y="-368.2" font-family="Times,serif" font-size="14.00">導入済みL3レイヤー</text>
</g>
<!-- installed_plugin -->
<g id="node8" class="node">
<title>installed_plugin</title>
<polygon fill="#ffeeba" stroke="#e0a800" points="228,-461.6 76.8,-461.6 76.8,-420 228,-420 228,-461.6"/>
<text xml:space="preserve" text-anchor="middle" x="152.4" y="-445" font-family="Times,serif" font-size="14.00">installed_plugin</text>
<text xml:space="preserve" text-anchor="middle" x="152.4" y="-428.2" font-family="Times,serif" font-size="14.00">導入済みプラグイン</text>
</g>
<!-- metadata_tsv -->
<g id="node9" class="node">
<title>metadata_tsv</title>
<polygon fill="#ffeeba" stroke="#e0a800" points="210,-521.6 94.8,-521.6 94.8,-480 210,-480 210,-521.6"/>
<text xml:space="preserve" text-anchor="middle" x="152.4" y="-505" font-family="Times,serif" font-size="14.00">metadata_tsv</text>
<text xml:space="preserve" text-anchor="middle" x="152.4" y="-488.2" font-family="Times,serif" font-size="14.00">メタデータTSV</text>
</g>
<!-- normalized_graph -->
<g id="node10" class="node">
<title>normalized_graph</title>
<polygon fill="#ffeeba" stroke="#e0a800" points="220.8,-581.6 84,-581.6 84,-540 220.8,-540 220.8,-581.6"/>
<text xml:space="preserve" text-anchor="middle" x="152.4" y="-565" font-family="Times,serif" font-size="14.00">normalized_graph</text>
<text xml:space="preserve" text-anchor="middle" x="152.4" y="-548.2" font-family="Times,serif" font-size="14.00">正準化グラフ</text>
</g>
<!-- parsed_doc -->
<g id="node11" class="node">
<title>parsed_doc</title>
<polygon fill="#ffeeba" stroke="#e0a800" points="231.6,-641.6 73.2,-641.6 73.2,-600 231.6,-600 231.6,-641.6"/>
<text xml:space="preserve" text-anchor="middle" x="152.4" y="-625" font-family="Times,serif" font-size="14.00">parsed_doc</text>
<text xml:space="preserve" text-anchor="middle" x="152.4" y="-608.2" font-family="Times,serif" font-size="14.00">構文木・frontmatter</text>
</g>
<!-- plugin_dir -->
<g id="node12" class="node">
<title>plugin_dir</title>
<polygon fill="#ffeeba" stroke="#e0a800" points="235.2,-718 69.6,-718 69.6,-659.6 235.2,-659.6 235.2,-718"/>
<text xml:space="preserve" text-anchor="middle" x="152.4" y="-701.4" font-family="Times,serif" font-size="14.00">plugin_dir</text>
<text xml:space="preserve" text-anchor="middle" x="152.4" y="-684.6" font-family="Times,serif" font-size="14.00">配布プラグインディレ</text>
<text xml:space="preserve" text-anchor="middle" x="152.4" y="-667.8" font-family="Times,serif" font-size="14.00">クトリ</text>
</g>
<!-- rendered_image -->
<g id="node13" class="node">
<title>rendered_image</title>
<polygon fill="#ffeeba" stroke="#e0a800" points="220.8,-777.6 84,-777.6 84,-736 220.8,-736 220.8,-777.6"/>
<text xml:space="preserve" text-anchor="middle" x="152.4" y="-761" font-family="Times,serif" font-size="14.00">rendered_image</text>
<text xml:space="preserve" text-anchor="middle" x="152.4" y="-744.2" font-family="Times,serif" font-size="14.00">レンダリング画像</text>
</g>
<!-- sorted_source -->
<g id="node14" class="node">
<title>sorted_source</title>
<polygon fill="#ffeeba" stroke="#e0a800" points="220.8,-837.6 84,-837.6 84,-796 220.8,-796 220.8,-837.6"/>
<text xml:space="preserve" text-anchor="middle" x="152.4" y="-821" font-family="Times,serif" font-size="14.00">sorted_source</text>
<text xml:space="preserve" text-anchor="middle" x="152.4" y="-804.2" font-family="Times,serif" font-size="14.00">ソート済みソース</text>
</g>
</g>
</svg>
