<?xml version="1.0" encoding="UTF-8" standalone="no"?>
<!DOCTYPE svg PUBLIC "-//W3C//DTD SVG 1.1//EN"
 "http://www.w3.org/Graphics/SVG/1.1/DTD/svg11.dtd">
<!-- Generated by graphviz version 15.1.0 (0)
 -->
<!-- Title: PFDSL Pages: 1 -->
<svg width="313pt" height="331pt"
 viewBox="0.00 0.00 313.00 331.00" xmlns="http://www.w3.org/2000/svg" xmlns:xlink="http://www.w3.org/1999/xlink">
<g id="graph0" class="graph" transform="scale(1 1) rotate(0) translate(4 327.2)">
<title>PFDSL</title>
<polygon fill="white" stroke="none" points="-4,4 -4,-327.2 308.8,-327.2 308.8,4 -4,4"/>
<text xml:space="preserve" text-anchor="middle" x="152.4" y="-306.6" font-family="Times,serif" font-size="14.00">pfdsl開発ワークフロー — diff</text>
<text xml:space="preserve" text-anchor="middle" x="152.4" y="-289.8" font-family="Times,serif" font-size="14.00">green = added · red = removed · yellow = changed</text>
<!-- decisions -->
<g id="node1" class="node">
<title>decisions</title>
<polygon fill="#ffeeba" stroke="#e0a800" points="199.2,-41.6 105.6,-41.6 105.6,0 199.2,0 199.2,-41.6"/>
<text xml:space="preserve" text-anchor="middle" x="152.4" y="-25" font-family="Times,serif" font-size="14.00">decisions</text>
<text xml:space="preserve" text-anchor="middle" x="152.4" y="-8.2" font-family="Times,serif" font-size="14.00">方法論判断</text>
</g>
<!-- issue_updates -->
<g id="node2" class="node">
<title>issue_updates</title>
<polygon fill="#ffeeba" stroke="#e0a800" points="213.6,-101.6 91.2,-101.6 91.2,-60 213.6,-60 213.6,-101.6"/>
<text xml:space="preserve" text-anchor="middle" x="152.4" y="-85" font-family="Times,serif" font-size="14.00">issue_updates</text>
<text xml:space="preserve" text-anchor="middle" x="152.4" y="-68.2" font-family="Times,serif" font-size="14.00">issue 更新内容</text>
</g>
<!-- proposals -->
<g id="node3" class="node">
<title>proposals</title>
<polygon fill="#ffeeba" stroke="#e0a800" points="213.6,-161.6 91.2,-161.6 91.2,-120 213.6,-120 213.6,-161.6"/>
<text xml:space="preserve" text-anchor="middle" x="152.4" y="-145" font-family="Times,serif" font-size="14.00">proposals</text>
<text xml:space="preserve" text-anchor="middle" x="152.4" y="-128.2" font-family="Times,serif" font-size="14.00">作業・仕様提案</text>
</g>
<!-- pull_request -->
<g id="node4" class="node">
<title>pull_request</title>
<polygon fill="#ffeeba" stroke="#e0a800" points="195.99,-221.6 108.82,-221.6 108.82,-180 195.99,-180 195.99,-221.6"/>
<text xml:space="preserve" text-anchor="middle" x="152.4" y="-205" font-family="Times,serif" font-size="14.00">pull_request</text>
<text xml:space="preserve" text-anchor="middle" x="152.4" y="-188.2" font-family="Times,serif" font-size="14.00">Pull Request</text>
</g>
<!-- topics -->
<g id="node5" class="node">
<title>topics</title>
<polygon fill="#ffeeba" stroke="#e0a800" points="192,-281.6 112.8,-281.6 112.8,-240 192,-240 192,-281.6"/>
<text xml:space="preserve" text-anchor="middle" x="152.4" y="-265" font-family="Times,serif" font-size="14.00">topics</text>
<text xml:space="preserve" text-anchor="middle" x="152.4" y="-248.2" font-family="Times,serif" font-size="14.00">実践お題</text>
</g>
</g>
</svg>
