<?xml version="1.0" encoding="UTF-8" standalone="no"?>
<!DOCTYPE svg PUBLIC "-//W3C//DTD SVG 1.1//EN"
 "http://www.w3.org/Graphics/SVG/1.1/DTD/svg11.dtd">
<!-- Generated by graphviz version 15.1.0 (0)
 -->
<!-- Title: PFDSL Pages: 1 -->
<svg width="703pt" height="688pt"
 viewBox="0.00 0.00 703.00 688.00" xmlns="http://www.w3.org/2000/svg" xmlns:xlink="http://www.w3.org/1999/xlink">
<g id="graph0" class="graph" transform="scale(1 1) rotate(0) translate(4 684.22)">
<title>PFDSL</title>
<polygon fill="white" stroke="none" points="-4,4 -4,-684.22 698.93,-684.22 698.93,4 -4,4"/>
<text xml:space="preserve" text-anchor="middle" x="347.46" y="-663.62" font-family="Times,serif" font-size="14.00">pfdsl開発ワークフロー — diff</text>
<text xml:space="preserve" text-anchor="middle" x="347.46" y="-646.82" font-family="Times,serif" font-size="14.00">green = added · red = removed · yellow = changed</text>
<!-- ecosystem_skill -->
<g id="node1" class="node">
<title>ecosystem_skill</title>
<polygon fill="#f5f5f5" stroke="#bbbbbb" points="151.2,-562.62 7.2,-562.62 7.2,-504.22 151.2,-504.22 151.2,-562.62"/>
<text xml:space="preserve" text-anchor="middle" x="79.2" y="-546.02" font-family="Times,serif" font-size="14.00" fill="#777777">ecosystem_skill</text>
<text xml:space="preserve" text-anchor="middle" x="79.2" y="-529.22" font-family="Times,serif" font-size="14.00" fill="#777777">PFDセット構築スキ</text>
<text xml:space="preserve" text-anchor="middle" x="79.2" y="-512.42" font-family="Times,serif" font-size="14.00" fill="#777777">ル</text>
</g>
<!-- gen_plugin -->
<g id="node3" class="node">
<title>gen_plugin</title>
<ellipse fill="#c3e6cb" stroke="#28a745" cx="257.69" cy="-269.42" rx="63.29" ry="29.42"/>
<text xml:space="preserve" text-anchor="middle" x="257.69" y="-273.62" font-family="Times,serif" font-size="14.00">gen_plugin</text>
<text xml:space="preserve" text-anchor="middle" x="257.69" y="-256.82" font-family="Times,serif" font-size="14.00">プラグイン生成</text>
</g>
<!-- ecosystem_skill&#45;&gt;gen_plugin -->
<g id="edge1" class="edge">
<title>ecosystem_skill&#45;&gt;gen_plugin</title>
<path fill="none" stroke="#28a745" d="M148.84,-503.94C152.25,-501.3 155.48,-498.47 158.4,-495.42 208.98,-442.66 235.82,-359.7 248.08,-310.32"/>
<polygon fill="#28a745" stroke="#28a745" points="251.48,-311.13 250.4,-300.59 244.67,-309.51 251.48,-311.13"/>
</g>
<!-- feature_samples -->
<g id="node2" class="node">
<title>feature_samples</title>
<polygon fill="#f5f5f5" stroke="#bbbbbb" points="144,-486.22 14.4,-486.22 14.4,-444.62 144,-444.62 144,-486.22"/>
<text xml:space="preserve" text-anchor="middle" x="79.2" y="-469.62" font-family="Times,serif" font-size="14.00" fill="#777777">feature_samples</text>
<text xml:space="preserve" text-anchor="middle" x="79.2" y="-452.82" font-family="Times,serif" font-size="14.00" fill="#777777">機能カタログ</text>
</g>
<!-- feature_samples&#45;&gt;gen_plugin -->
<g id="edge2" class="edge">
<title>feature_samples&#45;&gt;gen_plugin</title>
<path fill="none" stroke="#28a745" d="M144.17,-445.18C149.24,-442.31 154.07,-439.07 158.4,-435.42 198.69,-401.39 226.6,-346.42 242.12,-309.15"/>
<polygon fill="#28a745" stroke="#28a745" points="245.29,-310.65 245.78,-300.06 238.8,-308.03 245.29,-310.65"/>
</g>
<!-- plugin_dist -->
<g id="node8" class="node">
<title>plugin_dist</title>
<polygon fill="#c3e6cb" stroke="#28a745" points="497.37,-295.62 374.97,-295.62 374.97,-237.22 497.37,-237.22 497.37,-295.62"/>
<text xml:space="preserve" text-anchor="middle" x="436.17" y="-279.02" font-family="Times,serif" font-size="14.00">plugin_dist</text>
<text xml:space="preserve" text-anchor="middle" x="436.17" y="-262.22" font-family="Times,serif" font-size="14.00">marketplace</text>
<text xml:space="preserve" text-anchor="middle" x="436.17" y="-245.42" font-family="Times,serif" font-size="14.00">配布プラグイン</text>
</g>
<!-- gen_plugin&#45;&gt;plugin_dist -->
<g id="edge3" class="edge">
<title>gen_plugin&#45;&gt;plugin_dist</title>
<path fill="none" stroke="#28a745" d="M321.41,-268.35C334.95,-268.12 349.37,-267.87 363.24,-267.64"/>
<polygon fill="#28a745" stroke="#28a745" points="363.27,-271.14 373.21,-267.47 363.16,-264.14 363.27,-271.14"/>
</g>
<!-- gen_skill -->
<g id="node4" class="node">
<title>gen_skill</title>
<ellipse fill="#ffeeba" stroke="#e0a800" cx="257.69" cy="-192.42" rx="48.44" ry="29.42"/>
<text xml:space="preserve" text-anchor="middle" x="257.69" y="-196.62" font-family="Times,serif" font-size="14.00">gen_skill</text>
<text xml:space="preserve" text-anchor="middle" x="257.69" y="-179.82" font-family="Times,serif" font-size="14.00">スキル生成</text>
</g>
<!-- gh_skill_dist -->
<g id="node5" class="node">
<title>gh_skill_dist</title>
<polygon fill="#f5c6cb" stroke="#dc3545" points="515.37,-217.22 356.97,-217.22 356.97,-175.62 515.37,-175.62 515.37,-217.22"/>
<text xml:space="preserve" text-anchor="middle" x="436.17" y="-200.62" font-family="Times,serif" font-size="14.00">gh_skill_dist</text>
<text xml:space="preserve" text-anchor="middle" x="436.17" y="-183.82" font-family="Times,serif" font-size="14.00">gh skill 配布スキル</text>
</g>
<!-- gen_skill&#45;&gt;gh_skill_dist -->
<g id="edge4" class="edge">
<title>gen_skill&#45;&gt;gh_skill_dist</title>
<path fill="none" stroke="#dc3545" stroke-dasharray="5,2" d="M306.45,-193.5C318.57,-193.77 331.99,-194.08 345.46,-194.38"/>
<polygon fill="#dc3545" stroke="#dc3545" points="345.17,-197.88 355.25,-194.6 345.33,-190.88 345.17,-197.88"/>
</g>
<!-- update_readme -->
<g id="node16" class="node">
<title>update_readme</title>
<ellipse fill="#f5f5f5" stroke="#bbbbbb" cx="623.15" cy="-230.42" rx="71.78" ry="29.42"/>
<text xml:space="preserve" text-anchor="middle" x="623.15" y="-234.62" font-family="Times,serif" font-size="14.00" fill="#777777">update_readme</text>
<text xml:space="preserve" text-anchor="middle" x="623.15" y="-217.82" font-family="Times,serif" font-size="14.00" fill="#777777">README 更新</text>
</g>
<!-- gh_skill_dist&#45;&gt;update_readme -->
<g id="edge5" class="edge">
<title>gh_skill_dist&#45;&gt;update_readme</title>
<path fill="none" stroke="#dc3545" stroke-dasharray="5,2" d="M515.62,-210.83C525.64,-212.68 535.88,-214.56 545.86,-216.39"/>
<polygon fill="#dc3545" stroke="#dc3545" points="545.03,-219.8 555.5,-218.17 546.3,-212.92 545.03,-219.8"/>
</g>
<!-- pfd_lens_agent -->
<g id="node6" class="node">
<title>pfd_lens_agent</title>
<polygon fill="#c3e6cb" stroke="#28a745" points="129.97,-50.22 28.43,-50.22 28.43,-8.62 129.97,-8.62 129.97,-50.22"/>
<text xml:space="preserve" text-anchor="middle" x="79.2" y="-33.62" font-family="Times,serif" font-size="14.00">pfd_lens_agent</text>
<text xml:space="preserve" text-anchor="middle" x="79.2" y="-16.82" font-family="Times,serif" font-size="14.00">pfd&#45;lens agent</text>
</g>
<!-- pfd_lens_agent&#45;&gt;gen_plugin -->
<g id="edge6" class="edge">
<title>pfd_lens_agent&#45;&gt;gen_plugin</title>
<path fill="none" stroke="#28a745" d="M130.37,-40.24C140.91,-44.63 151.04,-50.78 158.4,-59.42 208.79,-118.52 149.94,-166.73 194.4,-230.42 197.11,-234.3 200.35,-237.88 203.9,-241.16"/>
<polygon fill="#28a745" stroke="#28a745" points="201.51,-243.72 211.48,-247.31 205.92,-238.29 201.51,-243.72"/>
</g>
<!-- publish_cli -->
<g id="node9" class="node">
<title>publish_cli</title>
<ellipse fill="#ffeeba" stroke="#e0a800" cx="257.69" cy="-29.42" rx="55.31" ry="29.42"/>
<text xml:space="preserve" text-anchor="middle" x="257.69" y="-33.62" font-family="Times,serif" font-size="14.00">publish_cli</text>
<text xml:space="preserve" text-anchor="middle" x="257.69" y="-16.82" font-family="Times,serif" font-size="14.00">CLI 公開</text>
</g>
<!-- pfd_lens_agent&#45;&gt;publish_cli -->
<g id="edge7" class="edge">
<title>pfd_lens_agent&#45;&gt;publish_cli</title>
<path fill="none" stroke="#28a745" d="M130.3,-29.42C149.13,-29.42 170.83,-29.42 190.87,-29.42"/>
<polygon fill="#28a745" stroke="#28a745" points="190.62,-32.92 200.62,-29.42 190.62,-25.92 190.62,-32.92"/>
</g>
<!-- pfdsl_skill -->
<g id="node7" class="node">
<title>pfdsl_skill</title>
<polygon fill="#ffeeba" stroke="#e0a800" points="147.6,-638.62 10.8,-638.62 10.8,-580.22 147.6,-580.22 147.6,-638.62"/>
<text xml:space="preserve" text-anchor="middle" x="79.2" y="-622.02" font-family="Times,serif" font-size="14.00">pfdsl_skill</text>
<text xml:space="preserve" text-anchor="middle" x="79.2" y="-605.22" font-family="Times,serif" font-size="14.00">AI agent</text>
<text xml:space="preserve" text-anchor="middle" x="79.2" y="-588.42" font-family="Times,serif" font-size="14.00">スキル（リポ内）</text>
</g>
<!-- plugin_dist&#45;&gt;update_readme -->
<g id="edge8" class="edge">
<title>plugin_dist&#45;&gt;update_readme</title>
<path fill="none" stroke="#28a745" d="M497.74,-254.63C513.32,-251.6 530.28,-248.3 546.52,-245.13"/>
<polygon fill="#28a745" stroke="#28a745" points="546.99,-248.61 556.14,-243.26 545.65,-241.74 546.99,-248.61"/>
</g>
<!-- quality_guide -->
<g id="node10" class="node">
<title>quality_guide</title>
<polygon fill="#f5f5f5" stroke="#bbbbbb" points="136.8,-426.22 21.6,-426.22 21.6,-384.62 136.8,-384.62 136.8,-426.22"/>
<text xml:space="preserve" text-anchor="middle" x="79.2" y="-409.62" font-family="Times,serif" font-size="14.00" fill="#777777">quality_guide</text>
<text xml:space="preserve" text-anchor="middle" x="79.2" y="-392.82" font-family="Times,serif" font-size="14.00" fill="#777777">品質ガイド</text>
</g>
<!-- quality_guide&#45;&gt;gen_plugin -->
<g id="edge9" class="edge">
<title>quality_guide&#45;&gt;gen_plugin</title>
<path fill="none" stroke="#28a745" d="M137.28,-387.07C144.66,-383.69 151.9,-379.82 158.4,-375.42 185.99,-356.75 211.39,-328.95 229.45,-306.5"/>
<polygon fill="#28a745" stroke="#28a745" points="232.12,-308.78 235.55,-298.76 226.62,-304.45 232.12,-308.78"/>
</g>
<!-- retro_skill -->
<g id="node11" class="node">
<title>retro_skill</title>
<polygon fill="#f5f5f5" stroke="#bbbbbb" points="154.8,-366.62 3.6,-366.62 3.6,-308.22 154.8,-308.22 154.8,-366.62"/>
<text xml:space="preserve" text-anchor="middle" x="79.2" y="-350.02" font-family="Times,serif" font-size="14.00" fill="#777777">retro_skill</text>
<text xml:space="preserve" text-anchor="middle" x="79.2" y="-333.22" font-family="Times,serif" font-size="14.00" fill="#777777">ふりかえり監査スキ</text>
<text xml:space="preserve" text-anchor="middle" x="79.2" y="-316.42" font-family="Times,serif" font-size="14.00" fill="#777777">ル</text>
</g>
<!-- retro_skill&#45;&gt;gen_plugin -->
<g id="edge10" class="edge">
<title>retro_skill&#45;&gt;gen_plugin</title>
<path fill="none" stroke="#28a745" d="M155.05,-308.58C169.2,-303.12 183.84,-297.49 197.43,-292.25"/>
<polygon fill="#28a745" stroke="#28a745" points="198.6,-295.55 206.67,-288.69 196.08,-289.01 198.6,-295.55"/>
</g>
<!-- review_perspectives -->
<g id="node12" class="node">
<title>review_perspectives</title>
<polygon fill="#f5f5f5" stroke="#bbbbbb" points="158.4,-290.22 0,-290.22 0,-248.62 158.4,-248.62 158.4,-290.22"/>
<text xml:space="preserve" text-anchor="middle" x="79.2" y="-273.62" font-family="Times,serif" font-size="14.00" fill="#777777">review_perspectives</text>
<text xml:space="preserve" text-anchor="middle" x="79.2" y="-256.82" font-family="Times,serif" font-size="14.00" fill="#777777">レビュー観点集</text>
</g>
<!-- review_perspectives&#45;&gt;gen_plugin -->
<g id="edge11" class="edge">
<title>review_perspectives&#45;&gt;gen_plugin</title>
<path fill="none" stroke="#28a745" d="M158.89,-269.42C166.8,-269.42 174.81,-269.42 182.66,-269.42"/>
<polygon fill="#28a745" stroke="#28a745" points="182.52,-272.92 192.52,-269.42 182.52,-265.92 182.52,-272.92"/>
</g>
<!-- skill_template -->
<g id="node13" class="node">
<title>skill_template</title>
<polygon fill="#ffeeba" stroke="#e0a800" points="154.8,-230.22 3.6,-230.22 3.6,-188.62 154.8,-188.62 154.8,-230.22"/>
<text xml:space="preserve" text-anchor="middle" x="79.2" y="-213.62" font-family="Times,serif" font-size="14.00">skill_template</text>
<text xml:space="preserve" text-anchor="middle" x="79.2" y="-196.82" font-family="Times,serif" font-size="14.00">スキルテンプレート</text>
</g>
<!-- skill_template&#45;&gt;gen_plugin -->
<g id="edge12" class="edge">
<title>skill_template&#45;&gt;gen_plugin</title>
<path fill="none" stroke="#28a745" d="M142.42,-230.57C159.6,-236.41 178.22,-242.74 195.35,-248.56"/>
<polygon fill="#28a745" stroke="#28a745" points="193.76,-251.72 204.36,-251.63 196.02,-245.09 193.76,-251.72"/>
</g>
<!-- spec -->
<g id="node14" class="node">
<title>spec</title>
<polygon fill="#f5f5f5" stroke="#bbbbbb" points="126,-170.22 32.4,-170.22 32.4,-128.62 126,-128.62 126,-170.22"/>
<text xml:space="preserve" text-anchor="middle" x="79.2" y="-153.62" font-family="Times,serif" font-size="14.00" fill="#777777">spec</text>
<text xml:space="preserve" text-anchor="middle" x="79.2" y="-136.82" font-family="Times,serif" font-size="14.00" fill="#777777">言語仕様書</text>
</g>
<!-- spec&#45;&gt;gen_plugin -->
<g id="edge13" class="edge">
<title>spec&#45;&gt;gen_plugin</title>
<path fill="none" stroke="#28a745" d="M126.43,-162.01C137.58,-166.38 148.99,-172.09 158.4,-179.42 180.3,-196.45 174.25,-211.35 194.4,-230.42 198.1,-233.91 202.15,-237.27 206.37,-240.44"/>
<polygon fill="#28a745" stroke="#28a745" points="204.35,-243.3 214.53,-246.2 208.38,-237.58 204.35,-243.3"/>
</g>
<!-- toolchain -->
<g id="node15" class="node">
<title>toolchain</title>
<polygon fill="#f5f5f5" stroke="#bbbbbb" points="140.4,-110.22 18,-110.22 18,-68.62 140.4,-68.62 140.4,-110.22"/>
<text xml:space="preserve" text-anchor="middle" x="79.2" y="-93.62" font-family="Times,serif" font-size="14.00" fill="#777777">toolchain</text>
<text xml:space="preserve" text-anchor="middle" x="79.2" y="-76.82" font-family="Times,serif" font-size="14.00" fill="#777777">ツールチェーン</text>
</g>
<!-- toolchain&#45;&gt;gen_plugin -->
<g id="edge14" class="edge">
<title>toolchain&#45;&gt;gen_plugin</title>
<path fill="none" stroke="#28a745" d="M140.9,-106.18C147.36,-109.78 153.4,-114.14 158.4,-119.42 194.09,-157.04 162.5,-189.52 194.4,-230.42 197.36,-234.21 200.79,-237.73 204.5,-240.97"/>
<polygon fill="#28a745" stroke="#28a745" points="202.34,-243.72 212.37,-247.12 206.65,-238.21 202.34,-243.72"/>
</g>
</g>
</svg>
