<?xml version="1.0" encoding="UTF-8" standalone="no"?>
<!DOCTYPE svg PUBLIC "-//W3C//DTD SVG 1.1//EN"
 "http://www.w3.org/Graphics/SVG/1.1/DTD/svg11.dtd">
<!-- Generated by graphviz version 15.0.0 (0)
 -->
<!-- Title: PFDSL Pages: 1 -->
<svg width="856pt" height="340pt"
 viewBox="0.00 0.00 856.00 340.00" xmlns="http://www.w3.org/2000/svg" xmlns:xlink="http://www.w3.org/1999/xlink">
<g id="graph0" class="graph" transform="scale(1 1) rotate(0) translate(4 336.1)">
<title>PFDSL</title>
<polygon fill="white" stroke="none" points="-4,4 -4,-336.1 851.73,-336.1 851.73,4 -4,4"/>
<text xml:space="preserve" text-anchor="middle" x="423.86" y="-315.5" font-family="Times,serif" font-size="14.00">Issue 依存フロー（2026&#45;06） — diff</text>
<text xml:space="preserve" text-anchor="middle" x="423.86" y="-298.7" font-family="Times,serif" font-size="14.00">green = added · red = removed · yellow = changed</text>
<!-- cli_tool -->
<g id="node1" class="node">
<title>cli_tool</title>
<polygon fill="#f5f5f5" stroke="#bbbbbb" points="144,-62.1 7.2,-62.1 7.2,-20.5 144,-20.5 144,-62.1"/>
<text xml:space="preserve" text-anchor="middle" x="75.6" y="-45.5" font-family="Times,serif" font-size="14.00" fill="#777777">cli_tool</text>
<text xml:space="preserve" text-anchor="middle" x="75.6" y="-28.7" font-family="Times,serif" font-size="14.00" fill="#777777">CLI 実装（現行）</text>
</g>
<!-- implement_gen_samples_ci -->
<g id="node6" class="node">
<title>implement_gen_samples_ci</title>
<ellipse fill="#c3e6cb" stroke="#28a745" cx="309.03" cy="-41.3" rx="121.83" ry="41.3"/>
<text xml:space="preserve" text-anchor="middle" x="309.03" y="-53.9" font-family="Times,serif" font-size="14.00">implement_gen_samples_ci</text>
<text xml:space="preserve" text-anchor="middle" x="309.03" y="-37.1" font-family="Times,serif" font-size="14.00">gen&#45;samplesドリフト</text>
<text xml:space="preserve" text-anchor="middle" x="309.03" y="-20.3" font-family="Times,serif" font-size="14.00">検査CI実装</text>
</g>
<!-- cli_tool&#45;&gt;implement_gen_samples_ci -->
<g id="edge1" class="edge">
<title>cli_tool&#45;&gt;implement_gen_samples_ci</title>
<path fill="none" stroke="#28a745" d="M144.47,-41.3C154.47,-41.3 165.05,-41.3 175.82,-41.3"/>
<polygon fill="#28a745" stroke="#28a745" points="175.58,-44.8 185.58,-41.3 175.58,-37.8 175.58,-44.8"/>
</g>
<!-- cli_tool_v0011 -->
<g id="node2" class="node">
<title>cli_tool_v0011</title>
<polygon fill="#ffeeba" stroke="#e0a800" points="151.2,-138.5 0,-138.5 0,-80.1 151.2,-80.1 151.2,-138.5"/>
<text xml:space="preserve" text-anchor="middle" x="75.6" y="-121.9" font-family="Times,serif" font-size="14.00">cli_tool_v0011</text>
<text xml:space="preserve" text-anchor="middle" x="75.6" y="-105.1" font-family="Times,serif" font-size="14.00">CLI v0.0</text>
<text xml:space="preserve" text-anchor="middle" x="75.6" y="-88.3" font-family="Times,serif" font-size="14.00">11（次期リリース）</text>
</g>
<!-- cli_tool_v009 -->
<g id="node3" class="node">
<title>cli_tool_v009</title>
<polygon fill="#f5f5f5" stroke="#bbbbbb" points="133.2,-214.5 18,-214.5 18,-156.1 133.2,-156.1 133.2,-214.5"/>
<text xml:space="preserve" text-anchor="middle" x="75.6" y="-197.9" font-family="Times,serif" font-size="14.00" fill="#777777">cli_tool_v009</text>
<text xml:space="preserve" text-anchor="middle" x="75.6" y="-181.1" font-family="Times,serif" font-size="14.00" fill="#777777">CLI v0.0</text>
<text xml:space="preserve" text-anchor="middle" x="75.6" y="-164.3" font-family="Times,serif" font-size="14.00" fill="#777777">9（公開済み）</text>
</g>
<!-- implement_schedule_field -->
<g id="node7" class="node">
<title>implement_schedule_field</title>
<ellipse fill="#f5c6cb" stroke="#dc3545" cx="309.03" cy="-185.3" rx="116.33" ry="41.3"/>
<text xml:space="preserve" text-anchor="middle" x="309.03" y="-197.9" font-family="Times,serif" font-size="14.00">implement_schedule_field</text>
<text xml:space="preserve" text-anchor="middle" x="309.03" y="-181.1" font-family="Times,serif" font-size="14.00">schedule:フィールド</text>
<text xml:space="preserve" text-anchor="middle" x="309.03" y="-164.3" font-family="Times,serif" font-size="14.00">実装</text>
</g>
<!-- cli_tool_v009&#45;&gt;implement_schedule_field -->
<g id="edge2" class="edge">
<title>cli_tool_v009&#45;&gt;implement_schedule_field</title>
<path fill="none" stroke="#dc3545" stroke-dasharray="5,2" d="M133.51,-185.3C148.08,-185.3 164.35,-185.3 180.93,-185.3"/>
<polygon fill="#dc3545" stroke="#dc3545" points="180.93,-188.8 190.93,-185.3 180.93,-181.8 180.93,-188.8"/>
</g>
<!-- i220_schedule_field -->
<g id="node4" class="node">
<title>i220_schedule_field</title>
<polygon fill="#f5c6cb" stroke="#dc3545" points="625.26,-222.9 466.86,-222.9 466.86,-147.7 625.26,-147.7 625.26,-222.9"/>
<text xml:space="preserve" text-anchor="middle" x="546.06" y="-206.3" font-family="Times,serif" font-size="14.00">i220_schedule_field</text>
<text xml:space="preserve" text-anchor="middle" x="546.06" y="-189.5" font-family="Times,serif" font-size="14.00">schedule:</text>
<text xml:space="preserve" text-anchor="middle" x="546.06" y="-172.7" font-family="Times,serif" font-size="14.00">フィールド仕様・実</text>
<text xml:space="preserve" text-anchor="middle" x="546.06" y="-155.9" font-family="Times,serif" font-size="14.00">装 (#220)</text>
</g>
<!-- integrate_spec_v009 -->
<g id="node8" class="node">
<title>integrate_spec_v009</title>
<ellipse fill="#f5f5f5" stroke="#bbbbbb" cx="754.5" cy="-223.3" rx="93.23" ry="29.42"/>
<text xml:space="preserve" text-anchor="middle" x="754.5" y="-227.5" font-family="Times,serif" font-size="14.00" fill="#777777">integrate_spec_v009</text>
<text xml:space="preserve" text-anchor="middle" x="754.5" y="-210.7" font-family="Times,serif" font-size="14.00" fill="#777777">仕様書 v0.0.9統合</text>
</g>
<!-- i220_schedule_field&#45;&gt;integrate_spec_v009 -->
<g id="edge3" class="edge">
<title>i220_schedule_field&#45;&gt;integrate_spec_v009</title>
<path fill="none" stroke="#dc3545" stroke-dasharray="5,2" d="M625.7,-199.77C637.65,-201.97 650.07,-204.26 662.26,-206.5"/>
<polygon fill="#dc3545" stroke="#dc3545" points="661.41,-209.9 671.88,-208.27 662.68,-203.02 661.41,-209.9"/>
</g>
<!-- publish_cli_v0011 -->
<g id="node9" class="node">
<title>publish_cli_v0011</title>
<ellipse fill="#f5f5f5" stroke="#bbbbbb" cx="754.5" cy="-146.3" rx="89.13" ry="29.42"/>
<text xml:space="preserve" text-anchor="middle" x="754.5" y="-150.5" font-family="Times,serif" font-size="14.00" fill="#777777">publish_cli_v0011</text>
<text xml:space="preserve" text-anchor="middle" x="754.5" y="-133.7" font-family="Times,serif" font-size="14.00" fill="#777777">CLI v0.0.11リリース</text>
</g>
<!-- i220_schedule_field&#45;&gt;publish_cli_v0011 -->
<g id="edge4" class="edge">
<title>i220_schedule_field&#45;&gt;publish_cli_v0011</title>
<path fill="none" stroke="#dc3545" stroke-dasharray="5,2" d="M625.7,-170.44C638.69,-167.98 652.24,-165.42 665.45,-162.93"/>
<polygon fill="#dc3545" stroke="#dc3545" points="665.78,-166.43 674.96,-161.13 664.48,-159.55 665.78,-166.43"/>
</g>
<!-- i230_gen_samples_ci -->
<g id="node5" class="node">
<title>i230_gen_samples_ci</title>
<polygon fill="#c3e6cb" stroke="#28a745" points="625.26,-78.9 466.86,-78.9 466.86,-3.7 625.26,-3.7 625.26,-78.9"/>
<text xml:space="preserve" text-anchor="middle" x="546.06" y="-62.3" font-family="Times,serif" font-size="14.00">i230_gen_samples_ci</text>
<text xml:space="preserve" text-anchor="middle" x="546.06" y="-45.5" font-family="Times,serif" font-size="14.00">gen&#45;samples</text>
<text xml:space="preserve" text-anchor="middle" x="546.06" y="-28.7" font-family="Times,serif" font-size="14.00">ドリフト検査 CI </text>
<text xml:space="preserve" text-anchor="middle" x="546.06" y="-11.9" font-family="Times,serif" font-size="14.00">#230)</text>
</g>
<!-- implement_gen_samples_ci&#45;&gt;i230_gen_samples_ci -->
<g id="edge5" class="edge">
<title>implement_gen_samples_ci&#45;&gt;i230_gen_samples_ci</title>
<path fill="none" stroke="#28a745" d="M431.33,-41.3C439.33,-41.3 447.3,-41.3 455.1,-41.3"/>
<polygon fill="#28a745" stroke="#28a745" points="454.87,-44.8 464.87,-41.3 454.87,-37.8 454.87,-44.8"/>
</g>
<!-- implement_schedule_field&#45;&gt;i220_schedule_field -->
<g id="edge6" class="edge">
<title>implement_schedule_field&#45;&gt;i220_schedule_field</title>
<path fill="none" stroke="#dc3545" stroke-dasharray="5,2" d="M425.83,-185.3C435.74,-185.3 445.66,-185.3 455.33,-185.3"/>
<polygon fill="#dc3545" stroke="#dc3545" points="455.01,-188.8 465.01,-185.3 455.01,-181.8 455.01,-188.8"/>
</g>
<!-- spec_v009 -->
<g id="node10" class="node">
<title>spec_v009</title>
<polygon fill="#ffeeba" stroke="#e0a800" points="140.4,-290.5 10.8,-290.5 10.8,-232.1 140.4,-232.1 140.4,-290.5"/>
<text xml:space="preserve" text-anchor="middle" x="75.6" y="-273.9" font-family="Times,serif" font-size="14.00">spec_v009</text>
<text xml:space="preserve" text-anchor="middle" x="75.6" y="-257.1" font-family="Times,serif" font-size="14.00">仕様書 v0.0</text>
<text xml:space="preserve" text-anchor="middle" x="75.6" y="-240.3" font-family="Times,serif" font-size="14.00">9（index:統合）</text>
</g>
</g>
</svg>
