<?xml version="1.0" encoding="UTF-8" standalone="no"?>
<!DOCTYPE svg PUBLIC "-//W3C//DTD SVG 1.1//EN"
 "http://www.w3.org/Graphics/SVG/1.1/DTD/svg11.dtd">
<!-- Generated by graphviz version 15.1.0 (0)
 -->
<!-- Title: PFDSL Pages: 1 -->
<svg width="831pt" height="185pt"
 viewBox="0.00 0.00 831.00 185.00" xmlns="http://www.w3.org/2000/svg" xmlns:xlink="http://www.w3.org/1999/xlink">
<g id="graph0" class="graph" transform="scale(1 1) rotate(0) translate(4 181.43)">
<title>PFDSL</title>
<polygon fill="white" stroke="none" points="-4,4 -4,-181.43 826.62,-181.43 826.62,4 -4,4"/>
<text xml:space="preserve" text-anchor="middle" x="411.31" y="-160.83" font-family="Times,serif" font-size="14.00">Issue 依存フロー（2026&#45;06） — diff</text>
<text xml:space="preserve" text-anchor="middle" x="411.31" y="-144.03" font-family="Times,serif" font-size="14.00">green = added · red = removed · yellow = changed</text>
<!-- cli_tool_v0011 -->
<g id="node1" class="node">
<title>cli_tool_v0011</title>
<polygon fill="#f5f5f5" stroke="#bbbbbb" points="140.4,-58.62 18,-58.62 18,-0.22 140.4,-0.22 140.4,-58.62"/>
<text xml:space="preserve" text-anchor="middle" x="79.2" y="-42.02" font-family="Times,serif" font-size="14.00" fill="#777777">cli_tool_v0011</text>
<text xml:space="preserve" text-anchor="middle" x="79.2" y="-25.22" font-family="Times,serif" font-size="14.00" fill="#777777">CLI v0.0</text>
<text xml:space="preserve" text-anchor="middle" x="79.2" y="-8.42" font-family="Times,serif" font-size="14.00" fill="#777777">11（公開済み）</text>
</g>
<!-- implement_ready_cmd -->
<g id="node3" class="node">
<title>implement_ready_cmd</title>
<ellipse fill="#c3e6cb" stroke="#28a745" cx="296.98" cy="-29.42" rx="102.58" ry="29.42"/>
<text xml:space="preserve" text-anchor="middle" x="296.98" y="-33.62" font-family="Times,serif" font-size="14.00">implement_ready_cmd</text>
<text xml:space="preserve" text-anchor="middle" x="296.98" y="-16.82" font-family="Times,serif" font-size="14.00">ready コマンド実装</text>
</g>
<!-- cli_tool_v0011&#45;&gt;implement_ready_cmd -->
<g id="edge1" class="edge">
<title>cli_tool_v0011&#45;&gt;implement_ready_cmd</title>
<path fill="none" stroke="#28a745" d="M140.88,-29.42C154.09,-29.42 168.48,-29.42 182.99,-29.42"/>
<polygon fill="#28a745" stroke="#28a745" points="182.58,-32.92 192.58,-29.42 182.58,-25.92 182.58,-32.92"/>
</g>
<!-- cli_tool_v0012 -->
<g id="node2" class="node">
<title>cli_tool_v0012</title>
<polygon fill="#f5f5f5" stroke="#bbbbbb" points="158.4,-127.22 0,-127.22 0,-85.62 158.4,-85.62 158.4,-127.22"/>
<text xml:space="preserve" text-anchor="middle" x="79.2" y="-110.62" font-family="Times,serif" font-size="14.00" fill="#777777">cli_tool_v0012</text>
<text xml:space="preserve" text-anchor="middle" x="79.2" y="-93.82" font-family="Times,serif" font-size="14.00" fill="#777777">CLI v0.0.12（次期）</text>
</g>
<!-- update_pfd_ops_skill -->
<g id="node7" class="node">
<title>update_pfd_ops_skill</title>
<ellipse fill="#c3e6cb" stroke="#28a745" cx="296.98" cy="-106.42" rx="96.55" ry="29.42"/>
<text xml:space="preserve" text-anchor="middle" x="296.98" y="-110.62" font-family="Times,serif" font-size="14.00">update_pfd_ops_skill</text>
<text xml:space="preserve" text-anchor="middle" x="296.98" y="-93.82" font-family="Times,serif" font-size="14.00">pfd&#45;ops スキル更新</text>
</g>
<!-- cli_tool_v0012&#45;&gt;update_pfd_ops_skill -->
<g id="edge2" class="edge">
<title>cli_tool_v0012&#45;&gt;update_pfd_ops_skill</title>
<path fill="none" stroke="#28a745" d="M158.71,-106.42C168.52,-106.42 178.67,-106.42 188.82,-106.42"/>
<polygon fill="#28a745" stroke="#28a745" points="188.74,-109.92 198.74,-106.42 188.74,-102.92 188.74,-109.92"/>
</g>
<!-- ready_cmd -->
<g id="node6" class="node">
<title>ready_cmd</title>
<polygon fill="#c3e6cb" stroke="#28a745" points="608.36,-58.62 435.56,-58.62 435.56,-0.22 608.36,-0.22 608.36,-58.62"/>
<text xml:space="preserve" text-anchor="middle" x="521.96" y="-42.02" font-family="Times,serif" font-size="14.00">ready_cmd</text>
<text xml:space="preserve" text-anchor="middle" x="521.96" y="-25.22" font-family="Times,serif" font-size="14.00">pfdsl ready コマンド </text>
<text xml:space="preserve" text-anchor="middle" x="521.96" y="-8.42" font-family="Times,serif" font-size="14.00">(PR #267)</text>
</g>
<!-- implement_ready_cmd&#45;&gt;ready_cmd -->
<g id="edge3" class="edge">
<title>implement_ready_cmd&#45;&gt;ready_cmd</title>
<path fill="none" stroke="#28a745" d="M400.01,-29.42C407.94,-29.42 415.94,-29.42 423.85,-29.42"/>
<polygon fill="#28a745" stroke="#28a745" points="423.82,-32.92 433.82,-29.42 423.82,-25.92 423.82,-32.92"/>
</g>
<!-- pfd_ops_skill_ready -->
<g id="node4" class="node">
<title>pfd_ops_skill_ready</title>
<polygon fill="#c3e6cb" stroke="#28a745" points="604.76,-135.62 439.16,-135.62 439.16,-77.22 604.76,-77.22 604.76,-135.62"/>
<text xml:space="preserve" text-anchor="middle" x="521.96" y="-119.02" font-family="Times,serif" font-size="14.00">pfd_ops_skill_ready</text>
<text xml:space="preserve" text-anchor="middle" x="521.96" y="-102.22" font-family="Times,serif" font-size="14.00">pfd&#45;ops スキル ready</text>
<text xml:space="preserve" text-anchor="middle" x="521.96" y="-85.42" font-family="Times,serif" font-size="14.00">コマンド対応</text>
</g>
<!-- publish_cli_v0012 -->
<g id="node5" class="node">
<title>publish_cli_v0012</title>
<ellipse fill="#f5f5f5" stroke="#bbbbbb" cx="733.49" cy="-29.42" rx="89.13" ry="29.42"/>
<text xml:space="preserve" text-anchor="middle" x="733.49" y="-33.62" font-family="Times,serif" font-size="14.00" fill="#777777">publish_cli_v0012</text>
<text xml:space="preserve" text-anchor="middle" x="733.49" y="-16.82" font-family="Times,serif" font-size="14.00" fill="#777777">CLI v0.0.12リリース</text>
</g>
<!-- ready_cmd&#45;&gt;publish_cli_v0012 -->
<g id="edge4" class="edge">
<title>ready_cmd&#45;&gt;publish_cli_v0012</title>
<path fill="none" stroke="#28a745" d="M608.79,-29.42C616.7,-29.42 624.76,-29.42 632.78,-29.42"/>
<polygon fill="#28a745" stroke="#28a745" points="632.56,-32.92 642.56,-29.42 632.56,-25.92 632.56,-32.92"/>
</g>
<!-- update_pfd_ops_skill&#45;&gt;pfd_ops_skill_ready -->
<g id="edge5" class="edge">
<title>update_pfd_ops_skill&#45;&gt;pfd_ops_skill_ready</title>
<path fill="none" stroke="#28a745" d="M393.84,-106.42C404.96,-106.42 416.3,-106.42 427.4,-106.42"/>
<polygon fill="#28a745" stroke="#28a745" points="427.34,-109.92 437.34,-106.42 427.34,-102.92 427.34,-109.92"/>
</g>
</g>
</svg>
