<?xml version="1.0" encoding="UTF-8" standalone="no"?>
<!DOCTYPE svg PUBLIC "-//W3C//DTD SVG 1.1//EN"
 "http://www.w3.org/Graphics/SVG/1.1/DTD/svg11.dtd">
<!-- Generated by graphviz version 15.1.0 (0)
 -->
<!-- Title: PFDSL Pages: 1 -->
<svg width="671pt" height="508pt"
 viewBox="0.00 0.00 671.00 508.00" xmlns="http://www.w3.org/2000/svg" xmlns:xlink="http://www.w3.org/1999/xlink">
<g id="graph0" class="graph" transform="scale(1 1) rotate(0) translate(4 503.6)">
<title>PFDSL</title>
<polygon fill="white" stroke="none" points="-4,4 -4,-503.6 666.89,-503.6 666.89,4 -4,4"/>
<text xml:space="preserve" text-anchor="middle" x="331.45" y="-483" font-family="Times,serif" font-size="14.00">pfdsl開発ワークフロー — diff</text>
<text xml:space="preserve" text-anchor="middle" x="331.45" y="-466.2" font-family="Times,serif" font-size="14.00">green = added · red = removed · yellow = changed</text>
<!-- decisions -->
<g id="node1" class="node">
<title>decisions</title>
<polygon fill="#f5f5f5" stroke="#bbbbbb" points="115.2,-262 21.6,-262 21.6,-220.4 115.2,-220.4 115.2,-262"/>
<text xml:space="preserve" text-anchor="middle" x="68.4" y="-245.4" font-family="Times,serif" font-size="14.00" fill="#777777">decisions</text>
<text xml:space="preserve" text-anchor="middle" x="68.4" y="-228.6" font-family="Times,serif" font-size="14.00" fill="#777777">方法論判断</text>
</g>
<!-- distill_ops -->
<g id="node2" class="node">
<title>distill_ops</title>
<ellipse fill="#ffeeba" stroke="#e0a800" cx="250.94" cy="-241.2" rx="78.14" ry="29.42"/>
<text xml:space="preserve" text-anchor="middle" x="250.94" y="-245.4" font-family="Times,serif" font-size="14.00">distill_ops</text>
<text xml:space="preserve" text-anchor="middle" x="250.94" y="-228.6" font-family="Times,serif" font-size="14.00">運用プロトコル蒸留</text>
</g>
<!-- decisions&#45;&gt;distill_ops -->
<g id="edge1" class="edge">
<title>decisions&#45;&gt;distill_ops</title>
<path fill="none" stroke="#28a745" d="M115.42,-241.2C129.38,-241.2 145.21,-241.2 160.98,-241.2"/>
<polygon fill="#28a745" stroke="#28a745" points="160.92,-244.7 170.92,-241.2 160.92,-237.7 160.92,-244.7"/>
</g>
<!-- ecosystem_skill -->
<g id="node3" class="node">
<title>ecosystem_skill</title>
<polygon fill="#c3e6cb" stroke="#28a745" points="512.67,-270.4 368.67,-270.4 368.67,-212 512.67,-212 512.67,-270.4"/>
<text xml:space="preserve" text-anchor="middle" x="440.67" y="-253.8" font-family="Times,serif" font-size="14.00">ecosystem_skill</text>
<text xml:space="preserve" text-anchor="middle" x="440.67" y="-237" font-family="Times,serif" font-size="14.00">PFDセット構築スキ</text>
<text xml:space="preserve" text-anchor="middle" x="440.67" y="-220.2" font-family="Times,serif" font-size="14.00">ル</text>
</g>
<!-- distill_ops&#45;&gt;ecosystem_skill -->
<g id="edge2" class="edge">
<title>distill_ops&#45;&gt;ecosystem_skill</title>
<path fill="none" stroke="#28a745" d="M329.38,-241.2C338.47,-241.2 347.77,-241.2 356.93,-241.2"/>
<polygon fill="#28a745" stroke="#28a745" points="356.91,-244.7 366.91,-241.2 356.91,-237.7 356.91,-244.7"/>
</g>
<!-- publish_cli -->
<g id="node6" class="node">
<title>publish_cli</title>
<ellipse fill="#f5f5f5" stroke="#bbbbbb" cx="607.58" cy="-139.2" rx="55.31" ry="29.42"/>
<text xml:space="preserve" text-anchor="middle" x="607.58" y="-143.4" font-family="Times,serif" font-size="14.00" fill="#777777">publish_cli</text>
<text xml:space="preserve" text-anchor="middle" x="607.58" y="-126.6" font-family="Times,serif" font-size="14.00" fill="#777777">CLI 公開</text>
</g>
<!-- ecosystem_skill&#45;&gt;publish_cli -->
<g id="edge3" class="edge">
<title>ecosystem_skill&#45;&gt;publish_cli</title>
<path fill="none" stroke="#28a745" d="M501.55,-211.68C506.58,-208.9 511.54,-206.06 516.27,-203.2 533.02,-193.07 550.74,-180.87 566,-169.85"/>
<polygon fill="#28a745" stroke="#28a745" points="567.92,-172.78 573.94,-164.06 563.8,-167.13 567.92,-172.78"/>
</g>
<!-- file_issues -->
<g id="node4" class="node">
<title>file_issues</title>
<ellipse fill="#ffeeba" stroke="#e0a800" cx="68.4" cy="-309.2" rx="53.11" ry="29.42"/>
<text xml:space="preserve" text-anchor="middle" x="68.4" y="-313.4" font-family="Times,serif" font-size="14.00">file_issues</text>
<text xml:space="preserve" text-anchor="middle" x="68.4" y="-296.6" font-family="Times,serif" font-size="14.00">issue 管理</text>
</g>
<!-- ops_skill -->
<g id="node5" class="node">
<title>ops_skill</title>
<polygon fill="#ffeeba" stroke="#e0a800" points="498.27,-194 383.07,-194 383.07,-152.4 498.27,-152.4 498.27,-194"/>
<text xml:space="preserve" text-anchor="middle" x="440.67" y="-177.4" font-family="Times,serif" font-size="14.00">ops_skill</text>
<text xml:space="preserve" text-anchor="middle" x="440.67" y="-160.6" font-family="Times,serif" font-size="14.00">PFD運用スキル</text>
</g>
<!-- ops_skill&#45;&gt;publish_cli -->
<g id="edge4" class="edge">
<title>ops_skill&#45;&gt;publish_cli</title>
<path fill="none" stroke="#28a745" d="M498.42,-161.5C513.34,-158.42 529.51,-155.09 544.68,-151.96"/>
<polygon fill="#28a745" stroke="#28a745" points="544.96,-155.48 554.04,-150.03 543.54,-148.62 544.96,-155.48"/>
</g>
<!-- published_cli -->
<g id="node7" class="node">
<title>published_cli</title>
<polygon fill="#ffeeba" stroke="#e0a800" points="126,-398 10.8,-398 10.8,-356.4 126,-356.4 126,-398"/>
<text xml:space="preserve" text-anchor="middle" x="68.4" y="-381.4" font-family="Times,serif" font-size="14.00">published_cli</text>
<text xml:space="preserve" text-anchor="middle" x="68.4" y="-364.6" font-family="Times,serif" font-size="14.00">npm 公開 CLI</text>
</g>
<!-- retro_skill -->
<g id="node8" class="node">
<title>retro_skill</title>
<polygon fill="#f5f5f5" stroke="#bbbbbb" points="516.27,-134.4 365.07,-134.4 365.07,-76 516.27,-76 516.27,-134.4"/>
<text xml:space="preserve" text-anchor="middle" x="440.67" y="-117.8" font-family="Times,serif" font-size="14.00" fill="#777777">retro_skill</text>
<text xml:space="preserve" text-anchor="middle" x="440.67" y="-101" font-family="Times,serif" font-size="14.00" fill="#777777">ふりかえり監査スキ</text>
<text xml:space="preserve" text-anchor="middle" x="440.67" y="-84.2" font-family="Times,serif" font-size="14.00" fill="#777777">ル</text>
</g>
<!-- retro_skill&#45;&gt;publish_cli -->
<g id="edge5" class="edge">
<title>retro_skill&#45;&gt;publish_cli</title>
<path fill="none" stroke="#28a745" d="M516.41,-120.61C525.86,-122.56 535.45,-124.53 544.67,-126.44"/>
<polygon fill="#28a745" stroke="#28a745" points="543.72,-129.81 554.22,-128.4 545.13,-122.96 543.72,-129.81"/>
</g>
<!-- skill -->
<g id="node9" class="node">
<title>skill</title>
<polygon fill="#f5f5f5" stroke="#bbbbbb" points="509.07,-58.4 372.27,-58.4 372.27,0 509.07,0 509.07,-58.4"/>
<text xml:space="preserve" text-anchor="middle" x="440.67" y="-41.8" font-family="Times,serif" font-size="14.00" fill="#777777">skill</text>
<text xml:space="preserve" text-anchor="middle" x="440.67" y="-25" font-family="Times,serif" font-size="14.00" fill="#777777">AI agent</text>
<text xml:space="preserve" text-anchor="middle" x="440.67" y="-8.2" font-family="Times,serif" font-size="14.00" fill="#777777">スキル（リポ内）</text>
</g>
<!-- skill&#45;&gt;publish_cli -->
<g id="edge6" class="edge">
<title>skill&#45;&gt;publish_cli</title>
<path fill="none" stroke="#28a745" d="M502.51,-58.88C507.23,-61.58 511.87,-64.37 516.27,-67.2 534.62,-79.02 553.69,-93.8 569.55,-106.89"/>
<polygon fill="#28a745" stroke="#28a745" points="566.93,-109.26 576.85,-112.99 571.42,-103.89 566.93,-109.26"/>
</g>
<!-- workflow_md -->
<g id="node10" class="node">
<title>workflow_md</title>
<polygon fill="#ffeeba" stroke="#e0a800" points="136.8,-458 0,-458 0,-416.4 136.8,-416.4 136.8,-458"/>
<text xml:space="preserve" text-anchor="middle" x="68.4" y="-441.4" font-family="Times,serif" font-size="14.00">workflow_md</text>
<text xml:space="preserve" text-anchor="middle" x="68.4" y="-424.6" font-family="Times,serif" font-size="14.00">生態系 companion</text>
</g>
</g>
</svg>
