<?xml version="1.0" encoding="UTF-8" standalone="no"?>
<!DOCTYPE svg PUBLIC "-//W3C//DTD SVG 1.1//EN"
 "http://www.w3.org/Graphics/SVG/1.1/DTD/svg11.dtd">
<!-- Generated by graphviz version 15.0.0 (0)
 -->
<!-- Title: PFDSL Pages: 1 -->
<svg width="698pt" height="600pt"
 viewBox="0.00 0.00 698.00 600.00" xmlns="http://www.w3.org/2000/svg" xmlns:xlink="http://www.w3.org/1999/xlink">
<g id="graph0" class="graph" transform="scale(1 1) rotate(0) translate(4 596)">
<title>PFDSL</title>
<polygon fill="white" stroke="none" points="-4,4 -4,-596 693.83,-596 693.83,4 -4,4"/>
<text xml:space="preserve" text-anchor="middle" x="344.92" y="-575.4" font-family="Times,serif" font-size="14.00">Issue 依存フロー（2026&#45;06） — diff</text>
<text xml:space="preserve" text-anchor="middle" x="344.92" y="-558.6" font-family="Times,serif" font-size="14.00">green = added · red = removed · yellow = changed</text>
<!-- i172_version_cmd -->
<g id="node1" class="node">
<title>i172_version_cmd</title>
<polygon fill="#f5c6cb" stroke="#dc3545" points="457.57,-134.4 320.77,-134.4 320.77,-76 457.57,-76 457.57,-134.4"/>
<text xml:space="preserve" text-anchor="middle" x="389.17" y="-117.8" font-family="Times,serif" font-size="14.00">i172_version_cmd</text>
<text xml:space="preserve" text-anchor="middle" x="389.17" y="-101" font-family="Times,serif" font-size="14.00">CLI &#45;&#45;version</text>
<text xml:space="preserve" text-anchor="middle" x="389.17" y="-84.2" font-family="Times,serif" font-size="14.00">コマンド (#172)</text>
</g>
<!-- publish_cli_v0010 -->
<g id="node9" class="node">
<title>publish_cli_v0010</title>
<ellipse fill="#f5f5f5" stroke="#bbbbbb" cx="600.7" cy="-203.2" rx="89.13" ry="29.42"/>
<text xml:space="preserve" text-anchor="middle" x="600.7" y="-207.4" font-family="Times,serif" font-size="14.00" fill="#777777">publish_cli_v0010</text>
<text xml:space="preserve" text-anchor="middle" x="600.7" y="-190.6" font-family="Times,serif" font-size="14.00" fill="#777777">CLI v0.0.10リリース</text>
</g>
<!-- i172_version_cmd&#45;&gt;publish_cli_v0010 -->
<g id="edge1" class="edge">
<title>i172_version_cmd&#45;&gt;publish_cli_v0010</title>
<path fill="none" stroke="#dc3545" stroke-dasharray="5,2" d="M457.39,-134.87C463.55,-137.66 469.68,-140.47 475.57,-143.2 496.46,-152.89 519.19,-163.78 539.42,-173.59"/>
<polygon fill="#dc3545" stroke="#dc3545" points="537.86,-176.72 548.38,-177.95 540.92,-170.43 537.86,-176.72"/>
</g>
<!-- i177_subcommand_help -->
<g id="node2" class="node">
<title>i177_subcommand_help</title>
<polygon fill="#f5c6cb" stroke="#dc3545" points="465.99,-406.4 312.35,-406.4 312.35,-348 465.99,-348 465.99,-406.4"/>
<text xml:space="preserve" text-anchor="middle" x="389.17" y="-389.8" font-family="Times,serif" font-size="14.00">i177_subcommand_help</text>
<text xml:space="preserve" text-anchor="middle" x="389.17" y="-373" font-family="Times,serif" font-size="14.00">CLI per&#45;command</text>
<text xml:space="preserve" text-anchor="middle" x="389.17" y="-356.2" font-family="Times,serif" font-size="14.00">&#45;&#45;help (#177)</text>
</g>
<!-- i177_subcommand_help&#45;&gt;publish_cli_v0010 -->
<g id="edge2" class="edge">
<title>i177_subcommand_help&#45;&gt;publish_cli_v0010</title>
<path fill="none" stroke="#dc3545" stroke-dasharray="5,2" d="M462.66,-347.56C467.15,-344.93 471.49,-342.14 475.57,-339.2 513.75,-311.66 549.08,-270.8 572.21,-241.06"/>
<polygon fill="#dc3545" stroke="#dc3545" points="574.76,-243.48 578.06,-233.41 569.2,-239.23 574.76,-243.48"/>
</g>
<!-- i178_stdin -->
<g id="node3" class="node">
<title>i178_stdin</title>
<polygon fill="#f5c6cb" stroke="#dc3545" points="475.57,-254 302.77,-254 302.77,-212.4 475.57,-212.4 475.57,-254"/>
<text xml:space="preserve" text-anchor="middle" x="389.17" y="-237.4" font-family="Times,serif" font-size="14.00">i178_stdin</text>
<text xml:space="preserve" text-anchor="middle" x="389.17" y="-220.6" font-family="Times,serif" font-size="14.00">CLI stdin 対応 (#178)</text>
</g>
<!-- i178_stdin&#45;&gt;publish_cli_v0010 -->
<g id="edge3" class="edge">
<title>i178_stdin&#45;&gt;publish_cli_v0010</title>
<path fill="none" stroke="#dc3545" stroke-dasharray="5,2" d="M476,-220.91C486.29,-219.44 496.83,-217.93 507.22,-216.44"/>
<polygon fill="#dc3545" stroke="#dc3545" points="507.49,-219.94 516.9,-215.06 506.5,-213.01 507.49,-219.94"/>
</g>
<!-- i180_no_color -->
<g id="node4" class="node">
<title>i180_no_color</title>
<polygon fill="#ffeeba" stroke="#e0a800" points="201.78,-473.8 64.98,-473.8 64.98,-398.6 201.78,-398.6 201.78,-473.8"/>
<text xml:space="preserve" text-anchor="middle" x="133.38" y="-457.2" font-family="Times,serif" font-size="14.00">i180_no_color</text>
<text xml:space="preserve" text-anchor="middle" x="133.38" y="-440.4" font-family="Times,serif" font-size="14.00">CLI &#45;&#45;no&#45;color /</text>
<text xml:space="preserve" text-anchor="middle" x="133.38" y="-423.6" font-family="Times,serif" font-size="14.00">NO_COLOR 対応 </text>
<text xml:space="preserve" text-anchor="middle" x="133.38" y="-406.8" font-family="Times,serif" font-size="14.00">#180)</text>
</g>
<!-- i181_json_output -->
<g id="node5" class="node">
<title>i181_json_output</title>
<polygon fill="#ffeeba" stroke="#e0a800" points="216.18,-550.4 50.58,-550.4 50.58,-492 216.18,-492 216.18,-550.4"/>
<text xml:space="preserve" text-anchor="middle" x="133.38" y="-533.8" font-family="Times,serif" font-size="14.00">i181_json_output</text>
<text xml:space="preserve" text-anchor="middle" x="133.38" y="-517" font-family="Times,serif" font-size="14.00">CLI &#45;&#45;json 出力対応 </text>
<text xml:space="preserve" text-anchor="middle" x="133.38" y="-500.2" font-family="Times,serif" font-size="14.00">#181)</text>
</g>
<!-- implement_stdin -->
<g id="node6" class="node">
<title>implement_stdin</title>
<ellipse fill="#f5f5f5" stroke="#bbbbbb" cx="133.38" cy="-192.2" rx="77.85" ry="29.42"/>
<text xml:space="preserve" text-anchor="middle" x="133.38" y="-196.4" font-family="Times,serif" font-size="14.00" fill="#777777">implement_stdin</text>
<text xml:space="preserve" text-anchor="middle" x="133.38" y="-179.6" font-family="Times,serif" font-size="14.00" fill="#777777">stdin対応実装</text>
</g>
<!-- implement_stdin&#45;&gt;i178_stdin -->
<g id="edge4" class="edge">
<title>implement_stdin&#45;&gt;i178_stdin</title>
<path fill="none" stroke="#dc3545" stroke-dasharray="5,2" d="M205.42,-203.68C231.95,-207.96 262.56,-212.91 291.05,-217.51"/>
<polygon fill="#dc3545" stroke="#dc3545" points="290.35,-220.94 300.78,-219.08 291.46,-214.03 290.35,-220.94"/>
</g>
<!-- stdin -->
<g id="node10" class="node">
<title>stdin</title>
<polygon fill="#c3e6cb" stroke="#28a745" points="475.57,-194 302.77,-194 302.77,-152.4 475.57,-152.4 475.57,-194"/>
<text xml:space="preserve" text-anchor="middle" x="389.17" y="-177.4" font-family="Times,serif" font-size="14.00">stdin</text>
<text xml:space="preserve" text-anchor="middle" x="389.17" y="-160.6" font-family="Times,serif" font-size="14.00">CLI stdin 対応 (#178)</text>
</g>
<!-- implement_stdin&#45;&gt;stdin -->
<g id="edge5" class="edge">
<title>implement_stdin&#45;&gt;stdin</title>
<path fill="none" stroke="#28a745" d="M210.19,-186.53C235.62,-184.62 264.34,-182.47 291.17,-180.46"/>
<polygon fill="#28a745" stroke="#28a745" points="291.31,-183.96 301.02,-179.72 290.79,-176.98 291.31,-183.96"/>
</g>
<!-- implement_subcommand_help -->
<g id="node7" class="node">
<title>implement_subcommand_help</title>
<ellipse fill="#f5f5f5" stroke="#bbbbbb" cx="133.38" cy="-339.2" rx="133.38" ry="41.3"/>
<text xml:space="preserve" text-anchor="middle" x="133.38" y="-351.8" font-family="Times,serif" font-size="14.00" fill="#777777">implement_subcommand_help</text>
<text xml:space="preserve" text-anchor="middle" x="133.38" y="-335" font-family="Times,serif" font-size="14.00" fill="#777777">per&#45;command</text>
<text xml:space="preserve" text-anchor="middle" x="133.38" y="-318.2" font-family="Times,serif" font-size="14.00" fill="#777777">&#45;&#45;help実装</text>
</g>
<!-- implement_subcommand_help&#45;&gt;i177_subcommand_help -->
<g id="edge6" class="edge">
<title>implement_subcommand_help&#45;&gt;i177_subcommand_help</title>
<path fill="none" stroke="#dc3545" stroke-dasharray="5,2" d="M254.22,-357.14C269.86,-359.49 285.66,-361.85 300.63,-364.09"/>
<polygon fill="#dc3545" stroke="#dc3545" points="300.01,-367.54 310.42,-365.56 301.05,-360.62 300.01,-367.54"/>
</g>
<!-- subcommand_help -->
<g id="node11" class="node">
<title>subcommand_help</title>
<polygon fill="#c3e6cb" stroke="#28a745" points="450.05,-330.4 328.29,-330.4 328.29,-272 450.05,-272 450.05,-330.4"/>
<text xml:space="preserve" text-anchor="middle" x="389.17" y="-313.8" font-family="Times,serif" font-size="14.00">subcommand_help</text>
<text xml:space="preserve" text-anchor="middle" x="389.17" y="-297" font-family="Times,serif" font-size="14.00">CLI per&#45;command</text>
<text xml:space="preserve" text-anchor="middle" x="389.17" y="-280.2" font-family="Times,serif" font-size="14.00">&#45;&#45;help (#177)</text>
</g>
<!-- implement_subcommand_help&#45;&gt;subcommand_help -->
<g id="edge7" class="edge">
<title>implement_subcommand_help&#45;&gt;subcommand_help</title>
<path fill="none" stroke="#28a745" d="M254.22,-321.26C275.57,-318.06 297.18,-314.82 316.64,-311.91"/>
<polygon fill="#28a745" stroke="#28a745" points="316.96,-315.4 326.33,-310.46 315.92,-308.48 316.96,-315.4"/>
</g>
<!-- implement_version_cmd -->
<g id="node8" class="node">
<title>implement_version_cmd</title>
<ellipse fill="#f5f5f5" stroke="#bbbbbb" cx="133.38" cy="-76.2" rx="109.74" ry="41.3"/>
<text xml:space="preserve" text-anchor="middle" x="133.38" y="-88.8" font-family="Times,serif" font-size="14.00" fill="#777777">implement_version_cmd</text>
<text xml:space="preserve" text-anchor="middle" x="133.38" y="-72" font-family="Times,serif" font-size="14.00" fill="#777777">&#45;&#45;version</text>
<text xml:space="preserve" text-anchor="middle" x="133.38" y="-55.2" font-family="Times,serif" font-size="14.00" fill="#777777">コマンド実装</text>
</g>
<!-- implement_version_cmd&#45;&gt;i172_version_cmd -->
<g id="edge8" class="edge">
<title>implement_version_cmd&#45;&gt;i172_version_cmd</title>
<path fill="none" stroke="#dc3545" stroke-dasharray="5,2" d="M238.71,-88.12C262.22,-90.81 286.81,-93.62 309.09,-96.16"/>
<polygon fill="#dc3545" stroke="#dc3545" points="308.68,-99.64 319.01,-97.3 309.47,-92.68 308.68,-99.64"/>
</g>
<!-- version_cmd -->
<g id="node12" class="node">
<title>version_cmd</title>
<polygon fill="#c3e6cb" stroke="#28a745" points="453.97,-58.4 324.37,-58.4 324.37,0 453.97,0 453.97,-58.4"/>
<text xml:space="preserve" text-anchor="middle" x="389.17" y="-41.8" font-family="Times,serif" font-size="14.00">version_cmd</text>
<text xml:space="preserve" text-anchor="middle" x="389.17" y="-25" font-family="Times,serif" font-size="14.00">CLI &#45;&#45;version</text>
<text xml:space="preserve" text-anchor="middle" x="389.17" y="-8.2" font-family="Times,serif" font-size="14.00">コマンド (#172)</text>
</g>
<!-- implement_version_cmd&#45;&gt;version_cmd -->
<g id="edge9" class="edge">
<title>implement_version_cmd&#45;&gt;version_cmd</title>
<path fill="none" stroke="#28a745" d="M232.5,-58.03C259.12,-53.1 287.51,-47.84 312.66,-43.18"/>
<polygon fill="#28a745" stroke="#28a745" points="313.29,-46.63 322.48,-41.37 312.01,-39.74 313.29,-46.63"/>
</g>
<!-- stdin&#45;&gt;publish_cli_v0010 -->
<g id="edge10" class="edge">
<title>stdin&#45;&gt;publish_cli_v0010</title>
<path fill="none" stroke="#28a745" d="M476,-185.49C486.29,-186.96 496.83,-188.47 507.22,-189.96"/>
<polygon fill="#28a745" stroke="#28a745" points="506.5,-193.39 516.9,-191.34 507.49,-186.46 506.5,-193.39"/>
</g>
<!-- subcommand_help&#45;&gt;publish_cli_v0010 -->
<g id="edge11" class="edge">
<title>subcommand_help&#45;&gt;publish_cli_v0010</title>
<path fill="none" stroke="#28a745" d="M450.46,-274.66C458.91,-270.85 467.47,-266.96 475.57,-263.2 496.46,-253.51 519.19,-242.62 539.42,-232.81"/>
<polygon fill="#28a745" stroke="#28a745" points="540.92,-235.97 548.38,-228.45 537.86,-229.68 540.92,-235.97"/>
</g>
<!-- version_cmd&#45;&gt;publish_cli_v0010 -->
<g id="edge12" class="edge">
<title>version_cmd&#45;&gt;publish_cli_v0010</title>
<path fill="none" stroke="#28a745" d="M454.29,-54.2C461.72,-58.11 468.99,-62.45 475.57,-67.2 513.75,-94.74 549.08,-135.6 572.21,-165.34"/>
<polygon fill="#28a745" stroke="#28a745" points="569.2,-167.17 578.06,-172.99 574.76,-162.92 569.2,-167.17"/>
</g>
</g>
</svg>
