<?xml version="1.0" encoding="UTF-8" standalone="no"?>
<!DOCTYPE svg PUBLIC "-//W3C//DTD SVG 1.1//EN"
 "http://www.w3.org/Graphics/SVG/1.1/DTD/svg11.dtd">
<!-- Generated by graphviz version 15.0.0 (0)
 -->
<!-- Title: PFDSL Pages: 1 -->
<svg width="669pt" height="256pt"
 viewBox="0.00 0.00 669.00 256.00" xmlns="http://www.w3.org/2000/svg" xmlns:xlink="http://www.w3.org/1999/xlink">
<g id="graph0" class="graph" transform="scale(1 1) rotate(0) translate(4 252.07)">
<title>PFDSL</title>
<polygon fill="white" stroke="none" points="-4,4 -4,-252.07 665.26,-252.07 665.26,4 -4,4"/>
<text xml:space="preserve" text-anchor="middle" x="330.63" y="-231.47" font-family="Times,serif" font-size="14.00">Issue 依存フロー（2026&#45;06） — diff</text>
<text xml:space="preserve" text-anchor="middle" x="330.63" y="-214.67" font-family="Times,serif" font-size="14.00">green = added · red = removed · yellow = changed</text>
<!-- cli_tool -->
<g id="node1" class="node">
<title>cli_tool</title>
<polygon fill="#f5f5f5" stroke="#bbbbbb" points="147.6,-62.1 10.8,-62.1 10.8,-20.5 147.6,-20.5 147.6,-62.1"/>
<text xml:space="preserve" text-anchor="middle" x="79.2" y="-45.5" font-family="Times,serif" font-size="14.00" fill="#777777">cli_tool</text>
<text xml:space="preserve" text-anchor="middle" x="79.2" y="-28.7" font-family="Times,serif" font-size="14.00" fill="#777777">CLI 実装（現行）</text>
</g>
<!-- implement_gen_samples_ci -->
<g id="node5" class="node">
<title>implement_gen_samples_ci</title>
<ellipse fill="#f5c6cb" stroke="#dc3545" cx="316.23" cy="-41.3" rx="121.83" ry="41.3"/>
<text xml:space="preserve" text-anchor="middle" x="316.23" y="-53.9" font-family="Times,serif" font-size="14.00">implement_gen_samples_ci</text>
<text xml:space="preserve" text-anchor="middle" x="316.23" y="-37.1" font-family="Times,serif" font-size="14.00">gen&#45;samplesドリフト</text>
<text xml:space="preserve" text-anchor="middle" x="316.23" y="-20.3" font-family="Times,serif" font-size="14.00">検査CI実装</text>
</g>
<!-- cli_tool&#45;&gt;implement_gen_samples_ci -->
<g id="edge1" class="edge">
<title>cli_tool&#45;&gt;implement_gen_samples_ci</title>
<path fill="none" stroke="#dc3545" stroke-dasharray="5,2" d="M147.87,-41.3C158.86,-41.3 170.57,-41.3 182.5,-41.3"/>
<polygon fill="#dc3545" stroke="#dc3545" points="182.46,-44.8 192.46,-41.3 182.46,-37.8 182.46,-44.8"/>
</g>
<!-- i201_published_libs -->
<g id="node2" class="node">
<title>i201_published_libs</title>
<polygon fill="#f5f5f5" stroke="#bbbbbb" points="158.4,-182.5 0,-182.5 0,-124.1 158.4,-124.1 158.4,-182.5"/>
<text xml:space="preserve" text-anchor="middle" x="79.2" y="-165.9" font-family="Times,serif" font-size="14.00" fill="#777777">i201_published_libs</text>
<text xml:space="preserve" text-anchor="middle" x="79.2" y="-149.1" font-family="Times,serif" font-size="14.00" fill="#777777">公開ライブラリ群 </text>
<text xml:space="preserve" text-anchor="middle" x="79.2" y="-132.3" font-family="Times,serif" font-size="14.00" fill="#777777">#201)</text>
</g>
<!-- update_workflow_libs -->
<g id="node6" class="node">
<title>update_workflow_libs</title>
<ellipse fill="#f5c6cb" stroke="#dc3545" cx="316.23" cy="-153.3" rx="100.39" ry="53.17"/>
<text xml:space="preserve" text-anchor="middle" x="316.23" y="-174.3" font-family="Times,serif" font-size="14.00">update_workflow_libs</text>
<text xml:space="preserve" text-anchor="middle" x="316.23" y="-157.5" font-family="Times,serif" font-size="14.00">workflow</text>
<text xml:space="preserve" text-anchor="middle" x="316.23" y="-140.7" font-family="Times,serif" font-size="14.00">にライブラリ公開ノ</text>
<text xml:space="preserve" text-anchor="middle" x="316.23" y="-123.9" font-family="Times,serif" font-size="14.00">ード追加</text>
</g>
<!-- i201_published_libs&#45;&gt;update_workflow_libs -->
<g id="edge2" class="edge">
<title>i201_published_libs&#45;&gt;update_workflow_libs</title>
<path fill="none" stroke="#dc3545" stroke-dasharray="5,2" d="M158.79,-153.3C173.39,-153.3 188.9,-153.3 204.26,-153.3"/>
<polygon fill="#dc3545" stroke="#dc3545" points="203.89,-156.8 213.89,-153.3 203.89,-149.8 203.89,-156.8"/>
</g>
<!-- i230_gen_samples_ci -->
<g id="node3" class="node">
<title>i230_gen_samples_ci</title>
<polygon fill="#f5c6cb" stroke="#dc3545" points="646.86,-78.9 488.46,-78.9 488.46,-3.7 646.86,-3.7 646.86,-78.9"/>
<text xml:space="preserve" text-anchor="middle" x="567.66" y="-62.3" font-family="Times,serif" font-size="14.00">i230_gen_samples_ci</text>
<text xml:space="preserve" text-anchor="middle" x="567.66" y="-45.5" font-family="Times,serif" font-size="14.00">gen&#45;samples</text>
<text xml:space="preserve" text-anchor="middle" x="567.66" y="-28.7" font-family="Times,serif" font-size="14.00">ドリフト検査 CI </text>
<text xml:space="preserve" text-anchor="middle" x="567.66" y="-11.9" font-family="Times,serif" font-size="14.00">#230)</text>
</g>
<!-- i231_workflow_libs -->
<g id="node4" class="node">
<title>i231_workflow_libs</title>
<polygon fill="#f5c6cb" stroke="#dc3545" points="661.26,-190.9 474.06,-190.9 474.06,-115.7 661.26,-115.7 661.26,-190.9"/>
<text xml:space="preserve" text-anchor="middle" x="567.66" y="-174.3" font-family="Times,serif" font-size="14.00">i231_workflow_libs</text>
<text xml:space="preserve" text-anchor="middle" x="567.66" y="-157.5" font-family="Times,serif" font-size="14.00">workflow に</text>
<text xml:space="preserve" text-anchor="middle" x="567.66" y="-140.7" font-family="Times,serif" font-size="14.00">publish_libraries 登録 </text>
<text xml:space="preserve" text-anchor="middle" x="567.66" y="-123.9" font-family="Times,serif" font-size="14.00">(#231)</text>
</g>
<!-- implement_gen_samples_ci&#45;&gt;i230_gen_samples_ci -->
<g id="edge3" class="edge">
<title>implement_gen_samples_ci&#45;&gt;i230_gen_samples_ci</title>
<path fill="none" stroke="#dc3545" stroke-dasharray="5,2" d="M438.3,-41.3C451.22,-41.3 464.2,-41.3 476.67,-41.3"/>
<polygon fill="#dc3545" stroke="#dc3545" points="476.45,-44.8 486.45,-41.3 476.45,-37.8 476.45,-44.8"/>
</g>
<!-- update_workflow_libs&#45;&gt;i231_workflow_libs -->
<g id="edge4" class="edge">
<title>update_workflow_libs&#45;&gt;i231_workflow_libs</title>
<path fill="none" stroke="#dc3545" stroke-dasharray="5,2" d="M416.89,-153.3C431.81,-153.3 447.23,-153.3 462.25,-153.3"/>
<polygon fill="#dc3545" stroke="#dc3545" points="462.13,-156.8 472.13,-153.3 462.13,-149.8 462.13,-156.8"/>
</g>
</g>
</svg>
