<?xml version="1.0" encoding="UTF-8" standalone="no"?>
<!DOCTYPE svg PUBLIC "-//W3C//DTD SVG 1.1//EN"
 "http://www.w3.org/Graphics/SVG/1.1/DTD/svg11.dtd">
<!-- Generated by graphviz version 15.0.0 (0)
 -->
<!-- Title: PFDSL Pages: 1 -->
<svg width="631pt" height="370pt"
 viewBox="0.00 0.00 631.00 370.00" xmlns="http://www.w3.org/2000/svg" xmlns:xlink="http://www.w3.org/1999/xlink">
<g id="graph0" class="graph" transform="scale(1 1) rotate(0) translate(4 366.4)">
<title>PFDSL</title>
<polygon fill="white" stroke="none" points="-4,4 -4,-366.4 626.7,-366.4 626.7,4 -4,4"/>
<text xml:space="preserve" text-anchor="middle" x="311.35" y="-345.8" font-family="Times,serif" font-size="14.00">Issue 依存フロー（2026&#45;06） — diff</text>
<text xml:space="preserve" text-anchor="middle" x="311.35" y="-329" font-family="Times,serif" font-size="14.00">green = added · red = removed · yellow = changed</text>
<!-- i180_no_color -->
<g id="node1" class="node">
<title>i180_no_color</title>
<polygon fill="#f5c6cb" stroke="#dc3545" points="397.91,-168.2 261.11,-168.2 261.11,-93 397.91,-93 397.91,-168.2"/>
<text xml:space="preserve" text-anchor="middle" x="329.51" y="-151.6" font-family="Times,serif" font-size="14.00">i180_no_color</text>
<text xml:space="preserve" text-anchor="middle" x="329.51" y="-134.8" font-family="Times,serif" font-size="14.00">CLI &#45;&#45;no&#45;color /</text>
<text xml:space="preserve" text-anchor="middle" x="329.51" y="-118" font-family="Times,serif" font-size="14.00">NO_COLOR 対応 </text>
<text xml:space="preserve" text-anchor="middle" x="329.51" y="-101.2" font-family="Times,serif" font-size="14.00">#180)</text>
</g>
<!-- publish_cli_further -->
<g id="node7" class="node">
<title>publish_cli_further</title>
<ellipse fill="#f5f5f5" stroke="#bbbbbb" cx="535.5" cy="-172.6" rx="87.19" ry="41.3"/>
<text xml:space="preserve" text-anchor="middle" x="535.5" y="-185.2" font-family="Times,serif" font-size="14.00" fill="#777777">publish_cli_further</text>
<text xml:space="preserve" text-anchor="middle" x="535.5" y="-168.4" font-family="Times,serif" font-size="14.00" fill="#777777">CLIさらに次期版リ</text>
<text xml:space="preserve" text-anchor="middle" x="535.5" y="-151.6" font-family="Times,serif" font-size="14.00" fill="#777777">リース</text>
</g>
<!-- i180_no_color&#45;&gt;publish_cli_further -->
<g id="edge1" class="edge">
<title>i180_no_color&#45;&gt;publish_cli_further</title>
<path fill="none" stroke="#dc3545" stroke-dasharray="5,2" d="M398.15,-144.53C412.8,-147.54 428.53,-150.78 443.9,-153.95"/>
<polygon fill="#dc3545" stroke="#dc3545" points="443.03,-157.34 453.53,-155.93 444.44,-150.48 443.03,-157.34"/>
</g>
<!-- i181_json_output -->
<g id="node2" class="node">
<title>i181_json_output</title>
<polygon fill="#f5c6cb" stroke="#dc3545" points="412.31,-320.8 246.71,-320.8 246.71,-262.4 412.31,-262.4 412.31,-320.8"/>
<text xml:space="preserve" text-anchor="middle" x="329.51" y="-304.2" font-family="Times,serif" font-size="14.00">i181_json_output</text>
<text xml:space="preserve" text-anchor="middle" x="329.51" y="-287.4" font-family="Times,serif" font-size="14.00">CLI &#45;&#45;json 出力対応 </text>
<text xml:space="preserve" text-anchor="middle" x="329.51" y="-270.6" font-family="Times,serif" font-size="14.00">#181)</text>
</g>
<!-- i181_json_output&#45;&gt;publish_cli_further -->
<g id="edge2" class="edge">
<title>i181_json_output&#45;&gt;publish_cli_further</title>
<path fill="none" stroke="#dc3545" stroke-dasharray="5,2" d="M396.58,-261.96C401.95,-259.23 407.25,-256.43 412.31,-253.6 433.98,-241.48 456.87,-226.83 476.92,-213.35"/>
<polygon fill="#dc3545" stroke="#dc3545" points="478.65,-216.4 484.96,-207.89 474.72,-210.61 478.65,-216.4"/>
</g>
<!-- implement_json_output -->
<g id="node3" class="node">
<title>implement_json_output</title>
<ellipse fill="#f5f5f5" stroke="#bbbbbb" cx="105.35" cy="-239.6" rx="105.35" ry="29.42"/>
<text xml:space="preserve" text-anchor="middle" x="105.35" y="-243.8" font-family="Times,serif" font-size="14.00" fill="#777777">implement_json_output</text>
<text xml:space="preserve" text-anchor="middle" x="105.35" y="-227" font-family="Times,serif" font-size="14.00" fill="#777777">&#45;&#45;json出力実装</text>
</g>
<!-- implement_json_output&#45;&gt;i181_json_output -->
<g id="edge3" class="edge">
<title>implement_json_output&#45;&gt;i181_json_output</title>
<path fill="none" stroke="#dc3545" stroke-dasharray="5,2" d="M187.19,-258.52C202.81,-262.18 219.3,-266.04 235.28,-269.78"/>
<polygon fill="#dc3545" stroke="#dc3545" points="234.24,-273.13 244.77,-272 235.83,-266.31 234.24,-273.13"/>
</g>
<!-- json_output -->
<g id="node5" class="node">
<title>json_output</title>
<polygon fill="#c3e6cb" stroke="#28a745" points="412.31,-244.8 246.71,-244.8 246.71,-186.4 412.31,-186.4 412.31,-244.8"/>
<text xml:space="preserve" text-anchor="middle" x="329.51" y="-228.2" font-family="Times,serif" font-size="14.00">json_output</text>
<text xml:space="preserve" text-anchor="middle" x="329.51" y="-211.4" font-family="Times,serif" font-size="14.00">CLI &#45;&#45;json 出力対応 </text>
<text xml:space="preserve" text-anchor="middle" x="329.51" y="-194.6" font-family="Times,serif" font-size="14.00">#181)</text>
</g>
<!-- implement_json_output&#45;&gt;json_output -->
<g id="edge4" class="edge">
<title>implement_json_output&#45;&gt;json_output</title>
<path fill="none" stroke="#28a745" d="M204.12,-229.04C214.35,-227.93 224.74,-226.81 234.92,-225.71"/>
<polygon fill="#28a745" stroke="#28a745" points="235.25,-229.2 244.81,-224.64 234.5,-222.24 235.25,-229.2"/>
</g>
<!-- implement_no_color -->
<g id="node4" class="node">
<title>implement_no_color</title>
<ellipse fill="#f5f5f5" stroke="#bbbbbb" cx="105.35" cy="-106.6" rx="93.79" ry="41.3"/>
<text xml:space="preserve" text-anchor="middle" x="105.35" y="-119.2" font-family="Times,serif" font-size="14.00" fill="#777777">implement_no_color</text>
<text xml:space="preserve" text-anchor="middle" x="105.35" y="-102.4" font-family="Times,serif" font-size="14.00" fill="#777777">&#45;&#45;no&#45;color /</text>
<text xml:space="preserve" text-anchor="middle" x="105.35" y="-85.6" font-family="Times,serif" font-size="14.00" fill="#777777">NO_COLOR実装</text>
</g>
<!-- implement_no_color&#45;&gt;i180_no_color -->
<g id="edge5" class="edge">
<title>implement_no_color&#45;&gt;i180_no_color</title>
<path fill="none" stroke="#dc3545" stroke-dasharray="5,2" d="M196.71,-116.36C214.25,-118.26 232.51,-120.23 249.64,-122.08"/>
<polygon fill="#dc3545" stroke="#dc3545" points="248.9,-125.52 259.22,-123.11 249.65,-118.56 248.9,-125.52"/>
</g>
<!-- no_color -->
<g id="node6" class="node">
<title>no_color</title>
<polygon fill="#c3e6cb" stroke="#28a745" points="397.91,-75.2 261.11,-75.2 261.11,0 397.91,0 397.91,-75.2"/>
<text xml:space="preserve" text-anchor="middle" x="329.51" y="-58.6" font-family="Times,serif" font-size="14.00">no_color</text>
<text xml:space="preserve" text-anchor="middle" x="329.51" y="-41.8" font-family="Times,serif" font-size="14.00">CLI &#45;&#45;no&#45;color /</text>
<text xml:space="preserve" text-anchor="middle" x="329.51" y="-25" font-family="Times,serif" font-size="14.00">NO_COLOR 対応 </text>
<text xml:space="preserve" text-anchor="middle" x="329.51" y="-8.2" font-family="Times,serif" font-size="14.00">#180)</text>
</g>
<!-- implement_no_color&#45;&gt;no_color -->
<g id="edge6" class="edge">
<title>implement_no_color&#45;&gt;no_color</title>
<path fill="none" stroke="#28a745" d="M182.81,-82.85C204.5,-76.12 228.14,-68.77 249.95,-62"/>
<polygon fill="#28a745" stroke="#28a745" points="250.87,-65.38 259.39,-59.07 248.8,-58.69 250.87,-65.38"/>
</g>
<!-- json_output&#45;&gt;publish_cli_further -->
<g id="edge7" class="edge">
<title>json_output&#45;&gt;publish_cli_further</title>
<path fill="none" stroke="#28a745" d="M412.6,-198.3C422.92,-196.12 433.53,-193.88 443.98,-191.68"/>
<polygon fill="#28a745" stroke="#28a745" points="444.69,-195.11 453.75,-189.62 443.24,-188.26 444.69,-195.11"/>
</g>
<!-- no_color&#45;&gt;publish_cli_further -->
<g id="edge8" class="edge">
<title>no_color&#45;&gt;publish_cli_further</title>
<path fill="none" stroke="#28a745" d="M398.28,-74.89C403.07,-77.77 407.78,-80.69 412.31,-83.6 434.91,-98.12 458.97,-115.25 479.71,-130.59"/>
<polygon fill="#28a745" stroke="#28a745" points="477.36,-133.2 487.47,-136.37 481.54,-127.59 477.36,-133.2"/>
</g>
</g>
</svg>
