<?xml version="1.0" encoding="UTF-8" standalone="no"?>
<!DOCTYPE svg PUBLIC "-//W3C//DTD SVG 1.1//EN"
 "http://www.w3.org/Graphics/SVG/1.1/DTD/svg11.dtd">
<!-- Generated by graphviz version 15.0.0 (0)
 -->
<!-- Title: PFDSL Pages: 1 -->
<svg width="435pt" height="67pt"
 viewBox="0.00 0.00 435.00 67.00" xmlns="http://www.w3.org/2000/svg" xmlns:xlink="http://www.w3.org/1999/xlink">
<g id="graph0" class="graph" transform="scale(1 1) rotate(0) translate(4 62.83)">
<title>PFDSL</title>
<polygon fill="white" stroke="none" points="-4,4 -4,-62.83 430.64,-62.83 430.64,4 -4,4"/>
<!-- fulfill_order -->
<g id="node1" class="node">
<title>fulfill_order</title>
<g id="a_node1"><a xlink:title="Order Fulfillment&#10;subflow: ./12&#45;subflow&#45;detail.pfdsl">
<ellipse fill="none" stroke="black" cx="211.18" cy="-29.42" rx="81.42" ry="29.42"/>
<text xml:space="preserve" text-anchor="middle" x="211.18" y="-33.62" font-family="Times,serif" font-size="14.00">fulfill_order</text>
<text xml:space="preserve" text-anchor="middle" x="211.18" y="-16.82" font-family="Times,serif" font-size="14.00">Order Fulfillment</text>
</a>
</g>
</g>
<!-- shipped_order -->
<g id="node3" class="node">
<title>shipped_order</title>
<polygon fill="none" stroke="black" stroke-width="2" points="426.64,-50.22 328.6,-50.22 328.6,-8.62 426.64,-8.62 426.64,-50.22"/>
<text xml:space="preserve" text-anchor="middle" x="377.62" y="-33.62" font-family="Times,serif" font-size="14.00">shipped_order</text>
<text xml:space="preserve" text-anchor="middle" x="377.62" y="-16.82" font-family="Times,serif" font-size="14.00">Shipped Order</text>
</g>
<!-- fulfill_order&#45;&gt;shipped_order -->
<g id="edge2" class="edge">
<title>fulfill_order&#45;&gt;shipped_order</title>
<path fill="none" stroke="black" d="M292.96,-29.42C300.83,-29.42 308.72,-29.42 316.35,-29.42"/>
<polygon fill="black" stroke="black" points="316.15,-32.92 326.15,-29.42 316.15,-25.92 316.15,-32.92"/>
</g>
<!-- requirement -->
<g id="node2" class="node">
<title>requirement</title>
<polygon fill="none" stroke="black" stroke-width="2" points="93.76,-50.22 0,-50.22 0,-8.62 93.76,-8.62 93.76,-50.22"/>
<text xml:space="preserve" text-anchor="middle" x="46.88" y="-33.62" font-family="Times,serif" font-size="14.00">requirement</text>
<text xml:space="preserve" text-anchor="middle" x="46.88" y="-16.82" font-family="Times,serif" font-size="14.00">Requirements</text>
</g>
<!-- requirement&#45;&gt;fulfill_order -->
<g id="edge1" class="edge">
<title>requirement&#45;&gt;fulfill_order</title>
<path fill="none" stroke="black" d="M94.39,-29.42C101.84,-29.42 109.77,-29.42 117.85,-29.42"/>
<polygon fill="black" stroke="black" points="117.82,-32.92 127.82,-29.42 117.82,-25.92 117.82,-32.92"/>
</g>
</g>
</svg>
