<?xml version="1.0" encoding="UTF-8" standalone="no"?>
<!DOCTYPE svg PUBLIC "-//W3C//DTD SVG 1.1//EN"
 "http://www.w3.org/Graphics/SVG/1.1/DTD/svg11.dtd">
<!-- Generated by graphviz version 15.0.0 (0)
 -->
<!-- Title: PFDSL Pages: 1 -->
<svg width="495pt" height="86pt"
 viewBox="0.00 0.00 495.00 86.00" xmlns="http://www.w3.org/2000/svg" xmlns:xlink="http://www.w3.org/1999/xlink">
<g id="graph0" class="graph" transform="scale(1 1) rotate(0) translate(4 81.6)">
<title>PFDSL</title>
<polygon fill="white" stroke="none" points="-4,4 -4,-81.6 490.66,-81.6 490.66,4 -4,4"/>
<text xml:space="preserve" text-anchor="middle" x="243.33" y="-61" font-family="Times,serif" font-size="14.00">diff</text>
<text xml:space="preserve" text-anchor="middle" x="243.33" y="-44.2" font-family="Times,serif" font-size="14.00">green = added · red = removed · yellow = changed</text>
<!-- backlog -->
<g id="node1" class="node">
<title>backlog</title>
<polygon fill="#c3e6cb" stroke="#28a745" points="60.32,-36 0,-36 0,0 60.32,0 60.32,-36"/>
<text xml:space="preserve" text-anchor="middle" x="30.16" y="-13.8" font-family="Times,serif" font-size="14.00">backlog</text>
</g>
<!-- develop -->
<g id="node2" class="node">
<title>develop</title>
<ellipse fill="#c3e6cb" stroke="#28a745" cx="137.92" cy="-18" rx="41.61" ry="18"/>
<text xml:space="preserve" text-anchor="middle" x="137.92" y="-13.8" font-family="Times,serif" font-size="14.00">develop</text>
</g>
<!-- backlog&#45;&gt;develop -->
<g id="edge1" class="edge">
<title>backlog&#45;&gt;develop</title>
<path fill="none" stroke="#28a745" d="M60.62,-18C68.18,-18 76.55,-18 84.89,-18"/>
<polygon fill="#28a745" stroke="#28a745" points="84.65,-21.5 94.65,-18 84.65,-14.5 84.65,-21.5"/>
</g>
<!-- prototype -->
<g id="node3" class="node">
<title>prototype</title>
<polygon fill="#c3e6cb" stroke="#28a745" points="285.18,-36 215.53,-36 215.53,0 285.18,0 285.18,-36"/>
<text xml:space="preserve" text-anchor="middle" x="250.36" y="-13.8" font-family="Times,serif" font-size="14.00">prototype</text>
</g>
<!-- develop&#45;&gt;prototype -->
<g id="edge2" class="edge">
<title>develop&#45;&gt;prototype</title>
<path fill="none" stroke="#28a745" d="M179.73,-18C187.57,-18 195.83,-18 203.82,-18"/>
<polygon fill="#28a745" stroke="#28a745" points="203.72,-21.5 213.72,-18 203.72,-14.5 203.72,-21.5"/>
</g>
<!-- review -->
<g id="node5" class="node">
<title>review</title>
<ellipse fill="#c3e6cb" stroke="#28a745" cx="358.49" cy="-18" rx="37.31" ry="18"/>
<text xml:space="preserve" text-anchor="middle" x="358.49" y="-13.8" font-family="Times,serif" font-size="14.00">review</text>
</g>
<!-- prototype&#45;&gt;review -->
<g id="edge3" class="edge">
<title>prototype&#45;&gt;review</title>
<path fill="none" stroke="#28a745" d="M285.52,-18C293.18,-18 301.45,-18 309.56,-18"/>
<polygon fill="#28a745" stroke="#28a745" points="309.31,-21.5 319.31,-18 309.31,-14.5 309.31,-21.5"/>
</g>
<!-- release -->
<g id="node4" class="node">
<title>release</title>
<polygon fill="#c3e6cb" stroke="#28a745" points="486.66,-36 431.8,-36 431.8,0 486.66,0 486.66,-36"/>
<text xml:space="preserve" text-anchor="middle" x="459.23" y="-13.8" font-family="Times,serif" font-size="14.00">release</text>
</g>
<!-- review&#45;&gt;release -->
<g id="edge4" class="edge">
<title>review&#45;&gt;release</title>
<path fill="none" stroke="#28a745" d="M396.26,-18C403.98,-18 412.14,-18 419.91,-18"/>
<polygon fill="#28a745" stroke="#28a745" points="419.8,-21.5 429.8,-18 419.8,-14.5 419.8,-21.5"/>
</g>
</g>
</svg>
