<?xml version="1.0" encoding="UTF-8" standalone="no"?>
<!DOCTYPE svg PUBLIC "-//W3C//DTD SVG 1.1//EN"
 "http://www.w3.org/Graphics/SVG/1.1/DTD/svg11.dtd">
<!-- Generated by graphviz version 15.0.0 (0)
 -->
<!-- Title: PFDSL Pages: 1 -->
<svg width="352pt" height="108pt"
 viewBox="0.00 0.00 352.00 108.00" xmlns="http://www.w3.org/2000/svg" xmlns:xlink="http://www.w3.org/1999/xlink">
<g id="graph0" class="graph" transform="scale(1 1) rotate(0) translate(4 104.43)">
<title>PFDSL</title>
<polygon fill="white" stroke="none" points="-4,4 -4,-104.43 348.31,-104.43 348.31,4 -4,4"/>
<text xml:space="preserve" text-anchor="middle" x="172.16" y="-83.83" font-family="Times,serif" font-size="14.00">diff</text>
<text xml:space="preserve" text-anchor="middle" x="172.16" y="-67.03" font-family="Times,serif" font-size="14.00">green = added · red = removed · yellow = changed</text>
<!-- fulfill -->
<g id="node1" class="node">
<title>fulfill</title>
<ellipse fill="#c3e6cb" stroke="#28a745" cx="198.45" cy="-29.42" rx="55.86" ry="29.42"/>
<text xml:space="preserve" text-anchor="middle" x="198.45" y="-33.62" font-family="Times,serif" font-size="14.00">fulfill</text>
<text xml:space="preserve" text-anchor="middle" x="198.45" y="-16.82" font-family="Times,serif" font-size="14.00">Fulfillment</text>
</g>
<!-- parcel -->
<g id="node3" class="node">
<title>parcel</title>
<polygon fill="#c3e6cb" stroke="#28a745" points="344.31,-50.22 290.31,-50.22 290.31,-8.62 344.31,-8.62 344.31,-50.22"/>
<text xml:space="preserve" text-anchor="middle" x="317.31" y="-33.62" font-family="Times,serif" font-size="14.00">parcel</text>
<text xml:space="preserve" text-anchor="middle" x="317.31" y="-16.82" font-family="Times,serif" font-size="14.00">Parcel</text>
</g>
<!-- fulfill&#45;&gt;parcel -->
<g id="edge1" class="edge">
<title>fulfill&#45;&gt;parcel</title>
<path fill="none" stroke="#28a745" d="M254.8,-29.42C262.85,-29.42 270.99,-29.42 278.58,-29.42"/>
<polygon fill="#28a745" stroke="#28a745" points="278.47,-32.92 288.47,-29.42 278.47,-25.92 278.47,-32.92"/>
</g>
<!-- order -->
<g id="node2" class="node">
<title>order</title>
<polygon fill="#c3e6cb" stroke="#28a745" points="106.59,-50.22 0,-50.22 0,-8.62 106.59,-8.62 106.59,-50.22"/>
<text xml:space="preserve" text-anchor="middle" x="53.29" y="-33.62" font-family="Times,serif" font-size="14.00">order</text>
<text xml:space="preserve" text-anchor="middle" x="53.29" y="-16.82" font-family="Times,serif" font-size="14.00">Customer Order</text>
</g>
<!-- order&#45;&gt;fulfill -->
<g id="edge2" class="edge">
<title>order&#45;&gt;fulfill</title>
<path fill="none" stroke="#28a745" d="M106.79,-29.42C114.71,-29.42 122.96,-29.42 131.13,-29.42"/>
<polygon fill="#28a745" stroke="#28a745" points="131.05,-32.92 141.05,-29.42 131.05,-25.92 131.05,-32.92"/>
</g>
</g>
</svg>
