<?xml version="1.0" encoding="UTF-8" standalone="no"?>
<!DOCTYPE svg PUBLIC "-//W3C//DTD SVG 1.1//EN"
 "http://www.w3.org/Graphics/SVG/1.1/DTD/svg11.dtd">
<!-- Generated by graphviz version 15.1.0 (0)
 -->
<!-- Title: PFDSL Pages: 1 -->
<svg width="1001pt" height="108pt"
 viewBox="0.00 0.00 1001.00 108.00" xmlns="http://www.w3.org/2000/svg" xmlns:xlink="http://www.w3.org/1999/xlink">
<g id="graph0" class="graph" transform="scale(1 1) rotate(0) translate(4 104.43)">
<title>PFDSL</title>
<polygon fill="white" stroke="none" points="-4,4 -4,-104.43 996.95,-104.43 996.95,4 -4,4"/>
<text xml:space="preserve" text-anchor="middle" x="496.48" y="-83.83" font-family="Times,serif" font-size="14.00">Issue 依存フロー — diff</text>
<text xml:space="preserve" text-anchor="middle" x="496.48" y="-67.03" font-family="Times,serif" font-size="14.00">green = added · red = removed · yellow = changed</text>
<!-- first_milestone -->
<g id="node1" class="node">
<title>first_milestone</title>
<polygon fill="#c3e6cb" stroke="#28a745" points="992.95,-50.22 726.55,-50.22 726.55,-8.62 992.95,-8.62 992.95,-50.22"/>
<text xml:space="preserve" text-anchor="middle" x="859.75" y="-33.62" font-family="Times,serif" font-size="14.00">first_milestone</text>
<text xml:space="preserve" text-anchor="middle" x="859.75" y="-16.82" font-family="Times,serif" font-size="14.00">(最初のマイルストーンに置き換える)</text>
</g>
<!-- seed -->
<g id="node2" class="node">
<title>seed</title>
<polygon fill="#c3e6cb" stroke="#28a745" points="396,-50.22 0,-50.22 0,-8.62 396,-8.62 396,-50.22"/>
<text xml:space="preserve" text-anchor="middle" x="198" y="-33.62" font-family="Times,serif" font-size="14.00">seed</text>
<text xml:space="preserve" text-anchor="middle" x="198" y="-16.82" font-family="Times,serif" font-size="14.00">(このプロジェクトの最初の入力 artifact に置き換える)</text>
</g>
<!-- start_work -->
<g id="node3" class="node">
<title>start_work</title>
<ellipse fill="#c3e6cb" stroke="#28a745" cx="561.28" cy="-29.42" rx="129.28" ry="29.42"/>
<text xml:space="preserve" text-anchor="middle" x="561.28" y="-33.62" font-family="Times,serif" font-size="14.00">start_work</text>
<text xml:space="preserve" text-anchor="middle" x="561.28" y="-16.82" font-family="Times,serif" font-size="14.00">(最初の作業プロセスに置き換える)</text>
</g>
<!-- seed&#45;&gt;start_work -->
<g id="edge1" class="edge">
<title>seed&#45;&gt;start_work</title>
<path fill="none" stroke="#28a745" d="M396.29,-29.42C404.47,-29.42 412.61,-29.42 420.63,-29.42"/>
<polygon fill="#28a745" stroke="#28a745" points="420.38,-32.92 430.38,-29.42 420.38,-25.92 420.38,-32.92"/>
</g>
<!-- start_work&#45;&gt;first_milestone -->
<g id="edge2" class="edge">
<title>start_work&#45;&gt;first_milestone</title>
<path fill="none" stroke="#28a745" d="M691.02,-29.42C698.99,-29.42 707.03,-29.42 715.06,-29.42"/>
<polygon fill="#28a745" stroke="#28a745" points="714.87,-32.92 724.87,-29.42 714.87,-25.92 714.87,-32.92"/>
</g>
</g>
</svg>
