<?xml version="1.0" encoding="UTF-8" standalone="no"?>
<!DOCTYPE svg PUBLIC "-//W3C//DTD SVG 1.1//EN"
 "http://www.w3.org/Graphics/SVG/1.1/DTD/svg11.dtd">
<!-- Generated by graphviz version 15.1.0 (0)
 -->
<!-- Title: PFDSL Pages: 1 -->
<svg width="856pt" height="108pt"
 viewBox="0.00 0.00 856.00 108.00" xmlns="http://www.w3.org/2000/svg" xmlns:xlink="http://www.w3.org/1999/xlink">
<g id="graph0" class="graph" transform="scale(1 1) rotate(0) translate(4 104.43)">
<title>PFDSL</title>
<polygon fill="white" stroke="none" points="-4,4 -4,-104.43 852.05,-104.43 852.05,4 -4,4"/>
<text xml:space="preserve" text-anchor="middle" x="424.03" y="-83.83" font-family="Times,serif" font-size="14.00">(プロジェクト名) 運用ワークフロー — diff</text>
<text xml:space="preserve" text-anchor="middle" x="424.03" y="-67.03" font-family="Times,serif" font-size="14.00">green = added · red = removed · yellow = changed</text>
<!-- first_output -->
<g id="node1" class="node">
<title>first_output</title>
<polygon fill="#c3e6cb" stroke="#28a745" points="848.05,-50.22 552.85,-50.22 552.85,-8.62 848.05,-8.62 848.05,-50.22"/>
<text xml:space="preserve" text-anchor="middle" x="700.45" y="-33.62" font-family="Times,serif" font-size="14.00">first_output</text>
<text xml:space="preserve" text-anchor="middle" x="700.45" y="-16.82" font-family="Times,serif" font-size="14.00">(ワークフローの出力成果物に置き換える)</text>
</g>
<!-- first_process -->
<g id="node2" class="node">
<title>first_process</title>
<ellipse fill="#c3e6cb" stroke="#28a745" cx="402.43" cy="-29.42" rx="114.43" ry="29.42"/>
<text xml:space="preserve" text-anchor="middle" x="402.43" y="-33.62" font-family="Times,serif" font-size="14.00">first_process</text>
<text xml:space="preserve" text-anchor="middle" x="402.43" y="-16.82" font-family="Times,serif" font-size="14.00">(最初のプロセスに置き換える)</text>
</g>
<!-- first_process&#45;&gt;first_output -->
<g id="edge1" class="edge">
<title>first_process&#45;&gt;first_output</title>
<path fill="none" stroke="#28a745" d="M517.03,-29.42C524.96,-29.42 533.02,-29.42 541.12,-29.42"/>
<polygon fill="#28a745" stroke="#28a745" points="541.09,-32.92 551.09,-29.42 541.09,-25.92 541.09,-32.92"/>
</g>
<!-- seed_input -->
<g id="node3" class="node">
<title>seed_input</title>
<polygon fill="#c3e6cb" stroke="#28a745" points="252,-50.22 0,-50.22 0,-8.62 252,-8.62 252,-50.22"/>
<text xml:space="preserve" text-anchor="middle" x="126" y="-33.62" font-family="Times,serif" font-size="14.00">seed_input</text>
<text xml:space="preserve" text-anchor="middle" x="126" y="-16.82" font-family="Times,serif" font-size="14.00">(繰り返しのトリガーに置き換える)</text>
</g>
<!-- seed_input&#45;&gt;first_process -->
<g id="edge2" class="edge">
<title>seed_input&#45;&gt;first_process</title>
<path fill="none" stroke="#28a745" d="M252.17,-29.42C260.24,-29.42 268.37,-29.42 276.44,-29.42"/>
<polygon fill="#28a745" stroke="#28a745" points="276.28,-32.92 286.28,-29.42 276.28,-25.92 276.28,-32.92"/>
</g>
</g>
</svg>
