<?xml version="1.0" encoding="UTF-8" standalone="no"?>
<!DOCTYPE svg PUBLIC "-//W3C//DTD SVG 1.1//EN"
 "http://www.w3.org/Graphics/SVG/1.1/DTD/svg11.dtd">
<!-- Generated by graphviz version 15.0.0 (0)
 -->
<!-- Title: PFDSL Pages: 1 -->
<svg width="610pt" height="108pt"
 viewBox="0.00 0.00 610.00 108.00" xmlns="http://www.w3.org/2000/svg" xmlns:xlink="http://www.w3.org/1999/xlink">
<g id="graph0" class="graph" transform="scale(1 1) rotate(0) translate(4 104.43)">
<title>PFDSL</title>
<polygon fill="white" stroke="none" points="-4,4 -4,-104.43 606.29,-104.43 606.29,4 -4,4"/>
<text xml:space="preserve" text-anchor="middle" x="301.15" y="-83.83" font-family="Times,serif" font-size="14.00">Issue 依存フロー（2026&#45;06） — diff</text>
<text xml:space="preserve" text-anchor="middle" x="301.15" y="-67.03" font-family="Times,serif" font-size="14.00">green = added · red = removed · yellow = changed</text>
<!-- address_audit_findings -->
<g id="node1" class="node">
<title>address_audit_findings</title>
<ellipse fill="#f5c6cb" stroke="#dc3545" cx="275.95" cy="-29.42" rx="103.15" ry="29.42"/>
<text xml:space="preserve" text-anchor="middle" x="275.95" y="-33.62" font-family="Times,serif" font-size="14.00">address_audit_findings</text>
<text xml:space="preserve" text-anchor="middle" x="275.95" y="-16.82" font-family="Times,serif" font-size="14.00">監査改善の反映</text>
</g>
<!-- i198_audit_improvements -->
<g id="node3" class="node">
<title>i198_audit_improvements</title>
<polygon fill="#f5c6cb" stroke="#dc3545" points="602.29,-58.62 415.09,-58.62 415.09,-0.22 602.29,-0.22 602.29,-58.62"/>
<text xml:space="preserve" text-anchor="middle" x="508.69" y="-42.02" font-family="Times,serif" font-size="14.00">i198_audit_improvements</text>
<text xml:space="preserve" text-anchor="middle" x="508.69" y="-25.22" font-family="Times,serif" font-size="14.00">監査改善の反映 </text>
<text xml:space="preserve" text-anchor="middle" x="508.69" y="-8.42" font-family="Times,serif" font-size="14.00">#198)</text>
</g>
<!-- address_audit_findings&#45;&gt;i198_audit_improvements -->
<g id="edge1" class="edge">
<title>address_audit_findings&#45;&gt;i198_audit_improvements</title>
<path fill="none" stroke="#dc3545" stroke-dasharray="5,2" d="M379.5,-29.42C387.51,-29.42 395.62,-29.42 403.64,-29.42"/>
<polygon fill="#dc3545" stroke="#dc3545" points="403.41,-32.92 413.41,-29.42 403.41,-25.92 403.41,-32.92"/>
</g>
<!-- cli_tool -->
<g id="node2" class="node">
<title>cli_tool</title>
<polygon fill="#f5f5f5" stroke="#bbbbbb" points="136.8,-50.22 0,-50.22 0,-8.62 136.8,-8.62 136.8,-50.22"/>
<text xml:space="preserve" text-anchor="middle" x="68.4" y="-33.62" font-family="Times,serif" font-size="14.00" fill="#777777">cli_tool</text>
<text xml:space="preserve" text-anchor="middle" x="68.4" y="-16.82" font-family="Times,serif" font-size="14.00" fill="#777777">CLI 実装（現行）</text>
</g>
<!-- cli_tool&#45;&gt;address_audit_findings -->
<g id="edge2" class="edge">
<title>cli_tool&#45;&gt;address_audit_findings</title>
<path fill="none" stroke="#dc3545" stroke-dasharray="5,2" d="M137.27,-29.42C144.98,-29.42 152.99,-29.42 161.09,-29.42"/>
<polygon fill="#dc3545" stroke="#dc3545" points="161.07,-32.92 171.07,-29.42 161.07,-25.92 161.07,-32.92"/>
</g>
</g>
</svg>
