<?xml version="1.0" encoding="UTF-8" standalone="no"?>
<!DOCTYPE svg PUBLIC "-//W3C//DTD SVG 1.1//EN"
 "http://www.w3.org/Graphics/SVG/1.1/DTD/svg11.dtd">
<!-- Generated by graphviz version 15.1.0 (0)
 -->
<!-- Title: PFDSL Pages: 1 -->
<svg width="580pt" height="184pt"
 viewBox="0.00 0.00 580.00 184.00" xmlns="http://www.w3.org/2000/svg" xmlns:xlink="http://www.w3.org/1999/xlink">
<g id="graph0" class="graph" transform="scale(1 1) rotate(0) translate(4 180)">
<title>PFDSL</title>
<polygon fill="white" stroke="none" points="-4,4 -4,-180 575.89,-180 575.89,4 -4,4"/>
<text xml:space="preserve" text-anchor="middle" x="285.95" y="-159.4" font-family="Times,serif" font-size="14.00">Issue 依存フロー（2026&#45;06） — diff</text>
<text xml:space="preserve" text-anchor="middle" x="285.95" y="-142.6" font-family="Times,serif" font-size="14.00">green = added · red = removed · yellow = changed</text>
<!-- introduce_tombstones -->
<g id="node1" class="node">
<title>introduce_tombstones</title>
<ellipse fill="#c3e6cb" stroke="#28a745" cx="285.95" cy="-67.2" rx="98.75" ry="29.42"/>
<text xml:space="preserve" text-anchor="middle" x="285.95" y="-71.4" font-family="Times,serif" font-size="14.00">introduce_tombstones</text>
<text xml:space="preserve" text-anchor="middle" x="285.95" y="-54.6" font-family="Times,serif" font-size="14.00">tombstone 機構導入</text>
</g>
<!-- spec_id_tombstones -->
<g id="node4" class="node">
<title>spec_id_tombstones</title>
<polygon fill="#c3e6cb" stroke="#28a745" points="571.89,-96.4 420.69,-96.4 420.69,-38 571.89,-38 571.89,-96.4"/>
<text xml:space="preserve" text-anchor="middle" x="496.29" y="-79.8" font-family="Times,serif" font-size="14.00">spec_id_tombstones</text>
<text xml:space="preserve" text-anchor="middle" x="496.29" y="-63" font-family="Times,serif" font-size="14.00">仕様ID tombstone</text>
<text xml:space="preserve" text-anchor="middle" x="496.29" y="-46.2" font-family="Times,serif" font-size="14.00">機構</text>
</g>
<!-- introduce_tombstones&#45;&gt;spec_id_tombstones -->
<g id="edge1" class="edge">
<title>introduce_tombstones&#45;&gt;spec_id_tombstones</title>
<path fill="none" stroke="#28a745" d="M385.02,-67.2C393.03,-67.2 401.09,-67.2 409.01,-67.2"/>
<polygon fill="#28a745" stroke="#28a745" points="408.98,-70.7 418.98,-67.2 408.98,-63.7 408.98,-70.7"/>
</g>
<!-- mint_check_tool -->
<g id="node2" class="node">
<title>mint_check_tool</title>
<polygon fill="#ffeeba" stroke="#e0a800" points="151.2,-134.4 0,-134.4 0,-76 151.2,-76 151.2,-134.4"/>
<text xml:space="preserve" text-anchor="middle" x="75.6" y="-117.8" font-family="Times,serif" font-size="14.00">mint_check_tool</text>
<text xml:space="preserve" text-anchor="middle" x="75.6" y="-101" font-family="Times,serif" font-size="14.00">mint&#45;check ツール </text>
<text xml:space="preserve" text-anchor="middle" x="75.6" y="-84.2" font-family="Times,serif" font-size="14.00">#405)</text>
</g>
<!-- mint_check_tool&#45;&gt;introduce_tombstones -->
<g id="edge2" class="edge">
<title>mint_check_tool&#45;&gt;introduce_tombstones</title>
<path fill="none" stroke="#28a745" d="M151.52,-91.53C163.89,-89.28 176.84,-86.92 189.63,-84.59"/>
<polygon fill="#28a745" stroke="#28a745" points="190.09,-88.06 199.3,-82.82 188.84,-81.17 190.09,-88.06"/>
</g>
<!-- spec_id_syntax -->
<g id="node3" class="node">
<title>spec_id_syntax</title>
<polygon fill="#f5f5f5" stroke="#bbbbbb" points="144,-58.4 7.2,-58.4 7.2,0 144,0 144,-58.4"/>
<text xml:space="preserve" text-anchor="middle" x="75.6" y="-41.8" font-family="Times,serif" font-size="14.00" fill="#777777">spec_id_syntax</text>
<text xml:space="preserve" text-anchor="middle" x="75.6" y="-25" font-family="Times,serif" font-size="14.00" fill="#777777">仕様ID構文 ADR +</text>
<text xml:space="preserve" text-anchor="middle" x="75.6" y="-8.2" font-family="Times,serif" font-size="14.00" fill="#777777">最小lint (#328)</text>
</g>
<!-- spec_id_syntax&#45;&gt;introduce_tombstones -->
<g id="edge3" class="edge">
<title>spec_id_syntax&#45;&gt;introduce_tombstones</title>
<path fill="none" stroke="#28a745" d="M144.24,-41.54C158.78,-44.19 174.4,-47.04 189.75,-49.84"/>
<polygon fill="#28a745" stroke="#28a745" points="188.92,-53.24 199.38,-51.59 190.17,-46.36 188.92,-53.24"/>
</g>
</g>
</svg>
