<?xml version="1.0" encoding="UTF-8" standalone="no"?>
<!DOCTYPE svg PUBLIC "-//W3C//DTD SVG 1.1//EN"
 "http://www.w3.org/Graphics/SVG/1.1/DTD/svg11.dtd">
<!-- Generated by graphviz version 15.0.0 (0)
 -->
<!-- Title: PFDSL Pages: 1 -->
<svg width="799pt" height="184pt"
 viewBox="0.00 0.00 799.00 184.00" xmlns="http://www.w3.org/2000/svg" xmlns:xlink="http://www.w3.org/1999/xlink">
<g id="graph0" class="graph" transform="scale(1 1) rotate(0) translate(4 180.22)">
<title>PFDSL</title>
<polygon fill="white" stroke="none" points="-4,4 -4,-180.22 795.15,-180.22 795.15,4 -4,4"/>
<text xml:space="preserve" text-anchor="middle" x="395.58" y="-159.62" font-family="Times,serif" font-size="14.00">Issue 依存フロー（2026&#45;06） — diff</text>
<text xml:space="preserve" text-anchor="middle" x="395.58" y="-142.82" font-family="Times,serif" font-size="14.00">green = added · red = removed · yellow = changed</text>
<!-- cli_tool_v0011 -->
<g id="node1" class="node">
<title>cli_tool_v0011</title>
<polygon fill="#ffeeba" stroke="#e0a800" points="151.2,-58.4 0,-58.4 0,0 151.2,0 151.2,-58.4"/>
<text xml:space="preserve" text-anchor="middle" x="75.6" y="-41.8" font-family="Times,serif" font-size="14.00">cli_tool_v0011</text>
<text xml:space="preserve" text-anchor="middle" x="75.6" y="-25" font-family="Times,serif" font-size="14.00">CLI v0.0</text>
<text xml:space="preserve" text-anchor="middle" x="75.6" y="-8.2" font-family="Times,serif" font-size="14.00">11（次期リリース）</text>
</g>
<!-- cli_tool_v009 -->
<g id="node2" class="node">
<title>cli_tool_v009</title>
<polygon fill="#f5f5f5" stroke="#bbbbbb" points="133.2,-134.4 18,-134.4 18,-76 133.2,-76 133.2,-134.4"/>
<text xml:space="preserve" text-anchor="middle" x="75.6" y="-117.8" font-family="Times,serif" font-size="14.00" fill="#777777">cli_tool_v009</text>
<text xml:space="preserve" text-anchor="middle" x="75.6" y="-101" font-family="Times,serif" font-size="14.00" fill="#777777">CLI v0.0</text>
<text xml:space="preserve" text-anchor="middle" x="75.6" y="-84.2" font-family="Times,serif" font-size="14.00" fill="#777777">9（公開済み）</text>
</g>
<!-- implement_node_sort -->
<g id="node4" class="node">
<title>implement_node_sort</title>
<ellipse fill="#c3e6cb" stroke="#28a745" cx="284.84" cy="-105.2" rx="97.64" ry="29.42"/>
<text xml:space="preserve" text-anchor="middle" x="284.84" y="-109.4" font-family="Times,serif" font-size="14.00">implement_node_sort</text>
<text xml:space="preserve" text-anchor="middle" x="284.84" y="-92.6" font-family="Times,serif" font-size="14.00">node 並べ替え実装</text>
</g>
<!-- cli_tool_v009&#45;&gt;implement_node_sort -->
<g id="edge1" class="edge">
<title>cli_tool_v009&#45;&gt;implement_node_sort</title>
<path fill="none" stroke="#28a745" d="M133.5,-105.2C146.68,-105.2 161.13,-105.2 175.71,-105.2"/>
<polygon fill="#28a745" stroke="#28a745" points="175.34,-108.7 185.34,-105.2 175.34,-101.7 175.34,-108.7"/>
</g>
<!-- i236_node_sort -->
<g id="node3" class="node">
<title>i236_node_sort</title>
<polygon fill="#c3e6cb" stroke="#28a745" points="576.89,-134.4 418.49,-134.4 418.49,-76 576.89,-76 576.89,-134.4"/>
<text xml:space="preserve" text-anchor="middle" x="497.69" y="-117.8" font-family="Times,serif" font-size="14.00">i236_node_sort</text>
<text xml:space="preserve" text-anchor="middle" x="497.69" y="-101" font-family="Times,serif" font-size="14.00">node 定義の並べ替え</text>
<text xml:space="preserve" text-anchor="middle" x="497.69" y="-84.2" font-family="Times,serif" font-size="14.00"> (#236)</text>
</g>
<!-- publish_cli_v0011 -->
<g id="node5" class="node">
<title>publish_cli_v0011</title>
<ellipse fill="#f5f5f5" stroke="#bbbbbb" cx="702.02" cy="-105.2" rx="89.13" ry="29.42"/>
<text xml:space="preserve" text-anchor="middle" x="702.02" y="-109.4" font-family="Times,serif" font-size="14.00" fill="#777777">publish_cli_v0011</text>
<text xml:space="preserve" text-anchor="middle" x="702.02" y="-92.6" font-family="Times,serif" font-size="14.00" fill="#777777">CLI v0.0.11リリース</text>
</g>
<!-- i236_node_sort&#45;&gt;publish_cli_v0011 -->
<g id="edge2" class="edge">
<title>i236_node_sort&#45;&gt;publish_cli_v0011</title>
<path fill="none" stroke="#28a745" d="M577.2,-105.2C585.06,-105.2 593.1,-105.2 601.13,-105.2"/>
<polygon fill="#28a745" stroke="#28a745" points="600.95,-108.7 610.95,-105.2 600.95,-101.7 600.95,-108.7"/>
</g>
<!-- implement_node_sort&#45;&gt;i236_node_sort -->
<g id="edge3" class="edge">
<title>implement_node_sort&#45;&gt;i236_node_sort</title>
<path fill="none" stroke="#28a745" d="M382.94,-105.2C390.85,-105.2 398.83,-105.2 406.69,-105.2"/>
<polygon fill="#28a745" stroke="#28a745" points="406.59,-108.7 416.59,-105.2 406.59,-101.7 406.59,-108.7"/>
</g>
</g>
</svg>
