<?xml version="1.0" encoding="UTF-8" standalone="no"?>
<!DOCTYPE svg PUBLIC "-//W3C//DTD SVG 1.1//EN"
 "http://www.w3.org/Graphics/SVG/1.1/DTD/svg11.dtd">
<!-- Generated by graphviz version 15.0.0 (0)
 -->
<!-- Title: PFDSL Pages: 1 -->
<svg width="324pt" height="108pt"
 viewBox="0.00 0.00 324.00 108.00" xmlns="http://www.w3.org/2000/svg" xmlns:xlink="http://www.w3.org/1999/xlink">
<g id="graph0" class="graph" transform="scale(1 1) rotate(0) translate(4 104.43)">
<title>PFDSL</title>
<polygon fill="white" stroke="none" points="-4,4 -4,-104.43 320.07,-104.43 320.07,4 -4,4"/>
<text xml:space="preserve" text-anchor="middle" x="158.03" y="-83.83" font-family="Times,serif" font-size="14.00">diff</text>
<text xml:space="preserve" text-anchor="middle" x="158.03" y="-67.03" font-family="Times,serif" font-size="14.00">green = added · red = removed · yellow = changed</text>
<!-- build -->
<g id="node1" class="node">
<title>build</title>
<ellipse fill="#c3e6cb" stroke="#28a745" cx="157.24" cy="-29.42" rx="33.32" ry="29.42"/>
<text xml:space="preserve" text-anchor="middle" x="157.24" y="-33.62" font-family="Times,serif" font-size="14.00">build</text>
<text xml:space="preserve" text-anchor="middle" x="157.24" y="-16.82" font-family="Times,serif" font-size="14.00">Build</text>
</g>
<!-- output -->
<g id="node2" class="node">
<title>output</title>
<polygon fill="#c3e6cb" stroke="#28a745" points="316.07,-50.22 226.56,-50.22 226.56,-8.62 316.07,-8.62 316.07,-50.22"/>
<text xml:space="preserve" text-anchor="middle" x="271.31" y="-33.62" font-family="Times,serif" font-size="14.00">output</text>
<text xml:space="preserve" text-anchor="middle" x="271.31" y="-16.82" font-family="Times,serif" font-size="14.00">Build Output</text>
</g>
<!-- build&#45;&gt;output -->
<g id="edge1" class="edge">
<title>build&#45;&gt;output</title>
<path fill="none" stroke="#28a745" d="M190.96,-29.42C198.43,-29.42 206.56,-29.42 214.69,-29.42"/>
<polygon fill="#28a745" stroke="#28a745" points="214.58,-32.92 224.58,-29.42 214.58,-25.92 214.58,-32.92"/>
</g>
<!-- source -->
<g id="node3" class="node">
<title>source</title>
<polygon fill="#c3e6cb" stroke="#28a745" points="87.93,-50.22 0,-50.22 0,-8.62 87.93,-8.62 87.93,-50.22"/>
<text xml:space="preserve" text-anchor="middle" x="43.96" y="-33.62" font-family="Times,serif" font-size="14.00">source</text>
<text xml:space="preserve" text-anchor="middle" x="43.96" y="-16.82" font-family="Times,serif" font-size="14.00">Source Code</text>
</g>
<!-- source&#45;&gt;build -->
<g id="edge2" class="edge">
<title>source&#45;&gt;build</title>
<path fill="none" stroke="#28a745" d="M88.31,-29.42C96.18,-29.42 104.4,-29.42 112.29,-29.42"/>
<polygon fill="#28a745" stroke="#28a745" points="112.02,-32.92 122.02,-29.42 112.02,-25.92 112.02,-32.92"/>
</g>
</g>
</svg>
