<?xml version="1.0" encoding="UTF-8" standalone="no"?>
<!DOCTYPE svg PUBLIC "-//W3C//DTD SVG 1.1//EN"
 "http://www.w3.org/Graphics/SVG/1.1/DTD/svg11.dtd">
<!-- Generated by graphviz version 15.0.0 (0)
 -->
<!-- Title: PFDSL Pages: 1 -->
<svg width="612pt" height="184pt"
 viewBox="0.00 0.00 612.00 184.00" xmlns="http://www.w3.org/2000/svg" xmlns:xlink="http://www.w3.org/1999/xlink">
<g id="graph0" class="graph" transform="scale(1 1) rotate(0) translate(4 180)">
<title>PFDSL</title>
<polygon fill="white" stroke="none" points="-4,4 -4,-180 607.95,-180 607.95,4 -4,4"/>
<text xml:space="preserve" text-anchor="middle" x="301.98" y="-159.4" font-family="Times,serif" font-size="14.00">Issue 依存フロー（2026&#45;06） — diff</text>
<text xml:space="preserve" text-anchor="middle" x="301.98" y="-142.6" font-family="Times,serif" font-size="14.00">green = added · red = removed · yellow = changed</text>
<!-- i236_node_sort -->
<g id="node1" class="node">
<title>i236_node_sort</title>
<polygon fill="#f5c6cb" stroke="#dc3545" points="389.69,-134.4 231.29,-134.4 231.29,-76 389.69,-76 389.69,-134.4"/>
<text xml:space="preserve" text-anchor="middle" x="310.49" y="-117.8" font-family="Times,serif" font-size="14.00">i236_node_sort</text>
<text xml:space="preserve" text-anchor="middle" x="310.49" y="-101" font-family="Times,serif" font-size="14.00">node 定義の並べ替え</text>
<text xml:space="preserve" text-anchor="middle" x="310.49" y="-84.2" font-family="Times,serif" font-size="14.00"> (#236)</text>
</g>
<!-- publish_cli_v0011 -->
<g id="node4" class="node">
<title>publish_cli_v0011</title>
<ellipse fill="#f5f5f5" stroke="#bbbbbb" cx="514.82" cy="-67.2" rx="89.13" ry="29.42"/>
<text xml:space="preserve" text-anchor="middle" x="514.82" y="-71.4" font-family="Times,serif" font-size="14.00" fill="#777777">publish_cli_v0011</text>
<text xml:space="preserve" text-anchor="middle" x="514.82" y="-54.6" font-family="Times,serif" font-size="14.00" fill="#777777">CLI v0.0.11リリース</text>
</g>
<!-- i236_node_sort&#45;&gt;publish_cli_v0011 -->
<g id="edge1" class="edge">
<title>i236_node_sort&#45;&gt;publish_cli_v0011</title>
<path fill="none" stroke="#dc3545" stroke-dasharray="5,2" d="M390,-90.45C401.62,-88.27 413.66,-86.01 425.46,-83.8"/>
<polygon fill="#dc3545" stroke="#dc3545" points="426.01,-87.25 435.19,-81.97 424.72,-80.37 426.01,-87.25"/>
</g>
<!-- implement_node_sort -->
<g id="node2" class="node">
<title>implement_node_sort</title>
<ellipse fill="#f5f5f5" stroke="#bbbbbb" cx="97.64" cy="-67.2" rx="97.64" ry="29.42"/>
<text xml:space="preserve" text-anchor="middle" x="97.64" y="-71.4" font-family="Times,serif" font-size="14.00" fill="#777777">implement_node_sort</text>
<text xml:space="preserve" text-anchor="middle" x="97.64" y="-54.6" font-family="Times,serif" font-size="14.00" fill="#777777">node 並べ替え実装</text>
</g>
<!-- implement_node_sort&#45;&gt;i236_node_sort -->
<g id="edge2" class="edge">
<title>implement_node_sort&#45;&gt;i236_node_sort</title>
<path fill="none" stroke="#dc3545" stroke-dasharray="5,2" d="M182.28,-82.27C194.6,-84.49 207.34,-86.79 219.78,-89.03"/>
<polygon fill="#dc3545" stroke="#dc3545" points="219.15,-92.47 229.61,-90.8 220.39,-85.59 219.15,-92.47"/>
</g>
<!-- node_sort -->
<g id="node3" class="node">
<title>node_sort</title>
<polygon fill="#c3e6cb" stroke="#28a745" points="389.69,-58.4 231.29,-58.4 231.29,0 389.69,0 389.69,-58.4"/>
<text xml:space="preserve" text-anchor="middle" x="310.49" y="-41.8" font-family="Times,serif" font-size="14.00">node_sort</text>
<text xml:space="preserve" text-anchor="middle" x="310.49" y="-25" font-family="Times,serif" font-size="14.00">node 定義の並べ替え</text>
<text xml:space="preserve" text-anchor="middle" x="310.49" y="-8.2" font-family="Times,serif" font-size="14.00"> (#236)</text>
</g>
<!-- implement_node_sort&#45;&gt;node_sort -->
<g id="edge3" class="edge">
<title>implement_node_sort&#45;&gt;node_sort</title>
<path fill="none" stroke="#28a745" d="M182.28,-52.13C194.6,-49.91 207.34,-47.61 219.78,-45.37"/>
<polygon fill="#28a745" stroke="#28a745" points="220.39,-48.81 229.61,-43.6 219.15,-41.93 220.39,-48.81"/>
</g>
<!-- node_sort&#45;&gt;publish_cli_v0011 -->
<g id="edge4" class="edge">
<title>node_sort&#45;&gt;publish_cli_v0011</title>
<path fill="none" stroke="#28a745" d="M390,-43.95C401.62,-46.13 413.66,-48.39 425.46,-50.6"/>
<polygon fill="#28a745" stroke="#28a745" points="424.72,-54.03 435.19,-52.43 426.01,-47.15 424.72,-54.03"/>
</g>
</g>
</svg>
