<?xml version="1.0" encoding="UTF-8" standalone="no"?>
<!DOCTYPE svg PUBLIC "-//W3C//DTD SVG 1.1//EN"
 "http://www.w3.org/Graphics/SVG/1.1/DTD/svg11.dtd">
<!-- Generated by graphviz version 15.1.0 (0)
 -->
<!-- Title: PFDSL Pages: 1 -->
<svg width="1032pt" height="296pt"
 viewBox="0.00 0.00 1032.00 296.00" xmlns="http://www.w3.org/2000/svg" xmlns:xlink="http://www.w3.org/1999/xlink">
<g id="graph0" class="graph" transform="scale(1 1) rotate(0) translate(4 292.1)">
<title>PFDSL</title>
<polygon fill="white" stroke="none" points="-4,4 -4,-292.1 1027.94,-292.1 1027.94,4 -4,4"/>
<text xml:space="preserve" text-anchor="middle" x="511.97" y="-271.5" font-family="Times,serif" font-size="14.00">Issue 依存フロー（2026&#45;06） — diff</text>
<text xml:space="preserve" text-anchor="middle" x="511.97" y="-254.7" font-family="Times,serif" font-size="14.00">green = added · red = removed · yellow = changed</text>
<!-- cli_tool_v0014 -->
<g id="node1" class="node">
<title>cli_tool_v0014</title>
<polygon fill="#ffeeba" stroke="#e0a800" points="122.4,-110.53 0,-110.53 0,-52.13 122.4,-52.13 122.4,-110.53"/>
<text xml:space="preserve" text-anchor="middle" x="61.2" y="-93.93" font-family="Times,serif" font-size="14.00">cli_tool_v0014</text>
<text xml:space="preserve" text-anchor="middle" x="61.2" y="-77.13" font-family="Times,serif" font-size="14.00">CLI v0.0</text>
<text xml:space="preserve" text-anchor="middle" x="61.2" y="-60.33" font-family="Times,serif" font-size="14.00">14（公開済み）</text>
</g>
<!-- implement_statusset_impact -->
<g id="node5" class="node">
<title>implement_statusset_impact</title>
<ellipse fill="#c3e6cb" stroke="#28a745" cx="282.44" cy="-193.33" rx="124.04" ry="53.17"/>
<text xml:space="preserve" text-anchor="middle" x="282.44" y="-214.33" font-family="Times,serif" font-size="14.00">implement_statusset_impact</text>
<text xml:space="preserve" text-anchor="middle" x="282.44" y="-197.53" font-family="Times,serif" font-size="14.00">status&#45;set</text>
<text xml:space="preserve" text-anchor="middle" x="282.44" y="-180.73" font-family="Times,serif" font-size="14.00">解放プロセス報告実</text>
<text xml:space="preserve" text-anchor="middle" x="282.44" y="-163.93" font-family="Times,serif" font-size="14.00">装</text>
</g>
<!-- cli_tool_v0014&#45;&gt;implement_statusset_impact -->
<g id="edge1" class="edge">
<title>cli_tool_v0014&#45;&gt;implement_statusset_impact</title>
<path fill="none" stroke="#28a745" d="M118.86,-110.92C131.83,-117.66 145.58,-124.77 158.4,-131.33 168.91,-136.71 179.95,-142.32 190.92,-147.87"/>
<polygon fill="#28a745" stroke="#28a745" points="189.1,-150.87 199.6,-152.27 192.26,-144.63 189.1,-150.87"/>
</g>
<!-- implement_symmetry_hint -->
<g id="node6" class="node">
<title>implement_symmetry_hint</title>
<ellipse fill="#c3e6cb" stroke="#28a745" cx="282.44" cy="-81.33" rx="118.55" ry="41.3"/>
<text xml:space="preserve" text-anchor="middle" x="282.44" y="-93.93" font-family="Times,serif" font-size="14.00">implement_symmetry_hint</text>
<text xml:space="preserve" text-anchor="middle" x="282.44" y="-77.13" font-family="Times,serif" font-size="14.00">audit 同種対称性ヒン</text>
<text xml:space="preserve" text-anchor="middle" x="282.44" y="-60.33" font-family="Times,serif" font-size="14.00">ト実装</text>
</g>
<!-- cli_tool_v0014&#45;&gt;implement_symmetry_hint -->
<g id="edge2" class="edge">
<title>cli_tool_v0014&#45;&gt;implement_symmetry_hint</title>
<path fill="none" stroke="#28a745" d="M122.69,-81.33C132.09,-81.33 142.1,-81.33 152.34,-81.33"/>
<polygon fill="#28a745" stroke="#28a745" points="152.02,-84.83 162.02,-81.33 152.02,-77.83 152.02,-84.83"/>
</g>
<!-- publish_cli_v0015 -->
<g id="node7" class="node">
<title>publish_cli_v0015</title>
<ellipse fill="#c3e6cb" stroke="#28a745" cx="740.4" cy="-81.33" rx="89.13" ry="29.42"/>
<text xml:space="preserve" text-anchor="middle" x="740.4" y="-85.53" font-family="Times,serif" font-size="14.00">publish_cli_v0015</text>
<text xml:space="preserve" text-anchor="middle" x="740.4" y="-68.73" font-family="Times,serif" font-size="14.00">CLI v0.0.15リリース</text>
</g>
<!-- cli_tool_v0014&#45;&gt;publish_cli_v0015 -->
<g id="edge3" class="edge">
<title>cli_tool_v0014&#45;&gt;publish_cli_v0015</title>
<path fill="none" stroke="#28a745" d="M108.37,-51.64C123.68,-43.38 141.21,-35.53 158.4,-31.33 355.66,16.88 415.8,3.66 615.27,-34.33 636,-38.27 657.77,-45.41 677.2,-52.94"/>
<polygon fill="#28a745" stroke="#28a745" points="675.74,-56.13 686.32,-56.59 678.34,-49.63 675.74,-56.13"/>
</g>
<!-- cli_tool_v0015 -->
<g id="node2" class="node">
<title>cli_tool_v0015</title>
<polygon fill="#c3e6cb" stroke="#28a745" points="1023.94,-102.13 865.54,-102.13 865.54,-60.53 1023.94,-60.53 1023.94,-102.13"/>
<text xml:space="preserve" text-anchor="middle" x="944.74" y="-85.53" font-family="Times,serif" font-size="14.00">cli_tool_v0015</text>
<text xml:space="preserve" text-anchor="middle" x="944.74" y="-68.73" font-family="Times,serif" font-size="14.00">CLI v0.0.15（次期）</text>
</g>
<!-- i291_statusset_impact -->
<g id="node3" class="node">
<title>i291_statusset_impact</title>
<polygon fill="#c3e6cb" stroke="#28a745" points="615.27,-220.93 442.47,-220.93 442.47,-145.73 615.27,-145.73 615.27,-220.93"/>
<text xml:space="preserve" text-anchor="middle" x="528.87" y="-204.33" font-family="Times,serif" font-size="14.00">i291_statusset_impact</text>
<text xml:space="preserve" text-anchor="middle" x="528.87" y="-187.53" font-family="Times,serif" font-size="14.00">status&#45;set</text>
<text xml:space="preserve" text-anchor="middle" x="528.87" y="-170.73" font-family="Times,serif" font-size="14.00">解放プロセス報告 </text>
<text xml:space="preserve" text-anchor="middle" x="528.87" y="-153.93" font-family="Times,serif" font-size="14.00">#291)</text>
</g>
<!-- i291_statusset_impact&#45;&gt;publish_cli_v0015 -->
<g id="edge4" class="edge">
<title>i291_statusset_impact&#45;&gt;publish_cli_v0015</title>
<path fill="none" stroke="#28a745" d="M607.89,-145.34C631.4,-133.9 656.83,-121.52 679,-110.73"/>
<polygon fill="#28a745" stroke="#28a745" points="680.45,-113.92 687.91,-106.39 677.39,-107.62 680.45,-113.92"/>
</g>
<!-- i292_symmetry_hint -->
<g id="node4" class="node">
<title>i292_symmetry_hint</title>
<polygon fill="#c3e6cb" stroke="#28a745" points="604.47,-118.93 453.27,-118.93 453.27,-43.73 604.47,-43.73 604.47,-118.93"/>
<text xml:space="preserve" text-anchor="middle" x="528.87" y="-102.33" font-family="Times,serif" font-size="14.00">i292_symmetry_hint</text>
<text xml:space="preserve" text-anchor="middle" x="528.87" y="-85.53" font-family="Times,serif" font-size="14.00">check &#45;&#45;audit</text>
<text xml:space="preserve" text-anchor="middle" x="528.87" y="-68.73" font-family="Times,serif" font-size="14.00">同種対称性ヒント </text>
<text xml:space="preserve" text-anchor="middle" x="528.87" y="-51.93" font-family="Times,serif" font-size="14.00">#292)</text>
</g>
<!-- i292_symmetry_hint&#45;&gt;publish_cli_v0015 -->
<g id="edge5" class="edge">
<title>i292_symmetry_hint&#45;&gt;publish_cli_v0015</title>
<path fill="none" stroke="#28a745" d="M604.93,-81.33C616.23,-81.33 628.03,-81.33 639.75,-81.33"/>
<polygon fill="#28a745" stroke="#28a745" points="639.43,-84.83 649.43,-81.33 639.43,-77.83 639.43,-84.83"/>
</g>
<!-- implement_statusset_impact&#45;&gt;i291_statusset_impact -->
<g id="edge6" class="edge">
<title>implement_statusset_impact&#45;&gt;i291_statusset_impact</title>
<path fill="none" stroke="#28a745" d="M406.37,-188.3C414.61,-187.96 422.85,-187.62 430.93,-187.29"/>
<polygon fill="#28a745" stroke="#28a745" points="430.88,-190.8 440.73,-186.89 430.6,-183.8 430.88,-190.8"/>
</g>
<!-- implement_symmetry_hint&#45;&gt;i292_symmetry_hint -->
<g id="edge7" class="edge">
<title>implement_symmetry_hint&#45;&gt;i292_symmetry_hint</title>
<path fill="none" stroke="#28a745" d="M401.36,-81.33C414.96,-81.33 428.62,-81.33 441.69,-81.33"/>
<polygon fill="#28a745" stroke="#28a745" points="441.48,-84.83 451.48,-81.33 441.48,-77.83 441.48,-84.83"/>
</g>
<!-- publish_cli_v0015&#45;&gt;cli_tool_v0015 -->
<g id="edge8" class="edge">
<title>publish_cli_v0015&#45;&gt;cli_tool_v0015</title>
<path fill="none" stroke="#28a745" d="M829.86,-81.33C837.88,-81.33 846.01,-81.33 854.04,-81.33"/>
<polygon fill="#28a745" stroke="#28a745" points="853.8,-84.83 863.8,-81.33 853.8,-77.83 853.8,-84.83"/>
</g>
</g>
</svg>
