<?xml version="1.0" encoding="UTF-8" standalone="no"?>
<!DOCTYPE svg PUBLIC "-//W3C//DTD SVG 1.1//EN"
 "http://www.w3.org/Graphics/SVG/1.1/DTD/svg11.dtd">
<!-- Generated by graphviz version 15.0.0 (0)
 -->
<!-- Title: PFDSL Pages: 1 -->
<svg width="313pt" height="211pt"
 viewBox="0.00 0.00 313.00 211.00" xmlns="http://www.w3.org/2000/svg" xmlns:xlink="http://www.w3.org/1999/xlink">
<g id="graph0" class="graph" transform="scale(1 1) rotate(0) translate(4 207.2)">
<title>PFDSL</title>
<polygon fill="white" stroke="none" points="-4,4 -4,-207.2 308.8,-207.2 308.8,4 -4,4"/>
<text xml:space="preserve" text-anchor="middle" x="152.4" y="-186.6" font-family="Times,serif" font-size="14.00">diff</text>
<text xml:space="preserve" text-anchor="middle" x="152.4" y="-169.8" font-family="Times,serif" font-size="14.00">green = added · red = removed · yellow = changed</text>
<!-- raw_data -->
<g id="node1" class="node">
<title>raw_data</title>
<polygon fill="#ffeeba" stroke="#e0a800" points="188.2,-41.6 116.61,-41.6 116.61,0 188.2,0 188.2,-41.6"/>
<text xml:space="preserve" text-anchor="middle" x="152.4" y="-25" font-family="Times,serif" font-size="14.00">raw_data</text>
<text xml:space="preserve" text-anchor="middle" x="152.4" y="-8.2" font-family="Times,serif" font-size="14.00">Raw Data</text>
</g>
<!-- report -->
<g id="node2" class="node">
<title>report</title>
<polygon fill="#ffeeba" stroke="#e0a800" points="205.32,-101.6 99.49,-101.6 99.49,-60 205.32,-60 205.32,-101.6"/>
<text xml:space="preserve" text-anchor="middle" x="152.4" y="-85" font-family="Times,serif" font-size="14.00">report</text>
<text xml:space="preserve" text-anchor="middle" x="152.4" y="-68.2" font-family="Times,serif" font-size="14.00">Monthly Report</text>
</g>
<!-- summary -->
<g id="node3" class="node">
<title>summary</title>
<polygon fill="#ffeeba" stroke="#e0a800" points="217.36,-161.6 87.45,-161.6 87.45,-120 217.36,-120 217.36,-161.6"/>
<text xml:space="preserve" text-anchor="middle" x="152.4" y="-145" font-family="Times,serif" font-size="14.00">summary</text>
<text xml:space="preserve" text-anchor="middle" x="152.4" y="-128.2" font-family="Times,serif" font-size="14.00">Executive Summary</text>
</g>
</g>
</svg>
