<?xml version="1.0" encoding="UTF-8" standalone="no"?>
<!DOCTYPE svg PUBLIC "-//W3C//DTD SVG 1.1//EN"
 "http://www.w3.org/Graphics/SVG/1.1/DTD/svg11.dtd">
<!-- Generated by graphviz version 15.0.0 (0)
 -->
<!-- Title: PFDSL Pages: 1 -->
<svg width="313pt" height="260pt"
 viewBox="0.00 0.00 313.00 260.00" xmlns="http://www.w3.org/2000/svg" xmlns:xlink="http://www.w3.org/1999/xlink">
<g id="graph0" class="graph" transform="scale(1 1) rotate(0) translate(4 256)">
<title>PFDSL</title>
<polygon fill="white" stroke="none" points="-4,4 -4,-256 308.8,-256 308.8,4 -4,4"/>
<text xml:space="preserve" text-anchor="middle" x="152.4" y="-235.4" font-family="Times,serif" font-size="14.00">Issue 依存フロー（2026&#45;06） — diff</text>
<text xml:space="preserve" text-anchor="middle" x="152.4" y="-218.6" font-family="Times,serif" font-size="14.00">green = added · red = removed · yellow = changed</text>
<!-- cli_tool_v0011 -->
<g id="node1" class="node">
<title>cli_tool_v0011</title>
<polygon fill="#ffeeba" stroke="#e0a800" points="213.6,-58.4 91.2,-58.4 91.2,0 213.6,0 213.6,-58.4"/>
<text xml:space="preserve" text-anchor="middle" x="152.4" y="-41.8" font-family="Times,serif" font-size="14.00">cli_tool_v0011</text>
<text xml:space="preserve" text-anchor="middle" x="152.4" y="-25" font-family="Times,serif" font-size="14.00">CLI v0.0</text>
<text xml:space="preserve" text-anchor="middle" x="152.4" y="-8.2" font-family="Times,serif" font-size="14.00">11（公開済み）</text>
</g>
<!-- ext_v0014 -->
<g id="node2" class="node">
<title>ext_v0014</title>
<polygon fill="#ffeeba" stroke="#e0a800" points="213.6,-134.4 91.2,-134.4 91.2,-76 213.6,-76 213.6,-134.4"/>
<text xml:space="preserve" text-anchor="middle" x="152.4" y="-117.8" font-family="Times,serif" font-size="14.00">ext_v0014</text>
<text xml:space="preserve" text-anchor="middle" x="152.4" y="-101" font-family="Times,serif" font-size="14.00">extension v0.0</text>
<text xml:space="preserve" text-anchor="middle" x="152.4" y="-84.2" font-family="Times,serif" font-size="14.00">14（公開済み）</text>
</g>
<!-- i252_published_libraries -->
<g id="node3" class="node">
<title>i252_published_libraries</title>
<polygon fill="#ffeeba" stroke="#e0a800" points="249.6,-210.4 55.2,-210.4 55.2,-152 249.6,-152 249.6,-210.4"/>
<text xml:space="preserve" text-anchor="middle" x="152.4" y="-193.8" font-family="Times,serif" font-size="14.00">i252_published_libraries</text>
<text xml:space="preserve" text-anchor="middle" x="152.4" y="-177" font-family="Times,serif" font-size="14.00">npm ライブラリ公開 </text>
<text xml:space="preserve" text-anchor="middle" x="152.4" y="-160.2" font-family="Times,serif" font-size="14.00">(#252)</text>
</g>
</g>
</svg>
