<?xml version="1.0" encoding="UTF-8" standalone="no"?>
<!DOCTYPE svg PUBLIC "-//W3C//DTD SVG 1.1//EN"
 "http://www.w3.org/Graphics/SVG/1.1/DTD/svg11.dtd">
<!-- Generated by graphviz version 15.1.0 (0)
 -->
<!-- Title: PFDSL Pages: 1 -->
<svg width="351pt" height="223pt"
 viewBox="0.00 0.00 351.00 223.00" xmlns="http://www.w3.org/2000/svg" xmlns:xlink="http://www.w3.org/1999/xlink">
<g id="graph0" class="graph" transform="scale(1 1) rotate(0) translate(4 219.22)">
<title>PFDSL</title>
<polygon fill="white" stroke="none" points="-4,4 -4,-219.22 347.47,-219.22 347.47,4 -4,4"/>
<text xml:space="preserve" text-anchor="middle" x="171.74" y="-198.62" font-family="Times,serif" font-size="14.00">pfdsl開発ワークフロー — diff</text>
<text xml:space="preserve" text-anchor="middle" x="171.74" y="-181.82" font-family="Times,serif" font-size="14.00">green = added · red = removed · yellow = changed</text>
<!-- bindings_pfd_ops -->
<g id="node1" class="node">
<title>bindings_pfd_ops</title>
<polygon fill="#c3e6cb" stroke="#28a745" points="336.27,-134.4 199.47,-134.4 199.47,-76 336.27,-76 336.27,-134.4"/>
<text xml:space="preserve" text-anchor="middle" x="267.87" y="-117.8" font-family="Times,serif" font-size="14.00">bindings_pfd_ops</text>
<text xml:space="preserve" text-anchor="middle" x="267.87" y="-101" font-family="Times,serif" font-size="14.00">pfd&#45;ops</text>
<text xml:space="preserve" text-anchor="middle" x="267.87" y="-84.2" font-family="Times,serif" font-size="14.00">バインディング</text>
</g>
<!-- develop -->
<g id="node3" class="node">
<title>develop</title>
<ellipse fill="#f5f5f5" stroke="#bbbbbb" cx="78.14" cy="-144.2" rx="78.14" ry="29.42"/>
<text xml:space="preserve" text-anchor="middle" x="78.14" y="-148.4" font-family="Times,serif" font-size="14.00" fill="#777777">develop</text>
<text xml:space="preserve" text-anchor="middle" x="78.14" y="-131.6" font-family="Times,serif" font-size="14.00" fill="#777777">ツールチェーン開発</text>
</g>
<!-- bindings_pfd_ops&#45;&gt;develop -->
<g id="edge3" class="edge">
<title>bindings_pfd_ops&#45;&gt;develop</title>
<path fill="none" stroke="#28a745" stroke-dasharray="5,2" d="M199.06,-119.29C185.87,-122.03 171.93,-124.92 158.41,-127.73"/>
<polygon fill="#28a745" stroke="#28a745" points="157.74,-124.3 148.66,-129.76 159.16,-131.15 157.74,-124.3"/>
</g>
<!-- bindings_pfd_retro -->
<g id="node2" class="node">
<title>bindings_pfd_retro</title>
<polygon fill="#c3e6cb" stroke="#28a745" points="343.47,-58.4 192.27,-58.4 192.27,0 343.47,0 343.47,-58.4"/>
<text xml:space="preserve" text-anchor="middle" x="267.87" y="-41.8" font-family="Times,serif" font-size="14.00">bindings_pfd_retro</text>
<text xml:space="preserve" text-anchor="middle" x="267.87" y="-25" font-family="Times,serif" font-size="14.00">pfd&#45;retro</text>
<text xml:space="preserve" text-anchor="middle" x="267.87" y="-8.2" font-family="Times,serif" font-size="14.00">バインディング</text>
</g>
<!-- bindings_pfd_retro&#45;&gt;develop -->
<g id="edge4" class="edge">
<title>bindings_pfd_retro&#45;&gt;develop</title>
<path fill="none" stroke="#28a745" stroke-dasharray="5,2" d="M204.8,-58.69C200.45,-61.4 196.23,-64.24 192.27,-67.2 173.63,-81.13 174.93,-91.3 156.27,-105.2 151.03,-109.11 145.34,-112.81 139.5,-116.27"/>
<polygon fill="#28a745" stroke="#28a745" points="137.91,-113.15 130.91,-121.11 141.34,-119.25 137.91,-113.15"/>
</g>
<!-- distill_ops -->
<g id="node4" class="node">
<title>distill_ops</title>
<ellipse fill="#f5f5f5" stroke="#bbbbbb" cx="78.14" cy="-67.2" rx="78.14" ry="29.42"/>
<text xml:space="preserve" text-anchor="middle" x="78.14" y="-71.4" font-family="Times,serif" font-size="14.00" fill="#777777">distill_ops</text>
<text xml:space="preserve" text-anchor="middle" x="78.14" y="-54.6" font-family="Times,serif" font-size="14.00" fill="#777777">運用プロトコル蒸留</text>
</g>
<!-- distill_ops&#45;&gt;bindings_pfd_ops -->
<g id="edge1" class="edge">
<title>distill_ops&#45;&gt;bindings_pfd_ops</title>
<path fill="none" stroke="#28a745" d="M147.71,-81.08C160.8,-83.73 174.6,-86.52 187.99,-89.23"/>
<polygon fill="#28a745" stroke="#28a745" points="187.13,-92.63 197.63,-91.18 188.52,-85.77 187.13,-92.63"/>
</g>
<!-- distill_ops&#45;&gt;bindings_pfd_retro -->
<g id="edge2" class="edge">
<title>distill_ops&#45;&gt;bindings_pfd_retro</title>
<path fill="none" stroke="#28a745" d="M147.71,-53.32C158.47,-51.14 169.71,-48.87 180.81,-46.62"/>
<polygon fill="#28a745" stroke="#28a745" points="181.24,-50.1 190.35,-44.69 179.85,-43.24 181.24,-50.1"/>
</g>
</g>
</svg>
