<?xml version="1.0" encoding="UTF-8" standalone="no"?>
<!DOCTYPE svg PUBLIC "-//W3C//DTD SVG 1.1//EN"
 "http://www.w3.org/Graphics/SVG/1.1/DTD/svg11.dtd">
<!-- Generated by graphviz version 15.1.0 (0)
 -->
<!-- Title: PFDSL Pages: 1 -->
<svg width="665pt" height="184pt"
 viewBox="0.00 0.00 665.00 184.00" xmlns="http://www.w3.org/2000/svg" xmlns:xlink="http://www.w3.org/1999/xlink">
<g id="graph0" class="graph" transform="scale(1 1) rotate(0) translate(4 180)">
<title>PFDSL</title>
<polygon fill="white" stroke="none" points="-4,4 -4,-180 660.62,-180 660.62,4 -4,4"/>
<text xml:space="preserve" text-anchor="middle" x="328.31" y="-159.4" font-family="Times,serif" font-size="14.00">Issue 依存フロー（2026&#45;06） — diff</text>
<text xml:space="preserve" text-anchor="middle" x="328.31" y="-142.6" font-family="Times,serif" font-size="14.00">green = added · red = removed · yellow = changed</text>
<!-- i297_recode -->
<g id="node1" class="node">
<title>i297_recode</title>
<polygon fill="#f5c6cb" stroke="#dc3545" points="398.95,-134.4 247.75,-134.4 247.75,-76 398.95,-76 398.95,-134.4"/>
<text xml:space="preserve" text-anchor="middle" x="323.35" y="-117.8" font-family="Times,serif" font-size="14.00">i297_recode</text>
<text xml:space="preserve" text-anchor="middle" x="323.35" y="-101" font-family="Times,serif" font-size="14.00">V025 二重割当解消 </text>
<text xml:space="preserve" text-anchor="middle" x="323.35" y="-84.2" font-family="Times,serif" font-size="14.00">#297)</text>
</g>
<!-- implement_diag_registry -->
<g id="node2" class="node">
<title>implement_diag_registry</title>
<ellipse fill="#f5f5f5" stroke="#bbbbbb" cx="545.79" cy="-67.2" rx="110.84" ry="41.3"/>
<text xml:space="preserve" text-anchor="middle" x="545.79" y="-79.8" font-family="Times,serif" font-size="14.00" fill="#777777">implement_diag_registry</text>
<text xml:space="preserve" text-anchor="middle" x="545.79" y="-63" font-family="Times,serif" font-size="14.00" fill="#777777">診断コードレジスト</text>
<text xml:space="preserve" text-anchor="middle" x="545.79" y="-46.2" font-family="Times,serif" font-size="14.00" fill="#777777">リ整備</text>
</g>
<!-- i297_recode&#45;&gt;implement_diag_registry -->
<g id="edge1" class="edge">
<title>i297_recode&#45;&gt;implement_diag_registry</title>
<path fill="none" stroke="#dc3545" stroke-dasharray="5,2" d="M399.29,-92.28C410.36,-90.37 421.95,-88.38 433.56,-86.37"/>
<polygon fill="#dc3545" stroke="#dc3545" points="433.93,-89.86 443.19,-84.71 432.74,-82.96 433.93,-89.86"/>
</g>
<!-- recode -->
<g id="node3" class="node">
<title>recode</title>
<polygon fill="#c3e6cb" stroke="#28a745" points="398.95,-58.4 247.75,-58.4 247.75,0 398.95,0 398.95,-58.4"/>
<text xml:space="preserve" text-anchor="middle" x="323.35" y="-41.8" font-family="Times,serif" font-size="14.00">recode</text>
<text xml:space="preserve" text-anchor="middle" x="323.35" y="-25" font-family="Times,serif" font-size="14.00">V025 二重割当解消 </text>
<text xml:space="preserve" text-anchor="middle" x="323.35" y="-8.2" font-family="Times,serif" font-size="14.00">#297)</text>
</g>
<!-- recode&#45;&gt;implement_diag_registry -->
<g id="edge2" class="edge">
<title>recode&#45;&gt;implement_diag_registry</title>
<path fill="none" stroke="#28a745" d="M399.29,-42.12C410.36,-44.03 421.95,-46.02 433.56,-48.03"/>
<polygon fill="#28a745" stroke="#28a745" points="432.74,-51.44 443.19,-49.69 433.93,-44.54 432.74,-51.44"/>
</g>
<!-- recode_boundary_diags -->
<g id="node4" class="node">
<title>recode_boundary_diags</title>
<ellipse fill="#f5f5f5" stroke="#bbbbbb" cx="105.88" cy="-67.2" rx="105.88" ry="41.3"/>
<text xml:space="preserve" text-anchor="middle" x="105.88" y="-79.8" font-family="Times,serif" font-size="14.00" fill="#777777">recode_boundary_diags</text>
<text xml:space="preserve" text-anchor="middle" x="105.88" y="-63" font-family="Times,serif" font-size="14.00" fill="#777777">境界診断コード再採</text>
<text xml:space="preserve" text-anchor="middle" x="105.88" y="-46.2" font-family="Times,serif" font-size="14.00" fill="#777777">番</text>
</g>
<!-- recode_boundary_diags&#45;&gt;i297_recode -->
<g id="edge3" class="edge">
<title>recode_boundary_diags&#45;&gt;i297_recode</title>
<path fill="none" stroke="#dc3545" stroke-dasharray="5,2" d="M202.96,-84.14C214.03,-86.1 225.28,-88.08 236.21,-90.01"/>
<polygon fill="#dc3545" stroke="#dc3545" points="235.53,-93.44 245.99,-91.73 236.75,-86.55 235.53,-93.44"/>
</g>
<!-- recode_boundary_diags&#45;&gt;recode -->
<g id="edge4" class="edge">
<title>recode_boundary_diags&#45;&gt;recode</title>
<path fill="none" stroke="#28a745" d="M202.96,-50.26C214.03,-48.3 225.28,-46.32 236.21,-44.39"/>
<polygon fill="#28a745" stroke="#28a745" points="236.75,-47.85 245.99,-42.67 235.53,-40.96 236.75,-47.85"/>
</g>
</g>
</svg>
