<?xml version="1.0" encoding="UTF-8" standalone="no"?>
<!DOCTYPE svg PUBLIC "-//W3C//DTD SVG 1.1//EN"
 "http://www.w3.org/Graphics/SVG/1.1/DTD/svg11.dtd">
<!-- Generated by graphviz version 15.1.0 (0)
 -->
<!-- Title: PFDSL Pages: 1 -->
<svg width="980pt" height="309pt"
 viewBox="0.00 0.00 980.00 309.00" xmlns="http://www.w3.org/2000/svg" xmlns:xlink="http://www.w3.org/1999/xlink">
<g id="graph0" class="graph" transform="scale(1 1) rotate(0) translate(4 305.31)">
<title>PFDSL</title>
<polygon fill="white" stroke="none" points="-4,4 -4,-305.31 976.12,-305.31 976.12,4 -4,4"/>
<text xml:space="preserve" text-anchor="middle" x="486.06" y="-284.71" font-family="Times,serif" font-size="14.00">Issue 依存フロー（2026&#45;06） — diff</text>
<text xml:space="preserve" text-anchor="middle" x="486.06" y="-267.91" font-family="Times,serif" font-size="14.00">green = added · red = removed · yellow = changed</text>
<!-- i402_implement_get_by_id -->
<g id="node1" class="node">
<title>i402_implement_get_by_id</title>
<ellipse fill="#ffeeba" stroke="#e0a800" cx="120.74" cy="-29.42" rx="120.74" ry="29.42"/>
<text xml:space="preserve" text-anchor="middle" x="120.74" y="-33.62" font-family="Times,serif" font-size="14.00">i402_implement_get_by_id</text>
<text xml:space="preserve" text-anchor="middle" x="120.74" y="-16.82" font-family="Times,serif" font-size="14.00">get&#45;by&#45;ID ツール実装</text>
</g>
<!-- i404_integrate_pfd_ops_plugin -->
<g id="node2" class="node">
<title>i404_integrate_pfd_ops_plugin</title>
<ellipse fill="#c3e6cb" stroke="#28a745" cx="413.08" cy="-106.42" rx="135.59" ry="53.17"/>
<text xml:space="preserve" text-anchor="middle" x="413.08" y="-127.42" font-family="Times,serif" font-size="14.00">i404_integrate_pfd_ops_plugin</text>
<text xml:space="preserve" text-anchor="middle" x="413.08" y="-110.62" font-family="Times,serif" font-size="14.00">pfd&#45;ops plugin</text>
<text xml:space="preserve" text-anchor="middle" x="413.08" y="-93.82" font-family="Times,serif" font-size="14.00">統合・skill sync</text>
<text xml:space="preserve" text-anchor="middle" x="413.08" y="-77.02" font-family="Times,serif" font-size="14.00">廃止検討</text>
</g>
<!-- pfd_ops_plugin_dist -->
<g id="node7" class="node">
<title>pfd_ops_plugin_dist</title>
<polygon fill="#c3e6cb" stroke="#28a745" points="743.07,-135.62 584.67,-135.62 584.67,-77.22 743.07,-77.22 743.07,-135.62"/>
<text xml:space="preserve" text-anchor="middle" x="663.87" y="-119.02" font-family="Times,serif" font-size="14.00">pfd_ops_plugin_dist</text>
<text xml:space="preserve" text-anchor="middle" x="663.87" y="-102.22" font-family="Times,serif" font-size="14.00">pfd&#45;ops 統合済み</text>
<text xml:space="preserve" text-anchor="middle" x="663.87" y="-85.42" font-family="Times,serif" font-size="14.00">plugin 配布 (#404)</text>
</g>
<!-- i404_integrate_pfd_ops_plugin&#45;&gt;pfd_ops_plugin_dist -->
<g id="edge1" class="edge">
<title>i404_integrate_pfd_ops_plugin&#45;&gt;pfd_ops_plugin_dist</title>
<path fill="none" stroke="#28a745" d="M549.03,-106.42C557.17,-106.42 565.24,-106.42 573.11,-106.42"/>
<polygon fill="#28a745" stroke="#28a745" points="572.98,-109.92 582.98,-106.42 572.98,-102.92 572.98,-109.92"/>
</g>
<!-- i405_implement_mint_check -->
<g id="node3" class="node">
<title>i405_implement_mint_check</title>
<ellipse fill="#c3e6cb" stroke="#28a745" cx="413.08" cy="-218.42" rx="127.33" ry="41.3"/>
<text xml:space="preserve" text-anchor="middle" x="413.08" y="-231.02" font-family="Times,serif" font-size="14.00">i405_implement_mint_check</text>
<text xml:space="preserve" text-anchor="middle" x="413.08" y="-214.22" font-family="Times,serif" font-size="14.00">mint&#45;check</text>
<text xml:space="preserve" text-anchor="middle" x="413.08" y="-197.42" font-family="Times,serif" font-size="14.00">ツール実装</text>
</g>
<!-- mint_check_tool -->
<g id="node6" class="node">
<title>mint_check_tool</title>
<polygon fill="#c3e6cb" stroke="#28a745" points="739.47,-247.62 588.27,-247.62 588.27,-189.22 739.47,-189.22 739.47,-247.62"/>
<text xml:space="preserve" text-anchor="middle" x="663.87" y="-231.02" font-family="Times,serif" font-size="14.00">mint_check_tool</text>
<text xml:space="preserve" text-anchor="middle" x="663.87" y="-214.22" font-family="Times,serif" font-size="14.00">mint&#45;check ツール </text>
<text xml:space="preserve" text-anchor="middle" x="663.87" y="-197.42" font-family="Times,serif" font-size="14.00">#405)</text>
</g>
<!-- i405_implement_mint_check&#45;&gt;mint_check_tool -->
<g id="edge2" class="edge">
<title>i405_implement_mint_check&#45;&gt;mint_check_tool</title>
<path fill="none" stroke="#28a745" d="M540.66,-218.42C552.81,-218.42 564.94,-218.42 576.57,-218.42"/>
<polygon fill="#28a745" stroke="#28a745" points="576.51,-221.92 586.51,-218.42 576.51,-214.92 576.51,-221.92"/>
</g>
<!-- marketplace_dist -->
<g id="node4" class="node">
<title>marketplace_dist</title>
<polygon fill="#f5f5f5" stroke="#bbbbbb" points="207.14,-135.62 34.34,-135.62 34.34,-77.22 207.14,-77.22 207.14,-135.62"/>
<text xml:space="preserve" text-anchor="middle" x="120.74" y="-119.02" font-family="Times,serif" font-size="14.00" fill="#777777">marketplace_dist</text>
<text xml:space="preserve" text-anchor="middle" x="120.74" y="-102.22" font-family="Times,serif" font-size="14.00" fill="#777777">marketplace 配布</text>
<text xml:space="preserve" text-anchor="middle" x="120.74" y="-85.42" font-family="Times,serif" font-size="14.00" fill="#777777">pfdsl skill 群 (#366)</text>
</g>
<!-- marketplace_dist&#45;&gt;i404_integrate_pfd_ops_plugin -->
<g id="edge3" class="edge">
<title>marketplace_dist&#45;&gt;i404_integrate_pfd_ops_plugin</title>
<path fill="none" stroke="#28a745" d="M207.28,-106.42C225.69,-106.42 245.64,-106.42 265.62,-106.42"/>
<polygon fill="#28a745" stroke="#28a745" points="265.53,-109.92 275.53,-106.42 265.53,-102.92 265.53,-109.92"/>
</g>
<!-- migrate_spec_id_refs -->
<g id="node5" class="node">
<title>migrate_spec_id_refs</title>
<ellipse fill="#f5f5f5" stroke="#bbbbbb" cx="875.6" cy="-218.42" rx="96.53" ry="41.3"/>
<text xml:space="preserve" text-anchor="middle" x="875.6" y="-231.02" font-family="Times,serif" font-size="14.00" fill="#777777">migrate_spec_id_refs</text>
<text xml:space="preserve" text-anchor="middle" x="875.6" y="-214.22" font-family="Times,serif" font-size="14.00" fill="#777777">spec.md</text>
<text xml:space="preserve" text-anchor="middle" x="875.6" y="-197.42" font-family="Times,serif" font-size="14.00" fill="#777777">仕様ID参照移行</text>
</g>
<!-- mint_check_tool&#45;&gt;migrate_spec_id_refs -->
<g id="edge4" class="edge">
<title>mint_check_tool&#45;&gt;migrate_spec_id_refs</title>
<path fill="none" stroke="#28a745" d="M739.7,-218.42C748.73,-218.42 758.09,-218.42 767.47,-218.42"/>
<polygon fill="#28a745" stroke="#28a745" points="767.39,-221.92 777.39,-218.42 767.39,-214.92 767.39,-221.92"/>
</g>
<!-- spec_id_syntax -->
<g id="node8" class="node">
<title>spec_id_syntax</title>
<polygon fill="#f5f5f5" stroke="#bbbbbb" points="189.14,-247.62 52.34,-247.62 52.34,-189.22 189.14,-189.22 189.14,-247.62"/>
<text xml:space="preserve" text-anchor="middle" x="120.74" y="-231.02" font-family="Times,serif" font-size="14.00" fill="#777777">spec_id_syntax</text>
<text xml:space="preserve" text-anchor="middle" x="120.74" y="-214.22" font-family="Times,serif" font-size="14.00" fill="#777777">仕様ID構文 ADR +</text>
<text xml:space="preserve" text-anchor="middle" x="120.74" y="-197.42" font-family="Times,serif" font-size="14.00" fill="#777777">最小lint (#328)</text>
</g>
<!-- spec_id_syntax&#45;&gt;i405_implement_mint_check -->
<g id="edge5" class="edge">
<title>spec_id_syntax&#45;&gt;i405_implement_mint_check</title>
<path fill="none" stroke="#28a745" d="M189.45,-218.42C214.86,-218.42 244.74,-218.42 274.22,-218.42"/>
<polygon fill="#28a745" stroke="#28a745" points="273.98,-221.92 283.98,-218.42 273.98,-214.92 273.98,-221.92"/>
</g>
</g>
</svg>
