<?xml version="1.0" encoding="UTF-8" standalone="no"?>
<!DOCTYPE svg PUBLIC "-//W3C//DTD SVG 1.1//EN"
 "http://www.w3.org/Graphics/SVG/1.1/DTD/svg11.dtd">
<!-- Generated by graphviz version 15.1.0 (0)
 -->
<!-- Title: PFDSL Pages: 1 -->
<svg width="507pt" height="176pt"
 viewBox="0.00 0.00 507.00 176.00" xmlns="http://www.w3.org/2000/svg" xmlns:xlink="http://www.w3.org/1999/xlink">
<g id="graph0" class="graph" transform="scale(1 1) rotate(0) translate(4 172.43)">
<title>PFDSL</title>
<polygon fill="white" stroke="none" points="-4,4 -4,-172.43 503.3,-172.43 503.3,4 -4,4"/>
<text xml:space="preserve" text-anchor="middle" x="249.65" y="-151.83" font-family="Times,serif" font-size="14.00">pfdsl CLI 変換パイプライン — diff</text>
<text xml:space="preserve" text-anchor="middle" x="249.65" y="-135.03" font-family="Times,serif" font-size="14.00">green = added · red = removed · yellow = changed</text>
<!-- bundle_skills -->
<g id="node1" class="node">
<title>bundle_skills</title>
<ellipse fill="#ffeeba" stroke="#e0a800" cx="79.2" cy="-29.42" rx="78.14" ry="29.42"/>
<text xml:space="preserve" text-anchor="middle" x="79.2" y="-33.62" font-family="Times,serif" font-size="14.00">bundle_skills</text>
<text xml:space="preserve" text-anchor="middle" x="79.2" y="-16.82" font-family="Times,serif" font-size="14.00">スキルバンドル生成</text>
</g>
<!-- installed_agents -->
<g id="node2" class="node">
<title>installed_agents</title>
<polygon fill="#c3e6cb" stroke="#28a745" points="499.3,-118.22 355.3,-118.22 355.3,-76.62 499.3,-76.62 499.3,-118.22"/>
<text xml:space="preserve" text-anchor="middle" x="427.3" y="-101.62" font-family="Times,serif" font-size="14.00">installed_agents</text>
<text xml:space="preserve" text-anchor="middle" x="427.3" y="-84.82" font-family="Times,serif" font-size="14.00">導入済みagent定義</text>
</g>
<!-- skill_source_bundle -->
<g id="node3" class="node">
<title>skill_source_bundle</title>
<polygon fill="#ffeeba" stroke="#e0a800" points="158.4,-118.22 0,-118.22 0,-76.62 158.4,-76.62 158.4,-118.22"/>
<text xml:space="preserve" text-anchor="middle" x="79.2" y="-101.62" font-family="Times,serif" font-size="14.00">skill_source_bundle</text>
<text xml:space="preserve" text-anchor="middle" x="79.2" y="-84.82" font-family="Times,serif" font-size="14.00">配布対象スキル束</text>
</g>
<!-- sync_agents -->
<g id="node4" class="node">
<title>sync_agents</title>
<ellipse fill="#c3e6cb" stroke="#28a745" cx="256.85" cy="-97.42" rx="62.45" ry="29.42"/>
<text xml:space="preserve" text-anchor="middle" x="256.85" y="-101.62" font-family="Times,serif" font-size="14.00">sync_agents</text>
<text xml:space="preserve" text-anchor="middle" x="256.85" y="-84.82" font-family="Times,serif" font-size="14.00">agent定義同期</text>
</g>
<!-- skill_source_bundle&#45;&gt;sync_agents -->
<g id="edge1" class="edge">
<title>skill_source_bundle&#45;&gt;sync_agents</title>
<path fill="none" stroke="#28a745" d="M158.78,-97.42C166.69,-97.42 174.71,-97.42 182.57,-97.42"/>
<polygon fill="#28a745" stroke="#28a745" points="182.43,-100.92 192.43,-97.42 182.43,-93.92 182.43,-100.92"/>
</g>
<!-- sync_agents&#45;&gt;installed_agents -->
<g id="edge2" class="edge">
<title>sync_agents&#45;&gt;installed_agents</title>
<path fill="none" stroke="#28a745" d="M319.62,-97.42C327.4,-97.42 335.47,-97.42 343.51,-97.42"/>
<polygon fill="#28a745" stroke="#28a745" points="343.33,-100.92 353.33,-97.42 343.33,-93.92 343.33,-100.92"/>
</g>
</g>
</svg>
