<?xml version="1.0" encoding="UTF-8" standalone="no"?>
<!DOCTYPE svg PUBLIC "-//W3C//DTD SVG 1.1//EN"
 "http://www.w3.org/Graphics/SVG/1.1/DTD/svg11.dtd">
<!-- Generated by graphviz version 15.1.0 (0)
 -->
<!-- Title: PFDSL Pages: 1 -->
<svg width="1715pt" height="913pt"
 viewBox="0.00 0.00 1715.00 913.00" xmlns="http://www.w3.org/2000/svg" xmlns:xlink="http://www.w3.org/1999/xlink">
<g id="graph0" class="graph" transform="scale(1 1) rotate(0) translate(4 909.2)">
<title>PFDSL</title>
<polygon fill="white" stroke="none" points="-4,4 -4,-909.2 1710.6,-909.2 1710.6,4 -4,4"/>
<text xml:space="preserve" text-anchor="middle" x="853.3" y="-888.6" font-family="Times,serif" font-size="14.00">pfdsl CLI 変換パイプライン</text>
<g id="clust1" class="cluster">
<title>cluster_adopter_repo</title>
<polygon fill="#eafaf1" stroke="#a4afa9" points="798.95,-101.4 798.95,-304.4 1358.31,-304.4 1358.31,-101.4 798.95,-101.4"/>
<text xml:space="preserve" text-anchor="middle" x="1078.63" y="-287.8" font-family="Times,serif" font-size="14.00">採用リポ</text>
</g>
<g id="clust2" class="cluster">
<title>cluster_in_memory</title>
<polygon fill="#e8f4fd" stroke="#a2abb1" points="401.87,-466.4 401.87,-549.4 958.95,-549.4 958.95,-466.4 401.87,-466.4"/>
<text xml:space="preserve" text-anchor="middle" x="680.41" y="-532.8" font-family="Times,serif" font-size="14.00">処理系内の中間表現（メモリ内・保存されない）</text>
</g>
<g id="clust3" class="cluster">
<title>cluster_run_outputs</title>
<polygon fill="#f3e8fd" stroke="#aaa2b1" points="412.67,-609.4 412.67,-872.4 1698.6,-872.4 1698.6,-609.4 412.67,-609.4"/>
<text xml:space="preserve" text-anchor="middle" x="1055.63" y="-855.8" font-family="Times,serif" font-size="14.00">実行結果（stdout・ファイル・エディタ表示）</text>
</g>
<g id="clust4" class="cluster">
<title>cluster_skill_sources</title>
<polygon fill="#fef9e7" stroke="#b2aea2" points="8,-8.4 8,-380.4 189.6,-380.4 189.6,-8.4 8,-8.4"/>
<text xml:space="preserve" text-anchor="middle" x="98.8" y="-363.8" font-family="Times,serif" font-size="14.00">配布素材（このリポの .claude/）</text>
</g>
<!-- gh_labels -->
<g id="node1" class="node">
<title>gh_labels</title>
<g id="a_node1"><a xlink:title="GitHubラベル整備結果&#10;&#10;flow:managed / flow:exempt ラベルの存在保証（gh CLI経由）&#10;externalStakeholders: 採用リポのGitHubリポジトリ">
<polygon fill="none" stroke="black" stroke-width="2" points="1350.31,-151.2 1184.71,-151.2 1184.71,-109.6 1350.31,-109.6 1350.31,-151.2"/>
<text xml:space="preserve" text-anchor="middle" x="1267.51" y="-134.6" font-family="Times,serif" font-size="14.00">gh_labels</text>
<text xml:space="preserve" text-anchor="middle" x="1267.51" y="-117.8" font-family="Times,serif" font-size="14.00">GitHubラベル整備結果</text>
</a>
</g>
</g>
<!-- installed_commands -->
<g id="node2" class="node">
<title>installed_commands</title>
<g id="a_node2"><a xlink:title="導入済みコマンド&#10;&#10;採用リポ&lt;target&gt;/.claude/commands/pfd&#45;*.mdへのコピー結果&#10;externalStakeholders: 採用リポのAIエージェント">
<polygon fill="none" stroke="black" stroke-width="2" points="958.15,-151.2 806.95,-151.2 806.95,-109.6 958.15,-109.6 958.15,-151.2"/>
<text xml:space="preserve" text-anchor="middle" x="882.55" y="-134.6" font-family="Times,serif" font-size="14.00">installed_commands</text>
<text xml:space="preserve" text-anchor="middle" x="882.55" y="-117.8" font-family="Times,serif" font-size="14.00">導入済みコマンド</text>
</a>
</g>
</g>
<!-- installed_l3_layer -->
<g id="node3" class="node">
<title>installed_l3_layer</title>
<g id="a_node3"><a xlink:title="導入済みL3レイヤー&#10;&#10;install/由来ファイル（GitHub Actionsワークフロー・監査スクリプト）の採用リポルートへのコピー結果&#10;externalStakeholders: 採用リポのGitHub Actions">
<polygon fill="none" stroke="black" points="958.15,-271.2 806.95,-271.2 806.95,-229.6 958.15,-229.6 958.15,-271.2"/>
<text xml:space="preserve" text-anchor="middle" x="882.55" y="-254.6" font-family="Times,serif" font-size="14.00">installed_l3_layer</text>
<text xml:space="preserve" text-anchor="middle" x="882.55" y="-237.8" font-family="Times,serif" font-size="14.00">導入済みL3レイヤー</text>
</a>
</g>
</g>
<!-- ensure_labels -->
<g id="node21" class="node">
<title>ensure_labels</title>
<g id="a_node21"><a xlink:title="ラベル保証&#10;&#10;L3同期が行われた場合のみ、flow:managed / flow:exemptラベルの存在をgh CLIで確認・作成する（&#45;&#45;yes未指定時は対話確認）&#10;location: ../packages/cli/src/skill&#45;sync.ts">
<ellipse fill="none" stroke="#16a085" cx="1071.43" cy="-64.4" rx="65.19" ry="29.42"/>
<text xml:space="preserve" text-anchor="middle" x="1071.43" y="-68.6" font-family="Times,serif" font-size="14.00">ensure_labels</text>
<text xml:space="preserve" text-anchor="middle" x="1071.43" y="-51.8" font-family="Times,serif" font-size="14.00">ラベル保証</text>
</a>
</g>
<text xml:space="preserve" text-anchor="middle" x="1002.74" y="-22.38" font-family="Times,serif" font-size="14.00">g</text>
</g>
<!-- installed_l3_layer&#45;&gt;ensure_labels -->
<g id="edge35" class="edge">
<title>installed_l3_layer&#45;&gt;ensure_labels</title>
<path fill="none" stroke="black" d="M945.67,-229.16C950.36,-226.53 954.85,-223.61 958.95,-220.4 999.62,-188.54 1031.95,-137.99 1051.1,-103.11"/>
<polygon fill="black" stroke="black" points="1054.02,-105.07 1055.67,-94.6 1047.85,-101.76 1054.02,-105.07"/>
</g>
<!-- installed_skills -->
<g id="node4" class="node">
<title>installed_skills</title>
<g id="a_node4"><a xlink:title="導入済みスキル&#10;&#10;採用リポ&lt;target&gt;/.claude/skills/{pfd&#45;ops,pfd&#45;retro,pfd&#45;ecosystem,pfdsl}/へのミラーコピー結果&#10;externalStakeholders: 採用リポのAIエージェント">
<polygon fill="none" stroke="black" stroke-width="2" points="950.95,-211.2 814.15,-211.2 814.15,-169.6 950.95,-169.6 950.95,-211.2"/>
<text xml:space="preserve" text-anchor="middle" x="882.55" y="-194.6" font-family="Times,serif" font-size="14.00">installed_skills</text>
<text xml:space="preserve" text-anchor="middle" x="882.55" y="-177.8" font-family="Times,serif" font-size="14.00">導入済みスキル</text>
</a>
</g>
</g>
<!-- normalized_graph -->
<g id="node5" class="node">
<title>normalized_graph</title>
<g id="a_node5"><a xlink:title="正準化グラフ&#10;&#10;正規化済みエッジ・ノード種別・isolatedノード集合とGraph構造。validate/render_graph/export_metadata/diff_graphsの共通入力。CLI normalizeコマンドはこれをJSONで直接出力する&#10;externalStakeholders: CLIユーザー">
<polygon fill="none" stroke="black" points="950.95,-516.2 814.15,-516.2 814.15,-474.6 950.95,-474.6 950.95,-516.2"/>
<text xml:space="preserve" text-anchor="middle" x="882.55" y="-499.6" font-family="Times,serif" font-size="14.00">normalized_graph</text>
<text xml:space="preserve" text-anchor="middle" x="882.55" y="-482.8" font-family="Times,serif" font-size="14.00">正準化グラフ</text>
</a>
</g>
</g>
<!-- diff_graphs -->
<g id="node20" class="node">
<title>diff_graphs</title>
<g id="a_node20"><a xlink:title="差分算出&#10;&#10;2つの正準化グラフ（とそれぞれのfrontmatter）の構造差分を計算する&#10;command: npx @pfdsl/cli diff&#10;location: ../packages/core/src/diff.ts">
<ellipse fill="none" stroke="#27ae60" cx="1071.43" cy="-341.4" rx="56.95" ry="29.42"/>
<text xml:space="preserve" text-anchor="middle" x="1071.43" y="-345.6" font-family="Times,serif" font-size="14.00">diff_graphs</text>
<text xml:space="preserve" text-anchor="middle" x="1071.43" y="-328.8" font-family="Times,serif" font-size="14.00">差分算出</text>
</a>
</g>
<text xml:space="preserve" text-anchor="middle" x="1010.98" y="-299.38" font-family="Times,serif" font-size="14.00">b</text>
</g>
<!-- normalized_graph&#45;&gt;diff_graphs -->
<g id="edge20" class="edge">
<title>normalized_graph&#45;&gt;diff_graphs</title>
<path fill="none" stroke="black" d="M909.15,-474.31C940.8,-448.23 994.98,-403.58 1031.72,-373.3"/>
<polygon fill="black" stroke="black" points="1033.54,-376.33 1039.04,-367.27 1029.09,-370.93 1033.54,-376.33"/>
</g>
<!-- export_metadata -->
<g id="node23" class="node">
<title>export_metadata</title>
<g id="a_node23"><a xlink:title="メタデータ抽出&#10;&#10;正準化グラフとfrontmatterからノードメタデータを抽出しTSV化する。CLIサブコマンドはなくVSCode拡張のエクスポート機能のみが呼ぶ&#10;location: ../packages/metadata&#45;exporter/src/index.ts">
<ellipse fill="none" stroke="#27ae60" cx="1071.43" cy="-572.4" rx="77.28" ry="29.42"/>
<text xml:space="preserve" text-anchor="middle" x="1071.43" y="-576.6" font-family="Times,serif" font-size="14.00">export_metadata</text>
<text xml:space="preserve" text-anchor="middle" x="1071.43" y="-559.8" font-family="Times,serif" font-size="14.00">メタデータ抽出</text>
</a>
</g>
<text xml:space="preserve" text-anchor="middle" x="990.65" y="-530.38" font-family="Times,serif" font-size="14.00">b</text>
</g>
<!-- normalized_graph&#45;&gt;export_metadata -->
<g id="edge17" class="edge">
<title>normalized_graph&#45;&gt;export_metadata</title>
<path fill="none" stroke="black" d="M935.11,-516.64C957.51,-525.87 983.94,-536.76 1007.48,-546.46"/>
<polygon fill="black" stroke="black" points="1006.09,-549.67 1016.67,-550.25 1008.75,-543.2 1006.09,-549.67"/>
</g>
<!-- render_graph -->
<g id="node28" class="node">
<title>render_graph</title>
<g id="a_node28"><a xlink:title="DOT変換&#10;&#10;正準化グラフとfrontmatter（スタイル・タイトル）からGraphviz DOTを構築する&#10;command: npx @pfdsl/cli graph&#10;location: ../packages/graphviz&#45;exporter/src/index.ts">
<ellipse fill="none" stroke="#27ae60" cx="1071.43" cy="-495.4" rx="64.08" ry="29.42"/>
<text xml:space="preserve" text-anchor="middle" x="1071.43" y="-499.6" font-family="Times,serif" font-size="14.00">render_graph</text>
<text xml:space="preserve" text-anchor="middle" x="1071.43" y="-482.8" font-family="Times,serif" font-size="14.00">DOT変換</text>
</a>
</g>
<text xml:space="preserve" text-anchor="middle" x="1003.85" y="-453.38" font-family="Times,serif" font-size="14.00">b</text>
</g>
<!-- normalized_graph&#45;&gt;render_graph -->
<g id="edge12" class="edge">
<title>normalized_graph&#45;&gt;render_graph</title>
<path fill="none" stroke="black" d="M951.29,-495.4C965.77,-495.4 981.15,-495.4 995.87,-495.4"/>
<polygon fill="black" stroke="black" points="995.46,-498.9 1005.46,-495.4 995.46,-491.9 995.46,-498.9"/>
</g>
<!-- validate -->
<g id="node34" class="node">
<title>validate</title>
<g id="a_node34"><a xlink:title="検証&#10;&#10;正準化グラフとfrontmatterにV/Wルールを適用し診断を生成する。ルールの一次情報docs/spec/spec.md（a層）は設計時にこの実装へ反映されるもので、実行時の入力ではない&#10;command: npx @pfdsl/cli check&#10;location: ../packages/core/src/validator.ts">
<ellipse fill="none" stroke="#27ae60" cx="1071.43" cy="-418.4" rx="42.65" ry="29.42"/>
<text xml:space="preserve" text-anchor="middle" x="1071.43" y="-422.6" font-family="Times,serif" font-size="14.00">validate</text>
<text xml:space="preserve" text-anchor="middle" x="1071.43" y="-405.8" font-family="Times,serif" font-size="14.00">検証</text>
</a>
</g>
<text xml:space="preserve" text-anchor="middle" x="1025.29" y="-376.38" font-family="Times,serif" font-size="14.00">b</text>
</g>
<!-- normalized_graph&#45;&gt;validate -->
<g id="edge5" class="edge">
<title>normalized_graph&#45;&gt;validate</title>
<path fill="none" stroke="black" d="M935.11,-474.16C962.87,-462.72 996.84,-448.72 1023.8,-437.61"/>
<polygon fill="black" stroke="black" points="1024.82,-440.98 1032.74,-433.93 1022.16,-434.51 1024.82,-440.98"/>
</g>
<!-- parsed_doc -->
<g id="node6" class="node">
<title>parsed_doc</title>
<g id="a_node6"><a xlink:title="構文木・frontmatter&#10;&#10;frontmatter読込・lex・parseの出力（document構造とfrontmatter）">
<polygon fill="none" stroke="black" points="568.27,-516.2 409.87,-516.2 409.87,-474.6 568.27,-474.6 568.27,-516.2"/>
<text xml:space="preserve" text-anchor="middle" x="489.07" y="-499.6" font-family="Times,serif" font-size="14.00">parsed_doc</text>
<text xml:space="preserve" text-anchor="middle" x="489.07" y="-482.8" font-family="Times,serif" font-size="14.00">構文木・frontmatter</text>
</a>
</g>
</g>
<!-- parsed_doc&#45;&gt;diff_graphs -->
<g id="edge21" class="edge">
<title>parsed_doc&#45;&gt;diff_graphs</title>
<path fill="none" stroke="black" d="M500.6,-474.23C517.53,-442.82 554.08,-384.94 604.27,-360.4 735.6,-296.2 913.44,-313.07 1006.94,-328.62"/>
<polygon fill="black" stroke="black" points="1006.25,-332.05 1016.7,-330.3 1007.44,-325.15 1006.25,-332.05"/>
</g>
<!-- parsed_doc&#45;&gt;export_metadata -->
<g id="edge18" class="edge">
<title>parsed_doc&#45;&gt;export_metadata</title>
<path fill="none" stroke="black" d="M513.89,-516.37C535.71,-534.08 569.76,-558.15 604.27,-568.4 734.18,-606.98 893.58,-596.8 988.31,-585.14"/>
<polygon fill="black" stroke="black" points="988.56,-588.64 998.04,-583.91 987.68,-581.7 988.56,-588.64"/>
</g>
<!-- normalize -->
<g id="node25" class="node">
<title>normalize</title>
<g id="a_node25"><a xlink:title="正規化&#10;&#10;エッジリストとノード種別を正規化しGraphを構築する&#10;command: npx @pfdsl/cli normalize&#10;location: ../packages/core/src/normalizer.ts">
<ellipse fill="none" stroke="#27ae60" cx="687.61" cy="-429.4" rx="50.89" ry="29.42"/>
<text xml:space="preserve" text-anchor="middle" x="687.61" y="-433.6" font-family="Times,serif" font-size="14.00">normalize</text>
<text xml:space="preserve" text-anchor="middle" x="687.61" y="-416.8" font-family="Times,serif" font-size="14.00">正規化</text>
</a>
</g>
<text xml:space="preserve" text-anchor="middle" x="633.22" y="-387.38" font-family="Times,serif" font-size="14.00">b</text>
</g>
<!-- parsed_doc&#45;&gt;normalize -->
<g id="edge3" class="edge">
<title>parsed_doc&#45;&gt;normalize</title>
<path fill="none" stroke="black" d="M553.34,-474.15C578.74,-465.62 607.73,-455.89 632.16,-447.68"/>
<polygon fill="black" stroke="black" points="633.24,-451.01 641.61,-444.51 631.02,-444.38 633.24,-451.01"/>
</g>
<!-- parsed_doc&#45;&gt;render_graph -->
<g id="edge13" class="edge">
<title>parsed_doc&#45;&gt;render_graph</title>
<path fill="none" stroke="black" d="M547.4,-516.61C565.35,-522.26 585.4,-527.57 604.27,-530.4 760.18,-553.76 802.95,-548.14 958.95,-525.4 974.91,-523.07 991.84,-519.25 1007.56,-515.1"/>
<polygon fill="black" stroke="black" points="1008.04,-518.59 1016.77,-512.58 1006.2,-511.84 1008.04,-518.59"/>
</g>
<!-- parsed_doc&#45;&gt;validate -->
<g id="edge6" class="edge">
<title>parsed_doc&#45;&gt;validate</title>
<path fill="none" stroke="black" d="M504.99,-474.53C524.49,-449.27 561.26,-408.05 604.27,-391.4 747.67,-335.89 934.5,-377.46 1021.66,-402.73"/>
<polygon fill="black" stroke="black" points="1020.51,-406.04 1031.09,-405.52 1022.49,-399.32 1020.51,-406.04"/>
</g>
<!-- diagnostics_report -->
<g id="node7" class="node">
<title>diagnostics_report</title>
<g id="a_node7"><a xlink:title="診断結果&#10;&#10;V/Wルールに基づくエラー・警告一覧。CLI checkコマンドの出力で、VSCode拡張は同じvalidateをエディタ内リアルタイム診断に使う&#10;externalStakeholders: CLIユーザー, CI, VSCode拡張ユーザー">
<polygon fill="none" stroke="black" stroke-width="2" points="1343.11,-719.2 1191.91,-719.2 1191.91,-677.6 1343.11,-677.6 1343.11,-719.2"/>
<text xml:space="preserve" text-anchor="middle" x="1267.51" y="-702.6" font-family="Times,serif" font-size="14.00">diagnostics_report</text>
<text xml:space="preserve" text-anchor="middle" x="1267.51" y="-685.8" font-family="Times,serif" font-size="14.00">診断結果</text>
</a>
</g>
</g>
<!-- diff_report -->
<g id="node8" class="node">
<title>diff_report</title>
<g id="a_node8"><a xlink:title="差分レポート&#10;&#10;2つのグラフ間の構造差分（追加・削除・改名ノード等）。この図は単一ドキュメントの変換を軸にモデル化しているため、比較対象の2つ目のグラフは図上に現れない&#10;externalStakeholders: CLIユーザー, VSCode拡張ユーザー">
<polygon fill="none" stroke="black" stroke-width="2" points="1321.51,-659.2 1213.51,-659.2 1213.51,-617.6 1321.51,-617.6 1321.51,-659.2"/>
<text xml:space="preserve" text-anchor="middle" x="1267.51" y="-642.6" font-family="Times,serif" font-size="14.00">diff_report</text>
<text xml:space="preserve" text-anchor="middle" x="1267.51" y="-625.8" font-family="Times,serif" font-size="14.00">差分レポート</text>
</a>
</g>
</g>
<!-- dot_graph -->
<g id="node9" class="node">
<title>dot_graph</title>
<g id="a_node9"><a xlink:title="DOTグラフ&#10;&#10;Graphviz DOT形式テキスト（graphコマンドのデフォルト出力）&#10;externalStakeholders: CLIユーザー">
<polygon fill="none" stroke="black" points="1310.71,-779.2 1224.31,-779.2 1224.31,-737.6 1310.71,-737.6 1310.71,-779.2"/>
<text xml:space="preserve" text-anchor="middle" x="1267.51" y="-762.6" font-family="Times,serif" font-size="14.00">dot_graph</text>
<text xml:space="preserve" text-anchor="middle" x="1267.51" y="-745.8" font-family="Times,serif" font-size="14.00">DOTグラフ</text>
</a>
</g>
</g>
<!-- export_image -->
<g id="node22" class="node">
<title>export_image</title>
<g id="a_node22"><a xlink:title="画像化&#10;&#10;DOTをSVG（wasm、外部依存なし）またはPDF/PNG（puppeteer必須）へ変換する&#10;command: npx @pfdsl/cli graph &#45;&#45;format svg&#10;location: ../packages/preview&#45;engine/src/index.ts">
<ellipse fill="none" stroke="#27ae60" cx="1452.05" cy="-572.4" rx="65.74" ry="29.42"/>
<text xml:space="preserve" text-anchor="middle" x="1452.05" y="-576.6" font-family="Times,serif" font-size="14.00">export_image</text>
<text xml:space="preserve" text-anchor="middle" x="1452.05" y="-559.8" font-family="Times,serif" font-size="14.00">画像化</text>
</a>
</g>
<text xml:space="preserve" text-anchor="middle" x="1382.81" y="-530.38" font-family="Times,serif" font-size="14.00">b</text>
</g>
<!-- dot_graph&#45;&gt;export_image -->
<g id="edge15" class="edge">
<title>dot_graph&#45;&gt;export_image</title>
<path fill="none" stroke="black" d="M1310.9,-750.83C1327.02,-746.36 1344.75,-739.33 1358.31,-728.4 1396.22,-697.85 1422.15,-647.34 1436.76,-612.11"/>
<polygon fill="black" stroke="black" points="1439.89,-613.69 1440.36,-603.1 1433.39,-611.08 1439.89,-613.69"/>
</g>
<!-- formatted_source -->
<g id="node10" class="node">
<title>formatted_source</title>
<g id="a_node10"><a xlink:title="整形済みソース&#10;&#10;ソースからの独立した再parseで生成する正準整形済み.pfdslテキスト&#10;externalStakeholders: CLIユーザー, VSCode拡張ユーザー">
<polygon fill="none" stroke="black" stroke-width="2" points="557.47,-659.2 420.67,-659.2 420.67,-617.6 557.47,-617.6 557.47,-659.2"/>
<text xml:space="preserve" text-anchor="middle" x="489.07" y="-642.6" font-family="Times,serif" font-size="14.00">formatted_source</text>
<text xml:space="preserve" text-anchor="middle" x="489.07" y="-625.8" font-family="Times,serif" font-size="14.00">整形済みソース</text>
</a>
</g>
</g>
<!-- metadata_tsv -->
<g id="node11" class="node">
<title>metadata_tsv</title>
<g id="a_node11"><a xlink:title="メタデータTSV&#10;&#10;ノードのkind/label/description/status/tags/ownerを抽出したタブ区切りテキスト&#10;externalStakeholders: VSCode拡張ユーザー">
<polygon fill="none" stroke="black" stroke-width="2" points="1325.11,-839.2 1209.91,-839.2 1209.91,-797.6 1325.11,-797.6 1325.11,-839.2"/>
<text xml:space="preserve" text-anchor="middle" x="1267.51" y="-822.6" font-family="Times,serif" font-size="14.00">metadata_tsv</text>
<text xml:space="preserve" text-anchor="middle" x="1267.51" y="-805.8" font-family="Times,serif" font-size="14.00">メタデータTSV</text>
</a>
</g>
</g>
<!-- rendered_image -->
<g id="node12" class="node">
<title>rendered_image</title>
<g id="a_node12"><a xlink:title="レンダリング画像&#10;&#10;DOTから変換したSVG（wasm）またはPDF/PNG（puppeteer経由）&#10;externalStakeholders: CLIユーザー, VSCode拡張ユーザー">
<polygon fill="none" stroke="black" stroke-width="2" points="1690.6,-659.2 1553.8,-659.2 1553.8,-617.6 1690.6,-617.6 1690.6,-659.2"/>
<text xml:space="preserve" text-anchor="middle" x="1622.2" y="-642.6" font-family="Times,serif" font-size="14.00">rendered_image</text>
<text xml:space="preserve" text-anchor="middle" x="1622.2" y="-625.8" font-family="Times,serif" font-size="14.00">レンダリング画像</text>
</a>
</g>
</g>
<!-- sorted_source -->
<g id="node13" class="node">
<title>sorted_source</title>
<g id="a_node13"><a xlink:title="ソート済みソース&#10;&#10;指定キーでノード定義を並べ替えた.pfdslテキスト&#10;externalStakeholders: CLIユーザー, VSCode拡張ユーザー">
<polygon fill="none" stroke="black" stroke-width="2" points="557.47,-727.2 420.67,-727.2 420.67,-685.6 557.47,-685.6 557.47,-727.2"/>
<text xml:space="preserve" text-anchor="middle" x="489.07" y="-710.6" font-family="Times,serif" font-size="14.00">sorted_source</text>
<text xml:space="preserve" text-anchor="middle" x="489.07" y="-693.8" font-family="Times,serif" font-size="14.00">ソート済みソース</text>
</a>
</g>
</g>
<!-- ecosystem_skill -->
<g id="node14" class="node">
<title>ecosystem_skill</title>
<g id="a_node14"><a xlink:title="PFDセット構築スキル&#10;&#10;内容の一次情報はworkflow.pfdsl。ここではskill_source_bundleへの同梱対象としてのみ扱う&#10;location: ../.claude/skills/pfd&#45;ecosystem/">
<polygon fill="none" stroke="black" stroke-width="2" points="178,-271.2 19.6,-271.2 19.6,-229.6 178,-229.6 178,-271.2"/>
<text xml:space="preserve" text-anchor="middle" x="98.8" y="-254.6" font-family="Times,serif" font-size="14.00">ecosystem_skill</text>
<text xml:space="preserve" text-anchor="middle" x="98.8" y="-237.8" font-family="Times,serif" font-size="14.00">PFDセット構築スキル</text>
</a>
</g>
</g>
<!-- bundle_skills -->
<g id="node19" class="node">
<title>bundle_skills</title>
<g id="a_node19"><a xlink:title="スキルバンドル生成&#10;&#10;ビルド時（tsup onSuccess）に4スキルツリーとcommands/pfd&#45;*.mdをdist/へコピーする。対象4スキル名はtsup.config.tsとskill&#45;sync.tsの両方にハードコードされ、スキル追加時は両方の更新が必要。fの内容authoringはworkflow.pfdsl側、ここは機械的コピーのみ&#10;location: ../packages/cli/tsup.config.ts">
<ellipse fill="none" stroke="#16a085" cx="295.74" cy="-190.4" rx="78.14" ry="29.42"/>
<text xml:space="preserve" text-anchor="middle" x="295.74" y="-194.6" font-family="Times,serif" font-size="14.00">bundle_skills</text>
<text xml:space="preserve" text-anchor="middle" x="295.74" y="-177.8" font-family="Times,serif" font-size="14.00">スキルバンドル生成</text>
</a>
</g>
<text xml:space="preserve" text-anchor="middle" x="214.1" y="-148.38" font-family="Times,serif" font-size="14.00">g</text>
</g>
<!-- ecosystem_skill&#45;&gt;bundle_skills -->
<g id="edge27" class="edge">
<title>ecosystem_skill&#45;&gt;bundle_skills</title>
<path fill="none" stroke="black" d="M170.45,-228.65C187.78,-223.32 206.33,-217.61 223.67,-212.27"/>
<polygon fill="black" stroke="black" points="224.32,-215.74 232.85,-209.45 222.26,-209.05 224.32,-215.74"/>
</g>
<!-- ops_skill_general -->
<g id="node15" class="node">
<title>ops_skill_general</title>
<g id="a_node15"><a xlink:title="PFD運用フレームワーク 汎用層&#10;&#10;pfd&#45;opsのL1（汎用手順）+L2（ディスパッチ）。SKILL.md本文で配布。L4（リポ固有）は配布対象外でpfd&#45;ops自体に含まれない。内容の一次情報はworkflow.pfdslのops_skill_general&#10;location: ../.claude/skills/pfd&#45;ops/SKILL.md">
<polygon fill="none" stroke="#c0392b" stroke-width="2" points="178,-347.6 19.6,-347.6 19.6,-289.2 178,-289.2 178,-347.6"/>
<text xml:space="preserve" text-anchor="middle" x="98.8" y="-331" font-family="Times,serif" font-size="14.00">ops_skill_general</text>
<text xml:space="preserve" text-anchor="middle" x="98.8" y="-314.2" font-family="Times,serif" font-size="14.00">PFD運用フレームワー</text>
<text xml:space="preserve" text-anchor="middle" x="98.8" y="-297.4" font-family="Times,serif" font-size="14.00">ク 汎用層</text>
</a>
</g>
<text xml:space="preserve" text-anchor="middle" x="13.77" y="-276.6" font-family="Times,serif" font-size="14.00">f1</text>
</g>
<!-- ops_skill_general&#45;&gt;bundle_skills -->
<g id="edge24" class="edge">
<title>ops_skill_general&#45;&gt;bundle_skills</title>
<path fill="none" stroke="black" d="M175.63,-288.34C180.44,-285.81 185.14,-283.16 189.6,-280.4 214.52,-264.98 239.55,-243.83 258.94,-225.9"/>
<polygon fill="black" stroke="black" points="261.16,-228.62 266.05,-219.22 256.37,-223.52 261.16,-228.62"/>
</g>
<!-- ops_skill_l3 -->
<g id="node16" class="node">
<title>ops_skill_l3</title>
<g id="a_node16"><a xlink:title="PFD運用フレームワーク GitHub Issuesバックエンド層&#10;&#10;pfd&#45;opsのL3プリセット（references/github&#45;issues&#45;backend.md + install/テンプレート）。内容の一次情報はworkflow.pfdslのops_skill_l3&#10;location: ../.claude/skills/pfd&#45;ops/references/github&#45;issues&#45;backend.md, ../.claude/skills/pfd&#45;ops/install/">
<polygon fill="none" stroke="#e67e22" stroke-width="2" points="181.6,-92 16,-92 16,-16.8 181.6,-16.8 181.6,-92"/>
<text xml:space="preserve" text-anchor="middle" x="98.8" y="-75.4" font-family="Times,serif" font-size="14.00">ops_skill_l3</text>
<text xml:space="preserve" text-anchor="middle" x="98.8" y="-58.6" font-family="Times,serif" font-size="14.00">PFD運用フレームワー</text>
<text xml:space="preserve" text-anchor="middle" x="98.8" y="-41.8" font-family="Times,serif" font-size="14.00">ク GitHub</text>
<text xml:space="preserve" text-anchor="middle" x="98.8" y="-25" font-family="Times,serif" font-size="14.00">Issuesバックエンド層</text>
</a>
</g>
<text xml:space="preserve" text-anchor="middle" x="10.17" y="-4.2" font-family="Times,serif" font-size="14.00">f2</text>
</g>
<!-- ops_skill_l3&#45;&gt;bundle_skills -->
<g id="edge25" class="edge">
<title>ops_skill_l3&#45;&gt;bundle_skills</title>
<path fill="none" stroke="black" d="M177.85,-92.93C181.88,-95.37 185.82,-97.86 189.6,-100.4 213.76,-116.6 238.59,-137.61 258.04,-155.26"/>
<polygon fill="black" stroke="black" points="255.46,-157.64 265.19,-161.82 260.19,-152.48 255.46,-157.64"/>
</g>
<!-- pfdsl_skill -->
<g id="node17" class="node">
<title>pfdsl_skill</title>
<g id="a_node17"><a xlink:title="PFD読み書き分析skill&#10;&#10;AIエージェントに.pfdsl操作（check/fmt/graph/diff/sort&#45;meta等のCLIコマンド）を指示するスキル。bの呼び出し元（ホスト）でもあるが、その関係はデータフローではないため、図にはbundle_skillsへの素材提供のみが現れる&#10;location: ../.claude/skills/pfdsl/">
<polygon fill="none" stroke="#f39c12" stroke-width="2" points="181.6,-151.2 16,-151.2 16,-109.6 181.6,-109.6 181.6,-151.2"/>
<text xml:space="preserve" text-anchor="middle" x="98.8" y="-134.6" font-family="Times,serif" font-size="14.00">pfdsl_skill</text>
<text xml:space="preserve" text-anchor="middle" x="98.8" y="-117.8" font-family="Times,serif" font-size="14.00">PFD読み書き分析skill</text>
</a>
</g>
<text xml:space="preserve" text-anchor="middle" x="12.89" y="-97" font-family="Times,serif" font-size="14.00">c</text>
</g>
<!-- pfdsl_skill&#45;&gt;bundle_skills -->
<g id="edge23" class="edge">
<title>pfdsl_skill&#45;&gt;bundle_skills</title>
<path fill="none" stroke="black" d="M170.45,-152.15C187.78,-157.48 206.33,-163.19 223.67,-168.53"/>
<polygon fill="black" stroke="black" points="222.26,-171.75 232.85,-171.35 224.32,-165.06 222.26,-171.75"/>
</g>
<!-- retro_skill -->
<g id="node18" class="node">
<title>retro_skill</title>
<g id="a_node18"><a xlink:title="ふりかえり監査スキル&#10;&#10;内容の一次情報はworkflow.pfdsl。ここではskill_source_bundleへの同梱対象としてのみ扱う&#10;location: ../.claude/skills/pfd&#45;retro/">
<polygon fill="none" stroke="black" stroke-width="2" points="181.6,-211.2 16,-211.2 16,-169.6 181.6,-169.6 181.6,-211.2"/>
<text xml:space="preserve" text-anchor="middle" x="98.8" y="-194.6" font-family="Times,serif" font-size="14.00">retro_skill</text>
<text xml:space="preserve" text-anchor="middle" x="98.8" y="-177.8" font-family="Times,serif" font-size="14.00">ふりかえり監査スキル</text>
</a>
</g>
</g>
<!-- retro_skill&#45;&gt;bundle_skills -->
<g id="edge26" class="edge">
<title>retro_skill&#45;&gt;bundle_skills</title>
<path fill="none" stroke="black" d="M182.47,-190.4C190.21,-190.4 198.08,-190.4 205.87,-190.4"/>
<polygon fill="black" stroke="black" points="205.69,-193.9 215.69,-190.4 205.69,-186.9 205.69,-193.9"/>
</g>
<!-- skill_source_bundle -->
<g id="node29" class="node">
<title>skill_source_bundle</title>
<g id="a_node29"><a xlink:title="配布対象スキル束&#10;&#10;4スキルツリーとcommands/pfd&#45;*.mdをdist/へバンドルし公開npmパッケージへ同梱したもの。開発/テスト実行時はresolveSkillRootがdist不在ならリポの.claude/skills/&lt;name&gt;へフォールバックする">
<polygon fill="none" stroke="black" points="568.27,-211.2 409.87,-211.2 409.87,-169.6 568.27,-169.6 568.27,-211.2"/>
<text xml:space="preserve" text-anchor="middle" x="489.07" y="-194.6" font-family="Times,serif" font-size="14.00">skill_source_bundle</text>
<text xml:space="preserve" text-anchor="middle" x="489.07" y="-177.8" font-family="Times,serif" font-size="14.00">配布対象スキル束</text>
</a>
</g>
</g>
<!-- bundle_skills&#45;&gt;skill_source_bundle -->
<g id="edge28" class="edge">
<title>bundle_skills&#45;&gt;skill_source_bundle</title>
<path fill="none" stroke="black" d="M374.28,-190.4C382.17,-190.4 390.22,-190.4 398.23,-190.4"/>
<polygon fill="black" stroke="black" points="397.97,-193.9 407.97,-190.4 397.97,-186.9 397.97,-193.9"/>
</g>
<!-- diff_graphs&#45;&gt;diff_report -->
<g id="edge22" class="edge">
<title>diff_graphs&#45;&gt;diff_report</title>
<path fill="none" stroke="black" d="M1090.97,-369.5C1106.44,-392.98 1129.05,-427.35 1148.71,-457.4 1183.05,-509.88 1222.81,-571.06 1246.24,-607.16"/>
<polygon fill="black" stroke="black" points="1243.2,-608.89 1251.58,-615.38 1249.07,-605.08 1243.2,-608.89"/>
</g>
<!-- ensure_labels&#45;&gt;gh_labels -->
<g id="edge36" class="edge">
<title>ensure_labels&#45;&gt;gh_labels</title>
<path fill="none" stroke="black" d="M1124.19,-82C1144.84,-89.02 1169.02,-97.25 1191.52,-104.9"/>
<polygon fill="black" stroke="black" points="1190.39,-108.21 1200.98,-108.12 1192.64,-101.58 1190.39,-108.21"/>
</g>
<!-- export_image&#45;&gt;rendered_image -->
<g id="edge16" class="edge">
<title>export_image&#45;&gt;rendered_image</title>
<path fill="none" stroke="black" d="M1502.14,-591.67C1518.83,-598.22 1537.76,-605.65 1555.54,-612.63"/>
<polygon fill="black" stroke="black" points="1553.85,-615.73 1564.44,-616.12 1556.41,-609.21 1553.85,-615.73"/>
</g>
<!-- export_metadata&#45;&gt;metadata_tsv -->
<g id="edge19" class="edge">
<title>export_metadata&#45;&gt;metadata_tsv</title>
<path fill="none" stroke="black" d="M1080.23,-601.86C1093.86,-647.92 1126.32,-737.04 1184.71,-788.4 1189,-792.17 1193.81,-795.49 1198.89,-798.4"/>
<polygon fill="black" stroke="black" points="1197.07,-801.4 1207.56,-802.81 1200.24,-795.16 1197.07,-801.4"/>
</g>
<!-- format -->
<g id="node24" class="node">
<title>format</title>
<g id="a_node24"><a xlink:title="整形&#10;&#10;ソースを独立に再lex/parseし正準整形済みテキストを生成する（parseの出力を再利用しない別経路）&#10;command: npx @pfdsl/cli fmt &#45;&#45;write&#10;location: ../packages/core/src/formatter.ts">
<ellipse fill="none" stroke="#27ae60" cx="295.74" cy="-629.4" rx="37.7" ry="29.42"/>
<text xml:space="preserve" text-anchor="middle" x="295.74" y="-633.6" font-family="Times,serif" font-size="14.00">format</text>
<text xml:space="preserve" text-anchor="middle" x="295.74" y="-616.8" font-family="Times,serif" font-size="14.00">整形</text>
</a>
</g>
<text xml:space="preserve" text-anchor="middle" x="254.53" y="-587.38" font-family="Times,serif" font-size="14.00">b</text>
</g>
<!-- format&#45;&gt;formatted_source -->
<g id="edge9" class="edge">
<title>format&#45;&gt;formatted_source</title>
<path fill="none" stroke="black" d="M333.63,-631.14C354.91,-632.14 382.53,-633.44 408.52,-634.66"/>
<polygon fill="black" stroke="black" points="408.26,-638.15 418.41,-635.12 408.59,-631.16 408.26,-638.15"/>
</g>
<!-- normalize&#45;&gt;normalized_graph -->
<g id="edge4" class="edge">
<title>normalize&#45;&gt;normalized_graph</title>
<path fill="none" stroke="black" d="M731.91,-444.21C754.57,-451.96 782.91,-461.66 808.82,-470.52"/>
<polygon fill="black" stroke="black" points="807.34,-473.71 817.94,-473.64 809.61,-467.09 807.34,-473.71"/>
</g>
<!-- parse -->
<g id="node26" class="node">
<title>parse</title>
<g id="a_node26"><a xlink:title="構文解析&#10;&#10;frontmatter読込・lex・parseの3段を1トランザクションで実行しdocument+frontmatterを得る。CLI（c経由）・VSCode拡張（d）双方の全コマンドが内部で通る&#10;location: ../packages/core/src/index.ts">
<ellipse fill="none" stroke="#27ae60" cx="295.74" cy="-523.4" rx="41.01" ry="29.42"/>
<text xml:space="preserve" text-anchor="middle" x="295.74" y="-527.6" font-family="Times,serif" font-size="14.00">parse</text>
<text xml:space="preserve" text-anchor="middle" x="295.74" y="-510.8" font-family="Times,serif" font-size="14.00">構文解析</text>
</a>
</g>
<text xml:space="preserve" text-anchor="middle" x="251.22" y="-481.38" font-family="Times,serif" font-size="14.00">b</text>
</g>
<!-- parse&#45;&gt;parsed_doc -->
<g id="edge2" class="edge">
<title>parse&#45;&gt;parsed_doc</title>
<path fill="none" stroke="black" d="M336.38,-517.6C354.37,-514.97 376.44,-511.74 398.12,-508.56"/>
<polygon fill="black" stroke="black" points="398.51,-512.04 407.9,-507.13 397.5,-505.12 398.51,-512.04"/>
</g>
<!-- pfdsl_source -->
<g id="node27" class="node">
<title>pfdsl_source</title>
<g id="a_node27"><a xlink:title=".pfdslソースファイル&#10;&#10;ユーザーが記述するfrontmatter+bodyのテキスト">
<polygon fill="none" stroke="black" stroke-width="2" points="181.6,-650.2 16,-650.2 16,-608.6 181.6,-608.6 181.6,-650.2"/>
<text xml:space="preserve" text-anchor="middle" x="98.8" y="-633.6" font-family="Times,serif" font-size="14.00">pfdsl_source</text>
<text xml:space="preserve" text-anchor="middle" x="98.8" y="-616.8" font-family="Times,serif" font-size="14.00">.pfdslソースファイル</text>
</a>
</g>
</g>
<!-- pfdsl_source&#45;&gt;format -->
<g id="edge8" class="edge">
<title>pfdsl_source&#45;&gt;format</title>
<path fill="none" stroke="black" d="M182.47,-629.4C204.31,-629.4 227.17,-629.4 246.52,-629.4"/>
<polygon fill="black" stroke="black" points="246.26,-632.9 256.26,-629.4 246.26,-625.9 246.26,-632.9"/>
</g>
<!-- pfdsl_source&#45;&gt;parse -->
<g id="edge1" class="edge">
<title>pfdsl_source&#45;&gt;parse</title>
<path fill="none" stroke="black" d="M139.72,-607.69C172.53,-589.85 218.89,-564.64 252.35,-546.45"/>
<polygon fill="black" stroke="black" points="253.85,-549.62 260.96,-541.76 250.5,-543.47 253.85,-549.62"/>
</g>
<!-- sort_meta -->
<g id="node30" class="node">
<title>sort_meta</title>
<g id="a_node30"><a xlink:title="ノード定義ソート&#10;&#10;ソースを再parseし、指定キーでfrontmatterのノード定義を並べ替えたテキストを生成する&#10;command: npx @pfdsl/cli sort&#45;meta&#10;location: ../packages/core/src/sort.ts">
<ellipse fill="none" stroke="#27ae60" cx="295.74" cy="-706.4" rx="70.71" ry="29.42"/>
<text xml:space="preserve" text-anchor="middle" x="295.74" y="-710.6" font-family="Times,serif" font-size="14.00">sort_meta</text>
<text xml:space="preserve" text-anchor="middle" x="295.74" y="-693.8" font-family="Times,serif" font-size="14.00">ノード定義ソート</text>
</a>
</g>
<text xml:space="preserve" text-anchor="middle" x="221.52" y="-664.38" font-family="Times,serif" font-size="14.00">b</text>
</g>
<!-- pfdsl_source&#45;&gt;sort_meta -->
<g id="edge10" class="edge">
<title>pfdsl_source&#45;&gt;sort_meta</title>
<path fill="none" stroke="black" d="M154.88,-651.16C179.21,-660.77 207.92,-672.11 232.98,-682.01"/>
<polygon fill="black" stroke="black" points="231.48,-685.18 242.06,-685.59 234.05,-678.66 231.48,-685.18"/>
</g>
<!-- render_graph&#45;&gt;dot_graph -->
<g id="edge14" class="edge">
<title>render_graph&#45;&gt;dot_graph</title>
<path fill="none" stroke="black" d="M1078.95,-524.76C1091.27,-573.67 1122.51,-671.99 1184.71,-728.4 1192.86,-735.79 1202.98,-741.4 1213.3,-745.65"/>
<polygon fill="black" stroke="black" points="1212.03,-748.92 1222.62,-749.08 1214.45,-742.35 1212.03,-748.92"/>
</g>
<!-- sync_commands -->
<g id="node31" class="node">
<title>sync_commands</title>
<g id="a_node31"><a xlink:title="コマンド同期&#10;&#10;skill_source_bundleのcommands/のうちpfd&#45;*.mdパターンに一致するものだけを採用リポの.claude/commands/へコピーする&#10;command: npx @pfdsl/cli skill sync&#10;location: ../packages/cli/src/skill&#45;sync.ts">
<ellipse fill="none" stroke="#16a085" cx="687.61" cy="-113.4" rx="77.3" ry="29.42"/>
<text xml:space="preserve" text-anchor="middle" x="687.61" y="-117.6" font-family="Times,serif" font-size="14.00">sync_commands</text>
<text xml:space="preserve" text-anchor="middle" x="687.61" y="-100.8" font-family="Times,serif" font-size="14.00">コマンド同期</text>
</a>
</g>
<text xml:space="preserve" text-anchor="middle" x="606.81" y="-71.38" font-family="Times,serif" font-size="14.00">g</text>
</g>
<!-- skill_source_bundle&#45;&gt;sync_commands -->
<g id="edge31" class="edge">
<title>skill_source_bundle&#45;&gt;sync_commands</title>
<path fill="none" stroke="black" d="M544.3,-169.16C568.46,-159.69 597.09,-148.47 622.32,-138.59"/>
<polygon fill="black" stroke="black" points="623.46,-141.9 631.49,-134.99 620.91,-135.38 623.46,-141.9"/>
</g>
<!-- sync_install_layer -->
<g id="node32" class="node">
<title>sync_install_layer</title>
<g id="a_node32"><a xlink:title="L3レイヤー同期&#10;&#10;バンドル内pfd&#45;ops/install/を採用リポルートへコピーする。採用リポでL3採用済み（install/由来ファイルが1つ以上存在）の場合のみ実行し、未採用時は案内メッセージのみでファイルを生成しない&#10;command: npx @pfdsl/cli skill sync&#10;location: ../packages/cli/src/skill&#45;sync.ts">
<ellipse fill="none" stroke="#16a085" cx="687.61" cy="-267.4" rx="83.34" ry="29.42"/>
<text xml:space="preserve" text-anchor="middle" x="687.61" y="-271.6" font-family="Times,serif" font-size="14.00">sync_install_layer</text>
<text xml:space="preserve" text-anchor="middle" x="687.61" y="-254.8" font-family="Times,serif" font-size="14.00">L3レイヤー同期</text>
</a>
</g>
<text xml:space="preserve" text-anchor="middle" x="600.77" y="-225.38" font-family="Times,serif" font-size="14.00">g</text>
</g>
<!-- skill_source_bundle&#45;&gt;sync_install_layer -->
<g id="edge33" class="edge">
<title>skill_source_bundle&#45;&gt;sync_install_layer</title>
<path fill="none" stroke="black" d="M544.3,-211.64C567.86,-220.88 595.68,-231.78 620.45,-241.48"/>
<polygon fill="black" stroke="black" points="618.86,-244.61 629.44,-245 621.41,-238.1 618.86,-244.61"/>
</g>
<!-- sync_skill_tree -->
<g id="node33" class="node">
<title>sync_skill_tree</title>
<g id="a_node33"><a xlink:title="スキルツリー同期&#10;&#10;skill_source_bundleの各スキルツリーを採用リポの.claude/skills/へミラーコピーする（エントリ単位でrm→cpの破壊的コピー。削除・改名を反映する）&#10;command: npx @pfdsl/cli skill sync&#10;location: ../packages/cli/src/skill&#45;sync.ts">
<ellipse fill="none" stroke="#16a085" cx="687.61" cy="-190.4" rx="71.25" ry="29.42"/>
<text xml:space="preserve" text-anchor="middle" x="687.61" y="-194.6" font-family="Times,serif" font-size="14.00">sync_skill_tree</text>
<text xml:space="preserve" text-anchor="middle" x="687.61" y="-177.8" font-family="Times,serif" font-size="14.00">スキルツリー同期</text>
</a>
</g>
<text xml:space="preserve" text-anchor="middle" x="612.86" y="-148.38" font-family="Times,serif" font-size="14.00">g</text>
</g>
<!-- skill_source_bundle&#45;&gt;sync_skill_tree -->
<g id="edge29" class="edge">
<title>skill_source_bundle&#45;&gt;sync_skill_tree</title>
<path fill="none" stroke="black" d="M568.6,-190.4C580.51,-190.4 592.82,-190.4 604.8,-190.4"/>
<polygon fill="black" stroke="black" points="604.65,-193.9 614.64,-190.4 604.64,-186.9 604.65,-193.9"/>
</g>
<!-- sort_meta&#45;&gt;sorted_source -->
<g id="edge11" class="edge">
<title>sort_meta&#45;&gt;sorted_source</title>
<path fill="none" stroke="black" d="M366.9,-706.4C380.39,-706.4 394.62,-706.4 408.4,-706.4"/>
<polygon fill="black" stroke="black" points="408.32,-709.9 418.32,-706.4 408.32,-702.9 408.32,-709.9"/>
</g>
<!-- sync_commands&#45;&gt;installed_commands -->
<g id="edge32" class="edge">
<title>sync_commands&#45;&gt;installed_commands</title>
<path fill="none" stroke="black" d="M763.48,-120C773.75,-120.9 784.36,-121.84 794.82,-122.76"/>
<polygon fill="black" stroke="black" points="794.31,-126.23 804.58,-123.62 794.93,-119.25 794.31,-126.23"/>
</g>
<!-- sync_install_layer&#45;&gt;installed_l3_layer -->
<g id="edge34" class="edge">
<title>sync_install_layer&#45;&gt;installed_l3_layer</title>
<path fill="none" stroke="black" d="M769.04,-260.31C777.67,-259.55 786.47,-258.78 795.16,-258.01"/>
<polygon fill="black" stroke="black" points="795.34,-261.51 805,-257.15 794.73,-254.54 795.34,-261.51"/>
</g>
<!-- sync_skill_tree&#45;&gt;installed_skills -->
<g id="edge30" class="edge">
<title>sync_skill_tree&#45;&gt;installed_skills</title>
<path fill="none" stroke="black" d="M759.09,-190.4C773.02,-190.4 787.73,-190.4 801.94,-190.4"/>
<polygon fill="black" stroke="black" points="801.69,-193.9 811.69,-190.4 801.69,-186.9 801.69,-193.9"/>
</g>
<!-- validate&#45;&gt;diagnostics_report -->
<g id="edge7" class="edge">
<title>validate&#45;&gt;diagnostics_report</title>
<path fill="none" stroke="black" d="M1092.88,-444.18C1109.94,-466.81 1133.8,-501.2 1148.71,-534.4 1173.97,-590.66 1143.09,-622.9 1184.71,-668.4 1185.07,-668.79 1185.43,-669.18 1185.8,-669.56"/>
<polygon fill="black" stroke="black" points="1183.23,-671.96 1193.09,-675.85 1187.81,-666.66 1183.23,-671.96"/>
</g>
</g>
</svg>
