<?xml version="1.0" encoding="UTF-8" standalone="no"?>
<!DOCTYPE svg PUBLIC "-//W3C//DTD SVG 1.1//EN"
 "http://www.w3.org/Graphics/SVG/1.1/DTD/svg11.dtd">
<!-- Generated by graphviz version 15.1.0 (0)
 -->
<!-- Title: PFDSL Pages: 1 -->
<svg width="1715pt" height="959pt"
 viewBox="0.00 0.00 1715.00 959.00" xmlns="http://www.w3.org/2000/svg" xmlns:xlink="http://www.w3.org/1999/xlink">
<g id="graph0" class="graph" transform="scale(1 1) rotate(0) translate(4 955.02)">
<title>PFDSL</title>
<polygon fill="white" stroke="none" points="-4,4 -4,-955.02 1710.6,-955.02 1710.6,4 -4,4"/>
<text xml:space="preserve" text-anchor="middle" x="853.3" y="-934.42" font-family="Times,serif" font-size="14.00">pfdsl CLI 変換パイプライン</text>
<g id="clust1" class="cluster">
<title>cluster_adopter_repo</title>
<polygon fill="#eafaf1" stroke="#a4afa9" points="798.95,-83.22 798.95,-346.22 1358.31,-346.22 1358.31,-83.22 798.95,-83.22"/>
<text xml:space="preserve" text-anchor="middle" x="1078.63" y="-329.62" font-family="Times,serif" font-size="14.00">採用リポ</text>
</g>
<g id="clust2" class="cluster">
<title>cluster_in_memory</title>
<polygon fill="#e8f4fd" stroke="#a2abb1" points="401.87,-512.22 401.87,-595.22 958.95,-595.22 958.95,-512.22 401.87,-512.22"/>
<text xml:space="preserve" text-anchor="middle" x="680.41" y="-578.62" font-family="Times,serif" font-size="14.00">処理系内の中間表現（メモリ内・保存されない）</text>
</g>
<g id="clust3" class="cluster">
<title>cluster_run_outputs</title>
<polygon fill="#f3e8fd" stroke="#aaa2b1" points="412.67,-655.22 412.67,-918.22 1698.6,-918.22 1698.6,-655.22 412.67,-655.22"/>
<text xml:space="preserve" text-anchor="middle" x="1055.63" y="-901.62" font-family="Times,serif" font-size="14.00">実行結果（stdout・ファイル・エディタ表示）</text>
</g>
<g id="clust4" class="cluster">
<title>cluster_skill_sources</title>
<polygon fill="#fef9e7" stroke="#b2aea2" points="8,-26.22 8,-398.22 189.6,-398.22 189.6,-26.22 8,-26.22"/>
<text xml:space="preserve" text-anchor="middle" x="98.8" y="-381.62" font-family="Times,serif" font-size="14.00">配布素材（このリポの .claude/）</text>
</g>
<!-- gh_labels -->
<g id="node1" class="node">
<title>gh_labels</title>
<g id="a_node1"><a xlink:title="GitHubラベル整備結果&#10;&#10;flow:managed / flow:exempt ラベルの存在保証（gh CLI経由）&#10;externalStakeholders: 採用リポのGitHubリポジトリ">
<polygon fill="none" stroke="black" stroke-width="2" points="1350.31,-133.02 1184.71,-133.02 1184.71,-91.42 1350.31,-91.42 1350.31,-133.02"/>
<text xml:space="preserve" text-anchor="middle" x="1267.51" y="-116.42" font-family="Times,serif" font-size="14.00">gh_labels</text>
<text xml:space="preserve" text-anchor="middle" x="1267.51" y="-99.62" font-family="Times,serif" font-size="14.00">GitHubラベル整備結果</text>
</a>
</g>
</g>
<!-- installed_agents -->
<g id="node2" class="node">
<title>installed_agents</title>
<g id="a_node2"><a xlink:title="導入済みagent定義&#10;&#10;採用リポ&lt;target&gt;/.claude/agents/pfd&#45;*.mdへのコピー結果（#357）&#10;externalStakeholders: 採用リポのAIエージェント">
<polygon fill="none" stroke="black" stroke-width="2" points="954.55,-193.02 810.55,-193.02 810.55,-151.42 954.55,-151.42 954.55,-193.02"/>
<text xml:space="preserve" text-anchor="middle" x="882.55" y="-176.42" font-family="Times,serif" font-size="14.00">installed_agents</text>
<text xml:space="preserve" text-anchor="middle" x="882.55" y="-159.62" font-family="Times,serif" font-size="14.00">導入済みagent定義</text>
</a>
</g>
</g>
<!-- installed_commands -->
<g id="node3" class="node">
<title>installed_commands</title>
<g id="a_node3"><a xlink:title="導入済みコマンド&#10;&#10;採用リポ&lt;target&gt;/.claude/commands/pfd&#45;*.mdへのコピー結果&#10;externalStakeholders: 採用リポのAIエージェント">
<polygon fill="none" stroke="black" stroke-width="2" points="958.15,-133.02 806.95,-133.02 806.95,-91.42 958.15,-91.42 958.15,-133.02"/>
<text xml:space="preserve" text-anchor="middle" x="882.55" y="-116.42" font-family="Times,serif" font-size="14.00">installed_commands</text>
<text xml:space="preserve" text-anchor="middle" x="882.55" y="-99.62" font-family="Times,serif" font-size="14.00">導入済みコマンド</text>
</a>
</g>
</g>
<!-- installed_l3_layer -->
<g id="node4" class="node">
<title>installed_l3_layer</title>
<g id="a_node4"><a xlink:title="導入済みL3レイヤー&#10;&#10;install/由来ファイル（GitHub Actionsワークフロー・監査スクリプト）の採用リポルートへのコピー結果&#10;externalStakeholders: 採用リポのGitHub Actions">
<polygon fill="none" stroke="black" points="958.15,-313.02 806.95,-313.02 806.95,-271.42 958.15,-271.42 958.15,-313.02"/>
<text xml:space="preserve" text-anchor="middle" x="882.55" y="-296.42" font-family="Times,serif" font-size="14.00">installed_l3_layer</text>
<text xml:space="preserve" text-anchor="middle" x="882.55" y="-279.62" font-family="Times,serif" font-size="14.00">導入済みL3レイヤー</text>
</a>
</g>
</g>
<!-- ensure_labels -->
<g id="node22" class="node">
<title>ensure_labels</title>
<g id="a_node22"><a xlink:title="ラベル保証&#10;&#10;L3同期が行われた場合のみ、flow:managed / flow:exemptラベルの存在をgh CLIで確認・作成する（&#45;&#45;yes未指定時は対話確認）&#10;location: ../packages/cli/src/skill&#45;sync.ts">
<ellipse fill="none" stroke="#16a085" cx="1071.43" cy="-46.22" rx="65.19" ry="29.42"/>
<text xml:space="preserve" text-anchor="middle" x="1071.43" y="-50.42" font-family="Times,serif" font-size="14.00">ensure_labels</text>
<text xml:space="preserve" text-anchor="middle" x="1071.43" y="-33.62" font-family="Times,serif" font-size="14.00">ラベル保証</text>
</a>
</g>
<text xml:space="preserve" text-anchor="middle" x="1002.74" y="-4.2" font-family="Times,serif" font-size="14.00">g</text>
</g>
<!-- installed_l3_layer&#45;&gt;ensure_labels -->
<g id="edge37" class="edge">
<title>installed_l3_layer&#45;&gt;ensure_labels</title>
<path fill="none" stroke="black" d="M947.31,-270.92C951.47,-268.33 955.4,-265.43 958.95,-262.22 1012.21,-213.93 1043.95,-134.27 1059.23,-86.36"/>
<polygon fill="black" stroke="black" points="1062.53,-87.52 1062.14,-76.93 1055.85,-85.45 1062.53,-87.52"/>
</g>
<!-- installed_skills -->
<g id="node5" class="node">
<title>installed_skills</title>
<g id="a_node5"><a xlink:title="導入済みスキル&#10;&#10;採用リポ&lt;target&gt;/.claude/skills/{pfd&#45;ops,pfd&#45;retro,pfd&#45;ecosystem,pfdsl}/へのミラーコピー結果&#10;externalStakeholders: 採用リポのAIエージェント">
<polygon fill="none" stroke="black" stroke-width="2" points="950.95,-253.02 814.15,-253.02 814.15,-211.42 950.95,-211.42 950.95,-253.02"/>
<text xml:space="preserve" text-anchor="middle" x="882.55" y="-236.42" font-family="Times,serif" font-size="14.00">installed_skills</text>
<text xml:space="preserve" text-anchor="middle" x="882.55" y="-219.62" font-family="Times,serif" font-size="14.00">導入済みスキル</text>
</a>
</g>
</g>
<!-- normalized_graph -->
<g id="node6" class="node">
<title>normalized_graph</title>
<g id="a_node6"><a xlink:title="正準化グラフ&#10;&#10;正規化済みエッジ・ノード種別・isolatedノード集合とGraph構造。validate/render_graph/export_metadata/diff_graphsの共通入力。CLI normalizeコマンドはこれをJSONで直接出力する&#10;externalStakeholders: CLIユーザー">
<polygon fill="none" stroke="black" points="950.95,-562.02 814.15,-562.02 814.15,-520.42 950.95,-520.42 950.95,-562.02"/>
<text xml:space="preserve" text-anchor="middle" x="882.55" y="-545.42" font-family="Times,serif" font-size="14.00">normalized_graph</text>
<text xml:space="preserve" text-anchor="middle" x="882.55" y="-528.62" font-family="Times,serif" font-size="14.00">正準化グラフ</text>
</a>
</g>
</g>
<!-- diff_graphs -->
<g id="node21" class="node">
<title>diff_graphs</title>
<g id="a_node21"><a xlink:title="差分算出&#10;&#10;2つの正準化グラフ（とそれぞれのfrontmatter）の構造差分を計算する&#10;command: npx @pfdsl/cli diff&#10;location: ../packages/core/src/diff.ts">
<ellipse fill="none" stroke="#27ae60" cx="1071.43" cy="-387.22" rx="56.95" ry="29.42"/>
<text xml:space="preserve" text-anchor="middle" x="1071.43" y="-391.42" font-family="Times,serif" font-size="14.00">diff_graphs</text>
<text xml:space="preserve" text-anchor="middle" x="1071.43" y="-374.62" font-family="Times,serif" font-size="14.00">差分算出</text>
</a>
</g>
<text xml:space="preserve" text-anchor="middle" x="1010.98" y="-345.2" font-family="Times,serif" font-size="14.00">b</text>
</g>
<!-- normalized_graph&#45;&gt;diff_graphs -->
<g id="edge20" class="edge">
<title>normalized_graph&#45;&gt;diff_graphs</title>
<path fill="none" stroke="black" d="M909.15,-520.13C940.8,-494.04 994.98,-449.39 1031.72,-419.11"/>
<polygon fill="black" stroke="black" points="1033.54,-422.15 1039.04,-413.09 1029.09,-416.75 1033.54,-422.15"/>
</g>
<!-- export_metadata -->
<g id="node24" class="node">
<title>export_metadata</title>
<g id="a_node24"><a xlink:title="メタデータ抽出&#10;&#10;正準化グラフとfrontmatterからノードメタデータを抽出しTSV化する。CLIサブコマンドはなくVSCode拡張のエクスポート機能のみが呼ぶ&#10;location: ../packages/metadata&#45;exporter/src/index.ts">
<ellipse fill="none" stroke="#27ae60" cx="1071.43" cy="-618.22" rx="77.28" ry="29.42"/>
<text xml:space="preserve" text-anchor="middle" x="1071.43" y="-622.42" font-family="Times,serif" font-size="14.00">export_metadata</text>
<text xml:space="preserve" text-anchor="middle" x="1071.43" y="-605.62" font-family="Times,serif" font-size="14.00">メタデータ抽出</text>
</a>
</g>
<text xml:space="preserve" text-anchor="middle" x="990.65" y="-576.2" font-family="Times,serif" font-size="14.00">b</text>
</g>
<!-- normalized_graph&#45;&gt;export_metadata -->
<g id="edge17" class="edge">
<title>normalized_graph&#45;&gt;export_metadata</title>
<path fill="none" stroke="black" d="M935.11,-562.46C957.51,-571.69 983.94,-582.58 1007.48,-592.28"/>
<polygon fill="black" stroke="black" points="1006.09,-595.49 1016.67,-596.06 1008.75,-589.02 1006.09,-595.49"/>
</g>
<!-- render_graph -->
<g id="node29" class="node">
<title>render_graph</title>
<g id="a_node29"><a xlink:title="DOT変換&#10;&#10;正準化グラフとfrontmatter（スタイル・タイトル）からGraphviz DOTを構築する&#10;command: npx @pfdsl/cli graph&#10;location: ../packages/graphviz&#45;exporter/src/index.ts">
<ellipse fill="none" stroke="#27ae60" cx="1071.43" cy="-541.22" rx="64.08" ry="29.42"/>
<text xml:space="preserve" text-anchor="middle" x="1071.43" y="-545.42" font-family="Times,serif" font-size="14.00">render_graph</text>
<text xml:space="preserve" text-anchor="middle" x="1071.43" y="-528.62" font-family="Times,serif" font-size="14.00">DOT変換</text>
</a>
</g>
<text xml:space="preserve" text-anchor="middle" x="1003.85" y="-499.2" font-family="Times,serif" font-size="14.00">b</text>
</g>
<!-- normalized_graph&#45;&gt;render_graph -->
<g id="edge12" class="edge">
<title>normalized_graph&#45;&gt;render_graph</title>
<path fill="none" stroke="black" d="M951.29,-541.22C965.77,-541.22 981.15,-541.22 995.87,-541.22"/>
<polygon fill="black" stroke="black" points="995.46,-544.72 1005.46,-541.22 995.46,-537.72 995.46,-544.72"/>
</g>
<!-- validate -->
<g id="node36" class="node">
<title>validate</title>
<g id="a_node36"><a xlink:title="検証&#10;&#10;正準化グラフとfrontmatterにV/Wルールを適用し診断を生成する。ルールの一次情報docs/spec/spec.md（a層）は設計時にこの実装へ反映されるもので、実行時の入力ではない&#10;command: npx @pfdsl/cli check&#10;location: ../packages/core/src/validator.ts">
<ellipse fill="none" stroke="#27ae60" cx="1071.43" cy="-464.22" rx="42.65" ry="29.42"/>
<text xml:space="preserve" text-anchor="middle" x="1071.43" y="-468.42" font-family="Times,serif" font-size="14.00">validate</text>
<text xml:space="preserve" text-anchor="middle" x="1071.43" y="-451.62" font-family="Times,serif" font-size="14.00">検証</text>
</a>
</g>
<text xml:space="preserve" text-anchor="middle" x="1025.29" y="-422.2" font-family="Times,serif" font-size="14.00">b</text>
</g>
<!-- normalized_graph&#45;&gt;validate -->
<g id="edge5" class="edge">
<title>normalized_graph&#45;&gt;validate</title>
<path fill="none" stroke="black" d="M935.11,-519.97C962.87,-508.54 996.84,-494.54 1023.8,-483.43"/>
<polygon fill="black" stroke="black" points="1024.82,-486.79 1032.74,-479.75 1022.16,-480.32 1024.82,-486.79"/>
</g>
<!-- parsed_doc -->
<g id="node7" class="node">
<title>parsed_doc</title>
<g id="a_node7"><a xlink:title="構文木・frontmatter&#10;&#10;frontmatter読込・lex・parseの出力（document構造とfrontmatter）">
<polygon fill="none" stroke="black" points="568.27,-562.02 409.87,-562.02 409.87,-520.42 568.27,-520.42 568.27,-562.02"/>
<text xml:space="preserve" text-anchor="middle" x="489.07" y="-545.42" font-family="Times,serif" font-size="14.00">parsed_doc</text>
<text xml:space="preserve" text-anchor="middle" x="489.07" y="-528.62" font-family="Times,serif" font-size="14.00">構文木・frontmatter</text>
</a>
</g>
</g>
<!-- parsed_doc&#45;&gt;diff_graphs -->
<g id="edge21" class="edge">
<title>parsed_doc&#45;&gt;diff_graphs</title>
<path fill="none" stroke="black" d="M500.6,-520.05C517.53,-488.64 554.08,-430.75 604.27,-406.22 735.6,-342.01 913.44,-358.89 1006.94,-374.44"/>
<polygon fill="black" stroke="black" points="1006.25,-377.87 1016.7,-376.11 1007.44,-370.97 1006.25,-377.87"/>
</g>
<!-- parsed_doc&#45;&gt;export_metadata -->
<g id="edge18" class="edge">
<title>parsed_doc&#45;&gt;export_metadata</title>
<path fill="none" stroke="black" d="M513.89,-562.18C535.71,-579.89 569.76,-603.97 604.27,-614.22 734.18,-652.8 893.58,-642.62 988.31,-630.96"/>
<polygon fill="black" stroke="black" points="988.56,-634.46 998.04,-629.73 987.68,-627.51 988.56,-634.46"/>
</g>
<!-- normalize -->
<g id="node26" class="node">
<title>normalize</title>
<g id="a_node26"><a xlink:title="正規化&#10;&#10;エッジリストとノード種別を正規化しGraphを構築する&#10;command: npx @pfdsl/cli normalize&#10;location: ../packages/core/src/normalizer.ts">
<ellipse fill="none" stroke="#27ae60" cx="687.61" cy="-475.22" rx="50.89" ry="29.42"/>
<text xml:space="preserve" text-anchor="middle" x="687.61" y="-479.42" font-family="Times,serif" font-size="14.00">normalize</text>
<text xml:space="preserve" text-anchor="middle" x="687.61" y="-462.62" font-family="Times,serif" font-size="14.00">正規化</text>
</a>
</g>
<text xml:space="preserve" text-anchor="middle" x="633.22" y="-433.2" font-family="Times,serif" font-size="14.00">b</text>
</g>
<!-- parsed_doc&#45;&gt;normalize -->
<g id="edge3" class="edge">
<title>parsed_doc&#45;&gt;normalize</title>
<path fill="none" stroke="black" d="M553.34,-519.97C578.74,-511.44 607.73,-501.71 632.16,-493.5"/>
<polygon fill="black" stroke="black" points="633.24,-496.83 641.61,-490.33 631.02,-490.19 633.24,-496.83"/>
</g>
<!-- parsed_doc&#45;&gt;render_graph -->
<g id="edge13" class="edge">
<title>parsed_doc&#45;&gt;render_graph</title>
<path fill="none" stroke="black" d="M547.4,-562.42C565.35,-568.07 585.4,-573.39 604.27,-576.22 760.18,-599.57 802.95,-593.95 958.95,-571.22 974.91,-568.89 991.84,-565.06 1007.56,-560.91"/>
<polygon fill="black" stroke="black" points="1008.04,-564.41 1016.77,-558.4 1006.2,-557.66 1008.04,-564.41"/>
</g>
<!-- parsed_doc&#45;&gt;validate -->
<g id="edge6" class="edge">
<title>parsed_doc&#45;&gt;validate</title>
<path fill="none" stroke="black" d="M504.99,-520.35C524.49,-495.09 561.26,-453.87 604.27,-437.22 747.67,-381.7 934.5,-423.28 1021.66,-448.54"/>
<polygon fill="black" stroke="black" points="1020.51,-451.85 1031.09,-451.33 1022.49,-445.14 1020.51,-451.85"/>
</g>
<!-- diagnostics_report -->
<g id="node8" class="node">
<title>diagnostics_report</title>
<g id="a_node8"><a xlink:title="診断結果&#10;&#10;V/Wルールに基づくエラー・警告一覧。CLI checkコマンドの出力で、VSCode拡張は同じvalidateをエディタ内リアルタイム診断に使う&#10;externalStakeholders: CLIユーザー, CI, VSCode拡張ユーザー">
<polygon fill="none" stroke="black" stroke-width="2" points="1343.11,-765.02 1191.91,-765.02 1191.91,-723.42 1343.11,-723.42 1343.11,-765.02"/>
<text xml:space="preserve" text-anchor="middle" x="1267.51" y="-748.42" font-family="Times,serif" font-size="14.00">diagnostics_report</text>
<text xml:space="preserve" text-anchor="middle" x="1267.51" y="-731.62" font-family="Times,serif" font-size="14.00">診断結果</text>
</a>
</g>
</g>
<!-- diff_report -->
<g id="node9" class="node">
<title>diff_report</title>
<g id="a_node9"><a xlink:title="差分レポート&#10;&#10;2つのグラフ間の構造差分（追加・削除・改名ノード等）。この図は単一ドキュメントの変換を軸にモデル化しているため、比較対象の2つ目のグラフは図上に現れない&#10;externalStakeholders: CLIユーザー, VSCode拡張ユーザー">
<polygon fill="none" stroke="black" stroke-width="2" points="1321.51,-705.02 1213.51,-705.02 1213.51,-663.42 1321.51,-663.42 1321.51,-705.02"/>
<text xml:space="preserve" text-anchor="middle" x="1267.51" y="-688.42" font-family="Times,serif" font-size="14.00">diff_report</text>
<text xml:space="preserve" text-anchor="middle" x="1267.51" y="-671.62" font-family="Times,serif" font-size="14.00">差分レポート</text>
</a>
</g>
</g>
<!-- dot_graph -->
<g id="node10" class="node">
<title>dot_graph</title>
<g id="a_node10"><a xlink:title="DOTグラフ&#10;&#10;Graphviz DOT形式テキスト（graphコマンドのデフォルト出力）&#10;externalStakeholders: CLIユーザー">
<polygon fill="none" stroke="black" points="1310.71,-825.02 1224.31,-825.02 1224.31,-783.42 1310.71,-783.42 1310.71,-825.02"/>
<text xml:space="preserve" text-anchor="middle" x="1267.51" y="-808.42" font-family="Times,serif" font-size="14.00">dot_graph</text>
<text xml:space="preserve" text-anchor="middle" x="1267.51" y="-791.62" font-family="Times,serif" font-size="14.00">DOTグラフ</text>
</a>
</g>
</g>
<!-- export_image -->
<g id="node23" class="node">
<title>export_image</title>
<g id="a_node23"><a xlink:title="画像化&#10;&#10;DOTをSVG（wasm、外部依存なし）またはPDF/PNG（puppeteer必須）へ変換する&#10;command: npx @pfdsl/cli graph &#45;&#45;format svg&#10;location: ../packages/preview&#45;engine/src/index.ts">
<ellipse fill="none" stroke="#27ae60" cx="1452.05" cy="-618.22" rx="65.74" ry="29.42"/>
<text xml:space="preserve" text-anchor="middle" x="1452.05" y="-622.42" font-family="Times,serif" font-size="14.00">export_image</text>
<text xml:space="preserve" text-anchor="middle" x="1452.05" y="-605.62" font-family="Times,serif" font-size="14.00">画像化</text>
</a>
</g>
<text xml:space="preserve" text-anchor="middle" x="1382.81" y="-576.2" font-family="Times,serif" font-size="14.00">b</text>
</g>
<!-- dot_graph&#45;&gt;export_image -->
<g id="edge15" class="edge">
<title>dot_graph&#45;&gt;export_image</title>
<path fill="none" stroke="black" d="M1310.9,-796.65C1327.02,-792.17 1344.75,-785.15 1358.31,-774.22 1396.22,-743.66 1422.15,-693.16 1436.76,-657.92"/>
<polygon fill="black" stroke="black" points="1439.89,-659.5 1440.36,-648.92 1433.39,-656.9 1439.89,-659.5"/>
</g>
<!-- formatted_source -->
<g id="node11" class="node">
<title>formatted_source</title>
<g id="a_node11"><a xlink:title="整形済みソース&#10;&#10;ソースからの独立した再parseで生成する正準整形済み.pfdslテキスト&#10;externalStakeholders: CLIユーザー, VSCode拡張ユーザー">
<polygon fill="none" stroke="black" stroke-width="2" points="557.47,-705.02 420.67,-705.02 420.67,-663.42 557.47,-663.42 557.47,-705.02"/>
<text xml:space="preserve" text-anchor="middle" x="489.07" y="-688.42" font-family="Times,serif" font-size="14.00">formatted_source</text>
<text xml:space="preserve" text-anchor="middle" x="489.07" y="-671.62" font-family="Times,serif" font-size="14.00">整形済みソース</text>
</a>
</g>
</g>
<!-- metadata_tsv -->
<g id="node12" class="node">
<title>metadata_tsv</title>
<g id="a_node12"><a xlink:title="メタデータTSV&#10;&#10;ノードのkind/label/description/status/tags/ownerを抽出したタブ区切りテキスト&#10;externalStakeholders: VSCode拡張ユーザー">
<polygon fill="none" stroke="black" stroke-width="2" points="1325.11,-885.02 1209.91,-885.02 1209.91,-843.42 1325.11,-843.42 1325.11,-885.02"/>
<text xml:space="preserve" text-anchor="middle" x="1267.51" y="-868.42" font-family="Times,serif" font-size="14.00">metadata_tsv</text>
<text xml:space="preserve" text-anchor="middle" x="1267.51" y="-851.62" font-family="Times,serif" font-size="14.00">メタデータTSV</text>
</a>
</g>
</g>
<!-- rendered_image -->
<g id="node13" class="node">
<title>rendered_image</title>
<g id="a_node13"><a xlink:title="レンダリング画像&#10;&#10;DOTから変換したSVG（wasm）またはPDF/PNG（puppeteer経由）&#10;externalStakeholders: CLIユーザー, VSCode拡張ユーザー">
<polygon fill="none" stroke="black" stroke-width="2" points="1690.6,-705.02 1553.8,-705.02 1553.8,-663.42 1690.6,-663.42 1690.6,-705.02"/>
<text xml:space="preserve" text-anchor="middle" x="1622.2" y="-688.42" font-family="Times,serif" font-size="14.00">rendered_image</text>
<text xml:space="preserve" text-anchor="middle" x="1622.2" y="-671.62" font-family="Times,serif" font-size="14.00">レンダリング画像</text>
</a>
</g>
</g>
<!-- sorted_source -->
<g id="node14" class="node">
<title>sorted_source</title>
<g id="a_node14"><a xlink:title="ソート済みソース&#10;&#10;指定キーでノード定義を並べ替えた.pfdslテキスト&#10;externalStakeholders: CLIユーザー, VSCode拡張ユーザー">
<polygon fill="none" stroke="black" stroke-width="2" points="557.47,-773.02 420.67,-773.02 420.67,-731.42 557.47,-731.42 557.47,-773.02"/>
<text xml:space="preserve" text-anchor="middle" x="489.07" y="-756.42" font-family="Times,serif" font-size="14.00">sorted_source</text>
<text xml:space="preserve" text-anchor="middle" x="489.07" y="-739.62" font-family="Times,serif" font-size="14.00">ソート済みソース</text>
</a>
</g>
</g>
<!-- ecosystem_skill -->
<g id="node15" class="node">
<title>ecosystem_skill</title>
<g id="a_node15"><a xlink:title="PFDセット構築スキル&#10;&#10;内容の一次情報はworkflow.pfdsl。ここではskill_source_bundleへの同梱対象としてのみ扱う&#10;location: ../.claude/skills/pfd&#45;ecosystem/">
<polygon fill="none" stroke="black" stroke-width="2" points="178,-289.02 19.6,-289.02 19.6,-247.42 178,-247.42 178,-289.02"/>
<text xml:space="preserve" text-anchor="middle" x="98.8" y="-272.42" font-family="Times,serif" font-size="14.00">ecosystem_skill</text>
<text xml:space="preserve" text-anchor="middle" x="98.8" y="-255.62" font-family="Times,serif" font-size="14.00">PFDセット構築スキル</text>
</a>
</g>
</g>
<!-- bundle_skills -->
<g id="node20" class="node">
<title>bundle_skills</title>
<g id="a_node20"><a xlink:title="スキルバンドル生成&#10;&#10;ビルド時（tsup onSuccess）に4スキルツリーとcommands/pfd&#45;*.md・agents/pfd&#45;*.mdをdist/へコピーする。対象4スキル名・agentsパターンはtsup.config.tsとskill&#45;sync.tsの両方にハードコードされ、スキル・agent追加時は両方の更新が必要。fの内容authoringはworkflow.pfdsl側、ここは機械的コピーのみ&#10;location: ../packages/cli/tsup.config.ts">
<ellipse fill="none" stroke="#16a085" cx="295.74" cy="-208.22" rx="78.14" ry="29.42"/>
<text xml:space="preserve" text-anchor="middle" x="295.74" y="-212.42" font-family="Times,serif" font-size="14.00">bundle_skills</text>
<text xml:space="preserve" text-anchor="middle" x="295.74" y="-195.62" font-family="Times,serif" font-size="14.00">スキルバンドル生成</text>
</a>
</g>
<text xml:space="preserve" text-anchor="middle" x="214.1" y="-166.2" font-family="Times,serif" font-size="14.00">g</text>
</g>
<!-- ecosystem_skill&#45;&gt;bundle_skills -->
<g id="edge27" class="edge">
<title>ecosystem_skill&#45;&gt;bundle_skills</title>
<path fill="none" stroke="black" d="M170.45,-246.47C187.78,-241.14 206.33,-235.43 223.67,-230.09"/>
<polygon fill="black" stroke="black" points="224.32,-233.55 232.85,-227.27 222.26,-226.86 224.32,-233.55"/>
</g>
<!-- ops_skill_general -->
<g id="node16" class="node">
<title>ops_skill_general</title>
<g id="a_node16"><a xlink:title="PFD運用フレームワーク 汎用層&#10;&#10;pfd&#45;opsのL1（汎用手順）+L2（ディスパッチ）。SKILL.md本文で配布。L4（リポ固有）は配布対象外でpfd&#45;ops自体に含まれない。内容の一次情報はworkflow.pfdslのops_skill_general&#10;location: ../.claude/skills/pfd&#45;ops/SKILL.md">
<polygon fill="none" stroke="#c0392b" stroke-width="2" points="178,-365.42 19.6,-365.42 19.6,-307.02 178,-307.02 178,-365.42"/>
<text xml:space="preserve" text-anchor="middle" x="98.8" y="-348.82" font-family="Times,serif" font-size="14.00">ops_skill_general</text>
<text xml:space="preserve" text-anchor="middle" x="98.8" y="-332.02" font-family="Times,serif" font-size="14.00">PFD運用フレームワー</text>
<text xml:space="preserve" text-anchor="middle" x="98.8" y="-315.22" font-family="Times,serif" font-size="14.00">ク 汎用層</text>
</a>
</g>
<text xml:space="preserve" text-anchor="middle" x="13.77" y="-294.42" font-family="Times,serif" font-size="14.00">f1</text>
</g>
<!-- ops_skill_general&#45;&gt;bundle_skills -->
<g id="edge24" class="edge">
<title>ops_skill_general&#45;&gt;bundle_skills</title>
<path fill="none" stroke="black" d="M175.63,-306.15C180.44,-303.63 185.14,-300.98 189.6,-298.22 214.52,-282.8 239.55,-261.64 258.94,-243.72"/>
<polygon fill="black" stroke="black" points="261.16,-246.44 266.05,-237.04 256.37,-241.33 261.16,-246.44"/>
</g>
<!-- ops_skill_l3 -->
<g id="node17" class="node">
<title>ops_skill_l3</title>
<g id="a_node17"><a xlink:title="PFD運用フレームワーク GitHub Issuesバックエンド層&#10;&#10;pfd&#45;opsのL3プリセット（references/github&#45;issues&#45;backend.md + install/テンプレート）。内容の一次情報はworkflow.pfdslのops_skill_l3&#10;location: ../.claude/skills/pfd&#45;ops/references/github&#45;issues&#45;backend.md, ../.claude/skills/pfd&#45;ops/install/">
<polygon fill="none" stroke="#e67e22" stroke-width="2" points="181.6,-109.82 16,-109.82 16,-34.62 181.6,-34.62 181.6,-109.82"/>
<text xml:space="preserve" text-anchor="middle" x="98.8" y="-93.22" font-family="Times,serif" font-size="14.00">ops_skill_l3</text>
<text xml:space="preserve" text-anchor="middle" x="98.8" y="-76.42" font-family="Times,serif" font-size="14.00">PFD運用フレームワー</text>
<text xml:space="preserve" text-anchor="middle" x="98.8" y="-59.62" font-family="Times,serif" font-size="14.00">ク GitHub</text>
<text xml:space="preserve" text-anchor="middle" x="98.8" y="-42.82" font-family="Times,serif" font-size="14.00">Issuesバックエンド層</text>
</a>
</g>
<text xml:space="preserve" text-anchor="middle" x="10.17" y="-22.02" font-family="Times,serif" font-size="14.00">f2</text>
</g>
<!-- ops_skill_l3&#45;&gt;bundle_skills -->
<g id="edge25" class="edge">
<title>ops_skill_l3&#45;&gt;bundle_skills</title>
<path fill="none" stroke="black" d="M177.85,-110.75C181.88,-113.18 185.82,-115.68 189.6,-118.22 213.76,-134.42 238.59,-155.43 258.04,-173.07"/>
<polygon fill="black" stroke="black" points="255.46,-175.45 265.19,-179.63 260.19,-170.29 255.46,-175.45"/>
</g>
<!-- pfdsl_skill -->
<g id="node18" class="node">
<title>pfdsl_skill</title>
<g id="a_node18"><a xlink:title="PFD読み書き分析skill&#10;&#10;AIエージェントに.pfdsl操作（check/fmt/graph/diff/sort&#45;meta等のCLIコマンド）を指示するスキル。bの呼び出し元（ホスト）でもあるが、その関係はデータフローではないため、図にはbundle_skillsへの素材提供のみが現れる&#10;location: ../.claude/skills/pfdsl/">
<polygon fill="none" stroke="#f39c12" stroke-width="2" points="181.6,-169.02 16,-169.02 16,-127.42 181.6,-127.42 181.6,-169.02"/>
<text xml:space="preserve" text-anchor="middle" x="98.8" y="-152.42" font-family="Times,serif" font-size="14.00">pfdsl_skill</text>
<text xml:space="preserve" text-anchor="middle" x="98.8" y="-135.62" font-family="Times,serif" font-size="14.00">PFD読み書き分析skill</text>
</a>
</g>
<text xml:space="preserve" text-anchor="middle" x="12.89" y="-114.82" font-family="Times,serif" font-size="14.00">c</text>
</g>
<!-- pfdsl_skill&#45;&gt;bundle_skills -->
<g id="edge23" class="edge">
<title>pfdsl_skill&#45;&gt;bundle_skills</title>
<path fill="none" stroke="black" d="M170.45,-169.96C187.78,-175.29 206.33,-181 223.67,-186.34"/>
<polygon fill="black" stroke="black" points="222.26,-189.57 232.85,-189.17 224.32,-182.88 222.26,-189.57"/>
</g>
<!-- retro_skill -->
<g id="node19" class="node">
<title>retro_skill</title>
<g id="a_node19"><a xlink:title="ふりかえり監査スキル&#10;&#10;内容の一次情報はworkflow.pfdsl。ここではskill_source_bundleへの同梱対象としてのみ扱う&#10;location: ../.claude/skills/pfd&#45;retro/">
<polygon fill="none" stroke="black" stroke-width="2" points="181.6,-229.02 16,-229.02 16,-187.42 181.6,-187.42 181.6,-229.02"/>
<text xml:space="preserve" text-anchor="middle" x="98.8" y="-212.42" font-family="Times,serif" font-size="14.00">retro_skill</text>
<text xml:space="preserve" text-anchor="middle" x="98.8" y="-195.62" font-family="Times,serif" font-size="14.00">ふりかえり監査スキル</text>
</a>
</g>
</g>
<!-- retro_skill&#45;&gt;bundle_skills -->
<g id="edge26" class="edge">
<title>retro_skill&#45;&gt;bundle_skills</title>
<path fill="none" stroke="black" d="M182.47,-208.22C190.21,-208.22 198.08,-208.22 205.87,-208.22"/>
<polygon fill="black" stroke="black" points="205.69,-211.72 215.69,-208.22 205.69,-204.72 205.69,-211.72"/>
</g>
<!-- skill_source_bundle -->
<g id="node30" class="node">
<title>skill_source_bundle</title>
<g id="a_node30"><a xlink:title="配布対象スキル束&#10;&#10;4スキルツリーとcommands/pfd&#45;*.md・agents/pfd&#45;*.mdをdist/へバンドルし公開npmパッケージへ同梱したもの。開発/テスト実行時はresolveSkillRoot・resolveAgentsDirがdist不在ならリポの.claude/skills/&lt;name&gt;・.claude/agents/へフォールバックする">
<polygon fill="none" stroke="black" points="568.27,-229.02 409.87,-229.02 409.87,-187.42 568.27,-187.42 568.27,-229.02"/>
<text xml:space="preserve" text-anchor="middle" x="489.07" y="-212.42" font-family="Times,serif" font-size="14.00">skill_source_bundle</text>
<text xml:space="preserve" text-anchor="middle" x="489.07" y="-195.62" font-family="Times,serif" font-size="14.00">配布対象スキル束</text>
</a>
</g>
</g>
<!-- bundle_skills&#45;&gt;skill_source_bundle -->
<g id="edge28" class="edge">
<title>bundle_skills&#45;&gt;skill_source_bundle</title>
<path fill="none" stroke="black" d="M374.28,-208.22C382.17,-208.22 390.22,-208.22 398.23,-208.22"/>
<polygon fill="black" stroke="black" points="397.97,-211.72 407.97,-208.22 397.97,-204.72 397.97,-211.72"/>
</g>
<!-- diff_graphs&#45;&gt;diff_report -->
<g id="edge22" class="edge">
<title>diff_graphs&#45;&gt;diff_report</title>
<path fill="none" stroke="black" d="M1090.97,-415.32C1106.44,-438.8 1129.05,-473.16 1148.71,-503.22 1183.05,-555.7 1222.81,-616.87 1246.24,-652.97"/>
<polygon fill="black" stroke="black" points="1243.2,-654.71 1251.58,-661.19 1249.07,-650.9 1243.2,-654.71"/>
</g>
<!-- ensure_labels&#45;&gt;gh_labels -->
<g id="edge38" class="edge">
<title>ensure_labels&#45;&gt;gh_labels</title>
<path fill="none" stroke="black" d="M1124.19,-63.82C1144.84,-70.84 1169.02,-79.06 1191.52,-86.71"/>
<polygon fill="black" stroke="black" points="1190.39,-90.03 1200.98,-89.93 1192.64,-83.4 1190.39,-90.03"/>
</g>
<!-- export_image&#45;&gt;rendered_image -->
<g id="edge16" class="edge">
<title>export_image&#45;&gt;rendered_image</title>
<path fill="none" stroke="black" d="M1502.14,-637.48C1518.83,-644.04 1537.76,-651.47 1555.54,-658.44"/>
<polygon fill="black" stroke="black" points="1553.85,-661.54 1564.44,-661.94 1556.41,-655.02 1553.85,-661.54"/>
</g>
<!-- export_metadata&#45;&gt;metadata_tsv -->
<g id="edge19" class="edge">
<title>export_metadata&#45;&gt;metadata_tsv</title>
<path fill="none" stroke="black" d="M1080.23,-647.67C1093.86,-693.74 1126.32,-782.85 1184.71,-834.22 1189,-837.99 1193.81,-841.3 1198.89,-844.21"/>
<polygon fill="black" stroke="black" points="1197.07,-847.21 1207.56,-848.63 1200.24,-840.97 1197.07,-847.21"/>
</g>
<!-- format -->
<g id="node25" class="node">
<title>format</title>
<g id="a_node25"><a xlink:title="整形&#10;&#10;ソースを独立に再lex/parseし正準整形済みテキストを生成する（parseの出力を再利用しない別経路）&#10;command: npx @pfdsl/cli fmt &#45;&#45;write&#10;location: ../packages/core/src/formatter.ts">
<ellipse fill="none" stroke="#27ae60" cx="295.74" cy="-675.22" rx="37.7" ry="29.42"/>
<text xml:space="preserve" text-anchor="middle" x="295.74" y="-679.42" font-family="Times,serif" font-size="14.00">format</text>
<text xml:space="preserve" text-anchor="middle" x="295.74" y="-662.62" font-family="Times,serif" font-size="14.00">整形</text>
</a>
</g>
<text xml:space="preserve" text-anchor="middle" x="254.53" y="-633.2" font-family="Times,serif" font-size="14.00">b</text>
</g>
<!-- format&#45;&gt;formatted_source -->
<g id="edge9" class="edge">
<title>format&#45;&gt;formatted_source</title>
<path fill="none" stroke="black" d="M333.63,-676.95C354.91,-677.95 382.53,-679.25 408.52,-680.47"/>
<polygon fill="black" stroke="black" points="408.26,-683.97 418.41,-680.94 408.59,-676.97 408.26,-683.97"/>
</g>
<!-- normalize&#45;&gt;normalized_graph -->
<g id="edge4" class="edge">
<title>normalize&#45;&gt;normalized_graph</title>
<path fill="none" stroke="black" d="M731.91,-490.03C754.57,-497.78 782.91,-507.47 808.82,-516.34"/>
<polygon fill="black" stroke="black" points="807.34,-519.53 817.94,-519.45 809.61,-512.91 807.34,-519.53"/>
</g>
<!-- parse -->
<g id="node27" class="node">
<title>parse</title>
<g id="a_node27"><a xlink:title="構文解析&#10;&#10;frontmatter読込・lex・parseの3段を1トランザクションで実行しdocument+frontmatterを得る。CLI（c経由）・VSCode拡張（d）双方の全コマンドが内部で通る&#10;location: ../packages/core/src/index.ts">
<ellipse fill="none" stroke="#27ae60" cx="295.74" cy="-569.22" rx="41.01" ry="29.42"/>
<text xml:space="preserve" text-anchor="middle" x="295.74" y="-573.42" font-family="Times,serif" font-size="14.00">parse</text>
<text xml:space="preserve" text-anchor="middle" x="295.74" y="-556.62" font-family="Times,serif" font-size="14.00">構文解析</text>
</a>
</g>
<text xml:space="preserve" text-anchor="middle" x="251.22" y="-527.2" font-family="Times,serif" font-size="14.00">b</text>
</g>
<!-- parse&#45;&gt;parsed_doc -->
<g id="edge2" class="edge">
<title>parse&#45;&gt;parsed_doc</title>
<path fill="none" stroke="black" d="M336.38,-563.41C354.37,-560.78 376.44,-557.55 398.12,-554.38"/>
<polygon fill="black" stroke="black" points="398.51,-557.86 407.9,-552.95 397.5,-550.93 398.51,-557.86"/>
</g>
<!-- pfdsl_source -->
<g id="node28" class="node">
<title>pfdsl_source</title>
<g id="a_node28"><a xlink:title=".pfdslソースファイル&#10;&#10;ユーザーが記述するfrontmatter+bodyのテキスト">
<polygon fill="none" stroke="black" stroke-width="2" points="181.6,-696.02 16,-696.02 16,-654.42 181.6,-654.42 181.6,-696.02"/>
<text xml:space="preserve" text-anchor="middle" x="98.8" y="-679.42" font-family="Times,serif" font-size="14.00">pfdsl_source</text>
<text xml:space="preserve" text-anchor="middle" x="98.8" y="-662.62" font-family="Times,serif" font-size="14.00">.pfdslソースファイル</text>
</a>
</g>
</g>
<!-- pfdsl_source&#45;&gt;format -->
<g id="edge8" class="edge">
<title>pfdsl_source&#45;&gt;format</title>
<path fill="none" stroke="black" d="M182.47,-675.22C204.31,-675.22 227.17,-675.22 246.52,-675.22"/>
<polygon fill="black" stroke="black" points="246.26,-678.72 256.26,-675.22 246.26,-671.72 246.26,-678.72"/>
</g>
<!-- pfdsl_source&#45;&gt;parse -->
<g id="edge1" class="edge">
<title>pfdsl_source&#45;&gt;parse</title>
<path fill="none" stroke="black" d="M139.72,-653.51C172.53,-635.67 218.89,-610.46 252.35,-592.26"/>
<polygon fill="black" stroke="black" points="253.85,-595.43 260.96,-587.58 250.5,-589.28 253.85,-595.43"/>
</g>
<!-- sort_meta -->
<g id="node31" class="node">
<title>sort_meta</title>
<g id="a_node31"><a xlink:title="ノード定義ソート&#10;&#10;ソースを再parseし、指定キーでfrontmatterのノード定義を並べ替えたテキストを生成する&#10;command: npx @pfdsl/cli sort&#45;meta&#10;location: ../packages/core/src/sort.ts">
<ellipse fill="none" stroke="#27ae60" cx="295.74" cy="-752.22" rx="70.71" ry="29.42"/>
<text xml:space="preserve" text-anchor="middle" x="295.74" y="-756.42" font-family="Times,serif" font-size="14.00">sort_meta</text>
<text xml:space="preserve" text-anchor="middle" x="295.74" y="-739.62" font-family="Times,serif" font-size="14.00">ノード定義ソート</text>
</a>
</g>
<text xml:space="preserve" text-anchor="middle" x="221.52" y="-710.2" font-family="Times,serif" font-size="14.00">b</text>
</g>
<!-- pfdsl_source&#45;&gt;sort_meta -->
<g id="edge10" class="edge">
<title>pfdsl_source&#45;&gt;sort_meta</title>
<path fill="none" stroke="black" d="M154.88,-696.97C179.21,-706.58 207.92,-717.92 232.98,-727.82"/>
<polygon fill="black" stroke="black" points="231.48,-730.99 242.06,-731.41 234.05,-724.48 231.48,-730.99"/>
</g>
<!-- render_graph&#45;&gt;dot_graph -->
<g id="edge14" class="edge">
<title>render_graph&#45;&gt;dot_graph</title>
<path fill="none" stroke="black" d="M1078.95,-570.58C1091.27,-619.48 1122.51,-717.81 1184.71,-774.22 1192.86,-781.61 1202.98,-787.22 1213.3,-791.47"/>
<polygon fill="black" stroke="black" points="1212.03,-794.73 1222.62,-794.9 1214.45,-788.16 1212.03,-794.73"/>
</g>
<!-- sync_agents -->
<g id="node32" class="node">
<title>sync_agents</title>
<g id="a_node32"><a xlink:title="agent定義同期&#10;&#10;skill_source_bundleのagents/のうちpfd&#45;*.mdパターンに一致するものだけを採用リポの.claude/agents/へコピーする（#357。sync_commandsと同型）&#10;command: npx @pfdsl/cli skill sync&#10;location: ../packages/cli/src/skill&#45;sync.ts">
<ellipse fill="none" stroke="#16a085" cx="687.61" cy="-169.22" rx="62.45" ry="29.42"/>
<text xml:space="preserve" text-anchor="middle" x="687.61" y="-173.42" font-family="Times,serif" font-size="14.00">sync_agents</text>
<text xml:space="preserve" text-anchor="middle" x="687.61" y="-156.62" font-family="Times,serif" font-size="14.00">agent定義同期</text>
</a>
</g>
<text xml:space="preserve" text-anchor="middle" x="621.66" y="-127.2" font-family="Times,serif" font-size="14.00">g</text>
</g>
<!-- skill_source_bundle&#45;&gt;sync_agents -->
<g id="edge33" class="edge">
<title>skill_source_bundle&#45;&gt;sync_agents</title>
<path fill="none" stroke="black" d="M568.6,-192.63C585.1,-189.36 602.38,-185.93 618.47,-182.74"/>
<polygon fill="black" stroke="black" points="618.78,-186.24 627.91,-180.86 617.42,-179.38 618.78,-186.24"/>
</g>
<!-- sync_commands -->
<g id="node33" class="node">
<title>sync_commands</title>
<g id="a_node33"><a xlink:title="コマンド同期&#10;&#10;skill_source_bundleのcommands/のうちpfd&#45;*.mdパターンに一致するものだけを採用リポの.claude/commands/へコピーする&#10;command: npx @pfdsl/cli skill sync&#10;location: ../packages/cli/src/skill&#45;sync.ts">
<ellipse fill="none" stroke="#16a085" cx="687.61" cy="-92.22" rx="77.3" ry="29.42"/>
<text xml:space="preserve" text-anchor="middle" x="687.61" y="-96.42" font-family="Times,serif" font-size="14.00">sync_commands</text>
<text xml:space="preserve" text-anchor="middle" x="687.61" y="-79.62" font-family="Times,serif" font-size="14.00">コマンド同期</text>
</a>
</g>
<text xml:space="preserve" text-anchor="middle" x="606.81" y="-50.2" font-family="Times,serif" font-size="14.00">g</text>
</g>
<!-- skill_source_bundle&#45;&gt;sync_commands -->
<g id="edge31" class="edge">
<title>skill_source_bundle&#45;&gt;sync_commands</title>
<path fill="none" stroke="black" d="M518.87,-187.02C541.51,-170.8 574.14,-148.38 604.27,-131.22 611.26,-127.23 618.73,-123.29 626.2,-119.54"/>
<polygon fill="black" stroke="black" points="627.57,-122.76 635,-115.21 624.48,-116.48 627.57,-122.76"/>
</g>
<!-- sync_install_layer -->
<g id="node34" class="node">
<title>sync_install_layer</title>
<g id="a_node34"><a xlink:title="L3レイヤー同期&#10;&#10;バンドル内pfd&#45;ops/install/を採用リポルートへコピーする。採用リポでL3採用済み（install/由来ファイルが1つ以上存在）の場合のみ実行し、未採用時は案内メッセージのみでファイルを生成しない&#10;command: npx @pfdsl/cli skill sync&#10;location: ../packages/cli/src/skill&#45;sync.ts">
<ellipse fill="none" stroke="#16a085" cx="687.61" cy="-323.22" rx="83.34" ry="29.42"/>
<text xml:space="preserve" text-anchor="middle" x="687.61" y="-327.42" font-family="Times,serif" font-size="14.00">sync_install_layer</text>
<text xml:space="preserve" text-anchor="middle" x="687.61" y="-310.62" font-family="Times,serif" font-size="14.00">L3レイヤー同期</text>
</a>
</g>
<text xml:space="preserve" text-anchor="middle" x="600.77" y="-281.2" font-family="Times,serif" font-size="14.00">g</text>
</g>
<!-- skill_source_bundle&#45;&gt;sync_install_layer -->
<g id="edge35" class="edge">
<title>skill_source_bundle&#45;&gt;sync_install_layer</title>
<path fill="none" stroke="black" d="M519.38,-229.43C542.02,-245.4 574.42,-267.33 604.27,-284.22 610.84,-287.93 617.82,-291.62 624.83,-295.15"/>
<polygon fill="black" stroke="black" points="623.2,-298.25 633.72,-299.54 626.3,-291.98 623.2,-298.25"/>
</g>
<!-- sync_skill_tree -->
<g id="node35" class="node">
<title>sync_skill_tree</title>
<g id="a_node35"><a xlink:title="スキルツリー同期&#10;&#10;skill_source_bundleの各スキルツリーを採用リポの.claude/skills/へミラーコピーする（エントリ単位でrm→cpの破壊的コピー。削除・改名を反映する）&#10;command: npx @pfdsl/cli skill sync&#10;location: ../packages/cli/src/skill&#45;sync.ts">
<ellipse fill="none" stroke="#16a085" cx="687.61" cy="-246.22" rx="71.25" ry="29.42"/>
<text xml:space="preserve" text-anchor="middle" x="687.61" y="-250.42" font-family="Times,serif" font-size="14.00">sync_skill_tree</text>
<text xml:space="preserve" text-anchor="middle" x="687.61" y="-233.62" font-family="Times,serif" font-size="14.00">スキルツリー同期</text>
</a>
</g>
<text xml:space="preserve" text-anchor="middle" x="612.86" y="-204.2" font-family="Times,serif" font-size="14.00">g</text>
</g>
<!-- skill_source_bundle&#45;&gt;sync_skill_tree -->
<g id="edge29" class="edge">
<title>skill_source_bundle&#45;&gt;sync_skill_tree</title>
<path fill="none" stroke="black" d="M568.6,-223.4C582.69,-226.12 597.34,-228.96 611.34,-231.66"/>
<polygon fill="black" stroke="black" points="610.43,-235.05 620.91,-233.51 611.75,-228.18 610.43,-235.05"/>
</g>
<!-- sort_meta&#45;&gt;sorted_source -->
<g id="edge11" class="edge">
<title>sort_meta&#45;&gt;sorted_source</title>
<path fill="none" stroke="black" d="M366.9,-752.22C380.39,-752.22 394.62,-752.22 408.4,-752.22"/>
<polygon fill="black" stroke="black" points="408.32,-755.72 418.32,-752.22 408.32,-748.72 408.32,-755.72"/>
</g>
<!-- sync_agents&#45;&gt;installed_agents -->
<g id="edge34" class="edge">
<title>sync_agents&#45;&gt;installed_agents</title>
<path fill="none" stroke="black" d="M750.46,-170.18C765.77,-170.42 782.43,-170.67 798.57,-170.93"/>
<polygon fill="black" stroke="black" points="798.07,-174.42 808.13,-171.07 798.18,-167.42 798.07,-174.42"/>
</g>
<!-- sync_commands&#45;&gt;installed_commands -->
<g id="edge32" class="edge">
<title>sync_commands&#45;&gt;installed_commands</title>
<path fill="none" stroke="black" d="M762.66,-99.89C773.23,-100.99 784.17,-102.12 794.96,-103.24"/>
<polygon fill="black" stroke="black" points="794.3,-106.69 804.61,-104.24 795.02,-99.73 794.3,-106.69"/>
</g>
<!-- sync_install_layer&#45;&gt;installed_l3_layer -->
<g id="edge36" class="edge">
<title>sync_install_layer&#45;&gt;installed_l3_layer</title>
<path fill="none" stroke="black" d="M764.04,-311.1C774.28,-309.45 784.86,-307.75 795.28,-306.08"/>
<polygon fill="black" stroke="black" points="795.68,-309.56 805,-304.52 794.57,-302.65 795.68,-309.56"/>
</g>
<!-- sync_skill_tree&#45;&gt;installed_skills -->
<g id="edge30" class="edge">
<title>sync_skill_tree&#45;&gt;installed_skills</title>
<path fill="none" stroke="black" d="M758.27,-241.16C772.41,-240.14 787.38,-239.05 801.84,-238"/>
<polygon fill="black" stroke="black" points="802.06,-241.49 811.78,-237.28 801.55,-234.51 802.06,-241.49"/>
</g>
<!-- validate&#45;&gt;diagnostics_report -->
<g id="edge7" class="edge">
<title>validate&#45;&gt;diagnostics_report</title>
<path fill="none" stroke="black" d="M1092.88,-489.99C1109.94,-512.62 1133.8,-547.01 1148.71,-580.22 1173.97,-636.47 1143.09,-668.71 1184.71,-714.22 1185.07,-714.61 1185.43,-714.99 1185.8,-715.37"/>
<polygon fill="black" stroke="black" points="1183.23,-717.78 1193.09,-721.66 1187.81,-712.48 1183.23,-717.78"/>
</g>
</g>
</svg>
