<?xml version="1.0" encoding="UTF-8" standalone="no"?>
<!DOCTYPE svg PUBLIC "-//W3C//DTD SVG 1.1//EN"
 "http://www.w3.org/Graphics/SVG/1.1/DTD/svg11.dtd">
<!-- Generated by graphviz version 15.0.0 (0)
 -->
<!-- Title: PFDSL Pages: 1 -->
<svg width="629pt" height="395pt"
 viewBox="0.00 0.00 629.00 395.00" xmlns="http://www.w3.org/2000/svg" xmlns:xlink="http://www.w3.org/1999/xlink">
<g id="graph0" class="graph" transform="scale(1 1) rotate(0) translate(4 390.62)">
<title>PFDSL</title>
<polygon fill="white" stroke="none" points="-4,4 -4,-390.62 625.11,-390.62 625.11,4 -4,4"/>
<text xml:space="preserve" text-anchor="middle" x="310.55" y="-370.02" font-family="Times,serif" font-size="14.00">Issue 依存フロー（2026&#45;06） — diff</text>
<text xml:space="preserve" text-anchor="middle" x="310.55" y="-353.22" font-family="Times,serif" font-size="14.00">green = added · red = removed · yellow = changed</text>
<!-- cli_tool_v0010 -->
<g id="node1" class="node">
<title>cli_tool_v0010</title>
<polygon fill="#ffeeba" stroke="#e0a800" points="158.4,-255.8 7.2,-255.8 7.2,-197.4 158.4,-197.4 158.4,-255.8"/>
<text xml:space="preserve" text-anchor="middle" x="82.8" y="-239.2" font-family="Times,serif" font-size="14.00">cli_tool_v0010</text>
<text xml:space="preserve" text-anchor="middle" x="82.8" y="-222.4" font-family="Times,serif" font-size="14.00">CLI v0.0</text>
<text xml:space="preserve" text-anchor="middle" x="82.8" y="-205.6" font-family="Times,serif" font-size="14.00">10（次期リリース）</text>
</g>
<!-- implement_json_output -->
<g id="node3" class="node">
<title>implement_json_output</title>
<ellipse fill="#f5f5f5" stroke="#bbbbbb" cx="306.95" cy="-315.6" rx="105.35" ry="29.42"/>
<text xml:space="preserve" text-anchor="middle" x="306.95" y="-319.8" font-family="Times,serif" font-size="14.00" fill="#777777">implement_json_output</text>
<text xml:space="preserve" text-anchor="middle" x="306.95" y="-303" font-family="Times,serif" font-size="14.00" fill="#777777">&#45;&#45;json出力実装</text>
</g>
<!-- cli_tool_v0010&#45;&gt;implement_json_output -->
<g id="edge1" class="edge">
<title>cli_tool_v0010&#45;&gt;implement_json_output</title>
<path fill="none" stroke="#dc3545" stroke-dasharray="5,2" d="M152.11,-256.19C168.28,-263.03 185.5,-270.18 201.6,-276.6 211.1,-280.39 221.13,-284.28 231.06,-288.06"/>
<polygon fill="#dc3545" stroke="#dc3545" points="229.76,-291.31 240.35,-291.58 232.24,-284.76 229.76,-291.31"/>
</g>
<!-- implement_no_color -->
<g id="node4" class="node">
<title>implement_no_color</title>
<ellipse fill="#f5f5f5" stroke="#bbbbbb" cx="306.95" cy="-226.6" rx="93.79" ry="41.3"/>
<text xml:space="preserve" text-anchor="middle" x="306.95" y="-239.2" font-family="Times,serif" font-size="14.00" fill="#777777">implement_no_color</text>
<text xml:space="preserve" text-anchor="middle" x="306.95" y="-222.4" font-family="Times,serif" font-size="14.00" fill="#777777">&#45;&#45;no&#45;color /</text>
<text xml:space="preserve" text-anchor="middle" x="306.95" y="-205.6" font-family="Times,serif" font-size="14.00" fill="#777777">NO_COLOR実装</text>
</g>
<!-- cli_tool_v0010&#45;&gt;implement_no_color -->
<g id="edge2" class="edge">
<title>cli_tool_v0010&#45;&gt;implement_no_color</title>
<path fill="none" stroke="#dc3545" stroke-dasharray="5,2" d="M158.7,-226.6C172.42,-226.6 186.96,-226.6 201.36,-226.6"/>
<polygon fill="#dc3545" stroke="#dc3545" points="201.34,-230.1 211.34,-226.6 201.34,-223.1 201.34,-230.1"/>
</g>
<!-- publish_cli_further -->
<g id="node7" class="node">
<title>publish_cli_further</title>
<ellipse fill="#f5c6cb" stroke="#dc3545" cx="306.95" cy="-125.6" rx="87.19" ry="41.3"/>
<text xml:space="preserve" text-anchor="middle" x="306.95" y="-138.2" font-family="Times,serif" font-size="14.00">publish_cli_further</text>
<text xml:space="preserve" text-anchor="middle" x="306.95" y="-121.4" font-family="Times,serif" font-size="14.00">CLIさらに次期版リ</text>
<text xml:space="preserve" text-anchor="middle" x="306.95" y="-104.6" font-family="Times,serif" font-size="14.00">リース</text>
</g>
<!-- cli_tool_v0010&#45;&gt;publish_cli_further -->
<g id="edge3" class="edge">
<title>cli_tool_v0010&#45;&gt;publish_cli_further</title>
<path fill="none" stroke="#dc3545" stroke-dasharray="5,2" d="M148.95,-196.98C175.29,-185 205.81,-171.13 232.9,-158.81"/>
<polygon fill="#dc3545" stroke="#dc3545" points="234.06,-162.13 241.72,-154.8 231.17,-155.76 234.06,-162.13"/>
</g>
<!-- cli_tool_v009 -->
<g id="node2" class="node">
<title>cli_tool_v009</title>
<polygon fill="#f5f5f5" stroke="#bbbbbb" points="140.4,-337.8 25.2,-337.8 25.2,-279.4 140.4,-279.4 140.4,-337.8"/>
<text xml:space="preserve" text-anchor="middle" x="82.8" y="-321.2" font-family="Times,serif" font-size="14.00" fill="#777777">cli_tool_v009</text>
<text xml:space="preserve" text-anchor="middle" x="82.8" y="-304.4" font-family="Times,serif" font-size="14.00" fill="#777777">CLI v0.0</text>
<text xml:space="preserve" text-anchor="middle" x="82.8" y="-287.6" font-family="Times,serif" font-size="14.00" fill="#777777">9（公開済み）</text>
</g>
<!-- cli_tool_v009&#45;&gt;implement_json_output -->
<g id="edge4" class="edge">
<title>cli_tool_v009&#45;&gt;implement_json_output</title>
<path fill="none" stroke="#28a745" d="M140.72,-310.39C156.12,-310.88 173.35,-311.42 190.72,-311.97"/>
<polygon fill="#28a745" stroke="#28a745" points="190.52,-315.46 200.63,-312.28 190.74,-308.47 190.52,-315.46"/>
</g>
<!-- cli_tool_v009&#45;&gt;implement_no_color -->
<g id="edge5" class="edge">
<title>cli_tool_v009&#45;&gt;implement_no_color</title>
<path fill="none" stroke="#28a745" d="M140.72,-287.59C166.03,-278.25 196.3,-267.07 223.98,-256.86"/>
<polygon fill="#28a745" stroke="#28a745" points="224.85,-260.27 233.02,-253.52 222.43,-253.7 224.85,-260.27"/>
</g>
<!-- json_output -->
<g id="node5" class="node">
<title>json_output</title>
<polygon fill="#f5f5f5" stroke="#bbbbbb" points="165.6,-152.8 0,-152.8 0,-94.4 165.6,-94.4 165.6,-152.8"/>
<text xml:space="preserve" text-anchor="middle" x="82.8" y="-136.2" font-family="Times,serif" font-size="14.00" fill="#777777">json_output</text>
<text xml:space="preserve" text-anchor="middle" x="82.8" y="-119.4" font-family="Times,serif" font-size="14.00" fill="#777777">CLI &#45;&#45;json 出力対応 </text>
<text xml:space="preserve" text-anchor="middle" x="82.8" y="-102.6" font-family="Times,serif" font-size="14.00" fill="#777777">#181)</text>
</g>
<!-- json_output&#45;&gt;publish_cli_further -->
<g id="edge6" class="edge">
<title>json_output&#45;&gt;publish_cli_further</title>
<path fill="none" stroke="#dc3545" stroke-dasharray="5,2" d="M165.89,-124.34C179.64,-124.46 194.03,-124.59 208.13,-124.72"/>
<polygon fill="#dc3545" stroke="#dc3545" points="207.81,-128.22 217.85,-124.81 207.88,-121.22 207.81,-128.22"/>
</g>
<!-- publish_cli_v0010 -->
<g id="node8" class="node">
<title>publish_cli_v0010</title>
<ellipse fill="#f5f5f5" stroke="#bbbbbb" cx="306.95" cy="-36.6" rx="89.13" ry="29.42"/>
<text xml:space="preserve" text-anchor="middle" x="306.95" y="-40.8" font-family="Times,serif" font-size="14.00" fill="#777777">publish_cli_v0010</text>
<text xml:space="preserve" text-anchor="middle" x="306.95" y="-24" font-family="Times,serif" font-size="14.00" fill="#777777">CLI v0.0.10リリース</text>
</g>
<!-- json_output&#45;&gt;publish_cli_v0010 -->
<g id="edge7" class="edge">
<title>json_output&#45;&gt;publish_cli_v0010</title>
<path fill="none" stroke="#28a745" d="M155.62,-93.95C170.77,-87.8 186.69,-81.42 201.6,-75.6 212.52,-71.33 224.12,-66.9 235.47,-62.62"/>
<polygon fill="#28a745" stroke="#28a745" points="236.69,-65.9 244.82,-59.11 234.23,-59.35 236.69,-65.9"/>
</g>
<!-- no_color -->
<g id="node6" class="node">
<title>no_color</title>
<polygon fill="#f5f5f5" stroke="#bbbbbb" points="151.2,-75.2 14.4,-75.2 14.4,0 151.2,0 151.2,-75.2"/>
<text xml:space="preserve" text-anchor="middle" x="82.8" y="-58.6" font-family="Times,serif" font-size="14.00" fill="#777777">no_color</text>
<text xml:space="preserve" text-anchor="middle" x="82.8" y="-41.8" font-family="Times,serif" font-size="14.00" fill="#777777">CLI &#45;&#45;no&#45;color /</text>
<text xml:space="preserve" text-anchor="middle" x="82.8" y="-25" font-family="Times,serif" font-size="14.00" fill="#777777">NO_COLOR 対応 </text>
<text xml:space="preserve" text-anchor="middle" x="82.8" y="-8.2" font-family="Times,serif" font-size="14.00" fill="#777777">#180)</text>
</g>
<!-- no_color&#45;&gt;publish_cli_further -->
<g id="edge8" class="edge">
<title>no_color&#45;&gt;publish_cli_further</title>
<path fill="none" stroke="#dc3545" stroke-dasharray="5,2" d="M151.66,-64.48C176,-74.12 203.62,-85.06 228.7,-95"/>
<polygon fill="#dc3545" stroke="#dc3545" points="227.28,-98.2 237.87,-98.63 229.86,-91.69 227.28,-98.2"/>
</g>
<!-- no_color&#45;&gt;publish_cli_v0010 -->
<g id="edge9" class="edge">
<title>no_color&#45;&gt;publish_cli_v0010</title>
<path fill="none" stroke="#28a745" d="M151.66,-37.29C168.88,-37.22 187.75,-37.13 206.2,-37.05"/>
<polygon fill="#28a745" stroke="#28a745" points="206.11,-40.55 216.1,-37 206.08,-33.55 206.11,-40.55"/>
</g>
<!-- published_cli_further -->
<g id="node9" class="node">
<title>published_cli_further</title>
<polygon fill="#f5c6cb" stroke="#dc3545" points="621.11,-154.8 448.31,-154.8 448.31,-96.4 621.11,-96.4 621.11,-154.8"/>
<text xml:space="preserve" text-anchor="middle" x="534.71" y="-138.2" font-family="Times,serif" font-size="14.00">published_cli_further</text>
<text xml:space="preserve" text-anchor="middle" x="534.71" y="-121.4" font-family="Times,serif" font-size="14.00">npm公開済みCLI（</text>
<text xml:space="preserve" text-anchor="middle" x="534.71" y="-104.6" font-family="Times,serif" font-size="14.00">次次期版）</text>
</g>
<!-- publish_cli_further&#45;&gt;published_cli_further -->
<g id="edge10" class="edge">
<title>publish_cli_further&#45;&gt;published_cli_further</title>
<path fill="none" stroke="#dc3545" stroke-dasharray="5,2" d="M394.59,-125.6C408.43,-125.6 422.82,-125.6 436.87,-125.6"/>
<polygon fill="#dc3545" stroke="#dc3545" points="436.53,-129.1 446.53,-125.6 436.53,-122.1 436.53,-129.1"/>
</g>
</g>
</svg>
