<?xml version="1.0" encoding="UTF-8" standalone="no"?>
<!DOCTYPE svg PUBLIC "-//W3C//DTD SVG 1.1//EN"
 "http://www.w3.org/Graphics/SVG/1.1/DTD/svg11.dtd">
<!-- Generated by graphviz version 15.0.0 (0)
 -->
<!-- Title: PFDSL Pages: 1 -->
<svg width="592pt" height="286pt"
 viewBox="0.00 0.00 592.00 286.00" xmlns="http://www.w3.org/2000/svg" xmlns:xlink="http://www.w3.org/1999/xlink">
<g id="graph0" class="graph" transform="scale(1 1) rotate(0) translate(4 282.31)">
<title>PFDSL</title>
<polygon fill="white" stroke="none" points="-4,4 -4,-282.31 588.43,-282.31 588.43,4 -4,4"/>
<text xml:space="preserve" text-anchor="middle" x="292.22" y="-261.71" font-family="Times,serif" font-size="14.00">Issue 依存フロー（2026&#45;06） — diff</text>
<text xml:space="preserve" text-anchor="middle" x="292.22" y="-244.91" font-family="Times,serif" font-size="14.00">green = added · red = removed · yellow = changed</text>
<!-- basepath -->
<g id="node1" class="node">
<title>basepath</title>
<polygon fill="#c3e6cb" stroke="#28a745" points="352.07,-207.9 222.47,-207.9 222.47,-132.7 352.07,-132.7 352.07,-207.9"/>
<text xml:space="preserve" text-anchor="middle" x="287.27" y="-191.3" font-family="Times,serif" font-size="14.00">basepath</text>
<text xml:space="preserve" text-anchor="middle" x="287.27" y="-174.5" font-family="Times,serif" font-size="14.00">basePath</text>
<text xml:space="preserve" text-anchor="middle" x="287.27" y="-157.7" font-family="Times,serif" font-size="14.00">フィールド実装 </text>
<text xml:space="preserve" text-anchor="middle" x="287.27" y="-140.9" font-family="Times,serif" font-size="14.00">#261)</text>
</g>
<!-- integrate_spec_v0010 -->
<g id="node4" class="node">
<title>integrate_spec_v0010</title>
<ellipse fill="#f5f5f5" stroke="#bbbbbb" cx="486.25" cy="-207.3" rx="98.18" ry="29.42"/>
<text xml:space="preserve" text-anchor="middle" x="486.25" y="-211.5" font-family="Times,serif" font-size="14.00" fill="#777777">integrate_spec_v0010</text>
<text xml:space="preserve" text-anchor="middle" x="486.25" y="-194.7" font-family="Times,serif" font-size="14.00" fill="#777777">仕様書 v0.0.10統合</text>
</g>
<!-- basepath&#45;&gt;integrate_spec_v0010 -->
<g id="edge1" class="edge">
<title>basepath&#45;&gt;integrate_spec_v0010</title>
<path fill="none" stroke="#28a745" d="M352.5,-182.36C364.87,-184.68 378.06,-187.16 391.14,-189.62"/>
<polygon fill="#28a745" stroke="#28a745" points="390.13,-192.99 400.6,-191.4 391.42,-186.11 390.13,-192.99"/>
</g>
<!-- publish_cli_v0012 -->
<g id="node5" class="node">
<title>publish_cli_v0012</title>
<ellipse fill="#f5f5f5" stroke="#bbbbbb" cx="486.25" cy="-130.3" rx="89.13" ry="29.42"/>
<text xml:space="preserve" text-anchor="middle" x="486.25" y="-134.5" font-family="Times,serif" font-size="14.00" fill="#777777">publish_cli_v0012</text>
<text xml:space="preserve" text-anchor="middle" x="486.25" y="-117.7" font-family="Times,serif" font-size="14.00" fill="#777777">CLI v0.0.12リリース</text>
</g>
<!-- basepath&#45;&gt;publish_cli_v0012 -->
<g id="edge2" class="edge">
<title>basepath&#45;&gt;publish_cli_v0012</title>
<path fill="none" stroke="#28a745" d="M352.5,-157.25C367.13,-154.28 382.92,-151.07 398.33,-147.95"/>
<polygon fill="#28a745" stroke="#28a745" points="398.87,-151.41 407.97,-145.99 397.48,-144.55 398.87,-151.41"/>
</g>
<!-- publish_ext_v0015 -->
<g id="node6" class="node">
<title>publish_ext_v0015</title>
<ellipse fill="#f5f5f5" stroke="#bbbbbb" cx="486.25" cy="-41.3" rx="87.21" ry="41.3"/>
<text xml:space="preserve" text-anchor="middle" x="486.25" y="-53.9" font-family="Times,serif" font-size="14.00" fill="#777777">publish_ext_v0015</text>
<text xml:space="preserve" text-anchor="middle" x="486.25" y="-37.1" font-family="Times,serif" font-size="14.00" fill="#777777">extension v0.0</text>
<text xml:space="preserve" text-anchor="middle" x="486.25" y="-20.3" font-family="Times,serif" font-size="14.00" fill="#777777">15リリース</text>
</g>
<!-- basepath&#45;&gt;publish_ext_v0015 -->
<g id="edge3" class="edge">
<title>basepath&#45;&gt;publish_ext_v0015</title>
<path fill="none" stroke="#28a745" d="M341.84,-132.29C345.33,-129.62 348.77,-126.94 352.07,-124.3 368.78,-110.91 370.46,-104.47 388.07,-92.3 396.3,-86.6 405.24,-81.1 414.26,-75.95"/>
<polygon fill="#28a745" stroke="#28a745" points="415.68,-79.17 422.72,-71.24 412.28,-73.05 415.68,-79.17"/>
</g>
<!-- i261_basepath -->
<g id="node2" class="node">
<title>i261_basepath</title>
<polygon fill="#f5c6cb" stroke="#dc3545" points="352.07,-114.9 222.47,-114.9 222.47,-39.7 352.07,-39.7 352.07,-114.9"/>
<text xml:space="preserve" text-anchor="middle" x="287.27" y="-98.3" font-family="Times,serif" font-size="14.00">i261_basepath</text>
<text xml:space="preserve" text-anchor="middle" x="287.27" y="-81.5" font-family="Times,serif" font-size="14.00">basePath</text>
<text xml:space="preserve" text-anchor="middle" x="287.27" y="-64.7" font-family="Times,serif" font-size="14.00">フィールド実装 </text>
<text xml:space="preserve" text-anchor="middle" x="287.27" y="-47.9" font-family="Times,serif" font-size="14.00">#261)</text>
</g>
<!-- i261_basepath&#45;&gt;integrate_spec_v0010 -->
<g id="edge4" class="edge">
<title>i261_basepath&#45;&gt;integrate_spec_v0010</title>
<path fill="none" stroke="#dc3545" stroke-dasharray="5,2" d="M343.03,-115.22C346.16,-117.86 349.2,-120.57 352.07,-123.3 370.63,-140.95 367.51,-153.02 388.07,-168.3 394.34,-172.95 401.25,-177.15 408.39,-180.9"/>
<polygon fill="#dc3545" stroke="#dc3545" points="406.38,-183.81 416.9,-185.08 409.47,-177.53 406.38,-183.81"/>
</g>
<!-- i261_basepath&#45;&gt;publish_cli_v0012 -->
<g id="edge5" class="edge">
<title>i261_basepath&#45;&gt;publish_cli_v0012</title>
<path fill="none" stroke="#dc3545" stroke-dasharray="5,2" d="M352.5,-94.58C369.42,-99.13 387.88,-104.1 405.51,-108.84"/>
<polygon fill="#dc3545" stroke="#dc3545" points="404.33,-112.15 414.9,-111.37 406.15,-105.39 404.33,-112.15"/>
</g>
<!-- i261_basepath&#45;&gt;publish_ext_v0015 -->
<g id="edge6" class="edge">
<title>i261_basepath&#45;&gt;publish_ext_v0015</title>
<path fill="none" stroke="#dc3545" stroke-dasharray="5,2" d="M352.5,-65.56C365.61,-63.16 379.65,-60.6 393.5,-58.06"/>
<polygon fill="#dc3545" stroke="#dc3545" points="393.86,-61.56 403.07,-56.31 392.6,-54.67 393.86,-61.56"/>
</g>
<!-- implement_basepath -->
<g id="node3" class="node">
<title>implement_basepath</title>
<ellipse fill="#f5f5f5" stroke="#bbbbbb" cx="93.24" cy="-123.3" rx="93.24" ry="41.3"/>
<text xml:space="preserve" text-anchor="middle" x="93.24" y="-135.9" font-family="Times,serif" font-size="14.00" fill="#777777">implement_basepath</text>
<text xml:space="preserve" text-anchor="middle" x="93.24" y="-119.1" font-family="Times,serif" font-size="14.00" fill="#777777">basePath</text>
<text xml:space="preserve" text-anchor="middle" x="93.24" y="-102.3" font-family="Times,serif" font-size="14.00" fill="#777777">フィールド実装</text>
</g>
<!-- implement_basepath&#45;&gt;basepath -->
<g id="edge7" class="edge">
<title>implement_basepath&#45;&gt;basepath</title>
<path fill="none" stroke="#28a745" d="M175.4,-143.16C187.19,-146.04 199.29,-149.01 210.96,-151.86"/>
<polygon fill="#28a745" stroke="#28a745" points="209.97,-155.22 220.52,-154.2 211.64,-148.43 209.97,-155.22"/>
</g>
<!-- implement_basepath&#45;&gt;i261_basepath -->
<g id="edge8" class="edge">
<title>implement_basepath&#45;&gt;i261_basepath</title>
<path fill="none" stroke="#dc3545" stroke-dasharray="5,2" d="M175.95,-103.72C187.64,-100.92 199.61,-98.05 211.15,-95.29"/>
<polygon fill="#dc3545" stroke="#dc3545" points="211.69,-98.76 220.6,-93.03 210.06,-91.95 211.69,-98.76"/>
</g>
</g>
</svg>
