<?xml version="1.0" encoding="UTF-8" standalone="no"?>
<!DOCTYPE svg PUBLIC "-//W3C//DTD SVG 1.1//EN"
 "http://www.w3.org/Graphics/SVG/1.1/DTD/svg11.dtd">
<!-- Generated by graphviz version 15.0.0 (0)
 -->
<!-- Title: PFDSL Pages: 1 -->
<svg width="1470pt" height="677pt"
 viewBox="0.00 0.00 1470.00 677.00" xmlns="http://www.w3.org/2000/svg" xmlns:xlink="http://www.w3.org/1999/xlink">
<g id="graph0" class="graph" transform="scale(1 1) rotate(0) translate(4 673.1)">
<title>PFDSL</title>
<polygon fill="white" stroke="none" points="-4,4 -4,-673.1 1466.03,-673.1 1466.03,4 -4,4"/>
<text xml:space="preserve" text-anchor="middle" x="731.02" y="-652.5" font-family="Times,serif" font-size="14.00">Issue 依存フロー（2026&#45;06） — diff</text>
<text xml:space="preserve" text-anchor="middle" x="731.02" y="-635.7" font-family="Times,serif" font-size="14.00">green = added · red = removed · yellow = changed</text>
<!-- cli_tool_v0010 -->
<g id="node1" class="node">
<title>cli_tool_v0010</title>
<polygon fill="#ffeeba" stroke="#e0a800" points="560.25,-551.5 437.85,-551.5 437.85,-493.1 560.25,-493.1 560.25,-551.5"/>
<text xml:space="preserve" text-anchor="middle" x="499.05" y="-534.9" font-family="Times,serif" font-size="14.00">cli_tool_v0010</text>
<text xml:space="preserve" text-anchor="middle" x="499.05" y="-518.1" font-family="Times,serif" font-size="14.00">CLI v0.0</text>
<text xml:space="preserve" text-anchor="middle" x="499.05" y="-501.3" font-family="Times,serif" font-size="14.00">10（公開済み）</text>
</g>
<!-- publish_cli_v0011 -->
<g id="node20" class="node">
<title>publish_cli_v0011</title>
<ellipse fill="#c3e6cb" stroke="#28a745" cx="707.48" cy="-479.3" rx="89.13" ry="29.42"/>
<text xml:space="preserve" text-anchor="middle" x="707.48" y="-483.5" font-family="Times,serif" font-size="14.00">publish_cli_v0011</text>
<text xml:space="preserve" text-anchor="middle" x="707.48" y="-466.7" font-family="Times,serif" font-size="14.00">CLI v0.0.11リリース</text>
</g>
<!-- cli_tool_v0010&#45;&gt;publish_cli_v0011 -->
<g id="edge1" class="edge">
<title>cli_tool_v0010&#45;&gt;publish_cli_v0011</title>
<path fill="none" stroke="#28a745" d="M560.59,-509.68C579.27,-505.8 600.2,-501.43 620.25,-497.26"/>
<polygon fill="#28a745" stroke="#28a745" points="620.72,-500.73 629.8,-495.27 619.29,-493.88 620.72,-500.73"/>
</g>
<!-- cli_tool_v0011 -->
<g id="node2" class="node">
<title>cli_tool_v0011</title>
<polygon fill="#c3e6cb" stroke="#28a745" points="998.72,-508.5 847.52,-508.5 847.52,-450.1 998.72,-450.1 998.72,-508.5"/>
<text xml:space="preserve" text-anchor="middle" x="923.12" y="-491.9" font-family="Times,serif" font-size="14.00">cli_tool_v0011</text>
<text xml:space="preserve" text-anchor="middle" x="923.12" y="-475.1" font-family="Times,serif" font-size="14.00">CLI v0.0</text>
<text xml:space="preserve" text-anchor="middle" x="923.12" y="-458.3" font-family="Times,serif" font-size="14.00">11（次期リリース）</text>
</g>
<!-- consult_pfd_tools -->
<g id="node4" class="node">
<title>consult_pfd_tools</title>
<ellipse fill="#c3e6cb" stroke="#28a745" cx="1127.77" cy="-479.3" rx="82.26" ry="29.42"/>
<text xml:space="preserve" text-anchor="middle" x="1127.77" y="-483.5" font-family="Times,serif" font-size="14.00">consult_pfd_tools</text>
<text xml:space="preserve" text-anchor="middle" x="1127.77" y="-466.7" font-family="Times,serif" font-size="14.00">pfd&#45;tools 打診</text>
</g>
<!-- cli_tool_v0011&#45;&gt;consult_pfd_tools -->
<g id="edge2" class="edge">
<title>cli_tool_v0011&#45;&gt;consult_pfd_tools</title>
<path fill="none" stroke="#28a745" d="M999,-479.3C1010.25,-479.3 1021.96,-479.3 1033.54,-479.3"/>
<polygon fill="#28a745" stroke="#28a745" points="1033.53,-482.8 1043.53,-479.3 1033.53,-475.8 1033.53,-482.8"/>
</g>
<!-- cli_tool_v009 -->
<g id="node3" class="node">
<title>cli_tool_v009</title>
<polygon fill="#f5f5f5" stroke="#bbbbbb" points="115.2,-322.5 0,-322.5 0,-264.1 115.2,-264.1 115.2,-322.5"/>
<text xml:space="preserve" text-anchor="middle" x="57.6" y="-305.9" font-family="Times,serif" font-size="14.00" fill="#777777">cli_tool_v009</text>
<text xml:space="preserve" text-anchor="middle" x="57.6" y="-289.1" font-family="Times,serif" font-size="14.00" fill="#777777">CLI v0.0</text>
<text xml:space="preserve" text-anchor="middle" x="57.6" y="-272.3" font-family="Times,serif" font-size="14.00" fill="#777777">9（公開済み）</text>
</g>
<!-- fix_w002_line -->
<g id="node6" class="node">
<title>fix_w002_line</title>
<ellipse fill="#c3e6cb" stroke="#28a745" cx="267.53" cy="-572.3" rx="82.53" ry="41.3"/>
<text xml:space="preserve" text-anchor="middle" x="267.53" y="-584.9" font-family="Times,serif" font-size="14.00">fix_w002_line</text>
<text xml:space="preserve" text-anchor="middle" x="267.53" y="-568.1" font-family="Times,serif" font-size="14.00">W002 診断行番号修</text>
<text xml:space="preserve" text-anchor="middle" x="267.53" y="-551.3" font-family="Times,serif" font-size="14.00">正</text>
</g>
<!-- cli_tool_v009&#45;&gt;fix_w002_line -->
<g id="edge3" class="edge">
<title>cli_tool_v009&#45;&gt;fix_w002_line</title>
<path fill="none" stroke="#28a745" d="M66.53,-322.86C78.98,-364.92 106.4,-442.74 151.2,-495.3 164.71,-511.14 182.25,-525.07 199.56,-536.56"/>
<polygon fill="#28a745" stroke="#28a745" points="197.55,-539.43 207.85,-541.88 201.32,-533.54 197.55,-539.43"/>
</g>
<!-- implement_group_hover -->
<g id="node14" class="node">
<title>implement_group_hover</title>
<ellipse fill="#c3e6cb" stroke="#28a745" cx="267.53" cy="-41.3" rx="109.19" ry="41.3"/>
<text xml:space="preserve" text-anchor="middle" x="267.53" y="-53.9" font-family="Times,serif" font-size="14.00">implement_group_hover</text>
<text xml:space="preserve" text-anchor="middle" x="267.53" y="-37.1" font-family="Times,serif" font-size="14.00">group hover</text>
<text xml:space="preserve" text-anchor="middle" x="267.53" y="-20.3" font-family="Times,serif" font-size="14.00">メンバー一覧実装</text>
</g>
<!-- cli_tool_v009&#45;&gt;implement_group_hover -->
<g id="edge4" class="edge">
<title>cli_tool_v009&#45;&gt;implement_group_hover</title>
<path fill="none" stroke="#28a745" d="M65.12,-263.86C76.02,-220.92 101.79,-140.96 151.2,-92.3 158.17,-85.43 166.22,-79.41 174.76,-74.15"/>
<polygon fill="#28a745" stroke="#28a745" points="176.33,-77.28 183.27,-69.27 172.85,-71.21 176.33,-77.28"/>
</g>
<!-- implement_hover_jump -->
<g id="node15" class="node">
<title>implement_hover_jump</title>
<ellipse fill="#c3e6cb" stroke="#28a745" cx="267.53" cy="-243.3" rx="106.44" ry="41.3"/>
<text xml:space="preserve" text-anchor="middle" x="267.53" y="-255.9" font-family="Times,serif" font-size="14.00">implement_hover_jump</text>
<text xml:space="preserve" text-anchor="middle" x="267.53" y="-239.1" font-family="Times,serif" font-size="14.00">hover/quickpick</text>
<text xml:space="preserve" text-anchor="middle" x="267.53" y="-222.3" font-family="Times,serif" font-size="14.00">ジャンプ実装</text>
</g>
<!-- cli_tool_v009&#45;&gt;implement_hover_jump -->
<g id="edge5" class="edge">
<title>cli_tool_v009&#45;&gt;implement_hover_jump</title>
<path fill="none" stroke="#28a745" d="M115.69,-279.57C131.08,-275.87 148.19,-271.75 165.22,-267.66"/>
<polygon fill="#28a745" stroke="#28a745" points="165.99,-271.07 174.9,-265.33 164.36,-264.26 165.99,-271.07"/>
</g>
<!-- implement_index_renum -->
<g id="node16" class="node">
<title>implement_index_renum</title>
<ellipse fill="#c3e6cb" stroke="#28a745" cx="267.53" cy="-445.3" rx="110.84" ry="41.3"/>
<text xml:space="preserve" text-anchor="middle" x="267.53" y="-457.9" font-family="Times,serif" font-size="14.00">implement_index_renum</text>
<text xml:space="preserve" text-anchor="middle" x="267.53" y="-441.1" font-family="Times,serif" font-size="14.00">index フィールド +</text>
<text xml:space="preserve" text-anchor="middle" x="267.53" y="-424.3" font-family="Times,serif" font-size="14.00">renum 実装</text>
</g>
<!-- cli_tool_v009&#45;&gt;implement_index_renum -->
<g id="edge6" class="edge">
<title>cli_tool_v009&#45;&gt;implement_index_renum</title>
<path fill="none" stroke="#28a745" d="M80.28,-322.91C97.55,-344.86 123.37,-374.32 151.2,-394.3 159.65,-400.36 168.93,-405.93 178.45,-410.98"/>
<polygon fill="#28a745" stroke="#28a745" points="176.58,-413.95 187.08,-415.36 179.75,-407.71 176.58,-413.95"/>
</g>
<!-- implement_run_command -->
<g id="node17" class="node">
<title>implement_run_command</title>
<ellipse fill="#c3e6cb" stroke="#28a745" cx="267.53" cy="-142.3" rx="115.79" ry="41.3"/>
<text xml:space="preserve" text-anchor="middle" x="267.53" y="-154.9" font-family="Times,serif" font-size="14.00">implement_run_command</text>
<text xml:space="preserve" text-anchor="middle" x="267.53" y="-138.1" font-family="Times,serif" font-size="14.00">process command</text>
<text xml:space="preserve" text-anchor="middle" x="267.53" y="-121.3" font-family="Times,serif" font-size="14.00">実行実装</text>
</g>
<!-- cli_tool_v009&#45;&gt;implement_run_command -->
<g id="edge7" class="edge">
<title>cli_tool_v009&#45;&gt;implement_run_command</title>
<path fill="none" stroke="#28a745" d="M80.34,-263.99C97.64,-242.26 123.47,-213.09 151.2,-193.3 159.16,-187.61 167.86,-182.36 176.79,-177.56"/>
<polygon fill="#28a745" stroke="#28a745" points="178.31,-180.71 185.6,-173.02 175.11,-174.49 178.31,-180.71"/>
</g>
<!-- implement_schedule_field -->
<g id="node18" class="node">
<title>implement_schedule_field</title>
<ellipse fill="#c3e6cb" stroke="#28a745" cx="267.53" cy="-344.3" rx="116.33" ry="41.3"/>
<text xml:space="preserve" text-anchor="middle" x="267.53" y="-356.9" font-family="Times,serif" font-size="14.00">implement_schedule_field</text>
<text xml:space="preserve" text-anchor="middle" x="267.53" y="-340.1" font-family="Times,serif" font-size="14.00">schedule:フィールド</text>
<text xml:space="preserve" text-anchor="middle" x="267.53" y="-323.3" font-family="Times,serif" font-size="14.00">実装</text>
</g>
<!-- cli_tool_v009&#45;&gt;implement_schedule_field -->
<g id="edge8" class="edge">
<title>cli_tool_v009&#45;&gt;implement_schedule_field</title>
<path fill="none" stroke="#28a745" d="M115.69,-307.3C129.53,-310.69 144.76,-314.43 160.07,-318.18"/>
<polygon fill="#28a745" stroke="#28a745" points="159.19,-321.57 169.74,-320.55 160.86,-314.77 159.19,-321.57"/>
</g>
<!-- i222_pfd_tools_consultation -->
<g id="node13" class="node">
<title>i222_pfd_tools_consultation</title>
<polygon fill="#c3e6cb" stroke="#28a745" points="1462.03,-500.1 1246.03,-500.1 1246.03,-458.5 1462.03,-458.5 1462.03,-500.1"/>
<text xml:space="preserve" text-anchor="middle" x="1354.03" y="-483.5" font-family="Times,serif" font-size="14.00">i222_pfd_tools_consultation</text>
<text xml:space="preserve" text-anchor="middle" x="1354.03" y="-466.7" font-family="Times,serif" font-size="14.00">pfd&#45;tools 打診 (#222)</text>
</g>
<!-- consult_pfd_tools&#45;&gt;i222_pfd_tools_consultation -->
<g id="edge9" class="edge">
<title>consult_pfd_tools&#45;&gt;i222_pfd_tools_consultation</title>
<path fill="none" stroke="#28a745" d="M1210.37,-479.3C1218.2,-479.3 1226.25,-479.3 1234.34,-479.3"/>
<polygon fill="#28a745" stroke="#28a745" points="1234.28,-482.8 1244.28,-479.3 1234.28,-475.8 1234.28,-482.8"/>
</g>
<!-- ext_v0014 -->
<g id="node5" class="node">
<title>ext_v0014</title>
<polygon fill="#c3e6cb" stroke="#28a745" points="998.72,-171.5 847.52,-171.5 847.52,-113.1 998.72,-113.1 998.72,-171.5"/>
<text xml:space="preserve" text-anchor="middle" x="923.12" y="-154.9" font-family="Times,serif" font-size="14.00">ext_v0014</text>
<text xml:space="preserve" text-anchor="middle" x="923.12" y="-138.1" font-family="Times,serif" font-size="14.00">extension v0.0</text>
<text xml:space="preserve" text-anchor="middle" x="923.12" y="-121.3" font-family="Times,serif" font-size="14.00">14（次期リリース）</text>
</g>
<!-- i219_w002_line -->
<g id="node10" class="node">
<title>i219_w002_line</title>
<polygon fill="#c3e6cb" stroke="#28a745" points="571.05,-627.5 427.05,-627.5 427.05,-569.1 571.05,-569.1 571.05,-627.5"/>
<text xml:space="preserve" text-anchor="middle" x="499.05" y="-610.9" font-family="Times,serif" font-size="14.00">i219_w002_line</text>
<text xml:space="preserve" text-anchor="middle" x="499.05" y="-594.1" font-family="Times,serif" font-size="14.00">W002 診断行番号修</text>
<text xml:space="preserve" text-anchor="middle" x="499.05" y="-577.3" font-family="Times,serif" font-size="14.00">正 (#219)</text>
</g>
<!-- fix_w002_line&#45;&gt;i219_w002_line -->
<g id="edge10" class="edge">
<title>fix_w002_line&#45;&gt;i219_w002_line</title>
<path fill="none" stroke="#28a745" d="M348.48,-581.35C370.19,-583.81 393.72,-586.48 415.57,-588.95"/>
<polygon fill="#28a745" stroke="#28a745" points="414.98,-592.41 425.31,-590.05 415.77,-585.45 414.98,-592.41"/>
</g>
<!-- i216_hover_jump -->
<g id="node7" class="node">
<title>i216_hover_jump</title>
<polygon fill="#c3e6cb" stroke="#28a745" points="570.43,-260.5 427.68,-260.5 427.68,-202.1 570.43,-202.1 570.43,-260.5"/>
<text xml:space="preserve" text-anchor="middle" x="499.05" y="-243.9" font-family="Times,serif" font-size="14.00">i216_hover_jump</text>
<text xml:space="preserve" text-anchor="middle" x="499.05" y="-227.1" font-family="Times,serif" font-size="14.00">hover/quickpick jump </text>
<text xml:space="preserve" text-anchor="middle" x="499.05" y="-210.3" font-family="Times,serif" font-size="14.00">(#216)</text>
</g>
<!-- publish_ext_v0014 -->
<g id="node21" class="node">
<title>publish_ext_v0014</title>
<ellipse fill="#c3e6cb" stroke="#28a745" cx="707.48" cy="-142.3" rx="87.21" ry="41.3"/>
<text xml:space="preserve" text-anchor="middle" x="707.48" y="-154.9" font-family="Times,serif" font-size="14.00">publish_ext_v0014</text>
<text xml:space="preserve" text-anchor="middle" x="707.48" y="-138.1" font-family="Times,serif" font-size="14.00">extension v0.0</text>
<text xml:space="preserve" text-anchor="middle" x="707.48" y="-121.3" font-family="Times,serif" font-size="14.00">14リリース</text>
</g>
<!-- i216_hover_jump&#45;&gt;publish_ext_v0014 -->
<g id="edge11" class="edge">
<title>i216_hover_jump&#45;&gt;publish_ext_v0014</title>
<path fill="none" stroke="#28a745" d="M568.79,-201.66C588.97,-192.96 611.13,-183.41 631.66,-174.55"/>
<polygon fill="#28a745" stroke="#28a745" points="633.05,-177.77 640.84,-170.6 630.28,-171.34 633.05,-177.77"/>
</g>
<!-- i217_run_command -->
<g id="node8" class="node">
<title>i217_run_command</title>
<polygon fill="#c3e6cb" stroke="#28a745" points="567.45,-171.5 430.65,-171.5 430.65,-113.1 567.45,-113.1 567.45,-171.5"/>
<text xml:space="preserve" text-anchor="middle" x="499.05" y="-154.9" font-family="Times,serif" font-size="14.00">i217_run_command</text>
<text xml:space="preserve" text-anchor="middle" x="499.05" y="-138.1" font-family="Times,serif" font-size="14.00">process command</text>
<text xml:space="preserve" text-anchor="middle" x="499.05" y="-121.3" font-family="Times,serif" font-size="14.00">実行 (#217)</text>
</g>
<!-- i217_run_command&#45;&gt;publish_ext_v0014 -->
<g id="edge12" class="edge">
<title>i217_run_command&#45;&gt;publish_ext_v0014</title>
<path fill="none" stroke="#28a745" d="M567.93,-142.3C580.97,-142.3 594.86,-142.3 608.63,-142.3"/>
<polygon fill="#28a745" stroke="#28a745" points="608.62,-145.8 618.62,-142.3 608.62,-138.8 608.62,-145.8"/>
</g>
<!-- i218_group_hover -->
<g id="node9" class="node">
<title>i218_group_hover</title>
<polygon fill="#c3e6cb" stroke="#28a745" points="578.25,-83.5 419.85,-83.5 419.85,-25.1 578.25,-25.1 578.25,-83.5"/>
<text xml:space="preserve" text-anchor="middle" x="499.05" y="-66.9" font-family="Times,serif" font-size="14.00">i218_group_hover</text>
<text xml:space="preserve" text-anchor="middle" x="499.05" y="-50.1" font-family="Times,serif" font-size="14.00">group hover</text>
<text xml:space="preserve" text-anchor="middle" x="499.05" y="-33.3" font-family="Times,serif" font-size="14.00">メンバー一覧 (#218)</text>
</g>
<!-- i218_group_hover&#45;&gt;publish_ext_v0014 -->
<g id="edge13" class="edge">
<title>i218_group_hover&#45;&gt;publish_ext_v0014</title>
<path fill="none" stroke="#28a745" d="M569.65,-83.97C589.49,-92.42 611.18,-101.67 631.33,-110.26"/>
<polygon fill="#28a745" stroke="#28a745" points="629.75,-113.39 640.32,-114.09 632.49,-106.95 629.75,-113.39"/>
</g>
<!-- i219_w002_line&#45;&gt;publish_cli_v0011 -->
<g id="edge14" class="edge">
<title>i219_w002_line&#45;&gt;publish_cli_v0011</title>
<path fill="none" stroke="#28a745" d="M562.69,-568.63C567.99,-565.88 573.24,-563.08 578.25,-560.3 605.05,-545.38 634,-527.28 657.6,-511.97"/>
<polygon fill="#28a745" stroke="#28a745" points="659.3,-515.04 665.77,-506.64 655.48,-509.17 659.3,-515.04"/>
</g>
<!-- i220_schedule_field -->
<g id="node11" class="node">
<title>i220_schedule_field</title>
<polygon fill="#c3e6cb" stroke="#28a745" points="578.25,-381.9 419.85,-381.9 419.85,-306.7 578.25,-306.7 578.25,-381.9"/>
<text xml:space="preserve" text-anchor="middle" x="499.05" y="-365.3" font-family="Times,serif" font-size="14.00">i220_schedule_field</text>
<text xml:space="preserve" text-anchor="middle" x="499.05" y="-348.5" font-family="Times,serif" font-size="14.00">schedule:</text>
<text xml:space="preserve" text-anchor="middle" x="499.05" y="-331.7" font-family="Times,serif" font-size="14.00">フィールド仕様・実</text>
<text xml:space="preserve" text-anchor="middle" x="499.05" y="-314.9" font-family="Times,serif" font-size="14.00">装 (#220)</text>
</g>
<!-- integrate_spec_v009 -->
<g id="node19" class="node">
<title>integrate_spec_v009</title>
<ellipse fill="#c3e6cb" stroke="#28a745" cx="707.48" cy="-369.3" rx="93.23" ry="29.42"/>
<text xml:space="preserve" text-anchor="middle" x="707.48" y="-373.5" font-family="Times,serif" font-size="14.00">integrate_spec_v009</text>
<text xml:space="preserve" text-anchor="middle" x="707.48" y="-356.7" font-family="Times,serif" font-size="14.00">仕様書 v0.0.9統合</text>
</g>
<!-- i220_schedule_field&#45;&gt;integrate_spec_v009 -->
<g id="edge15" class="edge">
<title>i220_schedule_field&#45;&gt;integrate_spec_v009</title>
<path fill="none" stroke="#28a745" d="M578.68,-353.82C588.45,-355 598.53,-356.22 608.55,-357.43"/>
<polygon fill="#28a745" stroke="#28a745" points="607.96,-360.89 618.3,-358.62 608.8,-353.94 607.96,-360.89"/>
</g>
<!-- i220_schedule_field&#45;&gt;publish_cli_v0011 -->
<g id="edge16" class="edge">
<title>i220_schedule_field&#45;&gt;publish_cli_v0011</title>
<path fill="none" stroke="#28a745" d="M565.56,-382.34C569.88,-384.99 574.14,-387.66 578.25,-390.3 605.86,-407.96 636,-428.8 660.12,-445.87"/>
<polygon fill="#28a745" stroke="#28a745" points="657.98,-448.64 668.16,-451.58 662.03,-442.93 657.98,-448.64"/>
</g>
<!-- i221_index_renum -->
<g id="node12" class="node">
<title>i221_index_renum</title>
<polygon fill="#c3e6cb" stroke="#28a745" points="574.65,-474.9 423.45,-474.9 423.45,-399.7 574.65,-399.7 574.65,-474.9"/>
<text xml:space="preserve" text-anchor="middle" x="499.05" y="-458.3" font-family="Times,serif" font-size="14.00">i221_index_renum</text>
<text xml:space="preserve" text-anchor="middle" x="499.05" y="-441.5" font-family="Times,serif" font-size="14.00">index フィールド +</text>
<text xml:space="preserve" text-anchor="middle" x="499.05" y="-424.7" font-family="Times,serif" font-size="14.00">renum コマンド </text>
<text xml:space="preserve" text-anchor="middle" x="499.05" y="-407.9" font-family="Times,serif" font-size="14.00">#221)</text>
</g>
<!-- i221_index_renum&#45;&gt;integrate_spec_v009 -->
<g id="edge17" class="edge">
<title>i221_index_renum&#45;&gt;integrate_spec_v009</title>
<path fill="none" stroke="#28a745" d="M574.87,-412.65C593.11,-406.64 612.64,-400.21 630.91,-394.19"/>
<polygon fill="#28a745" stroke="#28a745" points="631.97,-397.53 640.37,-391.07 629.78,-390.88 631.97,-397.53"/>
</g>
<!-- i221_index_renum&#45;&gt;publish_cli_v0011 -->
<g id="edge18" class="edge">
<title>i221_index_renum&#45;&gt;publish_cli_v0011</title>
<path fill="none" stroke="#28a745" d="M574.87,-452.52C589.4,-455.47 604.74,-458.59 619.62,-461.62"/>
<polygon fill="#28a745" stroke="#28a745" points="618.9,-465.05 629.4,-463.61 620.3,-458.19 618.9,-465.05"/>
</g>
<!-- implement_group_hover&#45;&gt;i218_group_hover -->
<g id="edge19" class="edge">
<title>implement_group_hover&#45;&gt;i218_group_hover</title>
<path fill="none" stroke="#28a745" d="M375.9,-47.38C386.69,-47.99 397.58,-48.6 408.16,-49.2"/>
<polygon fill="#28a745" stroke="#28a745" points="407.82,-52.69 418.01,-49.76 408.22,-45.7 407.82,-52.69"/>
</g>
<!-- implement_hover_jump&#45;&gt;i216_hover_jump -->
<g id="edge20" class="edge">
<title>implement_hover_jump&#45;&gt;i216_hover_jump</title>
<path fill="none" stroke="#28a745" d="M373.21,-237.82C387.53,-237.07 402.06,-236.31 415.9,-235.59"/>
<polygon fill="#28a745" stroke="#28a745" points="416.03,-239.09 425.83,-235.07 415.66,-232.1 416.03,-239.09"/>
</g>
<!-- implement_index_renum&#45;&gt;i221_index_renum -->
<g id="edge21" class="edge">
<title>implement_index_renum&#45;&gt;i221_index_renum</title>
<path fill="none" stroke="#28a745" d="M378.25,-441.47C389.54,-441.08 400.9,-440.68 411.88,-440.3"/>
<polygon fill="#28a745" stroke="#28a745" points="411.79,-443.8 421.66,-439.96 411.54,-436.81 411.79,-443.8"/>
</g>
<!-- implement_run_command&#45;&gt;i217_run_command -->
<g id="edge22" class="edge">
<title>implement_run_command&#45;&gt;i217_run_command</title>
<path fill="none" stroke="#28a745" d="M383.63,-142.3C395.62,-142.3 407.61,-142.3 419.08,-142.3"/>
<polygon fill="#28a745" stroke="#28a745" points="418.83,-145.8 428.83,-142.3 418.83,-138.8 418.83,-145.8"/>
</g>
<!-- implement_schedule_field&#45;&gt;i220_schedule_field -->
<g id="edge23" class="edge">
<title>implement_schedule_field&#45;&gt;i220_schedule_field</title>
<path fill="none" stroke="#28a745" d="M384.3,-344.3C392.31,-344.3 400.31,-344.3 408.15,-344.3"/>
<polygon fill="#28a745" stroke="#28a745" points="407.99,-347.8 417.99,-344.3 407.99,-340.8 407.99,-347.8"/>
</g>
<!-- spec_v009 -->
<g id="node22" class="node">
<title>spec_v009</title>
<polygon fill="#c3e6cb" stroke="#28a745" points="1009.52,-406.9 836.72,-406.9 836.72,-331.7 1009.52,-331.7 1009.52,-406.9"/>
<text xml:space="preserve" text-anchor="middle" x="923.12" y="-390.3" font-family="Times,serif" font-size="14.00">spec_v009</text>
<text xml:space="preserve" text-anchor="middle" x="923.12" y="-373.5" font-family="Times,serif" font-size="14.00">仕様書 v0.0</text>
<text xml:space="preserve" text-anchor="middle" x="923.12" y="-356.7" font-family="Times,serif" font-size="14.00">9（schedule:/index:統</text>
<text xml:space="preserve" text-anchor="middle" x="923.12" y="-339.9" font-family="Times,serif" font-size="14.00">合）</text>
</g>
<!-- integrate_spec_v009&#45;&gt;spec_v009 -->
<g id="edge24" class="edge">
<title>integrate_spec_v009&#45;&gt;spec_v009</title>
<path fill="none" stroke="#28a745" d="M800.94,-369.3C808.91,-369.3 816.99,-369.3 825,-369.3"/>
<polygon fill="#28a745" stroke="#28a745" points="824.74,-372.8 834.74,-369.3 824.74,-365.8 824.74,-372.8"/>
</g>
<!-- publish_cli_v0011&#45;&gt;cli_tool_v0011 -->
<g id="edge25" class="edge">
<title>publish_cli_v0011&#45;&gt;cli_tool_v0011</title>
<path fill="none" stroke="#28a745" d="M796.92,-479.3C809.88,-479.3 823.21,-479.3 836.13,-479.3"/>
<polygon fill="#28a745" stroke="#28a745" points="835.83,-482.8 845.83,-479.3 835.83,-475.8 835.83,-482.8"/>
</g>
<!-- publish_ext_v0014&#45;&gt;ext_v0014 -->
<g id="edge26" class="edge">
<title>publish_ext_v0014&#45;&gt;ext_v0014</title>
<path fill="none" stroke="#28a745" d="M795.07,-142.3C808.53,-142.3 822.44,-142.3 835.9,-142.3"/>
<polygon fill="#28a745" stroke="#28a745" points="835.56,-145.8 845.56,-142.3 835.56,-138.8 835.56,-145.8"/>
</g>
</g>
</svg>
