<?xml version="1.0" encoding="UTF-8" standalone="no"?>
<!DOCTYPE svg PUBLIC "-//W3C//DTD SVG 1.1//EN"
 "http://www.w3.org/Graphics/SVG/1.1/DTD/svg11.dtd">
<!-- Generated by graphviz version 15.0.0 (0)
 -->
<!-- Title: PFDSL Pages: 1 -->
<svg width="631pt" height="260pt"
 viewBox="0.00 0.00 631.00 260.00" xmlns="http://www.w3.org/2000/svg" xmlns:xlink="http://www.w3.org/1999/xlink">
<g id="graph0" class="graph" transform="scale(1 1) rotate(0) translate(4 256.22)">
<title>PFDSL</title>
<polygon fill="white" stroke="none" points="-4,4 -4,-256.22 626.57,-256.22 626.57,4 -4,4"/>
<text xml:space="preserve" text-anchor="middle" x="311.29" y="-235.62" font-family="Times,serif" font-size="14.00">Issue 依存フロー（2026&#45;06） — diff</text>
<text xml:space="preserve" text-anchor="middle" x="311.29" y="-218.82" font-family="Times,serif" font-size="14.00">green = added · red = removed · yellow = changed</text>
<!-- cli_tool_v0010 -->
<g id="node1" class="node">
<title>cli_tool_v0010</title>
<polygon fill="#f5f5f5" stroke="#bbbbbb" points="158.4,-58.62 36,-58.62 36,-0.22 158.4,-0.22 158.4,-58.62"/>
<text xml:space="preserve" text-anchor="middle" x="97.2" y="-42.02" font-family="Times,serif" font-size="14.00" fill="#777777">cli_tool_v0010</text>
<text xml:space="preserve" text-anchor="middle" x="97.2" y="-25.22" font-family="Times,serif" font-size="14.00" fill="#777777">CLI v0.0</text>
<text xml:space="preserve" text-anchor="middle" x="97.2" y="-8.42" font-family="Times,serif" font-size="14.00" fill="#777777">10（公開済み）</text>
</g>
<!-- publish_libraries -->
<g id="node4" class="node">
<title>publish_libraries</title>
<ellipse fill="#c3e6cb" stroke="#28a745" cx="311.29" cy="-29.42" rx="80.89" ry="29.42"/>
<text xml:space="preserve" text-anchor="middle" x="311.29" y="-33.62" font-family="Times,serif" font-size="14.00">publish_libraries</text>
<text xml:space="preserve" text-anchor="middle" x="311.29" y="-16.82" font-family="Times,serif" font-size="14.00">npmライブラリ公開</text>
</g>
<!-- cli_tool_v0010&#45;&gt;publish_libraries -->
<g id="edge1" class="edge">
<title>cli_tool_v0010&#45;&gt;publish_libraries</title>
<path fill="none" stroke="#28a745" d="M158.69,-29.42C177.3,-29.42 198.23,-29.42 218.45,-29.42"/>
<polygon fill="#28a745" stroke="#28a745" points="218.4,-32.92 228.4,-29.42 218.4,-25.92 218.4,-32.92"/>
</g>
<!-- i119_published_extension -->
<g id="node2" class="node">
<title>i119_published_extension</title>
<polygon fill="#ffeeba" stroke="#e0a800" points="194.4,-134.62 0,-134.62 0,-76.22 194.4,-76.22 194.4,-134.62"/>
<text xml:space="preserve" text-anchor="middle" x="97.2" y="-118.02" font-family="Times,serif" font-size="14.00">i119_published_extension</text>
<text xml:space="preserve" text-anchor="middle" x="97.2" y="-101.22" font-family="Times,serif" font-size="14.00">Marketplace 公開済み</text>
<text xml:space="preserve" text-anchor="middle" x="97.2" y="-84.42" font-family="Times,serif" font-size="14.00"> extension (#119)</text>
</g>
<!-- i252_published_libraries -->
<g id="node3" class="node">
<title>i252_published_libraries</title>
<polygon fill="#c3e6cb" stroke="#28a745" points="622.57,-58.62 428.17,-58.62 428.17,-0.22 622.57,-0.22 622.57,-58.62"/>
<text xml:space="preserve" text-anchor="middle" x="525.37" y="-42.02" font-family="Times,serif" font-size="14.00">i252_published_libraries</text>
<text xml:space="preserve" text-anchor="middle" x="525.37" y="-25.22" font-family="Times,serif" font-size="14.00">npm ライブラリ公開 </text>
<text xml:space="preserve" text-anchor="middle" x="525.37" y="-8.42" font-family="Times,serif" font-size="14.00">(#252)</text>
</g>
<!-- publish_libraries&#45;&gt;i252_published_libraries -->
<g id="edge2" class="edge">
<title>publish_libraries&#45;&gt;i252_published_libraries</title>
<path fill="none" stroke="#28a745" d="M392.47,-29.42C400.36,-29.42 408.46,-29.42 416.57,-29.42"/>
<polygon fill="#28a745" stroke="#28a745" points="416.51,-32.92 426.51,-29.42 416.51,-25.92 416.51,-32.92"/>
</g>
<!-- spec_v009 -->
<g id="node5" class="node">
<title>spec_v009</title>
<polygon fill="#ffeeba" stroke="#e0a800" points="162,-210.62 32.4,-210.62 32.4,-152.22 162,-152.22 162,-210.62"/>
<text xml:space="preserve" text-anchor="middle" x="97.2" y="-194.02" font-family="Times,serif" font-size="14.00">spec_v009</text>
<text xml:space="preserve" text-anchor="middle" x="97.2" y="-177.22" font-family="Times,serif" font-size="14.00">仕様書 v0.0</text>
<text xml:space="preserve" text-anchor="middle" x="97.2" y="-160.42" font-family="Times,serif" font-size="14.00">9（index:統合）</text>
</g>
</g>
</svg>
