<?xml version="1.0" encoding="UTF-8" standalone="no"?>
<!DOCTYPE svg PUBLIC "-//W3C//DTD SVG 1.1//EN"
 "http://www.w3.org/Graphics/SVG/1.1/DTD/svg11.dtd">
<!-- Generated by graphviz version 15.0.0 (0)
 -->
<!-- Title: PFDSL Pages: 1 -->
<svg width="506pt" height="304pt"
 viewBox="0.00 0.00 506.00 304.00" xmlns="http://www.w3.org/2000/svg" xmlns:xlink="http://www.w3.org/1999/xlink">
<g id="graph0" class="graph" transform="scale(1 1) rotate(0) translate(4 299.82)">
<title>PFDSL</title>
<polygon fill="white" stroke="none" points="-4,4 -4,-299.82 501.66,-299.82 501.66,4 -4,4"/>
<text xml:space="preserve" text-anchor="middle" x="248.83" y="-279.22" font-family="Times,serif" font-size="14.00">pfdsl開発ワークフロー — diff</text>
<text xml:space="preserve" text-anchor="middle" x="248.83" y="-262.42" font-family="Times,serif" font-size="14.00">green = added · red = removed · yellow = changed</text>
<!-- publish_cli -->
<g id="node1" class="node">
<title>publish_cli</title>
<ellipse fill="#ffeeba" stroke="#e0a800" cx="77.85" cy="-29.42" rx="55.31" ry="29.42"/>
<text xml:space="preserve" text-anchor="middle" x="77.85" y="-33.62" font-family="Times,serif" font-size="14.00">publish_cli</text>
<text xml:space="preserve" text-anchor="middle" x="77.85" y="-16.82" font-family="Times,serif" font-size="14.00">CLI 公開</text>
</g>
<!-- publish_ext -->
<g id="node2" class="node">
<title>publish_ext</title>
<ellipse fill="#c3e6cb" stroke="#28a745" cx="258.28" cy="-97.42" rx="66.58" ry="29.42"/>
<text xml:space="preserve" text-anchor="middle" x="258.28" y="-101.62" font-family="Times,serif" font-size="14.00">publish_ext</text>
<text xml:space="preserve" text-anchor="middle" x="258.28" y="-84.82" font-family="Times,serif" font-size="14.00">extension 公開</text>
</g>
<!-- published_ext -->
<g id="node4" class="node">
<title>published_ext</title>
<polygon fill="#c3e6cb" stroke="#28a745" points="497.66,-126.62 360.86,-126.62 360.86,-68.22 497.66,-68.22 497.66,-126.62"/>
<text xml:space="preserve" text-anchor="middle" x="429.26" y="-110.02" font-family="Times,serif" font-size="14.00">published_ext</text>
<text xml:space="preserve" text-anchor="middle" x="429.26" y="-93.22" font-family="Times,serif" font-size="14.00">Marketplace 公開</text>
<text xml:space="preserve" text-anchor="middle" x="429.26" y="-76.42" font-family="Times,serif" font-size="14.00">extension</text>
</g>
<!-- publish_ext&#45;&gt;published_ext -->
<g id="edge1" class="edge">
<title>publish_ext&#45;&gt;published_ext</title>
<path fill="none" stroke="#28a745" d="M325.09,-97.42C332.97,-97.42 341.07,-97.42 349.1,-97.42"/>
<polygon fill="#28a745" stroke="#28a745" points="348.88,-100.92 358.88,-97.42 348.88,-93.92 348.88,-100.92"/>
</g>
<!-- publish_libraries -->
<g id="node3" class="node">
<title>publish_libraries</title>
<ellipse fill="#ffeeba" stroke="#e0a800" cx="77.85" cy="-165.42" rx="77.85" ry="29.42"/>
<text xml:space="preserve" text-anchor="middle" x="77.85" y="-169.62" font-family="Times,serif" font-size="14.00">publish_libraries</text>
<text xml:space="preserve" text-anchor="middle" x="77.85" y="-152.82" font-family="Times,serif" font-size="14.00">ライブラリ公開</text>
</g>
<!-- readme -->
<g id="node5" class="node">
<title>readme</title>
<polygon fill="#ffeeba" stroke="#e0a800" points="115.41,-254.22 40.29,-254.22 40.29,-212.62 115.41,-212.62 115.41,-254.22"/>
<text xml:space="preserve" text-anchor="middle" x="77.85" y="-237.62" font-family="Times,serif" font-size="14.00">readme</text>
<text xml:space="preserve" text-anchor="middle" x="77.85" y="-220.82" font-family="Times,serif" font-size="14.00">README</text>
</g>
<!-- toolchain -->
<g id="node6" class="node">
<title>toolchain</title>
<polygon fill="#f5f5f5" stroke="#bbbbbb" points="139.05,-118.22 16.65,-118.22 16.65,-76.62 139.05,-76.62 139.05,-118.22"/>
<text xml:space="preserve" text-anchor="middle" x="77.85" y="-101.62" font-family="Times,serif" font-size="14.00" fill="#777777">toolchain</text>
<text xml:space="preserve" text-anchor="middle" x="77.85" y="-84.82" font-family="Times,serif" font-size="14.00" fill="#777777">ツールチェーン</text>
</g>
<!-- toolchain&#45;&gt;publish_ext -->
<g id="edge2" class="edge">
<title>toolchain&#45;&gt;publish_ext</title>
<path fill="none" stroke="#28a745" d="M139.26,-97.42C152.37,-97.42 166.41,-97.42 180.07,-97.42"/>
<polygon fill="#28a745" stroke="#28a745" points="179.91,-100.92 189.91,-97.42 179.91,-93.92 179.91,-100.92"/>
</g>
</g>
</svg>
