<?xml version="1.0" encoding="UTF-8" standalone="no"?>
<!DOCTYPE svg PUBLIC "-//W3C//DTD SVG 1.1//EN"
 "http://www.w3.org/Graphics/SVG/1.1/DTD/svg11.dtd">
<!-- Generated by graphviz version 15.1.0 (0)
 -->
<!-- Title: PFDSL Pages: 1 -->
<svg width="1723pt" height="533pt"
 viewBox="0.00 0.00 1723.00 533.00" xmlns="http://www.w3.org/2000/svg" xmlns:xlink="http://www.w3.org/1999/xlink">
<g id="graph0" class="graph" transform="scale(1 1) rotate(0) translate(4 529.22)">
<title>PFDSL</title>
<polygon fill="white" stroke="none" points="-4,4 -4,-529.22 1718.54,-529.22 1718.54,4 -4,4"/>
<text xml:space="preserve" text-anchor="middle" x="857.27" y="-508.62" font-family="Times,serif" font-size="14.00">pfdsl CLI 変換パイプライン — diff</text>
<text xml:space="preserve" text-anchor="middle" x="857.27" y="-491.82" font-family="Times,serif" font-size="14.00">green = added · red = removed · yellow = changed</text>
<!-- adopter_env -->
<g id="node1" class="node">
<title>adopter_env</title>
<polygon fill="#c3e6cb" stroke="#28a745" points="165.6,-58.4 0,-58.4 0,0 165.6,0 165.6,-58.4"/>
<text xml:space="preserve" text-anchor="middle" x="82.8" y="-41.8" font-family="Times,serif" font-size="14.00">adopter_env</text>
<text xml:space="preserve" text-anchor="middle" x="82.8" y="-25" font-family="Times,serif" font-size="14.00">採用ユーザー環境（ユ</text>
<text xml:space="preserve" text-anchor="middle" x="82.8" y="-8.2" font-family="Times,serif" font-size="14.00">ーザー単位・リポ外）</text>
</g>
<!-- assemble_plugin -->
<g id="node2" class="node">
<title>assemble_plugin</title>
<ellipse fill="#c3e6cb" stroke="#28a745" cx="279.74" cy="-292.2" rx="78.14" ry="29.42"/>
<text xml:space="preserve" text-anchor="middle" x="279.74" y="-296.4" font-family="Times,serif" font-size="14.00">assemble_plugin</text>
<text xml:space="preserve" text-anchor="middle" x="279.74" y="-279.6" font-family="Times,serif" font-size="14.00">プラグイン組み立て</text>
</g>
<!-- plugin_dir -->
<g id="node18" class="node">
<title>plugin_dir</title>
<polygon fill="#c3e6cb" stroke="#28a745" points="559.47,-333.4 393.87,-333.4 393.87,-275 559.47,-275 559.47,-333.4"/>
<text xml:space="preserve" text-anchor="middle" x="476.67" y="-316.8" font-family="Times,serif" font-size="14.00">plugin_dir</text>
<text xml:space="preserve" text-anchor="middle" x="476.67" y="-300" font-family="Times,serif" font-size="14.00">配布プラグインディレ</text>
<text xml:space="preserve" text-anchor="middle" x="476.67" y="-283.2" font-family="Times,serif" font-size="14.00">クトリ</text>
</g>
<!-- assemble_plugin&#45;&gt;plugin_dir -->
<g id="edge1" class="edge">
<title>assemble_plugin&#45;&gt;plugin_dir</title>
<path fill="none" stroke="#28a745" d="M357.22,-296.91C365.43,-297.41 373.85,-297.93 382.24,-298.45"/>
<polygon fill="#28a745" stroke="#28a745" points="381.91,-301.93 392.11,-299.06 382.34,-294.95 381.91,-301.93"/>
</g>
<!-- bundle_skills -->
<g id="node3" class="node">
<title>bundle_skills</title>
<ellipse fill="#f5c6cb" stroke="#dc3545" cx="279.74" cy="-211.2" rx="78.14" ry="29.42"/>
<text xml:space="preserve" text-anchor="middle" x="279.74" y="-215.4" font-family="Times,serif" font-size="14.00">bundle_skills</text>
<text xml:space="preserve" text-anchor="middle" x="279.74" y="-198.6" font-family="Times,serif" font-size="14.00">スキルバンドル生成</text>
</g>
<!-- skill_source_bundle -->
<g id="node20" class="node">
<title>skill_source_bundle</title>
<polygon fill="#f5c6cb" stroke="#dc3545" points="555.87,-208 397.47,-208 397.47,-166.4 555.87,-166.4 555.87,-208"/>
<text xml:space="preserve" text-anchor="middle" x="476.67" y="-191.4" font-family="Times,serif" font-size="14.00">skill_source_bundle</text>
<text xml:space="preserve" text-anchor="middle" x="476.67" y="-174.6" font-family="Times,serif" font-size="14.00">配布対象スキル束</text>
</g>
<!-- bundle_skills&#45;&gt;skill_source_bundle -->
<g id="edge2" class="edge">
<title>bundle_skills&#45;&gt;skill_source_bundle</title>
<path fill="none" stroke="#dc3545" stroke-dasharray="5,2" d="M354.43,-202.13C364.65,-200.87 375.23,-199.57 385.7,-198.28"/>
<polygon fill="#dc3545" stroke="#dc3545" points="385.99,-201.77 395.49,-197.07 385.14,-194.82 385.99,-201.77"/>
</g>
<!-- check_install_sync -->
<g id="node4" class="node">
<title>check_install_sync</title>
<ellipse fill="#c3e6cb" stroke="#28a745" cx="1483.91" cy="-347.2" rx="86.64" ry="41.3"/>
<text xml:space="preserve" text-anchor="middle" x="1483.91" y="-359.8" font-family="Times,serif" font-size="14.00">check_install_sync</text>
<text xml:space="preserve" text-anchor="middle" x="1483.91" y="-343" font-family="Times,serif" font-size="14.00">配置鮮度セルフチェッ</text>
<text xml:space="preserve" text-anchor="middle" x="1483.91" y="-326.2" font-family="Times,serif" font-size="14.00">ク</text>
</g>
<!-- drift_report -->
<g id="node6" class="node">
<title>drift_report</title>
<polygon fill="#c3e6cb" stroke="#28a745" points="1714.54,-368 1606.54,-368 1606.54,-326.4 1714.54,-326.4 1714.54,-368"/>
<text xml:space="preserve" text-anchor="middle" x="1660.54" y="-351.4" font-family="Times,serif" font-size="14.00">drift_report</text>
<text xml:space="preserve" text-anchor="middle" x="1660.54" y="-334.6" font-family="Times,serif" font-size="14.00">配置鮮度警告</text>
</g>
<!-- check_install_sync&#45;&gt;drift_report -->
<g id="edge3" class="edge">
<title>check_install_sync&#45;&gt;drift_report</title>
<path fill="none" stroke="#28a745" d="M1570.95,-347.2C1579.04,-347.2 1587.16,-347.2 1595.01,-347.2"/>
<polygon fill="#28a745" stroke="#28a745" points="1594.77,-350.7 1604.77,-347.2 1594.77,-343.7 1594.77,-350.7"/>
</g>
<!-- deploy_install_layer -->
<g id="node5" class="node">
<title>deploy_install_layer</title>
<ellipse fill="#c3e6cb" stroke="#28a745" cx="1081.93" cy="-319.2" rx="92.14" ry="29.42"/>
<text xml:space="preserve" text-anchor="middle" x="1081.93" y="-323.4" font-family="Times,serif" font-size="14.00">deploy_install_layer</text>
<text xml:space="preserve" text-anchor="middle" x="1081.93" y="-306.6" font-family="Times,serif" font-size="14.00">L3レイヤー実配置</text>
</g>
<!-- installed_l3_layer -->
<g id="node12" class="node">
<title>installed_l3_layer</title>
<polygon fill="#ffeeba" stroke="#e0a800" points="1361.27,-340 1210.07,-340 1210.07,-298.4 1361.27,-298.4 1361.27,-340"/>
<text xml:space="preserve" text-anchor="middle" x="1285.67" y="-323.4" font-family="Times,serif" font-size="14.00">installed_l3_layer</text>
<text xml:space="preserve" text-anchor="middle" x="1285.67" y="-306.6" font-family="Times,serif" font-size="14.00">導入済みL3レイヤー</text>
</g>
<!-- deploy_install_layer&#45;&gt;installed_l3_layer -->
<g id="edge4" class="edge">
<title>deploy_install_layer&#45;&gt;installed_l3_layer</title>
<path fill="none" stroke="#28a745" d="M1174.35,-319.2C1182.43,-319.2 1190.59,-319.2 1198.62,-319.2"/>
<polygon fill="#28a745" stroke="#28a745" points="1198.36,-322.7 1208.36,-319.2 1198.36,-315.7 1198.36,-322.7"/>
</g>
<!-- ecosystem_skill -->
<g id="node7" class="node">
<title>ecosystem_skill</title>
<polygon fill="#ffeeba" stroke="#e0a800" points="162,-347 3.6,-347 3.6,-305.4 162,-305.4 162,-347"/>
<text xml:space="preserve" text-anchor="middle" x="82.8" y="-330.4" font-family="Times,serif" font-size="14.00">ecosystem_skill</text>
<text xml:space="preserve" text-anchor="middle" x="82.8" y="-313.6" font-family="Times,serif" font-size="14.00">PFDセット構築スキル</text>
</g>
<!-- ecosystem_skill&#45;&gt;assemble_plugin -->
<g id="edge5" class="edge">
<title>ecosystem_skill&#45;&gt;assemble_plugin</title>
<path fill="none" stroke="#28a745" d="M162.25,-312.52C173.79,-310.5 185.71,-308.43 197.31,-306.4"/>
<polygon fill="#28a745" stroke="#28a745" points="197.58,-309.91 206.83,-304.74 196.37,-303.01 197.58,-309.91"/>
</g>
<!-- ecosystem_skill&#45;&gt;bundle_skills -->
<g id="edge6" class="edge">
<title>ecosystem_skill&#45;&gt;bundle_skills</title>
<path fill="none" stroke="#dc3545" stroke-dasharray="5,2" d="M150.87,-304.91C156.03,-302.29 161,-299.39 165.6,-296.2 185.8,-282.18 182.57,-269.76 201.6,-254.2 207.72,-249.2 214.5,-244.46 221.44,-240.1"/>
<polygon fill="#dc3545" stroke="#dc3545" points="222.88,-243.31 229.64,-235.16 219.26,-237.32 222.88,-243.31"/>
</g>
<!-- ensure_labels -->
<g id="node8" class="node">
<title>ensure_labels</title>
<ellipse fill="#ffeeba" stroke="#e0a800" cx="82.8" cy="-454.2" rx="65.19" ry="29.42"/>
<text xml:space="preserve" text-anchor="middle" x="82.8" y="-458.4" font-family="Times,serif" font-size="14.00">ensure_labels</text>
<text xml:space="preserve" text-anchor="middle" x="82.8" y="-441.6" font-family="Times,serif" font-size="14.00">ラベル保証</text>
</g>
<!-- install_plugin -->
<g id="node9" class="node">
<title>install_plugin</title>
<ellipse fill="#c3e6cb" stroke="#28a745" cx="681.03" cy="-317.2" rx="85.56" ry="41.3"/>
<text xml:space="preserve" text-anchor="middle" x="681.03" y="-329.8" font-family="Times,serif" font-size="14.00">install_plugin</text>
<text xml:space="preserve" text-anchor="middle" x="681.03" y="-313" font-family="Times,serif" font-size="14.00">プラグインインストー</text>
<text xml:space="preserve" text-anchor="middle" x="681.03" y="-296.2" font-family="Times,serif" font-size="14.00">ル</text>
</g>
<!-- installed_plugin -->
<g id="node13" class="node">
<title>installed_plugin</title>
<polygon fill="#c3e6cb" stroke="#28a745" points="953.79,-340 802.59,-340 802.59,-298.4 953.79,-298.4 953.79,-340"/>
<text xml:space="preserve" text-anchor="middle" x="878.19" y="-323.4" font-family="Times,serif" font-size="14.00">installed_plugin</text>
<text xml:space="preserve" text-anchor="middle" x="878.19" y="-306.6" font-family="Times,serif" font-size="14.00">導入済みプラグイン</text>
</g>
<!-- install_plugin&#45;&gt;installed_plugin -->
<g id="edge7" class="edge">
<title>install_plugin&#45;&gt;installed_plugin</title>
<path fill="none" stroke="#28a745" d="M767.06,-318.07C774.93,-318.15 782.91,-318.23 790.79,-318.31"/>
<polygon fill="#28a745" stroke="#28a745" points="790.69,-321.81 800.72,-318.42 790.76,-314.81 790.69,-321.81"/>
</g>
<!-- installed_agents -->
<g id="node10" class="node">
<title>installed_agents</title>
<polygon fill="#f5c6cb" stroke="#dc3545" points="950.19,-208 806.19,-208 806.19,-166.4 950.19,-166.4 950.19,-208"/>
<text xml:space="preserve" text-anchor="middle" x="878.19" y="-191.4" font-family="Times,serif" font-size="14.00">installed_agents</text>
<text xml:space="preserve" text-anchor="middle" x="878.19" y="-174.6" font-family="Times,serif" font-size="14.00">導入済みagent定義</text>
</g>
<!-- installed_commands -->
<g id="node11" class="node">
<title>installed_commands</title>
<polygon fill="#f5c6cb" stroke="#dc3545" points="953.79,-131 802.59,-131 802.59,-89.4 953.79,-89.4 953.79,-131"/>
<text xml:space="preserve" text-anchor="middle" x="878.19" y="-114.4" font-family="Times,serif" font-size="14.00">installed_commands</text>
<text xml:space="preserve" text-anchor="middle" x="878.19" y="-97.6" font-family="Times,serif" font-size="14.00">導入済みコマンド</text>
</g>
<!-- installed_l3_layer&#45;&gt;check_install_sync -->
<g id="edge8" class="edge">
<title>installed_l3_layer&#45;&gt;check_install_sync</title>
<path fill="none" stroke="#28a745" d="M1361.7,-329.91C1370.7,-331.19 1379.97,-332.51 1389.19,-333.83"/>
<polygon fill="#28a745" stroke="#28a745" points="1388.5,-337.27 1398.9,-335.21 1389.49,-330.34 1388.5,-337.27"/>
</g>
<!-- installed_plugin&#45;&gt;check_install_sync -->
<g id="edge9" class="edge">
<title>installed_plugin&#45;&gt;check_install_sync</title>
<path fill="none" stroke="#28a745" d="M929.48,-340.41C948.08,-347.19 969.56,-353.82 989.79,-357.2 1127.23,-380.15 1289.19,-369.88 1388.96,-359.36"/>
<polygon fill="#28a745" stroke="#28a745" points="1389.14,-362.86 1398.71,-358.3 1388.39,-355.9 1389.14,-362.86"/>
</g>
<!-- installed_plugin&#45;&gt;deploy_install_layer -->
<g id="edge10" class="edge">
<title>installed_plugin&#45;&gt;deploy_install_layer</title>
<path fill="none" stroke="#28a745" d="M954.02,-319.2C961.87,-319.2 969.95,-319.2 978.04,-319.2"/>
<polygon fill="#28a745" stroke="#28a745" points="977.96,-322.7 987.96,-319.2 977.96,-315.7 977.96,-322.7"/>
</g>
<!-- installed_skills -->
<g id="node14" class="node">
<title>installed_skills</title>
<polygon fill="#f5c6cb" stroke="#dc3545" points="946.59,-54 809.79,-54 809.79,-12.4 946.59,-12.4 946.59,-54"/>
<text xml:space="preserve" text-anchor="middle" x="878.19" y="-37.4" font-family="Times,serif" font-size="14.00">installed_skills</text>
<text xml:space="preserve" text-anchor="middle" x="878.19" y="-20.6" font-family="Times,serif" font-size="14.00">導入済みスキル</text>
</g>
<!-- ops_skill_general -->
<g id="node15" class="node">
<title>ops_skill_general</title>
<polygon fill="#f5f5f5" stroke="#bbbbbb" points="162,-287.4 3.6,-287.4 3.6,-229 162,-229 162,-287.4"/>
<text xml:space="preserve" text-anchor="middle" x="82.8" y="-270.8" font-family="Times,serif" font-size="14.00" fill="#777777">ops_skill_general</text>
<text xml:space="preserve" text-anchor="middle" x="82.8" y="-254" font-family="Times,serif" font-size="14.00" fill="#777777">PFD運用フレームワー</text>
<text xml:space="preserve" text-anchor="middle" x="82.8" y="-237.2" font-family="Times,serif" font-size="14.00" fill="#777777">ク 汎用層</text>
</g>
<!-- ops_skill_general&#45;&gt;assemble_plugin -->
<g id="edge11" class="edge">
<title>ops_skill_general&#45;&gt;assemble_plugin</title>
<path fill="none" stroke="#28a745" d="M162.25,-271.88C173.79,-273.9 185.71,-275.97 197.31,-278"/>
<polygon fill="#28a745" stroke="#28a745" points="196.37,-281.39 206.83,-279.66 197.58,-274.49 196.37,-281.39"/>
</g>
<!-- ops_skill_general&#45;&gt;bundle_skills -->
<g id="edge12" class="edge">
<title>ops_skill_general&#45;&gt;bundle_skills</title>
<path fill="none" stroke="#dc3545" stroke-dasharray="5,2" d="M162.25,-239.29C175.47,-236.1 189.18,-232.79 202.35,-229.62"/>
<polygon fill="#dc3545" stroke="#dc3545" points="202.89,-233.09 211.79,-227.34 201.25,-226.28 202.89,-233.09"/>
</g>
<!-- ops_skill_l3 -->
<g id="node16" class="node">
<title>ops_skill_l3</title>
<polygon fill="#f5f5f5" stroke="#bbbbbb" points="165.6,-210.8 0,-210.8 0,-135.6 165.6,-135.6 165.6,-210.8"/>
<text xml:space="preserve" text-anchor="middle" x="82.8" y="-194.2" font-family="Times,serif" font-size="14.00" fill="#777777">ops_skill_l3</text>
<text xml:space="preserve" text-anchor="middle" x="82.8" y="-177.4" font-family="Times,serif" font-size="14.00" fill="#777777">PFD運用フレームワー</text>
<text xml:space="preserve" text-anchor="middle" x="82.8" y="-160.6" font-family="Times,serif" font-size="14.00" fill="#777777">ク GitHub</text>
<text xml:space="preserve" text-anchor="middle" x="82.8" y="-143.8" font-family="Times,serif" font-size="14.00" fill="#777777">Issuesバックエンド層</text>
</g>
<!-- ops_skill_l3&#45;&gt;assemble_plugin -->
<g id="edge13" class="edge">
<title>ops_skill_l3&#45;&gt;assemble_plugin</title>
<path fill="none" stroke="#28a745" d="M151.72,-211.11C156.47,-214.1 161.14,-217.15 165.6,-220.2 182.56,-231.8 184.57,-237.71 201.6,-249.2 208.49,-253.85 215.93,-258.46 223.37,-262.84"/>
<polygon fill="#28a745" stroke="#28a745" points="221.37,-265.73 231.79,-267.69 224.87,-259.66 221.37,-265.73"/>
</g>
<!-- ops_skill_l3&#45;&gt;bundle_skills -->
<g id="edge14" class="edge">
<title>ops_skill_l3&#45;&gt;bundle_skills</title>
<path fill="none" stroke="#dc3545" stroke-dasharray="5,2" d="M165.91,-189.21C176.72,-191.31 187.79,-193.47 198.57,-195.57"/>
<polygon fill="#dc3545" stroke="#dc3545" points="197.7,-198.97 208.18,-197.45 199.04,-192.1 197.7,-198.97"/>
</g>
<!-- pfdsl_skill -->
<g id="node17" class="node">
<title>pfdsl_skill</title>
<polygon fill="#ffeeba" stroke="#e0a800" points="165.6,-118 0,-118 0,-76.4 165.6,-76.4 165.6,-118"/>
<text xml:space="preserve" text-anchor="middle" x="82.8" y="-101.4" font-family="Times,serif" font-size="14.00">pfdsl_skill</text>
<text xml:space="preserve" text-anchor="middle" x="82.8" y="-84.6" font-family="Times,serif" font-size="14.00">PFD読み書き分析skill</text>
</g>
<!-- pfdsl_skill&#45;&gt;assemble_plugin -->
<g id="edge15" class="edge">
<title>pfdsl_skill&#45;&gt;assemble_plugin</title>
<path fill="none" stroke="#28a745" d="M156.72,-118.47C159.92,-120.79 162.91,-123.35 165.6,-126.2 204.73,-167.59 166.07,-204.68 201.6,-249.2 205.99,-254.71 211.29,-259.62 217.03,-263.98"/>
<polygon fill="#28a745" stroke="#28a745" points="214.88,-266.74 225.1,-269.52 218.84,-260.97 214.88,-266.74"/>
</g>
<!-- pfdsl_skill&#45;&gt;bundle_skills -->
<g id="edge16" class="edge">
<title>pfdsl_skill&#45;&gt;bundle_skills</title>
<path fill="none" stroke="#dc3545" stroke-dasharray="5,2" d="M149.32,-118.4C154.92,-120.82 160.42,-123.42 165.6,-126.2 191.62,-140.16 218.15,-159.76 238.98,-176.61"/>
<polygon fill="#dc3545" stroke="#dc3545" points="236.71,-179.28 246.66,-182.93 241.15,-173.87 236.71,-179.28"/>
</g>
<!-- plugin_dir&#45;&gt;install_plugin -->
<g id="edge17" class="edge">
<title>plugin_dir&#45;&gt;install_plugin</title>
<path fill="none" stroke="#28a745" d="M559.69,-309.47C567.9,-310 576.28,-310.53 584.61,-311.07"/>
<polygon fill="#28a745" stroke="#28a745" points="584.21,-314.55 594.41,-311.7 584.66,-307.57 584.21,-314.55"/>
</g>
<!-- retro_skill -->
<g id="node19" class="node">
<title>retro_skill</title>
<polygon fill="#ffeeba" stroke="#e0a800" points="165.6,-407 0,-407 0,-365.4 165.6,-365.4 165.6,-407"/>
<text xml:space="preserve" text-anchor="middle" x="82.8" y="-390.4" font-family="Times,serif" font-size="14.00">retro_skill</text>
<text xml:space="preserve" text-anchor="middle" x="82.8" y="-373.6" font-family="Times,serif" font-size="14.00">ふりかえり監査スキル</text>
</g>
<!-- retro_skill&#45;&gt;assemble_plugin -->
<g id="edge18" class="edge">
<title>retro_skill&#45;&gt;assemble_plugin</title>
<path fill="none" stroke="#28a745" d="M145,-365C152.02,-362.21 159.01,-359.25 165.6,-356.2 186.62,-346.48 208.96,-334.27 228.2,-323.13"/>
<polygon fill="#28a745" stroke="#28a745" points="229.78,-326.26 236.64,-318.18 226.24,-320.22 229.78,-326.26"/>
</g>
<!-- retro_skill&#45;&gt;bundle_skills -->
<g id="edge19" class="edge">
<title>retro_skill&#45;&gt;bundle_skills</title>
<path fill="none" stroke="#dc3545" stroke-dasharray="5,2" d="M154.66,-365.14C158.61,-362.5 162.3,-359.54 165.6,-356.2 199.39,-322 170.6,-290.95 201.6,-254.2 206.21,-248.74 211.69,-243.84 217.58,-239.48"/>
<polygon fill="#dc3545" stroke="#dc3545" points="219.51,-242.41 225.85,-233.92 215.6,-236.6 219.51,-242.41"/>
</g>
<!-- sync_agents -->
<g id="node21" class="node">
<title>sync_agents</title>
<ellipse fill="#f5c6cb" stroke="#dc3545" cx="681.03" cy="-187.2" rx="62.45" ry="29.42"/>
<text xml:space="preserve" text-anchor="middle" x="681.03" y="-191.4" font-family="Times,serif" font-size="14.00">sync_agents</text>
<text xml:space="preserve" text-anchor="middle" x="681.03" y="-174.6" font-family="Times,serif" font-size="14.00">agent定義同期</text>
</g>
<!-- skill_source_bundle&#45;&gt;sync_agents -->
<g id="edge20" class="edge">
<title>skill_source_bundle&#45;&gt;sync_agents</title>
<path fill="none" stroke="#dc3545" stroke-dasharray="5,2" d="M556.2,-187.2C572.9,-187.2 590.46,-187.2 606.95,-187.2"/>
<polygon fill="#dc3545" stroke="#dc3545" points="606.65,-190.7 616.65,-187.2 606.65,-183.7 606.65,-190.7"/>
</g>
<!-- sync_commands -->
<g id="node22" class="node">
<title>sync_commands</title>
<ellipse fill="#f5c6cb" stroke="#dc3545" cx="681.03" cy="-110.2" rx="77.3" ry="29.42"/>
<text xml:space="preserve" text-anchor="middle" x="681.03" y="-114.4" font-family="Times,serif" font-size="14.00">sync_commands</text>
<text xml:space="preserve" text-anchor="middle" x="681.03" y="-97.6" font-family="Times,serif" font-size="14.00">コマンド同期</text>
</g>
<!-- skill_source_bundle&#45;&gt;sync_commands -->
<g id="edge21" class="edge">
<title>skill_source_bundle&#45;&gt;sync_commands</title>
<path fill="none" stroke="#dc3545" stroke-dasharray="5,2" d="M533.5,-165.96C558.69,-156.37 588.61,-144.99 614.83,-135.01"/>
<polygon fill="#dc3545" stroke="#dc3545" points="615.91,-138.34 624.02,-131.51 613.42,-131.8 615.91,-138.34"/>
</g>
<!-- sync_install_layer -->
<g id="node23" class="node">
<title>sync_install_layer</title>
<ellipse fill="#f5c6cb" stroke="#dc3545" cx="1081.93" cy="-242.2" rx="83.34" ry="29.42"/>
<text xml:space="preserve" text-anchor="middle" x="1081.93" y="-246.4" font-family="Times,serif" font-size="14.00">sync_install_layer</text>
<text xml:space="preserve" text-anchor="middle" x="1081.93" y="-229.6" font-family="Times,serif" font-size="14.00">L3レイヤー同期</text>
</g>
<!-- skill_source_bundle&#45;&gt;sync_install_layer -->
<g id="edge22" class="edge">
<title>skill_source_bundle&#45;&gt;sync_install_layer</title>
<path fill="none" stroke="#dc3545" stroke-dasharray="5,2" d="M532.6,-208.4C552.15,-215.01 574.52,-221.53 595.47,-225.2 730.31,-248.83 889.33,-249.33 987.66,-246.53"/>
<polygon fill="#dc3545" stroke="#dc3545" points="987.64,-250.03 997.53,-246.23 987.43,-243.04 987.64,-250.03"/>
</g>
<!-- sync_skill_tree -->
<g id="node24" class="node">
<title>sync_skill_tree</title>
<ellipse fill="#f5c6cb" stroke="#dc3545" cx="681.03" cy="-33.2" rx="71.25" ry="29.42"/>
<text xml:space="preserve" text-anchor="middle" x="681.03" y="-37.4" font-family="Times,serif" font-size="14.00">sync_skill_tree</text>
<text xml:space="preserve" text-anchor="middle" x="681.03" y="-20.6" font-family="Times,serif" font-size="14.00">スキルツリー同期</text>
</g>
<!-- skill_source_bundle&#45;&gt;sync_skill_tree -->
<g id="edge23" class="edge">
<title>skill_source_bundle&#45;&gt;sync_skill_tree</title>
<path fill="none" stroke="#dc3545" stroke-dasharray="5,2" d="M495.07,-166.31C516.63,-141.42 555.45,-99.75 595.47,-72.2 602.68,-67.24 610.62,-62.63 618.67,-58.45"/>
<polygon fill="#dc3545" stroke="#dc3545" points="620.1,-61.64 627.5,-54.06 616.99,-55.37 620.1,-61.64"/>
</g>
<!-- sync_agents&#45;&gt;installed_agents -->
<g id="edge24" class="edge">
<title>sync_agents&#45;&gt;installed_agents</title>
<path fill="none" stroke="#dc3545" stroke-dasharray="5,2" d="M743.78,-187.2C759.99,-187.2 777.74,-187.2 794.85,-187.2"/>
<polygon fill="#dc3545" stroke="#dc3545" points="794.46,-190.7 804.46,-187.2 794.46,-183.7 794.46,-190.7"/>
</g>
<!-- sync_commands&#45;&gt;installed_commands -->
<g id="edge25" class="edge">
<title>sync_commands&#45;&gt;installed_commands</title>
<path fill="none" stroke="#dc3545" stroke-dasharray="5,2" d="M758.6,-110.2C769.11,-110.2 779.96,-110.2 790.63,-110.2"/>
<polygon fill="#dc3545" stroke="#dc3545" points="790.6,-113.7 800.6,-110.2 790.6,-106.7 790.6,-113.7"/>
</g>
<!-- sync_install_layer&#45;&gt;installed_l3_layer -->
<g id="edge26" class="edge">
<title>sync_install_layer&#45;&gt;installed_l3_layer</title>
<path fill="none" stroke="#dc3545" stroke-dasharray="5,2" d="M1139.66,-263.85C1164.14,-273.19 1192.93,-284.18 1218.38,-293.9"/>
<polygon fill="#dc3545" stroke="#dc3545" points="1217.05,-297.14 1227.64,-297.43 1219.55,-290.6 1217.05,-297.14"/>
</g>
<!-- sync_skill_tree&#45;&gt;installed_skills -->
<g id="edge27" class="edge">
<title>sync_skill_tree&#45;&gt;installed_skills</title>
<path fill="none" stroke="#dc3545" stroke-dasharray="5,2" d="M752.76,-33.2C767.45,-33.2 783.03,-33.2 798,-33.2"/>
<polygon fill="#dc3545" stroke="#dc3545" points="797.79,-36.7 807.79,-33.2 797.79,-29.7 797.79,-36.7"/>
</g>
</g>
</svg>
