<?xml version="1.0" encoding="UTF-8" standalone="no"?>
<!DOCTYPE svg PUBLIC "-//W3C//DTD SVG 1.1//EN"
 "http://www.w3.org/Graphics/SVG/1.1/DTD/svg11.dtd">
<!-- Generated by graphviz version 15.1.0 (0)
 -->
<!-- Title: PFDSL Pages: 1 -->
<svg width="313pt" height="261pt"
 viewBox="0.00 0.00 313.00 261.00" xmlns="http://www.w3.org/2000/svg" xmlns:xlink="http://www.w3.org/1999/xlink">
<g id="graph0" class="graph" transform="scale(1 1) rotate(0) translate(4 257)">
<title>PFDSL</title>
<polygon fill="white" stroke="none" points="-4,4 -4,-257 308.8,-257 308.8,4 -4,4"/>
<text xml:space="preserve" text-anchor="middle" x="152.4" y="-236.4" font-family="Times,serif" font-size="14.00">pfdsl開発ワークフロー — diff</text>
<text xml:space="preserve" text-anchor="middle" x="152.4" y="-219.6" font-family="Times,serif" font-size="14.00">green = added · red = removed · yellow = changed</text>
<!-- ops_skill_l3 -->
<g id="node1" class="node">
<title>ops_skill_l3</title>
<polygon fill="#ffeeba" stroke="#e0a800" points="228,-75.2 76.8,-75.2 76.8,0 228,0 228,-75.2"/>
<text xml:space="preserve" text-anchor="middle" x="152.4" y="-58.6" font-family="Times,serif" font-size="14.00">ops_skill_l3</text>
<text xml:space="preserve" text-anchor="middle" x="152.4" y="-41.8" font-family="Times,serif" font-size="14.00">PFD運用スキル（Git</text>
<text xml:space="preserve" text-anchor="middle" x="152.4" y="-25" font-family="Times,serif" font-size="14.00">Hub Issuesバックエ</text>
<text xml:space="preserve" text-anchor="middle" x="152.4" y="-8.2" font-family="Times,serif" font-size="14.00">ンド層）</text>
</g>
<!-- plugin_dist -->
<g id="node2" class="node">
<title>plugin_dist</title>
<polygon fill="#ffeeba" stroke="#e0a800" points="213.6,-151.8 91.2,-151.8 91.2,-93.4 213.6,-93.4 213.6,-151.8"/>
<text xml:space="preserve" text-anchor="middle" x="152.4" y="-135.2" font-family="Times,serif" font-size="14.00">plugin_dist</text>
<text xml:space="preserve" text-anchor="middle" x="152.4" y="-118.4" font-family="Times,serif" font-size="14.00">marketplace</text>
<text xml:space="preserve" text-anchor="middle" x="152.4" y="-101.6" font-family="Times,serif" font-size="14.00">配布プラグイン</text>
</g>
<!-- published_cli -->
<g id="node3" class="node">
<title>published_cli</title>
<polygon fill="#ffeeba" stroke="#e0a800" points="210,-211.4 94.8,-211.4 94.8,-169.8 210,-169.8 210,-211.4"/>
<text xml:space="preserve" text-anchor="middle" x="152.4" y="-194.8" font-family="Times,serif" font-size="14.00">published_cli</text>
<text xml:space="preserve" text-anchor="middle" x="152.4" y="-178" font-family="Times,serif" font-size="14.00">npm 公開 CLI</text>
</g>
</g>
</svg>
