<?xml version="1.0" encoding="UTF-8" standalone="no"?>
<!DOCTYPE svg PUBLIC "-//W3C//DTD SVG 1.1//EN"
 "http://www.w3.org/Graphics/SVG/1.1/DTD/svg11.dtd">
<!-- Generated by graphviz version 15.0.0 (0)
 -->
<!-- Title: PFDSL Pages: 1 -->
<svg width="626pt" height="156pt"
 viewBox="0.00 0.00 626.00 156.00" xmlns="http://www.w3.org/2000/svg" xmlns:xlink="http://www.w3.org/1999/xlink">
<g id="graph0" class="graph" transform="scale(1 1) rotate(0) translate(4 151.95)">
<title>PFDSL</title>
<polygon fill="white" stroke="none" points="-4,4 -4,-151.95 622.39,-151.95 622.39,4 -4,4"/>
<text xml:space="preserve" text-anchor="middle" x="309.19" y="-131.35" font-family="Times,serif" font-size="14.00">Issue 依存フロー（2026&#45;06） — diff</text>
<text xml:space="preserve" text-anchor="middle" x="309.19" y="-114.55" font-family="Times,serif" font-size="14.00">green = added · red = removed · yellow = changed</text>
<!-- i201_published_libs -->
<g id="node1" class="node">
<title>i201_published_libs</title>
<polygon fill="#ffeeba" stroke="#e0a800" points="158.4,-82.37 0,-82.37 0,-23.97 158.4,-23.97 158.4,-82.37"/>
<text xml:space="preserve" text-anchor="middle" x="79.2" y="-65.77" font-family="Times,serif" font-size="14.00">i201_published_libs</text>
<text xml:space="preserve" text-anchor="middle" x="79.2" y="-48.97" font-family="Times,serif" font-size="14.00">公開ライブラリ群 </text>
<text xml:space="preserve" text-anchor="middle" x="79.2" y="-32.17" font-family="Times,serif" font-size="14.00">#201)</text>
</g>
<!-- update_workflow_libs -->
<g id="node3" class="node">
<title>update_workflow_libs</title>
<ellipse fill="#c3e6cb" stroke="#28a745" cx="294.79" cy="-53.17" rx="100.39" ry="53.17"/>
<text xml:space="preserve" text-anchor="middle" x="294.79" y="-74.17" font-family="Times,serif" font-size="14.00">update_workflow_libs</text>
<text xml:space="preserve" text-anchor="middle" x="294.79" y="-57.37" font-family="Times,serif" font-size="14.00">workflow</text>
<text xml:space="preserve" text-anchor="middle" x="294.79" y="-40.57" font-family="Times,serif" font-size="14.00">にライブラリ公開ノ</text>
<text xml:space="preserve" text-anchor="middle" x="294.79" y="-23.77" font-family="Times,serif" font-size="14.00">ード追加</text>
</g>
<!-- i201_published_libs&#45;&gt;update_workflow_libs -->
<g id="edge1" class="edge">
<title>i201_published_libs&#45;&gt;update_workflow_libs</title>
<path fill="none" stroke="#28a745" d="M158.82,-53.17C166.67,-53.17 174.73,-53.17 182.82,-53.17"/>
<polygon fill="#28a745" stroke="#28a745" points="182.75,-56.67 192.75,-53.17 182.75,-49.67 182.75,-56.67"/>
</g>
<!-- i231_workflow_libs -->
<g id="node2" class="node">
<title>i231_workflow_libs</title>
<polygon fill="#c3e6cb" stroke="#28a745" points="618.39,-90.77 431.19,-90.77 431.19,-15.57 618.39,-15.57 618.39,-90.77"/>
<text xml:space="preserve" text-anchor="middle" x="524.79" y="-74.17" font-family="Times,serif" font-size="14.00">i231_workflow_libs</text>
<text xml:space="preserve" text-anchor="middle" x="524.79" y="-57.37" font-family="Times,serif" font-size="14.00">workflow に</text>
<text xml:space="preserve" text-anchor="middle" x="524.79" y="-40.57" font-family="Times,serif" font-size="14.00">publish_libraries 登録 </text>
<text xml:space="preserve" text-anchor="middle" x="524.79" y="-23.77" font-family="Times,serif" font-size="14.00">(#231)</text>
</g>
<!-- update_workflow_libs&#45;&gt;i231_workflow_libs -->
<g id="edge2" class="edge">
<title>update_workflow_libs&#45;&gt;i231_workflow_libs</title>
<path fill="none" stroke="#28a745" d="M395.46,-53.17C403.45,-53.17 411.52,-53.17 419.53,-53.17"/>
<polygon fill="#28a745" stroke="#28a745" points="419.29,-56.67 429.29,-53.17 419.29,-49.67 419.29,-56.67"/>
</g>
</g>
</svg>
