<?xml version="1.0" encoding="UTF-8" standalone="no"?>
<!DOCTYPE svg PUBLIC "-//W3C//DTD SVG 1.1//EN"
 "http://www.w3.org/Graphics/SVG/1.1/DTD/svg11.dtd">
<!-- Generated by graphviz version 15.0.0 (0)
 -->
<!-- Title: PFDSL Pages: 1 -->
<svg width="517pt" height="160pt"
 viewBox="0.00 0.00 517.00 160.00" xmlns="http://www.w3.org/2000/svg" xmlns:xlink="http://www.w3.org/1999/xlink">
<g id="graph0" class="graph" transform="scale(1 1) rotate(0) translate(4 155.82)">
<title>PFDSL</title>
<polygon fill="white" stroke="none" points="-4,4 -4,-155.82 512.5,-155.82 512.5,4 -4,4"/>
<text xml:space="preserve" text-anchor="middle" x="254.25" y="-135.22" font-family="Times,serif" font-size="14.00">pfdsl開発ワークフロー — diff</text>
<text xml:space="preserve" text-anchor="middle" x="254.25" y="-118.42" font-family="Times,serif" font-size="14.00">green = added · red = removed · yellow = changed</text>
<!-- publish_libraries -->
<g id="node1" class="node">
<title>publish_libraries</title>
<ellipse fill="#c3e6cb" stroke="#28a745" cx="236.25" cy="-29.42" rx="77.85" ry="29.42"/>
<text xml:space="preserve" text-anchor="middle" x="236.25" y="-33.62" font-family="Times,serif" font-size="14.00">publish_libraries</text>
<text xml:space="preserve" text-anchor="middle" x="236.25" y="-16.82" font-family="Times,serif" font-size="14.00">ライブラリ公開</text>
</g>
<!-- published_libraries -->
<g id="node2" class="node">
<title>published_libraries</title>
<polygon fill="#c3e6cb" stroke="#28a745" points="508.5,-58.62 350.1,-58.62 350.1,-0.22 508.5,-0.22 508.5,-58.62"/>
<text xml:space="preserve" text-anchor="middle" x="429.3" y="-42.02" font-family="Times,serif" font-size="14.00">published_libraries</text>
<text xml:space="preserve" text-anchor="middle" x="429.3" y="-25.22" font-family="Times,serif" font-size="14.00">npm 公開ライブラリ</text>
<text xml:space="preserve" text-anchor="middle" x="429.3" y="-8.42" font-family="Times,serif" font-size="14.00">群</text>
</g>
<!-- publish_libraries&#45;&gt;published_libraries -->
<g id="edge1" class="edge">
<title>publish_libraries&#45;&gt;published_libraries</title>
<path fill="none" stroke="#28a745" d="M314.41,-29.42C322.29,-29.42 330.35,-29.42 338.35,-29.42"/>
<polygon fill="#28a745" stroke="#28a745" points="338.1,-32.92 348.1,-29.42 338.1,-25.92 338.1,-32.92"/>
</g>
<!-- readme -->
<g id="node3" class="node">
<title>readme</title>
<polygon fill="#ffeeba" stroke="#e0a800" points="98.76,-110.22 23.64,-110.22 23.64,-68.62 98.76,-68.62 98.76,-110.22"/>
<text xml:space="preserve" text-anchor="middle" x="61.2" y="-93.62" font-family="Times,serif" font-size="14.00">readme</text>
<text xml:space="preserve" text-anchor="middle" x="61.2" y="-76.82" font-family="Times,serif" font-size="14.00">README</text>
</g>
<!-- toolchain -->
<g id="node4" class="node">
<title>toolchain</title>
<polygon fill="#f5f5f5" stroke="#bbbbbb" points="122.4,-50.22 0,-50.22 0,-8.62 122.4,-8.62 122.4,-50.22"/>
<text xml:space="preserve" text-anchor="middle" x="61.2" y="-33.62" font-family="Times,serif" font-size="14.00" fill="#777777">toolchain</text>
<text xml:space="preserve" text-anchor="middle" x="61.2" y="-16.82" font-family="Times,serif" font-size="14.00" fill="#777777">ツールチェーン</text>
</g>
<!-- toolchain&#45;&gt;publish_libraries -->
<g id="edge2" class="edge">
<title>toolchain&#45;&gt;publish_libraries</title>
<path fill="none" stroke="#28a745" d="M122.72,-29.42C130.48,-29.42 138.53,-29.42 146.62,-29.42"/>
<polygon fill="#28a745" stroke="#28a745" points="146.52,-32.92 156.52,-29.42 146.52,-25.92 146.52,-32.92"/>
</g>
</g>
</svg>
