<?xml version="1.0" encoding="UTF-8" standalone="no"?>
<!DOCTYPE svg PUBLIC "-//W3C//DTD SVG 1.1//EN"
 "http://www.w3.org/Graphics/SVG/1.1/DTD/svg11.dtd">
<!-- Generated by graphviz version 15.0.0 (0)
 -->
<!-- Title: PFDSL Pages: 1 -->
<svg width="521pt" height="86pt"
 viewBox="0.00 0.00 521.00 86.00" xmlns="http://www.w3.org/2000/svg" xmlns:xlink="http://www.w3.org/1999/xlink">
<g id="graph0" class="graph" transform="scale(1 1) rotate(0) translate(4 81.6)">
<title>PFDSL</title>
<polygon fill="white" stroke="none" points="-4,4 -4,-81.6 516.81,-81.6 516.81,4 -4,4"/>
<text xml:space="preserve" text-anchor="middle" x="256.4" y="-61" font-family="Times,serif" font-size="14.00">diff</text>
<text xml:space="preserve" text-anchor="middle" x="256.4" y="-44.2" font-family="Times,serif" font-size="14.00">green = added · red = removed · yellow = changed</text>
<!-- code -->
<g id="node1" class="node">
<title>code</title>
<polygon fill="#c3e6cb" stroke="#28a745" points="512.81,-36 458.81,-36 458.81,0 512.81,0 512.81,-36"/>
<text xml:space="preserve" text-anchor="middle" x="485.81" y="-13.8" font-family="Times,serif" font-size="14.00">code</text>
</g>
<!-- design -->
<g id="node2" class="node">
<title>design</title>
<ellipse fill="#c3e6cb" stroke="#28a745" cx="155.88" cy="-18" rx="36.25" ry="18"/>
<text xml:space="preserve" text-anchor="middle" x="155.88" y="-13.8" font-family="Times,serif" font-size="14.00">design</text>
</g>
<!-- spec -->
<g id="node5" class="node">
<title>spec</title>
<polygon fill="#c3e6cb" stroke="#28a745" points="282.13,-36 228.13,-36 228.13,0 282.13,0 282.13,-36"/>
<text xml:space="preserve" text-anchor="middle" x="255.13" y="-13.8" font-family="Times,serif" font-size="14.00">spec</text>
</g>
<!-- design&#45;&gt;spec -->
<g id="edge1" class="edge">
<title>design&#45;&gt;spec</title>
<path fill="none" stroke="#28a745" d="M192.54,-18C200.32,-18 208.57,-18 216.42,-18"/>
<polygon fill="#28a745" stroke="#28a745" points="216.41,-21.5 226.41,-18 216.41,-14.5 216.41,-21.5"/>
</g>
<!-- implement -->
<g id="node3" class="node">
<title>implement</title>
<ellipse fill="#c3e6cb" stroke="#28a745" cx="370.47" cy="-18" rx="52.34" ry="18"/>
<text xml:space="preserve" text-anchor="middle" x="370.47" y="-13.8" font-family="Times,serif" font-size="14.00">implement</text>
</g>
<!-- implement&#45;&gt;code -->
<g id="edge2" class="edge">
<title>implement&#45;&gt;code</title>
<path fill="none" stroke="#28a745" d="M423.17,-18C431.31,-18 439.59,-18 447.32,-18"/>
<polygon fill="#28a745" stroke="#28a745" points="447.05,-21.5 457.05,-18 447.05,-14.5 447.05,-21.5"/>
</g>
<!-- requirement -->
<g id="node4" class="node">
<title>requirement</title>
<polygon fill="#c3e6cb" stroke="#28a745" points="83.63,-36 0,-36 0,0 83.63,0 83.63,-36"/>
<text xml:space="preserve" text-anchor="middle" x="41.82" y="-13.8" font-family="Times,serif" font-size="14.00">requirement</text>
</g>
<!-- requirement&#45;&gt;design -->
<g id="edge3" class="edge">
<title>requirement&#45;&gt;design</title>
<path fill="none" stroke="#28a745" d="M83.91,-18C91.72,-18 99.94,-18 107.91,-18"/>
<polygon fill="#28a745" stroke="#28a745" points="107.82,-21.5 117.82,-18 107.82,-14.5 107.82,-21.5"/>
</g>
<!-- spec&#45;&gt;implement -->
<g id="edge4" class="edge">
<title>spec&#45;&gt;implement</title>
<path fill="none" stroke="#28a745" d="M282.42,-18C289.79,-18 298.12,-18 306.65,-18"/>
<polygon fill="#28a745" stroke="#28a745" points="306.39,-21.5 316.39,-18 306.39,-14.5 306.39,-21.5"/>
</g>
</g>
</svg>
