<?xml version="1.0" encoding="UTF-8" standalone="no"?>
<!DOCTYPE svg PUBLIC "-//W3C//DTD SVG 1.1//EN"
 "http://www.w3.org/Graphics/SVG/1.1/DTD/svg11.dtd">
<!-- Generated by graphviz version 15.1.0 (0)
 -->
<!-- Title: PFDSL Pages: 1 -->
<svg width="724pt" height="184pt"
 viewBox="0.00 0.00 724.00 184.00" xmlns="http://www.w3.org/2000/svg" xmlns:xlink="http://www.w3.org/1999/xlink">
<g id="graph0" class="graph" transform="scale(1 1) rotate(0) translate(4 180)">
<title>PFDSL</title>
<polygon fill="white" stroke="none" points="-4,4 -4,-180 720.18,-180 720.18,4 -4,4"/>
<text xml:space="preserve" text-anchor="middle" x="358.09" y="-159.4" font-family="Times,serif" font-size="14.00">Issue 依存フロー（2026&#45;06） — diff</text>
<text xml:space="preserve" text-anchor="middle" x="358.09" y="-142.6" font-family="Times,serif" font-size="14.00">green = added · red = removed · yellow = changed</text>
<!-- boundary_feedback -->
<g id="node1" class="node">
<title>boundary_feedback</title>
<polygon fill="#c3e6cb" stroke="#28a745" points="482.12,-134.4 316.52,-134.4 316.52,-76 482.12,-76 482.12,-134.4"/>
<text xml:space="preserve" text-anchor="middle" x="399.32" y="-117.8" font-family="Times,serif" font-size="14.00">boundary_feedback</text>
<text xml:space="preserve" text-anchor="middle" x="399.32" y="-101" font-family="Times,serif" font-size="14.00">open input の</text>
<text xml:space="preserve" text-anchor="middle" x="399.32" y="-84.2" font-family="Times,serif" font-size="14.00">feedback 除外 (#298)</text>
</g>
<!-- revise_spec_editorial -->
<g id="node4" class="node">
<title>revise_spec_editorial</title>
<ellipse fill="#f5f5f5" stroke="#bbbbbb" cx="620.75" cy="-67.2" rx="95.43" ry="29.42"/>
<text xml:space="preserve" text-anchor="middle" x="620.75" y="-71.4" font-family="Times,serif" font-size="14.00" fill="#777777">revise_spec_editorial</text>
<text xml:space="preserve" text-anchor="middle" x="620.75" y="-54.6" font-family="Times,serif" font-size="14.00" fill="#777777">spec 編集整備</text>
</g>
<!-- boundary_feedback&#45;&gt;revise_spec_editorial -->
<g id="edge1" class="edge">
<title>boundary_feedback&#45;&gt;revise_spec_editorial</title>
<path fill="none" stroke="#28a745" d="M482.34,-91C496.5,-88.54 511.33,-85.98 525.77,-83.47"/>
<polygon fill="#28a745" stroke="#28a745" points="525.99,-86.99 535.24,-81.83 524.79,-80.09 525.99,-86.99"/>
</g>
<!-- i298_boundary_feedback -->
<g id="node2" class="node">
<title>i298_boundary_feedback</title>
<polygon fill="#f5c6cb" stroke="#dc3545" points="489.32,-58.4 309.32,-58.4 309.32,0 489.32,0 489.32,-58.4"/>
<text xml:space="preserve" text-anchor="middle" x="399.32" y="-41.8" font-family="Times,serif" font-size="14.00">i298_boundary_feedback</text>
<text xml:space="preserve" text-anchor="middle" x="399.32" y="-25" font-family="Times,serif" font-size="14.00">open input の</text>
<text xml:space="preserve" text-anchor="middle" x="399.32" y="-8.2" font-family="Times,serif" font-size="14.00">feedback 除外 (#298)</text>
</g>
<!-- i298_boundary_feedback&#45;&gt;revise_spec_editorial -->
<g id="edge2" class="edge">
<title>i298_boundary_feedback&#45;&gt;revise_spec_editorial</title>
<path fill="none" stroke="#dc3545" stroke-dasharray="5,2" d="M489.57,-44.66C501.56,-46.73 513.89,-48.87 525.96,-50.96"/>
<polygon fill="#dc3545" stroke="#dc3545" points="525.01,-54.34 535.46,-52.6 526.2,-47.45 525.01,-54.34"/>
</g>
<!-- implement_boundary_feedback -->
<g id="node3" class="node">
<title>implement_boundary_feedback</title>
<ellipse fill="#f5f5f5" stroke="#bbbbbb" cx="136.66" cy="-67.2" rx="136.66" ry="41.3"/>
<text xml:space="preserve" text-anchor="middle" x="136.66" y="-79.8" font-family="Times,serif" font-size="14.00" fill="#777777">implement_boundary_feedback</text>
<text xml:space="preserve" text-anchor="middle" x="136.66" y="-63" font-family="Times,serif" font-size="14.00" fill="#777777">open input feedback</text>
<text xml:space="preserve" text-anchor="middle" x="136.66" y="-46.2" font-family="Times,serif" font-size="14.00" fill="#777777">除外実装</text>
</g>
<!-- implement_boundary_feedback&#45;&gt;boundary_feedback -->
<g id="edge3" class="edge">
<title>implement_boundary_feedback&#45;&gt;boundary_feedback</title>
<path fill="none" stroke="#28a745" d="M260.36,-85.09C275.26,-87.26 290.29,-89.45 304.68,-91.55"/>
<polygon fill="#28a745" stroke="#28a745" points="304.16,-95.01 314.56,-92.99 305.17,-88.08 304.16,-95.01"/>
</g>
<!-- implement_boundary_feedback&#45;&gt;i298_boundary_feedback -->
<g id="edge4" class="edge">
<title>implement_boundary_feedback&#45;&gt;i298_boundary_feedback</title>
<path fill="none" stroke="#dc3545" stroke-dasharray="5,2" d="M260.36,-49.31C272.9,-47.49 285.53,-45.64 297.79,-43.86"/>
<polygon fill="#dc3545" stroke="#dc3545" points="298.04,-47.36 307.43,-42.45 297.03,-40.43 298.04,-47.36"/>
</g>
</g>
</svg>
