<?xml version="1.0" encoding="UTF-8" standalone="no"?>
<!DOCTYPE svg PUBLIC "-//W3C//DTD SVG 1.1//EN"
 "http://www.w3.org/Graphics/SVG/1.1/DTD/svg11.dtd">
<!-- Generated by graphviz version 14.1.4 (0)
 -->
<!-- Title: PFDSL Pages: 1 -->
<svg width="1871pt" height="909pt"
 viewBox="0.00 0.00 1871.00 909.00" xmlns="http://www.w3.org/2000/svg" xmlns:xlink="http://www.w3.org/1999/xlink">
<g id="graph0" class="graph" transform="scale(1 1) rotate(0) translate(4 904.8)">
<title>PFDSL</title>
<polygon fill="white" stroke="none" points="-4,4 -4,-904.8 1866.94,-904.8 1866.94,4 -4,4"/>
<text xml:space="preserve" text-anchor="middle" x="931.47" y="-884.2" font-family="Times,serif" font-size="14.00">pfdsl CLI 変換パイプライン</text>
<g id="clust1" class="cluster">
<title>cluster_adopter_env</title>
<polygon fill="#fdebd0" stroke="#b1a592" points="810.59,-208 810.59,-291 1036.59,-291 1036.59,-208 810.59,-208"/>
<text xml:space="preserve" text-anchor="middle" x="923.59" y="-274.4" font-family="Times,serif" font-size="14.00">採用ユーザー環境（ユーザー単位・リポ外）</text>
</g>
<g id="clust2" class="cluster">
<title>cluster_adopter_repo</title>
<polygon fill="#eafaf1" stroke="#a4afa9" points="1276.87,-179 1276.87,-262 1854.94,-262 1854.94,-179 1276.87,-179"/>
<text xml:space="preserve" text-anchor="middle" x="1565.91" y="-245.4" font-family="Times,serif" font-size="14.00">採用リポ</text>
</g>
<g id="clust3" class="cluster">
<title>cluster_in_memory</title>
<polygon fill="#e8f4fd" stroke="#a2abb1" points="405.47,-462 405.47,-545 999.49,-545 999.49,-462 405.47,-462"/>
<text xml:space="preserve" text-anchor="middle" x="702.48" y="-528.4" font-family="Times,serif" font-size="14.00">処理系内の中間表現（メモリ内・保存されない）</text>
</g>
<g id="clust4" class="cluster">
<title>cluster_run_outputs</title>
<polygon fill="#f3e8fd" stroke="#aaa2b1" points="416.27,-605 416.27,-868 1840.54,-868 1840.54,-605 416.27,-605"/>
<text xml:space="preserve" text-anchor="middle" x="1128.41" y="-851.4" font-family="Times,serif" font-size="14.00">実行結果（stdout・ファイル・エディタ表示）</text>
</g>
<g id="clust5" class="cluster">
<title>cluster_skill_sources</title>
<polygon fill="#fef9e7" stroke="#b2aea2" points="8,-9 8,-457 189.6,-457 189.6,-9 8,-9"/>
<text xml:space="preserve" text-anchor="middle" x="98.8" y="-440.4" font-family="Times,serif" font-size="14.00">配布素材（このリポの .claude/）</text>
</g>
<!-- installed_plugin -->
<g id="node1" class="node">
<title>installed_plugin</title>
<g id="a_node1"><a xlink:title="導入済みプラグイン&#10;&#10;/plugin marketplace add takasek/pfdsl + /plugin install pfdsl@pfdsl でユーザー環境（plugin cache）へ展開されたコピー。4スキル・pfd&#45;*コマンド・pfd&#45;lens agent が一括で届く。リポ単位でなくユーザー単位のため、バージョンskewはcheck_install_syncの警告で緩和する（ADR&#45;0028 論点4）&#10;criteria: marketplace経由の導入が動作確認済み（4スキル・pfd&#45;*コマンド・pfd&#45;lens agentが一括で届く）&#10;externalStakeholders: 採用リポのAIエージェント">
<polygon fill="none" stroke="black" points="998.69,-257.8 847.49,-257.8 847.49,-216.2 998.69,-216.2 998.69,-257.8"/>
<text xml:space="preserve" text-anchor="middle" x="923.09" y="-241.2" font-family="Times,serif" font-size="14.00">installed_plugin</text>
<text xml:space="preserve" text-anchor="middle" x="923.09" y="-224.4" font-family="Times,serif" font-size="14.00">導入済みプラグイン</text>
</a>
</g>
</g>
<!-- check_install_sync -->
<g id="node21" class="node">
<title>check_install_sync</title>
<g id="a_node21"><a xlink:title="配置鮮度セルフチェック&#10;&#10;pfd&#45;ops発火時に同梱canonicalと配置済みファイルをhash照合しdriftを警告する。&#45;&#45;upstreamで上流plugin.json versionとのskewもベストエフォートで警告する。check&#45;pfd&#45;ops&#45;sync.ymlは採用リポへ配布されなくなり、この経路が採用リポ唯一の安全網（ADR&#45;0028）&#10;command: node ${CLAUDE_PLUGIN_ROOT}/skills/pfd&#45;ops/scripts/check&#45;install&#45;sync.mjs &#45;&#45;upstream&#10;location: ../.claude/skills/pfd&#45;ops/scripts/check&#45;install&#45;sync.mjs">
<ellipse fill="none" stroke="#16a085" cx="1558.71" cy="-388" rx="86.64" ry="41.3"/>
<text xml:space="preserve" text-anchor="middle" x="1558.71" y="-400.6" font-family="Times,serif" font-size="14.00">check_install_sync</text>
<text xml:space="preserve" text-anchor="middle" x="1558.71" y="-383.8" font-family="Times,serif" font-size="14.00">配置鮮度セルフチェッ</text>
<text xml:space="preserve" text-anchor="middle" x="1558.71" y="-367" font-family="Times,serif" font-size="14.00">ク</text>
</a>
</g>
<text xml:space="preserve" text-anchor="middle" x="1468.57" y="-334.1" font-family="Times,serif" font-size="14.00">g</text>
</g>
<!-- installed_plugin&#45;&gt;check_install_sync -->
<g id="edge34" class="edge">
<title>installed_plugin&#45;&gt;check_install_sync</title>
<path fill="none" stroke="black" d="M999,-249.29C1065.1,-260.6 1163.87,-278.68 1248.87,-299 1326.18,-317.48 1413.07,-342.95 1474.95,-361.91"/>
<polygon fill="black" stroke="black" points="1473.78,-365.21 1484.37,-364.81 1475.84,-358.52 1473.78,-365.21"/>
</g>
<!-- deploy_install_layer -->
<g id="node22" class="node">
<title>deploy_install_layer</title>
<g id="a_node22"><a xlink:title="L3レイヤー実配置&#10;&#10;/pfd&#45;init ステップ3.5。plugin同梱install/を採用リポルートへコピーする。既配置ファイルがcanonicalとhash不一致（ローカル編集）なら上書きせず警告し、&#45;&#45;force指定時のみ上書きする&#10;command: node ${CLAUDE_PLUGIN_ROOT}/skills/pfd&#45;ops/scripts/check&#45;install&#45;sync.mjs &#45;&#45;deploy&#10;location: ../.claude/skills/pfd&#45;ops/scripts/check&#45;install&#45;sync.mjs">
<ellipse fill="none" stroke="#16a085" cx="1156.73" cy="-215" rx="92.14" ry="29.42"/>
<text xml:space="preserve" text-anchor="middle" x="1156.73" y="-219.2" font-family="Times,serif" font-size="14.00">deploy_install_layer</text>
<text xml:space="preserve" text-anchor="middle" x="1156.73" y="-202.4" font-family="Times,serif" font-size="14.00">L3レイヤー実配置</text>
</a>
</g>
<text xml:space="preserve" text-anchor="middle" x="1061.09" y="-172.98" font-family="Times,serif" font-size="14.00">g</text>
</g>
<!-- installed_plugin&#45;&gt;deploy_install_layer -->
<g id="edge32" class="edge">
<title>installed_plugin&#45;&gt;deploy_install_layer</title>
<path fill="none" stroke="black" d="M998.98,-229.89C1017.32,-228.15 1037.23,-226.25 1056.52,-224.42"/>
<polygon fill="black" stroke="black" points="1056.66,-227.93 1066.28,-223.5 1055.99,-220.96 1056.66,-227.93"/>
</g>
<!-- gh_labels -->
<g id="node2" class="node">
<title>gh_labels</title>
<g id="a_node2"><a xlink:title="GitHubラベル整備結果&#10;&#10;flow:managed / flow:exempt ラベルの存在保証（gh CLI経由）&#10;criteria: audit&#45;issues&#45;flow.mjs &#45;&#45;fix によるラベル自動生成が実装され動作確認済み&#10;externalStakeholders: 採用リポのGitHubリポジトリ">
<polygon fill="none" stroke="black" stroke-width="2" points="1846.94,-228.8 1681.34,-228.8 1681.34,-187.2 1846.94,-187.2 1846.94,-228.8"/>
<text xml:space="preserve" text-anchor="middle" x="1764.14" y="-212.2" font-family="Times,serif" font-size="14.00">gh_labels</text>
<text xml:space="preserve" text-anchor="middle" x="1764.14" y="-195.4" font-family="Times,serif" font-size="14.00">GitHubラベル整備結果</text>
</a>
</g>
</g>
<!-- installed_l3_layer -->
<g id="node3" class="node">
<title>installed_l3_layer</title>
<g id="a_node3"><a xlink:title="導入済みL3レイヤー&#10;&#10;plugin同梱install/由来ファイル（GitHub Actionsワークフロー・監査スクリプト）の採用リポルートへの実配置結果&#10;criteria: check&#45;install&#45;sync.mjs &#45;&#45;deploy が実装され、採用リポへの実配置が動作確認済み&#10;externalStakeholders: 採用リポのGitHub Actions">
<polygon fill="none" stroke="black" points="1436.07,-228.8 1284.87,-228.8 1284.87,-187.2 1436.07,-187.2 1436.07,-228.8"/>
<text xml:space="preserve" text-anchor="middle" x="1360.47" y="-212.2" font-family="Times,serif" font-size="14.00">installed_l3_layer</text>
<text xml:space="preserve" text-anchor="middle" x="1360.47" y="-195.4" font-family="Times,serif" font-size="14.00">導入済みL3レイヤー</text>
</a>
</g>
</g>
<!-- installed_l3_layer&#45;&gt;check_install_sync -->
<g id="edge35" class="edge">
<title>installed_l3_layer&#45;&gt;check_install_sync</title>
<path fill="none" stroke="black" d="M1395.22,-229.05C1409.17,-238.97 1424.71,-251.77 1436.07,-266 1459.63,-295.53 1445.98,-315.67 1472.07,-343 1475.79,-346.9 1479.92,-350.52 1484.3,-353.88"/>
<polygon fill="black" stroke="black" points="1482.16,-356.66 1492.35,-359.55 1486.18,-350.93 1482.16,-356.66"/>
</g>
<!-- ensure_labels -->
<g id="node24" class="node">
<title>ensure_labels</title>
<g id="a_node24"><a xlink:title="ラベル保証&#10;&#10;L3採用手順の一部として flow:managed / flow:exempt ラベルの存在を確認・作成する（deployed の audit&#45;issues&#45;flow.mjs &#45;&#45;fix が未作成ラベルを自動生成する。旧skill syncのensure機能の移管先）&#10;command: node scripts/audit&#45;issues&#45;flow.mjs &#45;&#45;fix&#10;location: ../scripts/audit&#45;issues&#45;flow.mjs">
<ellipse fill="none" stroke="#16a085" cx="1558.71" cy="-299" rx="65.19" ry="29.42"/>
<text xml:space="preserve" text-anchor="middle" x="1558.71" y="-303.2" font-family="Times,serif" font-size="14.00">ensure_labels</text>
<text xml:space="preserve" text-anchor="middle" x="1558.71" y="-286.4" font-family="Times,serif" font-size="14.00">ラベル保証</text>
</a>
</g>
<text xml:space="preserve" text-anchor="middle" x="1490.02" y="-256.98" font-family="Times,serif" font-size="14.00">g</text>
</g>
<!-- installed_l3_layer&#45;&gt;ensure_labels -->
<g id="edge37" class="edge">
<title>installed_l3_layer&#45;&gt;ensure_labels</title>
<path fill="none" stroke="black" d="M1399.32,-229.23C1420.43,-240.73 1447.38,-254.82 1472.07,-266 1479.93,-269.56 1488.29,-273.09 1496.59,-276.44"/>
<polygon fill="black" stroke="black" points="1495.05,-279.6 1505.63,-280.03 1497.63,-273.09 1495.05,-279.6"/>
</g>
<!-- normalized_graph -->
<g id="node4" class="node">
<title>normalized_graph</title>
<g id="a_node4"><a xlink:title="正準化グラフ&#10;&#10;正規化済みエッジ・ノード種別・isolatedノード集合とGraph構造。validate/render_graph/export_metadata/diff_graphsの共通入力。CLI graph edgesコマンドはこれをJSONで直接出力する&#10;criteria: node packages/cli/dist/cli.js graph edges が実装され動作確認済み（validate/render_graph/export_metadata/diff_graphsの共通入力として機能）&#10;externalStakeholders: CLIユーザー">
<polygon fill="none" stroke="black" points="991.49,-511.8 854.69,-511.8 854.69,-470.2 991.49,-470.2 991.49,-511.8"/>
<text xml:space="preserve" text-anchor="middle" x="923.09" y="-495.2" font-family="Times,serif" font-size="14.00">normalized_graph</text>
<text xml:space="preserve" text-anchor="middle" x="923.09" y="-478.4" font-family="Times,serif" font-size="14.00">正準化グラフ</text>
</a>
</g>
</g>
<!-- diff_graphs -->
<g id="node23" class="node">
<title>diff_graphs</title>
<g id="a_node23"><a xlink:title="差分算出&#10;&#10;2つの正準化グラフ（とそれぞれのfrontmatter）の構造差分を計算する&#10;command: node packages/cli/dist/cli.js diff&#10;location: ../packages/core/src/diff.ts">
<ellipse fill="none" stroke="#27ae60" cx="1156.73" cy="-414" rx="56.95" ry="29.42"/>
<text xml:space="preserve" text-anchor="middle" x="1156.73" y="-418.2" font-family="Times,serif" font-size="14.00">diff_graphs</text>
<text xml:space="preserve" text-anchor="middle" x="1156.73" y="-401.4" font-family="Times,serif" font-size="14.00">差分算出</text>
</a>
</g>
<text xml:space="preserve" text-anchor="middle" x="1096.28" y="-371.98" font-family="Times,serif" font-size="14.00">b</text>
</g>
<!-- normalized_graph&#45;&gt;diff_graphs -->
<g id="edge20" class="edge">
<title>normalized_graph&#45;&gt;diff_graphs</title>
<path fill="none" stroke="black" d="M988,-469.76C1022.32,-458.35 1064.3,-444.39 1097.68,-433.3"/>
<polygon fill="black" stroke="black" points="1098.37,-436.75 1106.76,-430.28 1096.16,-430.11 1098.37,-436.75"/>
</g>
<!-- export_metadata -->
<g id="node26" class="node">
<title>export_metadata</title>
<g id="a_node26"><a xlink:title="メタデータ抽出&#10;&#10;正準化グラフとfrontmatterからノードメタデータを抽出しTSV化する。CLIサブコマンドはなくVSCode拡張のエクスポート機能のみが呼ぶ&#10;location: ../packages/metadata&#45;exporter/src/index.ts">
<ellipse fill="none" stroke="#27ae60" cx="1156.73" cy="-337" rx="77.28" ry="29.42"/>
<text xml:space="preserve" text-anchor="middle" x="1156.73" y="-341.2" font-family="Times,serif" font-size="14.00">export_metadata</text>
<text xml:space="preserve" text-anchor="middle" x="1156.73" y="-324.4" font-family="Times,serif" font-size="14.00">メタデータ抽出</text>
</a>
</g>
<text xml:space="preserve" text-anchor="middle" x="1075.95" y="-294.98" font-family="Times,serif" font-size="14.00">b</text>
</g>
<!-- normalized_graph&#45;&gt;export_metadata -->
<g id="edge17" class="edge">
<title>normalized_graph&#45;&gt;export_metadata</title>
<path fill="none" stroke="black" d="M945.96,-469.75C972.4,-444.89 1019.04,-403.62 1064.59,-376 1072.63,-371.13 1081.39,-366.56 1090.19,-362.38"/>
<polygon fill="black" stroke="black" points="1091.49,-365.64 1099.13,-358.3 1088.58,-359.27 1091.49,-365.64"/>
</g>
<!-- render_graph -->
<g id="node33" class="node">
<title>render_graph</title>
<g id="a_node33"><a xlink:title="DOT変換&#10;&#10;正準化グラフとfrontmatter（スタイル・タイトル）からGraphviz DOTを構築する&#10;command: node packages/cli/dist/cli.js render&#10;location: ../packages/graphviz&#45;exporter/src/index.ts">
<ellipse fill="none" stroke="#27ae60" cx="1156.73" cy="-568" rx="64.08" ry="29.42"/>
<text xml:space="preserve" text-anchor="middle" x="1156.73" y="-572.2" font-family="Times,serif" font-size="14.00">render_graph</text>
<text xml:space="preserve" text-anchor="middle" x="1156.73" y="-555.4" font-family="Times,serif" font-size="14.00">DOT変換</text>
</a>
</g>
<text xml:space="preserve" text-anchor="middle" x="1089.15" y="-525.98" font-family="Times,serif" font-size="14.00">b</text>
</g>
<!-- normalized_graph&#45;&gt;render_graph -->
<g id="edge12" class="edge">
<title>normalized_graph&#45;&gt;render_graph</title>
<path fill="none" stroke="black" d="M988,-512.24C1020.85,-523.16 1060.71,-536.42 1093.34,-547.26"/>
<polygon fill="black" stroke="black" points="1092.07,-550.53 1102.67,-550.36 1094.28,-543.89 1092.07,-550.53"/>
</g>
<!-- validate -->
<g id="node35" class="node">
<title>validate</title>
<g id="a_node35"><a xlink:title="検証&#10;&#10;正準化グラフとfrontmatterにV/Wルールを適用し診断を生成する。ルールの一次情報docs/spec/spec.md（a層）は設計時にこの実装へ反映されるもので、実行時の入力ではない&#10;command: node packages/cli/dist/cli.js check&#10;location: ../packages/core/src/validator.ts">
<ellipse fill="none" stroke="#27ae60" cx="1156.73" cy="-491" rx="42.65" ry="29.42"/>
<text xml:space="preserve" text-anchor="middle" x="1156.73" y="-495.2" font-family="Times,serif" font-size="14.00">validate</text>
<text xml:space="preserve" text-anchor="middle" x="1156.73" y="-478.4" font-family="Times,serif" font-size="14.00">検証</text>
</a>
</g>
<text xml:space="preserve" text-anchor="middle" x="1110.58" y="-448.98" font-family="Times,serif" font-size="14.00">b</text>
</g>
<!-- normalized_graph&#45;&gt;validate -->
<g id="edge5" class="edge">
<title>normalized_graph&#45;&gt;validate</title>
<path fill="none" stroke="black" d="M991.71,-491C1027.07,-491 1069.72,-491 1102.67,-491"/>
<polygon fill="black" stroke="black" points="1102.38,-494.5 1112.38,-491 1102.38,-487.5 1102.38,-494.5"/>
</g>
<!-- parsed_doc -->
<g id="node5" class="node">
<title>parsed_doc</title>
<g id="a_node5"><a xlink:title="構文木・frontmatter&#10;&#10;frontmatter読込・lex・parseの出力（document構造とfrontmatter）&#10;criteria: frontmatter読込・lex・parseの3段が実装され、CLI全コマンド・VSCode拡張の双方で動作確認済み">
<polygon fill="none" stroke="black" points="571.87,-511.8 413.47,-511.8 413.47,-470.2 571.87,-470.2 571.87,-511.8"/>
<text xml:space="preserve" text-anchor="middle" x="492.67" y="-495.2" font-family="Times,serif" font-size="14.00">parsed_doc</text>
<text xml:space="preserve" text-anchor="middle" x="492.67" y="-478.4" font-family="Times,serif" font-size="14.00">構文木・frontmatter</text>
</a>
</g>
</g>
<!-- parsed_doc&#45;&gt;diff_graphs -->
<g id="edge21" class="edge">
<title>parsed_doc&#45;&gt;diff_graphs</title>
<path fill="none" stroke="black" d="M509.22,-470.12C529.49,-444.84 567.58,-403.6 611.47,-387 777.78,-324.09 993.26,-368.11 1096.06,-395.96"/>
<polygon fill="black" stroke="black" points="1095.11,-399.32 1105.68,-398.61 1096.97,-392.58 1095.11,-399.32"/>
</g>
<!-- parsed_doc&#45;&gt;export_metadata -->
<g id="edge18" class="edge">
<title>parsed_doc&#45;&gt;export_metadata</title>
<path fill="none" stroke="black" d="M504.07,-469.91C521.31,-437.65 559.14,-377.13 611.47,-352 763.52,-278.99 968.02,-300.47 1077.99,-320.19"/>
<polygon fill="black" stroke="black" points="1077.35,-323.63 1087.81,-322 1078.61,-316.75 1077.35,-323.63"/>
</g>
<!-- normalize -->
<g id="node29" class="node">
<title>normalize</title>
<g id="a_node29"><a xlink:title="正規化&#10;&#10;エッジリストとノード種別を正規化しGraphを構築する&#10;command: node packages/cli/dist/cli.js graph edges&#10;location: ../packages/core/src/normalizer.ts">
<ellipse fill="none" stroke="#27ae60" cx="697.03" cy="-425" rx="50.89" ry="29.42"/>
<text xml:space="preserve" text-anchor="middle" x="697.03" y="-429.2" font-family="Times,serif" font-size="14.00">normalize</text>
<text xml:space="preserve" text-anchor="middle" x="697.03" y="-412.4" font-family="Times,serif" font-size="14.00">正規化</text>
</a>
</g>
<text xml:space="preserve" text-anchor="middle" x="642.64" y="-382.98" font-family="Times,serif" font-size="14.00">b</text>
</g>
<!-- parsed_doc&#45;&gt;normalize -->
<g id="edge3" class="edge">
<title>parsed_doc&#45;&gt;normalize</title>
<path fill="none" stroke="black" d="M558.81,-469.75C585.38,-461.09 615.77,-451.18 641.18,-442.89"/>
<polygon fill="black" stroke="black" points="642.25,-446.22 650.67,-439.8 640.07,-439.57 642.25,-446.22"/>
</g>
<!-- parsed_doc&#45;&gt;render_graph -->
<g id="edge13" class="edge">
<title>parsed_doc&#45;&gt;render_graph</title>
<path fill="none" stroke="black" d="M518.36,-511.98C540.93,-529.71 576.1,-553.79 611.47,-564 775.49,-611.35 979.07,-593.86 1084.69,-579.47"/>
<polygon fill="black" stroke="black" points="1084.92,-582.97 1094.34,-578.12 1083.95,-576.04 1084.92,-582.97"/>
</g>
<!-- parsed_doc&#45;&gt;validate -->
<g id="edge6" class="edge">
<title>parsed_doc&#45;&gt;validate</title>
<path fill="none" stroke="black" d="M552.85,-512.21C571.37,-517.86 592.05,-523.18 611.47,-526 660.76,-533.17 1018.1,-523.48 1036.59,-521 1059.8,-517.89 1085.01,-511.93 1106.24,-506.14"/>
<polygon fill="black" stroke="black" points="1107.12,-509.53 1115.8,-503.46 1105.23,-502.79 1107.12,-509.53"/>
</g>
<!-- diagnostics_report -->
<g id="node6" class="node">
<title>diagnostics_report</title>
<g id="a_node6"><a xlink:title="診断結果&#10;&#10;V/Wルールに基づくエラー・警告一覧。CLI checkコマンドの出力で、VSCode拡張は同じvalidateをエディタ内リアルタイム診断に使う&#10;criteria: node packages/cli/dist/cli.js check が実装され動作確認済み（VSCode拡張のリアルタイム診断でも共有）&#10;externalStakeholders: CLIユーザー, CI, VSCode拡張ユーザー">
<polygon fill="none" stroke="black" stroke-width="2" points="1436.07,-774.8 1284.87,-774.8 1284.87,-733.2 1436.07,-733.2 1436.07,-774.8"/>
<text xml:space="preserve" text-anchor="middle" x="1360.47" y="-758.2" font-family="Times,serif" font-size="14.00">diagnostics_report</text>
<text xml:space="preserve" text-anchor="middle" x="1360.47" y="-741.4" font-family="Times,serif" font-size="14.00">診断結果</text>
</a>
</g>
</g>
<!-- diff_report -->
<g id="node7" class="node">
<title>diff_report</title>
<g id="a_node7"><a xlink:title="差分レポート&#10;&#10;2つのグラフ間の構造差分（追加・削除・改名ノード等）。この図は単一ドキュメントの変換を軸にモデル化しているため、比較対象の2つ目のグラフは図上に現れない&#10;criteria: node packages/cli/dist/cli.js diff が実装され動作確認済み&#10;externalStakeholders: CLIユーザー, VSCode拡張ユーザー">
<polygon fill="none" stroke="black" stroke-width="2" points="1414.47,-714.8 1306.47,-714.8 1306.47,-673.2 1414.47,-673.2 1414.47,-714.8"/>
<text xml:space="preserve" text-anchor="middle" x="1360.47" y="-698.2" font-family="Times,serif" font-size="14.00">diff_report</text>
<text xml:space="preserve" text-anchor="middle" x="1360.47" y="-681.4" font-family="Times,serif" font-size="14.00">差分レポート</text>
</a>
</g>
</g>
<!-- dot_graph -->
<g id="node8" class="node">
<title>dot_graph</title>
<g id="a_node8"><a xlink:title="DOTグラフ&#10;&#10;Graphviz DOT形式テキスト（renderコマンドのデフォルト出力）&#10;criteria: node packages/cli/dist/cli.js render が実装され動作確認済み&#10;externalStakeholders: CLIユーザー">
<polygon fill="none" stroke="black" points="1403.67,-834.8 1317.27,-834.8 1317.27,-793.2 1403.67,-793.2 1403.67,-834.8"/>
<text xml:space="preserve" text-anchor="middle" x="1360.47" y="-818.2" font-family="Times,serif" font-size="14.00">dot_graph</text>
<text xml:space="preserve" text-anchor="middle" x="1360.47" y="-801.4" font-family="Times,serif" font-size="14.00">DOTグラフ</text>
</a>
</g>
</g>
<!-- export_image -->
<g id="node25" class="node">
<title>export_image</title>
<g id="a_node25"><a xlink:title="画像化&#10;&#10;DOTをSVG（wasm、外部依存なし）またはPDF/PNG（puppeteer必須）へ変換する&#10;command: node packages/cli/dist/cli.js render &#45;&#45;format svg&#10;location: ../packages/preview&#45;engine/src/index.ts">
<ellipse fill="none" stroke="#27ae60" cx="1558.71" cy="-568" rx="65.74" ry="29.42"/>
<text xml:space="preserve" text-anchor="middle" x="1558.71" y="-572.2" font-family="Times,serif" font-size="14.00">export_image</text>
<text xml:space="preserve" text-anchor="middle" x="1558.71" y="-555.4" font-family="Times,serif" font-size="14.00">画像化</text>
</a>
</g>
<text xml:space="preserve" text-anchor="middle" x="1489.46" y="-525.98" font-family="Times,serif" font-size="14.00">b</text>
</g>
<!-- dot_graph&#45;&gt;export_image -->
<g id="edge15" class="edge">
<title>dot_graph&#45;&gt;export_image</title>
<path fill="none" stroke="black" d="M1404.14,-802.51C1415.4,-798.04 1426.94,-792.01 1436.07,-784 1491.29,-735.55 1526.95,-655.67 1544.59,-607.82"/>
<polygon fill="black" stroke="black" points="1547.78,-609.27 1547.87,-598.68 1541.2,-606.91 1547.78,-609.27"/>
</g>
<!-- drift_report -->
<g id="node9" class="node">
<title>drift_report</title>
<g id="a_node9"><a xlink:title="配置鮮度警告&#10;&#10;配置済みinstall/由来ファイルと同梱canonicalのhash照合結果、および上流plugin versionとのskew警告（stdout）。警告が出たら&#45;&#45;deployでrefreshする&#10;criteria: check&#45;install&#45;sync.mjs &#45;&#45;upstream によるhash照合・skew警告が実装され動作確認済み&#10;externalStakeholders: 採用リポのAIエージェント">
<polygon fill="none" stroke="black" stroke-width="2" points="1818.14,-654.8 1710.14,-654.8 1710.14,-613.2 1818.14,-613.2 1818.14,-654.8"/>
<text xml:space="preserve" text-anchor="middle" x="1764.14" y="-638.2" font-family="Times,serif" font-size="14.00">drift_report</text>
<text xml:space="preserve" text-anchor="middle" x="1764.14" y="-621.4" font-family="Times,serif" font-size="14.00">配置鮮度警告</text>
</a>
</g>
</g>
<!-- formatted_source -->
<g id="node10" class="node">
<title>formatted_source</title>
<g id="a_node10"><a xlink:title="整形済みソース&#10;&#10;ソースからの独立した再parseで生成する正準整形済み.pfdslテキスト&#10;criteria: node packages/cli/dist/cli.js fmt &#45;&#45;write が実装され動作確認済み&#10;externalStakeholders: CLIユーザー, VSCode拡張ユーザー">
<polygon fill="none" stroke="black" stroke-width="2" points="561.07,-722.8 424.27,-722.8 424.27,-681.2 561.07,-681.2 561.07,-722.8"/>
<text xml:space="preserve" text-anchor="middle" x="492.67" y="-706.2" font-family="Times,serif" font-size="14.00">formatted_source</text>
<text xml:space="preserve" text-anchor="middle" x="492.67" y="-689.4" font-family="Times,serif" font-size="14.00">整形済みソース</text>
</a>
</g>
</g>
<!-- metadata_tsv -->
<g id="node11" class="node">
<title>metadata_tsv</title>
<g id="a_node11"><a xlink:title="メタデータTSV&#10;&#10;ノードのkind/label/description/status/tags/ownerを抽出したタブ区切りテキスト&#10;criteria: メタデータ抽出処理が実装され、VSCode拡張のエクスポート機能から動作確認済み&#10;externalStakeholders: VSCode拡張ユーザー">
<polygon fill="none" stroke="black" stroke-width="2" points="1418.07,-654.8 1302.87,-654.8 1302.87,-613.2 1418.07,-613.2 1418.07,-654.8"/>
<text xml:space="preserve" text-anchor="middle" x="1360.47" y="-638.2" font-family="Times,serif" font-size="14.00">metadata_tsv</text>
<text xml:space="preserve" text-anchor="middle" x="1360.47" y="-621.4" font-family="Times,serif" font-size="14.00">メタデータTSV</text>
</a>
</g>
</g>
<!-- rendered_image -->
<g id="node12" class="node">
<title>rendered_image</title>
<g id="a_node12"><a xlink:title="レンダリング画像&#10;&#10;DOTから変換したSVG（wasm）またはPDF/PNG（puppeteer経由）&#10;criteria: node packages/cli/dist/cli.js render &#45;&#45;format svg/pdf/png が実装され動作確認済み&#10;externalStakeholders: CLIユーザー, VSCode拡張ユーザー">
<polygon fill="none" stroke="black" stroke-width="2" points="1832.54,-714.8 1695.74,-714.8 1695.74,-673.2 1832.54,-673.2 1832.54,-714.8"/>
<text xml:space="preserve" text-anchor="middle" x="1764.14" y="-698.2" font-family="Times,serif" font-size="14.00">rendered_image</text>
<text xml:space="preserve" text-anchor="middle" x="1764.14" y="-681.4" font-family="Times,serif" font-size="14.00">レンダリング画像</text>
</a>
</g>
</g>
<!-- sorted_source -->
<g id="node13" class="node">
<title>sorted_source</title>
<g id="a_node13"><a xlink:title="ソート済みソース&#10;&#10;指定キーでノード定義を並べ替えた.pfdslテキスト&#10;criteria: meta sortコマンドが実装され動作確認済み&#10;externalStakeholders: CLIユーザー, VSCode拡張ユーザー">
<polygon fill="none" stroke="black" stroke-width="2" points="561.07,-654.8 424.27,-654.8 424.27,-613.2 561.07,-613.2 561.07,-654.8"/>
<text xml:space="preserve" text-anchor="middle" x="492.67" y="-638.2" font-family="Times,serif" font-size="14.00">sorted_source</text>
<text xml:space="preserve" text-anchor="middle" x="492.67" y="-621.4" font-family="Times,serif" font-size="14.00">ソート済みソース</text>
</a>
</g>
</g>
<!-- ecosystem_skill -->
<g id="node14" class="node">
<title>ecosystem_skill</title>
<g id="a_node14"><a xlink:title="PFDセット構築スキル&#10;&#10;内容の一次情報はworkflow.pfdsl。ここではplugin_dirへの同梱対象としてのみ扱う&#10;location: ../.claude/skills/pfd&#45;ecosystem/">
<polygon fill="none" stroke="black" stroke-width="2" points="178,-347.8 19.6,-347.8 19.6,-306.2 178,-306.2 178,-347.8"/>
<text xml:space="preserve" text-anchor="middle" x="98.8" y="-331.2" font-family="Times,serif" font-size="14.00">ecosystem_skill</text>
<text xml:space="preserve" text-anchor="middle" x="98.8" y="-314.4" font-family="Times,serif" font-size="14.00">PFDセット構築スキル</text>
</a>
</g>
</g>
<!-- assemble_plugin -->
<g id="node20" class="node">
<title>assemble_plugin</title>
<g id="a_node20"><a xlink:title="プラグイン組み立て&#10;&#10;4スキルツリー（pfdslはgen&#45;skillで生成、他3つは.claude/skills/からコピー）とcommands/pfd&#45;*.md・agents/pfd&#45;lens.mdをplugin/pfdsl/へ集約しplugin.jsonをCLI versionから生成する。同梱対象リストはgen&#45;plugin.mjsに一元化&#10;command: make gen&#45;plugin&#10;location: ../scripts/gen&#45;plugin.mjs">
<ellipse fill="none" stroke="#16a085" cx="295.74" cy="-237" rx="78.14" ry="29.42"/>
<text xml:space="preserve" text-anchor="middle" x="295.74" y="-241.2" font-family="Times,serif" font-size="14.00">assemble_plugin</text>
<text xml:space="preserve" text-anchor="middle" x="295.74" y="-224.4" font-family="Times,serif" font-size="14.00">プラグイン組み立て</text>
</a>
</g>
<text xml:space="preserve" text-anchor="middle" x="214.1" y="-194.98" font-family="Times,serif" font-size="14.00">g</text>
</g>
<!-- ecosystem_skill&#45;&gt;assemble_plugin -->
<g id="edge28" class="edge">
<title>ecosystem_skill&#45;&gt;assemble_plugin</title>
<path fill="none" stroke="black" d="M169.45,-305.25C176.33,-302.65 183.15,-299.89 189.6,-297 208.12,-288.72 227.63,-278.15 244.74,-268.19"/>
<polygon fill="black" stroke="black" points="246.38,-271.29 253.21,-263.2 242.82,-265.26 246.38,-271.29"/>
</g>
<!-- grill_skill -->
<g id="node15" class="node">
<title>grill_skill</title>
<g id="a_node15"><a xlink:title="後ろ向き対話構築スキル&#10;&#10;内容の一次情報はworkflow.pfdsl。ここではplugin_dirへの同梱対象としてのみ扱う&#10;location: ../.claude/skills/pfd&#45;grill/">
<polygon fill="none" stroke="black" stroke-width="2" points="181.6,-424.2 16,-424.2 16,-365.8 181.6,-365.8 181.6,-424.2"/>
<text xml:space="preserve" text-anchor="middle" x="98.8" y="-407.6" font-family="Times,serif" font-size="14.00">grill_skill</text>
<text xml:space="preserve" text-anchor="middle" x="98.8" y="-390.8" font-family="Times,serif" font-size="14.00">後ろ向き対話構築スキ</text>
<text xml:space="preserve" text-anchor="middle" x="98.8" y="-374" font-family="Times,serif" font-size="14.00">ル</text>
</a>
</g>
</g>
<!-- grill_skill&#45;&gt;assemble_plugin -->
<g id="edge24" class="edge">
<title>grill_skill&#45;&gt;assemble_plugin</title>
<path fill="none" stroke="black" d="M177.47,-364.87C181.68,-362.4 185.76,-359.78 189.6,-357 220.89,-334.39 249.27,-300.82 268.64,-274.94"/>
<polygon fill="black" stroke="black" points="271.37,-277.14 274.46,-267.01 265.72,-273 271.37,-277.14"/>
</g>
<!-- ops_skill_general -->
<g id="node16" class="node">
<title>ops_skill_general</title>
<g id="a_node16"><a xlink:title="PFD運用フレームワーク 汎用層&#10;&#10;pfd&#45;opsのL1（汎用手順）+L2（ディスパッチ）。SKILL.md本文で配布。L4（リポ固有）は配布対象外でpfd&#45;ops自体に含まれない。内容の一次情報はworkflow.pfdslのops_skill_general&#10;location: ../.claude/skills/pfd&#45;ops/SKILL.md">
<polygon fill="none" stroke="#c0392b" stroke-width="2" points="178,-75.2 19.6,-75.2 19.6,-16.8 178,-16.8 178,-75.2"/>
<text xml:space="preserve" text-anchor="middle" x="98.8" y="-58.6" font-family="Times,serif" font-size="14.00">ops_skill_general</text>
<text xml:space="preserve" text-anchor="middle" x="98.8" y="-41.8" font-family="Times,serif" font-size="14.00">PFD運用フレームワー</text>
<text xml:space="preserve" text-anchor="middle" x="98.8" y="-25" font-family="Times,serif" font-size="14.00">ク 汎用層</text>
</a>
</g>
<text xml:space="preserve" text-anchor="middle" x="13.77" y="-4.2" font-family="Times,serif" font-size="14.00">f1</text>
</g>
<!-- ops_skill_general&#45;&gt;assemble_plugin -->
<g id="edge25" class="edge">
<title>ops_skill_general&#45;&gt;assemble_plugin</title>
<path fill="none" stroke="black" d="M178.75,-76.16C182.55,-78.61 186.19,-81.22 189.6,-84 227.73,-115.12 257.78,-163.55 275.82,-197.57"/>
<polygon fill="black" stroke="black" points="272.63,-199.02 280.33,-206.29 278.84,-195.8 272.63,-199.02"/>
</g>
<!-- ops_skill_l3 -->
<g id="node17" class="node">
<title>ops_skill_l3</title>
<g id="a_node17"><a xlink:title="PFD運用フレームワーク GitHub Issuesバックエンド層&#10;&#10;pfd&#45;opsのL3プリセット（references/github&#45;issues&#45;backend.md + install/テンプレート）。内容の一次情報はworkflow.pfdslのops_skill_l3&#10;location: ../.claude/skills/pfd&#45;ops/references/github&#45;issues&#45;backend.md, ../.claude/skills/pfd&#45;ops/install/">
<polygon fill="none" stroke="#e67e22" stroke-width="2" points="181.6,-168.6 16,-168.6 16,-93.4 181.6,-93.4 181.6,-168.6"/>
<text xml:space="preserve" text-anchor="middle" x="98.8" y="-152" font-family="Times,serif" font-size="14.00">ops_skill_l3</text>
<text xml:space="preserve" text-anchor="middle" x="98.8" y="-135.2" font-family="Times,serif" font-size="14.00">PFD運用フレームワー</text>
<text xml:space="preserve" text-anchor="middle" x="98.8" y="-118.4" font-family="Times,serif" font-size="14.00">ク GitHub</text>
<text xml:space="preserve" text-anchor="middle" x="98.8" y="-101.6" font-family="Times,serif" font-size="14.00">Issuesバックエンド層</text>
</a>
</g>
<text xml:space="preserve" text-anchor="middle" x="10.17" y="-80.8" font-family="Times,serif" font-size="14.00">f2</text>
</g>
<!-- ops_skill_l3&#45;&gt;assemble_plugin -->
<g id="edge26" class="edge">
<title>ops_skill_l3&#45;&gt;assemble_plugin</title>
<path fill="none" stroke="black" d="M175.38,-169.41C180.21,-171.95 184.98,-174.5 189.6,-177 206.98,-186.41 225.78,-197 242.61,-206.64"/>
<polygon fill="black" stroke="black" points="240.54,-209.48 250.95,-211.43 244.03,-203.41 240.54,-209.48"/>
</g>
<!-- pfdsl_skill -->
<g id="node18" class="node">
<title>pfdsl_skill</title>
<g id="a_node18"><a xlink:title="PFD読み書き分析skill&#10;&#10;AIエージェントに.pfdsl操作（check/fmt/render/diff/meta sort等のCLIコマンド）を指示するスキル。bの呼び出し元（ホスト）でもあるが、その関係はデータフローではないため、図にはassemble_pluginへの素材提供のみが現れる&#10;location: ../.claude/skills/pfdsl/">
<polygon fill="none" stroke="#f39c12" stroke-width="2" points="181.6,-227.8 16,-227.8 16,-186.2 181.6,-186.2 181.6,-227.8"/>
<text xml:space="preserve" text-anchor="middle" x="98.8" y="-211.2" font-family="Times,serif" font-size="14.00">pfdsl_skill</text>
<text xml:space="preserve" text-anchor="middle" x="98.8" y="-194.4" font-family="Times,serif" font-size="14.00">PFD読み書き分析skill</text>
</a>
</g>
<text xml:space="preserve" text-anchor="middle" x="12.89" y="-173.6" font-family="Times,serif" font-size="14.00">c</text>
</g>
<!-- pfdsl_skill&#45;&gt;assemble_plugin -->
<g id="edge23" class="edge">
<title>pfdsl_skill&#45;&gt;assemble_plugin</title>
<path fill="none" stroke="black" d="M182.47,-219.72C192.09,-221.2 201.91,-222.71 211.54,-224.2"/>
<polygon fill="black" stroke="black" points="210.82,-227.63 221.23,-225.69 211.88,-220.71 210.82,-227.63"/>
</g>
<!-- retro_skill -->
<g id="node19" class="node">
<title>retro_skill</title>
<g id="a_node19"><a xlink:title="ふりかえり監査スキル&#10;&#10;内容の一次情報はworkflow.pfdsl。ここではplugin_dirへの同梱対象としてのみ扱う&#10;location: ../.claude/skills/pfd&#45;retro/">
<polygon fill="none" stroke="black" stroke-width="2" points="181.6,-287.8 16,-287.8 16,-246.2 181.6,-246.2 181.6,-287.8"/>
<text xml:space="preserve" text-anchor="middle" x="98.8" y="-271.2" font-family="Times,serif" font-size="14.00">retro_skill</text>
<text xml:space="preserve" text-anchor="middle" x="98.8" y="-254.4" font-family="Times,serif" font-size="14.00">ふりかえり監査スキル</text>
</a>
</g>
</g>
<!-- retro_skill&#45;&gt;assemble_plugin -->
<g id="edge27" class="edge">
<title>retro_skill&#45;&gt;assemble_plugin</title>
<path fill="none" stroke="black" d="M182.47,-254.28C192.09,-252.8 201.91,-251.29 211.54,-249.8"/>
<polygon fill="black" stroke="black" points="211.88,-253.29 221.23,-248.31 210.82,-246.37 211.88,-253.29"/>
</g>
<!-- plugin_dir -->
<g id="node32" class="node">
<title>plugin_dir</title>
<g id="a_node32"><a xlink:title="配布プラグインディレクトリ&#10;&#10;make gen&#45;plugin が組み立てる plugin/pfdsl/（コミット対象、git&#45;subdir marketplace source としてそのまま配布される）。canonical スキル群との identity は check&#45;gen&#45;plugin.yml が CI 強制する&#10;criteria: make gen&#45;plugin が実装され、check&#45;gen&#45;plugin.yml のCI強制込みで動作確認済み&#10;location: ../plugin/pfdsl/">
<polygon fill="none" stroke="black" points="575.47,-266.2 409.87,-266.2 409.87,-207.8 575.47,-207.8 575.47,-266.2"/>
<text xml:space="preserve" text-anchor="middle" x="492.67" y="-249.6" font-family="Times,serif" font-size="14.00">plugin_dir</text>
<text xml:space="preserve" text-anchor="middle" x="492.67" y="-232.8" font-family="Times,serif" font-size="14.00">配布プラグインディレ</text>
<text xml:space="preserve" text-anchor="middle" x="492.67" y="-216" font-family="Times,serif" font-size="14.00">クトリ</text>
</a>
</g>
</g>
<!-- assemble_plugin&#45;&gt;plugin_dir -->
<g id="edge29" class="edge">
<title>assemble_plugin&#45;&gt;plugin_dir</title>
<path fill="none" stroke="black" d="M374.34,-237C382.21,-237 390.25,-237 398.26,-237"/>
<polygon fill="black" stroke="black" points="398.02,-240.5 408.02,-237 398.02,-233.5 398.02,-240.5"/>
</g>
<!-- check_install_sync&#45;&gt;drift_report -->
<g id="edge36" class="edge">
<title>check_install_sync&#45;&gt;drift_report</title>
<path fill="none" stroke="black" d="M1591.49,-426.44C1631.95,-475.36 1701.02,-558.89 1738.01,-603.61"/>
<polygon fill="black" stroke="black" points="1735.14,-605.63 1744.21,-611.11 1740.54,-601.17 1735.14,-605.63"/>
</g>
<!-- deploy_install_layer&#45;&gt;installed_l3_layer -->
<g id="edge33" class="edge">
<title>deploy_install_layer&#45;&gt;installed_l3_layer</title>
<path fill="none" stroke="black" d="M1248.57,-211.85C1256.74,-211.56 1265,-211.28 1273.14,-211"/>
<polygon fill="black" stroke="black" points="1273.15,-214.5 1283.02,-210.65 1272.9,-207.5 1273.15,-214.5"/>
</g>
<!-- diff_graphs&#45;&gt;diff_report -->
<g id="edge22" class="edge">
<title>diff_graphs&#45;&gt;diff_report</title>
<path fill="none" stroke="black" d="M1209.28,-425.61C1224.2,-431.43 1239.09,-440.11 1248.87,-453 1306.06,-528.36 1217.59,-590.27 1276.87,-664 1281.93,-670.29 1288.43,-675.27 1295.56,-679.2"/>
<polygon fill="black" stroke="black" points="1293.68,-682.18 1304.22,-683.29 1296.67,-675.86 1293.68,-682.18"/>
</g>
<!-- ensure_labels&#45;&gt;gh_labels -->
<g id="edge38" class="edge">
<title>ensure_labels&#45;&gt;gh_labels</title>
<path fill="none" stroke="black" d="M1609.83,-280.55C1621.56,-275.99 1633.96,-270.98 1645.34,-266 1667.23,-256.42 1690.93,-244.96 1711.3,-234.77"/>
<polygon fill="black" stroke="black" points="1712.61,-238.03 1719.97,-230.41 1709.46,-231.78 1712.61,-238.03"/>
</g>
<!-- export_image&#45;&gt;rendered_image -->
<g id="edge16" class="edge">
<title>export_image&#45;&gt;rendered_image</title>
<path fill="none" stroke="black" d="M1587.83,-594.47C1611.37,-615.52 1646.59,-644.57 1681.34,-664 1683.41,-665.15 1685.52,-666.28 1687.68,-667.37"/>
<polygon fill="black" stroke="black" points="1686.09,-670.49 1696.62,-671.63 1689.09,-664.17 1686.09,-670.49"/>
</g>
<!-- export_metadata&#45;&gt;metadata_tsv -->
<g id="edge19" class="edge">
<title>export_metadata&#45;&gt;metadata_tsv</title>
<path fill="none" stroke="black" d="M1218.18,-355.13C1229.37,-360.52 1240.22,-367.36 1248.87,-376 1312.96,-440.05 1342.3,-547.17 1353.55,-601"/>
<polygon fill="black" stroke="black" points="1350.11,-601.65 1355.51,-610.77 1356.98,-600.28 1350.11,-601.65"/>
</g>
<!-- format -->
<g id="node27" class="node">
<title>format</title>
<g id="a_node27"><a xlink:title="整形&#10;&#10;ソースを独立に再lex/parseし正準整形済みテキストを生成する（parseの出力を再利用しない別経路）&#10;command: node packages/cli/dist/cli.js fmt &#45;&#45;write&#10;location: ../packages/core/src/formatter.ts">
<ellipse fill="none" stroke="#27ae60" cx="295.74" cy="-702" rx="37.7" ry="29.42"/>
<text xml:space="preserve" text-anchor="middle" x="295.74" y="-706.2" font-family="Times,serif" font-size="14.00">format</text>
<text xml:space="preserve" text-anchor="middle" x="295.74" y="-689.4" font-family="Times,serif" font-size="14.00">整形</text>
</a>
</g>
<text xml:space="preserve" text-anchor="middle" x="254.53" y="-659.98" font-family="Times,serif" font-size="14.00">b</text>
</g>
<!-- format&#45;&gt;formatted_source -->
<g id="edge9" class="edge">
<title>format&#45;&gt;formatted_source</title>
<path fill="none" stroke="black" d="M333.86,-702C355.99,-702 384.97,-702 412.05,-702"/>
<polygon fill="black" stroke="black" points="412,-705.5 422,-702 412,-698.5 412,-705.5"/>
</g>
<!-- install_plugin -->
<g id="node28" class="node">
<title>install_plugin</title>
<g id="a_node28"><a xlink:title="プラグインインストール&#10;&#10;外部ユーザーがClaude Codeのmarketplace機構で導入・更新する（/plugin install、更新は/plugin marketplace update）。リポ内コミットを伴わない">
<ellipse fill="none" stroke="#16a085" cx="697.03" cy="-237" rx="85.56" ry="41.3"/>
<text xml:space="preserve" text-anchor="middle" x="697.03" y="-249.6" font-family="Times,serif" font-size="14.00">install_plugin</text>
<text xml:space="preserve" text-anchor="middle" x="697.03" y="-232.8" font-family="Times,serif" font-size="14.00">プラグインインストー</text>
<text xml:space="preserve" text-anchor="middle" x="697.03" y="-216" font-family="Times,serif" font-size="14.00">ル</text>
</a>
</g>
<text xml:space="preserve" text-anchor="middle" x="607.97" y="-183.1" font-family="Times,serif" font-size="14.00">g</text>
</g>
<!-- install_plugin&#45;&gt;installed_plugin -->
<g id="edge31" class="edge">
<title>install_plugin&#45;&gt;installed_plugin</title>
<path fill="none" stroke="black" d="M783.06,-237C800.32,-237 818.5,-237 835.8,-237"/>
<polygon fill="black" stroke="black" points="835.52,-240.5 845.52,-237 835.52,-233.5 835.52,-240.5"/>
</g>
<!-- normalize&#45;&gt;normalized_graph -->
<g id="edge4" class="edge">
<title>normalize&#45;&gt;normalized_graph</title>
<path fill="none" stroke="black" d="M742.83,-438.2C771.64,-446.68 809.86,-457.94 843.61,-467.88"/>
<polygon fill="black" stroke="black" points="842.36,-471.16 852.94,-470.63 844.34,-464.45 842.36,-471.16"/>
</g>
<!-- parse -->
<g id="node30" class="node">
<title>parse</title>
<g id="a_node30"><a xlink:title="構文解析&#10;&#10;frontmatter読込・lex・parseの3段を1トランザクションで実行しdocument+frontmatterを得る。CLI（c経由）・VSCode拡張（d）双方の全コマンドが内部で通る&#10;location: ../packages/core/src/index.ts">
<ellipse fill="none" stroke="#27ae60" cx="295.74" cy="-519" rx="41.01" ry="29.42"/>
<text xml:space="preserve" text-anchor="middle" x="295.74" y="-523.2" font-family="Times,serif" font-size="14.00">parse</text>
<text xml:space="preserve" text-anchor="middle" x="295.74" y="-506.4" font-family="Times,serif" font-size="14.00">構文解析</text>
</a>
</g>
<text xml:space="preserve" text-anchor="middle" x="251.22" y="-476.98" font-family="Times,serif" font-size="14.00">b</text>
</g>
<!-- parse&#45;&gt;parsed_doc -->
<g id="edge2" class="edge">
<title>parse&#45;&gt;parsed_doc</title>
<path fill="none" stroke="black" d="M336.18,-513.33C355.21,-510.6 378.87,-507.2 401.95,-503.89"/>
<polygon fill="black" stroke="black" points="402.31,-507.37 411.71,-502.48 401.32,-500.44 402.31,-507.37"/>
</g>
<!-- pfdsl_source -->
<g id="node31" class="node">
<title>pfdsl_source</title>
<g id="a_node31"><a xlink:title=".pfdslソースファイル&#10;&#10;ユーザーが記述するfrontmatter+bodyのテキスト">
<polygon fill="none" stroke="black" stroke-width="2" points="181.6,-645.8 16,-645.8 16,-604.2 181.6,-604.2 181.6,-645.8"/>
<text xml:space="preserve" text-anchor="middle" x="98.8" y="-629.2" font-family="Times,serif" font-size="14.00">pfdsl_source</text>
<text xml:space="preserve" text-anchor="middle" x="98.8" y="-612.4" font-family="Times,serif" font-size="14.00">.pfdslソースファイル</text>
</a>
</g>
</g>
<!-- pfdsl_source&#45;&gt;format -->
<g id="edge8" class="edge">
<title>pfdsl_source&#45;&gt;format</title>
<path fill="none" stroke="black" d="M154.88,-646.76C185.33,-658.78 222.63,-673.52 251.05,-684.75"/>
<polygon fill="black" stroke="black" points="249.48,-687.89 260.07,-688.31 252.06,-681.38 249.48,-687.89"/>
</g>
<!-- pfdsl_source&#45;&gt;parse -->
<g id="edge1" class="edge">
<title>pfdsl_source&#45;&gt;parse</title>
<path fill="none" stroke="black" d="M139.72,-603.29C172.53,-585.45 218.89,-560.24 252.35,-542.05"/>
<polygon fill="black" stroke="black" points="253.85,-545.22 260.96,-537.36 250.5,-539.07 253.85,-545.22"/>
</g>
<!-- sort_meta -->
<g id="node34" class="node">
<title>sort_meta</title>
<g id="a_node34"><a xlink:title="ノード定義ソート&#10;&#10;ソースを再parseし、指定キーでfrontmatterのノード定義を並べ替えたテキストを生成する&#10;command: node packages/cli/dist/cli.js meta sort&#10;location: ../packages/core/src/sort.ts">
<ellipse fill="none" stroke="#27ae60" cx="295.74" cy="-625" rx="70.71" ry="29.42"/>
<text xml:space="preserve" text-anchor="middle" x="295.74" y="-629.2" font-family="Times,serif" font-size="14.00">sort_meta</text>
<text xml:space="preserve" text-anchor="middle" x="295.74" y="-612.4" font-family="Times,serif" font-size="14.00">ノード定義ソート</text>
</a>
</g>
<text xml:space="preserve" text-anchor="middle" x="221.52" y="-582.98" font-family="Times,serif" font-size="14.00">b</text>
</g>
<!-- pfdsl_source&#45;&gt;sort_meta -->
<g id="edge10" class="edge">
<title>pfdsl_source&#45;&gt;sort_meta</title>
<path fill="none" stroke="black" d="M182.47,-625C192.65,-625 203.05,-625 213.21,-625"/>
<polygon fill="black" stroke="black" points="213.04,-628.5 223.04,-625 213.04,-621.5 213.04,-628.5"/>
</g>
<!-- plugin_dir&#45;&gt;install_plugin -->
<g id="edge30" class="edge">
<title>plugin_dir&#45;&gt;install_plugin</title>
<path fill="none" stroke="black" d="M575.69,-237C583.65,-237 591.79,-237 599.88,-237"/>
<polygon fill="black" stroke="black" points="599.75,-240.5 609.75,-237 599.75,-233.5 599.75,-240.5"/>
</g>
<!-- render_graph&#45;&gt;dot_graph -->
<g id="edge14" class="edge">
<title>render_graph&#45;&gt;dot_graph</title>
<path fill="none" stroke="black" d="M1166.49,-597.49C1181.64,-643.6 1216.98,-732.78 1276.87,-784 1285.39,-791.29 1295.83,-796.87 1306.38,-801.11"/>
<polygon fill="black" stroke="black" points="1304.88,-804.29 1315.48,-804.41 1307.27,-797.71 1304.88,-804.29"/>
</g>
<!-- sort_meta&#45;&gt;sorted_source -->
<g id="edge11" class="edge">
<title>sort_meta&#45;&gt;sorted_source</title>
<path fill="none" stroke="black" d="M366.29,-628.21C381.1,-628.89 396.85,-629.62 412.01,-630.32"/>
<polygon fill="black" stroke="black" points="411.79,-633.82 421.94,-630.78 412.12,-626.82 411.79,-633.82"/>
</g>
<!-- validate&#45;&gt;diagnostics_report -->
<g id="edge7" class="edge">
<title>validate&#45;&gt;diagnostics_report</title>
<path fill="none" stroke="black" d="M1198.31,-498.88C1216.51,-504.51 1236.6,-514.03 1248.87,-530 1301.93,-599.09 1221.9,-656.42 1276.87,-724 1276.95,-724.1 1277.02,-724.19 1277.1,-724.29"/>
<polygon fill="black" stroke="black" points="1274.63,-726.77 1284.23,-731.26 1279.53,-721.76 1274.63,-726.77"/>
</g>
</g>
</svg>
