<?xml version="1.0" encoding="UTF-8" standalone="no"?>
<!DOCTYPE svg PUBLIC "-//W3C//DTD SVG 1.1//EN"
 "http://www.w3.org/Graphics/SVG/1.1/DTD/svg11.dtd">
<!-- Generated by graphviz version 15.0.0 (0)
 -->
<!-- Title: PFDSL Pages: 1 -->
<svg width="313pt" height="1627pt"
 viewBox="0.00 0.00 313.00 1627.00" xmlns="http://www.w3.org/2000/svg" xmlns:xlink="http://www.w3.org/1999/xlink">
<g id="graph0" class="graph" transform="scale(1 1) rotate(0) translate(4 1623.2)">
<title>PFDSL</title>
<polygon fill="white" stroke="none" points="-4,4 -4,-1623.2 308.8,-1623.2 308.8,4 -4,4"/>
<text xml:space="preserve" text-anchor="middle" x="152.4" y="-1602.6" font-family="Times,serif" font-size="14.00">pfdsl開発ワークフロー — diff</text>
<text xml:space="preserve" text-anchor="middle" x="152.4" y="-1585.8" font-family="Times,serif" font-size="14.00">green = added · red = removed · yellow = changed</text>
<!-- adrs -->
<g id="node1" class="node">
<title>adrs</title>
<polygon fill="#ffeeba" stroke="#e0a800" points="179.4,-41.6 125.4,-41.6 125.4,0 179.4,0 179.4,-41.6"/>
<text xml:space="preserve" text-anchor="middle" x="152.4" y="-25" font-family="Times,serif" font-size="14.00">adrs</text>
<text xml:space="preserve" text-anchor="middle" x="152.4" y="-8.2" font-family="Times,serif" font-size="14.00">ADR</text>
</g>
<!-- examples -->
<g id="node2" class="node">
<title>examples</title>
<polygon fill="#ffeeba" stroke="#e0a800" points="192,-101.6 112.8,-101.6 112.8,-60 192,-60 192,-101.6"/>
<text xml:space="preserve" text-anchor="middle" x="152.4" y="-85" font-family="Times,serif" font-size="14.00">examples</text>
<text xml:space="preserve" text-anchor="middle" x="152.4" y="-68.2" font-family="Times,serif" font-size="14.00">実践例</text>
</g>
<!-- feature_samples -->
<g id="node3" class="node">
<title>feature_samples</title>
<polygon fill="#ffeeba" stroke="#e0a800" points="217.2,-161.6 87.6,-161.6 87.6,-120 217.2,-120 217.2,-161.6"/>
<text xml:space="preserve" text-anchor="middle" x="152.4" y="-145" font-family="Times,serif" font-size="14.00">feature_samples</text>
<text xml:space="preserve" text-anchor="middle" x="152.4" y="-128.2" font-family="Times,serif" font-size="14.00">機能カタログ</text>
</g>
<!-- findings -->
<g id="node4" class="node">
<title>findings</title>
<polygon fill="#ffeeba" stroke="#e0a800" points="206.4,-221.6 98.4,-221.6 98.4,-180 206.4,-180 206.4,-221.6"/>
<text xml:space="preserve" text-anchor="middle" x="152.4" y="-205" font-family="Times,serif" font-size="14.00">findings</text>
<text xml:space="preserve" text-anchor="middle" x="152.4" y="-188.2" font-family="Times,serif" font-size="14.00">レビュー知見</text>
</g>
<!-- gh_issues -->
<g id="node5" class="node">
<title>gh_issues</title>
<polygon fill="#ffeeba" stroke="#e0a800" points="199.88,-281.6 104.93,-281.6 104.93,-240 199.88,-240 199.88,-281.6"/>
<text xml:space="preserve" text-anchor="middle" x="152.4" y="-265" font-family="Times,serif" font-size="14.00">gh_issues</text>
<text xml:space="preserve" text-anchor="middle" x="152.4" y="-248.2" font-family="Times,serif" font-size="14.00">GitHub issues</text>
</g>
<!-- gh_skill_dist -->
<g id="node6" class="node">
<title>gh_skill_dist</title>
<polygon fill="#ffeeba" stroke="#e0a800" points="231.6,-341.6 73.2,-341.6 73.2,-300 231.6,-300 231.6,-341.6"/>
<text xml:space="preserve" text-anchor="middle" x="152.4" y="-325" font-family="Times,serif" font-size="14.00">gh_skill_dist</text>
<text xml:space="preserve" text-anchor="middle" x="152.4" y="-308.2" font-family="Times,serif" font-size="14.00">gh skill 配布スキル</text>
</g>
<!-- ops_skill -->
<g id="node7" class="node">
<title>ops_skill</title>
<polygon fill="#ffeeba" stroke="#e0a800" points="210,-401.6 94.8,-401.6 94.8,-360 210,-360 210,-401.6"/>
<text xml:space="preserve" text-anchor="middle" x="152.4" y="-385" font-family="Times,serif" font-size="14.00">ops_skill</text>
<text xml:space="preserve" text-anchor="middle" x="152.4" y="-368.2" font-family="Times,serif" font-size="14.00">PFD運用スキル</text>
</g>
<!-- payoff_log -->
<g id="node8" class="node">
<title>payoff_log</title>
<polygon fill="#ffeeba" stroke="#e0a800" points="206.4,-461.6 98.4,-461.6 98.4,-420 206.4,-420 206.4,-461.6"/>
<text xml:space="preserve" text-anchor="middle" x="152.4" y="-445" font-family="Times,serif" font-size="14.00">payoff_log</text>
<text xml:space="preserve" text-anchor="middle" x="152.4" y="-428.2" font-family="Times,serif" font-size="14.00">効果局面ログ</text>
</g>
<!-- pr_diagrams -->
<g id="node9" class="node">
<title>pr_diagrams</title>
<polygon fill="#ffeeba" stroke="#e0a800" points="228,-521.6 76.8,-521.6 76.8,-480 228,-480 228,-521.6"/>
<text xml:space="preserve" text-anchor="middle" x="152.4" y="-505" font-family="Times,serif" font-size="14.00">pr_diagrams</text>
<text xml:space="preserve" text-anchor="middle" x="152.4" y="-488.2" font-family="Times,serif" font-size="14.00">PR差分ダイアグラム</text>
</g>
<!-- published_cli -->
<g id="node10" class="node">
<title>published_cli</title>
<polygon fill="#ffeeba" stroke="#e0a800" points="210,-581.6 94.8,-581.6 94.8,-540 210,-540 210,-581.6"/>
<text xml:space="preserve" text-anchor="middle" x="152.4" y="-565" font-family="Times,serif" font-size="14.00">published_cli</text>
<text xml:space="preserve" text-anchor="middle" x="152.4" y="-548.2" font-family="Times,serif" font-size="14.00">npm 公開 CLI</text>
</g>
<!-- published_ext -->
<g id="node11" class="node">
<title>published_ext</title>
<polygon fill="#ffeeba" stroke="#e0a800" points="220.8,-658 84,-658 84,-599.6 220.8,-599.6 220.8,-658"/>
<text xml:space="preserve" text-anchor="middle" x="152.4" y="-641.4" font-family="Times,serif" font-size="14.00">published_ext</text>
<text xml:space="preserve" text-anchor="middle" x="152.4" y="-624.6" font-family="Times,serif" font-size="14.00">Marketplace 公開</text>
<text xml:space="preserve" text-anchor="middle" x="152.4" y="-607.8" font-family="Times,serif" font-size="14.00">extension</text>
</g>
<!-- published_libraries -->
<g id="node12" class="node">
<title>published_libraries</title>
<polygon fill="#ffeeba" stroke="#e0a800" points="231.6,-734 73.2,-734 73.2,-675.6 231.6,-675.6 231.6,-734"/>
<text xml:space="preserve" text-anchor="middle" x="152.4" y="-717.4" font-family="Times,serif" font-size="14.00">published_libraries</text>
<text xml:space="preserve" text-anchor="middle" x="152.4" y="-700.6" font-family="Times,serif" font-size="14.00">npm 公開ライブラリ</text>
<text xml:space="preserve" text-anchor="middle" x="152.4" y="-683.8" font-family="Times,serif" font-size="14.00">群</text>
</g>
<!-- readme -->
<g id="node13" class="node">
<title>readme</title>
<polygon fill="#ffeeba" stroke="#e0a800" points="189.96,-793.6 114.85,-793.6 114.85,-752 189.96,-752 189.96,-793.6"/>
<text xml:space="preserve" text-anchor="middle" x="152.4" y="-777" font-family="Times,serif" font-size="14.00">readme</text>
<text xml:space="preserve" text-anchor="middle" x="152.4" y="-760.2" font-family="Times,serif" font-size="14.00">README</text>
</g>
<!-- retro_skill -->
<g id="node14" class="node">
<title>retro_skill</title>
<polygon fill="#ffeeba" stroke="#e0a800" points="228,-870 76.8,-870 76.8,-811.6 228,-811.6 228,-870"/>
<text xml:space="preserve" text-anchor="middle" x="152.4" y="-853.4" font-family="Times,serif" font-size="14.00">retro_skill</text>
<text xml:space="preserve" text-anchor="middle" x="152.4" y="-836.6" font-family="Times,serif" font-size="14.00">ふりかえり監査スキ</text>
<text xml:space="preserve" text-anchor="middle" x="152.4" y="-819.8" font-family="Times,serif" font-size="14.00">ル</text>
</g>
<!-- review_prompts -->
<g id="node15" class="node">
<title>review_prompts</title>
<polygon fill="#ffeeba" stroke="#e0a800" points="228,-946 76.8,-946 76.8,-887.6 228,-887.6 228,-946"/>
<text xml:space="preserve" text-anchor="middle" x="152.4" y="-929.4" font-family="Times,serif" font-size="14.00">review_prompts</text>
<text xml:space="preserve" text-anchor="middle" x="152.4" y="-912.6" font-family="Times,serif" font-size="14.00">レビュープロンプト</text>
<text xml:space="preserve" text-anchor="middle" x="152.4" y="-895.8" font-family="Times,serif" font-size="14.00">集</text>
</g>
<!-- roadmap_md -->
<g id="node16" class="node">
<title>roadmap_md</title>
<polygon fill="#ffeeba" stroke="#e0a800" points="213.6,-1005.6 91.2,-1005.6 91.2,-964 213.6,-964 213.6,-1005.6"/>
<text xml:space="preserve" text-anchor="middle" x="152.4" y="-989" font-family="Times,serif" font-size="14.00">roadmap_md</text>
<text xml:space="preserve" text-anchor="middle" x="152.4" y="-972.2" font-family="Times,serif" font-size="14.00">計画 companion</text>
</g>
<!-- roadmap_pfdsl -->
<g id="node17" class="node">
<title>roadmap_pfdsl</title>
<polygon fill="#ffeeba" stroke="#e0a800" points="220.8,-1065.6 84,-1065.6 84,-1024 220.8,-1024 220.8,-1065.6"/>
<text xml:space="preserve" text-anchor="middle" x="152.4" y="-1049" font-family="Times,serif" font-size="14.00">roadmap_pfdsl</text>
<text xml:space="preserve" text-anchor="middle" x="152.4" y="-1032.2" font-family="Times,serif" font-size="14.00">issue 依存グラフ</text>
</g>
<!-- sample_previews -->
<g id="node18" class="node">
<title>sample_previews</title>
<polygon fill="#ffeeba" stroke="#e0a800" points="217.2,-1125.6 87.6,-1125.6 87.6,-1084 217.2,-1084 217.2,-1125.6"/>
<text xml:space="preserve" text-anchor="middle" x="152.4" y="-1109" font-family="Times,serif" font-size="14.00">sample_previews</text>
<text xml:space="preserve" text-anchor="middle" x="152.4" y="-1092.2" font-family="Times,serif" font-size="14.00">サンプル描画物</text>
</g>
<!-- skill -->
<g id="node19" class="node">
<title>skill</title>
<polygon fill="#ffeeba" stroke="#e0a800" points="220.8,-1202 84,-1202 84,-1143.6 220.8,-1143.6 220.8,-1202"/>
<text xml:space="preserve" text-anchor="middle" x="152.4" y="-1185.4" font-family="Times,serif" font-size="14.00">skill</text>
<text xml:space="preserve" text-anchor="middle" x="152.4" y="-1168.6" font-family="Times,serif" font-size="14.00">AI agent</text>
<text xml:space="preserve" text-anchor="middle" x="152.4" y="-1151.8" font-family="Times,serif" font-size="14.00">スキル（リポ内）</text>
</g>
<!-- skill_template -->
<g id="node20" class="node">
<title>skill_template</title>
<polygon fill="#ffeeba" stroke="#e0a800" points="228,-1261.6 76.8,-1261.6 76.8,-1220 228,-1220 228,-1261.6"/>
<text xml:space="preserve" text-anchor="middle" x="152.4" y="-1245" font-family="Times,serif" font-size="14.00">skill_template</text>
<text xml:space="preserve" text-anchor="middle" x="152.4" y="-1228.2" font-family="Times,serif" font-size="14.00">スキルテンプレート</text>
</g>
<!-- spec -->
<g id="node21" class="node">
<title>spec</title>
<polygon fill="#ffeeba" stroke="#e0a800" points="199.2,-1321.6 105.6,-1321.6 105.6,-1280 199.2,-1280 199.2,-1321.6"/>
<text xml:space="preserve" text-anchor="middle" x="152.4" y="-1305" font-family="Times,serif" font-size="14.00">spec</text>
<text xml:space="preserve" text-anchor="middle" x="152.4" y="-1288.2" font-family="Times,serif" font-size="14.00">言語仕様書</text>
</g>
<!-- spec_proposals -->
<g id="node22" class="node">
<title>spec_proposals</title>
<polygon fill="#ffeeba" stroke="#e0a800" points="217.2,-1381.6 87.6,-1381.6 87.6,-1340 217.2,-1340 217.2,-1381.6"/>
<text xml:space="preserve" text-anchor="middle" x="152.4" y="-1365" font-family="Times,serif" font-size="14.00">spec_proposals</text>
<text xml:space="preserve" text-anchor="middle" x="152.4" y="-1348.2" font-family="Times,serif" font-size="14.00">spec 提案文書群</text>
</g>
<!-- toolchain -->
<g id="node23" class="node">
<title>toolchain</title>
<polygon fill="#ffeeba" stroke="#e0a800" points="213.6,-1441.6 91.2,-1441.6 91.2,-1400 213.6,-1400 213.6,-1441.6"/>
<text xml:space="preserve" text-anchor="middle" x="152.4" y="-1425" font-family="Times,serif" font-size="14.00">toolchain</text>
<text xml:space="preserve" text-anchor="middle" x="152.4" y="-1408.2" font-family="Times,serif" font-size="14.00">ツールチェーン</text>
</g>
<!-- vscode_ext_debug_skill -->
<g id="node24" class="node">
<title>vscode_ext_debug_skill</title>
<polygon fill="#ffeeba" stroke="#e0a800" points="242.4,-1518 62.4,-1518 62.4,-1459.6 242.4,-1459.6 242.4,-1518"/>
<text xml:space="preserve" text-anchor="middle" x="152.4" y="-1501.4" font-family="Times,serif" font-size="14.00">vscode_ext_debug_skill</text>
<text xml:space="preserve" text-anchor="middle" x="152.4" y="-1484.6" font-family="Times,serif" font-size="14.00">VSCode拡張デバッ</text>
<text xml:space="preserve" text-anchor="middle" x="152.4" y="-1467.8" font-family="Times,serif" font-size="14.00">グスキル</text>
</g>
<!-- workflow_md -->
<g id="node25" class="node">
<title>workflow_md</title>
<polygon fill="#ffeeba" stroke="#e0a800" points="220.8,-1577.6 84,-1577.6 84,-1536 220.8,-1536 220.8,-1577.6"/>
<text xml:space="preserve" text-anchor="middle" x="152.4" y="-1561" font-family="Times,serif" font-size="14.00">workflow_md</text>
<text xml:space="preserve" text-anchor="middle" x="152.4" y="-1544.2" font-family="Times,serif" font-size="14.00">生態系 companion</text>
</g>
</g>
</svg>
