<?xml version="1.0" encoding="UTF-8" standalone="no"?>
<!DOCTYPE svg PUBLIC "-//W3C//DTD SVG 1.1//EN"
 "http://www.w3.org/Graphics/SVG/1.1/DTD/svg11.dtd">
<!-- Generated by graphviz version 15.0.0 (0)
 -->
<!-- Title: PFDSL Pages: 1 -->
<svg width="1440pt" height="982pt"
 viewBox="0.00 0.00 1440.00 982.00" xmlns="http://www.w3.org/2000/svg" xmlns:xlink="http://www.w3.org/1999/xlink">
<g id="graph0" class="graph" transform="scale(1 1) rotate(0) translate(4 978.19)">
<title>PFDSL</title>
<polygon fill="white" stroke="none" points="-4,4 -4,-978.19 1435.6,-978.19 1435.6,4 -4,4"/>
<text xml:space="preserve" text-anchor="middle" x="715.8" y="-957.59" font-family="Times,serif" font-size="14.00">コードベース監査改善（2026&#45;06） — diff</text>
<text xml:space="preserve" text-anchor="middle" x="715.8" y="-940.79" font-family="Times,serif" font-size="14.00">green = added · red = removed · yellow = changed</text>
<!-- add_advanced_samples -->
<g id="node1" class="node">
<title>add_advanced_samples</title>
<ellipse fill="#c3e6cb" stroke="#28a745" cx="277.57" cy="-891.3" rx="104.77" ry="41.3"/>
<text xml:space="preserve" text-anchor="middle" x="277.57" y="-903.9" font-family="Times,serif" font-size="14.00">add_advanced_samples</text>
<text xml:space="preserve" text-anchor="middle" x="277.57" y="-887.1" font-family="Times,serif" font-size="14.00">上級機能サンプル追</text>
<text xml:space="preserve" text-anchor="middle" x="277.57" y="-870.3" font-family="Times,serif" font-size="14.00">加</text>
</g>
<!-- advanced_samples -->
<g id="node4" class="node">
<title>advanced_samples</title>
<polygon fill="#c3e6cb" stroke="#28a745" points="957.34,-817.5 791.74,-817.5 791.74,-759.1 957.34,-759.1 957.34,-817.5"/>
<text xml:space="preserve" text-anchor="middle" x="874.54" y="-800.9" font-family="Times,serif" font-size="14.00">advanced_samples</text>
<text xml:space="preserve" text-anchor="middle" x="874.54" y="-784.1" font-family="Times,serif" font-size="14.00">subflow/extends/boun</text>
<text xml:space="preserve" text-anchor="middle" x="874.54" y="-767.3" font-family="Times,serif" font-size="14.00">dary サンプル</text>
</g>
<!-- add_advanced_samples&#45;&gt;advanced_samples -->
<g id="edge1" class="edge">
<title>add_advanced_samples&#45;&gt;advanced_samples</title>
<path fill="none" stroke="#28a745" d="M374.17,-874.75C485.95,-855.39 669.75,-823.57 780.45,-804.41"/>
<polygon fill="#28a745" stroke="#28a745" points="780.84,-807.89 790.1,-802.74 779.65,-801 780.84,-807.89"/>
</g>
<!-- add_parser_tests -->
<g id="node2" class="node">
<title>add_parser_tests</title>
<ellipse fill="#c3e6cb" stroke="#28a745" cx="277.57" cy="-790.3" rx="78.14" ry="41.3"/>
<text xml:space="preserve" text-anchor="middle" x="277.57" y="-802.9" font-family="Times,serif" font-size="14.00">add_parser_tests</text>
<text xml:space="preserve" text-anchor="middle" x="277.57" y="-786.1" font-family="Times,serif" font-size="14.00">パーサ負系テスト追</text>
<text xml:space="preserve" text-anchor="middle" x="277.57" y="-769.3" font-family="Times,serif" font-size="14.00">加</text>
</g>
<!-- parser_neg_tests -->
<g id="node19" class="node">
<title>parser_neg_tests</title>
<polygon fill="#c3e6cb" stroke="#28a745" points="562.35,-759.1 425.55,-759.1 425.55,-717.5 562.35,-717.5 562.35,-759.1"/>
<text xml:space="preserve" text-anchor="middle" x="493.95" y="-742.5" font-family="Times,serif" font-size="14.00">parser_neg_tests</text>
<text xml:space="preserve" text-anchor="middle" x="493.95" y="-725.7" font-family="Times,serif" font-size="14.00">パーサ負系テスト</text>
</g>
<!-- add_parser_tests&#45;&gt;parser_neg_tests -->
<g id="edge2" class="edge">
<title>add_parser_tests&#45;&gt;parser_neg_tests</title>
<path fill="none" stroke="#28a745" d="M349.07,-773.2C369.95,-768.13 392.96,-762.55 414.32,-757.37"/>
<polygon fill="#28a745" stroke="#28a745" points="414.97,-760.81 423.86,-755.05 413.32,-754.01 414.97,-760.81"/>
</g>
<!-- add_vscode_tests -->
<g id="node3" class="node">
<title>add_vscode_tests</title>
<ellipse fill="#c3e6cb" stroke="#28a745" cx="277.57" cy="-701.3" rx="80.6" ry="29.42"/>
<text xml:space="preserve" text-anchor="middle" x="277.57" y="-705.5" font-family="Times,serif" font-size="14.00">add_vscode_tests</text>
<text xml:space="preserve" text-anchor="middle" x="277.57" y="-688.7" font-family="Times,serif" font-size="14.00">拡張機能テスト追加</text>
</g>
<!-- vscode_test_coverage -->
<g id="node24" class="node">
<title>vscode_test_coverage</title>
<polygon fill="#c3e6cb" stroke="#28a745" points="957.34,-679.1 791.74,-679.1 791.74,-637.5 957.34,-637.5 957.34,-679.1"/>
<text xml:space="preserve" text-anchor="middle" x="874.54" y="-662.5" font-family="Times,serif" font-size="14.00">vscode_test_coverage</text>
<text xml:space="preserve" text-anchor="middle" x="874.54" y="-645.7" font-family="Times,serif" font-size="14.00">拡張機能テスト</text>
</g>
<!-- add_vscode_tests&#45;&gt;vscode_test_coverage -->
<g id="edge3" class="edge">
<title>add_vscode_tests&#45;&gt;vscode_test_coverage</title>
<path fill="none" stroke="#28a745" d="M356.97,-695.63C466.14,-687.74 663.65,-673.46 780.25,-665.04"/>
<polygon fill="#28a745" stroke="#28a745" points="780.4,-668.54 790.12,-664.32 779.89,-661.55 780.4,-668.54"/>
</g>
<!-- integrate_improvements -->
<g id="node15" class="node">
<title>integrate_improvements</title>
<ellipse fill="#c3e6cb" stroke="#28a745" cx="1100.87" cy="-438.3" rx="107.53" ry="29.42"/>
<text xml:space="preserve" text-anchor="middle" x="1100.87" y="-442.5" font-family="Times,serif" font-size="14.00">integrate_improvements</text>
<text xml:space="preserve" text-anchor="middle" x="1100.87" y="-425.7" font-family="Times,serif" font-size="14.00">改善統合</text>
</g>
<!-- advanced_samples&#45;&gt;integrate_improvements -->
<g id="edge4" class="edge">
<title>advanced_samples&#45;&gt;integrate_improvements</title>
<path fill="none" stroke="#28a745" d="M936.76,-758.84C944.24,-753.65 951.34,-747.8 957.34,-741.3 1029.46,-663.01 1071.33,-541.7 1089.32,-478.97"/>
<polygon fill="#28a745" stroke="#28a745" points="1092.67,-479.99 1092,-469.41 1085.93,-478.1 1092.67,-479.99"/>
</g>
<!-- ci_quality_gates -->
<g id="node5" class="node">
<title>ci_quality_gates</title>
<polygon fill="#c3e6cb" stroke="#28a745" points="749.04,-332.1 612.24,-332.1 612.24,-290.5 749.04,-290.5 749.04,-332.1"/>
<text xml:space="preserve" text-anchor="middle" x="680.64" y="-315.5" font-family="Times,serif" font-size="14.00">ci_quality_gates</text>
<text xml:space="preserve" text-anchor="middle" x="680.64" y="-298.7" font-family="Times,serif" font-size="14.00">CI 品質ゲート</text>
</g>
<!-- ci_quality_gates&#45;&gt;integrate_improvements -->
<g id="edge5" class="edge">
<title>ci_quality_gates&#45;&gt;integrate_improvements</title>
<path fill="none" stroke="#28a745" d="M749.37,-315.13C806.26,-319.99 888.98,-330.9 957.34,-355.3 990.72,-367.21 1025.15,-387.01 1051.8,-404.28"/>
<polygon fill="#28a745" stroke="#28a745" points="1049.72,-407.1 1059.99,-409.68 1053.57,-401.26 1049.72,-407.1"/>
</g>
<!-- cli_exitcode_docs -->
<g id="node6" class="node">
<title>cli_exitcode_docs</title>
<polygon fill="#c3e6cb" stroke="#28a745" points="946.54,-580.5 802.54,-580.5 802.54,-522.1 946.54,-522.1 946.54,-580.5"/>
<text xml:space="preserve" text-anchor="middle" x="874.54" y="-563.9" font-family="Times,serif" font-size="14.00">cli_exitcode_docs</text>
<text xml:space="preserve" text-anchor="middle" x="874.54" y="-547.1" font-family="Times,serif" font-size="14.00">CLI help</text>
<text xml:space="preserve" text-anchor="middle" x="874.54" y="-530.3" font-family="Times,serif" font-size="14.00">終了コード記載</text>
</g>
<!-- cli_exitcode_docs&#45;&gt;integrate_improvements -->
<g id="edge6" class="edge">
<title>cli_exitcode_docs&#45;&gt;integrate_improvements</title>
<path fill="none" stroke="#28a745" d="M934.48,-521.61C966.34,-505.56 1005.66,-485.75 1037.97,-469.48"/>
<polygon fill="#28a745" stroke="#28a745" points="1039.48,-472.63 1046.84,-465.01 1036.33,-466.38 1039.48,-472.63"/>
</g>
<!-- cli_io_robust -->
<g id="node7" class="node">
<title>cli_io_robust</title>
<polygon fill="#c3e6cb" stroke="#28a745" points="741.84,-523.1 619.44,-523.1 619.44,-481.5 741.84,-481.5 741.84,-523.1"/>
<text xml:space="preserve" text-anchor="middle" x="680.64" y="-506.5" font-family="Times,serif" font-size="14.00">cli_io_robust</text>
<text xml:space="preserve" text-anchor="middle" x="680.64" y="-489.7" font-family="Times,serif" font-size="14.00">CLI I/O 堅牢化</text>
</g>
<!-- cli_io_robust&#45;&gt;integrate_improvements -->
<g id="edge7" class="edge">
<title>cli_io_robust&#45;&gt;integrate_improvements</title>
<path fill="none" stroke="#28a745" d="M742.01,-493.06C808.12,-482.94 915.36,-466.53 995.23,-454.31"/>
<polygon fill="#28a745" stroke="#28a745" points="995.46,-457.81 1004.81,-452.84 994.4,-450.89 995.46,-457.81"/>
</g>
<!-- cli_tool -->
<g id="node8" class="node">
<title>cli_tool</title>
<polygon fill="#c3e6cb" stroke="#28a745" points="136.8,-455.1 0,-455.1 0,-413.5 136.8,-413.5 136.8,-455.1"/>
<text xml:space="preserve" text-anchor="middle" x="68.4" y="-438.5" font-family="Times,serif" font-size="14.00">cli_tool</text>
<text xml:space="preserve" text-anchor="middle" x="68.4" y="-421.7" font-family="Times,serif" font-size="14.00">現行コードベース</text>
</g>
<!-- cli_tool&#45;&gt;add_advanced_samples -->
<g id="edge8" class="edge">
<title>cli_tool&#45;&gt;add_advanced_samples</title>
<path fill="none" stroke="#28a745" d="M68.9,-455.54C68.49,-520.7 75.64,-720.56 172.8,-840.3 177.89,-846.56 183.94,-852.12 190.52,-857.04"/>
<polygon fill="#28a745" stroke="#28a745" points="188.31,-859.76 198.54,-862.5 192.25,-853.98 188.31,-859.76"/>
</g>
<!-- cli_tool&#45;&gt;add_parser_tests -->
<g id="edge9" class="edge">
<title>cli_tool&#45;&gt;add_parser_tests</title>
<path fill="none" stroke="#28a745" d="M71.07,-455.53C76.37,-509.39 97.18,-653.16 172.8,-739.3 180.81,-748.42 190.83,-756.08 201.46,-762.46"/>
<polygon fill="#28a745" stroke="#28a745" points="199.59,-765.42 210.03,-767.22 202.99,-759.31 199.59,-765.42"/>
</g>
<!-- cli_tool&#45;&gt;add_vscode_tests -->
<g id="edge10" class="edge">
<title>cli_tool&#45;&gt;add_vscode_tests</title>
<path fill="none" stroke="#28a745" d="M73.31,-455.38C82.61,-499.79 110.12,-603.64 172.8,-662.3 180.57,-669.57 189.83,-675.52 199.56,-680.38"/>
<polygon fill="#28a745" stroke="#28a745" points="197.91,-683.47 208.46,-684.43 200.81,-677.1 197.91,-683.47"/>
</g>
<!-- doc_cli_exitcodes -->
<g id="node9" class="node">
<title>doc_cli_exitcodes</title>
<ellipse fill="#c3e6cb" stroke="#28a745" cx="277.57" cy="-612.3" rx="82.79" ry="41.3"/>
<text xml:space="preserve" text-anchor="middle" x="277.57" y="-624.9" font-family="Times,serif" font-size="14.00">doc_cli_exitcodes</text>
<text xml:space="preserve" text-anchor="middle" x="277.57" y="-608.1" font-family="Times,serif" font-size="14.00">CLI help</text>
<text xml:space="preserve" text-anchor="middle" x="277.57" y="-591.3" font-family="Times,serif" font-size="14.00">終了コード追記</text>
</g>
<!-- cli_tool&#45;&gt;doc_cli_exitcodes -->
<g id="edge11" class="edge">
<title>cli_tool&#45;&gt;doc_cli_exitcodes</title>
<path fill="none" stroke="#28a745" d="M82.51,-455.56C100.23,-482.89 134.09,-530.49 172.8,-561.3 181.91,-568.54 192.21,-575.12 202.7,-580.96"/>
<polygon fill="#28a745" stroke="#28a745" points="200.98,-584.01 211.45,-585.63 204.27,-577.83 200.98,-584.01"/>
</g>
<!-- extract_meta_resolver -->
<g id="node10" class="node">
<title>extract_meta_resolver</title>
<ellipse fill="#c3e6cb" stroke="#28a745" cx="277.57" cy="-434.3" rx="99.26" ry="41.3"/>
<text xml:space="preserve" text-anchor="middle" x="277.57" y="-446.9" font-family="Times,serif" font-size="14.00">extract_meta_resolver</text>
<text xml:space="preserve" text-anchor="middle" x="277.57" y="-430.1" font-family="Times,serif" font-size="14.00">メタデータ resolver</text>
<text xml:space="preserve" text-anchor="middle" x="277.57" y="-413.3" font-family="Times,serif" font-size="14.00">抽出</text>
</g>
<!-- cli_tool&#45;&gt;extract_meta_resolver -->
<g id="edge12" class="edge">
<title>cli_tool&#45;&gt;extract_meta_resolver</title>
<path fill="none" stroke="#28a745" d="M137.24,-434.3C146.75,-434.3 156.73,-434.3 166.78,-434.3"/>
<polygon fill="#28a745" stroke="#28a745" points="166.64,-437.8 176.64,-434.3 166.64,-430.8 166.64,-437.8"/>
</g>
<!-- fix_cli_io -->
<g id="node12" class="node">
<title>fix_cli_io</title>
<ellipse fill="#c3e6cb" stroke="#28a745" cx="277.57" cy="-523.3" rx="87.73" ry="29.42"/>
<text xml:space="preserve" text-anchor="middle" x="277.57" y="-527.5" font-family="Times,serif" font-size="14.00">fix_cli_io</text>
<text xml:space="preserve" text-anchor="middle" x="277.57" y="-510.7" font-family="Times,serif" font-size="14.00">CLI I/O graceful 化</text>
</g>
<!-- cli_tool&#45;&gt;fix_cli_io -->
<g id="edge13" class="edge">
<title>cli_tool&#45;&gt;fix_cli_io</title>
<path fill="none" stroke="#28a745" d="M110.76,-455.36C129.52,-464.64 152.09,-475.42 172.8,-484.3 183.46,-488.86 194.85,-493.44 206.03,-497.77"/>
<polygon fill="#28a745" stroke="#28a745" points="204.66,-500.99 215.25,-501.3 207.16,-494.46 204.66,-500.99"/>
</g>
<!-- gate_ci_quality -->
<g id="node13" class="node">
<title>gate_ci_quality</title>
<ellipse fill="#c3e6cb" stroke="#28a745" cx="277.57" cy="-308.3" rx="72.34" ry="29.42"/>
<text xml:space="preserve" text-anchor="middle" x="277.57" y="-312.5" font-family="Times,serif" font-size="14.00">gate_ci_quality</text>
<text xml:space="preserve" text-anchor="middle" x="277.57" y="-295.7" font-family="Times,serif" font-size="14.00">CI ゲート追加</text>
</g>
<!-- cli_tool&#45;&gt;gate_ci_quality -->
<g id="edge14" class="edge">
<title>cli_tool&#45;&gt;gate_ci_quality</title>
<path fill="none" stroke="#28a745" d="M91.82,-413.16C111.89,-395.04 142.69,-369.12 172.8,-351.3 184.92,-344.12 198.45,-337.57 211.64,-331.87"/>
<polygon fill="#28a745" stroke="#28a745" points="212.85,-335.16 220.72,-328.07 210.14,-328.7 212.85,-335.16"/>
</g>
<!-- nonmutate_parse -->
<g id="node17" class="node">
<title>nonmutate_parse</title>
<ellipse fill="#c3e6cb" stroke="#28a745" cx="277.57" cy="-231.3" rx="78.94" ry="29.42"/>
<text xml:space="preserve" text-anchor="middle" x="277.57" y="-235.5" font-family="Times,serif" font-size="14.00">nonmutate_parse</text>
<text xml:space="preserve" text-anchor="middle" x="277.57" y="-218.7" font-family="Times,serif" font-size="14.00">parse() 非破壊化</text>
</g>
<!-- cli_tool&#45;&gt;nonmutate_parse -->
<g id="edge15" class="edge">
<title>cli_tool&#45;&gt;nonmutate_parse</title>
<path fill="none" stroke="#28a745" d="M77.48,-413.09C91.68,-378.5 124.27,-309.85 172.8,-270.3 181.42,-263.27 191.42,-257.43 201.76,-252.6"/>
<polygon fill="#28a745" stroke="#28a745" points="202.99,-255.88 210.78,-248.7 200.21,-249.46 202.99,-255.88"/>
</g>
<!-- split_large_files -->
<g id="node22" class="node">
<title>split_large_files</title>
<ellipse fill="#c3e6cb" stroke="#28a745" cx="680.64" cy="-381.3" rx="75.09" ry="29.42"/>
<text xml:space="preserve" text-anchor="middle" x="680.64" y="-385.5" font-family="Times,serif" font-size="14.00">split_large_files</text>
<text xml:space="preserve" text-anchor="middle" x="680.64" y="-368.7" font-family="Times,serif" font-size="14.00">巨大ファイル分割</text>
</g>
<!-- cli_tool&#45;&gt;split_large_files -->
<g id="edge16" class="edge">
<title>cli_tool&#45;&gt;split_large_files</title>
<path fill="none" stroke="#28a745" d="M103.38,-413.11C122.9,-402.18 148.33,-389.98 172.8,-384.3 319.3,-350.28 496.1,-360.34 597.44,-370.8"/>
<polygon fill="#28a745" stroke="#28a745" points="597,-374.27 607.31,-371.84 597.74,-367.31 597,-374.27"/>
</g>
<!-- tidy_pkg_metadata -->
<g id="node23" class="node">
<title>tidy_pkg_metadata</title>
<ellipse fill="#c3e6cb" stroke="#28a745" cx="277.57" cy="-142.3" rx="87.19" ry="41.3"/>
<text xml:space="preserve" text-anchor="middle" x="277.57" y="-154.9" font-family="Times,serif" font-size="14.00">tidy_pkg_metadata</text>
<text xml:space="preserve" text-anchor="middle" x="277.57" y="-138.1" font-family="Times,serif" font-size="14.00">パッケージメタデー</text>
<text xml:space="preserve" text-anchor="middle" x="277.57" y="-121.3" font-family="Times,serif" font-size="14.00">タ整備</text>
</g>
<!-- cli_tool&#45;&gt;tidy_pkg_metadata -->
<g id="edge17" class="edge">
<title>cli_tool&#45;&gt;tidy_pkg_metadata</title>
<path fill="none" stroke="#28a745" d="M73.29,-413.2C82.67,-367.63 110.56,-258.82 172.8,-193.3 180.08,-185.62 188.77,-178.95 197.96,-173.19"/>
<polygon fill="#28a745" stroke="#28a745" points="199.52,-176.34 206.39,-168.27 195.99,-170.29 199.52,-176.34"/>
</g>
<!-- write_pkg_docs -->
<g id="node25" class="node">
<title>write_pkg_docs</title>
<ellipse fill="#c3e6cb" stroke="#28a745" cx="277.57" cy="-41.3" rx="99.31" ry="41.3"/>
<text xml:space="preserve" text-anchor="middle" x="277.57" y="-53.9" font-family="Times,serif" font-size="14.00">write_pkg_docs</text>
<text xml:space="preserve" text-anchor="middle" x="277.57" y="-37.1" font-family="Times,serif" font-size="14.00">README/CONTRIB</text>
<text xml:space="preserve" text-anchor="middle" x="277.57" y="-20.3" font-family="Times,serif" font-size="14.00">UTING 執筆</text>
</g>
<!-- cli_tool&#45;&gt;write_pkg_docs -->
<g id="edge18" class="edge">
<title>cli_tool&#45;&gt;write_pkg_docs</title>
<path fill="none" stroke="#28a745" d="M70.14,-413.11C73.23,-354.95 89.31,-190.66 172.8,-92.3 178.46,-85.62 185.21,-79.74 192.5,-74.58"/>
<polygon fill="#28a745" stroke="#28a745" points="194.24,-77.63 200.72,-69.25 190.43,-71.76 194.24,-77.63"/>
</g>
<!-- doc_cli_exitcodes&#45;&gt;cli_exitcode_docs -->
<g id="edge19" class="edge">
<title>doc_cli_exitcodes&#45;&gt;cli_exitcode_docs</title>
<path fill="none" stroke="#28a745" d="M359.12,-604.04C472.07,-592.46 676.44,-571.5 790.64,-559.79"/>
<polygon fill="#28a745" stroke="#28a745" points="790.98,-563.28 800.57,-558.78 790.27,-556.31 790.98,-563.28"/>
</g>
<!-- meta_resolver -->
<g id="node16" class="node">
<title>meta_resolver</title>
<polygon fill="#c3e6cb" stroke="#28a745" points="555.15,-463.5 432.75,-463.5 432.75,-405.1 555.15,-405.1 555.15,-463.5"/>
<text xml:space="preserve" text-anchor="middle" x="493.95" y="-446.9" font-family="Times,serif" font-size="14.00">meta_resolver</text>
<text xml:space="preserve" text-anchor="middle" x="493.95" y="-430.1" font-family="Times,serif" font-size="14.00">メタデータ共通</text>
<text xml:space="preserve" text-anchor="middle" x="493.95" y="-413.3" font-family="Times,serif" font-size="14.00">resolver</text>
</g>
<!-- extract_meta_resolver&#45;&gt;meta_resolver -->
<g id="edge20" class="edge">
<title>extract_meta_resolver&#45;&gt;meta_resolver</title>
<path fill="none" stroke="#28a745" d="M377.29,-434.3C392.12,-434.3 407.16,-434.3 421.28,-434.3"/>
<polygon fill="#28a745" stroke="#28a745" points="420.87,-437.8 430.87,-434.3 420.87,-430.8 420.87,-437.8"/>
</g>
<!-- files_split -->
<g id="node11" class="node">
<title>files_split</title>
<polygon fill="#c3e6cb" stroke="#28a745" points="942.94,-406.1 806.14,-406.1 806.14,-364.5 942.94,-364.5 942.94,-406.1"/>
<text xml:space="preserve" text-anchor="middle" x="874.54" y="-389.5" font-family="Times,serif" font-size="14.00">files_split</text>
<text xml:space="preserve" text-anchor="middle" x="874.54" y="-372.7" font-family="Times,serif" font-size="14.00">巨大ファイル分割</text>
</g>
<!-- files_split&#45;&gt;integrate_improvements -->
<g id="edge21" class="edge">
<title>files_split&#45;&gt;integrate_improvements</title>
<path fill="none" stroke="#28a745" d="M943.15,-401.27C963.36,-406.04 985.88,-411.36 1007.4,-416.45"/>
<polygon fill="#28a745" stroke="#28a745" points="1006.54,-419.84 1017.07,-418.73 1008.15,-413.03 1006.54,-419.84"/>
</g>
<!-- fix_cli_io&#45;&gt;cli_io_robust -->
<g id="edge22" class="edge">
<title>fix_cli_io&#45;&gt;cli_io_robust</title>
<path fill="none" stroke="#28a745" d="M364.61,-518.79C437.07,-515 539.51,-509.63 607.68,-506.06"/>
<polygon fill="#28a745" stroke="#28a745" points="607.84,-509.56 617.64,-505.54 607.48,-502.57 607.84,-509.56"/>
</g>
<!-- gate_ci_quality&#45;&gt;ci_quality_gates -->
<g id="edge23" class="edge">
<title>gate_ci_quality&#45;&gt;ci_quality_gates</title>
<path fill="none" stroke="#28a745" d="M350.28,-308.83C420.64,-309.36 527.7,-310.16 600.52,-310.7"/>
<polygon fill="#28a745" stroke="#28a745" points="600.36,-314.2 610.39,-310.78 600.41,-307.2 600.36,-314.2"/>
</g>
<!-- i198_audit_improvements -->
<g id="node14" class="node">
<title>i198_audit_improvements</title>
<polygon fill="#c3e6cb" stroke="#28a745" points="1431.6,-459.1 1244.4,-459.1 1244.4,-417.5 1431.6,-417.5 1431.6,-459.1"/>
<text xml:space="preserve" text-anchor="middle" x="1338" y="-442.5" font-family="Times,serif" font-size="14.00">i198_audit_improvements</text>
<text xml:space="preserve" text-anchor="middle" x="1338" y="-425.7" font-family="Times,serif" font-size="14.00">監査改善の反映</text>
</g>
<!-- integrate_improvements&#45;&gt;i198_audit_improvements -->
<g id="edge24" class="edge">
<title>integrate_improvements&#45;&gt;i198_audit_improvements</title>
<path fill="none" stroke="#28a745" d="M1208.77,-438.3C1216.67,-438.3 1224.64,-438.3 1232.54,-438.3"/>
<polygon fill="#28a745" stroke="#28a745" points="1232.51,-441.8 1242.51,-438.3 1232.51,-434.8 1232.51,-441.8"/>
</g>
<!-- meta_resolver&#45;&gt;integrate_improvements -->
<g id="edge25" class="edge">
<title>meta_resolver&#45;&gt;integrate_improvements</title>
<path fill="none" stroke="#28a745" d="M555.44,-434.7C654.63,-435.35 853.6,-436.67 981.56,-437.51"/>
<polygon fill="#28a745" stroke="#28a745" points="981.41,-441.01 991.44,-437.58 981.46,-434.01 981.41,-441.01"/>
</g>
<!-- meta_resolver&#45;&gt;split_large_files -->
<g id="edge26" class="edge">
<title>meta_resolver&#45;&gt;split_large_files</title>
<path fill="none" stroke="#28a745" d="M555.42,-416.94C572.41,-412.07 591.04,-406.72 608.59,-401.69"/>
<polygon fill="#28a745" stroke="#28a745" points="609.25,-405.14 617.89,-399.02 607.31,-398.41 609.25,-405.14"/>
</g>
<!-- parse_immutable -->
<g id="node18" class="node">
<title>parse_immutable</title>
<polygon fill="#c3e6cb" stroke="#28a745" points="562.35,-272.1 425.55,-272.1 425.55,-230.5 562.35,-230.5 562.35,-272.1"/>
<text xml:space="preserve" text-anchor="middle" x="493.95" y="-255.5" font-family="Times,serif" font-size="14.00">parse_immutable</text>
<text xml:space="preserve" text-anchor="middle" x="493.95" y="-238.7" font-family="Times,serif" font-size="14.00">parse() 非破壊化</text>
</g>
<!-- nonmutate_parse&#45;&gt;parse_immutable -->
<g id="edge27" class="edge">
<title>nonmutate_parse&#45;&gt;parse_immutable</title>
<path fill="none" stroke="#28a745" d="M354.46,-238.37C373.79,-240.18 394.61,-242.12 414.09,-243.94"/>
<polygon fill="#28a745" stroke="#28a745" points="413.59,-247.41 423.87,-244.85 414.24,-240.44 413.59,-247.41"/>
</g>
<!-- parse_immutable&#45;&gt;integrate_improvements -->
<g id="edge28" class="edge">
<title>parse_immutable&#45;&gt;integrate_improvements</title>
<path fill="none" stroke="#28a745" d="M562.78,-248.59C656.17,-247.51 827.51,-255.19 957.34,-316.3 1000.2,-336.47 1040.37,-373.1 1067.07,-400.98"/>
<polygon fill="#28a745" stroke="#28a745" points="1064.47,-403.33 1073.87,-408.22 1069.57,-398.54 1064.47,-403.33"/>
</g>
<!-- parser_neg_tests&#45;&gt;integrate_improvements -->
<g id="edge29" class="edge">
<title>parser_neg_tests&#45;&gt;integrate_improvements</title>
<path fill="none" stroke="#28a745" d="M562.47,-748.95C658.55,-760.4 836.46,-767.52 957.34,-688.3 1032.36,-639.13 1072.25,-535.97 1089.39,-478.73"/>
<polygon fill="#28a745" stroke="#28a745" points="1092.68,-479.95 1092.1,-469.37 1085.96,-478.01 1092.68,-479.95"/>
</g>
<!-- pkg_docs -->
<g id="node20" class="node">
<title>pkg_docs</title>
<polygon fill="#c3e6cb" stroke="#28a745" points="750.87,-138.9 610.42,-138.9 610.42,-63.7 750.87,-63.7 750.87,-138.9"/>
<text xml:space="preserve" text-anchor="middle" x="680.64" y="-122.3" font-family="Times,serif" font-size="14.00">pkg_docs</text>
<text xml:space="preserve" text-anchor="middle" x="680.64" y="-105.5" font-family="Times,serif" font-size="14.00">パッケージ</text>
<text xml:space="preserve" text-anchor="middle" x="680.64" y="-88.7" font-family="Times,serif" font-size="14.00">README/CONTRIB</text>
<text xml:space="preserve" text-anchor="middle" x="680.64" y="-71.9" font-family="Times,serif" font-size="14.00">UTING</text>
</g>
<!-- pkg_docs&#45;&gt;integrate_improvements -->
<g id="edge30" class="edge">
<title>pkg_docs&#45;&gt;integrate_improvements</title>
<path fill="none" stroke="#28a745" d="M751.2,-108.57C811.37,-117.98 897.81,-139.31 957.34,-187.3 1026.69,-243.19 1068.45,-342.48 1087.5,-397.95"/>
<polygon fill="#28a745" stroke="#28a745" points="1084.14,-398.95 1090.63,-407.33 1090.78,-396.73 1084.14,-398.95"/>
</g>
<!-- pkg_metadata -->
<g id="node21" class="node">
<title>pkg_metadata</title>
<polygon fill="#c3e6cb" stroke="#28a745" points="569.55,-189.5 418.35,-189.5 418.35,-131.1 569.55,-131.1 569.55,-189.5"/>
<text xml:space="preserve" text-anchor="middle" x="493.95" y="-172.9" font-family="Times,serif" font-size="14.00">pkg_metadata</text>
<text xml:space="preserve" text-anchor="middle" x="493.95" y="-156.1" font-family="Times,serif" font-size="14.00">パッケージメタデー</text>
<text xml:space="preserve" text-anchor="middle" x="493.95" y="-139.3" font-family="Times,serif" font-size="14.00">タ整備</text>
</g>
<!-- pkg_metadata&#45;&gt;integrate_improvements -->
<g id="edge31" class="edge">
<title>pkg_metadata&#45;&gt;integrate_improvements</title>
<path fill="none" stroke="#28a745" d="M569.84,-161.86C666.27,-167.05 835.84,-187.2 957.34,-262.3 1011.91,-296.03 1054.82,-358.26 1078.76,-398.96"/>
<polygon fill="#28a745" stroke="#28a745" points="1075.66,-400.58 1083.68,-407.5 1081.72,-397.09 1075.66,-400.58"/>
</g>
<!-- split_large_files&#45;&gt;files_split -->
<g id="edge32" class="edge">
<title>split_large_files&#45;&gt;files_split</title>
<path fill="none" stroke="#28a745" d="M756.11,-382.85C768.61,-383.11 781.63,-383.38 794.25,-383.64"/>
<polygon fill="#28a745" stroke="#28a745" points="794.11,-387.14 804.18,-383.85 794.26,-380.14 794.11,-387.14"/>
</g>
<!-- tidy_pkg_metadata&#45;&gt;pkg_metadata -->
<g id="edge33" class="edge">
<title>tidy_pkg_metadata&#45;&gt;pkg_metadata</title>
<path fill="none" stroke="#28a745" d="M363.92,-149.46C378.01,-150.64 392.64,-151.87 406.75,-153.06"/>
<polygon fill="#28a745" stroke="#28a745" points="406.18,-156.52 416.44,-153.87 406.77,-149.55 406.18,-156.52"/>
</g>
<!-- vscode_test_coverage&#45;&gt;integrate_improvements -->
<g id="edge34" class="edge">
<title>vscode_test_coverage&#45;&gt;integrate_improvements</title>
<path fill="none" stroke="#28a745" d="M901.98,-637.27C918.33,-623.96 939.52,-606.15 957.34,-589.3 996.6,-552.16 1038.75,-506.74 1066.95,-475.47"/>
<polygon fill="#28a745" stroke="#28a745" points="1069.43,-477.95 1073.51,-468.17 1064.22,-473.27 1069.43,-477.95"/>
</g>
<!-- write_pkg_docs&#45;&gt;pkg_docs -->
<g id="edge35" class="edge">
<title>write_pkg_docs&#45;&gt;pkg_docs</title>
<path fill="none" stroke="#28a745" d="M371.6,-55.21C440.39,-65.5 533.16,-79.38 598.86,-89.21"/>
<polygon fill="#28a745" stroke="#28a745" points="598.08,-92.63 608.49,-90.65 599.11,-85.71 598.08,-92.63"/>
</g>
</g>
</svg>
