<?xml version="1.0" encoding="UTF-8" standalone="no"?>
<!DOCTYPE svg PUBLIC "-//W3C//DTD SVG 1.1//EN"
 "http://www.w3.org/Graphics/SVG/1.1/DTD/svg11.dtd">
<!-- Generated by graphviz version 15.0.0 (0)
 -->
<!-- Title: PFDSL Pages: 1 -->
<svg width="810pt" height="91pt"
 viewBox="0.00 0.00 810.00 91.00" xmlns="http://www.w3.org/2000/svg" xmlns:xlink="http://www.w3.org/1999/xlink">
<g id="graph0" class="graph" transform="scale(1 1) rotate(0) translate(4 87.2)">
<title>PFDSL</title>
<polygon fill="white" stroke="none" points="-4,4 -4,-87.2 805.71,-87.2 805.71,4 -4,4"/>
<text xml:space="preserve" text-anchor="middle" x="400.86" y="-66.6" font-family="Times,serif" font-size="14.00">diff</text>
<text xml:space="preserve" text-anchor="middle" x="400.86" y="-49.8" font-family="Times,serif" font-size="14.00">green = added · red = removed · yellow = changed</text>
<!-- pack -->
<g id="node1" class="node">
<title>pack</title>
<ellipse fill="#c3e6cb" stroke="#28a745" cx="428.5" cy="-20.8" rx="29.27" ry="18"/>
<text xml:space="preserve" text-anchor="middle" x="428.5" y="-16.6" font-family="Times,serif" font-size="14.00">pack</text>
</g>
<!-- packed_box -->
<g id="node2" class="node">
<title>packed_box</title>
<polygon fill="#c3e6cb" stroke="#28a745" points="577.41,-41.6 493.76,-41.6 493.76,0 577.41,0 577.41,-41.6"/>
<text xml:space="preserve" text-anchor="middle" x="535.59" y="-25" font-family="Times,serif" font-size="14.00">packed_box</text>
<text xml:space="preserve" text-anchor="middle" x="535.59" y="-8.2" font-family="Times,serif" font-size="14.00">Packed Box</text>
</g>
<!-- pack&#45;&gt;packed_box -->
<g id="edge1" class="edge">
<title>pack&#45;&gt;packed_box</title>
<path fill="none" stroke="#28a745" d="M458.21,-20.8C465.57,-20.8 473.71,-20.8 481.86,-20.8"/>
<polygon fill="#28a745" stroke="#28a745" points="481.78,-24.3 491.78,-20.8 481.78,-17.3 481.78,-24.3"/>
</g>
<!-- ship -->
<g id="node6" class="node">
<title>ship</title>
<ellipse fill="#c3e6cb" stroke="#28a745" cx="640.54" cy="-20.8" rx="27.13" ry="18"/>
<text xml:space="preserve" text-anchor="middle" x="640.54" y="-16.6" font-family="Times,serif" font-size="14.00">ship</text>
</g>
<!-- packed_box&#45;&gt;ship -->
<g id="edge2" class="edge">
<title>packed_box&#45;&gt;ship</title>
<path fill="none" stroke="#28a745" d="M577.87,-20.8C585.74,-20.8 593.95,-20.8 601.71,-20.8"/>
<polygon fill="#28a745" stroke="#28a745" points="601.53,-24.3 611.53,-20.8 601.53,-17.3 601.53,-24.3"/>
</g>
<!-- pick_items -->
<g id="node3" class="node">
<title>pick_items</title>
<ellipse fill="#c3e6cb" stroke="#28a745" cx="183.17" cy="-20.8" rx="53.41" ry="18"/>
<text xml:space="preserve" text-anchor="middle" x="183.17" y="-16.6" font-family="Times,serif" font-size="14.00">pick_items</text>
</g>
<!-- picked_items -->
<g id="node4" class="node">
<title>picked_items</title>
<polygon fill="#c3e6cb" stroke="#28a745" points="363.23,-41.6 272.58,-41.6 272.58,0 363.23,0 363.23,-41.6"/>
<text xml:space="preserve" text-anchor="middle" x="317.91" y="-25" font-family="Times,serif" font-size="14.00">picked_items</text>
<text xml:space="preserve" text-anchor="middle" x="317.91" y="-8.2" font-family="Times,serif" font-size="14.00">Picked Items</text>
</g>
<!-- pick_items&#45;&gt;picked_items -->
<g id="edge3" class="edge">
<title>pick_items&#45;&gt;picked_items</title>
<path fill="none" stroke="#28a745" d="M237.01,-20.8C244.88,-20.8 253.02,-20.8 260.95,-20.8"/>
<polygon fill="#28a745" stroke="#28a745" points="260.85,-24.3 270.85,-20.8 260.85,-17.3 260.85,-24.3"/>
</g>
<!-- picked_items&#45;&gt;pack -->
<g id="edge4" class="edge">
<title>picked_items&#45;&gt;pack</title>
<path fill="none" stroke="#28a745" d="M363.7,-20.8C371.62,-20.8 379.81,-20.8 387.58,-20.8"/>
<polygon fill="#28a745" stroke="#28a745" points="387.44,-24.3 397.44,-20.8 387.44,-17.3 387.44,-24.3"/>
</g>
<!-- requirement -->
<g id="node5" class="node">
<title>requirement</title>
<polygon fill="#c3e6cb" stroke="#28a745" points="93.76,-41.6 0,-41.6 0,0 93.76,0 93.76,-41.6"/>
<text xml:space="preserve" text-anchor="middle" x="46.88" y="-25" font-family="Times,serif" font-size="14.00">requirement</text>
<text xml:space="preserve" text-anchor="middle" x="46.88" y="-8.2" font-family="Times,serif" font-size="14.00">Requirements</text>
</g>
<!-- requirement&#45;&gt;pick_items -->
<g id="edge5" class="edge">
<title>requirement&#45;&gt;pick_items</title>
<path fill="none" stroke="#28a745" d="M94.1,-20.8C101.83,-20.8 109.98,-20.8 118.07,-20.8"/>
<polygon fill="#28a745" stroke="#28a745" points="117.9,-24.3 127.9,-20.8 117.9,-17.3 117.9,-24.3"/>
</g>
<!-- shipped_order -->
<g id="node7" class="node">
<title>shipped_order</title>
<polygon fill="#c3e6cb" stroke="#28a745" points="801.71,-41.6 703.68,-41.6 703.68,0 801.71,0 801.71,-41.6"/>
<text xml:space="preserve" text-anchor="middle" x="752.69" y="-25" font-family="Times,serif" font-size="14.00">shipped_order</text>
<text xml:space="preserve" text-anchor="middle" x="752.69" y="-8.2" font-family="Times,serif" font-size="14.00">Shipped Order</text>
</g>
<!-- ship&#45;&gt;shipped_order -->
<g id="edge6" class="edge">
<title>ship&#45;&gt;shipped_order</title>
<path fill="none" stroke="#28a745" d="M667.93,-20.8C675.36,-20.8 683.76,-20.8 692.31,-20.8"/>
<polygon fill="#28a745" stroke="#28a745" points="692.03,-24.3 702.03,-20.8 692.03,-17.3 692.03,-24.3"/>
</g>
</g>
</svg>
