<?xml version="1.0" encoding="UTF-8" standalone="no"?>
<!DOCTYPE svg PUBLIC "-//W3C//DTD SVG 1.1//EN"
 "http://www.w3.org/Graphics/SVG/1.1/DTD/svg11.dtd">
<!-- Generated by graphviz version 15.0.0 (0)
 -->
<!-- Title: PFDSL Pages: 1 -->
<svg width="435pt" height="108pt"
 viewBox="0.00 0.00 435.00 108.00" xmlns="http://www.w3.org/2000/svg" xmlns:xlink="http://www.w3.org/1999/xlink">
<g id="graph0" class="graph" transform="scale(1 1) rotate(0) translate(4 104.43)">
<title>PFDSL</title>
<polygon fill="white" stroke="none" points="-4,4 -4,-104.43 430.64,-104.43 430.64,4 -4,4"/>
<text xml:space="preserve" text-anchor="middle" x="213.32" y="-83.83" font-family="Times,serif" font-size="14.00">diff</text>
<text xml:space="preserve" text-anchor="middle" x="213.32" y="-67.03" font-family="Times,serif" font-size="14.00">green = added · red = removed · yellow = changed</text>
<!-- fulfill_order -->
<g id="node1" class="node">
<title>fulfill_order</title>
<ellipse fill="#c3e6cb" stroke="#28a745" cx="211.18" cy="-29.42" rx="81.42" ry="29.42"/>
<text xml:space="preserve" text-anchor="middle" x="211.18" y="-33.62" font-family="Times,serif" font-size="14.00">fulfill_order</text>
<text xml:space="preserve" text-anchor="middle" x="211.18" y="-16.82" font-family="Times,serif" font-size="14.00">Order Fulfillment</text>
</g>
<!-- shipped_order -->
<g id="node3" class="node">
<title>shipped_order</title>
<polygon fill="#c3e6cb" stroke="#28a745" points="426.64,-50.22 328.6,-50.22 328.6,-8.62 426.64,-8.62 426.64,-50.22"/>
<text xml:space="preserve" text-anchor="middle" x="377.62" y="-33.62" font-family="Times,serif" font-size="14.00">shipped_order</text>
<text xml:space="preserve" text-anchor="middle" x="377.62" y="-16.82" font-family="Times,serif" font-size="14.00">Shipped Order</text>
</g>
<!-- fulfill_order&#45;&gt;shipped_order -->
<g id="edge1" class="edge">
<title>fulfill_order&#45;&gt;shipped_order</title>
<path fill="none" stroke="#28a745" d="M292.96,-29.42C300.94,-29.42 308.94,-29.42 316.66,-29.42"/>
<polygon fill="#28a745" stroke="#28a745" points="316.6,-32.92 326.6,-29.42 316.6,-25.92 316.6,-32.92"/>
</g>
<!-- requirement -->
<g id="node2" class="node">
<title>requirement</title>
<polygon fill="#c3e6cb" stroke="#28a745" points="93.76,-50.22 0,-50.22 0,-8.62 93.76,-8.62 93.76,-50.22"/>
<text xml:space="preserve" text-anchor="middle" x="46.88" y="-33.62" font-family="Times,serif" font-size="14.00">requirement</text>
<text xml:space="preserve" text-anchor="middle" x="46.88" y="-16.82" font-family="Times,serif" font-size="14.00">Requirements</text>
</g>
<!-- requirement&#45;&gt;fulfill_order -->
<g id="edge2" class="edge">
<title>requirement&#45;&gt;fulfill_order</title>
<path fill="none" stroke="#28a745" d="M93.95,-29.42C101.56,-29.42 109.67,-29.42 117.94,-29.42"/>
<polygon fill="#28a745" stroke="#28a745" points="117.76,-32.92 127.76,-29.42 117.76,-25.92 117.76,-32.92"/>
</g>
</g>
</svg>
