<?xml version="1.0" encoding="UTF-8" standalone="no"?>
<!DOCTYPE svg PUBLIC "-//W3C//DTD SVG 1.1//EN"
 "http://www.w3.org/Graphics/SVG/1.1/DTD/svg11.dtd">
<!-- Generated by graphviz version 15.0.0 (0)
 -->
<!-- Title: PFDSL Pages: 1 -->
<svg width="568pt" height="91pt"
 viewBox="0.00 0.00 568.00 91.00" xmlns="http://www.w3.org/2000/svg" xmlns:xlink="http://www.w3.org/1999/xlink">
<g id="graph0" class="graph" transform="scale(1 1) rotate(0) translate(4 87.2)">
<title>PFDSL</title>
<polygon fill="white" stroke="none" points="-4,4 -4,-87.2 563.74,-87.2 563.74,4 -4,4"/>
<text xml:space="preserve" text-anchor="middle" x="279.87" y="-66.6" font-family="Times,serif" font-size="14.00">diff</text>
<text xml:space="preserve" text-anchor="middle" x="279.87" y="-49.8" font-family="Times,serif" font-size="14.00">green = added · red = removed · yellow = changed</text>
<!-- incoming_order -->
<g id="node1" class="node">
<title>incoming_order</title>
<polygon fill="#c3e6cb" stroke="#28a745" points="105.8,-41.6 0,-41.6 0,0 105.8,0 105.8,-41.6"/>
<text xml:space="preserve" text-anchor="middle" x="52.9" y="-25" font-family="Times,serif" font-size="14.00">incoming_order</text>
<text xml:space="preserve" text-anchor="middle" x="52.9" y="-8.2" font-family="Times,serif" font-size="14.00">Incoming Order</text>
</g>
<!-- pick -->
<g id="node4" class="node">
<title>pick</title>
<ellipse fill="#c3e6cb" stroke="#28a745" cx="169.47" cy="-20.8" rx="27.66" ry="18"/>
<text xml:space="preserve" text-anchor="middle" x="169.47" y="-16.6" font-family="Times,serif" font-size="14.00">pick</text>
</g>
<!-- incoming_order&#45;&gt;pick -->
<g id="edge1" class="edge">
<title>incoming_order&#45;&gt;pick</title>
<path fill="none" stroke="#28a745" d="M106.16,-20.8C114.13,-20.8 122.24,-20.8 129.86,-20.8"/>
<polygon fill="#28a745" stroke="#28a745" points="129.81,-24.3 139.81,-20.8 129.81,-17.3 129.81,-24.3"/>
</g>
<!-- outgoing_parcel -->
<g id="node2" class="node">
<title>outgoing_parcel</title>
<polygon fill="#c3e6cb" stroke="#28a745" points="559.74,-41.6 452.37,-41.6 452.37,0 559.74,0 559.74,-41.6"/>
<text xml:space="preserve" text-anchor="middle" x="506.05" y="-25" font-family="Times,serif" font-size="14.00">outgoing_parcel</text>
<text xml:space="preserve" text-anchor="middle" x="506.05" y="-8.2" font-family="Times,serif" font-size="14.00">Outgoing Parcel</text>
</g>
<!-- pack -->
<g id="node3" class="node">
<title>pack</title>
<ellipse fill="#c3e6cb" stroke="#28a745" cx="387.1" cy="-20.8" rx="29.27" ry="18"/>
<text xml:space="preserve" text-anchor="middle" x="387.1" y="-16.6" font-family="Times,serif" font-size="14.00">pack</text>
</g>
<!-- pack&#45;&gt;outgoing_parcel -->
<g id="edge2" class="edge">
<title>pack&#45;&gt;outgoing_parcel</title>
<path fill="none" stroke="#28a745" d="M416.71,-20.8C424.06,-20.8 432.26,-20.8 440.63,-20.8"/>
<polygon fill="#28a745" stroke="#28a745" points="440.57,-24.3 450.57,-20.8 440.57,-17.3 440.57,-24.3"/>
</g>
<!-- picked -->
<g id="node5" class="node">
<title>picked</title>
<polygon fill="#c3e6cb" stroke="#28a745" points="321.84,-41.6 233.13,-41.6 233.13,0 321.84,0 321.84,-41.6"/>
<text xml:space="preserve" text-anchor="middle" x="277.48" y="-25" font-family="Times,serif" font-size="14.00">picked</text>
<text xml:space="preserve" text-anchor="middle" x="277.48" y="-8.2" font-family="Times,serif" font-size="14.00">Picked Items</text>
</g>
<!-- pick&#45;&gt;picked -->
<g id="edge3" class="edge">
<title>pick&#45;&gt;picked</title>
<path fill="none" stroke="#28a745" d="M197.49,-20.8C204.92,-20.8 213.24,-20.8 221.63,-20.8"/>
<polygon fill="#28a745" stroke="#28a745" points="221.51,-24.3 231.51,-20.8 221.51,-17.3 221.51,-24.3"/>
</g>
<!-- picked&#45;&gt;pack -->
<g id="edge4" class="edge">
<title>picked&#45;&gt;pack</title>
<path fill="none" stroke="#28a745" d="M322.26,-20.8C330.14,-20.8 338.32,-20.8 346.09,-20.8"/>
<polygon fill="#28a745" stroke="#28a745" points="345.96,-24.3 355.96,-20.8 345.96,-17.3 345.96,-24.3"/>
</g>
</g>
</svg>
