<?xml version="1.0" encoding="UTF-8" standalone="no"?>
<!DOCTYPE svg PUBLIC "-//W3C//DTD SVG 1.1//EN"
 "http://www.w3.org/Graphics/SVG/1.1/DTD/svg11.dtd">
<!-- Generated by graphviz version 15.0.0 (0)
 -->
<!-- Title: PFDSL Pages: 1 -->
<svg width="1467pt" height="965pt"
 viewBox="0.00 0.00 1467.00 965.00" xmlns="http://www.w3.org/2000/svg" xmlns:xlink="http://www.w3.org/1999/xlink">
<g id="graph0" class="graph" transform="scale(1 1) rotate(0) translate(4 961.39)">
<title>PFDSL</title>
<polygon fill="white" stroke="none" points="-4,4 -4,-961.39 1462.81,-961.39 1462.81,4 -4,4"/>
<text xml:space="preserve" text-anchor="middle" x="729.41" y="-940.79" font-family="Times,serif" font-size="14.00">コードベース監査改善（2026&#45;06）</text>
<!-- add_advanced_samples -->
<g id="node1" class="node">
<title>add_advanced_samples</title>
<g id="a_node1"><a xlink:title="上級機能サンプル追加">
<ellipse fill="none" stroke="black" cx="304.79" cy="-891.3" rx="104.77" ry="41.3"/>
<text xml:space="preserve" text-anchor="middle" x="304.79" y="-903.9" font-family="Times,serif" font-size="14.00">add_advanced_samples</text>
<text xml:space="preserve" text-anchor="middle" x="304.79" y="-887.1" font-family="Times,serif" font-size="14.00">上級機能サンプル追</text>
<text xml:space="preserve" text-anchor="middle" x="304.79" y="-870.3" font-family="Times,serif" font-size="14.00">加</text>
</a>
</g>
</g>
<!-- advanced_samples -->
<g id="node4" class="node">
<title>advanced_samples</title>
<g id="a_node4"><a xlink:title="subflow/extends/boundary サンプル&#10;criteria: 3 機能のサンプルが追加され check/graph エラーなし、gen&#45;samples 差分整合">
<polygon fill="#f8f9fa" stroke="black" points="984.55,-817.5 818.95,-817.5 818.95,-759.1 984.55,-759.1 984.55,-817.5"/>
<text xml:space="preserve" text-anchor="middle" x="901.75" y="-800.9" font-family="Times,serif" font-size="14.00">advanced_samples</text>
<text xml:space="preserve" text-anchor="middle" x="901.75" y="-784.1" font-family="Times,serif" font-size="14.00">subflow/extends/boun</text>
<text xml:space="preserve" text-anchor="middle" x="901.75" y="-767.3" font-family="Times,serif" font-size="14.00">dary サンプル</text>
</a>
</g>
<text xml:space="preserve" text-anchor="middle" x="806.51" y="-746.5" font-family="Times,serif" font-size="14.00">todo</text>
</g>
<!-- add_advanced_samples&#45;&gt;advanced_samples -->
<g id="edge20" class="edge">
<title>add_advanced_samples&#45;&gt;advanced_samples</title>
<path fill="none" stroke="black" d="M401.38,-874.75C513.17,-855.39 696.97,-823.57 807.66,-804.41"/>
<polygon fill="black" stroke="black" points="808.06,-807.89 817.31,-802.74 806.86,-801 808.06,-807.89"/>
</g>
<!-- add_parser_tests -->
<g id="node2" class="node">
<title>add_parser_tests</title>
<g id="a_node2"><a xlink:title="パーサ負系テスト追加">
<ellipse fill="none" stroke="black" cx="304.79" cy="-790.3" rx="78.14" ry="41.3"/>
<text xml:space="preserve" text-anchor="middle" x="304.79" y="-802.9" font-family="Times,serif" font-size="14.00">add_parser_tests</text>
<text xml:space="preserve" text-anchor="middle" x="304.79" y="-786.1" font-family="Times,serif" font-size="14.00">パーサ負系テスト追</text>
<text xml:space="preserve" text-anchor="middle" x="304.79" y="-769.3" font-family="Times,serif" font-size="14.00">加</text>
</a>
</g>
</g>
<!-- parser_neg_tests -->
<g id="node19" class="node">
<title>parser_neg_tests</title>
<g id="a_node19"><a xlink:title="パーサ負系テスト&#10;criteria: 未カバーの L/P エラーコードに negative test が追加され、露見したバグを修正済み">
<polygon fill="#f8f9fa" stroke="black" points="589.56,-759.1 452.76,-759.1 452.76,-717.5 589.56,-717.5 589.56,-759.1"/>
<text xml:space="preserve" text-anchor="middle" x="521.16" y="-742.5" font-family="Times,serif" font-size="14.00">parser_neg_tests</text>
<text xml:space="preserve" text-anchor="middle" x="521.16" y="-725.7" font-family="Times,serif" font-size="14.00">パーサ負系テスト</text>
</a>
</g>
<text xml:space="preserve" text-anchor="middle" x="440.32" y="-704.9" font-family="Times,serif" font-size="14.00">todo</text>
</g>
<!-- add_parser_tests&#45;&gt;parser_neg_tests -->
<g id="edge4" class="edge">
<title>add_parser_tests&#45;&gt;parser_neg_tests</title>
<path fill="none" stroke="black" d="M376.28,-773.2C397.17,-768.13 420.17,-762.55 441.54,-757.37"/>
<polygon fill="black" stroke="black" points="442.18,-760.81 451.07,-755.05 440.53,-754.01 442.18,-760.81"/>
</g>
<!-- add_vscode_tests -->
<g id="node3" class="node">
<title>add_vscode_tests</title>
<ellipse fill="none" stroke="black" cx="304.79" cy="-701.3" rx="80.6" ry="29.42"/>
<text xml:space="preserve" text-anchor="middle" x="304.79" y="-705.5" font-family="Times,serif" font-size="14.00">add_vscode_tests</text>
<text xml:space="preserve" text-anchor="middle" x="304.79" y="-688.7" font-family="Times,serif" font-size="14.00">拡張機能テスト追加</text>
</g>
<!-- vscode_test_coverage -->
<g id="node24" class="node">
<title>vscode_test_coverage</title>
<g id="a_node24"><a xlink:title="拡張機能テスト&#10;criteria: diagnostics/format/hover/jump/export に vitest テストが追加され typecheck 通過">
<polygon fill="#f8f9fa" stroke="black" points="984.55,-679.1 818.95,-679.1 818.95,-637.5 984.55,-637.5 984.55,-679.1"/>
<text xml:space="preserve" text-anchor="middle" x="901.75" y="-662.5" font-family="Times,serif" font-size="14.00">vscode_test_coverage</text>
<text xml:space="preserve" text-anchor="middle" x="901.75" y="-645.7" font-family="Times,serif" font-size="14.00">拡張機能テスト</text>
</a>
</g>
<text xml:space="preserve" text-anchor="middle" x="806.51" y="-624.9" font-family="Times,serif" font-size="14.00">todo</text>
</g>
<!-- add_vscode_tests&#45;&gt;vscode_test_coverage -->
<g id="edge6" class="edge">
<title>add_vscode_tests&#45;&gt;vscode_test_coverage</title>
<path fill="none" stroke="black" d="M384.18,-695.63C493.35,-687.74 690.86,-673.46 807.47,-665.04"/>
<polygon fill="black" stroke="black" points="807.61,-668.54 817.33,-664.32 807.11,-661.55 807.61,-668.54"/>
</g>
<!-- integrate_improvements -->
<g id="node15" class="node">
<title>integrate_improvements</title>
<ellipse fill="none" stroke="black" cx="1128.08" cy="-438.3" rx="107.53" ry="29.42"/>
<text xml:space="preserve" text-anchor="middle" x="1128.08" y="-442.5" font-family="Times,serif" font-size="14.00">integrate_improvements</text>
<text xml:space="preserve" text-anchor="middle" x="1128.08" y="-425.7" font-family="Times,serif" font-size="14.00">改善統合</text>
</g>
<!-- advanced_samples&#45;&gt;integrate_improvements -->
<g id="edge33" class="edge">
<title>advanced_samples&#45;&gt;integrate_improvements</title>
<path fill="none" stroke="black" d="M963.97,-758.84C971.45,-753.65 978.56,-747.8 984.55,-741.3 1056.68,-663.01 1098.54,-541.7 1116.54,-478.97"/>
<polygon fill="black" stroke="black" points="1119.89,-479.99 1119.21,-469.41 1113.14,-478.1 1119.89,-479.99"/>
</g>
<!-- ci_quality_gates -->
<g id="node5" class="node">
<title>ci_quality_gates</title>
<g id="a_node5"><a xlink:title="CI 品質ゲート&#10;criteria: test.yml が lint と check&#45;docs を実行し、現行ツリーが両者を通過">
<polygon fill="#f8f9fa" stroke="black" points="776.26,-332.1 639.46,-332.1 639.46,-290.5 776.26,-290.5 776.26,-332.1"/>
<text xml:space="preserve" text-anchor="middle" x="707.86" y="-315.5" font-family="Times,serif" font-size="14.00">ci_quality_gates</text>
<text xml:space="preserve" text-anchor="middle" x="707.86" y="-298.7" font-family="Times,serif" font-size="14.00">CI 品質ゲート</text>
</a>
</g>
<text xml:space="preserve" text-anchor="middle" x="627.01" y="-277.9" font-family="Times,serif" font-size="14.00">todo</text>
</g>
<!-- ci_quality_gates&#45;&gt;integrate_improvements -->
<g id="edge29" class="edge">
<title>ci_quality_gates&#45;&gt;integrate_improvements</title>
<path fill="none" stroke="black" d="M776.58,-315.13C833.47,-319.99 916.19,-330.9 984.55,-355.3 1017.94,-367.21 1052.36,-387.01 1079.02,-404.28"/>
<polygon fill="black" stroke="black" points="1076.93,-407.1 1087.21,-409.68 1080.78,-401.26 1076.93,-407.1"/>
</g>
<!-- cli_exitcode_docs -->
<g id="node6" class="node">
<title>cli_exitcode_docs</title>
<g id="a_node6"><a xlink:title="CLI help 終了コード記載&#10;criteria: per&#45;command HELP に終了コードを記載し README コマンド一覧と整合">
<polygon fill="#f8f9fa" stroke="black" points="973.75,-580.5 829.75,-580.5 829.75,-522.1 973.75,-522.1 973.75,-580.5"/>
<text xml:space="preserve" text-anchor="middle" x="901.75" y="-563.9" font-family="Times,serif" font-size="14.00">cli_exitcode_docs</text>
<text xml:space="preserve" text-anchor="middle" x="901.75" y="-547.1" font-family="Times,serif" font-size="14.00">CLI help</text>
<text xml:space="preserve" text-anchor="middle" x="901.75" y="-530.3" font-family="Times,serif" font-size="14.00">終了コード記載</text>
</a>
</g>
<text xml:space="preserve" text-anchor="middle" x="817.31" y="-509.5" font-family="Times,serif" font-size="14.00">todo</text>
</g>
<!-- cli_exitcode_docs&#45;&gt;integrate_improvements -->
<g id="edge32" class="edge">
<title>cli_exitcode_docs&#45;&gt;integrate_improvements</title>
<path fill="none" stroke="black" d="M961.69,-521.61C993.55,-505.56 1032.87,-485.75 1065.18,-469.48"/>
<polygon fill="black" stroke="black" points="1066.7,-472.63 1074.05,-465.01 1063.55,-466.38 1066.7,-472.63"/>
</g>
<!-- cli_io_robust -->
<g id="node7" class="node">
<title>cli_io_robust</title>
<g id="a_node7"><a xlink:title="CLI I/O 堅牢化&#10;criteria: 存在しない/読めないファイルで CLI が exit 1 と可読メッセージを返し、ENOENT と parse エラーを区別、テスト通過">
<polygon fill="#f8f9fa" stroke="black" points="769.06,-523.1 646.66,-523.1 646.66,-481.5 769.06,-481.5 769.06,-523.1"/>
<text xml:space="preserve" text-anchor="middle" x="707.86" y="-506.5" font-family="Times,serif" font-size="14.00">cli_io_robust</text>
<text xml:space="preserve" text-anchor="middle" x="707.86" y="-489.7" font-family="Times,serif" font-size="14.00">CLI I/O 堅牢化</text>
</a>
</g>
<text xml:space="preserve" text-anchor="middle" x="634.21" y="-468.9" font-family="Times,serif" font-size="14.00">todo</text>
</g>
<!-- cli_io_robust&#45;&gt;integrate_improvements -->
<g id="edge24" class="edge">
<title>cli_io_robust&#45;&gt;integrate_improvements</title>
<path fill="none" stroke="black" d="M769.22,-493.06C835.33,-482.94 942.57,-466.53 1022.44,-454.31"/>
<polygon fill="black" stroke="black" points="1022.67,-457.81 1032.03,-452.84 1021.61,-450.89 1022.67,-457.81"/>
</g>
<!-- cli_tool -->
<g id="node8" class="node">
<title>cli_tool</title>
<g id="a_node8"><a xlink:title="現行コードベース&#10;&#10;監査対象の現行実装。親フローの入力境界 artifact と恒等一致">
<polygon fill="#d4edda" stroke="black" stroke-width="2" points="164.01,-455.1 27.21,-455.1 27.21,-413.5 164.01,-413.5 164.01,-455.1"/>
<text xml:space="preserve" text-anchor="middle" x="95.61" y="-438.5" font-family="Times,serif" font-size="14.00">cli_tool</text>
<text xml:space="preserve" text-anchor="middle" x="95.61" y="-421.7" font-family="Times,serif" font-size="14.00">現行コードベース</text>
</a>
</g>
<text xml:space="preserve" text-anchor="middle" x="13.61" y="-400.9" font-family="Times,serif" font-size="14.00">done</text>
</g>
<!-- cli_tool&#45;&gt;add_advanced_samples -->
<g id="edge19" class="edge">
<title>cli_tool&#45;&gt;add_advanced_samples</title>
<path fill="none" stroke="black" d="M96.11,-456C95.74,-521.65 103.08,-720.84 200.01,-840.3 205.1,-846.56 211.15,-852.12 217.74,-857.04"/>
<polygon fill="black" stroke="black" points="215.52,-859.76 225.76,-862.5 219.46,-853.98 215.52,-859.76"/>
</g>
<!-- cli_tool&#45;&gt;add_parser_tests -->
<g id="edge3" class="edge">
<title>cli_tool&#45;&gt;add_parser_tests</title>
<path fill="none" stroke="black" d="M98.33,-455.93C103.68,-510.09 124.58,-653.37 200.01,-739.3 208.02,-748.42 218.04,-756.08 228.67,-762.46"/>
<polygon fill="black" stroke="black" points="226.8,-765.42 237.24,-767.22 230.2,-759.31 226.8,-765.42"/>
</g>
<!-- cli_tool&#45;&gt;add_vscode_tests -->
<g id="edge5" class="edge">
<title>cli_tool&#45;&gt;add_vscode_tests</title>
<path fill="none" stroke="black" d="M100.67,-456.06C110.11,-500.84 137.65,-603.94 200.01,-662.3 207.78,-669.57 217.04,-675.52 226.77,-680.38"/>
<polygon fill="black" stroke="black" points="225.12,-683.47 235.67,-684.43 228.02,-677.1 225.12,-683.47"/>
</g>
<!-- doc_cli_exitcodes -->
<g id="node9" class="node">
<title>doc_cli_exitcodes</title>
<g id="a_node9"><a xlink:title="CLI help 終了コード追記">
<ellipse fill="none" stroke="black" cx="304.79" cy="-612.3" rx="82.79" ry="41.3"/>
<text xml:space="preserve" text-anchor="middle" x="304.79" y="-624.9" font-family="Times,serif" font-size="14.00">doc_cli_exitcodes</text>
<text xml:space="preserve" text-anchor="middle" x="304.79" y="-608.1" font-family="Times,serif" font-size="14.00">CLI help</text>
<text xml:space="preserve" text-anchor="middle" x="304.79" y="-591.3" font-family="Times,serif" font-size="14.00">終了コード追記</text>
</a>
</g>
</g>
<!-- cli_tool&#45;&gt;doc_cli_exitcodes -->
<g id="edge17" class="edge">
<title>cli_tool&#45;&gt;doc_cli_exitcodes</title>
<path fill="none" stroke="black" d="M110.04,-456.03C127.84,-483.44 161.52,-530.67 200.01,-561.3 209.12,-568.54 219.42,-575.12 229.92,-580.96"/>
<polygon fill="black" stroke="black" points="228.19,-584.01 238.66,-585.63 231.49,-577.83 228.19,-584.01"/>
</g>
<!-- extract_meta_resolver -->
<g id="node10" class="node">
<title>extract_meta_resolver</title>
<g id="a_node10"><a xlink:title="メタデータ resolver 抽出">
<ellipse fill="none" stroke="black" cx="304.79" cy="-434.3" rx="99.26" ry="41.3"/>
<text xml:space="preserve" text-anchor="middle" x="304.79" y="-446.9" font-family="Times,serif" font-size="14.00">extract_meta_resolver</text>
<text xml:space="preserve" text-anchor="middle" x="304.79" y="-430.1" font-family="Times,serif" font-size="14.00">メタデータ resolver</text>
<text xml:space="preserve" text-anchor="middle" x="304.79" y="-413.3" font-family="Times,serif" font-size="14.00">抽出</text>
</a>
</g>
</g>
<!-- cli_tool&#45;&gt;extract_meta_resolver -->
<g id="edge9" class="edge">
<title>cli_tool&#45;&gt;extract_meta_resolver</title>
<path fill="none" stroke="black" d="M164.74,-434.3C174.16,-434.3 184.03,-434.3 193.98,-434.3"/>
<polygon fill="black" stroke="black" points="193.71,-437.8 203.71,-434.3 193.71,-430.8 193.71,-437.8"/>
</g>
<!-- fix_cli_io -->
<g id="node12" class="node">
<title>fix_cli_io</title>
<ellipse fill="none" stroke="black" cx="304.79" cy="-523.3" rx="87.73" ry="29.42"/>
<text xml:space="preserve" text-anchor="middle" x="304.79" y="-527.5" font-family="Times,serif" font-size="14.00">fix_cli_io</text>
<text xml:space="preserve" text-anchor="middle" x="304.79" y="-510.7" font-family="Times,serif" font-size="14.00">CLI I/O graceful 化</text>
</g>
<!-- cli_tool&#45;&gt;fix_cli_io -->
<g id="edge1" class="edge">
<title>cli_tool&#45;&gt;fix_cli_io</title>
<path fill="none" stroke="black" d="M139.22,-455.98C157.73,-465.11 179.76,-475.61 200.01,-484.3 210.67,-488.86 222.06,-493.44 233.25,-497.77"/>
<polygon fill="black" stroke="black" points="231.87,-500.99 242.46,-501.3 234.37,-494.46 231.87,-500.99"/>
</g>
<!-- gate_ci_quality -->
<g id="node13" class="node">
<title>gate_ci_quality</title>
<ellipse fill="none" stroke="black" cx="304.79" cy="-308.3" rx="72.34" ry="29.42"/>
<text xml:space="preserve" text-anchor="middle" x="304.79" y="-312.5" font-family="Times,serif" font-size="14.00">gate_ci_quality</text>
<text xml:space="preserve" text-anchor="middle" x="304.79" y="-295.7" font-family="Times,serif" font-size="14.00">CI ゲート追加</text>
</g>
<!-- cli_tool&#45;&gt;gate_ci_quality -->
<g id="edge11" class="edge">
<title>cli_tool&#45;&gt;gate_ci_quality</title>
<path fill="none" stroke="black" d="M119.43,-412.8C139.5,-394.7 170.1,-369.01 200.01,-351.3 212.13,-344.12 225.67,-337.57 238.86,-331.87"/>
<polygon fill="black" stroke="black" points="240.06,-335.16 247.93,-328.07 237.36,-328.7 240.06,-335.16"/>
</g>
<!-- nonmutate_parse -->
<g id="node17" class="node">
<title>nonmutate_parse</title>
<ellipse fill="none" stroke="black" cx="304.79" cy="-231.3" rx="78.94" ry="29.42"/>
<text xml:space="preserve" text-anchor="middle" x="304.79" y="-235.5" font-family="Times,serif" font-size="14.00">nonmutate_parse</text>
<text xml:space="preserve" text-anchor="middle" x="304.79" y="-218.7" font-family="Times,serif" font-size="14.00">parse() 非破壊化</text>
</g>
<!-- cli_tool&#45;&gt;nonmutate_parse -->
<g id="edge7" class="edge">
<title>cli_tool&#45;&gt;nonmutate_parse</title>
<path fill="none" stroke="black" d="M104.92,-412.53C119.24,-377.76 151.75,-309.64 200.01,-270.3 208.63,-263.27 218.64,-257.43 228.97,-252.6"/>
<polygon fill="black" stroke="black" points="230.2,-255.88 237.99,-248.7 227.42,-249.46 230.2,-255.88"/>
</g>
<!-- split_large_files -->
<g id="node22" class="node">
<title>split_large_files</title>
<ellipse fill="none" stroke="black" cx="707.86" cy="-381.3" rx="75.09" ry="29.42"/>
<text xml:space="preserve" text-anchor="middle" x="707.86" y="-385.5" font-family="Times,serif" font-size="14.00">split_large_files</text>
<text xml:space="preserve" text-anchor="middle" x="707.86" y="-368.7" font-family="Times,serif" font-size="14.00">巨大ファイル分割</text>
</g>
<!-- cli_tool&#45;&gt;split_large_files -->
<g id="edge21" class="edge">
<title>cli_tool&#45;&gt;split_large_files</title>
<path fill="none" stroke="black" d="M131.53,-412.58C150.92,-401.79 175.93,-389.89 200.01,-384.3 346.51,-350.28 523.31,-360.34 624.65,-370.8"/>
<polygon fill="black" stroke="black" points="624.21,-374.27 634.52,-371.84 624.95,-367.31 624.21,-374.27"/>
</g>
<!-- tidy_pkg_metadata -->
<g id="node23" class="node">
<title>tidy_pkg_metadata</title>
<g id="a_node23"><a xlink:title="パッケージメタデータ整備">
<ellipse fill="none" stroke="black" cx="304.79" cy="-142.3" rx="87.19" ry="41.3"/>
<text xml:space="preserve" text-anchor="middle" x="304.79" y="-154.9" font-family="Times,serif" font-size="14.00">tidy_pkg_metadata</text>
<text xml:space="preserve" text-anchor="middle" x="304.79" y="-138.1" font-family="Times,serif" font-size="14.00">パッケージメタデー</text>
<text xml:space="preserve" text-anchor="middle" x="304.79" y="-121.3" font-family="Times,serif" font-size="14.00">タ整備</text>
</a>
</g>
</g>
<!-- cli_tool&#45;&gt;tidy_pkg_metadata -->
<g id="edge13" class="edge">
<title>cli_tool&#45;&gt;tidy_pkg_metadata</title>
<path fill="none" stroke="black" d="M100.64,-412.51C110.17,-366.53 138.09,-258.49 200.01,-193.3 207.3,-185.62 215.98,-178.95 225.18,-173.19"/>
<polygon fill="black" stroke="black" points="226.73,-176.34 233.6,-168.27 223.2,-170.29 226.73,-176.34"/>
</g>
<!-- write_pkg_docs -->
<g id="node25" class="node">
<title>write_pkg_docs</title>
<g id="a_node25"><a xlink:title="README/CONTRIBUTING 執筆">
<ellipse fill="none" stroke="black" cx="304.79" cy="-41.3" rx="99.31" ry="41.3"/>
<text xml:space="preserve" text-anchor="middle" x="304.79" y="-53.9" font-family="Times,serif" font-size="14.00">write_pkg_docs</text>
<text xml:space="preserve" text-anchor="middle" x="304.79" y="-37.1" font-family="Times,serif" font-size="14.00">README/CONTRIB</text>
<text xml:space="preserve" text-anchor="middle" x="304.79" y="-20.3" font-family="Times,serif" font-size="14.00">UTING 執筆</text>
</a>
</g>
</g>
<!-- cli_tool&#45;&gt;write_pkg_docs -->
<g id="edge15" class="edge">
<title>cli_tool&#45;&gt;write_pkg_docs</title>
<path fill="none" stroke="black" d="M97.37,-412.69C100.52,-354.17 116.72,-190.42 200.01,-92.3 205.68,-85.62 212.42,-79.74 219.71,-74.58"/>
<polygon fill="black" stroke="black" points="221.45,-77.63 227.93,-69.25 217.64,-71.76 221.45,-77.63"/>
</g>
<!-- doc_cli_exitcodes&#45;&gt;cli_exitcode_docs -->
<g id="edge18" class="edge">
<title>doc_cli_exitcodes&#45;&gt;cli_exitcode_docs</title>
<path fill="none" stroke="black" d="M386.34,-604.04C499.28,-592.46 703.65,-571.5 817.85,-559.79"/>
<polygon fill="black" stroke="black" points="818.19,-563.28 827.78,-558.78 817.48,-556.31 818.19,-563.28"/>
</g>
<!-- meta_resolver -->
<g id="node16" class="node">
<title>meta_resolver</title>
<g id="a_node16"><a xlink:title="メタデータ共通 resolver&#10;criteria: resolveMeta が core に実装・export され重複が置換、スナップショット差分なし">
<polygon fill="#f8f9fa" stroke="black" points="582.36,-463.5 459.96,-463.5 459.96,-405.1 582.36,-405.1 582.36,-463.5"/>
<text xml:space="preserve" text-anchor="middle" x="521.16" y="-446.9" font-family="Times,serif" font-size="14.00">meta_resolver</text>
<text xml:space="preserve" text-anchor="middle" x="521.16" y="-430.1" font-family="Times,serif" font-size="14.00">メタデータ共通</text>
<text xml:space="preserve" text-anchor="middle" x="521.16" y="-413.3" font-family="Times,serif" font-size="14.00">resolver</text>
</a>
</g>
<text xml:space="preserve" text-anchor="middle" x="447.52" y="-392.5" font-family="Times,serif" font-size="14.00">todo</text>
</g>
<!-- extract_meta_resolver&#45;&gt;meta_resolver -->
<g id="edge10" class="edge">
<title>extract_meta_resolver&#45;&gt;meta_resolver</title>
<path fill="none" stroke="black" d="M404.5,-434.3C419.33,-434.3 434.38,-434.3 448.49,-434.3"/>
<polygon fill="black" stroke="black" points="448.08,-437.8 458.08,-434.3 448.08,-430.8 448.08,-437.8"/>
</g>
<!-- files_split -->
<g id="node11" class="node">
<title>files_split</title>
<g id="a_node11"><a xlink:title="巨大ファイル分割&#10;criteria: graphviz index.ts と vscode webview/preview が関心ごとに分割、スナップショット/typecheck 通過">
<polygon fill="#f8f9fa" stroke="black" points="970.15,-406.1 833.35,-406.1 833.35,-364.5 970.15,-364.5 970.15,-406.1"/>
<text xml:space="preserve" text-anchor="middle" x="901.75" y="-389.5" font-family="Times,serif" font-size="14.00">files_split</text>
<text xml:space="preserve" text-anchor="middle" x="901.75" y="-372.7" font-family="Times,serif" font-size="14.00">巨大ファイル分割</text>
</a>
</g>
<text xml:space="preserve" text-anchor="middle" x="820.91" y="-351.9" font-family="Times,serif" font-size="14.00">todo</text>
</g>
<!-- files_split&#45;&gt;integrate_improvements -->
<g id="edge34" class="edge">
<title>files_split&#45;&gt;integrate_improvements</title>
<path fill="none" stroke="black" d="M970.36,-401.27C990.58,-406.04 1013.1,-411.36 1034.62,-416.45"/>
<polygon fill="black" stroke="black" points="1033.75,-419.84 1044.29,-418.73 1035.36,-413.03 1033.75,-419.84"/>
</g>
<!-- fix_cli_io&#45;&gt;cli_io_robust -->
<g id="edge2" class="edge">
<title>fix_cli_io&#45;&gt;cli_io_robust</title>
<path fill="none" stroke="black" d="M391.83,-518.79C464.28,-515 566.73,-509.63 634.9,-506.06"/>
<polygon fill="black" stroke="black" points="635.06,-509.56 644.86,-505.54 634.69,-502.57 635.06,-509.56"/>
</g>
<!-- gate_ci_quality&#45;&gt;ci_quality_gates -->
<g id="edge12" class="edge">
<title>gate_ci_quality&#45;&gt;ci_quality_gates</title>
<path fill="none" stroke="black" d="M377.49,-308.83C447.86,-309.36 554.92,-310.16 627.73,-310.7"/>
<polygon fill="black" stroke="black" points="627.58,-314.2 637.6,-310.78 627.63,-307.2 627.58,-314.2"/>
</g>
<!-- i198_audit_improvements -->
<g id="node14" class="node">
<title>i198_audit_improvements</title>
<g id="a_node14"><a xlink:href="https://github.com/takasek/pfdsl/issues/198" xlink:title="監査改善の反映&#10;criteria: 全 work item が done で main 反映済み&#10;location: https://github.com/takasek/pfdsl/issues/198">
<polygon fill="#f8f9fa" stroke="black" stroke-width="2" points="1458.81,-459.1 1271.61,-459.1 1271.61,-417.5 1458.81,-417.5 1458.81,-459.1"/>
<text xml:space="preserve" text-anchor="middle" x="1365.21" y="-442.5" font-family="Times,serif" font-size="14.00">i198_audit_improvements</text>
<text xml:space="preserve" text-anchor="middle" x="1365.21" y="-425.7" font-family="Times,serif" font-size="14.00">監査改善の反映</text>
</a>
</g>
<text xml:space="preserve" text-anchor="middle" x="1259.17" y="-404.9" font-family="Times,serif" font-size="14.00">todo</text>
</g>
<!-- integrate_improvements&#45;&gt;i198_audit_improvements -->
<g id="edge35" class="edge">
<title>integrate_improvements&#45;&gt;i198_audit_improvements</title>
<path fill="none" stroke="black" d="M1235.98,-438.3C1243.81,-438.3 1251.69,-438.3 1259.51,-438.3"/>
<polygon fill="black" stroke="black" points="1259.37,-441.8 1269.37,-438.3 1259.37,-434.8 1259.37,-441.8"/>
</g>
<!-- meta_resolver&#45;&gt;integrate_improvements -->
<g id="edge28" class="edge">
<title>meta_resolver&#45;&gt;integrate_improvements</title>
<path fill="none" stroke="black" d="M582.65,-434.7C681.85,-435.35 880.81,-436.67 1008.78,-437.51"/>
<polygon fill="black" stroke="black" points="1008.63,-441.01 1018.65,-437.58 1008.67,-434.01 1008.63,-441.01"/>
</g>
<!-- meta_resolver&#45;&gt;split_large_files -->
<g id="edge22" class="edge">
<title>meta_resolver&#45;&gt;split_large_files</title>
<path fill="none" stroke="black" d="M582.64,-416.94C599.63,-412.07 618.26,-406.72 635.8,-401.69"/>
<polygon fill="black" stroke="black" points="636.46,-405.14 645.11,-399.02 634.53,-398.41 636.46,-405.14"/>
</g>
<!-- parse_immutable -->
<g id="node18" class="node">
<title>parse_immutable</title>
<g id="a_node18"><a xlink:title="parse() 非破壊化&#10;criteria: parse() が入力トークンを変更せず、再 parse で位置が安定、テスト通過">
<polygon fill="#f8f9fa" stroke="black" points="589.56,-272.1 452.76,-272.1 452.76,-230.5 589.56,-230.5 589.56,-272.1"/>
<text xml:space="preserve" text-anchor="middle" x="521.16" y="-255.5" font-family="Times,serif" font-size="14.00">parse_immutable</text>
<text xml:space="preserve" text-anchor="middle" x="521.16" y="-238.7" font-family="Times,serif" font-size="14.00">parse() 非破壊化</text>
</a>
</g>
<text xml:space="preserve" text-anchor="middle" x="440.32" y="-217.9" font-family="Times,serif" font-size="14.00">todo</text>
</g>
<!-- nonmutate_parse&#45;&gt;parse_immutable -->
<g id="edge8" class="edge">
<title>nonmutate_parse&#45;&gt;parse_immutable</title>
<path fill="none" stroke="black" d="M381.67,-238.37C401,-240.18 421.82,-242.12 441.3,-243.94"/>
<polygon fill="black" stroke="black" points="440.8,-247.41 451.08,-244.85 441.45,-240.44 440.8,-247.41"/>
</g>
<!-- parse_immutable&#45;&gt;integrate_improvements -->
<g id="edge27" class="edge">
<title>parse_immutable&#45;&gt;integrate_improvements</title>
<path fill="none" stroke="black" d="M590,-248.59C683.38,-247.51 854.73,-255.19 984.55,-316.3 1027.42,-336.47 1067.58,-373.1 1094.28,-400.98"/>
<polygon fill="black" stroke="black" points="1091.69,-403.33 1101.09,-408.22 1096.79,-398.54 1091.69,-403.33"/>
</g>
<!-- parser_neg_tests&#45;&gt;integrate_improvements -->
<g id="edge25" class="edge">
<title>parser_neg_tests&#45;&gt;integrate_improvements</title>
<path fill="none" stroke="black" d="M589.69,-748.95C685.77,-760.4 863.67,-767.52 984.55,-688.3 1059.57,-639.13 1099.47,-535.97 1116.61,-478.73"/>
<polygon fill="black" stroke="black" points="1119.9,-479.95 1119.31,-469.37 1113.17,-478.01 1119.9,-479.95"/>
</g>
<!-- pkg_docs -->
<g id="node20" class="node">
<title>pkg_docs</title>
<g id="a_node20"><a xlink:title="パッケージ README/CONTRIBUTING&#10;criteria: cli/graphviz&#45;exporter/metadata&#45;exporter/preview&#45;engine に README、ルートに CONTRIBUTING">
<polygon fill="#f8f9fa" stroke="black" points="778.08,-138.9 637.63,-138.9 637.63,-63.7 778.08,-63.7 778.08,-138.9"/>
<text xml:space="preserve" text-anchor="middle" x="707.86" y="-122.3" font-family="Times,serif" font-size="14.00">pkg_docs</text>
<text xml:space="preserve" text-anchor="middle" x="707.86" y="-105.5" font-family="Times,serif" font-size="14.00">パッケージ</text>
<text xml:space="preserve" text-anchor="middle" x="707.86" y="-88.7" font-family="Times,serif" font-size="14.00">README/CONTRIB</text>
<text xml:space="preserve" text-anchor="middle" x="707.86" y="-71.9" font-family="Times,serif" font-size="14.00">UTING</text>
</a>
</g>
<text xml:space="preserve" text-anchor="middle" x="625.19" y="-51.1" font-family="Times,serif" font-size="14.00">todo</text>
</g>
<!-- pkg_docs&#45;&gt;integrate_improvements -->
<g id="edge31" class="edge">
<title>pkg_docs&#45;&gt;integrate_improvements</title>
<path fill="none" stroke="black" d="M778.42,-108.57C838.58,-117.98 925.02,-139.31 984.55,-187.3 1053.91,-243.19 1095.66,-342.48 1114.71,-397.95"/>
<polygon fill="black" stroke="black" points="1111.36,-398.95 1117.85,-407.33 1118,-396.73 1111.36,-398.95"/>
</g>
<!-- pkg_metadata -->
<g id="node21" class="node">
<title>pkg_metadata</title>
<g id="a_node21"><a xlink:title="パッケージメタデータ整備&#10;criteria: 全 package.json に engines.node が宣言され README の Node 要件と一致。ライブラリ公開（private/publishConfig）は">
<polygon fill="#f8f9fa" stroke="black" points="596.76,-189.5 445.56,-189.5 445.56,-131.1 596.76,-131.1 596.76,-189.5"/>
<text xml:space="preserve" text-anchor="middle" x="521.16" y="-172.9" font-family="Times,serif" font-size="14.00">pkg_metadata</text>
<text xml:space="preserve" text-anchor="middle" x="521.16" y="-156.1" font-family="Times,serif" font-size="14.00">パッケージメタデー</text>
<text xml:space="preserve" text-anchor="middle" x="521.16" y="-139.3" font-family="Times,serif" font-size="14.00">タ整備</text>
</a>
</g>
<text xml:space="preserve" text-anchor="middle" x="433.12" y="-118.5" font-family="Times,serif" font-size="14.00">todo</text>
</g>
<!-- pkg_metadata&#45;&gt;integrate_improvements -->
<g id="edge30" class="edge">
<title>pkg_metadata&#45;&gt;integrate_improvements</title>
<path fill="none" stroke="black" d="M597.06,-161.86C693.48,-167.05 863.05,-187.2 984.55,-262.3 1039.13,-296.03 1082.03,-358.26 1105.98,-398.96"/>
<polygon fill="black" stroke="black" points="1102.87,-400.58 1110.9,-407.5 1108.94,-397.09 1102.87,-400.58"/>
</g>
<!-- split_large_files&#45;&gt;files_split -->
<g id="edge23" class="edge">
<title>split_large_files&#45;&gt;files_split</title>
<path fill="none" stroke="black" d="M783.32,-382.85C795.83,-383.11 808.84,-383.38 821.46,-383.64"/>
<polygon fill="black" stroke="black" points="821.33,-387.14 831.4,-383.85 821.47,-380.14 821.33,-387.14"/>
</g>
<!-- tidy_pkg_metadata&#45;&gt;pkg_metadata -->
<g id="edge14" class="edge">
<title>tidy_pkg_metadata&#45;&gt;pkg_metadata</title>
<path fill="none" stroke="black" d="M391.13,-149.46C405.23,-150.64 419.85,-151.87 433.97,-153.06"/>
<polygon fill="black" stroke="black" points="433.39,-156.52 443.65,-153.87 433.98,-149.55 433.39,-156.52"/>
</g>
<!-- vscode_test_coverage&#45;&gt;integrate_improvements -->
<g id="edge26" class="edge">
<title>vscode_test_coverage&#45;&gt;integrate_improvements</title>
<path fill="none" stroke="black" d="M929.19,-637.27C945.54,-623.96 966.73,-606.15 984.55,-589.3 1023.82,-552.16 1065.97,-506.74 1094.16,-475.47"/>
<polygon fill="black" stroke="black" points="1096.64,-477.95 1100.72,-468.17 1091.43,-473.27 1096.64,-477.95"/>
</g>
<!-- write_pkg_docs&#45;&gt;pkg_docs -->
<g id="edge16" class="edge">
<title>write_pkg_docs&#45;&gt;pkg_docs</title>
<path fill="none" stroke="black" d="M398.81,-55.21C467.61,-65.5 560.37,-79.38 626.08,-89.21"/>
<polygon fill="black" stroke="black" points="625.29,-92.63 635.7,-90.65 626.33,-85.71 625.29,-92.63"/>
</g>
</g>
</svg>
