<?xml version="1.0" encoding="UTF-8" standalone="no"?>
<!DOCTYPE svg PUBLIC "-//W3C//DTD SVG 1.1//EN"
 "http://www.w3.org/Graphics/SVG/1.1/DTD/svg11.dtd">
<!-- Generated by graphviz version 15.0.0 (0)
 -->
<!-- Title: PFDSL Pages: 1 -->
<svg width="2280pt" height="310pt"
 viewBox="0.00 0.00 2280.00 310.00" xmlns="http://www.w3.org/2000/svg" xmlns:xlink="http://www.w3.org/1999/xlink">
<g id="graph0" class="graph" transform="scale(1 1) rotate(0) translate(4 306.31)">
<title>PFDSL</title>
<polygon fill="white" stroke="none" points="-4,4 -4,-306.31 2275.85,-306.31 2275.85,4 -4,4"/>
<text xml:space="preserve" text-anchor="middle" x="1135.92" y="-285.71" font-family="Times,serif" font-size="14.00">Issue 依存フロー（2026&#45;06） — diff</text>
<text xml:space="preserve" text-anchor="middle" x="1135.92" y="-268.91" font-family="Times,serif" font-size="14.00">green = added · red = removed · yellow = changed</text>
<!-- cli_tool -->
<g id="node1" class="node">
<title>cli_tool</title>
<polygon fill="#f5f5f5" stroke="#bbbbbb" points="136.8,-201.1 0,-201.1 0,-159.5 136.8,-159.5 136.8,-201.1"/>
<text xml:space="preserve" text-anchor="middle" x="68.4" y="-184.5" font-family="Times,serif" font-size="14.00" fill="#777777">cli_tool</text>
<text xml:space="preserve" text-anchor="middle" x="68.4" y="-167.7" font-family="Times,serif" font-size="14.00" fill="#777777">CLI 実装（現行）</text>
</g>
<!-- publish_cli -->
<g id="node14" class="node">
<title>publish_cli</title>
<ellipse fill="#f5c6cb" stroke="#dc3545" cx="252.86" cy="-219.3" rx="55.31" ry="29.42"/>
<text xml:space="preserve" text-anchor="middle" x="252.86" y="-223.5" font-family="Times,serif" font-size="14.00">publish_cli</text>
<text xml:space="preserve" text-anchor="middle" x="252.86" y="-206.7" font-family="Times,serif" font-size="14.00">CLI公開</text>
</g>
<!-- cli_tool&#45;&gt;publish_cli -->
<g id="edge1" class="edge">
<title>cli_tool&#45;&gt;publish_cli</title>
<path fill="none" stroke="#dc3545" stroke-dasharray="5,2" d="M137.08,-194.76C154.47,-198.48 173.08,-202.46 190.15,-206.1"/>
<polygon fill="#dc3545" stroke="#dc3545" points="189.12,-209.46 199.63,-208.13 190.59,-202.62 189.12,-209.46"/>
</g>
<!-- publish_cli_v009 -->
<g id="node17" class="node">
<title>publish_cli_v009</title>
<ellipse fill="#c3e6cb" stroke="#28a745" cx="252.86" cy="-142.3" rx="80.06" ry="29.42"/>
<text xml:space="preserve" text-anchor="middle" x="252.86" y="-146.5" font-family="Times,serif" font-size="14.00">publish_cli_v009</text>
<text xml:space="preserve" text-anchor="middle" x="252.86" y="-129.7" font-family="Times,serif" font-size="14.00">CLI v0.0.9公開</text>
</g>
<!-- cli_tool&#45;&gt;publish_cli_v009 -->
<g id="edge2" class="edge">
<title>cli_tool&#45;&gt;publish_cli_v009</title>
<path fill="none" stroke="#28a745" d="M137.08,-166.2C148.3,-163.86 160.03,-161.42 171.53,-159.02"/>
<polygon fill="#28a745" stroke="#28a745" points="171.9,-162.52 180.98,-157.06 170.47,-155.67 171.9,-162.52"/>
</g>
<!-- cli_tool_v0010 -->
<g id="node2" class="node">
<title>cli_tool_v0010</title>
<polygon fill="#c3e6cb" stroke="#28a745" points="1404.35,-171.5 1253.15,-171.5 1253.15,-113.1 1404.35,-113.1 1404.35,-171.5"/>
<text xml:space="preserve" text-anchor="middle" x="1328.75" y="-154.9" font-family="Times,serif" font-size="14.00">cli_tool_v0010</text>
<text xml:space="preserve" text-anchor="middle" x="1328.75" y="-138.1" font-family="Times,serif" font-size="14.00">CLI v0.0</text>
<text xml:space="preserve" text-anchor="middle" x="1328.75" y="-121.3" font-family="Times,serif" font-size="14.00">10（次期リリース）</text>
</g>
<!-- implement_json_output -->
<g id="node9" class="node">
<title>implement_json_output</title>
<ellipse fill="#c3e6cb" stroke="#28a745" cx="1545.71" cy="-231.3" rx="105.35" ry="29.42"/>
<text xml:space="preserve" text-anchor="middle" x="1545.71" y="-235.5" font-family="Times,serif" font-size="14.00">implement_json_output</text>
<text xml:space="preserve" text-anchor="middle" x="1545.71" y="-218.7" font-family="Times,serif" font-size="14.00">&#45;&#45;json出力実装</text>
</g>
<!-- cli_tool_v0010&#45;&gt;implement_json_output -->
<g id="edge3" class="edge">
<title>cli_tool_v0010&#45;&gt;implement_json_output</title>
<path fill="none" stroke="#28a745" d="M1393.48,-171.98C1408.75,-178.85 1425.06,-185.99 1440.35,-192.3 1449.74,-196.17 1459.67,-200.09 1469.52,-203.88"/>
<polygon fill="#28a745" stroke="#28a745" points="1468.14,-207.1 1478.73,-207.4 1470.64,-200.56 1468.14,-207.1"/>
</g>
<!-- implement_no_color -->
<g id="node10" class="node">
<title>implement_no_color</title>
<ellipse fill="#c3e6cb" stroke="#28a745" cx="1545.71" cy="-142.3" rx="93.79" ry="41.3"/>
<text xml:space="preserve" text-anchor="middle" x="1545.71" y="-154.9" font-family="Times,serif" font-size="14.00">implement_no_color</text>
<text xml:space="preserve" text-anchor="middle" x="1545.71" y="-138.1" font-family="Times,serif" font-size="14.00">&#45;&#45;no&#45;color /</text>
<text xml:space="preserve" text-anchor="middle" x="1545.71" y="-121.3" font-family="Times,serif" font-size="14.00">NO_COLOR実装</text>
</g>
<!-- cli_tool_v0010&#45;&gt;implement_no_color -->
<g id="edge4" class="edge">
<title>cli_tool_v0010&#45;&gt;implement_no_color</title>
<path fill="none" stroke="#28a745" d="M1404.63,-142.3C1416.11,-142.3 1428.13,-142.3 1440.11,-142.3"/>
<polygon fill="#28a745" stroke="#28a745" points="1440.05,-145.8 1450.05,-142.3 1440.05,-138.8 1440.05,-145.8"/>
</g>
<!-- publish_cli_further -->
<g id="node15" class="node">
<title>publish_cli_further</title>
<ellipse fill="#c3e6cb" stroke="#28a745" cx="1975.85" cy="-142.3" rx="87.19" ry="41.3"/>
<text xml:space="preserve" text-anchor="middle" x="1975.85" y="-154.9" font-family="Times,serif" font-size="14.00">publish_cli_further</text>
<text xml:space="preserve" text-anchor="middle" x="1975.85" y="-138.1" font-family="Times,serif" font-size="14.00">CLIさらに次期版リ</text>
<text xml:space="preserve" text-anchor="middle" x="1975.85" y="-121.3" font-family="Times,serif" font-size="14.00">リース</text>
</g>
<!-- cli_tool_v0010&#45;&gt;publish_cli_further -->
<g id="edge5" class="edge">
<title>cli_tool_v0010&#45;&gt;publish_cli_further</title>
<path fill="none" stroke="#28a745" d="M1383.02,-112.71C1400.72,-104.4 1420.89,-96.49 1440.35,-92.3 1619.49,-53.68 1672.74,-60.5 1852.66,-95.3 1869.14,-98.48 1886.27,-103.74 1902.32,-109.61"/>
<polygon fill="#28a745" stroke="#28a745" points="1900.68,-112.73 1911.27,-113 1903.16,-106.18 1900.68,-112.73"/>
</g>
<!-- cli_tool_v009 -->
<g id="node3" class="node">
<title>cli_tool_v009</title>
<polygon fill="#c3e6cb" stroke="#28a745" points="487.72,-171.5 372.52,-171.5 372.52,-113.1 487.72,-113.1 487.72,-171.5"/>
<text xml:space="preserve" text-anchor="middle" x="430.12" y="-154.9" font-family="Times,serif" font-size="14.00">cli_tool_v009</text>
<text xml:space="preserve" text-anchor="middle" x="430.12" y="-138.1" font-family="Times,serif" font-size="14.00">CLI v0.0</text>
<text xml:space="preserve" text-anchor="middle" x="430.12" y="-121.3" font-family="Times,serif" font-size="14.00">9（公開済み）</text>
</g>
<!-- implement_stdin -->
<g id="node11" class="node">
<title>implement_stdin</title>
<ellipse fill="#c3e6cb" stroke="#28a745" cx="660.7" cy="-231.3" rx="77.85" ry="29.42"/>
<text xml:space="preserve" text-anchor="middle" x="660.7" y="-235.5" font-family="Times,serif" font-size="14.00">implement_stdin</text>
<text xml:space="preserve" text-anchor="middle" x="660.7" y="-218.7" font-family="Times,serif" font-size="14.00">stdin対応実装</text>
</g>
<!-- cli_tool_v009&#45;&gt;implement_stdin -->
<g id="edge6" class="edge">
<title>cli_tool_v009&#45;&gt;implement_stdin</title>
<path fill="none" stroke="#28a745" d="M483.68,-171.94C497.62,-179.15 512.83,-186.46 527.32,-192.3 545.43,-199.59 565.43,-206.19 584.28,-211.81"/>
<polygon fill="#28a745" stroke="#28a745" points="583.19,-215.13 593.77,-214.57 585.14,-208.41 583.19,-215.13"/>
</g>
<!-- implement_subcommand_help -->
<g id="node12" class="node">
<title>implement_subcommand_help</title>
<ellipse fill="#c3e6cb" stroke="#28a745" cx="660.7" cy="-142.3" rx="133.38" ry="41.3"/>
<text xml:space="preserve" text-anchor="middle" x="660.7" y="-154.9" font-family="Times,serif" font-size="14.00">implement_subcommand_help</text>
<text xml:space="preserve" text-anchor="middle" x="660.7" y="-138.1" font-family="Times,serif" font-size="14.00">per&#45;command</text>
<text xml:space="preserve" text-anchor="middle" x="660.7" y="-121.3" font-family="Times,serif" font-size="14.00">&#45;&#45;help実装</text>
</g>
<!-- cli_tool_v009&#45;&gt;implement_subcommand_help -->
<g id="edge7" class="edge">
<title>cli_tool_v009&#45;&gt;implement_subcommand_help</title>
<path fill="none" stroke="#28a745" d="M488.21,-142.3C496.86,-142.3 506.1,-142.3 515.63,-142.3"/>
<polygon fill="#28a745" stroke="#28a745" points="515.43,-145.8 525.43,-142.3 515.43,-138.8 515.43,-145.8"/>
</g>
<!-- implement_version_cmd -->
<g id="node13" class="node">
<title>implement_version_cmd</title>
<ellipse fill="#c3e6cb" stroke="#28a745" cx="660.7" cy="-41.3" rx="109.74" ry="41.3"/>
<text xml:space="preserve" text-anchor="middle" x="660.7" y="-53.9" font-family="Times,serif" font-size="14.00">implement_version_cmd</text>
<text xml:space="preserve" text-anchor="middle" x="660.7" y="-37.1" font-family="Times,serif" font-size="14.00">&#45;&#45;version</text>
<text xml:space="preserve" text-anchor="middle" x="660.7" y="-20.3" font-family="Times,serif" font-size="14.00">コマンド実装</text>
</g>
<!-- cli_tool_v009&#45;&gt;implement_version_cmd -->
<g id="edge8" class="edge">
<title>cli_tool_v009&#45;&gt;implement_version_cmd</title>
<path fill="none" stroke="#28a745" d="M485.54,-112.67C499.05,-105.69 513.59,-98.48 527.32,-92.3 541.14,-86.06 555.97,-79.88 570.52,-74.08"/>
<polygon fill="#28a745" stroke="#28a745" points="571.62,-77.41 579.65,-70.49 569.06,-70.9 571.62,-77.41"/>
</g>
<!-- i172_version_cmd -->
<g id="node4" class="node">
<title>i172_version_cmd</title>
<polygon fill="#c3e6cb" stroke="#28a745" points="984.89,-83.5 848.09,-83.5 848.09,-25.1 984.89,-25.1 984.89,-83.5"/>
<text xml:space="preserve" text-anchor="middle" x="916.49" y="-66.9" font-family="Times,serif" font-size="14.00">i172_version_cmd</text>
<text xml:space="preserve" text-anchor="middle" x="916.49" y="-50.1" font-family="Times,serif" font-size="14.00">CLI &#45;&#45;version</text>
<text xml:space="preserve" text-anchor="middle" x="916.49" y="-33.3" font-family="Times,serif" font-size="14.00">コマンド (#172)</text>
</g>
<!-- publish_cli_v0010 -->
<g id="node16" class="node">
<title>publish_cli_v0010</title>
<ellipse fill="#c3e6cb" stroke="#28a745" cx="1128.02" cy="-142.3" rx="89.13" ry="29.42"/>
<text xml:space="preserve" text-anchor="middle" x="1128.02" y="-146.5" font-family="Times,serif" font-size="14.00">publish_cli_v0010</text>
<text xml:space="preserve" text-anchor="middle" x="1128.02" y="-129.7" font-family="Times,serif" font-size="14.00">CLI v0.0.10リリース</text>
</g>
<!-- i172_version_cmd&#45;&gt;publish_cli_v0010 -->
<g id="edge9" class="edge">
<title>i172_version_cmd&#45;&gt;publish_cli_v0010</title>
<path fill="none" stroke="#28a745" d="M985.23,-82.74C1009.6,-92.98 1037.04,-104.5 1061.24,-114.67"/>
<polygon fill="#28a745" stroke="#28a745" points="1059.78,-117.85 1070.36,-118.5 1062.49,-111.4 1059.78,-117.85"/>
</g>
<!-- i177_subcommand_help -->
<g id="node5" class="node">
<title>i177_subcommand_help</title>
<polygon fill="#c3e6cb" stroke="#28a745" points="993.31,-171.5 839.66,-171.5 839.66,-113.1 993.31,-113.1 993.31,-171.5"/>
<text xml:space="preserve" text-anchor="middle" x="916.49" y="-154.9" font-family="Times,serif" font-size="14.00">i177_subcommand_help</text>
<text xml:space="preserve" text-anchor="middle" x="916.49" y="-138.1" font-family="Times,serif" font-size="14.00">CLI per&#45;command</text>
<text xml:space="preserve" text-anchor="middle" x="916.49" y="-121.3" font-family="Times,serif" font-size="14.00">&#45;&#45;help (#177)</text>
</g>
<!-- i177_subcommand_help&#45;&gt;publish_cli_v0010 -->
<g id="edge10" class="edge">
<title>i177_subcommand_help&#45;&gt;publish_cli_v0010</title>
<path fill="none" stroke="#28a745" d="M993.73,-142.3C1004.61,-142.3 1015.94,-142.3 1027.19,-142.3"/>
<polygon fill="#28a745" stroke="#28a745" points="1026.88,-145.8 1036.88,-142.3 1026.88,-138.8 1026.88,-145.8"/>
</g>
<!-- i178_stdin -->
<g id="node6" class="node">
<title>i178_stdin</title>
<polygon fill="#c3e6cb" stroke="#28a745" points="1002.89,-241.1 830.09,-241.1 830.09,-199.5 1002.89,-199.5 1002.89,-241.1"/>
<text xml:space="preserve" text-anchor="middle" x="916.49" y="-224.5" font-family="Times,serif" font-size="14.00">i178_stdin</text>
<text xml:space="preserve" text-anchor="middle" x="916.49" y="-207.7" font-family="Times,serif" font-size="14.00">CLI stdin 対応 (#178)</text>
</g>
<!-- i178_stdin&#45;&gt;publish_cli_v0010 -->
<g id="edge11" class="edge">
<title>i178_stdin&#45;&gt;publish_cli_v0010</title>
<path fill="none" stroke="#28a745" d="M974.47,-199.08C1000.04,-189.57 1030.44,-178.25 1057.35,-168.23"/>
<polygon fill="#28a745" stroke="#28a745" points="1058.29,-171.61 1066.44,-164.85 1055.85,-165.05 1058.29,-171.61"/>
</g>
<!-- i180_no_color -->
<g id="node7" class="node">
<title>i180_no_color</title>
<polygon fill="#c3e6cb" stroke="#28a745" points="1838.26,-179.9 1701.46,-179.9 1701.46,-104.7 1838.26,-104.7 1838.26,-179.9"/>
<text xml:space="preserve" text-anchor="middle" x="1769.86" y="-163.3" font-family="Times,serif" font-size="14.00">i180_no_color</text>
<text xml:space="preserve" text-anchor="middle" x="1769.86" y="-146.5" font-family="Times,serif" font-size="14.00">CLI &#45;&#45;no&#45;color /</text>
<text xml:space="preserve" text-anchor="middle" x="1769.86" y="-129.7" font-family="Times,serif" font-size="14.00">NO_COLOR 対応 </text>
<text xml:space="preserve" text-anchor="middle" x="1769.86" y="-112.9" font-family="Times,serif" font-size="14.00">#180)</text>
</g>
<!-- i180_no_color&#45;&gt;publish_cli_further -->
<g id="edge12" class="edge">
<title>i180_no_color&#45;&gt;publish_cli_further</title>
<path fill="none" stroke="#28a745" d="M1838.5,-142.3C1850.88,-142.3 1864.03,-142.3 1877.08,-142.3"/>
<polygon fill="#28a745" stroke="#28a745" points="1876.99,-145.8 1886.99,-142.3 1876.99,-138.8 1876.99,-145.8"/>
</g>
<!-- i181_json_output -->
<g id="node8" class="node">
<title>i181_json_output</title>
<polygon fill="#c3e6cb" stroke="#28a745" points="1852.66,-258.5 1687.06,-258.5 1687.06,-200.1 1852.66,-200.1 1852.66,-258.5"/>
<text xml:space="preserve" text-anchor="middle" x="1769.86" y="-241.9" font-family="Times,serif" font-size="14.00">i181_json_output</text>
<text xml:space="preserve" text-anchor="middle" x="1769.86" y="-225.1" font-family="Times,serif" font-size="14.00">CLI &#45;&#45;json 出力対応 </text>
<text xml:space="preserve" text-anchor="middle" x="1769.86" y="-208.3" font-family="Times,serif" font-size="14.00">#181)</text>
</g>
<!-- i181_json_output&#45;&gt;publish_cli_further -->
<g id="edge13" class="edge">
<title>i181_json_output&#45;&gt;publish_cli_further</title>
<path fill="none" stroke="#28a745" d="M1840.49,-199.6C1859.67,-191.42 1880.55,-182.52 1900,-174.22"/>
<polygon fill="#28a745" stroke="#28a745" points="1901.12,-177.55 1908.95,-170.4 1898.38,-171.11 1901.12,-177.55"/>
</g>
<!-- implement_json_output&#45;&gt;i181_json_output -->
<g id="edge14" class="edge">
<title>implement_json_output&#45;&gt;i181_json_output</title>
<path fill="none" stroke="#28a745" d="M1651.28,-230.35C1659.39,-230.28 1667.54,-230.21 1675.57,-230.13"/>
<polygon fill="#28a745" stroke="#28a745" points="1675.33,-233.64 1685.3,-230.05 1675.27,-226.64 1675.33,-233.64"/>
</g>
<!-- implement_no_color&#45;&gt;i180_no_color -->
<g id="edge15" class="edge">
<title>implement_no_color&#45;&gt;i180_no_color</title>
<path fill="none" stroke="#28a745" d="M1639.95,-142.3C1656.64,-142.3 1673.89,-142.3 1690.12,-142.3"/>
<polygon fill="#28a745" stroke="#28a745" points="1689.66,-145.8 1699.66,-142.3 1689.66,-138.8 1689.66,-145.8"/>
</g>
<!-- implement_stdin&#45;&gt;i178_stdin -->
<g id="edge16" class="edge">
<title>implement_stdin&#45;&gt;i178_stdin</title>
<path fill="none" stroke="#28a745" d="M738.54,-227.96C763.68,-226.87 791.96,-225.65 818.4,-224.5"/>
<polygon fill="#28a745" stroke="#28a745" points="818.25,-228.01 828.09,-224.08 817.95,-221.02 818.25,-228.01"/>
</g>
<!-- implement_subcommand_help&#45;&gt;i177_subcommand_help -->
<g id="edge17" class="edge">
<title>implement_subcommand_help&#45;&gt;i177_subcommand_help</title>
<path fill="none" stroke="#28a745" d="M794.54,-142.3C805.94,-142.3 817.26,-142.3 828.16,-142.3"/>
<polygon fill="#28a745" stroke="#28a745" points="827.83,-145.8 837.83,-142.3 827.83,-138.8 827.83,-145.8"/>
</g>
<!-- implement_version_cmd&#45;&gt;i172_version_cmd -->
<g id="edge18" class="edge">
<title>implement_version_cmd&#45;&gt;i172_version_cmd</title>
<path fill="none" stroke="#28a745" d="M769.7,-46.83C792.01,-47.97 815.12,-49.15 836.18,-50.23"/>
<polygon fill="#28a745" stroke="#28a745" points="835.98,-53.73 846.14,-50.74 836.33,-46.74 835.98,-53.73"/>
</g>
<!-- published_cli -->
<g id="node18" class="node">
<title>published_cli</title>
<polygon fill="#f5c6cb" stroke="#dc3545" points="491.32,-240.1 368.92,-240.1 368.92,-198.5 491.32,-198.5 491.32,-240.1"/>
<text xml:space="preserve" text-anchor="middle" x="430.12" y="-223.5" font-family="Times,serif" font-size="14.00">published_cli</text>
<text xml:space="preserve" text-anchor="middle" x="430.12" y="-206.7" font-family="Times,serif" font-size="14.00">npm公開済みCLI</text>
</g>
<!-- publish_cli&#45;&gt;published_cli -->
<g id="edge19" class="edge">
<title>publish_cli&#45;&gt;published_cli</title>
<path fill="none" stroke="#dc3545" stroke-dasharray="5,2" d="M308.35,-219.3C323.86,-219.3 341,-219.3 357.37,-219.3"/>
<polygon fill="#dc3545" stroke="#dc3545" points="357.04,-222.8 367.04,-219.3 357.04,-215.8 357.04,-222.8"/>
</g>
<!-- published_cli_further -->
<g id="node19" class="node">
<title>published_cli_further</title>
<polygon fill="#c3e6cb" stroke="#28a745" points="2271.85,-171.5 2099.05,-171.5 2099.05,-113.1 2271.85,-113.1 2271.85,-171.5"/>
<text xml:space="preserve" text-anchor="middle" x="2185.45" y="-154.9" font-family="Times,serif" font-size="14.00">published_cli_further</text>
<text xml:space="preserve" text-anchor="middle" x="2185.45" y="-138.1" font-family="Times,serif" font-size="14.00">npm公開済みCLI（</text>
<text xml:space="preserve" text-anchor="middle" x="2185.45" y="-121.3" font-family="Times,serif" font-size="14.00">次次期版）</text>
</g>
<!-- publish_cli_further&#45;&gt;published_cli_further -->
<g id="edge20" class="edge">
<title>publish_cli_further&#45;&gt;published_cli_further</title>
<path fill="none" stroke="#28a745" d="M2063.39,-142.3C2071.33,-142.3 2079.41,-142.3 2087.43,-142.3"/>
<polygon fill="#28a745" stroke="#28a745" points="2087.21,-145.8 2097.21,-142.3 2087.21,-138.8 2087.21,-145.8"/>
</g>
<!-- publish_cli_v0010&#45;&gt;cli_tool_v0010 -->
<g id="edge21" class="edge">
<title>publish_cli_v0010&#45;&gt;cli_tool_v0010</title>
<path fill="none" stroke="#28a745" d="M1217.63,-142.3C1225.49,-142.3 1233.44,-142.3 1241.28,-142.3"/>
<polygon fill="#28a745" stroke="#28a745" points="1241.15,-145.8 1251.15,-142.3 1241.15,-138.8 1241.15,-145.8"/>
</g>
<!-- publish_cli_v009&#45;&gt;cli_tool_v009 -->
<g id="edge22" class="edge">
<title>publish_cli_v009&#45;&gt;cli_tool_v009</title>
<path fill="none" stroke="#28a745" d="M333.28,-142.3C342.52,-142.3 351.87,-142.3 360.94,-142.3"/>
<polygon fill="#28a745" stroke="#28a745" points="360.72,-145.8 370.72,-142.3 360.72,-138.8 360.72,-145.8"/>
</g>
</g>
</svg>
