<?xml version="1.0" encoding="UTF-8" standalone="no"?>
<!DOCTYPE svg PUBLIC "-//W3C//DTD SVG 1.1//EN"
 "http://www.w3.org/Graphics/SVG/1.1/DTD/svg11.dtd">
<!-- Generated by graphviz version 15.1.0 (0)
 -->
<!-- Title: PFDSL Pages: 1 -->
<svg width="671pt" height="201pt"
 viewBox="0.00 0.00 671.00 201.00" xmlns="http://www.w3.org/2000/svg" xmlns:xlink="http://www.w3.org/1999/xlink">
<g id="graph0" class="graph" transform="scale(1 1) rotate(0) translate(4 197.4)">
<title>PFDSL</title>
<polygon fill="white" stroke="none" points="-4,4 -4,-197.4 666.77,-197.4 666.77,4 -4,4"/>
<text xml:space="preserve" text-anchor="middle" x="331.38" y="-176.8" font-family="Times,serif" font-size="14.00">Issue 依存フロー（2026&#45;06） — diff</text>
<text xml:space="preserve" text-anchor="middle" x="331.38" y="-160" font-family="Times,serif" font-size="14.00">green = added · red = removed · yellow = changed</text>
<!-- diag_registry -->
<g id="node1" class="node">
<title>diag_registry</title>
<polygon fill="#f5c6cb" stroke="#dc3545" points="662.77,-108.8 504.37,-108.8 504.37,-50.4 662.77,-50.4 662.77,-108.8"/>
<text xml:space="preserve" text-anchor="middle" x="583.57" y="-92.2" font-family="Times,serif" font-size="14.00">diag_registry</text>
<text xml:space="preserve" text-anchor="middle" x="583.57" y="-75.4" font-family="Times,serif" font-size="14.00">診断コードレジスト</text>
<text xml:space="preserve" text-anchor="middle" x="583.57" y="-58.6" font-family="Times,serif" font-size="14.00">リ + CI 突合 (#299)</text>
</g>
<!-- i299_implement_diag_registry -->
<g id="node2" class="node">
<title>i299_implement_diag_registry</title>
<ellipse fill="#f5c6cb" stroke="#dc3545" cx="334.98" cy="-79.6" rx="133.38" ry="41.3"/>
<text xml:space="preserve" text-anchor="middle" x="334.98" y="-92.2" font-family="Times,serif" font-size="14.00">i299_implement_diag_registry</text>
<text xml:space="preserve" text-anchor="middle" x="334.98" y="-75.4" font-family="Times,serif" font-size="14.00">診断コードレジスト</text>
<text xml:space="preserve" text-anchor="middle" x="334.98" y="-58.6" font-family="Times,serif" font-size="14.00">リ整備</text>
</g>
<!-- i299_implement_diag_registry&#45;&gt;diag_registry -->
<g id="edge1" class="edge">
<title>i299_implement_diag_registry&#45;&gt;diag_registry</title>
<path fill="none" stroke="#dc3545" stroke-dasharray="5,2" d="M468.66,-79.6C476.78,-79.6 484.84,-79.6 492.71,-79.6"/>
<polygon fill="#dc3545" stroke="#dc3545" points="492.57,-83.1 502.57,-79.6 492.57,-76.1 492.57,-83.1"/>
</g>
<!-- recode -->
<g id="node3" class="node">
<title>recode</title>
<polygon fill="#f5f5f5" stroke="#bbbbbb" points="158.4,-151.8 7.2,-151.8 7.2,-93.4 158.4,-93.4 158.4,-151.8"/>
<text xml:space="preserve" text-anchor="middle" x="82.8" y="-135.2" font-family="Times,serif" font-size="14.00" fill="#777777">recode</text>
<text xml:space="preserve" text-anchor="middle" x="82.8" y="-118.4" font-family="Times,serif" font-size="14.00" fill="#777777">V025 二重割当解消 </text>
<text xml:space="preserve" text-anchor="middle" x="82.8" y="-101.6" font-family="Times,serif" font-size="14.00" fill="#777777">#297)</text>
</g>
<!-- recode&#45;&gt;i299_implement_diag_registry -->
<g id="edge2" class="edge">
<title>recode&#45;&gt;i299_implement_diag_registry</title>
<path fill="none" stroke="#dc3545" stroke-dasharray="5,2" d="M158.86,-109.7C173.95,-107.11 190.2,-104.31 206.5,-101.51"/>
<polygon fill="#dc3545" stroke="#dc3545" points="207.03,-104.97 216.29,-99.83 205.84,-98.07 207.03,-104.97"/>
</g>
<!-- spec_v0011 -->
<g id="node4" class="node">
<title>spec_v0011</title>
<polygon fill="#f5f5f5" stroke="#bbbbbb" points="165.6,-75.2 0,-75.2 0,0 165.6,0 165.6,-75.2"/>
<text xml:space="preserve" text-anchor="middle" x="82.8" y="-58.6" font-family="Times,serif" font-size="14.00" fill="#777777">spec_v0011</text>
<text xml:space="preserve" text-anchor="middle" x="82.8" y="-41.8" font-family="Times,serif" font-size="14.00" fill="#777777">仕様書 v0.0</text>
<text xml:space="preserve" text-anchor="middle" x="82.8" y="-25" font-family="Times,serif" font-size="14.00" fill="#777777">11（waiting/suspende</text>
<text xml:space="preserve" text-anchor="middle" x="82.8" y="-8.2" font-family="Times,serif" font-size="14.00" fill="#777777">d/type統合）</text>
</g>
<!-- spec_v0011&#45;&gt;i299_implement_diag_registry -->
<g id="edge3" class="edge">
<title>spec_v0011&#45;&gt;i299_implement_diag_registry</title>
<path fill="none" stroke="#dc3545" stroke-dasharray="5,2" d="M166.07,-51.41C178.99,-53.58 192.61,-55.87 206.27,-58.16"/>
<polygon fill="#dc3545" stroke="#dc3545" points="205.28,-61.54 215.72,-59.75 206.44,-54.64 205.28,-61.54"/>
</g>
</g>
</svg>
