<?xml version="1.0" encoding="UTF-8" standalone="no"?>
<!DOCTYPE svg PUBLIC "-//W3C//DTD SVG 1.1//EN"
 "http://www.w3.org/Graphics/SVG/1.1/DTD/svg11.dtd">
<!-- Generated by graphviz version 14.1.4 (0)
 -->
<!-- Title: PFDSL Pages: 1 -->
<svg width="366pt" height="108pt"
 viewBox="0.00 0.00 366.00 108.00" xmlns="http://www.w3.org/2000/svg" xmlns:xlink="http://www.w3.org/1999/xlink">
<g id="graph0" class="graph" transform="scale(1 1) rotate(0) translate(4 104.43)">
<title>PFDSL</title>
<polygon fill="white" stroke="none" points="-4,4 -4,-104.43 361.87,-104.43 361.87,4 -4,4"/>
<text xml:space="preserve" text-anchor="middle" x="178.94" y="-83.83" font-family="Times,serif" font-size="14.00">pfdsl CLI 変換パイプライン — diff</text>
<text xml:space="preserve" text-anchor="middle" x="178.94" y="-67.03" font-family="Times,serif" font-size="14.00">green = added · red = removed · yellow = changed</text>
<!-- assemble_plugin -->
<g id="node1" class="node">
<title>assemble_plugin</title>
<ellipse fill="#f5f5f5" stroke="#bbbbbb" cx="279.74" cy="-29.42" rx="78.14" ry="29.42"/>
<text xml:space="preserve" text-anchor="middle" x="279.74" y="-33.62" font-family="Times,serif" font-size="14.00" fill="#777777">assemble_plugin</text>
<text xml:space="preserve" text-anchor="middle" x="279.74" y="-16.82" font-family="Times,serif" font-size="14.00" fill="#777777">プラグイン組み立て</text>
</g>
<!-- grill_skill -->
<g id="node2" class="node">
<title>grill_skill</title>
<polygon fill="#c3e6cb" stroke="#28a745" points="165.6,-58.62 0,-58.62 0,-0.22 165.6,-0.22 165.6,-58.62"/>
<text xml:space="preserve" text-anchor="middle" x="82.8" y="-42.02" font-family="Times,serif" font-size="14.00">grill_skill</text>
<text xml:space="preserve" text-anchor="middle" x="82.8" y="-25.22" font-family="Times,serif" font-size="14.00">後ろ向き対話構築スキ</text>
<text xml:space="preserve" text-anchor="middle" x="82.8" y="-8.42" font-family="Times,serif" font-size="14.00">ル</text>
</g>
<!-- grill_skill&#45;&gt;assemble_plugin -->
<g id="edge1" class="edge">
<title>grill_skill&#45;&gt;assemble_plugin</title>
<path fill="none" stroke="#28a745" d="M165.91,-29.42C173.9,-29.42 182.03,-29.42 190.08,-29.42"/>
<polygon fill="#28a745" stroke="#28a745" points="189.88,-32.92 199.88,-29.42 189.88,-25.92 189.88,-32.92"/>
</g>
</g>
</svg>
