<?xml version="1.0" encoding="UTF-8" standalone="no"?>
<!DOCTYPE svg PUBLIC "-//W3C//DTD SVG 1.1//EN"
 "http://www.w3.org/Graphics/SVG/1.1/DTD/svg11.dtd">
<!-- Generated by graphviz version 14.1.4 (0)
 -->
<!-- Title: PFDSL Pages: 1 -->
<svg width="514pt" height="278pt"
 viewBox="0.00 0.00 514.00 278.00" xmlns="http://www.w3.org/2000/svg" xmlns:xlink="http://www.w3.org/1999/xlink">
<g id="graph0" class="graph" transform="scale(1 1) rotate(0) translate(4 274.22)">
<title>PFDSL</title>
<polygon fill="white" stroke="none" points="-4,4 -4,-274.22 510.04,-274.22 510.04,4 -4,4"/>
<text xml:space="preserve" text-anchor="middle" x="253.02" y="-253.62" font-family="Times,serif" font-size="14.00">pfdsl開発ワークフロー — diff</text>
<text xml:space="preserve" text-anchor="middle" x="253.02" y="-236.82" font-family="Times,serif" font-size="14.00">green = added · red = removed · yellow = changed</text>
<!-- distill_ops -->
<g id="node1" class="node">
<title>distill_ops</title>
<ellipse fill="#f5f5f5" stroke="#bbbbbb" cx="78.14" cy="-29.42" rx="78.14" ry="29.42"/>
<text xml:space="preserve" text-anchor="middle" x="78.14" y="-33.62" font-family="Times,serif" font-size="14.00" fill="#777777">distill_ops</text>
<text xml:space="preserve" text-anchor="middle" x="78.14" y="-16.82" font-family="Times,serif" font-size="14.00" fill="#777777">運用プロトコル蒸留</text>
</g>
<!-- grill_skill -->
<g id="node3" class="node">
<title>grill_skill</title>
<polygon fill="#c3e6cb" stroke="#28a745" points="343.47,-58.62 192.27,-58.62 192.27,-0.22 343.47,-0.22 343.47,-58.62"/>
<text xml:space="preserve" text-anchor="middle" x="267.87" y="-42.02" font-family="Times,serif" font-size="14.00">grill_skill</text>
<text xml:space="preserve" text-anchor="middle" x="267.87" y="-25.22" font-family="Times,serif" font-size="14.00">後ろ向き対話構築ス</text>
<text xml:space="preserve" text-anchor="middle" x="267.87" y="-8.42" font-family="Times,serif" font-size="14.00">キル</text>
</g>
<!-- distill_ops&#45;&gt;grill_skill -->
<g id="edge1" class="edge">
<title>distill_ops&#45;&gt;grill_skill</title>
<path fill="none" stroke="#28a745" d="M156.58,-29.42C164.54,-29.42 172.67,-29.42 180.72,-29.42"/>
<polygon fill="#28a745" stroke="#28a745" points="180.51,-32.92 190.51,-29.42 180.51,-25.92 180.51,-32.92"/>
</g>
<!-- gen_plugin -->
<g id="node2" class="node">
<title>gen_plugin</title>
<ellipse fill="#ffeeba" stroke="#e0a800" cx="442.76" cy="-114.42" rx="63.29" ry="29.42"/>
<text xml:space="preserve" text-anchor="middle" x="442.76" y="-118.62" font-family="Times,serif" font-size="14.00">gen_plugin</text>
<text xml:space="preserve" text-anchor="middle" x="442.76" y="-101.82" font-family="Times,serif" font-size="14.00">プラグイン生成</text>
</g>
<!-- grill_skill&#45;&gt;gen_plugin -->
<g id="edge2" class="edge">
<title>grill_skill&#45;&gt;gen_plugin</title>
<path fill="none" stroke="#28a745" d="M328.85,-58.91C348.11,-68.37 369.3,-78.79 388.08,-88.02"/>
<polygon fill="#28a745" stroke="#28a745" points="386.35,-91.08 396.87,-92.35 389.44,-84.79 386.35,-91.08"/>
</g>
<!-- publish_cli -->
<g id="node7" class="node">
<title>publish_cli</title>
<ellipse fill="#f5f5f5" stroke="#bbbbbb" cx="442.76" cy="-29.42" rx="55.31" ry="29.42"/>
<text xml:space="preserve" text-anchor="middle" x="442.76" y="-33.62" font-family="Times,serif" font-size="14.00" fill="#777777">publish_cli</text>
<text xml:space="preserve" text-anchor="middle" x="442.76" y="-16.82" font-family="Times,serif" font-size="14.00" fill="#777777">CLI 公開</text>
</g>
<!-- grill_skill&#45;&gt;publish_cli -->
<g id="edge3" class="edge">
<title>grill_skill&#45;&gt;publish_cli</title>
<path fill="none" stroke="#28a745" d="M343.95,-29.42C354.47,-29.42 365.23,-29.42 375.58,-29.42"/>
<polygon fill="#28a745" stroke="#28a745" points="375.53,-32.92 385.53,-29.42 375.53,-25.92 375.53,-32.92"/>
</g>
<!-- ops_skill_general -->
<g id="node4" class="node">
<title>ops_skill_general</title>
<polygon fill="#f5f5f5" stroke="#bbbbbb" points="339.87,-228.62 195.87,-228.62 195.87,-170.22 339.87,-170.22 339.87,-228.62"/>
<text xml:space="preserve" text-anchor="middle" x="267.87" y="-212.02" font-family="Times,serif" font-size="14.00" fill="#777777">ops_skill_general</text>
<text xml:space="preserve" text-anchor="middle" x="267.87" y="-195.22" font-family="Times,serif" font-size="14.00" fill="#777777">PFD運用スキル（汎</text>
<text xml:space="preserve" text-anchor="middle" x="267.87" y="-178.42" font-family="Times,serif" font-size="14.00" fill="#777777">用層）</text>
</g>
<!-- ops_skill_general&#45;&gt;gen_plugin -->
<g id="edge4" class="edge">
<title>ops_skill_general&#45;&gt;gen_plugin</title>
<path fill="none" stroke="#28a745" d="M328.85,-169.93C348.11,-160.46 369.3,-150.04 388.08,-140.81"/>
<polygon fill="#28a745" stroke="#28a745" points="389.44,-144.04 396.87,-136.48 386.35,-137.75 389.44,-144.04"/>
</g>
<!-- ops_skill_l3 -->
<g id="node5" class="node">
<title>ops_skill_l3</title>
<polygon fill="#f5f5f5" stroke="#bbbbbb" points="343.47,-152.02 192.27,-152.02 192.27,-76.82 343.47,-76.82 343.47,-152.02"/>
<text xml:space="preserve" text-anchor="middle" x="267.87" y="-135.42" font-family="Times,serif" font-size="14.00" fill="#777777">ops_skill_l3</text>
<text xml:space="preserve" text-anchor="middle" x="267.87" y="-118.62" font-family="Times,serif" font-size="14.00" fill="#777777">PFD運用スキル（Git</text>
<text xml:space="preserve" text-anchor="middle" x="267.87" y="-101.82" font-family="Times,serif" font-size="14.00" fill="#777777">Hub Issuesバックエ</text>
<text xml:space="preserve" text-anchor="middle" x="267.87" y="-85.02" font-family="Times,serif" font-size="14.00" fill="#777777">ンド層）</text>
</g>
<!-- ops_skill_l3&#45;&gt;gen_plugin -->
<g id="edge5" class="edge">
<title>ops_skill_l3&#45;&gt;gen_plugin</title>
<path fill="none" stroke="#28a745" d="M343.95,-114.42C351.84,-114.42 359.87,-114.42 367.76,-114.42"/>
<polygon fill="#28a745" stroke="#28a745" points="367.67,-117.92 377.67,-114.42 367.67,-110.92 367.67,-117.92"/>
</g>
<!-- plugin_dist -->
<g id="node6" class="node">
<title>plugin_dist</title>
<polygon fill="#ffeeba" stroke="#e0a800" points="139.34,-135.62 16.94,-135.62 16.94,-77.22 139.34,-77.22 139.34,-135.62"/>
<text xml:space="preserve" text-anchor="middle" x="78.14" y="-119.02" font-family="Times,serif" font-size="14.00">plugin_dist</text>
<text xml:space="preserve" text-anchor="middle" x="78.14" y="-102.22" font-family="Times,serif" font-size="14.00">marketplace</text>
<text xml:space="preserve" text-anchor="middle" x="78.14" y="-85.42" font-family="Times,serif" font-size="14.00">配布プラグイン</text>
</g>
<!-- published_cli -->
<g id="node8" class="node">
<title>published_cli</title>
<polygon fill="#ffeeba" stroke="#e0a800" points="135.74,-195.22 20.54,-195.22 20.54,-153.62 135.74,-153.62 135.74,-195.22"/>
<text xml:space="preserve" text-anchor="middle" x="78.14" y="-178.62" font-family="Times,serif" font-size="14.00">published_cli</text>
<text xml:space="preserve" text-anchor="middle" x="78.14" y="-161.82" font-family="Times,serif" font-size="14.00">npm 公開 CLI</text>
</g>
</g>
</svg>
