<?xml version="1.0" encoding="UTF-8" standalone="no"?>
<!DOCTYPE svg PUBLIC "-//W3C//DTD SVG 1.1//EN"
 "http://www.w3.org/Graphics/SVG/1.1/DTD/svg11.dtd">
<!-- Generated by graphviz version 15.1.0 (0)
 -->
<!-- Title: PFDSL Pages: 1 -->
<svg width="613pt" height="132pt"
 viewBox="0.00 0.00 613.00 132.00" xmlns="http://www.w3.org/2000/svg" xmlns:xlink="http://www.w3.org/1999/xlink">
<g id="graph0" class="graph" transform="scale(1 1) rotate(0) translate(4 128.19)">
<title>PFDSL</title>
<polygon fill="white" stroke="none" points="-4,4 -4,-128.19 608.88,-128.19 608.88,4 -4,4"/>
<text xml:space="preserve" text-anchor="middle" x="302.44" y="-107.59" font-family="Times,serif" font-size="14.00">Issue 依存フロー（2026&#45;06） — diff</text>
<text xml:space="preserve" text-anchor="middle" x="302.44" y="-90.79" font-family="Times,serif" font-size="14.00">green = added · red = removed · yellow = changed</text>
<!-- adoption_probe -->
<g id="node1" class="node">
<title>adoption_probe</title>
<polygon fill="#f5c6cb" stroke="#dc3545" points="604.88,-78.9 460.88,-78.9 460.88,-3.7 604.88,-3.7 604.88,-78.9"/>
<text xml:space="preserve" text-anchor="middle" x="532.88" y="-62.3" font-family="Times,serif" font-size="14.00">adoption_probe</text>
<text xml:space="preserve" text-anchor="middle" x="532.88" y="-45.5" font-family="Times,serif" font-size="14.00">plugin</text>
<text xml:space="preserve" text-anchor="middle" x="532.88" y="-28.7" font-family="Times,serif" font-size="14.00">採用初日プローブ </text>
<text xml:space="preserve" text-anchor="middle" x="532.88" y="-11.9" font-family="Times,serif" font-size="14.00">#352)</text>
</g>
<!-- i352_probe_adoption_day -->
<g id="node2" class="node">
<title>i352_probe_adoption_day</title>
<ellipse fill="#f5c6cb" stroke="#dc3545" cx="309.64" cy="-41.3" rx="115.24" ry="41.3"/>
<text xml:space="preserve" text-anchor="middle" x="309.64" y="-53.9" font-family="Times,serif" font-size="14.00">i352_probe_adoption_day</text>
<text xml:space="preserve" text-anchor="middle" x="309.64" y="-37.1" font-family="Times,serif" font-size="14.00">採用初日プローブ実</text>
<text xml:space="preserve" text-anchor="middle" x="309.64" y="-20.3" font-family="Times,serif" font-size="14.00">施</text>
</g>
<!-- i352_probe_adoption_day&#45;&gt;adoption_probe -->
<g id="edge1" class="edge">
<title>i352_probe_adoption_day&#45;&gt;adoption_probe</title>
<path fill="none" stroke="#dc3545" stroke-dasharray="5,2" d="M425.15,-41.3C433.22,-41.3 441.27,-41.3 449.12,-41.3"/>
<polygon fill="#dc3545" stroke="#dc3545" points="448.94,-44.8 458.94,-41.3 448.94,-37.8 448.94,-44.8"/>
</g>
<!-- pfd_ops_plugin_dist -->
<g id="node3" class="node">
<title>pfd_ops_plugin_dist</title>
<polygon fill="#f5f5f5" stroke="#bbbbbb" points="158.4,-70.5 0,-70.5 0,-12.1 158.4,-12.1 158.4,-70.5"/>
<text xml:space="preserve" text-anchor="middle" x="79.2" y="-53.9" font-family="Times,serif" font-size="14.00" fill="#777777">pfd_ops_plugin_dist</text>
<text xml:space="preserve" text-anchor="middle" x="79.2" y="-37.1" font-family="Times,serif" font-size="14.00" fill="#777777">pfd&#45;ops 統合済み</text>
<text xml:space="preserve" text-anchor="middle" x="79.2" y="-20.3" font-family="Times,serif" font-size="14.00" fill="#777777">plugin 配布 (#404)</text>
</g>
<!-- pfd_ops_plugin_dist&#45;&gt;i352_probe_adoption_day -->
<g id="edge2" class="edge">
<title>pfd_ops_plugin_dist&#45;&gt;i352_probe_adoption_day</title>
<path fill="none" stroke="#dc3545" stroke-dasharray="5,2" d="M158.82,-41.3C166.54,-41.3 174.5,-41.3 182.54,-41.3"/>
<polygon fill="#dc3545" stroke="#dc3545" points="182.42,-44.8 192.42,-41.3 182.42,-37.8 182.42,-44.8"/>
</g>
</g>
</svg>
