<?xml version="1.0" encoding="UTF-8" standalone="no"?>
<!DOCTYPE svg PUBLIC "-//W3C//DTD SVG 1.1//EN"
 "http://www.w3.org/Graphics/SVG/1.1/DTD/svg11.dtd">
<!-- Generated by graphviz version 15.1.0 (0)
 -->
<!-- Title: PFDSL Pages: 1 -->
<svg width="492pt" height="168pt"
 viewBox="0.00 0.00 492.00 168.00" xmlns="http://www.w3.org/2000/svg" xmlns:xlink="http://www.w3.org/1999/xlink">
<g id="graph0" class="graph" transform="scale(1 1) rotate(0) translate(4 163.6)">
<title>PFDSL</title>
<polygon fill="white" stroke="none" points="-4,4 -4,-163.6 487.54,-163.6 487.54,4 -4,4"/>
<text xml:space="preserve" text-anchor="middle" x="241.77" y="-143" font-family="Times,serif" font-size="14.00">pfdsl開発ワークフロー — diff</text>
<text xml:space="preserve" text-anchor="middle" x="241.77" y="-126.2" font-family="Times,serif" font-size="14.00">green = added · red = removed · yellow = changed</text>
<!-- distill_ops -->
<g id="node1" class="node">
<title>distill_ops</title>
<ellipse fill="#f5f5f5" stroke="#bbbbbb" cx="78.14" cy="-63.2" rx="78.14" ry="29.42"/>
<text xml:space="preserve" text-anchor="middle" x="78.14" y="-67.4" font-family="Times,serif" font-size="14.00" fill="#777777">distill_ops</text>
<text xml:space="preserve" text-anchor="middle" x="78.14" y="-50.6" font-family="Times,serif" font-size="14.00" fill="#777777">運用プロトコル蒸留</text>
</g>
<!-- review_perspectives -->
<g id="node3" class="node">
<title>review_perspectives</title>
<polygon fill="#c3e6cb" stroke="#28a745" points="350.67,-118 192.27,-118 192.27,-76.4 350.67,-76.4 350.67,-118"/>
<text xml:space="preserve" text-anchor="middle" x="271.47" y="-101.4" font-family="Times,serif" font-size="14.00">review_perspectives</text>
<text xml:space="preserve" text-anchor="middle" x="271.47" y="-84.6" font-family="Times,serif" font-size="14.00">レビュー観点集</text>
</g>
<!-- distill_ops&#45;&gt;review_perspectives -->
<g id="edge1" class="edge">
<title>distill_ops&#45;&gt;review_perspectives</title>
<path fill="none" stroke="#28a745" d="M149.3,-75.67C159.59,-77.5 170.3,-79.4 180.92,-81.29"/>
<polygon fill="#28a745" stroke="#28a745" points="179.97,-84.67 190.43,-82.98 181.19,-77.78 179.97,-84.67"/>
</g>
<!-- review_prompts -->
<g id="node4" class="node">
<title>review_prompts</title>
<polygon fill="#f5c6cb" stroke="#dc3545" points="347.07,-58.4 195.87,-58.4 195.87,0 347.07,0 347.07,-58.4"/>
<text xml:space="preserve" text-anchor="middle" x="271.47" y="-41.8" font-family="Times,serif" font-size="14.00">review_prompts</text>
<text xml:space="preserve" text-anchor="middle" x="271.47" y="-25" font-family="Times,serif" font-size="14.00">レビュープロンプト</text>
<text xml:space="preserve" text-anchor="middle" x="271.47" y="-8.2" font-family="Times,serif" font-size="14.00">集</text>
</g>
<!-- distill_ops&#45;&gt;review_prompts -->
<g id="edge2" class="edge">
<title>distill_ops&#45;&gt;review_prompts</title>
<path fill="none" stroke="#dc3545" stroke-dasharray="5,2" d="M149.3,-50.73C160.69,-48.71 172.61,-46.59 184.33,-44.51"/>
<polygon fill="#dc3545" stroke="#dc3545" points="184.77,-47.98 194,-42.79 183.54,-41.09 184.77,-47.98"/>
</g>
<!-- gen_skill -->
<g id="node2" class="node">
<title>gen_skill</title>
<ellipse fill="#ffeeba" stroke="#e0a800" cx="435.11" cy="-63.2" rx="48.44" ry="29.42"/>
<text xml:space="preserve" text-anchor="middle" x="435.11" y="-67.4" font-family="Times,serif" font-size="14.00">gen_skill</text>
<text xml:space="preserve" text-anchor="middle" x="435.11" y="-50.6" font-family="Times,serif" font-size="14.00">スキル生成</text>
</g>
<!-- review_perspectives&#45;&gt;gen_skill -->
<g id="edge3" class="edge">
<title>review_perspectives&#45;&gt;gen_skill</title>
<path fill="none" stroke="#28a745" d="M350.92,-80.7C359.98,-78.79 369.08,-76.88 377.77,-75.05"/>
<polygon fill="#28a745" stroke="#28a745" points="378.36,-78.5 387.42,-73.02 376.92,-71.65 378.36,-78.5"/>
</g>
<!-- review_prompts&#45;&gt;gen_skill -->
<g id="edge4" class="edge">
<title>review_prompts&#45;&gt;gen_skill</title>
<path fill="none" stroke="#dc3545" stroke-dasharray="5,2" d="M347.14,-44.91C357.36,-47.06 367.72,-49.24 377.55,-51.3"/>
<polygon fill="#dc3545" stroke="#dc3545" points="376.82,-54.73 387.33,-53.36 378.26,-47.88 376.82,-54.73"/>
</g>
</g>
</svg>
