<?xml version="1.0" encoding="UTF-8" standalone="no"?>
<!DOCTYPE svg PUBLIC "-//W3C//DTD SVG 1.1//EN"
 "http://www.w3.org/Graphics/SVG/1.1/DTD/svg11.dtd">
<!-- Generated by graphviz version 14.1.4 (0)
 -->
<!-- Title: PFDSL Pages: 1 -->
<svg width="351pt" height="185pt"
 viewBox="0.00 0.00 351.00 185.00" xmlns="http://www.w3.org/2000/svg" xmlns:xlink="http://www.w3.org/1999/xlink">
<g id="graph0" class="graph" transform="scale(1 1) rotate(0) translate(4 181.43)">
<title>PFDSL</title>
<polygon fill="white" stroke="none" points="-4,4 -4,-181.43 347.47,-181.43 347.47,4 -4,4"/>
<text xml:space="preserve" text-anchor="middle" x="171.74" y="-160.83" font-family="Times,serif" font-size="14.00">pfdsl開発ワークフロー — diff</text>
<text xml:space="preserve" text-anchor="middle" x="171.74" y="-144.03" font-family="Times,serif" font-size="14.00">green = added · red = removed · yellow = changed</text>
<!-- develop -->
<g id="node1" class="node">
<title>develop</title>
<ellipse fill="#f5f5f5" stroke="#bbbbbb" cx="78.14" cy="-106.42" rx="78.14" ry="29.42"/>
<text xml:space="preserve" text-anchor="middle" x="78.14" y="-110.62" font-family="Times,serif" font-size="14.00" fill="#777777">develop</text>
<text xml:space="preserve" text-anchor="middle" x="78.14" y="-93.82" font-family="Times,serif" font-size="14.00" fill="#777777">ツールチェーン開発</text>
</g>
<!-- distill_ops -->
<g id="node2" class="node">
<title>distill_ops</title>
<ellipse fill="#f5f5f5" stroke="#bbbbbb" cx="78.14" cy="-29.42" rx="78.14" ry="29.42"/>
<text xml:space="preserve" text-anchor="middle" x="78.14" y="-33.62" font-family="Times,serif" font-size="14.00" fill="#777777">distill_ops</text>
<text xml:space="preserve" text-anchor="middle" x="78.14" y="-16.82" font-family="Times,serif" font-size="14.00" fill="#777777">運用プロトコル蒸留</text>
</g>
<!-- main_branch_guard -->
<g id="node3" class="node">
<title>main_branch_guard</title>
<polygon fill="#c3e6cb" stroke="#28a745" points="343.47,-58.62 192.27,-58.62 192.27,-0.22 343.47,-0.22 343.47,-58.62"/>
<text xml:space="preserve" text-anchor="middle" x="267.87" y="-42.02" font-family="Times,serif" font-size="14.00">main_branch_guard</text>
<text xml:space="preserve" text-anchor="middle" x="267.87" y="-25.22" font-family="Times,serif" font-size="14.00">mainブランチ操作ガ</text>
<text xml:space="preserve" text-anchor="middle" x="267.87" y="-8.42" font-family="Times,serif" font-size="14.00">ード</text>
</g>
<!-- distill_ops&#45;&gt;main_branch_guard -->
<g id="edge1" class="edge">
<title>distill_ops&#45;&gt;main_branch_guard</title>
<path fill="none" stroke="#28a745" d="M156.58,-29.42C164.54,-29.42 172.67,-29.42 180.72,-29.42"/>
<polygon fill="#28a745" stroke="#28a745" points="180.51,-32.92 190.51,-29.42 180.51,-25.92 180.51,-32.92"/>
</g>
<!-- main_branch_guard&#45;&gt;develop -->
<g id="edge2" class="edge">
<title>main_branch_guard&#45;&gt;develop</title>
<path fill="none" stroke="#28a745" stroke-dasharray="5,2" d="M194.51,-59.09C177.26,-66.17 158.98,-73.67 142.18,-80.56"/>
<polygon fill="#28a745" stroke="#28a745" points="141.25,-77.15 133.33,-84.19 143.91,-83.63 141.25,-77.15"/>
</g>
</g>
</svg>
