<?xml version="1.0" encoding="UTF-8" standalone="no"?>
<!DOCTYPE svg PUBLIC "-//W3C//DTD SVG 1.1//EN"
 "http://www.w3.org/Graphics/SVG/1.1/DTD/svg11.dtd">
<!-- Generated by graphviz version 14.1.4 (0)
 -->
<!-- Title: PFDSL Pages: 1 -->
<svg width="360pt" height="228pt"
 viewBox="0.00 0.00 360.00 228.00" xmlns="http://www.w3.org/2000/svg" xmlns:xlink="http://www.w3.org/1999/xlink">
<g id="graph0" class="graph" transform="scale(1 1) rotate(0) translate(4 223.6)">
<title>PFDSL</title>
<polygon fill="white" stroke="none" points="-4,4 -4,-223.6 356.27,-223.6 356.27,4 -4,4"/>
<text xml:space="preserve" text-anchor="middle" x="176.13" y="-203" font-family="Times,serif" font-size="14.00">Issue 依存フロー（2026&#45;06） — diff</text>
<text xml:space="preserve" text-anchor="middle" x="176.13" y="-186.2" font-family="Times,serif" font-size="14.00">green = added · red = removed · yellow = changed</text>
<!-- adr_corpus -->
<g id="node1" class="node">
<title>adr_corpus</title>
<polygon fill="#f5c6cb" stroke="#dc3545" points="151.2,-101.6 7.2,-101.6 7.2,-60 151.2,-60 151.2,-101.6"/>
<text xml:space="preserve" text-anchor="middle" x="79.2" y="-85" font-family="Times,serif" font-size="14.00">adr_corpus</text>
<text xml:space="preserve" text-anchor="middle" x="79.2" y="-68.2" font-family="Times,serif" font-size="14.00">ADR 群 (docs/adr)</text>
</g>
<!-- i12_write_article -->
<g id="node4" class="node">
<title>i12_write_article</title>
<ellipse fill="#f5f5f5" stroke="#bbbbbb" cx="273.33" cy="-50.8" rx="78.93" ry="29.42"/>
<text xml:space="preserve" text-anchor="middle" x="273.33" y="-55" font-family="Times,serif" font-size="14.00" fill="#777777">i12_write_article</text>
<text xml:space="preserve" text-anchor="middle" x="273.33" y="-38.2" font-family="Times,serif" font-size="14.00" fill="#777777">記事執筆</text>
</g>
<!-- adr_corpus&#45;&gt;i12_write_article -->
<g id="edge1" class="edge">
<title>adr_corpus&#45;&gt;i12_write_article</title>
<path fill="none" stroke="#dc3545" stroke-dasharray="5,2" d="M151.47,-69.67C163.57,-67.78 176.24,-65.8 188.62,-63.87"/>
<polygon fill="#dc3545" stroke="#dc3545" points="189.06,-67.35 198.4,-62.34 187.98,-60.43 189.06,-67.35"/>
</g>
<!-- adrs -->
<g id="node2" class="node">
<title>adrs</title>
<polygon fill="#c3e6cb" stroke="#28a745" points="151.2,-41.6 7.2,-41.6 7.2,0 151.2,0 151.2,-41.6"/>
<text xml:space="preserve" text-anchor="middle" x="79.2" y="-25" font-family="Times,serif" font-size="14.00">adrs</text>
<text xml:space="preserve" text-anchor="middle" x="79.2" y="-8.2" font-family="Times,serif" font-size="14.00">ADR 群 (docs/adr)</text>
</g>
<!-- adrs&#45;&gt;i12_write_article -->
<g id="edge2" class="edge">
<title>adrs&#45;&gt;i12_write_article</title>
<path fill="none" stroke="#28a745" d="M151.47,-31.93C163.57,-33.82 176.24,-35.8 188.62,-37.73"/>
<polygon fill="#28a745" stroke="#28a745" points="187.98,-41.17 198.4,-39.26 189.06,-34.25 187.98,-41.17"/>
</g>
<!-- findings_r12 -->
<g id="node3" class="node">
<title>findings_r12</title>
<polygon fill="#ffeeba" stroke="#e0a800" points="158.4,-178 0,-178 0,-119.6 158.4,-119.6 158.4,-178"/>
<text xml:space="preserve" text-anchor="middle" x="79.2" y="-161.4" font-family="Times,serif" font-size="14.00">findings_r12</text>
<text xml:space="preserve" text-anchor="middle" x="79.2" y="-144.6" font-family="Times,serif" font-size="14.00">実践ラウンド1/2レビ</text>
<text xml:space="preserve" text-anchor="middle" x="79.2" y="-127.8" font-family="Times,serif" font-size="14.00">ュー知見</text>
</g>
</g>
</svg>
