<?xml version="1.0" encoding="UTF-8" standalone="no"?>
<!DOCTYPE svg PUBLIC "-//W3C//DTD SVG 1.1//EN"
 "http://www.w3.org/Graphics/SVG/1.1/DTD/svg11.dtd">
<!-- Generated by graphviz version 15.1.0 (0)
 -->
<!-- Title: PFDSL Pages: 1 -->
<svg width="433pt" height="261pt"
 viewBox="0.00 0.00 433.00 261.00" xmlns="http://www.w3.org/2000/svg" xmlns:xlink="http://www.w3.org/1999/xlink">
<g id="graph0" class="graph" transform="scale(1 1) rotate(0) translate(4 257)">
<title>PFDSL</title>
<polygon fill="white" stroke="none" points="-4,4 -4,-257 428.88,-257 428.88,4 -4,4"/>
<text xml:space="preserve" text-anchor="middle" x="212.44" y="-236.4" font-family="Times,serif" font-size="14.00">Issue 依存フロー（2026&#45;06） — diff</text>
<text xml:space="preserve" text-anchor="middle" x="212.44" y="-219.6" font-family="Times,serif" font-size="14.00">green = added · red = removed · yellow = changed</text>
<!-- adoption_probe -->
<g id="node1" class="node">
<title>adoption_probe</title>
<polygon fill="#ffeeba" stroke="#e0a800" points="151.2,-75.2 7.2,-75.2 7.2,0 151.2,0 151.2,-75.2"/>
<text xml:space="preserve" text-anchor="middle" x="79.2" y="-58.6" font-family="Times,serif" font-size="14.00">adoption_probe</text>
<text xml:space="preserve" text-anchor="middle" x="79.2" y="-41.8" font-family="Times,serif" font-size="14.00">plugin</text>
<text xml:space="preserve" text-anchor="middle" x="79.2" y="-25" font-family="Times,serif" font-size="14.00">採用初日プローブ </text>
<text xml:space="preserve" text-anchor="middle" x="79.2" y="-8.2" font-family="Times,serif" font-size="14.00">#352)</text>
</g>
<!-- cli_tool_v0015 -->
<g id="node2" class="node">
<title>cli_tool_v0015</title>
<polygon fill="#f5f5f5" stroke="#bbbbbb" points="158.4,-211.4 0,-211.4 0,-169.8 158.4,-169.8 158.4,-211.4"/>
<text xml:space="preserve" text-anchor="middle" x="79.2" y="-194.8" font-family="Times,serif" font-size="14.00" fill="#777777">cli_tool_v0015</text>
<text xml:space="preserve" text-anchor="middle" x="79.2" y="-178" font-family="Times,serif" font-size="14.00" fill="#777777">CLI v0.0.15（次期）</text>
</g>
<!-- i352_probe_adoption_day -->
<g id="node3" class="node">
<title>i352_probe_adoption_day</title>
<ellipse fill="#f5f5f5" stroke="#bbbbbb" cx="309.64" cy="-156.6" rx="115.24" ry="41.3"/>
<text xml:space="preserve" text-anchor="middle" x="309.64" y="-169.2" font-family="Times,serif" font-size="14.00" fill="#777777">i352_probe_adoption_day</text>
<text xml:space="preserve" text-anchor="middle" x="309.64" y="-152.4" font-family="Times,serif" font-size="14.00" fill="#777777">採用初日プローブ実</text>
<text xml:space="preserve" text-anchor="middle" x="309.64" y="-135.6" font-family="Times,serif" font-size="14.00" fill="#777777">施</text>
</g>
<!-- cli_tool_v0015&#45;&gt;i352_probe_adoption_day -->
<g id="edge1" class="edge">
<title>cli_tool_v0015&#45;&gt;i352_probe_adoption_day</title>
<path fill="none" stroke="#dc3545" stroke-dasharray="5,2" d="M158.82,-178.9C169.46,-177.31 180.57,-175.66 191.71,-174"/>
<polygon fill="#dc3545" stroke="#dc3545" points="191.97,-177.5 201.35,-172.57 190.94,-170.58 191.97,-177.5"/>
</g>
<!-- pfd_ops_plugin_dist -->
<g id="node4" class="node">
<title>pfd_ops_plugin_dist</title>
<polygon fill="#f5f5f5" stroke="#bbbbbb" points="158.4,-151.8 0,-151.8 0,-93.4 158.4,-93.4 158.4,-151.8"/>
<text xml:space="preserve" text-anchor="middle" x="79.2" y="-135.2" font-family="Times,serif" font-size="14.00" fill="#777777">pfd_ops_plugin_dist</text>
<text xml:space="preserve" text-anchor="middle" x="79.2" y="-118.4" font-family="Times,serif" font-size="14.00" fill="#777777">pfd&#45;ops 統合済み</text>
<text xml:space="preserve" text-anchor="middle" x="79.2" y="-101.6" font-family="Times,serif" font-size="14.00" fill="#777777">plugin 配布 (#404)</text>
</g>
<!-- pfd_ops_plugin_dist&#45;&gt;i352_probe_adoption_day -->
<g id="edge2" class="edge">
<title>pfd_ops_plugin_dist&#45;&gt;i352_probe_adoption_day</title>
<path fill="none" stroke="#28a745" d="M158.82,-134.3C169.46,-135.89 180.57,-137.54 191.71,-139.2"/>
<polygon fill="#28a745" stroke="#28a745" points="190.94,-142.62 201.35,-140.63 191.97,-135.7 190.94,-142.62"/>
</g>
</g>
</svg>
