<?xml version="1.0" encoding="UTF-8" standalone="no"?>
<!DOCTYPE svg PUBLIC "-//W3C//DTD SVG 1.1//EN"
 "http://www.w3.org/Graphics/SVG/1.1/DTD/svg11.dtd">
<!-- Generated by graphviz version 15.0.0 (0)
 -->
<!-- Title: PFDSL Pages: 1 -->
<svg width="835pt" height="246pt"
 viewBox="0.00 0.00 835.00 246.00" xmlns="http://www.w3.org/2000/svg" xmlns:xlink="http://www.w3.org/1999/xlink">
<g id="graph0" class="graph" transform="scale(1 1) rotate(0) translate(4 242.1)">
<title>PFDSL</title>
<polygon fill="white" stroke="none" points="-4,4 -4,-242.1 831.32,-242.1 831.32,4 -4,4"/>
<text xml:space="preserve" text-anchor="middle" x="413.66" y="-221.5" font-family="Times,serif" font-size="14.00">Issue 依存フロー（2026&#45;06） — diff</text>
<text xml:space="preserve" text-anchor="middle" x="413.66" y="-204.7" font-family="Times,serif" font-size="14.00">green = added · red = removed · yellow = changed</text>
<!-- cli_tool_v0011 -->
<g id="node1" class="node">
<title>cli_tool_v0011</title>
<polygon fill="#ffeeba" stroke="#e0a800" points="151.2,-58.4 0,-58.4 0,0 151.2,0 151.2,-58.4"/>
<text xml:space="preserve" text-anchor="middle" x="75.6" y="-41.8" font-family="Times,serif" font-size="14.00">cli_tool_v0011</text>
<text xml:space="preserve" text-anchor="middle" x="75.6" y="-25" font-family="Times,serif" font-size="14.00">CLI v0.0</text>
<text xml:space="preserve" text-anchor="middle" x="75.6" y="-8.2" font-family="Times,serif" font-size="14.00">11（次期リリース）</text>
</g>
<!-- cli_tool_v009 -->
<g id="node2" class="node">
<title>cli_tool_v009</title>
<polygon fill="#f5f5f5" stroke="#bbbbbb" points="133.2,-134.4 18,-134.4 18,-76 133.2,-76 133.2,-134.4"/>
<text xml:space="preserve" text-anchor="middle" x="75.6" y="-117.8" font-family="Times,serif" font-size="14.00" fill="#777777">cli_tool_v009</text>
<text xml:space="preserve" text-anchor="middle" x="75.6" y="-101" font-family="Times,serif" font-size="14.00" fill="#777777">CLI v0.0</text>
<text xml:space="preserve" text-anchor="middle" x="75.6" y="-84.2" font-family="Times,serif" font-size="14.00" fill="#777777">9（公開済み）</text>
</g>
<!-- implement_index_reindex -->
<g id="node5" class="node">
<title>implement_index_reindex</title>
<ellipse fill="#c3e6cb" stroke="#28a745" cx="302.43" cy="-155.2" rx="115.23" ry="41.3"/>
<text xml:space="preserve" text-anchor="middle" x="302.43" y="-167.8" font-family="Times,serif" font-size="14.00">implement_index_reindex</text>
<text xml:space="preserve" text-anchor="middle" x="302.43" y="-151" font-family="Times,serif" font-size="14.00">index フィールド +</text>
<text xml:space="preserve" text-anchor="middle" x="302.43" y="-134.2" font-family="Times,serif" font-size="14.00">reindex 実装</text>
</g>
<!-- cli_tool_v009&#45;&gt;implement_index_reindex -->
<g id="edge1" class="edge">
<title>cli_tool_v009&#45;&gt;implement_index_reindex</title>
<path fill="none" stroke="#28a745" d="M133.62,-117.88C151.71,-121.9 172.34,-126.49 192.81,-131.04"/>
<polygon fill="#28a745" stroke="#28a745" points="191.82,-134.41 202.34,-133.16 193.34,-127.58 191.82,-134.41"/>
</g>
<!-- implement_index_renum -->
<g id="node6" class="node">
<title>implement_index_renum</title>
<ellipse fill="#f5c6cb" stroke="#dc3545" cx="302.43" cy="-54.2" rx="110.84" ry="41.3"/>
<text xml:space="preserve" text-anchor="middle" x="302.43" y="-66.8" font-family="Times,serif" font-size="14.00">implement_index_renum</text>
<text xml:space="preserve" text-anchor="middle" x="302.43" y="-50" font-family="Times,serif" font-size="14.00">index フィールド +</text>
<text xml:space="preserve" text-anchor="middle" x="302.43" y="-33.2" font-family="Times,serif" font-size="14.00">renum 実装</text>
</g>
<!-- cli_tool_v009&#45;&gt;implement_index_renum -->
<g id="edge2" class="edge">
<title>cli_tool_v009&#45;&gt;implement_index_renum</title>
<path fill="none" stroke="#dc3545" stroke-dasharray="5,2" d="M133.62,-92.26C152.57,-87.97 174.31,-83.04 195.73,-78.18"/>
<polygon fill="#dc3545" stroke="#dc3545" points="196.42,-81.61 205.4,-75.98 194.88,-74.78 196.42,-81.61"/>
</g>
<!-- i221_index_reindex -->
<g id="node3" class="node">
<title>i221_index_reindex</title>
<polygon fill="#c3e6cb" stroke="#28a745" points="604.86,-188.8 453.66,-188.8 453.66,-113.6 604.86,-113.6 604.86,-188.8"/>
<text xml:space="preserve" text-anchor="middle" x="529.26" y="-172.2" font-family="Times,serif" font-size="14.00">i221_index_reindex</text>
<text xml:space="preserve" text-anchor="middle" x="529.26" y="-155.4" font-family="Times,serif" font-size="14.00">index フィールド +</text>
<text xml:space="preserve" text-anchor="middle" x="529.26" y="-138.6" font-family="Times,serif" font-size="14.00">reindex コマンド </text>
<text xml:space="preserve" text-anchor="middle" x="529.26" y="-121.8" font-family="Times,serif" font-size="14.00">#221)</text>
</g>
<!-- integrate_spec_v009 -->
<g id="node7" class="node">
<title>integrate_spec_v009</title>
<ellipse fill="#f5f5f5" stroke="#bbbbbb" cx="734.09" cy="-147.2" rx="93.23" ry="29.42"/>
<text xml:space="preserve" text-anchor="middle" x="734.09" y="-151.4" font-family="Times,serif" font-size="14.00" fill="#777777">integrate_spec_v009</text>
<text xml:space="preserve" text-anchor="middle" x="734.09" y="-134.6" font-family="Times,serif" font-size="14.00" fill="#777777">仕様書 v0.0.9統合</text>
</g>
<!-- i221_index_reindex&#45;&gt;integrate_spec_v009 -->
<g id="edge3" class="edge">
<title>i221_index_reindex&#45;&gt;integrate_spec_v009</title>
<path fill="none" stroke="#28a745" d="M605.21,-149.72C613.03,-149.57 621.08,-149.41 629.15,-149.25"/>
<polygon fill="#28a745" stroke="#28a745" points="629.11,-152.75 639.04,-149.05 628.98,-145.75 629.11,-152.75"/>
</g>
<!-- publish_cli_v0011 -->
<g id="node8" class="node">
<title>publish_cli_v0011</title>
<ellipse fill="#f5f5f5" stroke="#bbbbbb" cx="734.09" cy="-66.2" rx="89.13" ry="29.42"/>
<text xml:space="preserve" text-anchor="middle" x="734.09" y="-70.4" font-family="Times,serif" font-size="14.00" fill="#777777">publish_cli_v0011</text>
<text xml:space="preserve" text-anchor="middle" x="734.09" y="-53.6" font-family="Times,serif" font-size="14.00" fill="#777777">CLI v0.0.11リリース</text>
</g>
<!-- i221_index_reindex&#45;&gt;publish_cli_v0011 -->
<g id="edge4" class="edge">
<title>i221_index_reindex&#45;&gt;publish_cli_v0011</title>
<path fill="none" stroke="#28a745" d="M605.21,-119.79C625.58,-111.25 647.49,-102.07 667.32,-93.76"/>
<polygon fill="#28a745" stroke="#28a745" points="668.52,-97.06 676.39,-89.96 665.81,-90.6 668.52,-97.06"/>
</g>
<!-- i221_index_renum -->
<g id="node4" class="node">
<title>i221_index_renum</title>
<polygon fill="#f5c6cb" stroke="#dc3545" points="604.86,-95.8 453.66,-95.8 453.66,-20.6 604.86,-20.6 604.86,-95.8"/>
<text xml:space="preserve" text-anchor="middle" x="529.26" y="-79.2" font-family="Times,serif" font-size="14.00">i221_index_renum</text>
<text xml:space="preserve" text-anchor="middle" x="529.26" y="-62.4" font-family="Times,serif" font-size="14.00">index フィールド +</text>
<text xml:space="preserve" text-anchor="middle" x="529.26" y="-45.6" font-family="Times,serif" font-size="14.00">renum コマンド </text>
<text xml:space="preserve" text-anchor="middle" x="529.26" y="-28.8" font-family="Times,serif" font-size="14.00">#221)</text>
</g>
<!-- i221_index_renum&#45;&gt;integrate_spec_v009 -->
<g id="edge5" class="edge">
<title>i221_index_renum&#45;&gt;integrate_spec_v009</title>
<path fill="none" stroke="#dc3545" stroke-dasharray="5,2" d="M605.21,-91.09C625.78,-100.11 647.9,-109.82 667.88,-118.58"/>
<polygon fill="#dc3545" stroke="#dc3545" points="666.46,-121.79 677.03,-122.6 669.28,-115.38 666.46,-121.79"/>
</g>
<!-- i221_index_renum&#45;&gt;publish_cli_v0011 -->
<g id="edge6" class="edge">
<title>i221_index_renum&#45;&gt;publish_cli_v0011</title>
<path fill="none" stroke="#dc3545" stroke-dasharray="5,2" d="M605.21,-61.16C614.54,-61.52 624.19,-61.9 633.81,-62.28"/>
<polygon fill="#dc3545" stroke="#dc3545" points="633.43,-65.77 643.56,-62.67 633.71,-58.78 633.43,-65.77"/>
</g>
<!-- implement_index_reindex&#45;&gt;i221_index_reindex -->
<g id="edge7" class="edge">
<title>implement_index_reindex&#45;&gt;i221_index_reindex</title>
<path fill="none" stroke="#28a745" d="M417.82,-153.16C425.91,-153.02 433.99,-152.88 441.88,-152.74"/>
<polygon fill="#28a745" stroke="#28a745" points="441.85,-156.24 451.79,-152.56 441.73,-149.24 441.85,-156.24"/>
</g>
<!-- implement_index_renum&#45;&gt;i221_index_renum -->
<g id="edge8" class="edge">
<title>implement_index_renum&#45;&gt;i221_index_renum</title>
<path fill="none" stroke="#dc3545" stroke-dasharray="5,2" d="M413.54,-56.16C423.11,-56.33 432.7,-56.5 442.04,-56.67"/>
<polygon fill="#dc3545" stroke="#dc3545" points="441.71,-60.16 451.77,-56.84 441.84,-53.16 441.71,-60.16"/>
</g>
</g>
</svg>
