<?xml version="1.0" encoding="UTF-8" standalone="no"?>
<!DOCTYPE svg PUBLIC "-//W3C//DTD SVG 1.1//EN"
 "http://www.w3.org/Graphics/SVG/1.1/DTD/svg11.dtd">
<!-- Generated by graphviz version 15.1.0 (0)
 -->
<!-- Title: PFDSL Pages: 1 -->
<svg width="633pt" height="201pt"
 viewBox="0.00 0.00 633.00 201.00" xmlns="http://www.w3.org/2000/svg" xmlns:xlink="http://www.w3.org/1999/xlink">
<g id="graph0" class="graph" transform="scale(1 1) rotate(0) translate(4 197.4)">
<title>PFDSL</title>
<polygon fill="white" stroke="none" points="-4,4 -4,-197.4 628.75,-197.4 628.75,4 -4,4"/>
<text xml:space="preserve" text-anchor="middle" x="312.37" y="-176.8" font-family="Times,serif" font-size="14.00">Issue 依存フロー（2026&#45;06） — diff</text>
<text xml:space="preserve" text-anchor="middle" x="312.37" y="-160" font-family="Times,serif" font-size="14.00">green = added · red = removed · yellow = changed</text>
<!-- boundary_feedback -->
<g id="node1" class="node">
<title>boundary_feedback</title>
<polygon fill="#f5f5f5" stroke="#bbbbbb" points="165.6,-151.8 0,-151.8 0,-93.4 165.6,-93.4 165.6,-151.8"/>
<text xml:space="preserve" text-anchor="middle" x="82.8" y="-135.2" font-family="Times,serif" font-size="14.00" fill="#777777">boundary_feedback</text>
<text xml:space="preserve" text-anchor="middle" x="82.8" y="-118.4" font-family="Times,serif" font-size="14.00" fill="#777777">open input の</text>
<text xml:space="preserve" text-anchor="middle" x="82.8" y="-101.6" font-family="Times,serif" font-size="14.00" fill="#777777">feedback 除外 (#298)</text>
</g>
<!-- i300_revise_spec_editorial -->
<g id="node3" class="node">
<title>i300_revise_spec_editorial</title>
<ellipse fill="#f5c6cb" stroke="#dc3545" cx="319.57" cy="-79.6" rx="117.97" ry="29.42"/>
<text xml:space="preserve" text-anchor="middle" x="319.57" y="-83.8" font-family="Times,serif" font-size="14.00">i300_revise_spec_editorial</text>
<text xml:space="preserve" text-anchor="middle" x="319.57" y="-67" font-family="Times,serif" font-size="14.00">spec 編集整備</text>
</g>
<!-- boundary_feedback&#45;&gt;i300_revise_spec_editorial -->
<g id="edge1" class="edge">
<title>boundary_feedback&#45;&gt;i300_revise_spec_editorial</title>
<path fill="none" stroke="#dc3545" stroke-dasharray="5,2" d="M165.91,-107.56C180.92,-104.81 196.77,-101.91 212.35,-99.06"/>
<polygon fill="#dc3545" stroke="#dc3545" points="212.94,-102.51 222.15,-97.26 211.68,-95.62 212.94,-102.51"/>
</g>
<!-- extends_probe -->
<g id="node2" class="node">
<title>extends_probe</title>
<polygon fill="#f5f5f5" stroke="#bbbbbb" points="165.6,-75.2 0,-75.2 0,0 165.6,0 165.6,-75.2"/>
<text xml:space="preserve" text-anchor="middle" x="82.8" y="-58.6" font-family="Times,serif" font-size="14.00" fill="#777777">extends_probe</text>
<text xml:space="preserve" text-anchor="middle" x="82.8" y="-41.8" font-family="Times,serif" font-size="14.00" fill="#777777">extends 意味論の</text>
<text xml:space="preserve" text-anchor="middle" x="82.8" y="-25" font-family="Times,serif" font-size="14.00" fill="#777777">agent プローブ (#304</text>
<text xml:space="preserve" text-anchor="middle" x="82.8" y="-8.2" font-family="Times,serif" font-size="14.00" fill="#777777">)</text>
</g>
<!-- extends_probe&#45;&gt;i300_revise_spec_editorial -->
<g id="edge2" class="edge">
<title>extends_probe&#45;&gt;i300_revise_spec_editorial</title>
<path fill="none" stroke="#dc3545" stroke-dasharray="5,2" d="M165.91,-52.29C180.7,-54.94 196.32,-57.73 211.69,-60.48"/>
<polygon fill="#dc3545" stroke="#dc3545" points="210.87,-63.89 221.33,-62.2 212.11,-57 210.87,-63.89"/>
</g>
<!-- spec_editorial -->
<g id="node4" class="node">
<title>spec_editorial</title>
<polygon fill="#f5c6cb" stroke="#dc3545" points="624.75,-108.8 473.55,-108.8 473.55,-50.4 624.75,-50.4 624.75,-108.8"/>
<text xml:space="preserve" text-anchor="middle" x="549.15" y="-92.2" font-family="Times,serif" font-size="14.00">spec_editorial</text>
<text xml:space="preserve" text-anchor="middle" x="549.15" y="-75.4" font-family="Times,serif" font-size="14.00">spec 編集整備パス </text>
<text xml:space="preserve" text-anchor="middle" x="549.15" y="-58.6" font-family="Times,serif" font-size="14.00">#300)</text>
</g>
<!-- i300_revise_spec_editorial&#45;&gt;spec_editorial -->
<g id="edge3" class="edge">
<title>i300_revise_spec_editorial&#45;&gt;spec_editorial</title>
<path fill="none" stroke="#dc3545" stroke-dasharray="5,2" d="M438.03,-79.6C446.06,-79.6 454.07,-79.6 461.89,-79.6"/>
<polygon fill="#dc3545" stroke="#dc3545" points="461.69,-83.1 471.69,-79.6 461.69,-76.1 461.69,-83.1"/>
</g>
</g>
</svg>
