<?xml version="1.0" encoding="UTF-8" standalone="no"?>
<!DOCTYPE svg PUBLIC "-//W3C//DTD SVG 1.1//EN"
 "http://www.w3.org/Graphics/SVG/1.1/DTD/svg11.dtd">
<!-- Generated by graphviz version 15.1.0 (0)
 -->
<!-- Title: PFDSL Pages: 1 -->
<svg width="679pt" height="404pt"
 viewBox="0.00 0.00 679.00 404.00" xmlns="http://www.w3.org/2000/svg" xmlns:xlink="http://www.w3.org/1999/xlink">
<g id="graph0" class="graph" transform="scale(1 1) rotate(0) translate(4 399.8)">
<title>PFDSL</title>
<polygon fill="white" stroke="none" points="-4,4 -4,-399.8 675.14,-399.8 675.14,4 -4,4"/>
<text xml:space="preserve" text-anchor="middle" x="335.57" y="-379.2" font-family="Times,serif" font-size="14.00">Issue 依存フロー（2026&#45;06） — diff</text>
<text xml:space="preserve" text-anchor="middle" x="335.57" y="-362.4" font-family="Times,serif" font-size="14.00">green = added · red = removed · yellow = changed</text>
<!-- i291_statusset_impact -->
<g id="node1" class="node">
<title>i291_statusset_impact</title>
<polygon fill="#f5c6cb" stroke="#dc3545" points="456.87,-168.2 284.07,-168.2 284.07,-93 456.87,-93 456.87,-168.2"/>
<text xml:space="preserve" text-anchor="middle" x="370.47" y="-151.6" font-family="Times,serif" font-size="14.00">i291_statusset_impact</text>
<text xml:space="preserve" text-anchor="middle" x="370.47" y="-134.8" font-family="Times,serif" font-size="14.00">status&#45;set</text>
<text xml:space="preserve" text-anchor="middle" x="370.47" y="-118" font-family="Times,serif" font-size="14.00">解放プロセス報告 </text>
<text xml:space="preserve" text-anchor="middle" x="370.47" y="-101.2" font-family="Times,serif" font-size="14.00">#291)</text>
</g>
<!-- publish_cli_v0015 -->
<g id="node5" class="node">
<title>publish_cli_v0015</title>
<ellipse fill="#f5f5f5" stroke="#bbbbbb" cx="582" cy="-176.6" rx="89.13" ry="29.42"/>
<text xml:space="preserve" text-anchor="middle" x="582" y="-180.8" font-family="Times,serif" font-size="14.00" fill="#777777">publish_cli_v0015</text>
<text xml:space="preserve" text-anchor="middle" x="582" y="-164" font-family="Times,serif" font-size="14.00" fill="#777777">CLI v0.0.15リリース</text>
</g>
<!-- i291_statusset_impact&#45;&gt;publish_cli_v0015 -->
<g id="edge1" class="edge">
<title>i291_statusset_impact&#45;&gt;publish_cli_v0015</title>
<path fill="none" stroke="#dc3545" stroke-dasharray="5,2" d="M457.3,-149.44C470.06,-152.24 483.21,-155.13 495.96,-157.93"/>
<polygon fill="#dc3545" stroke="#dc3545" points="495.04,-161.31 505.56,-160.04 496.54,-154.47 495.04,-161.31"/>
</g>
<!-- i292_symmetry_hint -->
<g id="node2" class="node">
<title>i292_symmetry_hint</title>
<polygon fill="#f5c6cb" stroke="#dc3545" points="446.07,-354.2 294.87,-354.2 294.87,-279 446.07,-279 446.07,-354.2"/>
<text xml:space="preserve" text-anchor="middle" x="370.47" y="-337.6" font-family="Times,serif" font-size="14.00">i292_symmetry_hint</text>
<text xml:space="preserve" text-anchor="middle" x="370.47" y="-320.8" font-family="Times,serif" font-size="14.00">check &#45;&#45;audit</text>
<text xml:space="preserve" text-anchor="middle" x="370.47" y="-304" font-family="Times,serif" font-size="14.00">同種対称性ヒント </text>
<text xml:space="preserve" text-anchor="middle" x="370.47" y="-287.2" font-family="Times,serif" font-size="14.00">#292)</text>
</g>
<!-- i292_symmetry_hint&#45;&gt;publish_cli_v0015 -->
<g id="edge2" class="edge">
<title>i292_symmetry_hint&#45;&gt;publish_cli_v0015</title>
<path fill="none" stroke="#dc3545" stroke-dasharray="5,2" d="M443.69,-278.73C448.2,-276.05 452.62,-273.33 456.87,-270.6 485.08,-252.48 515.1,-229.85 538.54,-211.33"/>
<polygon fill="#dc3545" stroke="#dc3545" points="540.68,-214.11 546.33,-205.14 536.32,-208.63 540.68,-214.11"/>
</g>
<!-- implement_statusset_impact -->
<g id="node3" class="node">
<title>implement_statusset_impact</title>
<ellipse fill="#f5f5f5" stroke="#bbbbbb" cx="124.04" cy="-102.6" rx="124.04" ry="53.17"/>
<text xml:space="preserve" text-anchor="middle" x="124.04" y="-123.6" font-family="Times,serif" font-size="14.00" fill="#777777">implement_statusset_impact</text>
<text xml:space="preserve" text-anchor="middle" x="124.04" y="-106.8" font-family="Times,serif" font-size="14.00" fill="#777777">status&#45;set</text>
<text xml:space="preserve" text-anchor="middle" x="124.04" y="-90" font-family="Times,serif" font-size="14.00" fill="#777777">解放プロセス報告実</text>
<text xml:space="preserve" text-anchor="middle" x="124.04" y="-73.2" font-family="Times,serif" font-size="14.00" fill="#777777">装</text>
</g>
<!-- implement_statusset_impact&#45;&gt;i291_statusset_impact -->
<g id="edge3" class="edge">
<title>implement_statusset_impact&#45;&gt;i291_statusset_impact</title>
<path fill="none" stroke="#dc3545" stroke-dasharray="5,2" d="M244.39,-116.27C253.87,-117.36 263.37,-118.45 272.66,-119.51"/>
<polygon fill="#dc3545" stroke="#dc3545" points="272.05,-122.96 282.38,-120.62 272.84,-116.01 272.05,-122.96"/>
</g>
<!-- statusset_impact -->
<g id="node6" class="node">
<title>statusset_impact</title>
<polygon fill="#c3e6cb" stroke="#28a745" points="442.47,-75.2 298.47,-75.2 298.47,0 442.47,0 442.47,-75.2"/>
<text xml:space="preserve" text-anchor="middle" x="370.47" y="-58.6" font-family="Times,serif" font-size="14.00">statusset_impact</text>
<text xml:space="preserve" text-anchor="middle" x="370.47" y="-41.8" font-family="Times,serif" font-size="14.00">status&#45;set</text>
<text xml:space="preserve" text-anchor="middle" x="370.47" y="-25" font-family="Times,serif" font-size="14.00">解放プロセス報告 </text>
<text xml:space="preserve" text-anchor="middle" x="370.47" y="-8.2" font-family="Times,serif" font-size="14.00">#291)</text>
</g>
<!-- implement_statusset_impact&#45;&gt;statusset_impact -->
<g id="edge4" class="edge">
<title>implement_statusset_impact&#45;&gt;statusset_impact</title>
<path fill="none" stroke="#28a745" d="M230.12,-74.66C249.17,-69.59 268.8,-64.37 287.08,-59.51"/>
<polygon fill="#28a745" stroke="#28a745" points="287.75,-62.95 296.52,-57 285.95,-56.19 287.75,-62.95"/>
</g>
<!-- implement_symmetry_hint -->
<g id="node4" class="node">
<title>implement_symmetry_hint</title>
<ellipse fill="#f5f5f5" stroke="#bbbbbb" cx="124.04" cy="-251.6" rx="118.55" ry="41.3"/>
<text xml:space="preserve" text-anchor="middle" x="124.04" y="-264.2" font-family="Times,serif" font-size="14.00" fill="#777777">implement_symmetry_hint</text>
<text xml:space="preserve" text-anchor="middle" x="124.04" y="-247.4" font-family="Times,serif" font-size="14.00" fill="#777777">audit 同種対称性ヒン</text>
<text xml:space="preserve" text-anchor="middle" x="124.04" y="-230.6" font-family="Times,serif" font-size="14.00" fill="#777777">ト実装</text>
</g>
<!-- implement_symmetry_hint&#45;&gt;i292_symmetry_hint -->
<g id="edge5" class="edge">
<title>implement_symmetry_hint&#45;&gt;i292_symmetry_hint</title>
<path fill="none" stroke="#dc3545" stroke-dasharray="5,2" d="M219.19,-276.64C240.4,-282.28 262.79,-288.23 283.63,-293.77"/>
<polygon fill="#dc3545" stroke="#dc3545" points="282.68,-297.14 293.24,-296.33 284.48,-290.38 282.68,-297.14"/>
</g>
<!-- symmetry_hint -->
<g id="node7" class="node">
<title>symmetry_hint</title>
<polygon fill="#c3e6cb" stroke="#28a745" points="442.47,-261.2 298.47,-261.2 298.47,-186 442.47,-186 442.47,-261.2"/>
<text xml:space="preserve" text-anchor="middle" x="370.47" y="-244.6" font-family="Times,serif" font-size="14.00">symmetry_hint</text>
<text xml:space="preserve" text-anchor="middle" x="370.47" y="-227.8" font-family="Times,serif" font-size="14.00">check &#45;&#45;audit</text>
<text xml:space="preserve" text-anchor="middle" x="370.47" y="-211" font-family="Times,serif" font-size="14.00">同種対称性ヒント </text>
<text xml:space="preserve" text-anchor="middle" x="370.47" y="-194.2" font-family="Times,serif" font-size="14.00">#292)</text>
</g>
<!-- implement_symmetry_hint&#45;&gt;symmetry_hint -->
<g id="edge6" class="edge">
<title>implement_symmetry_hint&#45;&gt;symmetry_hint</title>
<path fill="none" stroke="#28a745" d="M237.24,-238.75C253.9,-236.84 270.82,-234.9 286.73,-233.08"/>
<polygon fill="#28a745" stroke="#28a745" points="287.08,-236.56 296.62,-231.95 286.29,-229.61 287.08,-236.56"/>
</g>
<!-- statusset_impact&#45;&gt;publish_cli_v0015 -->
<g id="edge7" class="edge">
<title>statusset_impact&#45;&gt;publish_cli_v0015</title>
<path fill="none" stroke="#28a745" d="M442.77,-74.96C447.59,-77.8 452.33,-80.7 456.87,-83.6 484.92,-101.52 514.82,-123.81 538.24,-142.08"/>
<polygon fill="#28a745" stroke="#28a745" points="535.99,-144.76 546.02,-148.19 540.32,-139.26 535.99,-144.76"/>
</g>
<!-- symmetry_hint&#45;&gt;publish_cli_v0015 -->
<g id="edge8" class="edge">
<title>symmetry_hint&#45;&gt;publish_cli_v0015</title>
<path fill="none" stroke="#28a745" d="M442.7,-207.62C460,-203.74 478.65,-199.56 496.49,-195.56"/>
<polygon fill="#28a745" stroke="#28a745" points="497,-199.03 506,-193.43 495.47,-192.2 497,-199.03"/>
</g>
</g>
</svg>
