<?xml version="1.0" encoding="UTF-8" standalone="no"?>
<!DOCTYPE svg PUBLIC "-//W3C//DTD SVG 1.1//EN"
 "http://www.w3.org/Graphics/SVG/1.1/DTD/svg11.dtd">
<!-- Generated by graphviz version 15.1.0 (0)
 -->
<!-- Title: PFDSL Pages: 1 -->
<svg width="1151pt" height="371pt"
 viewBox="0.00 0.00 1151.00 371.00" xmlns="http://www.w3.org/2000/svg" xmlns:xlink="http://www.w3.org/1999/xlink">
<g id="graph0" class="graph" transform="scale(1 1) rotate(0) translate(4 367.19)">
<title>PFDSL</title>
<polygon fill="white" stroke="none" points="-4,4 -4,-367.19 1147,-367.19 1147,4 -4,4"/>
<text xml:space="preserve" text-anchor="middle" x="571.5" y="-346.59" font-family="Times,serif" font-size="14.00">Issue 依存フロー（2026&#45;06） — diff</text>
<text xml:space="preserve" text-anchor="middle" x="571.5" y="-329.79" font-family="Times,serif" font-size="14.00">green = added · red = removed · yellow = changed</text>
<!-- i297_recode -->
<g id="node1" class="node">
<title>i297_recode</title>
<polygon fill="#c3e6cb" stroke="#28a745" points="676.52,-300.5 525.32,-300.5 525.32,-242.1 676.52,-242.1 676.52,-300.5"/>
<text xml:space="preserve" text-anchor="middle" x="600.92" y="-283.9" font-family="Times,serif" font-size="14.00">i297_recode</text>
<text xml:space="preserve" text-anchor="middle" x="600.92" y="-267.1" font-family="Times,serif" font-size="14.00">V025 二重割当解消 </text>
<text xml:space="preserve" text-anchor="middle" x="600.92" y="-250.3" font-family="Times,serif" font-size="14.00">#297)</text>
</g>
<!-- implement_diag_registry -->
<g id="node7" class="node">
<title>implement_diag_registry</title>
<ellipse fill="#c3e6cb" stroke="#28a745" cx="837.76" cy="-225.3" rx="110.84" ry="41.3"/>
<text xml:space="preserve" text-anchor="middle" x="837.76" y="-237.9" font-family="Times,serif" font-size="14.00">implement_diag_registry</text>
<text xml:space="preserve" text-anchor="middle" x="837.76" y="-221.1" font-family="Times,serif" font-size="14.00">診断コードレジスト</text>
<text xml:space="preserve" text-anchor="middle" x="837.76" y="-204.3" font-family="Times,serif" font-size="14.00">リ整備</text>
</g>
<!-- i297_recode&#45;&gt;implement_diag_registry -->
<g id="edge1" class="edge">
<title>i297_recode&#45;&gt;implement_diag_registry</title>
<path fill="none" stroke="#28a745" d="M676.87,-256.61C693.06,-253.44 710.49,-250.03 727.68,-246.66"/>
<polygon fill="#28a745" stroke="#28a745" points="728.3,-250.11 737.44,-244.75 726.96,-243.24 728.3,-250.11"/>
</g>
<!-- i298_boundary_feedback -->
<g id="node2" class="node">
<title>i298_boundary_feedback</title>
<polygon fill="#c3e6cb" stroke="#28a745" points="690.92,-76.5 510.92,-76.5 510.92,-18.1 690.92,-18.1 690.92,-76.5"/>
<text xml:space="preserve" text-anchor="middle" x="600.92" y="-59.9" font-family="Times,serif" font-size="14.00">i298_boundary_feedback</text>
<text xml:space="preserve" text-anchor="middle" x="600.92" y="-43.1" font-family="Times,serif" font-size="14.00">open input の</text>
<text xml:space="preserve" text-anchor="middle" x="600.92" y="-26.3" font-family="Times,serif" font-size="14.00">feedback 除外 (#298)</text>
</g>
<!-- revise_spec_editorial -->
<g id="node11" class="node">
<title>revise_spec_editorial</title>
<ellipse fill="#c3e6cb" stroke="#28a745" cx="837.76" cy="-106.3" rx="95.43" ry="29.42"/>
<text xml:space="preserve" text-anchor="middle" x="837.76" y="-110.5" font-family="Times,serif" font-size="14.00">revise_spec_editorial</text>
<text xml:space="preserve" text-anchor="middle" x="837.76" y="-93.7" font-family="Times,serif" font-size="14.00">spec 編集整備</text>
</g>
<!-- i298_boundary_feedback&#45;&gt;revise_spec_editorial -->
<g id="edge2" class="edge">
<title>i298_boundary_feedback&#45;&gt;revise_spec_editorial</title>
<path fill="none" stroke="#28a745" d="M691.38,-69.77C711.19,-74.75 732.13,-80.01 751.76,-84.94"/>
<polygon fill="#28a745" stroke="#28a745" points="750.81,-88.31 761.36,-87.35 752.51,-81.52 750.81,-88.31"/>
</g>
<!-- i299_diag_registry -->
<g id="node3" class="node">
<title>i299_diag_registry</title>
<polygon fill="#c3e6cb" stroke="#28a745" points="1143,-254.5 984.6,-254.5 984.6,-196.1 1143,-196.1 1143,-254.5"/>
<text xml:space="preserve" text-anchor="middle" x="1063.8" y="-237.9" font-family="Times,serif" font-size="14.00">i299_diag_registry</text>
<text xml:space="preserve" text-anchor="middle" x="1063.8" y="-221.1" font-family="Times,serif" font-size="14.00">診断コードレジスト</text>
<text xml:space="preserve" text-anchor="middle" x="1063.8" y="-204.3" font-family="Times,serif" font-size="14.00">リ + CI 突合 (#299)</text>
</g>
<!-- i300_spec_editorial -->
<g id="node4" class="node">
<title>i300_spec_editorial</title>
<polygon fill="#c3e6cb" stroke="#28a745" points="1143,-135.5 984.6,-135.5 984.6,-77.1 1143,-77.1 1143,-135.5"/>
<text xml:space="preserve" text-anchor="middle" x="1063.8" y="-118.9" font-family="Times,serif" font-size="14.00">i300_spec_editorial</text>
<text xml:space="preserve" text-anchor="middle" x="1063.8" y="-102.1" font-family="Times,serif" font-size="14.00">spec 編集整備パス </text>
<text xml:space="preserve" text-anchor="middle" x="1063.8" y="-85.3" font-family="Times,serif" font-size="14.00">#300)</text>
</g>
<!-- i304_extends_probe -->
<g id="node5" class="node">
<title>i304_extends_probe</title>
<polygon fill="#c3e6cb" stroke="#28a745" points="683.72,-214.9 518.12,-214.9 518.12,-139.7 683.72,-139.7 683.72,-214.9"/>
<text xml:space="preserve" text-anchor="middle" x="600.92" y="-198.3" font-family="Times,serif" font-size="14.00">i304_extends_probe</text>
<text xml:space="preserve" text-anchor="middle" x="600.92" y="-181.5" font-family="Times,serif" font-size="14.00">extends 意味論の</text>
<text xml:space="preserve" text-anchor="middle" x="600.92" y="-164.7" font-family="Times,serif" font-size="14.00">agent プローブ (#304</text>
<text xml:space="preserve" text-anchor="middle" x="600.92" y="-147.9" font-family="Times,serif" font-size="14.00">)</text>
</g>
<!-- i304_extends_probe&#45;&gt;revise_spec_editorial -->
<g id="edge3" class="edge">
<title>i304_extends_probe&#45;&gt;revise_spec_editorial</title>
<path fill="none" stroke="#28a745" d="M684.06,-152.46C708.03,-145.21 734.17,-137.31 757.93,-130.13"/>
<polygon fill="#28a745" stroke="#28a745" points="758.66,-133.57 767.21,-127.32 756.63,-126.87 758.66,-133.57"/>
</g>
<!-- implement_boundary_feedback -->
<g id="node6" class="node">
<title>implement_boundary_feedback</title>
<ellipse fill="#c3e6cb" stroke="#28a745" cx="338.26" cy="-41.3" rx="136.66" ry="41.3"/>
<text xml:space="preserve" text-anchor="middle" x="338.26" y="-53.9" font-family="Times,serif" font-size="14.00">implement_boundary_feedback</text>
<text xml:space="preserve" text-anchor="middle" x="338.26" y="-37.1" font-family="Times,serif" font-size="14.00">open input feedback</text>
<text xml:space="preserve" text-anchor="middle" x="338.26" y="-20.3" font-family="Times,serif" font-size="14.00">除外実装</text>
</g>
<!-- implement_boundary_feedback&#45;&gt;i298_boundary_feedback -->
<g id="edge4" class="edge">
<title>implement_boundary_feedback&#45;&gt;i298_boundary_feedback</title>
<path fill="none" stroke="#28a745" d="M474.94,-44.42C483.18,-44.61 491.39,-44.8 499.44,-44.98"/>
<polygon fill="#28a745" stroke="#28a745" points="499.11,-48.48 509.19,-45.21 499.27,-41.48 499.11,-48.48"/>
</g>
<!-- implement_diag_registry&#45;&gt;i299_diag_registry -->
<g id="edge5" class="edge">
<title>implement_diag_registry&#45;&gt;i299_diag_registry</title>
<path fill="none" stroke="#28a745" d="M948.81,-225.3C956.84,-225.3 964.88,-225.3 972.77,-225.3"/>
<polygon fill="#28a745" stroke="#28a745" points="972.69,-228.8 982.69,-225.3 972.69,-221.8 972.69,-228.8"/>
</g>
<!-- multifile_toolchain -->
<g id="node8" class="node">
<title>multifile_toolchain</title>
<polygon fill="#f5f5f5" stroke="#bbbbbb" points="162,-228.9 3.6,-228.9 3.6,-153.7 162,-153.7 162,-228.9"/>
<text xml:space="preserve" text-anchor="middle" x="82.8" y="-212.3" font-family="Times,serif" font-size="14.00" fill="#777777">multifile_toolchain</text>
<text xml:space="preserve" text-anchor="middle" x="82.8" y="-195.5" font-family="Times,serif" font-size="14.00" fill="#777777">spec v0.0.8</text>
<text xml:space="preserve" text-anchor="middle" x="82.8" y="-178.7" font-family="Times,serif" font-size="14.00" fill="#777777">実装済みツールチェ</text>
<text xml:space="preserve" text-anchor="middle" x="82.8" y="-161.9" font-family="Times,serif" font-size="14.00" fill="#777777">ーン (#148)</text>
</g>
<!-- multifile_toolchain&#45;&gt;implement_boundary_feedback -->
<g id="edge6" class="edge">
<title>multifile_toolchain&#45;&gt;implement_boundary_feedback</title>
<path fill="none" stroke="#28a745" d="M151.74,-153.31C156.44,-150.61 161.1,-147.92 165.6,-145.3 199.28,-125.63 236.32,-103.28 267.35,-84.35"/>
<polygon fill="#28a745" stroke="#28a745" points="268.77,-87.59 275.48,-79.39 265.12,-81.61 268.77,-87.59"/>
</g>
<!-- probe_extends_spec -->
<g id="node9" class="node">
<title>probe_extends_spec</title>
<ellipse fill="#c3e6cb" stroke="#28a745" cx="338.26" cy="-179.3" rx="91.58" ry="41.3"/>
<text xml:space="preserve" text-anchor="middle" x="338.26" y="-191.9" font-family="Times,serif" font-size="14.00">probe_extends_spec</text>
<text xml:space="preserve" text-anchor="middle" x="338.26" y="-175.1" font-family="Times,serif" font-size="14.00">extends</text>
<text xml:space="preserve" text-anchor="middle" x="338.26" y="-158.3" font-family="Times,serif" font-size="14.00">意味論プローブ</text>
</g>
<!-- multifile_toolchain&#45;&gt;probe_extends_spec -->
<g id="edge7" class="edge">
<title>multifile_toolchain&#45;&gt;probe_extends_spec</title>
<path fill="none" stroke="#28a745" d="M162.26,-187.58C185.36,-186.49 210.96,-185.27 235.3,-184.12"/>
<polygon fill="#28a745" stroke="#28a745" points="235.42,-187.62 245.25,-183.65 235.09,-180.63 235.42,-187.62"/>
</g>
<!-- recode_boundary_diags -->
<g id="node10" class="node">
<title>recode_boundary_diags</title>
<ellipse fill="#c3e6cb" stroke="#28a745" cx="338.26" cy="-280.3" rx="105.88" ry="41.3"/>
<text xml:space="preserve" text-anchor="middle" x="338.26" y="-292.9" font-family="Times,serif" font-size="14.00">recode_boundary_diags</text>
<text xml:space="preserve" text-anchor="middle" x="338.26" y="-276.1" font-family="Times,serif" font-size="14.00">境界診断コード再採</text>
<text xml:space="preserve" text-anchor="middle" x="338.26" y="-259.3" font-family="Times,serif" font-size="14.00">番</text>
</g>
<!-- multifile_toolchain&#45;&gt;recode_boundary_diags -->
<g id="edge8" class="edge">
<title>multifile_toolchain&#45;&gt;recode_boundary_diags</title>
<path fill="none" stroke="#28a745" d="M162.26,-218.85C189.46,-228.4 220.15,-239.17 248.15,-249"/>
<polygon fill="#28a745" stroke="#28a745" points="246.71,-252.21 257.31,-252.22 249.03,-245.6 246.71,-252.21"/>
</g>
<!-- probe_extends_spec&#45;&gt;i304_extends_probe -->
<g id="edge9" class="edge">
<title>probe_extends_spec&#45;&gt;i304_extends_probe</title>
<path fill="none" stroke="#28a745" d="M430.06,-178.6C454.78,-178.41 481.6,-178.2 506.46,-178.01"/>
<polygon fill="#28a745" stroke="#28a745" points="506.24,-181.51 516.22,-177.94 506.19,-174.51 506.24,-181.51"/>
</g>
<!-- recode_boundary_diags&#45;&gt;i297_recode -->
<g id="edge10" class="edge">
<title>recode_boundary_diags&#45;&gt;i297_recode</title>
<path fill="none" stroke="#28a745" d="M444.16,-276.67C467.17,-275.88 491.28,-275.05 513.47,-274.28"/>
<polygon fill="#28a745" stroke="#28a745" points="513.49,-277.78 523.37,-273.94 513.25,-270.79 513.49,-277.78"/>
</g>
<!-- revise_spec_editorial&#45;&gt;i300_spec_editorial -->
<g id="edge11" class="edge">
<title>revise_spec_editorial&#45;&gt;i300_spec_editorial</title>
<path fill="none" stroke="#28a745" d="M933.45,-106.3C946.56,-106.3 960,-106.3 973.03,-106.3"/>
<polygon fill="#28a745" stroke="#28a745" points="972.83,-109.8 982.83,-106.3 972.83,-102.8 972.83,-109.8"/>
</g>
<!-- spec_v0011 -->
<g id="node12" class="node">
<title>spec_v0011</title>
<polygon fill="#f5f5f5" stroke="#bbbbbb" points="165.6,-135.9 0,-135.9 0,-60.7 165.6,-60.7 165.6,-135.9"/>
<text xml:space="preserve" text-anchor="middle" x="82.8" y="-119.3" font-family="Times,serif" font-size="14.00" fill="#777777">spec_v0011</text>
<text xml:space="preserve" text-anchor="middle" x="82.8" y="-102.5" font-family="Times,serif" font-size="14.00" fill="#777777">仕様書 v0.0</text>
<text xml:space="preserve" text-anchor="middle" x="82.8" y="-85.7" font-family="Times,serif" font-size="14.00" fill="#777777">11（waiting/suspende</text>
<text xml:space="preserve" text-anchor="middle" x="82.8" y="-68.9" font-family="Times,serif" font-size="14.00" fill="#777777">d/type統合）</text>
</g>
<!-- spec_v0011&#45;&gt;implement_boundary_feedback -->
<g id="edge12" class="edge">
<title>spec_v0011&#45;&gt;implement_boundary_feedback</title>
<path fill="none" stroke="#28a745" d="M166.09,-79.79C182.22,-76.16 199.44,-72.29 216.52,-68.45"/>
<polygon fill="#28a745" stroke="#28a745" points="217.25,-71.87 226.24,-66.26 215.71,-65.04 217.25,-71.87"/>
</g>
<!-- spec_v0011&#45;&gt;implement_diag_registry -->
<g id="edge13" class="edge">
<title>spec_v0011&#45;&gt;implement_diag_registry</title>
<path fill="none" stroke="#28a745" d="M165.89,-97.38C308.47,-96.66 595.77,-99.29 690.92,-130.3 724.08,-141.1 756.97,-161.46 783.11,-180.58"/>
<polygon fill="#28a745" stroke="#28a745" points="780.74,-183.18 790.85,-186.36 784.93,-177.57 780.74,-183.18"/>
</g>
<!-- spec_v0011&#45;&gt;probe_extends_spec -->
<g id="edge14" class="edge">
<title>spec_v0011&#45;&gt;probe_extends_spec</title>
<path fill="none" stroke="#28a745" d="M166.09,-124.59C193.53,-133.36 224.15,-143.15 251.82,-151.99"/>
<polygon fill="#28a745" stroke="#28a745" points="250.63,-155.28 261.22,-154.99 252.76,-148.62 250.63,-155.28"/>
</g>
</g>
</svg>
