<?xml version="1.0" encoding="UTF-8" standalone="no"?>
<!DOCTYPE svg PUBLIC "-//W3C//DTD SVG 1.1//EN"
 "http://www.w3.org/Graphics/SVG/1.1/DTD/svg11.dtd">
<!-- Generated by graphviz version 15.1.0 (0)
 -->
<!-- Title: PFDSL Pages: 1 -->
<svg width="373pt" height="185pt"
 viewBox="0.00 0.00 373.00 185.00" xmlns="http://www.w3.org/2000/svg" xmlns:xlink="http://www.w3.org/1999/xlink">
<g id="graph0" class="graph" transform="scale(1 1) rotate(0) translate(4 181.43)">
<title>PFDSL</title>
<polygon fill="white" stroke="none" points="-4,4 -4,-181.43 369.07,-181.43 369.07,4 -4,4"/>
<text xml:space="preserve" text-anchor="middle" x="182.54" y="-160.83" font-family="Times,serif" font-size="14.00">pfdsl開発ワークフロー — diff</text>
<text xml:space="preserve" text-anchor="middle" x="182.54" y="-144.03" font-family="Times,serif" font-size="14.00">green = added · red = removed · yellow = changed</text>
<!-- distill_ops -->
<g id="node1" class="node">
<title>distill_ops</title>
<ellipse fill="#f5f5f5" stroke="#bbbbbb" cx="78.14" cy="-106.42" rx="78.14" ry="29.42"/>
<text xml:space="preserve" text-anchor="middle" x="78.14" y="-110.62" font-family="Times,serif" font-size="14.00" fill="#777777">distill_ops</text>
<text xml:space="preserve" text-anchor="middle" x="78.14" y="-93.82" font-family="Times,serif" font-size="14.00" fill="#777777">運用プロトコル蒸留</text>
</g>
<!-- spec_stress_skill -->
<g id="node3" class="node">
<title>spec_stress_skill</title>
<polygon fill="#c3e6cb" stroke="#28a745" points="365.07,-127.22 192.27,-127.22 192.27,-85.62 365.07,-85.62 365.07,-127.22"/>
<text xml:space="preserve" text-anchor="middle" x="278.67" y="-110.62" font-family="Times,serif" font-size="14.00">spec_stress_skill</text>
<text xml:space="preserve" text-anchor="middle" x="278.67" y="-93.82" font-family="Times,serif" font-size="14.00">仕様stress&#45;testスキル</text>
</g>
<!-- distill_ops&#45;&gt;spec_stress_skill -->
<g id="edge1" class="edge">
<title>distill_ops&#45;&gt;spec_stress_skill</title>
<path fill="none" stroke="#28a745" d="M156.75,-106.42C164.58,-106.42 172.61,-106.42 180.61,-106.42"/>
<polygon fill="#28a745" stroke="#28a745" points="180.38,-109.92 190.38,-106.42 180.38,-102.92 180.38,-109.92"/>
</g>
<!-- maintain_spec -->
<g id="node2" class="node">
<title>maintain_spec</title>
<ellipse fill="#f5f5f5" stroke="#bbbbbb" cx="78.14" cy="-29.42" rx="70.71" ry="29.42"/>
<text xml:space="preserve" text-anchor="middle" x="78.14" y="-33.62" font-family="Times,serif" font-size="14.00" fill="#777777">maintain_spec</text>
<text xml:space="preserve" text-anchor="middle" x="78.14" y="-16.82" font-family="Times,serif" font-size="14.00" fill="#777777">仕様改訂（統合）</text>
</g>
<!-- spec_stress_skill&#45;&gt;maintain_spec -->
<g id="edge2" class="edge">
<title>spec_stress_skill&#45;&gt;maintain_spec</title>
<path fill="none" stroke="#28a745" stroke-dasharray="5,2" d="M222.81,-85.14C197.54,-75.34 167.43,-63.66 141.32,-53.53"/>
<polygon fill="#28a745" stroke="#28a745" points="142.78,-50.35 132.19,-49.99 140.25,-56.87 142.78,-50.35"/>
</g>
</g>
</svg>
