<?xml version="1.0" encoding="UTF-8" standalone="no"?>
<!DOCTYPE svg PUBLIC "-//W3C//DTD SVG 1.1//EN"
 "http://www.w3.org/Graphics/SVG/1.1/DTD/svg11.dtd">
<!-- Generated by graphviz version 15.0.0 (0)
 -->
<!-- Title: PFDSL Pages: 1 -->
<svg width="313pt" height="260pt"
 viewBox="0.00 0.00 313.00 260.00" xmlns="http://www.w3.org/2000/svg" xmlns:xlink="http://www.w3.org/1999/xlink">
<g id="graph0" class="graph" transform="scale(1 1) rotate(0) translate(4 256)">
<title>PFDSL</title>
<polygon fill="white" stroke="none" points="-4,4 -4,-256 308.8,-256 308.8,4 -4,4"/>
<text xml:space="preserve" text-anchor="middle" x="152.4" y="-235.4" font-family="Times,serif" font-size="14.00">Issue 依存フロー（2026&#45;06） — diff</text>
<text xml:space="preserve" text-anchor="middle" x="152.4" y="-218.6" font-family="Times,serif" font-size="14.00">green = added · red = removed · yellow = changed</text>
<!-- i216_hover_jump -->
<g id="node1" class="node">
<title>i216_hover_jump</title>
<polygon fill="#ffeeba" stroke="#e0a800" points="223.78,-58.4 81.03,-58.4 81.03,0 223.78,0 223.78,-58.4"/>
<text xml:space="preserve" text-anchor="middle" x="152.4" y="-41.8" font-family="Times,serif" font-size="14.00">i216_hover_jump</text>
<text xml:space="preserve" text-anchor="middle" x="152.4" y="-25" font-family="Times,serif" font-size="14.00">hover/quickpick jump </text>
<text xml:space="preserve" text-anchor="middle" x="152.4" y="-8.2" font-family="Times,serif" font-size="14.00">(#216)</text>
</g>
<!-- i217_run_command -->
<g id="node2" class="node">
<title>i217_run_command</title>
<polygon fill="#ffeeba" stroke="#e0a800" points="220.8,-134.4 84,-134.4 84,-76 220.8,-76 220.8,-134.4"/>
<text xml:space="preserve" text-anchor="middle" x="152.4" y="-117.8" font-family="Times,serif" font-size="14.00">i217_run_command</text>
<text xml:space="preserve" text-anchor="middle" x="152.4" y="-101" font-family="Times,serif" font-size="14.00">process command</text>
<text xml:space="preserve" text-anchor="middle" x="152.4" y="-84.2" font-family="Times,serif" font-size="14.00">実行 (#217)</text>
</g>
<!-- i218_group_hover -->
<g id="node3" class="node">
<title>i218_group_hover</title>
<polygon fill="#ffeeba" stroke="#e0a800" points="231.6,-210.4 73.2,-210.4 73.2,-152 231.6,-152 231.6,-210.4"/>
<text xml:space="preserve" text-anchor="middle" x="152.4" y="-193.8" font-family="Times,serif" font-size="14.00">i218_group_hover</text>
<text xml:space="preserve" text-anchor="middle" x="152.4" y="-177" font-family="Times,serif" font-size="14.00">group hover</text>
<text xml:space="preserve" text-anchor="middle" x="152.4" y="-160.2" font-family="Times,serif" font-size="14.00">メンバー一覧 (#218)</text>
</g>
</g>
</svg>
