<?xml version="1.0" encoding="UTF-8" standalone="no"?>
<!DOCTYPE svg PUBLIC "-//W3C//DTD SVG 1.1//EN"
 "http://www.w3.org/Graphics/SVG/1.1/DTD/svg11.dtd">
<!-- Generated by graphviz version 15.0.0 (0)
 -->
<!-- Title: PFDSL Pages: 1 -->
<svg width="2165pt" height="395pt"
 viewBox="0.00 0.00 2165.00 395.00" xmlns="http://www.w3.org/2000/svg" xmlns:xlink="http://www.w3.org/1999/xlink">
<g id="graph0" class="graph" transform="scale(1 1) rotate(0) translate(4 391.43)">
<title>PFDSL</title>
<polygon fill="white" stroke="none" points="-4,4 -4,-391.43 2161.08,-391.43 2161.08,4 -4,4"/>
<text xml:space="preserve" text-anchor="middle" x="1078.54" y="-370.83" font-family="Times,serif" font-size="14.00">Pipeline Scale Test Fixture — diff</text>
<text xml:space="preserve" text-anchor="middle" x="1078.54" y="-354.03" font-family="Times,serif" font-size="14.00">green = added · red = removed · yellow = changed</text>
<!-- adr_set -->
<g id="node1" class="node">
<title>adr_set</title>
<polygon fill="#c3e6cb" stroke="#28a745" points="66.95,-183.22 0,-183.22 0,-141.62 66.95,-141.62 66.95,-183.22"/>
<text xml:space="preserve" text-anchor="middle" x="33.47" y="-166.62" font-family="Times,serif" font-size="14.00">adr_set</text>
<text xml:space="preserve" text-anchor="middle" x="33.47" y="-149.82" font-family="Times,serif" font-size="14.00">ADR Set</text>
</g>
<!-- draft_alpha -->
<g id="node7" class="node">
<title>draft_alpha</title>
<ellipse fill="#c3e6cb" stroke="#28a745" cx="183.54" cy="-124.42" rx="80.59" ry="29.42"/>
<text xml:space="preserve" text-anchor="middle" x="183.54" y="-128.62" font-family="Times,serif" font-size="14.00">draft_alpha</text>
<text xml:space="preserve" text-anchor="middle" x="183.54" y="-111.82" font-family="Times,serif" font-size="14.00">Draft Alpha Spec</text>
</g>
<!-- adr_set&#45;&gt;draft_alpha -->
<g id="edge1" class="edge">
<title>adr_set&#45;&gt;draft_alpha</title>
<path fill="none" stroke="#28a745" d="M67.33,-153.98C78.83,-151.03 92.27,-147.58 105.83,-144.1"/>
<polygon fill="#28a745" stroke="#28a745" points="106.41,-147.57 115.22,-141.69 104.67,-140.79 106.41,-147.57"/>
</g>
<!-- draft_beta -->
<g id="node8" class="node">
<title>draft_beta</title>
<ellipse fill="#c3e6cb" stroke="#28a745" cx="183.54" cy="-278.42" rx="74.53" ry="29.42"/>
<text xml:space="preserve" text-anchor="middle" x="183.54" y="-282.62" font-family="Times,serif" font-size="14.00">draft_beta</text>
<text xml:space="preserve" text-anchor="middle" x="183.54" y="-265.82" font-family="Times,serif" font-size="14.00">Draft Beta Spec</text>
</g>
<!-- adr_set&#45;&gt;draft_beta -->
<g id="edge2" class="edge">
<title>adr_set&#45;&gt;draft_beta</title>
<path fill="none" stroke="#28a745" d="M49.5,-183.41C62.28,-200.16 81.87,-223.4 102.95,-239.42 108.79,-243.86 115.22,-248 121.82,-251.79"/>
<polygon fill="#28a745" stroke="#28a745" points="119.76,-254.66 130.22,-256.38 123.12,-248.52 119.76,-254.66"/>
</g>
<!-- write_article -->
<g id="node28" class="node">
<title>write_article</title>
<ellipse fill="#c3e6cb" stroke="#28a745" cx="183.54" cy="-47.42" rx="63.81" ry="29.42"/>
<text xml:space="preserve" text-anchor="middle" x="183.54" y="-51.62" font-family="Times,serif" font-size="14.00">write_article</text>
<text xml:space="preserve" text-anchor="middle" x="183.54" y="-34.82" font-family="Times,serif" font-size="14.00">Write Article</text>
</g>
<!-- adr_set&#45;&gt;write_article -->
<g id="edge3" class="edge">
<title>adr_set&#45;&gt;write_article</title>
<path fill="none" stroke="#28a745" d="M49.81,-141.37C62.63,-124.87 82.11,-102.14 102.95,-86.42 109.86,-81.2 117.57,-76.4 125.41,-72.07"/>
<polygon fill="#28a745" stroke="#28a745" points="126.77,-75.31 134,-67.56 123.52,-69.11 126.77,-75.31"/>
</g>
<!-- write_policy -->
<g id="node29" class="node">
<title>write_policy</title>
<ellipse fill="#c3e6cb" stroke="#28a745" cx="183.54" cy="-201.42" rx="80.59" ry="29.42"/>
<text xml:space="preserve" text-anchor="middle" x="183.54" y="-205.62" font-family="Times,serif" font-size="14.00">write_policy</text>
<text xml:space="preserve" text-anchor="middle" x="183.54" y="-188.82" font-family="Times,serif" font-size="14.00">Write Policy Doc</text>
</g>
<!-- adr_set&#45;&gt;write_policy -->
<g id="edge4" class="edge">
<title>adr_set&#45;&gt;write_policy</title>
<path fill="none" stroke="#28a745" d="M67.33,-171.07C78.96,-174.13 92.58,-177.72 106.3,-181.33"/>
<polygon fill="#28a745" stroke="#28a745" points="105.26,-184.68 115.83,-183.84 107.05,-177.91 105.26,-184.68"/>
</g>
<!-- article -->
<g id="node2" class="node">
<title>article</title>
<polygon fill="#c3e6cb" stroke="#28a745" points="428.1,-68.22 300.13,-68.22 300.13,-26.62 428.1,-26.62 428.1,-68.22"/>
<text xml:space="preserve" text-anchor="middle" x="364.12" y="-51.62" font-family="Times,serif" font-size="14.00">article</text>
<text xml:space="preserve" text-anchor="middle" x="364.12" y="-34.82" font-family="Times,serif" font-size="14.00">Public Article (#30)</text>
</g>
<!-- build_plugin_a -->
<g id="node3" class="node">
<title>build_plugin_a</title>
<ellipse fill="#c3e6cb" stroke="#28a745" cx="959.97" cy="-183.42" rx="71.27" ry="29.42"/>
<text xml:space="preserve" text-anchor="middle" x="959.97" y="-187.62" font-family="Times,serif" font-size="14.00">build_plugin_a</text>
<text xml:space="preserve" text-anchor="middle" x="959.97" y="-170.82" font-family="Times,serif" font-size="14.00">Build Plugin A</text>
</g>
<!-- impl_plugin_a -->
<g id="node15" class="node">
<title>impl_plugin_a</title>
<polygon fill="#c3e6cb" stroke="#28a745" points="1194.66,-280.22 1094.66,-280.22 1094.66,-238.62 1194.66,-238.62 1194.66,-280.22"/>
<text xml:space="preserve" text-anchor="middle" x="1144.66" y="-263.62" font-family="Times,serif" font-size="14.00">impl_plugin_a</text>
<text xml:space="preserve" text-anchor="middle" x="1144.66" y="-246.82" font-family="Times,serif" font-size="14.00">Plugin A (#10)</text>
</g>
<!-- build_plugin_a&#45;&gt;impl_plugin_a -->
<g id="edge5" class="edge">
<title>build_plugin_a&#45;&gt;impl_plugin_a</title>
<path fill="none" stroke="#28a745" d="M1011.29,-203.97C1025.72,-209.9 1041.47,-216.39 1055.95,-222.42 1065.04,-226.2 1074.65,-230.23 1084.05,-234.18"/>
<polygon fill="#28a745" stroke="#28a745" points="1082.56,-237.35 1093.13,-238 1085.27,-230.89 1082.56,-237.35"/>
</g>
<!-- build_plugin_b -->
<g id="node4" class="node">
<title>build_plugin_b</title>
<ellipse fill="#c3e6cb" stroke="#28a745" cx="1328.79" cy="-316.42" rx="71.81" ry="29.42"/>
<text xml:space="preserve" text-anchor="middle" x="1328.79" y="-320.62" font-family="Times,serif" font-size="14.00">build_plugin_b</text>
<text xml:space="preserve" text-anchor="middle" x="1328.79" y="-303.82" font-family="Times,serif" font-size="14.00">Build Plugin B</text>
</g>
<!-- impl_plugin_b -->
<g id="node16" class="node">
<title>impl_plugin_b</title>
<polygon fill="#c3e6cb" stroke="#28a745" points="1718.17,-331.22 1618.94,-331.22 1618.94,-289.62 1718.17,-289.62 1718.17,-331.22"/>
<text xml:space="preserve" text-anchor="middle" x="1668.55" y="-314.62" font-family="Times,serif" font-size="14.00">impl_plugin_b</text>
<text xml:space="preserve" text-anchor="middle" x="1668.55" y="-297.82" font-family="Times,serif" font-size="14.00">Plugin B (#11)</text>
</g>
<!-- build_plugin_b&#45;&gt;impl_plugin_b -->
<g id="edge6" class="edge">
<title>build_plugin_b&#45;&gt;impl_plugin_b</title>
<path fill="none" stroke="#28a745" d="M1401.01,-315.15C1462.12,-314.06 1549.23,-312.52 1607.03,-311.49"/>
<polygon fill="#28a745" stroke="#28a745" points="1607.09,-314.99 1617.02,-311.31 1606.96,-307.99 1607.09,-314.99"/>
</g>
<!-- do_release_v1 -->
<g id="node5" class="node">
<title>do_release_v1</title>
<ellipse fill="#c3e6cb" stroke="#28a745" cx="1668.55" cy="-145.42" rx="68.49" ry="29.42"/>
<text xml:space="preserve" text-anchor="middle" x="1668.55" y="-149.62" font-family="Times,serif" font-size="14.00">do_release_v1</text>
<text xml:space="preserve" text-anchor="middle" x="1668.55" y="-132.82" font-family="Times,serif" font-size="14.00">Release v1.0</text>
</g>
<!-- release_v1 -->
<g id="node24" class="node">
<title>release_v1</title>
<polygon fill="#c3e6cb" stroke="#28a745" points="1860.57,-199.22 1773.04,-199.22 1773.04,-157.62 1860.57,-157.62 1860.57,-199.22"/>
<text xml:space="preserve" text-anchor="middle" x="1816.81" y="-182.62" font-family="Times,serif" font-size="14.00">release_v1</text>
<text xml:space="preserve" text-anchor="middle" x="1816.81" y="-165.82" font-family="Times,serif" font-size="14.00">v1.0 Release</text>
</g>
<!-- do_release_v1&#45;&gt;release_v1 -->
<g id="edge7" class="edge">
<title>do_release_v1&#45;&gt;release_v1</title>
<path fill="none" stroke="#28a745" d="M1729.88,-159.03C1740.4,-161.4 1751.28,-163.86 1761.62,-166.19"/>
<polygon fill="#28a745" stroke="#28a745" points="1760.58,-169.54 1771.11,-168.33 1762.12,-162.71 1760.58,-169.54"/>
</g>
<!-- do_release_v2 -->
<g id="node6" class="node">
<title>do_release_v2</title>
<ellipse fill="#c3e6cb" stroke="#28a745" cx="1965.06" cy="-259.42" rx="68.49" ry="29.42"/>
<text xml:space="preserve" text-anchor="middle" x="1965.06" y="-263.62" font-family="Times,serif" font-size="14.00">do_release_v2</text>
<text xml:space="preserve" text-anchor="middle" x="1965.06" y="-246.82" font-family="Times,serif" font-size="14.00">Release v2.0</text>
</g>
<!-- release_v2 -->
<g id="node25" class="node">
<title>release_v2</title>
<polygon fill="#c3e6cb" stroke="#28a745" points="2157.08,-280.22 2069.55,-280.22 2069.55,-238.62 2157.08,-238.62 2157.08,-280.22"/>
<text xml:space="preserve" text-anchor="middle" x="2113.31" y="-263.62" font-family="Times,serif" font-size="14.00">release_v2</text>
<text xml:space="preserve" text-anchor="middle" x="2113.31" y="-246.82" font-family="Times,serif" font-size="14.00">v2.0 Release</text>
</g>
<!-- do_release_v2&#45;&gt;release_v2 -->
<g id="edge8" class="edge">
<title>do_release_v2&#45;&gt;release_v2</title>
<path fill="none" stroke="#28a745" d="M2033.62,-259.42C2041.77,-259.42 2050,-259.42 2057.93,-259.42"/>
<polygon fill="#28a745" stroke="#28a745" points="2057.75,-262.92 2067.75,-259.42 2057.75,-255.92 2057.75,-262.92"/>
</g>
<!-- spec_alpha -->
<g id="node26" class="node">
<title>spec_alpha</title>
<polygon fill="#c3e6cb" stroke="#28a745" points="404.58,-153.22 323.65,-153.22 323.65,-111.62 404.58,-111.62 404.58,-153.22"/>
<text xml:space="preserve" text-anchor="middle" x="364.12" y="-136.62" font-family="Times,serif" font-size="14.00">spec_alpha</text>
<text xml:space="preserve" text-anchor="middle" x="364.12" y="-119.82" font-family="Times,serif" font-size="14.00">Alpha Spec</text>
</g>
<!-- draft_alpha&#45;&gt;spec_alpha -->
<g id="edge9" class="edge">
<title>draft_alpha&#45;&gt;spec_alpha</title>
<path fill="none" stroke="#28a745" d="M263.91,-127.97C280.38,-128.71 297.32,-129.47 312.43,-130.14"/>
<polygon fill="#28a745" stroke="#28a745" points="311.93,-133.63 322.08,-130.58 312.24,-126.63 311.93,-133.63"/>
</g>
<!-- spec_beta -->
<g id="node27" class="node">
<title>spec_beta</title>
<polygon fill="#c3e6cb" stroke="#28a745" points="400.3,-290.22 327.93,-290.22 327.93,-248.62 400.3,-248.62 400.3,-290.22"/>
<text xml:space="preserve" text-anchor="middle" x="364.12" y="-273.62" font-family="Times,serif" font-size="14.00">spec_beta</text>
<text xml:space="preserve" text-anchor="middle" x="364.12" y="-256.82" font-family="Times,serif" font-size="14.00">Beta Spec</text>
</g>
<!-- draft_beta&#45;&gt;spec_beta -->
<g id="edge10" class="edge">
<title>draft_beta&#45;&gt;spec_beta</title>
<path fill="none" stroke="#28a745" d="M257.95,-274.72C277.67,-273.72 298.47,-272.67 316.32,-271.77"/>
<polygon fill="#28a745" stroke="#28a745" points="316.25,-275.28 326.06,-271.28 315.9,-268.29 316.25,-275.28"/>
</g>
<!-- feature_x -->
<g id="node9" class="node">
<title>feature_x</title>
<polygon fill="#c3e6cb" stroke="#28a745" points="1197.37,-52.22 1091.95,-52.22 1091.95,-10.62 1197.37,-10.62 1197.37,-52.22"/>
<text xml:space="preserve" text-anchor="middle" x="1144.66" y="-35.62" font-family="Times,serif" font-size="14.00">feature_x</text>
<text xml:space="preserve" text-anchor="middle" x="1144.66" y="-18.82" font-family="Times,serif" font-size="14.00">Feature X (#20)</text>
</g>
<!-- feature_x&#45;&gt;do_release_v1 -->
<g id="edge11" class="edge">
<title>feature_x&#45;&gt;do_release_v1</title>
<path fill="none" stroke="#28a745" d="M1197.8,-25.48C1279.25,-18.34 1440.15,-12.81 1564.07,-62.42 1590.39,-72.96 1615.34,-92.56 1634.14,-110.07"/>
<polygon fill="#28a745" stroke="#28a745" points="1631.6,-112.48 1641.23,-116.88 1636.44,-107.43 1631.6,-112.48"/>
</g>
<!-- implement_feature_z -->
<g id="node22" class="node">
<title>implement_feature_z</title>
<ellipse fill="#c3e6cb" stroke="#28a745" cx="1328.79" cy="-88.42" rx="95.42" ry="29.42"/>
<text xml:space="preserve" text-anchor="middle" x="1328.79" y="-92.62" font-family="Times,serif" font-size="14.00">implement_feature_z</text>
<text xml:space="preserve" text-anchor="middle" x="1328.79" y="-75.82" font-family="Times,serif" font-size="14.00">Implement Feature Z</text>
</g>
<!-- feature_x&#45;&gt;implement_feature_z -->
<g id="edge12" class="edge">
<title>feature_x&#45;&gt;implement_feature_z</title>
<path fill="none" stroke="#28a745" d="M1197.85,-47.75C1214.04,-52.82 1232.25,-58.52 1249.8,-64.01"/>
<polygon fill="#28a745" stroke="#28a745" points="1248.58,-67.29 1259.17,-66.94 1250.67,-60.61 1248.58,-67.29"/>
</g>
<!-- feature_y -->
<g id="node10" class="node">
<title>feature_y</title>
<polygon fill="#c3e6cb" stroke="#28a745" points="1197.37,-127.22 1091.95,-127.22 1091.95,-85.62 1197.37,-85.62 1197.37,-127.22"/>
<text xml:space="preserve" text-anchor="middle" x="1144.66" y="-110.62" font-family="Times,serif" font-size="14.00">feature_y</text>
<text xml:space="preserve" text-anchor="middle" x="1144.66" y="-93.82" font-family="Times,serif" font-size="14.00">Feature Y (#21)</text>
</g>
<!-- feature_y&#45;&gt;do_release_v1 -->
<g id="edge13" class="edge">
<title>feature_y&#45;&gt;do_release_v1</title>
<path fill="none" stroke="#28a745" d="M1197.79,-119.93C1209.43,-122.49 1221.76,-124.85 1233.37,-126.42 1356.63,-143.03 1501.19,-146.12 1588.5,-146.22"/>
<polygon fill="#28a745" stroke="#28a745" points="1588.39,-149.72 1598.39,-146.22 1588.39,-142.72 1588.39,-149.72"/>
</g>
<!-- feature_y&#45;&gt;implement_feature_z -->
<g id="edge14" class="edge">
<title>feature_y&#45;&gt;implement_feature_z</title>
<path fill="none" stroke="#28a745" d="M1197.85,-101.26C1206.77,-100.38 1216.29,-99.43 1225.99,-98.48"/>
<polygon fill="#28a745" stroke="#28a745" points="1226.3,-101.96 1235.9,-97.5 1225.61,-95 1226.3,-101.96"/>
</g>
<!-- feature_z -->
<g id="node11" class="node">
<title>feature_z</title>
<polygon fill="#c3e6cb" stroke="#28a745" points="1564.07,-113.22 1460.21,-113.22 1460.21,-71.62 1564.07,-71.62 1564.07,-113.22"/>
<text xml:space="preserve" text-anchor="middle" x="1512.14" y="-96.62" font-family="Times,serif" font-size="14.00">feature_z</text>
<text xml:space="preserve" text-anchor="middle" x="1512.14" y="-79.82" font-family="Times,serif" font-size="14.00">Feature Z (#22)</text>
</g>
<!-- feature_z&#45;&gt;do_release_v1 -->
<g id="edge15" class="edge">
<title>feature_z&#45;&gt;do_release_v1</title>
<path fill="none" stroke="#28a745" d="M1564.56,-110.06C1577.03,-114.35 1590.52,-118.98 1603.5,-123.43"/>
<polygon fill="#28a745" stroke="#28a745" points="1602.22,-126.69 1612.81,-126.63 1604.49,-120.07 1602.22,-126.69"/>
</g>
<!-- impl_cli -->
<g id="node12" class="node">
<title>impl_cli</title>
<polygon fill="#c3e6cb" stroke="#28a745" points="1395.89,-231.62 1261.69,-231.62 1261.69,-173.22 1395.89,-173.22 1395.89,-231.62"/>
<text xml:space="preserve" text-anchor="middle" x="1328.79" y="-215.02" font-family="Times,serif" font-size="14.00">impl_cli</text>
<text xml:space="preserve" text-anchor="middle" x="1328.79" y="-198.22" font-family="Times,serif" font-size="14.00">CLI Implementation </text>
<text xml:space="preserve" text-anchor="middle" x="1328.79" y="-181.42" font-family="Times,serif" font-size="14.00">#5)</text>
</g>
<!-- impl_cli&#45;&gt;do_release_v1 -->
<g id="edge16" class="edge">
<title>impl_cli&#45;&gt;do_release_v1</title>
<path fill="none" stroke="#28a745" d="M1396.12,-191.22C1452.79,-181.66 1534.26,-167.91 1593.14,-157.97"/>
<polygon fill="#28a745" stroke="#28a745" points="1593.46,-161.47 1602.74,-156.35 1592.3,-154.57 1593.46,-161.47"/>
</g>
<!-- impl_core -->
<g id="node13" class="node">
<title>impl_core</title>
<polygon fill="#c3e6cb" stroke="#28a745" points="827.99,-187.22 692.64,-187.22 692.64,-145.62 827.99,-145.62 827.99,-187.22"/>
<text xml:space="preserve" text-anchor="middle" x="760.31" y="-170.62" font-family="Times,serif" font-size="14.00">impl_core</text>
<text xml:space="preserve" text-anchor="middle" x="760.31" y="-153.82" font-family="Times,serif" font-size="14.00">Core Implementation</text>
</g>
<!-- impl_core&#45;&gt;build_plugin_a -->
<g id="edge17" class="edge">
<title>impl_core&#45;&gt;build_plugin_a</title>
<path fill="none" stroke="#28a745" d="M828.23,-172.17C844.34,-173.56 861.71,-175.05 878.37,-176.48"/>
<polygon fill="#28a745" stroke="#28a745" points="877.99,-179.96 888.26,-177.33 878.59,-172.99 877.99,-179.96"/>
</g>
<!-- implement_cli -->
<g id="node17" class="node">
<title>implement_cli</title>
<ellipse fill="#c3e6cb" stroke="#28a745" cx="959.97" cy="-260.42" rx="72.62" ry="29.42"/>
<text xml:space="preserve" text-anchor="middle" x="959.97" y="-264.62" font-family="Times,serif" font-size="14.00">implement_cli</text>
<text xml:space="preserve" text-anchor="middle" x="959.97" y="-247.82" font-family="Times,serif" font-size="14.00">Implement CLI</text>
</g>
<!-- impl_core&#45;&gt;implement_cli -->
<g id="edge18" class="edge">
<title>impl_core&#45;&gt;implement_cli</title>
<path fill="none" stroke="#28a745" d="M798.4,-187.46C817.71,-198.12 841.86,-210.98 863.99,-221.42 874.38,-226.31 885.55,-231.22 896.46,-235.81"/>
<polygon fill="#28a745" stroke="#28a745" points="894.82,-238.92 905.4,-239.53 897.51,-232.46 894.82,-238.92"/>
</g>
<!-- implement_feature_x -->
<g id="node20" class="node">
<title>implement_feature_x</title>
<ellipse fill="#c3e6cb" stroke="#28a745" cx="959.97" cy="-29.42" rx="95.98" ry="29.42"/>
<text xml:space="preserve" text-anchor="middle" x="959.97" y="-33.62" font-family="Times,serif" font-size="14.00">implement_feature_x</text>
<text xml:space="preserve" text-anchor="middle" x="959.97" y="-16.82" font-family="Times,serif" font-size="14.00">Implement Feature X</text>
</g>
<!-- impl_core&#45;&gt;implement_feature_x -->
<g id="edge19" class="edge">
<title>impl_core&#45;&gt;implement_feature_x</title>
<path fill="none" stroke="#28a745" d="M779.14,-145.27C798.29,-123.62 830.51,-90.15 863.99,-68.42 870.6,-64.13 877.75,-60.16 885.07,-56.52"/>
<polygon fill="#28a745" stroke="#28a745" points="886.56,-59.69 894.11,-52.26 883.57,-53.36 886.56,-59.69"/>
</g>
<!-- implement_feature_y -->
<g id="node21" class="node">
<title>implement_feature_y</title>
<ellipse fill="#c3e6cb" stroke="#28a745" cx="959.97" cy="-106.42" rx="95.98" ry="29.42"/>
<text xml:space="preserve" text-anchor="middle" x="959.97" y="-110.62" font-family="Times,serif" font-size="14.00">implement_feature_y</text>
<text xml:space="preserve" text-anchor="middle" x="959.97" y="-93.82" font-family="Times,serif" font-size="14.00">Implement Feature Y</text>
</g>
<!-- impl_core&#45;&gt;implement_feature_y -->
<g id="edge20" class="edge">
<title>impl_core&#45;&gt;implement_feature_y</title>
<path fill="none" stroke="#28a745" d="M828.23,-146.1C844.93,-141.03 862.98,-135.55 880.19,-130.33"/>
<polygon fill="#28a745" stroke="#28a745" points="880.78,-133.81 889.33,-127.56 878.74,-127.11 880.78,-133.81"/>
</g>
<!-- impl_ext -->
<g id="node14" class="node">
<title>impl_ext</title>
<polygon fill="#c3e6cb" stroke="#28a745" points="812.63,-293.62 707.99,-293.62 707.99,-235.22 812.63,-235.22 812.63,-293.62"/>
<text xml:space="preserve" text-anchor="middle" x="760.31" y="-277.02" font-family="Times,serif" font-size="14.00">impl_ext</text>
<text xml:space="preserve" text-anchor="middle" x="760.31" y="-260.22" font-family="Times,serif" font-size="14.00">Extension</text>
<text xml:space="preserve" text-anchor="middle" x="760.31" y="-243.42" font-family="Times,serif" font-size="14.00">Implementation</text>
</g>
<!-- impl_ext&#45;&gt;build_plugin_b -->
<g id="edge21" class="edge">
<title>impl_ext&#45;&gt;build_plugin_b</title>
<path fill="none" stroke="#28a745" d="M813.07,-284.69C829.15,-290.13 847.08,-295.35 863.99,-298.42 996.05,-322.35 1152.59,-322.76 1245.86,-320.12"/>
<polygon fill="#28a745" stroke="#28a745" points="1245.79,-323.63 1255.68,-319.83 1245.58,-316.63 1245.79,-323.63"/>
</g>
<!-- impl_ext&#45;&gt;implement_cli -->
<g id="edge22" class="edge">
<title>impl_ext&#45;&gt;implement_cli</title>
<path fill="none" stroke="#28a745" d="M812.99,-263.37C832.19,-262.98 854.48,-262.53 875.79,-262.1"/>
<polygon fill="#28a745" stroke="#28a745" points="875.71,-265.6 885.64,-261.9 875.57,-258.6 875.71,-265.6"/>
</g>
<!-- impl_plugin_a&#45;&gt;build_plugin_b -->
<g id="edge23" class="edge">
<title>impl_plugin_a&#45;&gt;build_plugin_b</title>
<path fill="none" stroke="#28a745" d="M1194.95,-274.84C1215.04,-281.13 1238.61,-288.5 1260.26,-295.28"/>
<polygon fill="#28a745" stroke="#28a745" points="1259.02,-298.56 1269.61,-298.21 1261.11,-291.88 1259.02,-298.56"/>
</g>
<!-- impl_plugin_a&#45;&gt;do_release_v2 -->
<g id="edge24" class="edge">
<title>impl_plugin_a&#45;&gt;do_release_v2</title>
<path fill="none" stroke="#28a745" d="M1195.02,-259.42C1265.25,-259.42 1398.04,-259.42 1511.14,-259.42 1511.14,-259.42 1511.14,-259.42 1669.55,-259.42 1742.56,-259.42 1825.76,-259.42 1885.06,-259.42"/>
<polygon fill="#28a745" stroke="#28a745" points="1884.7,-262.92 1894.7,-259.42 1884.7,-255.92 1884.7,-262.92"/>
</g>
<!-- impl_plugin_b&#45;&gt;do_release_v2 -->
<g id="edge25" class="edge">
<title>impl_plugin_b&#45;&gt;do_release_v2</title>
<path fill="none" stroke="#28a745" d="M1718.51,-301.94C1765.24,-293.85 1836.27,-281.55 1889.93,-272.25"/>
<polygon fill="#28a745" stroke="#28a745" points="1890.36,-275.73 1899.61,-270.58 1889.16,-268.83 1890.36,-275.73"/>
</g>
<!-- implement_cli&#45;&gt;impl_cli -->
<g id="edge26" class="edge">
<title>implement_cli&#45;&gt;impl_cli</title>
<path fill="none" stroke="#28a745" d="M1021.64,-244.48C1043.66,-239.11 1068.82,-233.46 1091.95,-229.42 1144.35,-220.25 1203.85,-213.46 1249.98,-208.99"/>
<polygon fill="#28a745" stroke="#28a745" points="1250.28,-212.47 1259.91,-208.04 1249.62,-205.51 1250.28,-212.47"/>
</g>
<!-- implement_core -->
<g id="node18" class="node">
<title>implement_core</title>
<ellipse fill="#c3e6cb" stroke="#28a745" cx="560.37" cy="-166.42" rx="75.92" ry="29.42"/>
<text xml:space="preserve" text-anchor="middle" x="560.37" y="-170.62" font-family="Times,serif" font-size="14.00">implement_core</text>
<text xml:space="preserve" text-anchor="middle" x="560.37" y="-153.82" font-family="Times,serif" font-size="14.00">Implement Core</text>
</g>
<!-- implement_core&#45;&gt;impl_core -->
<g id="edge27" class="edge">
<title>implement_core&#45;&gt;impl_core</title>
<path fill="none" stroke="#28a745" d="M636.77,-166.42C651.17,-166.42 666.27,-166.42 680.76,-166.42"/>
<polygon fill="#28a745" stroke="#28a745" points="680.72,-169.92 690.72,-166.42 680.71,-162.92 680.72,-169.92"/>
</g>
<!-- implement_ext -->
<g id="node19" class="node">
<title>implement_ext</title>
<ellipse fill="#c3e6cb" stroke="#28a745" cx="560.37" cy="-264.42" rx="96.27" ry="29.42"/>
<text xml:space="preserve" text-anchor="middle" x="560.37" y="-268.62" font-family="Times,serif" font-size="14.00">implement_ext</text>
<text xml:space="preserve" text-anchor="middle" x="560.37" y="-251.82" font-family="Times,serif" font-size="14.00">Implement Extension</text>
</g>
<!-- implement_ext&#45;&gt;impl_ext -->
<g id="edge28" class="edge">
<title>implement_ext&#45;&gt;impl_ext</title>
<path fill="none" stroke="#28a745" d="M656.86,-264.42C670.26,-264.42 683.74,-264.42 696.33,-264.42"/>
<polygon fill="#28a745" stroke="#28a745" points="696.09,-267.92 706.09,-264.42 696.09,-260.92 696.09,-267.92"/>
</g>
<!-- implement_feature_x&#45;&gt;feature_x -->
<g id="edge29" class="edge">
<title>implement_feature_x&#45;&gt;feature_x</title>
<path fill="none" stroke="#28a745" d="M1056.33,-30.46C1064.37,-30.55 1072.37,-30.64 1080.09,-30.72"/>
<polygon fill="#28a745" stroke="#28a745" points="1079.98,-34.22 1090.02,-30.83 1080.06,-27.22 1079.98,-34.22"/>
</g>
<!-- implement_feature_y&#45;&gt;feature_y -->
<g id="edge30" class="edge">
<title>implement_feature_y&#45;&gt;feature_y</title>
<path fill="none" stroke="#28a745" d="M1056.33,-106.42C1064.37,-106.42 1072.37,-106.42 1080.09,-106.42"/>
<polygon fill="#28a745" stroke="#28a745" points="1080.02,-109.92 1090.02,-106.42 1080.02,-102.92 1080.02,-109.92"/>
</g>
<!-- implement_feature_z&#45;&gt;feature_z -->
<g id="edge31" class="edge">
<title>implement_feature_z&#45;&gt;feature_z</title>
<path fill="none" stroke="#28a745" d="M1424.45,-90.5C1432.55,-90.68 1440.6,-90.86 1448.36,-91.03"/>
<polygon fill="#28a745" stroke="#28a745" points="1448.27,-94.53 1458.35,-91.25 1448.43,-87.53 1448.27,-94.53"/>
</g>
<!-- policy_doc -->
<g id="node23" class="node">
<title>policy_doc</title>
<polygon fill="#c3e6cb" stroke="#28a745" points="420.91,-222.22 307.32,-222.22 307.32,-180.62 420.91,-180.62 420.91,-222.22"/>
<text xml:space="preserve" text-anchor="middle" x="364.12" y="-205.62" font-family="Times,serif" font-size="14.00">policy_doc</text>
<text xml:space="preserve" text-anchor="middle" x="364.12" y="-188.82" font-family="Times,serif" font-size="14.00">Policy Document</text>
</g>
<!-- policy_doc&#45;&gt;implement_core -->
<g id="edge32" class="edge">
<title>policy_doc&#45;&gt;implement_core</title>
<path fill="none" stroke="#28a745" d="M421.3,-191.29C439.56,-188 460.18,-184.29 479.81,-180.75"/>
<polygon fill="#28a745" stroke="#28a745" points="480.19,-184.24 489.41,-179.02 478.95,-177.35 480.19,-184.24"/>
</g>
<!-- policy_doc&#45;&gt;implement_ext -->
<g id="edge33" class="edge">
<title>policy_doc&#45;&gt;implement_ext</title>
<path fill="none" stroke="#28a745" d="M421.3,-219.64C440.39,-225.83 462.07,-232.86 482.49,-239.48"/>
<polygon fill="#28a745" stroke="#28a745" points="481.33,-242.79 491.92,-242.54 483.49,-236.13 481.33,-242.79"/>
</g>
<!-- release_v1&#45;&gt;do_release_v2 -->
<g id="edge34" class="edge">
<title>release_v1&#45;&gt;do_release_v2</title>
<path fill="none" stroke="#28a745" d="M1856.23,-199.7C1873.3,-209.15 1893.65,-220.42 1912.05,-230.61"/>
<polygon fill="#28a745" stroke="#28a745" points="1910.27,-233.63 1920.71,-235.41 1913.66,-227.5 1910.27,-233.63"/>
</g>
<!-- spec_alpha&#45;&gt;implement_core -->
<g id="edge35" class="edge">
<title>spec_alpha&#45;&gt;implement_core</title>
<path fill="none" stroke="#28a745" d="M404.89,-133.81C428.41,-136.82 458.9,-141.83 486.58,-147.12"/>
<polygon fill="#28a745" stroke="#28a745" points="485.86,-150.54 496.35,-149.03 487.21,-143.67 485.86,-150.54"/>
</g>
<!-- spec_alpha&#45;&gt;implement_core -->
<g id="edge39" class="edge">
<title>spec_alpha&#45;&gt;implement_core</title>
<path fill="none" stroke="#28a745" stroke-dasharray="5,2" d="M404.89,-144.95C425.11,-149.44 450.49,-154.25 474.8,-158.31"/>
<polygon fill="#28a745" stroke="#28a745" points="473.94,-161.72 484.37,-159.88 475.07,-154.81 473.94,-161.72"/>
</g>
<!-- spec_beta&#45;&gt;implement_ext -->
<g id="edge36" class="edge">
<title>spec_beta&#45;&gt;implement_ext</title>
<path fill="none" stroke="#28a745" d="M400.75,-268.5C415.69,-268.11 433.94,-267.64 452.66,-267.16"/>
<polygon fill="#28a745" stroke="#28a745" points="452.62,-270.66 462.53,-266.91 452.44,-263.67 452.62,-270.66"/>
</g>
<!-- write_article&#45;&gt;article -->
<g id="edge37" class="edge">
<title>write_article&#45;&gt;article</title>
<path fill="none" stroke="#28a745" d="M247.75,-47.42C260.92,-47.42 274.92,-47.42 288.45,-47.42"/>
<polygon fill="#28a745" stroke="#28a745" points="288.18,-50.92 298.18,-47.42 288.18,-43.92 288.18,-50.92"/>
</g>
<!-- write_policy&#45;&gt;policy_doc -->
<g id="edge38" class="edge">
<title>write_policy&#45;&gt;policy_doc</title>
<path fill="none" stroke="#28a745" d="M264.43,-201.42C274.88,-201.42 285.52,-201.42 295.74,-201.42"/>
<polygon fill="#28a745" stroke="#28a745" points="295.56,-204.92 305.56,-201.42 295.56,-197.92 295.56,-204.92"/>
</g>
</g>
</svg>
