<?xml version="1.0" encoding="UTF-8" standalone="no"?>
<!DOCTYPE svg PUBLIC "-//W3C//DTD SVG 1.1//EN"
 "http://www.w3.org/Graphics/SVG/1.1/DTD/svg11.dtd">
<!-- Generated by graphviz version 15.1.0 (0)
 -->
<!-- Title: PFDSL Pages: 1 -->
<svg width="653pt" height="108pt"
 viewBox="0.00 0.00 653.00 108.00" xmlns="http://www.w3.org/2000/svg" xmlns:xlink="http://www.w3.org/1999/xlink">
<g id="graph0" class="graph" transform="scale(1 1) rotate(0) translate(4 104.43)">
<title>PFDSL</title>
<polygon fill="white" stroke="none" points="-4,4 -4,-104.43 649.15,-104.43 649.15,4 -4,4"/>
<text xml:space="preserve" text-anchor="middle" x="322.57" y="-83.83" font-family="Times,serif" font-size="14.00">Issue 依存フロー（2026&#45;06） — diff</text>
<text xml:space="preserve" text-anchor="middle" x="322.57" y="-67.03" font-family="Times,serif" font-size="14.00">green = added · red = removed · yellow = changed</text>
<!-- i366_distribute_marketplace -->
<g id="node1" class="node">
<title>i366_distribute_marketplace</title>
<ellipse fill="#c3e6cb" stroke="#28a745" cx="311.77" cy="-29.42" rx="124.57" ry="29.42"/>
<text xml:space="preserve" text-anchor="middle" x="311.77" y="-33.62" font-family="Times,serif" font-size="14.00">i366_distribute_marketplace</text>
<text xml:space="preserve" text-anchor="middle" x="311.77" y="-16.82" font-family="Times,serif" font-size="14.00">marketplace 配布移行</text>
</g>
<!-- marketplace_dist -->
<g id="node2" class="node">
<title>marketplace_dist</title>
<polygon fill="#c3e6cb" stroke="#28a745" points="645.15,-58.62 472.35,-58.62 472.35,-0.22 645.15,-0.22 645.15,-58.62"/>
<text xml:space="preserve" text-anchor="middle" x="558.75" y="-42.02" font-family="Times,serif" font-size="14.00">marketplace_dist</text>
<text xml:space="preserve" text-anchor="middle" x="558.75" y="-25.22" font-family="Times,serif" font-size="14.00">marketplace 配布</text>
<text xml:space="preserve" text-anchor="middle" x="558.75" y="-8.42" font-family="Times,serif" font-size="14.00">pfdsl skill 群 (#366)</text>
</g>
<!-- i366_distribute_marketplace&#45;&gt;marketplace_dist -->
<g id="edge1" class="edge">
<title>i366_distribute_marketplace&#45;&gt;marketplace_dist</title>
<path fill="none" stroke="#28a745" d="M436.69,-29.42C444.75,-29.42 452.79,-29.42 460.69,-29.42"/>
<polygon fill="#28a745" stroke="#28a745" points="460.63,-32.92 470.63,-29.42 460.63,-25.92 460.63,-32.92"/>
</g>
<!-- skill_gen -->
<g id="node3" class="node">
<title>skill_gen</title>
<polygon fill="#f5f5f5" stroke="#bbbbbb" points="151.2,-58.62 0,-58.62 0,-0.22 151.2,-0.22 151.2,-58.62"/>
<text xml:space="preserve" text-anchor="middle" x="75.6" y="-42.02" font-family="Times,serif" font-size="14.00" fill="#777777">skill_gen</text>
<text xml:space="preserve" text-anchor="middle" x="75.6" y="-25.22" font-family="Times,serif" font-size="14.00" fill="#777777">スキル生成系（現行</text>
<text xml:space="preserve" text-anchor="middle" x="75.6" y="-8.42" font-family="Times,serif" font-size="14.00" fill="#777777">）</text>
</g>
<!-- skill_gen&#45;&gt;i366_distribute_marketplace -->
<g id="edge2" class="edge">
<title>skill_gen&#45;&gt;i366_distribute_marketplace</title>
<path fill="none" stroke="#28a745" d="M151.66,-29.42C159.48,-29.42 167.58,-29.42 175.81,-29.42"/>
<polygon fill="#28a745" stroke="#28a745" points="175.57,-32.92 185.57,-29.42 175.57,-25.92 175.57,-32.92"/>
</g>
</g>
</svg>
