<?xml version="1.0" encoding="UTF-8" standalone="no"?>
<!DOCTYPE svg PUBLIC "-//W3C//DTD SVG 1.1//EN"
 "http://www.w3.org/Graphics/SVG/1.1/DTD/svg11.dtd">
<!-- Generated by graphviz version 15.1.0 (0)
 -->
<!-- Title: PFDSL Pages: 1 -->
<svg width="1082pt" height="411pt"
 viewBox="0.00 0.00 1082.00 411.00" xmlns="http://www.w3.org/2000/svg" xmlns:xlink="http://www.w3.org/1999/xlink">
<g id="graph0" class="graph" transform="scale(1 1) rotate(0) translate(4 407.19)">
<title>PFDSL</title>
<polygon fill="white" stroke="none" points="-4,4 -4,-407.19 1077.62,-407.19 1077.62,4 -4,4"/>
<text xml:space="preserve" text-anchor="middle" x="536.81" y="-386.59" font-family="Times,serif" font-size="14.00">Issue 依存フロー（2026&#45;06） — diff</text>
<text xml:space="preserve" text-anchor="middle" x="536.81" y="-369.79" font-family="Times,serif" font-size="14.00">green = added · red = removed · yellow = changed</text>
<!-- cli_tool_v0015 -->
<g id="node1" class="node">
<title>cli_tool_v0015</title>
<polygon fill="#f5f5f5" stroke="#bbbbbb" points="158.4,-195.1 0,-195.1 0,-153.5 158.4,-153.5 158.4,-195.1"/>
<text xml:space="preserve" text-anchor="middle" x="79.2" y="-178.5" font-family="Times,serif" font-size="14.00" fill="#777777">cli_tool_v0015</text>
<text xml:space="preserve" text-anchor="middle" x="79.2" y="-161.7" font-family="Times,serif" font-size="14.00" fill="#777777">CLI v0.0.15（次期）</text>
</g>
<!-- i354_implement_ops_checkers -->
<g id="node4" class="node">
<title>i354_implement_ops_checkers</title>
<ellipse fill="#c3e6cb" stroke="#28a745" cx="328.88" cy="-320.3" rx="134.48" ry="41.3"/>
<text xml:space="preserve" text-anchor="middle" x="328.88" y="-332.9" font-family="Times,serif" font-size="14.00">i354_implement_ops_checkers</text>
<text xml:space="preserve" text-anchor="middle" x="328.88" y="-316.1" font-family="Times,serif" font-size="14.00">サイクル機械化スク</text>
<text xml:space="preserve" text-anchor="middle" x="328.88" y="-299.3" font-family="Times,serif" font-size="14.00">リプト実装</text>
</g>
<!-- cli_tool_v0015&#45;&gt;i354_implement_ops_checkers -->
<g id="edge1" class="edge">
<title>cli_tool_v0015&#45;&gt;i354_implement_ops_checkers</title>
<path fill="none" stroke="#28a745" d="M101.31,-195.56C123.08,-216.56 158.79,-248.46 194.4,-269.3 204.3,-275.09 214.97,-280.45 225.82,-285.35"/>
<polygon fill="#28a745" stroke="#28a745" points="224.31,-288.51 234.87,-289.3 227.11,-282.09 224.31,-288.51"/>
</g>
<!-- i355_implement_retro_due -->
<g id="node5" class="node">
<title>i355_implement_retro_due</title>
<ellipse fill="#c3e6cb" stroke="#28a745" cx="328.88" cy="-219.3" rx="119.08" ry="41.3"/>
<text xml:space="preserve" text-anchor="middle" x="328.88" y="-231.9" font-family="Times,serif" font-size="14.00">i355_implement_retro_due</text>
<text xml:space="preserve" text-anchor="middle" x="328.88" y="-215.1" font-family="Times,serif" font-size="14.00">retro&#45;due 判定 + hook</text>
<text xml:space="preserve" text-anchor="middle" x="328.88" y="-198.3" font-family="Times,serif" font-size="14.00">実装</text>
</g>
<!-- cli_tool_v0015&#45;&gt;i355_implement_retro_due -->
<g id="edge2" class="edge">
<title>cli_tool_v0015&#45;&gt;i355_implement_retro_due</title>
<path fill="none" stroke="#28a745" d="M158.57,-188.53C175.47,-191.6 193.68,-194.91 211.68,-198.18"/>
<polygon fill="#28a745" stroke="#28a745" points="210.89,-201.6 221.35,-199.94 212.14,-194.71 210.89,-201.6"/>
</g>
<!-- i356_implement_explain_cmd -->
<g id="node6" class="node">
<title>i356_implement_explain_cmd</title>
<ellipse fill="#c3e6cb" stroke="#28a745" cx="328.88" cy="-130.3" rx="132.28" ry="29.42"/>
<text xml:space="preserve" text-anchor="middle" x="328.88" y="-134.5" font-family="Times,serif" font-size="14.00">i356_implement_explain_cmd</text>
<text xml:space="preserve" text-anchor="middle" x="328.88" y="-117.7" font-family="Times,serif" font-size="14.00">explain コマンド実装</text>
</g>
<!-- cli_tool_v0015&#45;&gt;i356_implement_explain_cmd -->
<g id="edge3" class="edge">
<title>cli_tool_v0015&#45;&gt;i356_implement_explain_cmd</title>
<path fill="none" stroke="#28a745" d="M158.57,-160.37C176.02,-157.27 194.87,-153.92 213.44,-150.63"/>
<polygon fill="#28a745" stroke="#28a745" points="213.91,-154.1 223.14,-148.9 212.69,-147.2 213.91,-154.1"/>
</g>
<!-- i357_define_pfd_lens_agent -->
<g id="node7" class="node">
<title>i357_define_pfd_lens_agent</title>
<ellipse fill="#c3e6cb" stroke="#28a745" cx="328.88" cy="-41.3" rx="124.03" ry="41.3"/>
<text xml:space="preserve" text-anchor="middle" x="328.88" y="-53.9" font-family="Times,serif" font-size="14.00">i357_define_pfd_lens_agent</text>
<text xml:space="preserve" text-anchor="middle" x="328.88" y="-37.1" font-family="Times,serif" font-size="14.00">pfd&#45;lens agent 定義 +</text>
<text xml:space="preserve" text-anchor="middle" x="328.88" y="-20.3" font-family="Times,serif" font-size="14.00">配布実装</text>
</g>
<!-- cli_tool_v0015&#45;&gt;i357_define_pfd_lens_agent -->
<g id="edge4" class="edge">
<title>cli_tool_v0015&#45;&gt;i357_define_pfd_lens_agent</title>
<path fill="none" stroke="#28a745" d="M105.7,-153.04C128.05,-135.16 161.95,-109.77 194.4,-92.3 205.83,-86.14 218.17,-80.37 230.57,-75.08"/>
<polygon fill="#28a745" stroke="#28a745" points="231.68,-78.41 239.58,-71.34 229,-71.95 231.68,-78.41"/>
</g>
<!-- cli_tool_v0018 -->
<g id="node2" class="node">
<title>cli_tool_v0018</title>
<polygon fill="#c3e6cb" stroke="#28a745" points="1073.62,-104.1 915.22,-104.1 915.22,-62.5 1073.62,-62.5 1073.62,-104.1"/>
<text xml:space="preserve" text-anchor="middle" x="994.42" y="-87.5" font-family="Times,serif" font-size="14.00">cli_tool_v0018</text>
<text xml:space="preserve" text-anchor="middle" x="994.42" y="-70.7" font-family="Times,serif" font-size="14.00">CLI v0.0.18（次期）</text>
</g>
<!-- explain_cmd -->
<g id="node3" class="node">
<title>explain_cmd</title>
<polygon fill="#c3e6cb" stroke="#28a745" points="646.95,-153.5 517.35,-153.5 517.35,-95.1 646.95,-95.1 646.95,-153.5"/>
<text xml:space="preserve" text-anchor="middle" x="582.15" y="-136.9" font-family="Times,serif" font-size="14.00">explain_cmd</text>
<text xml:space="preserve" text-anchor="middle" x="582.15" y="-120.1" font-family="Times,serif" font-size="14.00">pfdsl explain</text>
<text xml:space="preserve" text-anchor="middle" x="582.15" y="-103.3" font-family="Times,serif" font-size="14.00">コマンド (#356)</text>
</g>
<!-- publish_cli_v0018 -->
<g id="node10" class="node">
<title>publish_cli_v0018</title>
<ellipse fill="#c3e6cb" stroke="#28a745" cx="790.09" cy="-83.3" rx="89.13" ry="29.42"/>
<text xml:space="preserve" text-anchor="middle" x="790.09" y="-87.5" font-family="Times,serif" font-size="14.00">publish_cli_v0018</text>
<text xml:space="preserve" text-anchor="middle" x="790.09" y="-70.7" font-family="Times,serif" font-size="14.00">CLI v0.0.18リリース</text>
</g>
<!-- explain_cmd&#45;&gt;publish_cli_v0018 -->
<g id="edge5" class="edge">
<title>explain_cmd&#45;&gt;publish_cli_v0018</title>
<path fill="none" stroke="#28a745" d="M647.18,-111.55C664.57,-108.09 683.7,-104.28 702.12,-100.61"/>
<polygon fill="#28a745" stroke="#28a745" points="702.57,-104.09 711.69,-98.7 701.2,-97.22 702.57,-104.09"/>
</g>
<!-- ops_checkers -->
<g id="node8" class="node">
<title>ops_checkers</title>
<polygon fill="#c3e6cb" stroke="#28a745" points="654.15,-357.9 510.15,-357.9 510.15,-282.7 654.15,-282.7 654.15,-357.9"/>
<text xml:space="preserve" text-anchor="middle" x="582.15" y="-341.3" font-family="Times,serif" font-size="14.00">ops_checkers</text>
<text xml:space="preserve" text-anchor="middle" x="582.15" y="-324.5" font-family="Times,serif" font-size="14.00">cycle&#45;status /</text>
<text xml:space="preserve" text-anchor="middle" x="582.15" y="-307.7" font-family="Times,serif" font-size="14.00">gate&#45;check</text>
<text xml:space="preserve" text-anchor="middle" x="582.15" y="-290.9" font-family="Times,serif" font-size="14.00">スクリプト (#354)</text>
</g>
<!-- i354_implement_ops_checkers&#45;&gt;ops_checkers -->
<g id="edge6" class="edge">
<title>i354_implement_ops_checkers&#45;&gt;ops_checkers</title>
<path fill="none" stroke="#28a745" d="M463.61,-320.3C475.44,-320.3 487.17,-320.3 498.39,-320.3"/>
<polygon fill="#28a745" stroke="#28a745" points="498.36,-323.8 508.36,-320.3 498.36,-316.8 498.36,-323.8"/>
</g>
<!-- retro_due_hook -->
<g id="node11" class="node">
<title>retro_due_hook</title>
<polygon fill="#c3e6cb" stroke="#28a745" points="664.95,-248.5 499.35,-248.5 499.35,-190.1 664.95,-190.1 664.95,-248.5"/>
<text xml:space="preserve" text-anchor="middle" x="582.15" y="-231.9" font-family="Times,serif" font-size="14.00">retro_due_hook</text>
<text xml:space="preserve" text-anchor="middle" x="582.15" y="-215.1" font-family="Times,serif" font-size="14.00">retro&#45;due 起動判定 +</text>
<text xml:space="preserve" text-anchor="middle" x="582.15" y="-198.3" font-family="Times,serif" font-size="14.00">Stop hook (#355)</text>
</g>
<!-- i355_implement_retro_due&#45;&gt;retro_due_hook -->
<g id="edge7" class="edge">
<title>i355_implement_retro_due&#45;&gt;retro_due_hook</title>
<path fill="none" stroke="#28a745" d="M448.16,-219.3C461.45,-219.3 474.85,-219.3 487.76,-219.3"/>
<polygon fill="#28a745" stroke="#28a745" points="487.46,-222.8 497.46,-219.3 487.46,-215.8 487.46,-222.8"/>
</g>
<!-- i356_implement_explain_cmd&#45;&gt;explain_cmd -->
<g id="edge8" class="edge">
<title>i356_implement_explain_cmd&#45;&gt;explain_cmd</title>
<path fill="none" stroke="#28a745" d="M460.67,-127.17C476.1,-126.8 491.43,-126.44 505.72,-126.1"/>
<polygon fill="#28a745" stroke="#28a745" points="505.51,-129.6 515.43,-125.86 505.35,-122.6 505.51,-129.6"/>
</g>
<!-- pfd_lens_agent -->
<g id="node9" class="node">
<title>pfd_lens_agent</title>
<polygon fill="#c3e6cb" stroke="#28a745" points="657.75,-74.5 506.55,-74.5 506.55,-16.1 657.75,-16.1 657.75,-74.5"/>
<text xml:space="preserve" text-anchor="middle" x="582.15" y="-57.9" font-family="Times,serif" font-size="14.00">pfd_lens_agent</text>
<text xml:space="preserve" text-anchor="middle" x="582.15" y="-41.1" font-family="Times,serif" font-size="14.00">pfd&#45;lens agent +</text>
<text xml:space="preserve" text-anchor="middle" x="582.15" y="-24.3" font-family="Times,serif" font-size="14.00">agents 配布 (#357)</text>
</g>
<!-- i357_define_pfd_lens_agent&#45;&gt;pfd_lens_agent -->
<g id="edge9" class="edge">
<title>i357_define_pfd_lens_agent&#45;&gt;pfd_lens_agent</title>
<path fill="none" stroke="#28a745" d="M452.94,-43.25C467.12,-43.48 481.35,-43.71 494.9,-43.92"/>
<polygon fill="#28a745" stroke="#28a745" points="494.53,-47.42 504.59,-44.08 494.65,-40.42 494.53,-47.42"/>
</g>
<!-- pfd_lens_agent&#45;&gt;publish_cli_v0018 -->
<g id="edge10" class="edge">
<title>pfd_lens_agent&#45;&gt;publish_cli_v0018</title>
<path fill="none" stroke="#28a745" d="M658.08,-59.12C671.79,-61.65 686.21,-64.31 700.27,-66.91"/>
<polygon fill="#28a745" stroke="#28a745" points="699.49,-70.32 709.96,-68.69 700.76,-63.44 699.49,-70.32"/>
</g>
<!-- publish_cli_v0018&#45;&gt;cli_tool_v0018 -->
<g id="edge11" class="edge">
<title>publish_cli_v0018&#45;&gt;cli_tool_v0018</title>
<path fill="none" stroke="#28a745" d="M879.54,-83.3C887.56,-83.3 895.69,-83.3 903.73,-83.3"/>
<polygon fill="#28a745" stroke="#28a745" points="903.48,-86.8 913.48,-83.3 903.48,-79.8 903.48,-86.8"/>
</g>
</g>
</svg>
