<?xml version="1.0" encoding="UTF-8" standalone="no"?>
<!DOCTYPE svg PUBLIC "-//W3C//DTD SVG 1.1//EN"
 "http://www.w3.org/Graphics/SVG/1.1/DTD/svg11.dtd">
<!-- Generated by graphviz version 15.1.0 (0)
 -->
<!-- Title: PFDSL Pages: 1 -->
<svg width="831pt" height="132pt"
 viewBox="0.00 0.00 831.00 132.00" xmlns="http://www.w3.org/2000/svg" xmlns:xlink="http://www.w3.org/1999/xlink">
<g id="graph0" class="graph" transform="scale(1 1) rotate(0) translate(4 128.19)">
<title>PFDSL</title>
<polygon fill="white" stroke="none" points="-4,4 -4,-128.19 827.34,-128.19 827.34,4 -4,4"/>
<text xml:space="preserve" text-anchor="middle" x="411.67" y="-107.59" font-family="Times,serif" font-size="14.00">Issue 依存フロー（2026&#45;06） — diff</text>
<text xml:space="preserve" text-anchor="middle" x="411.67" y="-90.79" font-family="Times,serif" font-size="14.00">green = added · red = removed · yellow = changed</text>
<!-- get_by_id_tool -->
<g id="node1" class="node">
<title>get_by_id_tool</title>
<polygon fill="#c3e6cb" stroke="#28a745" points="594.29,-70.5 450.29,-70.5 450.29,-12.1 594.29,-12.1 594.29,-70.5"/>
<text xml:space="preserve" text-anchor="middle" x="522.29" y="-53.9" font-family="Times,serif" font-size="14.00">get_by_id_tool</text>
<text xml:space="preserve" text-anchor="middle" x="522.29" y="-37.1" font-family="Times,serif" font-size="14.00">get&#45;by&#45;ID ツール </text>
<text xml:space="preserve" text-anchor="middle" x="522.29" y="-20.3" font-family="Times,serif" font-size="14.00">#402)</text>
</g>
<!-- migrate_spec_id_refs -->
<g id="node3" class="node">
<title>migrate_spec_id_refs</title>
<ellipse fill="#ffeeba" stroke="#e0a800" cx="726.82" cy="-41.3" rx="96.53" ry="41.3"/>
<text xml:space="preserve" text-anchor="middle" x="726.82" y="-53.9" font-family="Times,serif" font-size="14.00">migrate_spec_id_refs</text>
<text xml:space="preserve" text-anchor="middle" x="726.82" y="-37.1" font-family="Times,serif" font-size="14.00">spec.md</text>
<text xml:space="preserve" text-anchor="middle" x="726.82" y="-20.3" font-family="Times,serif" font-size="14.00">仕様ID参照移行</text>
</g>
<!-- get_by_id_tool&#45;&gt;migrate_spec_id_refs -->
<g id="edge1" class="edge">
<title>get_by_id_tool&#45;&gt;migrate_spec_id_refs</title>
<path fill="none" stroke="#28a745" d="M594.69,-41.3C602.43,-41.3 610.43,-41.3 618.48,-41.3"/>
<polygon fill="#28a745" stroke="#28a745" points="618.35,-44.8 628.35,-41.3 618.35,-37.8 618.35,-44.8"/>
</g>
<!-- i402_implement_get_by_id -->
<g id="node2" class="node">
<title>i402_implement_get_by_id</title>
<ellipse fill="#c3e6cb" stroke="#28a745" cx="293.54" cy="-41.3" rx="120.74" ry="29.42"/>
<text xml:space="preserve" text-anchor="middle" x="293.54" y="-45.5" font-family="Times,serif" font-size="14.00">i402_implement_get_by_id</text>
<text xml:space="preserve" text-anchor="middle" x="293.54" y="-28.7" font-family="Times,serif" font-size="14.00">get&#45;by&#45;ID ツール実装</text>
</g>
<!-- i402_implement_get_by_id&#45;&gt;get_by_id_tool -->
<g id="edge2" class="edge">
<title>i402_implement_get_by_id&#45;&gt;get_by_id_tool</title>
<path fill="none" stroke="#28a745" d="M414.56,-41.3C422.69,-41.3 430.78,-41.3 438.66,-41.3"/>
<polygon fill="#28a745" stroke="#28a745" points="438.51,-44.8 448.51,-41.3 438.51,-37.8 438.51,-44.8"/>
</g>
<!-- spec_id_syntax -->
<g id="node4" class="node">
<title>spec_id_syntax</title>
<polygon fill="#ffeeba" stroke="#e0a800" points="136.8,-70.5 0,-70.5 0,-12.1 136.8,-12.1 136.8,-70.5"/>
<text xml:space="preserve" text-anchor="middle" x="68.4" y="-53.9" font-family="Times,serif" font-size="14.00">spec_id_syntax</text>
<text xml:space="preserve" text-anchor="middle" x="68.4" y="-37.1" font-family="Times,serif" font-size="14.00">仕様ID構文 ADR +</text>
<text xml:space="preserve" text-anchor="middle" x="68.4" y="-20.3" font-family="Times,serif" font-size="14.00">最小lint (#328)</text>
</g>
<!-- spec_id_syntax&#45;&gt;i402_implement_get_by_id -->
<g id="edge3" class="edge">
<title>spec_id_syntax&#45;&gt;i402_implement_get_by_id</title>
<path fill="none" stroke="#28a745" d="M137.26,-41.3C145.02,-41.3 153.11,-41.3 161.35,-41.3"/>
<polygon fill="#28a745" stroke="#28a745" points="161.15,-44.8 171.15,-41.3 161.15,-37.8 161.15,-44.8"/>
</g>
</g>
</svg>
