<?xml version="1.0" encoding="UTF-8" standalone="no"?>
<!DOCTYPE svg PUBLIC "-//W3C//DTD SVG 1.1//EN"
 "http://www.w3.org/Graphics/SVG/1.1/DTD/svg11.dtd">
<!-- Generated by graphviz version 15.1.0 (0)
 -->
<!-- Title: PFDSL Pages: 1 -->
<svg width="2103pt" height="331pt"
 viewBox="0.00 0.00 2103.00 331.00" xmlns="http://www.w3.org/2000/svg" xmlns:xlink="http://www.w3.org/1999/xlink">
<g id="graph0" class="graph" transform="scale(1 1) rotate(0) translate(4 327.2)">
<title>PFDSL</title>
<polygon fill="white" stroke="none" points="-4,4 -4,-327.2 2099.06,-327.2 2099.06,4 -4,4"/>
<text xml:space="preserve" text-anchor="middle" x="1047.53" y="-306.6" font-family="Times,serif" font-size="14.00">技術書執筆・出版フロー</text>
<!-- ch01 -->
<g id="node1" class="node">
<title>ch01</title>
<g id="a_node1"><a xlink:title="第1章原稿&#10;owner: 著者">
<polygon fill="#d4edda" stroke="black" points="561.35,-298.4 474.95,-298.4 474.95,-256.8 561.35,-256.8 561.35,-298.4"/>
<text xml:space="preserve" text-anchor="middle" x="518.15" y="-281.8" font-family="Times,serif" font-size="14.00">ch01</text>
<text xml:space="preserve" text-anchor="middle" x="518.15" y="-265" font-family="Times,serif" font-size="14.00">第1章原稿</text>
</a>
</g>
<text xml:space="preserve" text-anchor="middle" x="461.34" y="-244.2" font-family="Times,serif" font-size="14.00">done</text>
</g>
<!-- compile -->
<g id="node6" class="node">
<title>compile</title>
<g id="a_node6"><a xlink:title="原稿統合&#10;&#10;各章を束ねて書籍原稿を構成する&#10;owner: 著者">
<ellipse fill="none" stroke="black" cx="640.55" cy="-157.6" rx="43.2" ry="29.42"/>
<text xml:space="preserve" text-anchor="middle" x="640.55" y="-161.8" font-family="Times,serif" font-size="14.00">compile</text>
<text xml:space="preserve" text-anchor="middle" x="640.55" y="-145" font-family="Times,serif" font-size="14.00">原稿統合</text>
</a>
</g>
</g>
<!-- ch01&#45;&gt;compile -->
<g id="edge9" class="edge">
<title>ch01&#45;&gt;compile</title>
<path fill="none" stroke="black" d="M550.68,-256.45C554.38,-253.6 558.02,-250.62 561.35,-247.6 579.89,-230.78 598.36,-209.77 612.69,-192.28"/>
<polygon fill="black" stroke="black" points="615.28,-194.65 618.84,-184.68 609.83,-190.26 615.28,-194.65"/>
</g>
<!-- ch02 -->
<g id="node2" class="node">
<title>ch02</title>
<g id="a_node2"><a xlink:title="第2章原稿&#10;owner: 著者">
<polygon fill="#d4edda" stroke="black" points="561.35,-238.4 474.95,-238.4 474.95,-196.8 561.35,-196.8 561.35,-238.4"/>
<text xml:space="preserve" text-anchor="middle" x="518.15" y="-221.8" font-family="Times,serif" font-size="14.00">ch02</text>
<text xml:space="preserve" text-anchor="middle" x="518.15" y="-205" font-family="Times,serif" font-size="14.00">第2章原稿</text>
</a>
</g>
<text xml:space="preserve" text-anchor="middle" x="461.34" y="-184.2" font-family="Times,serif" font-size="14.00">done</text>
</g>
<!-- ch02&#45;&gt;compile -->
<g id="edge10" class="edge">
<title>ch02&#45;&gt;compile</title>
<path fill="none" stroke="black" d="M561.6,-196.45C572.37,-191.08 583.98,-185.29 594.86,-179.87"/>
<polygon fill="black" stroke="black" points="596.28,-183.07 603.66,-175.48 593.15,-176.81 596.28,-183.07"/>
</g>
<!-- ch03 -->
<g id="node3" class="node">
<title>ch03</title>
<g id="a_node3"><a xlink:title="第3章原稿&#10;owner: 著者">
<polygon fill="#fff3cd" stroke="black" points="561.35,-178.4 474.95,-178.4 474.95,-136.8 561.35,-136.8 561.35,-178.4"/>
<text xml:space="preserve" text-anchor="middle" x="518.15" y="-161.8" font-family="Times,serif" font-size="14.00">ch03</text>
<text xml:space="preserve" text-anchor="middle" x="518.15" y="-145" font-family="Times,serif" font-size="14.00">第3章原稿</text>
</a>
</g>
<text xml:space="preserve" text-anchor="middle" x="464.45" y="-124.2" font-family="Times,serif" font-size="14.00">wip</text>
</g>
<!-- ch03&#45;&gt;compile -->
<g id="edge11" class="edge">
<title>ch03&#45;&gt;compile</title>
<path fill="none" stroke="black" d="M561.6,-157.6C569.42,-157.6 577.68,-157.6 585.79,-157.6"/>
<polygon fill="black" stroke="black" points="585.56,-161.1 595.56,-157.6 585.56,-154.1 585.56,-161.1"/>
</g>
<!-- ch04 -->
<g id="node4" class="node">
<title>ch04</title>
<g id="a_node4"><a xlink:title="第4章原稿&#10;owner: 著者">
<polygon fill="#f8f9fa" stroke="black" points="561.35,-118.4 474.95,-118.4 474.95,-76.8 561.35,-76.8 561.35,-118.4"/>
<text xml:space="preserve" text-anchor="middle" x="518.15" y="-101.8" font-family="Times,serif" font-size="14.00">ch04</text>
<text xml:space="preserve" text-anchor="middle" x="518.15" y="-85" font-family="Times,serif" font-size="14.00">第4章原稿</text>
</a>
</g>
<text xml:space="preserve" text-anchor="middle" x="462.5" y="-64.2" font-family="Times,serif" font-size="14.00">todo</text>
</g>
<!-- ch04&#45;&gt;compile -->
<g id="edge12" class="edge">
<title>ch04&#45;&gt;compile</title>
<path fill="none" stroke="black" d="M561.6,-118.75C572.37,-124.12 583.98,-129.91 594.86,-135.33"/>
<polygon fill="black" stroke="black" points="593.15,-138.39 603.66,-139.72 596.28,-132.13 593.15,-138.39"/>
</g>
<!-- ch05 -->
<g id="node5" class="node">
<title>ch05</title>
<g id="a_node5"><a xlink:title="第5章原稿&#10;owner: 著者">
<polygon fill="#f8f9fa" stroke="black" points="561.35,-58.4 474.95,-58.4 474.95,-16.8 561.35,-16.8 561.35,-58.4"/>
<text xml:space="preserve" text-anchor="middle" x="518.15" y="-41.8" font-family="Times,serif" font-size="14.00">ch05</text>
<text xml:space="preserve" text-anchor="middle" x="518.15" y="-25" font-family="Times,serif" font-size="14.00">第5章原稿</text>
</a>
</g>
<text xml:space="preserve" text-anchor="middle" x="462.5" y="-4.2" font-family="Times,serif" font-size="14.00">todo</text>
</g>
<!-- ch05&#45;&gt;compile -->
<g id="edge13" class="edge">
<title>ch05&#45;&gt;compile</title>
<path fill="none" stroke="black" d="M550.68,-58.75C554.38,-61.6 558.02,-64.58 561.35,-67.6 579.89,-84.42 598.36,-105.43 612.69,-122.92"/>
<polygon fill="black" stroke="black" points="609.83,-124.94 618.84,-130.52 615.28,-120.55 609.83,-124.94"/>
</g>
<!-- manuscript -->
<g id="node9" class="node">
<title>manuscript</title>
<g id="a_node9"><a xlink:title="書籍原稿&#10;&#10;全章を束ねた書籍原稿&#10;owner: 著者">
<polygon fill="#fff3cd" stroke="black" points="813.35,-178.4 719.75,-178.4 719.75,-136.8 813.35,-136.8 813.35,-178.4"/>
<text xml:space="preserve" text-anchor="middle" x="766.55" y="-161.8" font-family="Times,serif" font-size="14.00">manuscript</text>
<text xml:space="preserve" text-anchor="middle" x="766.55" y="-145" font-family="Times,serif" font-size="14.00">書籍原稿</text>
</a>
</g>
<text xml:space="preserve" text-anchor="middle" x="709.25" y="-124.2" font-family="Times,serif" font-size="14.00">wip</text>
</g>
<!-- compile&#45;&gt;manuscript -->
<g id="edge14" class="edge">
<title>compile&#45;&gt;manuscript</title>
<path fill="none" stroke="black" d="M684.22,-157.6C691.94,-157.6 700.09,-157.6 708.15,-157.6"/>
<polygon fill="black" stroke="black" points="707.89,-161.1 717.89,-157.6 707.89,-154.1 707.89,-161.1"/>
</g>
<!-- copyedit -->
<g id="node7" class="node">
<title>copyedit</title>
<g id="a_node7"><a xlink:title="校正・編集&#10;&#10;文章の流れ・表記ゆれ・レイアウトを整える&#10;owner: 編集者">
<ellipse fill="none" stroke="black" cx="1517.87" cy="-153.6" rx="48.44" ry="29.42"/>
<text xml:space="preserve" text-anchor="middle" x="1517.87" y="-157.8" font-family="Times,serif" font-size="14.00">copyedit</text>
<text xml:space="preserve" text-anchor="middle" x="1517.87" y="-141" font-family="Times,serif" font-size="14.00">校正・編集</text>
</a>
</g>
</g>
<!-- copyedited_manuscript -->
<g id="node8" class="node">
<title>copyedited_manuscript</title>
<g id="a_node8"><a xlink:title="校正済み原稿&#10;owner: 編集者">
<polygon fill="#f8f9fa" stroke="black" points="1775.11,-174.4 1602.31,-174.4 1602.31,-132.8 1775.11,-132.8 1775.11,-174.4"/>
<text xml:space="preserve" text-anchor="middle" x="1688.71" y="-157.8" font-family="Times,serif" font-size="14.00">copyedited_manuscript</text>
<text xml:space="preserve" text-anchor="middle" x="1688.71" y="-141" font-family="Times,serif" font-size="14.00">校正済み原稿</text>
</a>
</g>
<text xml:space="preserve" text-anchor="middle" x="1589.87" y="-120.2" font-family="Times,serif" font-size="14.00">todo</text>
</g>
<!-- copyedit&#45;&gt;copyedited_manuscript -->
<g id="edge21" class="edge">
<title>copyedit&#45;&gt;copyedited_manuscript</title>
<path fill="none" stroke="black" d="M1566.8,-153.6C1574.38,-153.6 1582.44,-153.6 1590.66,-153.6"/>
<polygon fill="black" stroke="black" points="1590.43,-157.1 1600.43,-153.6 1590.43,-150.1 1590.43,-157.1"/>
</g>
<!-- typeset -->
<g id="node18" class="node">
<title>typeset</title>
<g id="a_node18"><a xlink:title="組版・PDF化&#10;&#10;校正済み原稿をDTPで組んで印刷用PDFを生成する&#10;owner: DTP">
<ellipse fill="none" stroke="black" cx="1870.28" cy="-153.6" rx="59.17" ry="29.42"/>
<text xml:space="preserve" text-anchor="middle" x="1870.28" y="-157.8" font-family="Times,serif" font-size="14.00">typeset</text>
<text xml:space="preserve" text-anchor="middle" x="1870.28" y="-141" font-family="Times,serif" font-size="14.00">組版・PDF化</text>
</a>
</g>
</g>
<!-- copyedited_manuscript&#45;&gt;typeset -->
<g id="edge22" class="edge">
<title>copyedited_manuscript&#45;&gt;typeset</title>
<path fill="none" stroke="black" d="M1775.55,-153.6C1783.55,-153.6 1791.59,-153.6 1799.41,-153.6"/>
<polygon fill="black" stroke="black" points="1799.19,-157.1 1809.19,-153.6 1799.19,-150.1 1799.19,-157.1"/>
</g>
<!-- peer_review -->
<g id="node11" class="node">
<title>peer_review</title>
<g id="a_node11"><a xlink:title="査読&#10;&#10;技術的正確性・サンプルコードの動作を確認する&#10;owner: 査読者">
<ellipse fill="none" stroke="black" cx="909.58" cy="-186.6" rx="60.23" ry="29.42"/>
<text xml:space="preserve" text-anchor="middle" x="909.58" y="-190.8" font-family="Times,serif" font-size="14.00">peer_review</text>
<text xml:space="preserve" text-anchor="middle" x="909.58" y="-174" font-family="Times,serif" font-size="14.00">査読</text>
</a>
</g>
</g>
<!-- manuscript&#45;&gt;peer_review -->
<g id="edge15" class="edge">
<title>manuscript&#45;&gt;peer_review</title>
<path fill="none" stroke="black" d="M813.73,-167.1C822.85,-168.97 832.59,-170.97 842.23,-172.96"/>
<polygon fill="black" stroke="black" points="841.47,-176.37 851.97,-174.96 842.88,-169.52 841.47,-176.37"/>
</g>
<!-- revise -->
<g id="node16" class="node">
<title>revise</title>
<g id="a_node16"><a xlink:title="著者改訂&#10;&#10;査読コメントを反映して原稿を修正する&#10;owner: 著者">
<ellipse fill="none" stroke="black" cx="1205.22" cy="-153.6" rx="41.01" ry="29.42"/>
<text xml:space="preserve" text-anchor="middle" x="1205.22" y="-157.8" font-family="Times,serif" font-size="14.00">revise</text>
<text xml:space="preserve" text-anchor="middle" x="1205.22" y="-141" font-family="Times,serif" font-size="14.00">著者改訂</text>
</a>
</g>
</g>
<!-- manuscript&#45;&gt;revise -->
<g id="edge17" class="edge">
<title>manuscript&#45;&gt;revise</title>
<path fill="none" stroke="black" d="M813.77,-151.62C825.36,-150.37 837.79,-149.23 849.35,-148.6 957.09,-142.69 1083.49,-147.21 1152.6,-150.65"/>
<polygon fill="black" stroke="black" points="1152.33,-154.14 1162.5,-151.16 1152.69,-147.15 1152.33,-154.14"/>
</g>
<!-- outline -->
<g id="node10" class="node">
<title>outline</title>
<g id="a_node10"><a xlink:title="章構成案&#10;owner: 著者">
<polygon fill="#d4edda" stroke="black" points="339.64,-178.4 260.44,-178.4 260.44,-136.8 339.64,-136.8 339.64,-178.4"/>
<text xml:space="preserve" text-anchor="middle" x="300.04" y="-161.8" font-family="Times,serif" font-size="14.00">outline</text>
<text xml:space="preserve" text-anchor="middle" x="300.04" y="-145" font-family="Times,serif" font-size="14.00">章構成案</text>
</a>
</g>
<text xml:space="preserve" text-anchor="middle" x="246.83" y="-124.2" font-family="Times,serif" font-size="14.00">done</text>
</g>
<!-- write -->
<g id="node19" class="node">
<title>write</title>
<g id="a_node19"><a xlink:title="執筆&#10;&#10;章構成案に沿って各章の原稿を執筆する&#10;owner: 著者">
<ellipse fill="none" stroke="black" cx="407.29" cy="-157.6" rx="31.65" ry="29.42"/>
<text xml:space="preserve" text-anchor="middle" x="407.29" y="-161.8" font-family="Times,serif" font-size="14.00">write</text>
<text xml:space="preserve" text-anchor="middle" x="407.29" y="-145" font-family="Times,serif" font-size="14.00">執筆</text>
</a>
</g>
</g>
<!-- outline&#45;&gt;write -->
<g id="edge3" class="edge">
<title>outline&#45;&gt;write</title>
<path fill="none" stroke="black" d="M339.93,-157.6C347.8,-157.6 356.11,-157.6 364.09,-157.6"/>
<polygon fill="black" stroke="black" points="363.93,-161.1 373.93,-157.6 363.93,-154.1 363.93,-161.1"/>
</g>
<!-- review_comment -->
<g id="node15" class="node">
<title>review_comment</title>
<g id="a_node15"><a xlink:title="査読コメント&#10;&#10;査読者による技術的正確性・可読性への指摘&#10;owner: 査読者">
<polygon fill="#fff3cd" stroke="black" points="1128.21,-203.4 1005.81,-203.4 1005.81,-161.8 1128.21,-161.8 1128.21,-203.4"/>
<text xml:space="preserve" text-anchor="middle" x="1067.01" y="-186.8" font-family="Times,serif" font-size="14.00">review_comment</text>
<text xml:space="preserve" text-anchor="middle" x="1067.01" y="-170" font-family="Times,serif" font-size="14.00">査読コメント</text>
</a>
</g>
<text xml:space="preserve" text-anchor="middle" x="995.31" y="-149.2" font-family="Times,serif" font-size="14.00">wip</text>
</g>
<!-- peer_review&#45;&gt;review_comment -->
<g id="edge16" class="edge">
<title>peer_review&#45;&gt;review_comment</title>
<path fill="none" stroke="black" d="M970.23,-185.06C978.09,-184.86 986.2,-184.65 994.23,-184.45"/>
<polygon fill="black" stroke="black" points="994.07,-187.95 1003.98,-184.2 993.89,-180.95 994.07,-187.95"/>
</g>
<!-- plan -->
<g id="node12" class="node">
<title>plan</title>
<g id="a_node12"><a xlink:title="企画立案&#10;&#10;出版社と合意した企画書をもとに章構成案を策定する&#10;owner: 著者">
<ellipse fill="none" stroke="black" cx="183.43" cy="-157.6" rx="41.01" ry="29.42"/>
<text xml:space="preserve" text-anchor="middle" x="183.43" y="-161.8" font-family="Times,serif" font-size="14.00">plan</text>
<text xml:space="preserve" text-anchor="middle" x="183.43" y="-145" font-family="Times,serif" font-size="14.00">企画立案</text>
</a>
</g>
</g>
<!-- plan&#45;&gt;outline -->
<g id="edge2" class="edge">
<title>plan&#45;&gt;outline</title>
<path fill="none" stroke="black" d="M224.83,-157.6C232.54,-157.6 240.7,-157.6 248.67,-157.6"/>
<polygon fill="black" stroke="black" points="248.64,-161.1 258.64,-157.6 248.64,-154.1 248.64,-161.1"/>
</g>
<!-- print_ready_pdf -->
<g id="node13" class="node">
<title>print_ready_pdf</title>
<g id="a_node13"><a xlink:title="印刷用PDF&#10;owner: DTP">
<polygon fill="#f8f9fa" stroke="black" stroke-width="2" points="2095.06,-174.4 1965.46,-174.4 1965.46,-132.8 2095.06,-132.8 2095.06,-174.4"/>
<text xml:space="preserve" text-anchor="middle" x="2030.26" y="-157.8" font-family="Times,serif" font-size="14.00">print_ready_pdf</text>
<text xml:space="preserve" text-anchor="middle" x="2030.26" y="-141" font-family="Times,serif" font-size="14.00">印刷用PDF</text>
</a>
</g>
<text xml:space="preserve" text-anchor="middle" x="1953.01" y="-120.2" font-family="Times,serif" font-size="14.00">todo</text>
</g>
<!-- proposal -->
<g id="node14" class="node">
<title>proposal</title>
<g id="a_node14"><a xlink:title="企画書&#10;&#10;書籍の目的・対象読者・章構成案&#10;owner: 著者">
<polygon fill="#d4edda" stroke="black" stroke-width="2" points="106.41,-178.4 27.21,-178.4 27.21,-136.8 106.41,-136.8 106.41,-178.4"/>
<text xml:space="preserve" text-anchor="middle" x="66.81" y="-161.8" font-family="Times,serif" font-size="14.00">proposal</text>
<text xml:space="preserve" text-anchor="middle" x="66.81" y="-145" font-family="Times,serif" font-size="14.00">企画書</text>
</a>
</g>
<text xml:space="preserve" text-anchor="middle" x="13.61" y="-124.2" font-family="Times,serif" font-size="14.00">done</text>
</g>
<!-- proposal&#45;&gt;plan -->
<g id="edge1" class="edge">
<title>proposal&#45;&gt;plan</title>
<path fill="none" stroke="black" d="M107.26,-157.6C114.83,-157.6 122.86,-157.6 130.75,-157.6"/>
<polygon fill="black" stroke="black" points="130.62,-161.1 140.62,-157.6 130.62,-154.1 130.62,-161.1"/>
</g>
<!-- review_comment&#45;&gt;revise -->
<g id="edge18" class="edge">
<title>review_comment&#45;&gt;revise</title>
<path fill="none" stroke="black" d="M1128.55,-169.71C1137.15,-167.88 1145.91,-166.02 1154.27,-164.23"/>
<polygon fill="black" stroke="black" points="1154.85,-167.69 1163.9,-162.18 1153.4,-160.84 1154.85,-167.69"/>
</g>
<!-- revised_manuscript -->
<g id="node17" class="node">
<title>revised_manuscript</title>
<g id="a_node17"><a xlink:title="修正済み原稿&#10;owner: 著者">
<polygon fill="#f8f9fa" stroke="black" points="1433.44,-174.4 1282.24,-174.4 1282.24,-132.8 1433.44,-132.8 1433.44,-174.4"/>
<text xml:space="preserve" text-anchor="middle" x="1357.84" y="-157.8" font-family="Times,serif" font-size="14.00">revised_manuscript</text>
<text xml:space="preserve" text-anchor="middle" x="1357.84" y="-141" font-family="Times,serif" font-size="14.00">修正済み原稿</text>
</a>
</g>
<text xml:space="preserve" text-anchor="middle" x="1269.79" y="-120.2" font-family="Times,serif" font-size="14.00">todo</text>
</g>
<!-- revise&#45;&gt;revised_manuscript -->
<g id="edge19" class="edge">
<title>revise&#45;&gt;revised_manuscript</title>
<path fill="none" stroke="black" d="M1246.59,-153.6C1254.07,-153.6 1262.15,-153.6 1270.42,-153.6"/>
<polygon fill="black" stroke="black" points="1270.25,-157.1 1280.25,-153.6 1270.25,-150.1 1270.25,-157.1"/>
</g>
<!-- revised_manuscript&#45;&gt;copyedit -->
<g id="edge20" class="edge">
<title>revised_manuscript&#45;&gt;copyedit</title>
<path fill="none" stroke="black" d="M1433.69,-153.6C1441.84,-153.6 1450.04,-153.6 1457.96,-153.6"/>
<polygon fill="black" stroke="black" points="1457.8,-157.1 1467.8,-153.6 1457.8,-150.1 1457.8,-157.1"/>
</g>
<!-- typeset&#45;&gt;print_ready_pdf -->
<g id="edge23" class="edge">
<title>typeset&#45;&gt;print_ready_pdf</title>
<path fill="none" stroke="black" d="M1929.66,-153.6C1937.28,-153.6 1945.17,-153.6 1953.02,-153.6"/>
<polygon fill="black" stroke="black" points="1952.96,-157.1 1962.96,-153.6 1952.96,-150.1 1952.96,-157.1"/>
</g>
<!-- write&#45;&gt;ch01 -->
<g id="edge4" class="edge">
<title>write&#45;&gt;ch01</title>
<path fill="none" stroke="black" d="M423.92,-182.95C436.37,-201.97 454.96,-228 474.95,-247.6 475.43,-248.07 475.92,-248.54 476.41,-249.01"/>
<polygon fill="black" stroke="black" points="473.93,-251.49 483.79,-255.36 478.5,-246.19 473.93,-251.49"/>
</g>
<!-- write&#45;&gt;ch02 -->
<g id="edge5" class="edge">
<title>write&#45;&gt;ch02</title>
<path fill="none" stroke="black" d="M435.2,-172.43C445.33,-178.01 457.18,-184.55 468.68,-190.88"/>
<polygon fill="black" stroke="black" points="466.86,-193.88 477.31,-195.64 470.24,-187.75 466.86,-193.88"/>
</g>
<!-- write&#45;&gt;ch03 -->
<g id="edge6" class="edge">
<title>write&#45;&gt;ch03</title>
<path fill="none" stroke="black" d="M439.19,-157.6C446.8,-157.6 455.16,-157.6 463.5,-157.6"/>
<polygon fill="black" stroke="black" points="463.27,-161.1 473.27,-157.6 463.27,-154.1 463.27,-161.1"/>
</g>
<!-- write&#45;&gt;ch04 -->
<g id="edge7" class="edge">
<title>write&#45;&gt;ch04</title>
<path fill="none" stroke="black" d="M435.2,-142.77C445.33,-137.19 457.18,-130.65 468.68,-124.32"/>
<polygon fill="black" stroke="black" points="470.24,-127.45 477.31,-119.56 466.86,-121.32 470.24,-127.45"/>
</g>
<!-- write&#45;&gt;ch05 -->
<g id="edge8" class="edge">
<title>write&#45;&gt;ch05</title>
<path fill="none" stroke="black" d="M423.92,-132.25C436.37,-113.23 454.96,-87.2 474.95,-67.6 475.43,-67.13 475.92,-66.66 476.41,-66.19"/>
<polygon fill="black" stroke="black" points="478.5,-69.01 483.79,-59.84 473.93,-63.71 478.5,-69.01"/>
</g>
</g>
</svg>
