<?xml version="1.0" encoding="UTF-8" standalone="no"?>
<!DOCTYPE svg PUBLIC "-//W3C//DTD SVG 1.1//EN"
 "http://www.w3.org/Graphics/SVG/1.1/DTD/svg11.dtd">
<!-- Generated by graphviz version 15.1.0 (0)
 -->
<!-- Title: PFDSL Pages: 1 -->
<svg width="1987pt" height="354pt"
 viewBox="0.00 0.00 1987.00 354.00" xmlns="http://www.w3.org/2000/svg" xmlns:xlink="http://www.w3.org/1999/xlink">
<g id="graph0" class="graph" transform="scale(1 1) rotate(0) translate(4 349.8)">
<title>PFDSL</title>
<polygon fill="white" stroke="none" points="-4,4 -4,-349.8 1982.7,-349.8 1982.7,4 -4,4"/>
<text xml:space="preserve" text-anchor="middle" x="989.35" y="-329.2" font-family="Times,serif" font-size="14.00">技術カンファレンス開催フロー</text>
<g id="clust1" class="cluster">
<title>cluster_event_day</title>
<polygon fill="#fef9e7" stroke="#b2aea2" points="1298.93,-63 1298.93,-206 1593.12,-206 1593.12,-63 1298.93,-63"/>
<text xml:space="preserve" text-anchor="middle" x="1446.03" y="-189.4" font-family="Times,serif" font-size="14.00">当日運営</text>
</g>
<g id="clust2" class="cluster">
<title>cluster_planning</title>
<polygon fill="#e8f4fd" stroke="#a2abb1" points="19.21,-8 19.21,-261 1278.93,-261 1278.93,-8 19.21,-8"/>
<text xml:space="preserve" text-anchor="middle" x="649.07" y="-244.4" font-family="Times,serif" font-size="14.00">企画・準備フェーズ</text>
</g>
<g id="clust3" class="cluster">
<title>cluster_post</title>
<polygon fill="#eafaf1" stroke="#a4afa9" points="1436.72,-214 1436.72,-313 1970.7,-313 1970.7,-214 1436.72,-214"/>
<text xml:space="preserve" text-anchor="middle" x="1703.71" y="-296.4" font-family="Times,serif" font-size="14.00">事後処理</text>
</g>
<!-- event_record -->
<g id="node1" class="node">
<title>event_record</title>
<g id="a_node1"><a xlink:title="開催記録&#10;&#10;参加者数・発生トラブル・会場状況を記録した当日ログ&#10;owner: 運営事務局">
<polygon fill="none" stroke="black" points="1577.92,-112.8 1469.92,-112.8 1469.92,-71.2 1577.92,-71.2 1577.92,-112.8"/>
<text xml:space="preserve" text-anchor="middle" x="1523.92" y="-96.2" font-family="Times,serif" font-size="14.00">event_record</text>
<text xml:space="preserve" text-anchor="middle" x="1523.92" y="-79.4" font-family="Times,serif" font-size="14.00">開催記録</text>
</a>
</g>
</g>
<!-- compile_report -->
<g id="node16" class="node">
<title>compile_report</title>
<g id="a_node16"><a xlink:title="開催レポート作成&#10;&#10;開催記録・アンケート・録画をもとに開催レポートを作成する&#10;owner: 運営リーダー">
<ellipse fill="none" stroke="black" cx="1710.91" cy="-251" rx="71.79" ry="29.42"/>
<text xml:space="preserve" text-anchor="middle" x="1710.91" y="-255.2" font-family="Times,serif" font-size="14.00">compile_report</text>
<text xml:space="preserve" text-anchor="middle" x="1710.91" y="-238.4" font-family="Times,serif" font-size="14.00">開催レポート作成</text>
</a>
</g>
</g>
<!-- event_record&#45;&gt;compile_report -->
<g id="edge17" class="edge">
<title>event_record&#45;&gt;compile_report</title>
<path fill="none" stroke="black" d="M1578.15,-108.15C1586.9,-111.98 1595.56,-116.57 1603.12,-122 1637.28,-146.53 1666.93,-184.53 1686.26,-212.94"/>
<polygon fill="black" stroke="black" points="1683.12,-214.53 1691.58,-220.91 1688.95,-210.65 1683.12,-214.53"/>
</g>
<!-- run_event -->
<g id="node2" class="node">
<title>run_event</title>
<g id="a_node2"><a xlink:title="当日運営&#10;&#10;マニュアルに従い受付・進行・会場管理を行い開催記録と録画を取得する&#10;owner: 運営事務局">
<ellipse fill="none" stroke="black" cx="1357.83" cy="-122" rx="50.9" ry="29.42"/>
<text xml:space="preserve" text-anchor="middle" x="1357.83" y="-126.2" font-family="Times,serif" font-size="14.00">run_event</text>
<text xml:space="preserve" text-anchor="middle" x="1357.83" y="-109.4" font-family="Times,serif" font-size="14.00">当日運営</text>
</a>
</g>
</g>
<!-- run_event&#45;&gt;event_record -->
<g id="edge15" class="edge">
<title>run_event&#45;&gt;event_record</title>
<path fill="none" stroke="black" d="M1406.73,-113.24C1422.87,-110.29 1441.16,-106.95 1458.37,-103.8"/>
<polygon fill="black" stroke="black" points="1458.79,-107.28 1468,-102.04 1457.53,-100.4 1458.79,-107.28"/>
</g>
<!-- session_videos -->
<g id="node3" class="node">
<title>session_videos</title>
<g id="a_node3"><a xlink:title="セッション録画&#10;&#10;各セッションの収録動画ファイル&#10;owner: 映像担当">
<polygon fill="none" stroke="black" points="1585.12,-172.8 1462.72,-172.8 1462.72,-131.2 1585.12,-131.2 1585.12,-172.8"/>
<text xml:space="preserve" text-anchor="middle" x="1523.92" y="-156.2" font-family="Times,serif" font-size="14.00">session_videos</text>
<text xml:space="preserve" text-anchor="middle" x="1523.92" y="-139.4" font-family="Times,serif" font-size="14.00">セッション録画</text>
</a>
</g>
</g>
<!-- run_event&#45;&gt;session_videos -->
<g id="edge16" class="edge">
<title>run_event&#45;&gt;session_videos</title>
<path fill="none" stroke="black" d="M1406.73,-130.76C1420.74,-133.32 1436.36,-136.17 1451.49,-138.94"/>
<polygon fill="black" stroke="black" points="1450.44,-142.31 1460.91,-140.66 1451.7,-135.42 1450.44,-142.31"/>
</g>
<!-- session_videos&#45;&gt;compile_report -->
<g id="edge18" class="edge">
<title>session_videos&#45;&gt;compile_report</title>
<path fill="none" stroke="black" d="M1564.61,-173.24C1591.29,-187.52 1626.8,-206.52 1656.03,-222.17"/>
<polygon fill="black" stroke="black" points="1654.28,-225.2 1664.75,-226.83 1657.59,-219.03 1654.28,-225.2"/>
</g>
<!-- arrange_venue -->
<g id="node4" class="node">
<title>arrange_venue</title>
<g id="a_node4"><a xlink:title="会場手配&#10;&#10;企画書の規模・日程に合う会場を確保し契約する&#10;owner: 運営事務局">
<ellipse fill="none" stroke="black" cx="609.43" cy="-199" rx="69.57" ry="29.42"/>
<text xml:space="preserve" text-anchor="middle" x="609.43" y="-203.2" font-family="Times,serif" font-size="14.00">arrange_venue</text>
<text xml:space="preserve" text-anchor="middle" x="609.43" y="-186.4" font-family="Times,serif" font-size="14.00">会場手配</text>
</a>
</g>
</g>
<!-- venue_contract -->
<g id="node15" class="node">
<title>venue_contract</title>
<g id="a_node15"><a xlink:title="会場契約書&#10;&#10;会場との賃貸・利用契約書&#10;owner: 運営事務局">
<polygon fill="none" stroke="black" points="858.98,-214.8 736.58,-214.8 736.58,-173.2 858.98,-173.2 858.98,-214.8"/>
<text xml:space="preserve" text-anchor="middle" x="797.78" y="-198.2" font-family="Times,serif" font-size="14.00">venue_contract</text>
<text xml:space="preserve" text-anchor="middle" x="797.78" y="-181.4" font-family="Times,serif" font-size="14.00">会場契約書</text>
</a>
</g>
</g>
<!-- arrange_venue&#45;&gt;venue_contract -->
<g id="edge6" class="edge">
<title>arrange_venue&#45;&gt;venue_contract</title>
<path fill="none" stroke="black" d="M679.29,-197.15C694.16,-196.75 709.92,-196.33 724.91,-195.93"/>
<polygon fill="black" stroke="black" points="724.77,-199.43 734.67,-195.67 724.58,-192.44 724.77,-199.43"/>
</g>
<!-- cfp_announcement -->
<g id="node5" class="node">
<title>cfp_announcement</title>
<g id="a_node5"><a xlink:title="CFP 告知文&#10;&#10;募集テーマ・応募要件・締切を記載した Call for Proposals 告知&#10;owner: プログラム委員会">
<polygon fill="#d4edda" stroke="black" stroke-width="2" points="164.01,-106.8 27.21,-106.8 27.21,-65.2 164.01,-65.2 164.01,-106.8"/>
<text xml:space="preserve" text-anchor="middle" x="95.61" y="-90.2" font-family="Times,serif" font-size="14.00">cfp_announcement</text>
<text xml:space="preserve" text-anchor="middle" x="95.61" y="-73.4" font-family="Times,serif" font-size="14.00">CFP 告知文</text>
</a>
</g>
<text xml:space="preserve" text-anchor="middle" x="13.61" y="-52.6" font-family="Times,serif" font-size="14.00">done</text>
</g>
<!-- recruit_cfp -->
<g id="node10" class="node">
<title>recruit_cfp</title>
<g id="a_node10"><a xlink:title="CFP 募集&#10;&#10;CFP 告知を公開し応募者からセッション提案を受け付ける&#10;owner: プログラム委員会">
<ellipse fill="none" stroke="black" cx="254.75" cy="-59" rx="54.74" ry="29.42"/>
<text xml:space="preserve" text-anchor="middle" x="254.75" y="-63.2" font-family="Times,serif" font-size="14.00">recruit_cfp</text>
<text xml:space="preserve" text-anchor="middle" x="254.75" y="-46.4" font-family="Times,serif" font-size="14.00">CFP 募集</text>
</a>
</g>
</g>
<!-- cfp_announcement&#45;&gt;recruit_cfp -->
<g id="edge1" class="edge">
<title>cfp_announcement&#45;&gt;recruit_cfp</title>
<path fill="none" stroke="black" d="M164.62,-74.31C173.39,-72.81 182.33,-71.27 191.01,-69.78"/>
<polygon fill="black" stroke="black" points="191.47,-73.25 200.73,-68.11 190.28,-66.35 191.47,-73.25"/>
</g>
<!-- recruit_sponsors -->
<g id="node11" class="node">
<title>recruit_sponsors</title>
<g id="a_node11"><a xlink:title="スポンサー募集&#10;&#10;企画書と告知内容をもとに協賛企業と交渉し合意書を締結する&#10;owner: スポンサー担当">
<ellipse fill="none" stroke="black" cx="609.43" cy="-122" rx="76.75" ry="29.42"/>
<text xml:space="preserve" text-anchor="middle" x="609.43" y="-126.2" font-family="Times,serif" font-size="14.00">recruit_sponsors</text>
<text xml:space="preserve" text-anchor="middle" x="609.43" y="-109.4" font-family="Times,serif" font-size="14.00">スポンサー募集</text>
</a>
</g>
</g>
<!-- cfp_announcement&#45;&gt;recruit_sponsors -->
<g id="edge8" class="edge">
<title>cfp_announcement&#45;&gt;recruit_sponsors</title>
<path fill="none" stroke="black" d="M164.98,-93.71C176.66,-94.9 188.68,-96.05 200.01,-97 310.9,-106.29 438.99,-113.57 521.72,-117.82"/>
<polygon fill="black" stroke="black" points="521.41,-121.31 531.57,-118.32 521.76,-114.32 521.41,-121.31"/>
</g>
<!-- event_plan -->
<g id="node6" class="node">
<title>event_plan</title>
<g id="a_node6"><a xlink:title="開催企画書&#10;&#10;開催規模・日程・予算・コンセプトを定めた企画書&#10;owner: 運営リーダー">
<polygon fill="#d4edda" stroke="black" stroke-width="2" points="467.88,-196.8 374.28,-196.8 374.28,-155.2 467.88,-155.2 467.88,-196.8"/>
<text xml:space="preserve" text-anchor="middle" x="421.08" y="-180.2" font-family="Times,serif" font-size="14.00">event_plan</text>
<text xml:space="preserve" text-anchor="middle" x="421.08" y="-163.4" font-family="Times,serif" font-size="14.00">開催企画書</text>
</a>
</g>
<text xml:space="preserve" text-anchor="middle" x="360.68" y="-142.6" font-family="Times,serif" font-size="14.00">done</text>
</g>
<!-- event_plan&#45;&gt;arrange_venue -->
<g id="edge5" class="edge">
<title>event_plan&#45;&gt;arrange_venue</title>
<path fill="none" stroke="black" d="M468.63,-181.74C487.45,-184.07 509.7,-186.81 530.84,-189.42"/>
<polygon fill="black" stroke="black" points="530.25,-192.88 540.61,-190.63 531.11,-185.93 530.25,-192.88"/>
</g>
<!-- event_plan&#45;&gt;recruit_sponsors -->
<g id="edge7" class="edge">
<title>event_plan&#45;&gt;recruit_sponsors</title>
<path fill="none" stroke="black" d="M468.63,-162.51C489.1,-156.58 513.62,-149.47 536.37,-142.88"/>
<polygon fill="black" stroke="black" points="537.29,-146.26 545.92,-140.12 535.34,-139.54 537.29,-146.26"/>
</g>
<!-- operation_manual -->
<g id="node7" class="node">
<title>operation_manual</title>
<g id="a_node7"><a xlink:title="当日運営マニュアル&#10;&#10;役割分担・タイムライン・緊急連絡先を記載した当日運営手順書&#10;owner: 運営リーダー">
<polygon fill="none" stroke="black" points="1270.93,-142.8 1119.73,-142.8 1119.73,-101.2 1270.93,-101.2 1270.93,-142.8"/>
<text xml:space="preserve" text-anchor="middle" x="1195.33" y="-126.2" font-family="Times,serif" font-size="14.00">operation_manual</text>
<text xml:space="preserve" text-anchor="middle" x="1195.33" y="-109.4" font-family="Times,serif" font-size="14.00">当日運営マニュアル</text>
</a>
</g>
</g>
<!-- operation_manual&#45;&gt;run_event -->
<g id="edge14" class="edge">
<title>operation_manual&#45;&gt;run_event</title>
<path fill="none" stroke="black" d="M1271.41,-122C1279.41,-122 1287.48,-122 1295.3,-122"/>
<polygon fill="black" stroke="black" points="1295.03,-125.5 1305.03,-122 1295.03,-118.5 1295.03,-125.5"/>
</g>
<!-- prepare_operations -->
<g id="node8" class="node">
<title>prepare_operations</title>
<g id="a_node8"><a xlink:title="当日準備&#10;&#10;プログラム・会場・スポンサー情報を統合して運営マニュアルを作成する&#10;owner: 運営リーダー">
<ellipse fill="none" stroke="black" cx="996.55" cy="-122" rx="87.17" ry="29.42"/>
<text xml:space="preserve" text-anchor="middle" x="996.55" y="-126.2" font-family="Times,serif" font-size="14.00">prepare_operations</text>
<text xml:space="preserve" text-anchor="middle" x="996.55" y="-109.4" font-family="Times,serif" font-size="14.00">当日準備</text>
</a>
</g>
</g>
<!-- prepare_operations&#45;&gt;operation_manual -->
<g id="edge13" class="edge">
<title>prepare_operations&#45;&gt;operation_manual</title>
<path fill="none" stroke="black" d="M1084.15,-122C1092.05,-122 1100.05,-122 1107.94,-122"/>
<polygon fill="black" stroke="black" points="1107.9,-125.5 1117.9,-122 1107.9,-118.5 1107.9,-125.5"/>
</g>
<!-- program -->
<g id="node9" class="node">
<title>program</title>
<g id="a_node9"><a xlink:title="確定プログラム&#10;&#10;採択セッション・タイムテーブル・登壇者情報を確定したプログラム&#10;owner: プログラム委員会">
<polygon fill="none" stroke="black" points="858.98,-69.8 736.58,-69.8 736.58,-28.2 858.98,-28.2 858.98,-69.8"/>
<text xml:space="preserve" text-anchor="middle" x="797.78" y="-53.2" font-family="Times,serif" font-size="14.00">program</text>
<text xml:space="preserve" text-anchor="middle" x="797.78" y="-36.4" font-family="Times,serif" font-size="14.00">確定プログラム</text>
</a>
</g>
</g>
<!-- program&#45;&gt;prepare_operations -->
<g id="edge10" class="edge">
<title>program&#45;&gt;prepare_operations</title>
<path fill="none" stroke="black" d="M855.96,-70.21C877.9,-78.35 903.18,-87.73 926.15,-96.25"/>
<polygon fill="black" stroke="black" points="924.85,-99.5 935.45,-99.7 927.29,-92.94 924.85,-99.5"/>
</g>
<!-- session_proposals -->
<g id="node13" class="node">
<title>session_proposals</title>
<g id="a_node13"><a xlink:title="セッション応募一覧&#10;&#10;応募者から提出されたセッション提案の全件リスト&#10;owner: プログラム委員会">
<polygon fill="#d4edda" stroke="black" points="496.68,-72.8 345.48,-72.8 345.48,-31.2 496.68,-31.2 496.68,-72.8"/>
<text xml:space="preserve" text-anchor="middle" x="421.08" y="-56.2" font-family="Times,serif" font-size="14.00">session_proposals</text>
<text xml:space="preserve" text-anchor="middle" x="421.08" y="-39.4" font-family="Times,serif" font-size="14.00">セッション応募一覧</text>
</a>
</g>
<text xml:space="preserve" text-anchor="middle" x="331.88" y="-18.6" font-family="Times,serif" font-size="14.00">done</text>
</g>
<!-- recruit_cfp&#45;&gt;session_proposals -->
<g id="edge2" class="edge">
<title>recruit_cfp&#45;&gt;session_proposals</title>
<path fill="none" stroke="black" d="M309.56,-56.71C317.41,-56.37 325.65,-56.02 333.95,-55.67"/>
<polygon fill="black" stroke="black" points="333.92,-59.17 343.76,-55.25 333.62,-52.18 333.92,-59.17"/>
</g>
<!-- sponsor_agreements -->
<g id="node14" class="node">
<title>sponsor_agreements</title>
<g id="a_node14"><a xlink:title="スポンサー協賛合意書&#10;&#10;各スポンサーとの協賛内容・金額・特典を定めた合意書&#10;owner: スポンサー担当">
<polygon fill="none" stroke="black" points="873.38,-151.2 722.18,-151.2 722.18,-92.8 873.38,-92.8 873.38,-151.2"/>
<text xml:space="preserve" text-anchor="middle" x="797.78" y="-134.6" font-family="Times,serif" font-size="14.00">sponsor_agreements</text>
<text xml:space="preserve" text-anchor="middle" x="797.78" y="-117.8" font-family="Times,serif" font-size="14.00">スポンサー協賛合意</text>
<text xml:space="preserve" text-anchor="middle" x="797.78" y="-101" font-family="Times,serif" font-size="14.00">書</text>
</a>
</g>
</g>
<!-- recruit_sponsors&#45;&gt;sponsor_agreements -->
<g id="edge9" class="edge">
<title>recruit_sponsors&#45;&gt;sponsor_agreements</title>
<path fill="none" stroke="black" d="M686.5,-122C694.43,-122 702.54,-122 710.57,-122"/>
<polygon fill="black" stroke="black" points="710.35,-125.5 720.35,-122 710.35,-118.5 710.35,-125.5"/>
</g>
<!-- select_sessions -->
<g id="node12" class="node">
<title>select_sessions</title>
<g id="a_node12"><a xlink:title="セッション採択&#10;&#10;応募一覧をレビュースコアリングし採択セッションを決定する&#10;owner: プログラム委員会">
<ellipse fill="none" stroke="black" cx="609.43" cy="-45" rx="71.25" ry="29.42"/>
<text xml:space="preserve" text-anchor="middle" x="609.43" y="-49.2" font-family="Times,serif" font-size="14.00">select_sessions</text>
<text xml:space="preserve" text-anchor="middle" x="609.43" y="-32.4" font-family="Times,serif" font-size="14.00">セッション採択</text>
</a>
</g>
</g>
<!-- select_sessions&#45;&gt;program -->
<g id="edge4" class="edge">
<title>select_sessions&#45;&gt;program</title>
<path fill="none" stroke="black" d="M680.88,-46.51C695.28,-46.82 710.44,-47.15 724.89,-47.46"/>
<polygon fill="black" stroke="black" points="724.7,-50.95 734.78,-47.67 724.85,-43.96 724.7,-50.95"/>
</g>
<!-- session_proposals&#45;&gt;select_sessions -->
<g id="edge3" class="edge">
<title>session_proposals&#45;&gt;select_sessions</title>
<path fill="none" stroke="black" d="M497.07,-49.18C506.81,-48.82 516.83,-48.44 526.67,-48.07"/>
<polygon fill="black" stroke="black" points="526.75,-51.57 536.61,-47.7 526.49,-44.58 526.75,-51.57"/>
</g>
<!-- sponsor_agreements&#45;&gt;prepare_operations -->
<g id="edge12" class="edge">
<title>sponsor_agreements&#45;&gt;prepare_operations</title>
<path fill="none" stroke="black" d="M873.73,-122C881.56,-122 889.59,-122 897.62,-122"/>
<polygon fill="black" stroke="black" points="897.44,-125.5 907.44,-122 897.44,-118.5 897.44,-125.5"/>
</g>
<!-- venue_contract&#45;&gt;prepare_operations -->
<g id="edge11" class="edge">
<title>venue_contract&#45;&gt;prepare_operations</title>
<path fill="none" stroke="black" d="M856.75,-172.79C878.38,-164.87 903.17,-155.81 925.75,-147.54"/>
<polygon fill="black" stroke="black" points="926.68,-150.93 934.87,-144.2 924.28,-144.35 926.68,-150.93"/>
</g>
<!-- conference_report -->
<g id="node17" class="node">
<title>conference_report</title>
<g id="a_node17"><a xlink:title="開催レポート&#10;&#10;開催概要・統計・ハイライト・改善提案をまとめた公式レポート&#10;owner: 運営リーダー">
<polygon fill="none" stroke="black" stroke-width="2" points="1962.7,-271.8 1818.7,-271.8 1818.7,-230.2 1962.7,-230.2 1962.7,-271.8"/>
<text xml:space="preserve" text-anchor="middle" x="1890.7" y="-255.2" font-family="Times,serif" font-size="14.00">conference_report</text>
<text xml:space="preserve" text-anchor="middle" x="1890.7" y="-238.4" font-family="Times,serif" font-size="14.00">開催レポート</text>
</a>
</g>
</g>
<!-- compile_report&#45;&gt;conference_report -->
<g id="edge19" class="edge">
<title>compile_report&#45;&gt;conference_report</title>
<path fill="none" stroke="black" d="M1782.95,-251C1790.68,-251 1798.6,-251 1806.46,-251"/>
<polygon fill="black" stroke="black" points="1806.4,-254.5 1816.4,-251 1806.4,-247.5 1806.4,-254.5"/>
</g>
<!-- satisfaction_survey -->
<g id="node18" class="node">
<title>satisfaction_survey</title>
<g id="a_node18"><a xlink:title="参加者アンケート結果&#10;&#10;参加者から回収した満足度・感想・改善要望のアンケートデータ&#10;owner: 運営事務局">
<polygon fill="none" stroke="black" stroke-width="2" points="1603.12,-280.2 1444.72,-280.2 1444.72,-221.8 1603.12,-221.8 1603.12,-280.2"/>
<text xml:space="preserve" text-anchor="middle" x="1523.92" y="-263.6" font-family="Times,serif" font-size="14.00">satisfaction_survey</text>
<text xml:space="preserve" text-anchor="middle" x="1523.92" y="-246.8" font-family="Times,serif" font-size="14.00">参加者アンケート結</text>
<text xml:space="preserve" text-anchor="middle" x="1523.92" y="-230" font-family="Times,serif" font-size="14.00">果</text>
</a>
</g>
</g>
<!-- satisfaction_survey&#45;&gt;compile_report -->
<g id="edge20" class="edge">
<title>satisfaction_survey&#45;&gt;compile_report</title>
<path fill="none" stroke="black" d="M1603.91,-251C1611.7,-251 1619.61,-251 1627.43,-251"/>
<polygon fill="black" stroke="black" points="1627.28,-254.5 1637.28,-251 1627.28,-247.5 1627.28,-254.5"/>
</g>
</g>
</svg>
