<?xml version="1.0" encoding="UTF-8" standalone="no"?>
<!DOCTYPE svg PUBLIC "-//W3C//DTD SVG 1.1//EN"
 "http://www.w3.org/Graphics/SVG/1.1/DTD/svg11.dtd">
<!-- Generated by graphviz version 15.1.0 (0)
 -->
<!-- Title: PFDSL Pages: 1 -->
<svg width="2336pt" height="247pt"
 viewBox="0.00 0.00 2336.00 247.00" xmlns="http://www.w3.org/2000/svg" xmlns:xlink="http://www.w3.org/1999/xlink">
<g id="graph0" class="graph" transform="scale(1 1) rotate(0) translate(4 243.04)">
<title>PFDSL</title>
<polygon fill="white" stroke="none" points="-4,4 -4,-243.04 2332.23,-243.04 2332.23,4 -4,4"/>
<text xml:space="preserve" text-anchor="middle" x="1164.11" y="-222.44" font-family="Times,serif" font-size="14.00">業務委託契約締結フロー</text>
<!-- contract_draft -->
<g id="node1" class="node">
<title>contract_draft</title>
<g id="a_node1"><a xlink:title="契約書ドラフト&#10;&#10;発注側が初稿として作成した業務委託契約書&#10;owner: 発注側 Legal">
<polygon fill="#d4edda" stroke="black" points="484.87,-147.1 362.47,-147.1 362.47,-105.5 484.87,-105.5 484.87,-147.1"/>
<text xml:space="preserve" text-anchor="middle" x="423.67" y="-130.5" font-family="Times,serif" font-size="14.00">contract_draft</text>
<text xml:space="preserve" text-anchor="middle" x="423.67" y="-113.7" font-family="Times,serif" font-size="14.00">契約書ドラフト</text>
</a>
</g>
<text xml:space="preserve" text-anchor="middle" x="348.87" y="-92.9" font-family="Times,serif" font-size="14.00">done</text>
</g>
<!-- negotiate_terms -->
<g id="node6" class="node">
<title>negotiate_terms</title>
<g id="a_node6"><a xlink:title="条件交渉&#10;&#10;受注側と契約条件を複数回往復して合意点を探り交渉メモを作成する&#10;owner: 双方 BizDev">
<ellipse fill="none" stroke="black" cx="595.41" cy="-170.3" rx="74.54" ry="29.42"/>
<text xml:space="preserve" text-anchor="middle" x="595.41" y="-174.5" font-family="Times,serif" font-size="14.00">negotiate_terms</text>
<text xml:space="preserve" text-anchor="middle" x="595.41" y="-157.7" font-family="Times,serif" font-size="14.00">条件交渉</text>
</a>
</g>
</g>
<!-- contract_draft&#45;&gt;negotiate_terms -->
<g id="edge3" class="edge">
<title>contract_draft&#45;&gt;negotiate_terms</title>
<path fill="none" stroke="black" d="M484.99,-141.93C496.74,-144.98 509.17,-148.2 521.28,-151.34"/>
<polygon fill="black" stroke="black" points="520.25,-154.69 530.81,-153.81 522.01,-147.91 520.25,-154.69"/>
</g>
<!-- revise_draft -->
<g id="node11" class="node">
<title>revise_draft</title>
<g id="a_node11"><a xlink:title="ドラフト改訂&#10;&#10;交渉メモの合意内容を契約書本文に反映する&#10;owner: 発注側 Legal">
<ellipse fill="none" stroke="black" cx="937.34" cy="-142.3" rx="58.59" ry="29.42"/>
<text xml:space="preserve" text-anchor="middle" x="937.34" y="-146.5" font-family="Times,serif" font-size="14.00">revise_draft</text>
<text xml:space="preserve" text-anchor="middle" x="937.34" y="-129.7" font-family="Times,serif" font-size="14.00">ドラフト改訂</text>
</a>
</g>
</g>
<!-- contract_draft&#45;&gt;revise_draft -->
<g id="edge5" class="edge">
<title>contract_draft&#45;&gt;revise_draft</title>
<path fill="none" stroke="black" d="M485.16,-127.55C534.81,-128.64 606.94,-130.34 669.95,-132.3 736.96,-134.37 813.44,-137.3 867.21,-139.45"/>
<polygon fill="black" stroke="black" points="867.02,-142.95 877.15,-139.85 867.3,-135.95 867.02,-142.95"/>
</g>
<!-- draft_contract -->
<g id="node2" class="node">
<title>draft_contract</title>
<g id="a_node2"><a xlink:title="契約書起草&#10;&#10;SOW をもとに業務委託契約書の初稿を作成する&#10;owner: 発注側 Legal">
<ellipse fill="none" stroke="black" cx="259.64" cy="-126.3" rx="66.83" ry="29.42"/>
<text xml:space="preserve" text-anchor="middle" x="259.64" y="-130.5" font-family="Times,serif" font-size="14.00">draft_contract</text>
<text xml:space="preserve" text-anchor="middle" x="259.64" y="-113.7" font-family="Times,serif" font-size="14.00">契約書起草</text>
</a>
</g>
</g>
<!-- draft_contract&#45;&gt;contract_draft -->
<g id="edge2" class="edge">
<title>draft_contract&#45;&gt;contract_draft</title>
<path fill="none" stroke="black" d="M326.55,-126.3C334.53,-126.3 342.71,-126.3 350.77,-126.3"/>
<polygon fill="black" stroke="black" points="350.54,-129.8 360.54,-126.3 350.54,-122.8 350.54,-129.8"/>
</g>
<!-- execute_contract -->
<g id="node3" class="node">
<title>execute_contract</title>
<g id="a_node3"><a xlink:title="契約締結（押印）&#10;&#10;双方の代表者が最終契約書に署名・押印して契約を締結する&#10;owner: 双方">
<ellipse fill="none" stroke="black" cx="2084.26" cy="-142.3" rx="78.37" ry="29.42"/>
<text xml:space="preserve" text-anchor="middle" x="2084.26" y="-146.5" font-family="Times,serif" font-size="14.00">execute_contract</text>
<text xml:space="preserve" text-anchor="middle" x="2084.26" y="-129.7" font-family="Times,serif" font-size="14.00">契約締結（押印）</text>
</a>
</g>
</g>
<!-- signed_contract -->
<g id="node13" class="node">
<title>signed_contract</title>
<g id="a_node13"><a xlink:title="締結済み契約書&#10;&#10;双方が押印・署名した有効な業務委託契約書&#10;owner: 双方">
<polygon fill="none" stroke="black" stroke-width="2" points="2328.23,-163.1 2198.63,-163.1 2198.63,-121.5 2328.23,-121.5 2328.23,-163.1"/>
<text xml:space="preserve" text-anchor="middle" x="2263.43" y="-146.5" font-family="Times,serif" font-size="14.00">signed_contract</text>
<text xml:space="preserve" text-anchor="middle" x="2263.43" y="-129.7" font-family="Times,serif" font-size="14.00">締結済み契約書</text>
</a>
</g>
</g>
<!-- execute_contract&#45;&gt;signed_contract -->
<g id="edge17" class="edge">
<title>execute_contract&#45;&gt;signed_contract</title>
<path fill="none" stroke="black" d="M2162.97,-142.3C2170.78,-142.3 2178.7,-142.3 2186.49,-142.3"/>
<polygon fill="black" stroke="black" points="2186.26,-145.8 2196.26,-142.3 2186.26,-138.8 2186.26,-145.8"/>
</g>
<!-- final_contract -->
<g id="node4" class="node">
<title>final_contract</title>
<g id="a_node4"><a xlink:title="最終契約書&#10;&#10;双方のリーガルチェックを経て合意に至った最終版契約書&#10;owner: 発注側 Legal">
<polygon fill="none" stroke="black" points="1969.89,-163.1 1847.49,-163.1 1847.49,-121.5 1969.89,-121.5 1969.89,-163.1"/>
<text xml:space="preserve" text-anchor="middle" x="1908.69" y="-146.5" font-family="Times,serif" font-size="14.00">final_contract</text>
<text xml:space="preserve" text-anchor="middle" x="1908.69" y="-129.7" font-family="Times,serif" font-size="14.00">最終契約書</text>
</a>
</g>
</g>
<!-- final_contract&#45;&gt;execute_contract -->
<g id="edge16" class="edge">
<title>final_contract&#45;&gt;execute_contract</title>
<path fill="none" stroke="black" d="M1969.91,-142.3C1977.7,-142.3 1985.8,-142.3 1993.93,-142.3"/>
<polygon fill="black" stroke="black" points="1993.9,-145.8 2003.9,-142.3 1993.9,-138.8 1993.9,-145.8"/>
</g>
<!-- finalize_contract -->
<g id="node5" class="node">
<title>finalize_contract</title>
<g id="a_node5"><a xlink:title="最終版確定&#10;&#10;双方の意見書を反映し条文を最終調整して最終契約書を確定する&#10;owner: 発注側 Legal">
<ellipse fill="none" stroke="black" cx="1733.67" cy="-142.3" rx="77.82" ry="29.42"/>
<text xml:space="preserve" text-anchor="middle" x="1733.67" y="-146.5" font-family="Times,serif" font-size="14.00">finalize_contract</text>
<text xml:space="preserve" text-anchor="middle" x="1733.67" y="-129.7" font-family="Times,serif" font-size="14.00">最終版確定</text>
</a>
</g>
</g>
<!-- finalize_contract&#45;&gt;final_contract -->
<g id="edge15" class="edge">
<title>finalize_contract&#45;&gt;final_contract</title>
<path fill="none" stroke="black" d="M1811.82,-142.3C1819.75,-142.3 1827.79,-142.3 1835.66,-142.3"/>
<polygon fill="black" stroke="black" points="1835.53,-145.8 1845.53,-142.3 1835.53,-138.8 1835.53,-145.8"/>
</g>
<!-- negotiation_memo -->
<g id="node7" class="node">
<title>negotiation_memo</title>
<g id="a_node7"><a xlink:title="交渉メモ&#10;&#10;受注側から提示された修正要求と発注側の回答を記録した往復メモ&#10;owner: 双方 BizDev">
<polygon fill="none" stroke="black" points="842.75,-206.1 705.95,-206.1 705.95,-164.5 842.75,-164.5 842.75,-206.1"/>
<text xml:space="preserve" text-anchor="middle" x="774.35" y="-189.5" font-family="Times,serif" font-size="14.00">negotiation_memo</text>
<text xml:space="preserve" text-anchor="middle" x="774.35" y="-172.7" font-family="Times,serif" font-size="14.00">交渉メモ</text>
</a>
</g>
</g>
<!-- negotiate_terms&#45;&gt;negotiation_memo -->
<g id="edge4" class="edge">
<title>negotiate_terms&#45;&gt;negotiation_memo</title>
<path fill="none" stroke="black" d="M668.63,-176.42C677.14,-177.14 685.85,-177.88 694.44,-178.61"/>
<polygon fill="black" stroke="black" points="693.87,-182.07 704.13,-179.43 694.46,-175.09 693.87,-182.07"/>
</g>
<!-- negotiation_memo&#45;&gt;revise_draft -->
<g id="edge6" class="edge">
<title>negotiation_memo&#45;&gt;revise_draft</title>
<path fill="none" stroke="black" d="M843.16,-167.18C853.51,-164.42 864.14,-161.58 874.36,-158.85"/>
<polygon fill="black" stroke="black" points="875.02,-162.29 883.78,-156.33 873.22,-155.53 875.02,-162.29"/>
</g>
<!-- orderer_legal_opinion -->
<g id="node8" class="node">
<title>orderer_legal_opinion</title>
<g id="a_node8"><a xlink:title="発注側リーガルチェック意見書&#10;&#10;発注側法務による契約書の法的問題点・修正指示&#10;owner: 発注側 Legal">
<polygon fill="none" stroke="black" points="1619.85,-171.5 1447.05,-171.5 1447.05,-113.1 1619.85,-113.1 1619.85,-171.5"/>
<text xml:space="preserve" text-anchor="middle" x="1533.45" y="-154.9" font-family="Times,serif" font-size="14.00">orderer_legal_opinion</text>
<text xml:space="preserve" text-anchor="middle" x="1533.45" y="-138.1" font-family="Times,serif" font-size="14.00">発注側リーガルチェ</text>
<text xml:space="preserve" text-anchor="middle" x="1533.45" y="-121.3" font-family="Times,serif" font-size="14.00">ック意見書</text>
</a>
</g>
</g>
<!-- orderer_legal_opinion&#45;&gt;finalize_contract -->
<g id="edge13" class="edge">
<title>orderer_legal_opinion&#45;&gt;finalize_contract</title>
<path fill="none" stroke="black" d="M1620.24,-142.3C1628.11,-142.3 1636.1,-142.3 1644,-142.3"/>
<polygon fill="black" stroke="black" points="1643.97,-145.8 1653.97,-142.3 1643.97,-138.8 1643.97,-145.8"/>
</g>
<!-- review_orderer_legal -->
<g id="node9" class="node">
<title>review_orderer_legal</title>
<g id="a_node9"><a xlink:title="発注側リーガルチェック&#10;&#10;発注側法務が契約書を審査し意見書を作成する&#10;owner: 発注側 Legal">
<ellipse fill="none" stroke="black" cx="1315.09" cy="-142.3" rx="95.96" ry="41.3"/>
<text xml:space="preserve" text-anchor="middle" x="1315.09" y="-154.9" font-family="Times,serif" font-size="14.00">review_orderer_legal</text>
<text xml:space="preserve" text-anchor="middle" x="1315.09" y="-138.1" font-family="Times,serif" font-size="14.00">発注側リーガルチェ</text>
<text xml:space="preserve" text-anchor="middle" x="1315.09" y="-121.3" font-family="Times,serif" font-size="14.00">ック</text>
</a>
</g>
</g>
<!-- review_orderer_legal&#45;&gt;orderer_legal_opinion -->
<g id="edge9" class="edge">
<title>review_orderer_legal&#45;&gt;orderer_legal_opinion</title>
<path fill="none" stroke="black" d="M1411.3,-142.3C1419.32,-142.3 1427.43,-142.3 1435.45,-142.3"/>
<polygon fill="black" stroke="black" points="1435.22,-145.8 1445.22,-142.3 1435.22,-138.8 1435.22,-145.8"/>
</g>
<!-- review_vendor_legal -->
<g id="node10" class="node">
<title>review_vendor_legal</title>
<g id="a_node10"><a xlink:title="受注側リーガルチェック&#10;&#10;受注側法務が契約書を審査し意見書を作成する&#10;owner: 受注側 Legal">
<ellipse fill="none" stroke="black" cx="1315.09" cy="-41.3" rx="94.87" ry="41.3"/>
<text xml:space="preserve" text-anchor="middle" x="1315.09" y="-53.9" font-family="Times,serif" font-size="14.00">review_vendor_legal</text>
<text xml:space="preserve" text-anchor="middle" x="1315.09" y="-37.1" font-family="Times,serif" font-size="14.00">受注側リーガルチェ</text>
<text xml:space="preserve" text-anchor="middle" x="1315.09" y="-20.3" font-family="Times,serif" font-size="14.00">ック</text>
</a>
</g>
</g>
<!-- vendor_legal_opinion -->
<g id="node15" class="node">
<title>vendor_legal_opinion</title>
<g id="a_node15"><a xlink:title="受注側リーガルチェック意見書&#10;&#10;受注側法務による契約書の法的問題点・修正指示&#10;owner: 受注側 Legal">
<polygon fill="none" stroke="black" points="1616.25,-83.5 1450.65,-83.5 1450.65,-25.1 1616.25,-25.1 1616.25,-83.5"/>
<text xml:space="preserve" text-anchor="middle" x="1533.45" y="-66.9" font-family="Times,serif" font-size="14.00">vendor_legal_opinion</text>
<text xml:space="preserve" text-anchor="middle" x="1533.45" y="-50.1" font-family="Times,serif" font-size="14.00">受注側リーガルチェ</text>
<text xml:space="preserve" text-anchor="middle" x="1533.45" y="-33.3" font-family="Times,serif" font-size="14.00">ック意見書</text>
</a>
</g>
</g>
<!-- review_vendor_legal&#45;&gt;vendor_legal_opinion -->
<g id="edge11" class="edge">
<title>review_vendor_legal&#45;&gt;vendor_legal_opinion</title>
<path fill="none" stroke="black" d="M1409.41,-46.9C1419.2,-47.49 1429.14,-48.09 1438.93,-48.68"/>
<polygon fill="black" stroke="black" points="1438.62,-52.16 1448.81,-49.27 1439.04,-45.18 1438.62,-52.16"/>
</g>
<!-- revised_draft -->
<g id="node12" class="node">
<title>revised_draft</title>
<g id="a_node12"><a xlink:title="修正契約書ドラフト&#10;&#10;交渉内容を反映した改訂版契約書ドラフト&#10;owner: 発注側 Legal">
<polygon fill="none" stroke="black" points="1183.13,-163.1 1031.93,-163.1 1031.93,-121.5 1183.13,-121.5 1183.13,-163.1"/>
<text xml:space="preserve" text-anchor="middle" x="1107.53" y="-146.5" font-family="Times,serif" font-size="14.00">revised_draft</text>
<text xml:space="preserve" text-anchor="middle" x="1107.53" y="-129.7" font-family="Times,serif" font-size="14.00">修正契約書ドラフト</text>
</a>
</g>
</g>
<!-- revise_draft&#45;&gt;revised_draft -->
<g id="edge7" class="edge">
<title>revise_draft&#45;&gt;revised_draft</title>
<path fill="none" stroke="black" d="M996.22,-142.3C1003.97,-142.3 1012.05,-142.3 1020.16,-142.3"/>
<polygon fill="black" stroke="black" points="1020.09,-145.8 1030.09,-142.3 1020.09,-138.8 1020.09,-145.8"/>
</g>
<!-- revised_draft&#45;&gt;finalize_contract -->
<g id="edge12" class="edge">
<title>revised_draft&#45;&gt;finalize_contract</title>
<path fill="none" stroke="black" d="M1145.04,-163.55C1165.97,-174.5 1193.17,-186.7 1219.13,-192.3 1393.31,-229.84 1444.92,-214.15 1619.85,-180.3 1635.84,-177.2 1652.68,-172.41 1668.33,-167.26"/>
<polygon fill="black" stroke="black" points="1669.17,-170.67 1677.51,-164.14 1666.92,-164.04 1669.17,-170.67"/>
</g>
<!-- revised_draft&#45;&gt;negotiate_terms -->
<g id="edge18" class="edge">
<title>revised_draft&#45;&gt;negotiate_terms</title>
<path fill="none" stroke="#888888" stroke-dasharray="5,2" d="M1056.23,-121.09C1037.63,-114.3 1016.15,-107.67 995.93,-104.3 877.88,-84.58 740.16,-120.28 661.13,-146.4"/>
<polygon fill="#888888" stroke="#888888" points="660.18,-143.03 651.81,-149.54 662.41,-149.66 660.18,-143.03"/>
</g>
<!-- revised_draft&#45;&gt;review_orderer_legal -->
<g id="edge8" class="edge">
<title>revised_draft&#45;&gt;review_orderer_legal</title>
<path fill="none" stroke="black" d="M1183.61,-142.3C1191.41,-142.3 1199.43,-142.3 1207.49,-142.3"/>
<polygon fill="black" stroke="black" points="1207.36,-145.8 1217.36,-142.3 1207.36,-138.8 1207.36,-145.8"/>
</g>
<!-- revised_draft&#45;&gt;review_vendor_legal -->
<g id="edge10" class="edge">
<title>revised_draft&#45;&gt;review_vendor_legal</title>
<path fill="none" stroke="black" d="M1151.62,-121.12C1177.53,-108.39 1211.19,-91.85 1241.15,-77.13"/>
<polygon fill="black" stroke="black" points="1242.36,-80.44 1249.79,-72.89 1239.28,-74.15 1242.36,-80.44"/>
</g>
<!-- sow -->
<g id="node14" class="node">
<title>sow</title>
<g id="a_node14"><a xlink:title="業務概要（SOW）&#10;&#10;発注側が作成した業務範囲・成果物・スケジュールの概要&#10;owner: 発注側 BizDev">
<polygon fill="#d4edda" stroke="black" stroke-width="2" points="156.81,-147.1 27.21,-147.1 27.21,-105.5 156.81,-105.5 156.81,-147.1"/>
<text xml:space="preserve" text-anchor="middle" x="92.01" y="-130.5" font-family="Times,serif" font-size="14.00">sow</text>
<text xml:space="preserve" text-anchor="middle" x="92.01" y="-113.7" font-family="Times,serif" font-size="14.00">業務概要（SOW）</text>
</a>
</g>
<text xml:space="preserve" text-anchor="middle" x="13.61" y="-92.9" font-family="Times,serif" font-size="14.00">done</text>
</g>
<!-- sow&#45;&gt;draft_contract -->
<g id="edge1" class="edge">
<title>sow&#45;&gt;draft_contract</title>
<path fill="none" stroke="black" d="M157.52,-126.3C165.21,-126.3 173.13,-126.3 180.97,-126.3"/>
<polygon fill="black" stroke="black" points="180.88,-129.8 190.88,-126.3 180.88,-122.8 180.88,-129.8"/>
</g>
<!-- vendor_legal_opinion&#45;&gt;finalize_contract -->
<g id="edge14" class="edge">
<title>vendor_legal_opinion&#45;&gt;finalize_contract</title>
<path fill="none" stroke="black" d="M1601.28,-83.97C1624.08,-94.09 1649.44,-105.35 1671.76,-115.25"/>
<polygon fill="black" stroke="black" points="1670.16,-118.37 1680.72,-119.23 1673,-111.98 1670.16,-118.37"/>
</g>
</g>
</svg>
