<?xml version="1.0" encoding="UTF-8" standalone="no"?>
<!DOCTYPE svg PUBLIC "-//W3C//DTD SVG 1.1//EN"
 "http://www.w3.org/Graphics/SVG/1.1/DTD/svg11.dtd">
<!-- Generated by graphviz version 15.1.0 (0)
 -->
<!-- Title: PFDSL Pages: 1 -->
<svg width="1269pt" height="332pt"
 viewBox="0.00 0.00 1269.00 332.00" xmlns="http://www.w3.org/2000/svg" xmlns:xlink="http://www.w3.org/1999/xlink">
<g id="graph0" class="graph" transform="scale(1 1) rotate(0) translate(4 327.8)">
<title>PFDSL</title>
<polygon fill="white" stroke="none" points="-4,4 -4,-327.8 1265.46,-327.8 1265.46,4 -4,4"/>
<text xml:space="preserve" text-anchor="middle" x="630.73" y="-307.2" font-family="Times,serif" font-size="14.00">データ分析ETLパイプライン</text>
<g id="clust1" class="cluster">
<title>cluster_ingest</title>
<polygon fill="#dce8f5" stroke="#9aa2ac" points="19.21,-8 19.21,-285 356.64,-285 356.64,-8 19.21,-8"/>
<text xml:space="preserve" text-anchor="middle" x="187.92" y="-268.4" font-family="Times,serif" font-size="14.00">取込層</text>
</g>
<g id="clust2" class="cluster">
<title>cluster_output</title>
<polygon fill="#dcf5e4" stroke="#9aaca0" points="899.66,-91 899.66,-291 1253.46,-291 1253.46,-91 899.66,-91"/>
<text xml:space="preserve" text-anchor="middle" x="1076.56" y="-274.4" font-family="Times,serif" font-size="14.00">出力層</text>
</g>
<g id="clust3" class="cluster">
<title>cluster_transform</title>
<polygon fill="#fdf3dc" stroke="#b1aa9a" points="376.64,-21 376.64,-272 879.66,-272 879.66,-21 376.64,-21"/>
<text xml:space="preserve" text-anchor="middle" x="628.15" y="-255.4" font-family="Times,serif" font-size="14.00">変換層</text>
</g>
<!-- access_log -->
<g id="node1" class="node">
<title>access_log</title>
<g id="a_node1"><a xlink:title="アクセスログ&#10;&#10;Webサーバーの生ログファイル">
<polygon fill="#d4edda" stroke="black" stroke-width="2" points="153.21,-65.8 45.21,-65.8 45.21,-24.2 153.21,-24.2 153.21,-65.8"/>
<text xml:space="preserve" text-anchor="middle" x="99.21" y="-49.2" font-family="Times,serif" font-size="14.00">access_log</text>
<text xml:space="preserve" text-anchor="middle" x="99.21" y="-32.4" font-family="Times,serif" font-size="14.00">アクセスログ</text>
</a>
</g>
<text xml:space="preserve" text-anchor="middle" x="31.61" y="-11.6" font-family="Times,serif" font-size="14.00">done</text>
</g>
<!-- parse_logs -->
<g id="node5" class="node">
<title>parse_logs</title>
<g id="a_node5"><a xlink:title="ログパース&#10;&#10;アクセスログをセッション単位に集計">
<ellipse fill="none" stroke="black" cx="277.92" cy="-45" rx="53.65" ry="29.42"/>
<text xml:space="preserve" text-anchor="middle" x="277.92" y="-49.2" font-family="Times,serif" font-size="14.00">parse_logs</text>
<text xml:space="preserve" text-anchor="middle" x="277.92" y="-32.4" font-family="Times,serif" font-size="14.00">ログパース</text>
</a>
</g>
</g>
<!-- access_log&#45;&gt;parse_logs -->
<g id="edge3" class="edge">
<title>access_log&#45;&gt;parse_logs</title>
<path fill="none" stroke="black" d="M154.19,-45C172.6,-45 193.37,-45 212.52,-45"/>
<polygon fill="black" stroke="black" points="212.37,-48.5 222.37,-45 212.37,-41.5 212.37,-48.5"/>
</g>
<!-- clean_crm -->
<g id="node2" class="node">
<title>clean_crm</title>
<g id="a_node2"><a xlink:title="顧客データクレンジング&#10;&#10;重複排除・欠損補完・名寄せ">
<ellipse fill="none" stroke="black" cx="277.92" cy="-134" rx="70.71" ry="41.3"/>
<text xml:space="preserve" text-anchor="middle" x="277.92" y="-146.6" font-family="Times,serif" font-size="14.00">clean_crm</text>
<text xml:space="preserve" text-anchor="middle" x="277.92" y="-129.8" font-family="Times,serif" font-size="14.00">顧客データクレン</text>
<text xml:space="preserve" text-anchor="middle" x="277.92" y="-113" font-family="Times,serif" font-size="14.00">ジング</text>
</a>
</g>
</g>
<!-- crm_clean -->
<g id="node13" class="node">
<title>crm_clean</title>
<g id="a_node13"><a xlink:title="顧客マスタ（クレンジング済）">
<polygon fill="#d4edda" stroke="black" points="521.44,-163.2 384.64,-163.2 384.64,-104.8 521.44,-104.8 521.44,-163.2"/>
<text xml:space="preserve" text-anchor="middle" x="453.04" y="-146.6" font-family="Times,serif" font-size="14.00">crm_clean</text>
<text xml:space="preserve" text-anchor="middle" x="453.04" y="-129.8" font-family="Times,serif" font-size="14.00">顧客マスタ（クレ</text>
<text xml:space="preserve" text-anchor="middle" x="453.04" y="-113" font-family="Times,serif" font-size="14.00">ンジング済）</text>
</a>
</g>
<text xml:space="preserve" text-anchor="middle" x="371.03" y="-92.2" font-family="Times,serif" font-size="14.00">done</text>
</g>
<!-- clean_crm&#45;&gt;crm_clean -->
<g id="edge2" class="edge">
<title>clean_crm&#45;&gt;crm_clean</title>
<path fill="none" stroke="black" d="M348.84,-134C356.81,-134 364.98,-134 373.06,-134"/>
<polygon fill="black" stroke="black" points="372.88,-137.5 382.88,-134 372.88,-130.5 372.88,-137.5"/>
</g>
<!-- crm_raw -->
<g id="node3" class="node">
<title>crm_raw</title>
<g id="a_node3"><a xlink:title="CRM生データ&#10;&#10;CRMシステムからのエクスポートCSV">
<polygon fill="#d4edda" stroke="black" stroke-width="2" points="149.61,-154.8 48.81,-154.8 48.81,-113.2 149.61,-113.2 149.61,-154.8"/>
<text xml:space="preserve" text-anchor="middle" x="99.21" y="-138.2" font-family="Times,serif" font-size="14.00">crm_raw</text>
<text xml:space="preserve" text-anchor="middle" x="99.21" y="-121.4" font-family="Times,serif" font-size="14.00">CRM生データ</text>
</a>
</g>
<text xml:space="preserve" text-anchor="middle" x="35.21" y="-100.6" font-family="Times,serif" font-size="14.00">done</text>
</g>
<!-- crm_raw&#45;&gt;clean_crm -->
<g id="edge1" class="edge">
<title>crm_raw&#45;&gt;clean_crm</title>
<path fill="none" stroke="black" d="M150.38,-134C164.5,-134 180.24,-134 195.68,-134"/>
<polygon fill="black" stroke="black" points="195.33,-137.5 205.33,-134 195.33,-130.5 195.33,-137.5"/>
</g>
<!-- load_sales -->
<g id="node4" class="node">
<title>load_sales</title>
<g id="a_node4"><a xlink:title="売上データロード&#10;&#10;DBスナップショットをファクトテーブルに変換">
<ellipse fill="none" stroke="black" cx="277.92" cy="-223" rx="70.71" ry="29.42"/>
<text xml:space="preserve" text-anchor="middle" x="277.92" y="-227.2" font-family="Times,serif" font-size="14.00">load_sales</text>
<text xml:space="preserve" text-anchor="middle" x="277.92" y="-210.4" font-family="Times,serif" font-size="14.00">売上データロード</text>
</a>
</g>
</g>
<!-- sales_fact -->
<g id="node15" class="node">
<title>sales_fact</title>
<g id="a_node15"><a xlink:title="売上ファクトテーブル">
<polygon fill="#d4edda" stroke="black" points="521.44,-239.2 384.64,-239.2 384.64,-180.8 521.44,-180.8 521.44,-239.2"/>
<text xml:space="preserve" text-anchor="middle" x="453.04" y="-222.6" font-family="Times,serif" font-size="14.00">sales_fact</text>
<text xml:space="preserve" text-anchor="middle" x="453.04" y="-205.8" font-family="Times,serif" font-size="14.00">売上ファクトテー</text>
<text xml:space="preserve" text-anchor="middle" x="453.04" y="-189" font-family="Times,serif" font-size="14.00">ブル</text>
</a>
</g>
<text xml:space="preserve" text-anchor="middle" x="371.03" y="-168.2" font-family="Times,serif" font-size="14.00">done</text>
</g>
<!-- load_sales&#45;&gt;sales_fact -->
<g id="edge6" class="edge">
<title>load_sales&#45;&gt;sales_fact</title>
<path fill="none" stroke="black" d="M347.84,-217.82C356.07,-217.21 364.53,-216.57 372.89,-215.94"/>
<polygon fill="black" stroke="black" points="372.99,-219.45 382.7,-215.21 372.46,-212.47 372.99,-219.45"/>
</g>
<!-- access_summary -->
<g id="node11" class="node">
<title>access_summary</title>
<g id="a_node11"><a xlink:title="セッション集計テーブル">
<polygon fill="#fff3cd" stroke="black" points="521.44,-87.2 384.64,-87.2 384.64,-28.8 521.44,-28.8 521.44,-87.2"/>
<text xml:space="preserve" text-anchor="middle" x="453.04" y="-70.6" font-family="Times,serif" font-size="14.00">access_summary</text>
<text xml:space="preserve" text-anchor="middle" x="453.04" y="-53.8" font-family="Times,serif" font-size="14.00">セッション集計テ</text>
<text xml:space="preserve" text-anchor="middle" x="453.04" y="-37" font-family="Times,serif" font-size="14.00">ーブル</text>
</a>
</g>
<text xml:space="preserve" text-anchor="middle" x="374.14" y="-16.2" font-family="Times,serif" font-size="14.00">wip</text>
</g>
<!-- parse_logs&#45;&gt;access_summary -->
<g id="edge4" class="edge">
<title>parse_logs&#45;&gt;access_summary</title>
<path fill="none" stroke="black" d="M331.33,-48.94C344.53,-49.93 358.98,-51.01 373.15,-52.08"/>
<polygon fill="black" stroke="black" points="372.69,-55.55 382.92,-52.81 373.21,-48.57 372.69,-55.55"/>
</g>
<!-- sales_db_snapshot -->
<g id="node6" class="node">
<title>sales_db_snapshot</title>
<g id="a_node6"><a xlink:title="売上DBスナップショット&#10;&#10;売上DBの日次ダンプ">
<polygon fill="#d4edda" stroke="black" stroke-width="2" points="171.21,-252.2 27.21,-252.2 27.21,-193.8 171.21,-193.8 171.21,-252.2"/>
<text xml:space="preserve" text-anchor="middle" x="99.21" y="-235.6" font-family="Times,serif" font-size="14.00">sales_db_snapshot</text>
<text xml:space="preserve" text-anchor="middle" x="99.21" y="-218.8" font-family="Times,serif" font-size="14.00">売上DBスナップシ</text>
<text xml:space="preserve" text-anchor="middle" x="99.21" y="-202" font-family="Times,serif" font-size="14.00">ョット</text>
</a>
</g>
<text xml:space="preserve" text-anchor="middle" x="13.61" y="-181.2" font-family="Times,serif" font-size="14.00">done</text>
</g>
<!-- sales_db_snapshot&#45;&gt;load_sales -->
<g id="edge5" class="edge">
<title>sales_db_snapshot&#45;&gt;load_sales</title>
<path fill="none" stroke="black" d="M172.09,-223C179.79,-223 187.67,-223 195.48,-223"/>
<polygon fill="black" stroke="black" points="195.32,-226.5 205.32,-223 195.32,-219.5 195.32,-226.5"/>
</g>
<!-- dashboard -->
<g id="node7" class="node">
<title>dashboard</title>
<g id="a_node7"><a xlink:title="KPIダッシュボード">
<polygon fill="#f8f9fa" stroke="black" stroke-width="2" points="1245.46,-246.2 1115.86,-246.2 1115.86,-187.8 1245.46,-187.8 1245.46,-246.2"/>
<text xml:space="preserve" text-anchor="middle" x="1180.66" y="-229.6" font-family="Times,serif" font-size="14.00">dashboard</text>
<text xml:space="preserve" text-anchor="middle" x="1180.66" y="-212.8" font-family="Times,serif" font-size="14.00">KPIダッシュボー</text>
<text xml:space="preserve" text-anchor="middle" x="1180.66" y="-196" font-family="Times,serif" font-size="14.00">ド</text>
</a>
</g>
<text xml:space="preserve" text-anchor="middle" x="1103.41" y="-175.2" font-family="Times,serif" font-size="14.00">todo</text>
</g>
<!-- generate_report -->
<g id="node8" class="node">
<title>generate_report</title>
<g id="a_node8"><a xlink:title="レポート生成&#10;&#10;マートから週次集計レポートを作成">
<ellipse fill="none" stroke="black" cx="993.76" cy="-128" rx="73.42" ry="29.42"/>
<text xml:space="preserve" text-anchor="middle" x="993.76" y="-132.2" font-family="Times,serif" font-size="14.00">generate_report</text>
<text xml:space="preserve" text-anchor="middle" x="993.76" y="-115.4" font-family="Times,serif" font-size="14.00">レポート生成</text>
</a>
</g>
</g>
<!-- weekly_report -->
<g id="node10" class="node">
<title>weekly_report</title>
<polygon fill="#f8f9fa" stroke="black" stroke-width="2" points="1238.26,-148.8 1123.06,-148.8 1123.06,-107.2 1238.26,-107.2 1238.26,-148.8"/>
<text xml:space="preserve" text-anchor="middle" x="1180.66" y="-132.2" font-family="Times,serif" font-size="14.00">weekly_report</text>
<text xml:space="preserve" text-anchor="middle" x="1180.66" y="-115.4" font-family="Times,serif" font-size="14.00">週次レポート</text>
<text xml:space="preserve" text-anchor="middle" x="1110.61" y="-94.6" font-family="Times,serif" font-size="14.00">todo</text>
</g>
<!-- generate_report&#45;&gt;weekly_report -->
<g id="edge14" class="edge">
<title>generate_report&#45;&gt;weekly_report</title>
<path fill="none" stroke="black" d="M1067.57,-128C1081.92,-128 1096.94,-128 1111.15,-128"/>
<polygon fill="black" stroke="black" points="1110.82,-131.5 1120.82,-128 1110.82,-124.5 1110.82,-131.5"/>
</g>
<!-- publish_dashboard -->
<g id="node9" class="node">
<title>publish_dashboard</title>
<g id="a_node9"><a xlink:title="ダッシュボード公開&#10;&#10;BIツールにマートを接続し可視化を更新">
<ellipse fill="none" stroke="black" cx="993.76" cy="-217" rx="86.1" ry="41.3"/>
<text xml:space="preserve" text-anchor="middle" x="993.76" y="-229.6" font-family="Times,serif" font-size="14.00">publish_dashboard</text>
<text xml:space="preserve" text-anchor="middle" x="993.76" y="-212.8" font-family="Times,serif" font-size="14.00">ダッシュボード公</text>
<text xml:space="preserve" text-anchor="middle" x="993.76" y="-196" font-family="Times,serif" font-size="14.00">開</text>
</a>
</g>
</g>
<!-- publish_dashboard&#45;&gt;dashboard -->
<g id="edge12" class="edge">
<title>publish_dashboard&#45;&gt;dashboard</title>
<path fill="none" stroke="black" d="M1080.17,-217C1088.06,-217 1096.01,-217 1103.8,-217"/>
<polygon fill="black" stroke="black" points="1103.55,-220.5 1113.55,-217 1103.55,-213.5 1103.55,-220.5"/>
</g>
<!-- build_mart -->
<g id="node12" class="node">
<title>build_mart</title>
<g id="a_node12"><a xlink:title="データマート構築&#10;&#10;顧客・セッション・売上を結合しBIテーブルを生成">
<ellipse fill="none" stroke="black" cx="628.15" cy="-134" rx="70.71" ry="29.42"/>
<text xml:space="preserve" text-anchor="middle" x="628.15" y="-138.2" font-family="Times,serif" font-size="14.00">build_mart</text>
<text xml:space="preserve" text-anchor="middle" x="628.15" y="-121.4" font-family="Times,serif" font-size="14.00">データマート構築</text>
</a>
</g>
</g>
<!-- access_summary&#45;&gt;build_mart -->
<g id="edge8" class="edge">
<title>access_summary&#45;&gt;build_mart</title>
<path fill="none" stroke="black" d="M521.46,-87.6C536.96,-94.41 553.33,-101.59 568.43,-108.22"/>
<polygon fill="black" stroke="black" points="566.71,-111.29 577.27,-112.1 569.52,-104.88 566.71,-111.29"/>
</g>
<!-- mart -->
<g id="node14" class="node">
<title>mart</title>
<g id="a_node14"><a xlink:title="分析データマート&#10;&#10;BIツール向けに結合・集計されたワイドテーブル">
<polygon fill="#fff3cd" stroke="black" points="871.66,-154.8 734.86,-154.8 734.86,-113.2 871.66,-113.2 871.66,-154.8"/>
<text xml:space="preserve" text-anchor="middle" x="803.26" y="-138.2" font-family="Times,serif" font-size="14.00">mart</text>
<text xml:space="preserve" text-anchor="middle" x="803.26" y="-121.4" font-family="Times,serif" font-size="14.00">分析データマート</text>
</a>
</g>
<text xml:space="preserve" text-anchor="middle" x="724.36" y="-100.6" font-family="Times,serif" font-size="14.00">wip</text>
</g>
<!-- build_mart&#45;&gt;mart -->
<g id="edge10" class="edge">
<title>build_mart&#45;&gt;mart</title>
<path fill="none" stroke="black" d="M699.06,-134C707.03,-134 715.2,-134 723.28,-134"/>
<polygon fill="black" stroke="black" points="723.1,-137.5 733.1,-134 723.1,-130.5 723.1,-137.5"/>
</g>
<!-- crm_clean&#45;&gt;build_mart -->
<g id="edge7" class="edge">
<title>crm_clean&#45;&gt;build_mart</title>
<path fill="none" stroke="black" d="M521.46,-134C529.4,-134 537.56,-134 545.66,-134"/>
<polygon fill="black" stroke="black" points="545.54,-137.5 555.54,-134 545.54,-130.5 545.54,-137.5"/>
</g>
<!-- mart&#45;&gt;generate_report -->
<g id="edge13" class="edge">
<title>mart&#45;&gt;generate_report</title>
<path fill="none" stroke="black" d="M872.04,-131.84C884,-131.46 896.58,-131.06 908.92,-130.67"/>
<polygon fill="black" stroke="black" points="908.76,-134.18 918.65,-130.36 908.54,-127.18 908.76,-134.18"/>
</g>
<!-- mart&#45;&gt;publish_dashboard -->
<g id="edge11" class="edge">
<title>mart&#45;&gt;publish_dashboard</title>
<path fill="none" stroke="black" d="M852.31,-155.16C872.56,-164.07 896.58,-174.65 918.98,-184.52"/>
<polygon fill="black" stroke="black" points="917.53,-187.7 928.1,-188.53 920.36,-181.3 917.53,-187.7"/>
</g>
<!-- sales_fact&#45;&gt;build_mart -->
<g id="edge9" class="edge">
<title>sales_fact&#45;&gt;build_mart</title>
<path fill="none" stroke="black" d="M521.46,-180.4C536.96,-173.59 553.33,-166.41 568.43,-159.78"/>
<polygon fill="black" stroke="black" points="569.52,-163.12 577.27,-155.9 566.71,-156.71 569.52,-163.12"/>
</g>
</g>
</svg>
