<?xml version="1.0" encoding="UTF-8" standalone="no"?>
<!DOCTYPE svg PUBLIC "-//W3C//DTD SVG 1.1//EN"
 "http://www.w3.org/Graphics/SVG/1.1/DTD/svg11.dtd">
<!-- Generated by graphviz version 15.1.0 (0)
 -->
<!-- Title: PFDSL Pages: 1 -->
<svg width="1581pt" height="215pt"
 viewBox="0.00 0.00 1581.00 215.00" xmlns="http://www.w3.org/2000/svg" xmlns:xlink="http://www.w3.org/1999/xlink">
<g id="graph0" class="graph" transform="scale(1 1) rotate(0) translate(4 210.82)">
<title>PFDSL</title>
<polygon fill="white" stroke="none" points="-4,4 -4,-210.82 1576.67,-210.82 1576.67,4 -4,4"/>
<text xml:space="preserve" text-anchor="middle" x="786.34" y="-190.22" font-family="Times,serif" font-size="14.00">採用プロセス</text>
<!-- assignment -->
<g id="node1" class="node">
<title>assignment</title>
<g id="a_node1"><a xlink:title="技術課題&#10;&#10;応募者に出題するコーディング課題&#10;owner: 面接官">
<polygon fill="#d4edda" stroke="black" points="524.98,-173.4 431.38,-173.4 431.38,-131.8 524.98,-131.8 524.98,-173.4"/>
<text xml:space="preserve" text-anchor="middle" x="478.18" y="-156.8" font-family="Times,serif" font-size="14.00">assignment</text>
<text xml:space="preserve" text-anchor="middle" x="478.18" y="-140" font-family="Times,serif" font-size="14.00">技術課題</text>
</a>
</g>
<text xml:space="preserve" text-anchor="middle" x="417.77" y="-119.2" font-family="Times,serif" font-size="14.00">done</text>
</g>
<!-- solve_assignment -->
<g id="node13" class="node">
<title>solve_assignment</title>
<g id="a_node13"><a xlink:title="課題実施&#10;&#10;応募者が技術課題に取り組み成果物を提出する&#10;owner: 応募者">
<ellipse fill="none" stroke="black" cx="667.56" cy="-152.6" rx="81.7" ry="29.42"/>
<text xml:space="preserve" text-anchor="middle" x="667.56" y="-156.8" font-family="Times,serif" font-size="14.00">solve_assignment</text>
<text xml:space="preserve" text-anchor="middle" x="667.56" y="-140" font-family="Times,serif" font-size="14.00">課題実施</text>
</a>
</g>
</g>
<!-- assignment&#45;&gt;solve_assignment -->
<g id="edge9" class="edge">
<title>assignment&#45;&gt;solve_assignment</title>
<path fill="none" stroke="black" d="M525.01,-152.6C539.95,-152.6 557.1,-152.6 574.19,-152.6"/>
<polygon fill="black" stroke="black" points="573.87,-156.1 583.87,-152.6 573.87,-149.1 573.87,-156.1"/>
</g>
<!-- conduct_interview -->
<g id="node2" class="node">
<title>conduct_interview</title>
<g id="a_node2"><a xlink:title="面接実施&#10;&#10;技術面接・HR面接を実施し評価シートに記録する&#10;owner: 面接官">
<ellipse fill="none" stroke="black" cx="667.56" cy="-75.6" rx="84.98" ry="29.42"/>
<text xml:space="preserve" text-anchor="middle" x="667.56" y="-79.8" font-family="Times,serif" font-size="14.00">conduct_interview</text>
<text xml:space="preserve" text-anchor="middle" x="667.56" y="-63" font-family="Times,serif" font-size="14.00">面接実施</text>
</a>
</g>
</g>
<!-- interview_sheet -->
<g id="node6" class="node">
<title>interview_sheet</title>
<g id="a_node6"><a xlink:title="面接評価シート&#10;&#10;技術・カルチャーフィットの評価軸と記録&#10;owner: 面接官">
<polygon fill="#fff3cd" stroke="black" points="921.74,-104.4 792.14,-104.4 792.14,-62.8 921.74,-62.8 921.74,-104.4"/>
<text xml:space="preserve" text-anchor="middle" x="856.94" y="-87.8" font-family="Times,serif" font-size="14.00">interview_sheet</text>
<text xml:space="preserve" text-anchor="middle" x="856.94" y="-71" font-family="Times,serif" font-size="14.00">面接評価シート</text>
</a>
</g>
<text xml:space="preserve" text-anchor="middle" x="781.64" y="-50.2" font-family="Times,serif" font-size="14.00">wip</text>
</g>
<!-- conduct_interview&#45;&gt;interview_sheet -->
<g id="edge8" class="edge">
<title>conduct_interview&#45;&gt;interview_sheet</title>
<path fill="none" stroke="black" d="M752.39,-79.18C761.81,-79.58 771.37,-79.99 780.67,-80.39"/>
<polygon fill="black" stroke="black" points="780.21,-83.87 790.35,-80.8 780.51,-76.88 780.21,-83.87"/>
</g>
<!-- evaluate_final -->
<g id="node3" class="node">
<title>evaluate_final</title>
<g id="a_node3"><a xlink:title="最終評価&#10;&#10;面接シートと技術課題を総合して採用判定する&#10;owner: 採用委員会">
<ellipse fill="none" stroke="black" cx="1028.72" cy="-113.6" rx="67.38" ry="29.42"/>
<text xml:space="preserve" text-anchor="middle" x="1028.72" y="-117.8" font-family="Times,serif" font-size="14.00">evaluate_final</text>
<text xml:space="preserve" text-anchor="middle" x="1028.72" y="-101" font-family="Times,serif" font-size="14.00">最終評価</text>
</a>
</g>
</g>
<!-- final_evaluation -->
<g id="node5" class="node">
<title>final_evaluation</title>
<g id="a_node5"><a xlink:title="最終評価報告書&#10;&#10;面接・技術課題を総合した採用判定レポート&#10;owner: 採用委員会">
<polygon fill="#f8f9fa" stroke="black" points="1268.91,-134.4 1132.11,-134.4 1132.11,-92.8 1268.91,-92.8 1268.91,-134.4"/>
<text xml:space="preserve" text-anchor="middle" x="1200.51" y="-117.8" font-family="Times,serif" font-size="14.00">final_evaluation</text>
<text xml:space="preserve" text-anchor="middle" x="1200.51" y="-101" font-family="Times,serif" font-size="14.00">最終評価報告書</text>
</a>
</g>
<text xml:space="preserve" text-anchor="middle" x="1119.66" y="-80.2" font-family="Times,serif" font-size="14.00">todo</text>
</g>
<!-- evaluate_final&#45;&gt;final_evaluation -->
<g id="edge13" class="edge">
<title>evaluate_final&#45;&gt;final_evaluation</title>
<path fill="none" stroke="black" d="M1096.34,-113.6C1104.23,-113.6 1112.35,-113.6 1120.39,-113.6"/>
<polygon fill="black" stroke="black" points="1120.17,-117.1 1130.17,-113.6 1120.17,-110.1 1120.17,-117.1"/>
</g>
<!-- extend_offer -->
<g id="node4" class="node">
<title>extend_offer</title>
<g id="a_node4"><a xlink:title="オファー提示&#10;&#10;最終評価に基づき処遇を決定し内定通知書を作成する&#10;owner: HR">
<ellipse fill="none" stroke="black" cx="1366.79" cy="-113.6" rx="61.88" ry="29.42"/>
<text xml:space="preserve" text-anchor="middle" x="1366.79" y="-117.8" font-family="Times,serif" font-size="14.00">extend_offer</text>
<text xml:space="preserve" text-anchor="middle" x="1366.79" y="-101" font-family="Times,serif" font-size="14.00">オファー提示</text>
</a>
</g>
</g>
<!-- offer_letter -->
<g id="node8" class="node">
<title>offer_letter</title>
<g id="a_node8"><a xlink:title="内定通知書&#10;&#10;処遇条件を記載した内定オファーレター&#10;owner: HR">
<polygon fill="#f8f9fa" stroke="black" stroke-width="2" points="1572.67,-134.4 1464.67,-134.4 1464.67,-92.8 1572.67,-92.8 1572.67,-134.4"/>
<text xml:space="preserve" text-anchor="middle" x="1518.67" y="-117.8" font-family="Times,serif" font-size="14.00">offer_letter</text>
<text xml:space="preserve" text-anchor="middle" x="1518.67" y="-101" font-family="Times,serif" font-size="14.00">内定通知書</text>
</a>
</g>
<text xml:space="preserve" text-anchor="middle" x="1452.23" y="-80.2" font-family="Times,serif" font-size="14.00">todo</text>
</g>
<!-- extend_offer&#45;&gt;offer_letter -->
<g id="edge15" class="edge">
<title>extend_offer&#45;&gt;offer_letter</title>
<path fill="none" stroke="black" d="M1428.75,-113.6C1436.59,-113.6 1444.65,-113.6 1452.55,-113.6"/>
<polygon fill="black" stroke="black" points="1452.47,-117.1 1462.47,-113.6 1452.47,-110.1 1452.47,-117.1"/>
</g>
<!-- final_evaluation&#45;&gt;extend_offer -->
<g id="edge14" class="edge">
<title>final_evaluation&#45;&gt;extend_offer</title>
<path fill="none" stroke="black" d="M1269.27,-113.6C1277.11,-113.6 1285.13,-113.6 1293.03,-113.6"/>
<polygon fill="black" stroke="black" points="1292.98,-117.1 1302.98,-113.6 1292.98,-110.1 1292.98,-117.1"/>
</g>
<!-- interview_sheet&#45;&gt;evaluate_final -->
<g id="edge11" class="edge">
<title>interview_sheet&#45;&gt;evaluate_final</title>
<path fill="none" stroke="black" d="M922.13,-94.94C932.72,-96.81 943.78,-98.77 954.57,-100.67"/>
<polygon fill="black" stroke="black" points="953.75,-104.08 964.2,-102.38 954.97,-97.19 953.75,-104.08"/>
</g>
<!-- job_description -->
<g id="node7" class="node">
<title>job_description</title>
<g id="a_node7"><a xlink:title="求人票&#10;&#10;職種・必須スキル・歓迎スキル・待遇を記載した求人票&#10;owner: HR">
<polygon fill="#d4edda" stroke="black" stroke-width="2" points="156.81,-118.4 27.21,-118.4 27.21,-76.8 156.81,-76.8 156.81,-118.4"/>
<text xml:space="preserve" text-anchor="middle" x="92.01" y="-101.8" font-family="Times,serif" font-size="14.00">job_description</text>
<text xml:space="preserve" text-anchor="middle" x="92.01" y="-85" font-family="Times,serif" font-size="14.00">求人票</text>
</a>
</g>
<text xml:space="preserve" text-anchor="middle" x="13.61" y="-64.2" font-family="Times,serif" font-size="14.00">done</text>
</g>
<!-- job_description&#45;&gt;conduct_interview -->
<g id="edge7" class="edge">
<title>job_description&#45;&gt;conduct_interview</title>
<path fill="none" stroke="black" d="M157.69,-95.12C258.63,-91.25 454.14,-83.75 571.24,-79.26"/>
<polygon fill="black" stroke="black" points="571.3,-82.76 581.16,-78.88 571.03,-75.76 571.3,-82.76"/>
</g>
<!-- prepare_assignment -->
<g id="node9" class="node">
<title>prepare_assignment</title>
<g id="a_node9"><a xlink:title="課題作成&#10;owner: 面接官">
<ellipse fill="none" stroke="black" cx="283.29" cy="-152.6" rx="90.48" ry="29.42"/>
<text xml:space="preserve" text-anchor="middle" x="283.29" y="-156.8" font-family="Times,serif" font-size="14.00">prepare_assignment</text>
<text xml:space="preserve" text-anchor="middle" x="283.29" y="-140" font-family="Times,serif" font-size="14.00">課題作成</text>
</a>
</g>
</g>
<!-- job_description&#45;&gt;prepare_assignment -->
<g id="edge4" class="edge">
<title>job_description&#45;&gt;prepare_assignment</title>
<path fill="none" stroke="black" d="M157.62,-116.37C172.45,-120.68 188.37,-125.31 203.71,-129.76"/>
<polygon fill="black" stroke="black" points="202.72,-133.12 213.3,-132.55 204.67,-126.4 202.72,-133.12"/>
</g>
<!-- screen_resume -->
<g id="node11" class="node">
<title>screen_resume</title>
<g id="a_node11"><a xlink:title="書類選考&#10;&#10;求人票の要件に照らして応募書類を評価する&#10;owner: HR">
<ellipse fill="none" stroke="black" cx="283.29" cy="-38.6" rx="70.13" ry="29.42"/>
<text xml:space="preserve" text-anchor="middle" x="283.29" y="-42.8" font-family="Times,serif" font-size="14.00">screen_resume</text>
<text xml:space="preserve" text-anchor="middle" x="283.29" y="-26" font-family="Times,serif" font-size="14.00">書類選考</text>
</a>
</g>
</g>
<!-- job_description&#45;&gt;screen_resume -->
<g id="edge1" class="edge">
<title>job_description&#45;&gt;screen_resume</title>
<path fill="none" stroke="black" d="M157.62,-77.46C176.25,-71.66 196.6,-65.31 215.36,-59.47"/>
<polygon fill="black" stroke="black" points="216.24,-62.86 224.75,-56.54 214.16,-56.17 216.24,-62.86"/>
</g>
<!-- prepare_assignment&#45;&gt;assignment -->
<g id="edge5" class="edge">
<title>prepare_assignment&#45;&gt;assignment</title>
<path fill="none" stroke="black" d="M374.24,-152.6C389.74,-152.6 405.46,-152.6 419.8,-152.6"/>
<polygon fill="black" stroke="black" points="419.46,-156.1 429.46,-152.6 419.46,-149.1 419.46,-156.1"/>
</g>
<!-- resume -->
<g id="node10" class="node">
<title>resume</title>
<g id="a_node10"><a xlink:title="応募書類&#10;&#10;履歴書・職務経歴書・ポートフォリオ&#10;owner: 応募者">
<polygon fill="#d4edda" stroke="black" stroke-width="2" points="131.61,-58.4 52.41,-58.4 52.41,-16.8 131.61,-16.8 131.61,-58.4"/>
<text xml:space="preserve" text-anchor="middle" x="92.01" y="-41.8" font-family="Times,serif" font-size="14.00">resume</text>
<text xml:space="preserve" text-anchor="middle" x="92.01" y="-25" font-family="Times,serif" font-size="14.00">応募書類</text>
</a>
</g>
<text xml:space="preserve" text-anchor="middle" x="38.81" y="-4.2" font-family="Times,serif" font-size="14.00">done</text>
</g>
<!-- resume&#45;&gt;screen_resume -->
<g id="edge2" class="edge">
<title>resume&#45;&gt;screen_resume</title>
<path fill="none" stroke="black" d="M132.23,-37.81C152.33,-37.91 177.58,-38.05 201.6,-38.17"/>
<polygon fill="black" stroke="black" points="201.36,-41.67 211.38,-38.23 201.4,-34.67 201.36,-41.67"/>
</g>
<!-- screening_result -->
<g id="node12" class="node">
<title>screening_result</title>
<g id="a_node12"><a xlink:title="書類選考結果&#10;&#10;合否判定と所見を記録したスプレッドシート&#10;owner: HR">
<polygon fill="#d4edda" stroke="black" points="546.58,-63.4 409.78,-63.4 409.78,-21.8 546.58,-21.8 546.58,-63.4"/>
<text xml:space="preserve" text-anchor="middle" x="478.18" y="-46.8" font-family="Times,serif" font-size="14.00">screening_result</text>
<text xml:space="preserve" text-anchor="middle" x="478.18" y="-30" font-family="Times,serif" font-size="14.00">書類選考結果</text>
</a>
</g>
<text xml:space="preserve" text-anchor="middle" x="396.17" y="-9.2" font-family="Times,serif" font-size="14.00">done</text>
</g>
<!-- screen_resume&#45;&gt;screening_result -->
<g id="edge3" class="edge">
<title>screen_resume&#45;&gt;screening_result</title>
<path fill="none" stroke="black" d="M353.66,-40.04C368.12,-40.34 383.46,-40.66 398.23,-40.96"/>
<polygon fill="black" stroke="black" points="397.81,-44.45 407.88,-41.16 397.96,-37.46 397.81,-44.45"/>
</g>
<!-- screening_result&#45;&gt;conduct_interview -->
<g id="edge6" class="edge">
<title>screening_result&#45;&gt;conduct_interview</title>
<path fill="none" stroke="black" d="M546.83,-54.51C557.6,-56.41 568.87,-58.4 580,-60.36"/>
<polygon fill="black" stroke="black" points="579.12,-63.76 589.58,-62.04 580.34,-56.86 579.12,-63.76"/>
</g>
<!-- technical_result -->
<g id="node14" class="node">
<title>technical_result</title>
<g id="a_node14"><a xlink:title="技術課題提出物&#10;&#10;コーディング課題・設計課題の成果物&#10;owner: 応募者">
<polygon fill="#fff3cd" stroke="black" points="925.34,-168.4 788.54,-168.4 788.54,-126.8 925.34,-126.8 925.34,-168.4"/>
<text xml:space="preserve" text-anchor="middle" x="856.94" y="-151.8" font-family="Times,serif" font-size="14.00">technical_result</text>
<text xml:space="preserve" text-anchor="middle" x="856.94" y="-135" font-family="Times,serif" font-size="14.00">技術課題提出物</text>
</a>
</g>
<text xml:space="preserve" text-anchor="middle" x="778.04" y="-114.2" font-family="Times,serif" font-size="14.00">wip</text>
</g>
<!-- solve_assignment&#45;&gt;technical_result -->
<g id="edge10" class="edge">
<title>solve_assignment&#45;&gt;technical_result</title>
<path fill="none" stroke="black" d="M749.39,-150.44C758.51,-150.2 767.8,-149.95 776.9,-149.71"/>
<polygon fill="black" stroke="black" points="776.89,-153.21 786.79,-149.45 776.7,-146.21 776.89,-153.21"/>
</g>
<!-- technical_result&#45;&gt;evaluate_final -->
<g id="edge12" class="edge">
<title>technical_result&#45;&gt;evaluate_final</title>
<path fill="none" stroke="black" d="M925.53,-134.06C935.48,-132.07 945.75,-130.02 955.78,-128.01"/>
<polygon fill="black" stroke="black" points="956.36,-131.46 965.48,-126.06 954.99,-124.6 956.36,-131.46"/>
</g>
</g>
</svg>
