<?xml version="1.0" encoding="UTF-8" standalone="no"?>
<!DOCTYPE svg PUBLIC "-//W3C//DTD SVG 1.1//EN"
 "http://www.w3.org/Graphics/SVG/1.1/DTD/svg11.dtd">
<!-- Generated by graphviz version 15.1.0 (0)
 -->
<!-- Title: PFDSL Pages: 1 -->
<svg width="1931pt" height="209pt"
 viewBox="0.00 0.00 1931.00 209.00" xmlns="http://www.w3.org/2000/svg" xmlns:xlink="http://www.w3.org/1999/xlink">
<g id="graph0" class="graph" transform="scale(1 1) rotate(0) translate(4 205.21)">
<title>PFDSL</title>
<polygon fill="white" stroke="none" points="-4,4 -4,-205.21 1926.79,-205.21 1926.79,4 -4,4"/>
<text xml:space="preserve" text-anchor="middle" x="961.4" y="-184.61" font-family="Times,serif" font-size="14.00">本番障害対応フロー</text>
<!-- action_items -->
<g id="node1" class="node">
<title>action_items</title>
<g id="a_node1"><a xlink:title="改善アクションリスト&#10;&#10;ポストモーテムで合意した再発防止アクションの一覧&#10;owner: Engineering Manager">
<polygon fill="none" stroke="black" points="1548.3,-121.8 1397.1,-121.8 1397.1,-63.4 1548.3,-63.4 1548.3,-121.8"/>
<text xml:space="preserve" text-anchor="middle" x="1472.7" y="-105.2" font-family="Times,serif" font-size="14.00">action_items</text>
<text xml:space="preserve" text-anchor="middle" x="1472.7" y="-88.4" font-family="Times,serif" font-size="14.00">改善アクションリス</text>
<text xml:space="preserve" text-anchor="middle" x="1472.7" y="-71.6" font-family="Times,serif" font-size="14.00">ト</text>
</a>
</g>
</g>
<!-- update_runbook -->
<g id="node14" class="node">
<title>update_runbook</title>
<g id="a_node14"><a xlink:title="ランブック更新&#10;&#10;ポストモーテムの知見を反映し次回対応手順を改善する&#10;owner: SRE">
<ellipse fill="none" stroke="black" cx="1659.95" cy="-58.6" rx="75.65" ry="29.42"/>
<text xml:space="preserve" text-anchor="middle" x="1659.95" y="-62.8" font-family="Times,serif" font-size="14.00">update_runbook</text>
<text xml:space="preserve" text-anchor="middle" x="1659.95" y="-46" font-family="Times,serif" font-size="14.00">ランブック更新</text>
</a>
</g>
</g>
<!-- action_items&#45;&gt;update_runbook -->
<g id="edge16" class="edge">
<title>action_items&#45;&gt;update_runbook</title>
<path fill="none" stroke="black" d="M1548.78,-78.82C1559.02,-76.94 1569.55,-75.01 1579.86,-73.12"/>
<polygon fill="black" stroke="black" points="1580.24,-76.61 1589.44,-71.36 1578.97,-69.72 1580.24,-76.61"/>
</g>
<!-- alert -->
<g id="node2" class="node">
<title>alert</title>
<g id="a_node2"><a xlink:title="監視アラート&#10;&#10;監視システムが検知した異常の通知&#10;owner: SRE">
<polygon fill="#d4edda" stroke="black" stroke-width="2" points="135.21,-58.4 27.21,-58.4 27.21,-16.8 135.21,-16.8 135.21,-58.4"/>
<text xml:space="preserve" text-anchor="middle" x="81.21" y="-41.8" font-family="Times,serif" font-size="14.00">alert</text>
<text xml:space="preserve" text-anchor="middle" x="81.21" y="-25" font-family="Times,serif" font-size="14.00">監視アラート</text>
</a>
</g>
<text xml:space="preserve" text-anchor="middle" x="13.61" y="-4.2" font-family="Times,serif" font-size="14.00">done</text>
</g>
<!-- triage -->
<g id="node12" class="node">
<title>triage</title>
<g id="a_node12"><a xlink:title="トリアージ&#10;&#10;アラートを受け影響範囲と重大度を判断し対応を開始する&#10;owner: 当直 SRE">
<ellipse fill="none" stroke="black" cx="219.65" cy="-37.6" rx="48.44" ry="29.42"/>
<text xml:space="preserve" text-anchor="middle" x="219.65" y="-41.8" font-family="Times,serif" font-size="14.00">triage</text>
<text xml:space="preserve" text-anchor="middle" x="219.65" y="-25" font-family="Times,serif" font-size="14.00">トリアージ</text>
</a>
</g>
</g>
<!-- alert&#45;&gt;triage -->
<g id="edge1" class="edge">
<title>alert&#45;&gt;triage</title>
<path fill="none" stroke="black" d="M136.14,-37.6C143.84,-37.6 151.81,-37.6 159.6,-37.6"/>
<polygon fill="black" stroke="black" points="159.35,-41.1 169.35,-37.6 159.35,-34.1 159.35,-41.1"/>
</g>
<!-- apply_mitigation -->
<g id="node3" class="node">
<title>apply_mitigation</title>
<g id="a_node3"><a xlink:title="応急対応&#10;&#10;ロールバックや迂回経路切り替えでサービスを早期復旧する&#10;owner: SRE">
<ellipse fill="none" stroke="black" cx="541.44" cy="-66.6" rx="78.95" ry="29.42"/>
<text xml:space="preserve" text-anchor="middle" x="541.44" y="-70.8" font-family="Times,serif" font-size="14.00">apply_mitigation</text>
<text xml:space="preserve" text-anchor="middle" x="541.44" y="-54" font-family="Times,serif" font-size="14.00">応急対応</text>
</a>
</g>
</g>
<!-- mitigation_record -->
<g id="node6" class="node">
<title>mitigation_record</title>
<g id="a_node6"><a xlink:title="暫定対応記録&#10;&#10;実施した応急処置（ロールバック・切り替え等）の内容と結果の記録&#10;owner: SRE">
<polygon fill="none" stroke="black" points="800.39,-139.4 656.39,-139.4 656.39,-97.8 800.39,-97.8 800.39,-139.4"/>
<text xml:space="preserve" text-anchor="middle" x="728.39" y="-122.8" font-family="Times,serif" font-size="14.00">mitigation_record</text>
<text xml:space="preserve" text-anchor="middle" x="728.39" y="-106" font-family="Times,serif" font-size="14.00">暫定対応記録</text>
</a>
</g>
</g>
<!-- apply_mitigation&#45;&gt;mitigation_record -->
<g id="edge4" class="edge">
<title>apply_mitigation&#45;&gt;mitigation_record</title>
<path fill="none" stroke="black" d="M605.31,-84.28C618.2,-87.9 631.95,-91.77 645.4,-95.55"/>
<polygon fill="black" stroke="black" points="644.07,-98.81 654.64,-98.15 645.97,-92.07 644.07,-98.81"/>
</g>
<!-- service_restored -->
<g id="node10" class="node">
<title>service_restored</title>
<g id="a_node10"><a xlink:title="サービス復旧確認&#10;&#10;サービスが正常動作に戻ったことを示す確認記録&#10;owner: SRE">
<polygon fill="none" stroke="black" points="796.79,-79.4 659.99,-79.4 659.99,-37.8 796.79,-37.8 796.79,-79.4"/>
<text xml:space="preserve" text-anchor="middle" x="728.39" y="-62.8" font-family="Times,serif" font-size="14.00">service_restored</text>
<text xml:space="preserve" text-anchor="middle" x="728.39" y="-46" font-family="Times,serif" font-size="14.00">サービス復旧確認</text>
</a>
</g>
</g>
<!-- apply_mitigation&#45;&gt;service_restored -->
<g id="edge5" class="edge">
<title>apply_mitigation&#45;&gt;service_restored</title>
<path fill="none" stroke="black" d="M620.34,-63.23C629.6,-62.83 639.07,-62.42 648.35,-62.02"/>
<polygon fill="black" stroke="black" points="648.2,-65.53 658.04,-61.6 647.9,-58.54 648.2,-65.53"/>
</g>
<!-- conduct_postmortem -->
<g id="node4" class="node">
<title>conduct_postmortem</title>
<g id="a_node4"><a xlink:title="ポストモーテム実施&#10;&#10;関係者が集まりタイムラインを確認し再発防止策を合意する&#10;owner: Engineering Manager">
<ellipse fill="none" stroke="black" cx="1266.21" cy="-58.6" rx="94.89" ry="29.42"/>
<text xml:space="preserve" text-anchor="middle" x="1266.21" y="-62.8" font-family="Times,serif" font-size="14.00">conduct_postmortem</text>
<text xml:space="preserve" text-anchor="middle" x="1266.21" y="-46" font-family="Times,serif" font-size="14.00">ポストモーテム実施</text>
</a>
</g>
</g>
<!-- conduct_postmortem&#45;&gt;action_items -->
<g id="edge14" class="edge">
<title>conduct_postmortem&#45;&gt;action_items</title>
<path fill="none" stroke="black" d="M1350.68,-72.48C1362.23,-74.4 1374.11,-76.37 1385.7,-78.3"/>
<polygon fill="black" stroke="black" points="1384.78,-81.7 1395.22,-79.88 1385.93,-74.79 1384.78,-81.7"/>
</g>
<!-- postmortem_doc -->
<g id="node7" class="node">
<title>postmortem_doc</title>
<g id="a_node7"><a xlink:title="ポストモーテム文書&#10;&#10;原因・影響・対応経緯・再発防止策を記載した公式記録&#10;owner: Engineering Manager">
<polygon fill="none" stroke="black" points="1548.3,-45.4 1397.1,-45.4 1397.1,-3.8 1548.3,-3.8 1548.3,-45.4"/>
<text xml:space="preserve" text-anchor="middle" x="1472.7" y="-28.8" font-family="Times,serif" font-size="14.00">postmortem_doc</text>
<text xml:space="preserve" text-anchor="middle" x="1472.7" y="-12" font-family="Times,serif" font-size="14.00">ポストモーテム文書</text>
</a>
</g>
</g>
<!-- conduct_postmortem&#45;&gt;postmortem_doc -->
<g id="edge13" class="edge">
<title>conduct_postmortem&#45;&gt;postmortem_doc</title>
<path fill="none" stroke="black" d="M1350.68,-44.72C1362.23,-42.8 1374.11,-40.83 1385.7,-38.9"/>
<polygon fill="black" stroke="black" points="1385.93,-42.41 1395.22,-37.32 1384.78,-35.5 1385.93,-42.41"/>
</g>
<!-- investigate -->
<g id="node5" class="node">
<title>investigate</title>
<g id="a_node5"><a xlink:title="根本原因調査&#10;&#10;ログ・メトリクス・コードを精査し障害の根本原因を特定する&#10;owner: 担当エンジニア">
<ellipse fill="none" stroke="black" cx="892.25" cy="-58.6" rx="55.86" ry="29.42"/>
<text xml:space="preserve" text-anchor="middle" x="892.25" y="-62.8" font-family="Times,serif" font-size="14.00">investigate</text>
<text xml:space="preserve" text-anchor="middle" x="892.25" y="-46" font-family="Times,serif" font-size="14.00">根本原因調査</text>
</a>
</g>
</g>
<!-- rca_draft -->
<g id="node8" class="node">
<title>rca_draft</title>
<g id="a_node8"><a xlink:title="根本原因分析（草稿）&#10;&#10;障害の技術的原因を特定した調査記録&#10;owner: 担当エンジニア">
<polygon fill="none" stroke="black" points="1135.31,-121.8 984.11,-121.8 984.11,-63.4 1135.31,-63.4 1135.31,-121.8"/>
<text xml:space="preserve" text-anchor="middle" x="1059.71" y="-105.2" font-family="Times,serif" font-size="14.00">rca_draft</text>
<text xml:space="preserve" text-anchor="middle" x="1059.71" y="-88.4" font-family="Times,serif" font-size="14.00">根本原因分析（草稿</text>
<text xml:space="preserve" text-anchor="middle" x="1059.71" y="-71.6" font-family="Times,serif" font-size="14.00">）</text>
</a>
</g>
</g>
<!-- investigate&#45;&gt;rca_draft -->
<g id="edge9" class="edge">
<title>investigate&#45;&gt;rca_draft</title>
<path fill="none" stroke="black" d="M944.7,-69.17C953.63,-71.01 963.13,-72.96 972.7,-74.92"/>
<polygon fill="black" stroke="black" points="971.93,-78.34 982.43,-76.93 973.34,-71.48 971.93,-78.34"/>
</g>
<!-- timeline -->
<g id="node11" class="node">
<title>timeline</title>
<g id="a_node11"><a xlink:title="障害タイムライン&#10;&#10;検知から復旧までのイベントを時系列で記録した文書&#10;owner: 当直 SRE">
<polygon fill="none" stroke="black" points="1128.11,-45.4 991.31,-45.4 991.31,-3.8 1128.11,-3.8 1128.11,-45.4"/>
<text xml:space="preserve" text-anchor="middle" x="1059.71" y="-28.8" font-family="Times,serif" font-size="14.00">timeline</text>
<text xml:space="preserve" text-anchor="middle" x="1059.71" y="-12" font-family="Times,serif" font-size="14.00">障害タイムライン</text>
</a>
</g>
</g>
<!-- investigate&#45;&gt;timeline -->
<g id="edge10" class="edge">
<title>investigate&#45;&gt;timeline</title>
<path fill="none" stroke="black" d="M944.7,-48.03C955.88,-45.73 967.96,-43.25 979.93,-40.79"/>
<polygon fill="black" stroke="black" points="980.29,-44.29 989.38,-38.85 978.88,-37.43 980.29,-44.29"/>
</g>
<!-- mitigation_record&#45;&gt;investigate -->
<g id="edge8" class="edge">
<title>mitigation_record&#45;&gt;investigate</title>
<path fill="none" stroke="black" d="M786.46,-97.45C802.28,-91.58 819.45,-85.22 835.21,-79.37"/>
<polygon fill="black" stroke="black" points="836.29,-82.71 844.45,-75.95 833.86,-76.14 836.29,-82.71"/>
</g>
<!-- postmortem_doc&#45;&gt;update_runbook -->
<g id="edge15" class="edge">
<title>postmortem_doc&#45;&gt;update_runbook</title>
<path fill="none" stroke="black" d="M1548.78,-38.38C1559.02,-40.26 1569.55,-42.19 1579.86,-44.08"/>
<polygon fill="black" stroke="black" points="1578.97,-47.48 1589.44,-45.84 1580.24,-40.59 1578.97,-47.48"/>
</g>
<!-- rca_draft&#45;&gt;conduct_postmortem -->
<g id="edge11" class="edge">
<title>rca_draft&#45;&gt;conduct_postmortem</title>
<path fill="none" stroke="black" d="M1135.7,-80.13C1147.1,-78.24 1158.99,-76.26 1170.75,-74.31"/>
<polygon fill="black" stroke="black" points="1171.17,-77.78 1180.46,-72.69 1170.02,-70.88 1171.17,-77.78"/>
</g>
<!-- runbook -->
<g id="node9" class="node">
<title>runbook</title>
<g id="a_node9"><a xlink:title="ランブック（更新版）&#10;&#10;今回の知見を反映した障害対応手順書&#10;owner: SRE">
<polygon fill="none" stroke="black" stroke-width="2" points="1922.79,-87.8 1771.59,-87.8 1771.59,-29.4 1922.79,-29.4 1922.79,-87.8"/>
<text xml:space="preserve" text-anchor="middle" x="1847.19" y="-71.2" font-family="Times,serif" font-size="14.00">runbook</text>
<text xml:space="preserve" text-anchor="middle" x="1847.19" y="-54.4" font-family="Times,serif" font-size="14.00">ランブック（更新版</text>
<text xml:space="preserve" text-anchor="middle" x="1847.19" y="-37.6" font-family="Times,serif" font-size="14.00">）</text>
</a>
</g>
</g>
<!-- runbook&#45;&gt;triage -->
<g id="edge18" class="edge">
<title>runbook&#45;&gt;triage</title>
<path fill="none" stroke="#888888" stroke-dasharray="5,2" d="M1770.8,-86.2C1759.1,-89.99 1747.09,-93.6 1735.59,-96.6 1653.73,-117.96 1632.47,-122 1548.3,-130.6 797.36,-207.33 832.09,-168.28 656.39,-148.6 496.73,-130.71 458.17,-113.13 304.09,-67.6 293.57,-64.49 282.44,-60.79 271.86,-57.07"/>
<polygon fill="#888888" stroke="#888888" points="273.1,-53.79 262.5,-53.71 270.74,-60.38 273.1,-53.79"/>
</g>
<!-- service_restored&#45;&gt;investigate -->
<g id="edge7" class="edge">
<title>service_restored&#45;&gt;investigate</title>
<path fill="none" stroke="black" d="M797.1,-58.6C806.23,-58.6 815.6,-58.6 824.72,-58.6"/>
<polygon fill="black" stroke="black" points="824.58,-62.1 834.58,-58.6 824.58,-55.1 824.58,-62.1"/>
</g>
<!-- timeline&#45;&gt;conduct_postmortem -->
<g id="edge12" class="edge">
<title>timeline&#45;&gt;conduct_postmortem</title>
<path fill="none" stroke="black" d="M1128.52,-35.87C1142.01,-38.12 1156.4,-40.51 1170.59,-42.87"/>
<polygon fill="black" stroke="black" points="1169.98,-46.32 1180.42,-44.5 1171.13,-39.41 1169.98,-46.32"/>
</g>
<!-- triage_record -->
<g id="node13" class="node">
<title>triage_record</title>
<g id="a_node13"><a xlink:title="トリアージ記録&#10;&#10;影響範囲・重大度・対応優先度を記録した初動判断メモ&#10;owner: 当直 SRE">
<polygon fill="#d4edda" stroke="black" points="426.49,-58.4 304.09,-58.4 304.09,-16.8 426.49,-16.8 426.49,-58.4"/>
<text xml:space="preserve" text-anchor="middle" x="365.29" y="-41.8" font-family="Times,serif" font-size="14.00">triage_record</text>
<text xml:space="preserve" text-anchor="middle" x="365.29" y="-25" font-family="Times,serif" font-size="14.00">トリアージ記録</text>
</a>
</g>
<text xml:space="preserve" text-anchor="middle" x="290.48" y="-4.2" font-family="Times,serif" font-size="14.00">done</text>
</g>
<!-- triage&#45;&gt;triage_record -->
<g id="edge2" class="edge">
<title>triage&#45;&gt;triage_record</title>
<path fill="none" stroke="black" d="M268.48,-37.6C276.13,-37.6 284.2,-37.6 292.27,-37.6"/>
<polygon fill="black" stroke="black" points="292.12,-41.1 302.12,-37.6 292.12,-34.1 292.12,-41.1"/>
</g>
<!-- triage_record&#45;&gt;apply_mitigation -->
<g id="edge3" class="edge">
<title>triage_record&#45;&gt;apply_mitigation</title>
<path fill="none" stroke="black" d="M426.71,-47.66C436.66,-49.32 447.14,-51.06 457.53,-52.79"/>
<polygon fill="black" stroke="black" points="456.81,-56.22 467.25,-54.41 457.96,-49.32 456.81,-56.22"/>
</g>
<!-- triage_record&#45;&gt;investigate -->
<g id="edge6" class="edge">
<title>triage_record&#45;&gt;investigate</title>
<path fill="none" stroke="black" d="M426.8,-29.55C511.12,-19.86 668.47,-7.39 800.39,-28.6 812.2,-30.5 824.55,-33.7 836.21,-37.33"/>
<polygon fill="black" stroke="black" points="835.1,-40.65 845.69,-40.43 837.28,-33.99 835.1,-40.65"/>
</g>
<!-- update_runbook&#45;&gt;runbook -->
<g id="edge17" class="edge">
<title>update_runbook&#45;&gt;runbook</title>
<path fill="none" stroke="black" d="M1736.03,-58.6C1743.71,-58.6 1751.56,-58.6 1759.35,-58.6"/>
<polygon fill="black" stroke="black" points="1759.19,-62.1 1769.19,-58.6 1759.19,-55.1 1759.19,-62.1"/>
</g>
</g>
</svg>
