<?xml version="1.0" encoding="UTF-8" standalone="no"?>
<!DOCTYPE svg PUBLIC "-//W3C//DTD SVG 1.1//EN"
 "http://www.w3.org/Graphics/SVG/1.1/DTD/svg11.dtd">
<!-- Generated by graphviz version 15.1.0 (0)
 -->
<!-- Title: PFDSL Pages: 1 -->
<svg width="2030pt" height="238pt"
 viewBox="0.00 0.00 2030.00 238.00" xmlns="http://www.w3.org/2000/svg" xmlns:xlink="http://www.w3.org/1999/xlink">
<g id="graph0" class="graph" transform="scale(1 1) rotate(0) translate(4 234.4)">
<title>PFDSL</title>
<polygon fill="white" stroke="none" points="-4,4 -4,-234.4 2026.46,-234.4 2026.46,4 -4,4"/>
<text xml:space="preserve" text-anchor="middle" x="1011.23" y="-213.8" font-family="Times,serif" font-size="14.00">OSS 脆弱性 Coordinated Disclosure フロー</text>
<g id="clust1" class="cluster">
<title>cluster_private</title>
<polygon fill="#fdf2f8" stroke="#b1a9ae" points="19.21,-8.6 19.21,-184.6 1634.99,-184.6 1634.99,-8.6 19.21,-8.6"/>
<text xml:space="preserve" text-anchor="middle" x="827.1" y="-168" font-family="Times,serif" font-size="14.00">非公開フェーズ（Embargo）</text>
</g>
<g id="clust2" class="cluster">
<title>cluster_public</title>
<polygon fill="#eafaf1" stroke="#a4afa9" points="1654.99,-38.6 1654.99,-197.6 2014.46,-197.6 2014.46,-38.6 1654.99,-38.6"/>
<text xml:space="preserve" text-anchor="middle" x="1834.73" y="-181" font-family="Times,serif" font-size="14.00">公開フェーズ</text>
</g>
<!-- base_code -->
<g id="node1" class="node">
<title>base_code</title>
<g id="a_node1"><a xlink:title="ベースコード&#10;&#10;脆弱性が存在する公開リポジトリのソースコード&#10;owner: 開発チーム">
<polygon fill="#d4edda" stroke="black" stroke-width="2" points="521.44,-58.4 413.44,-58.4 413.44,-16.8 521.44,-16.8 521.44,-58.4"/>
<text xml:space="preserve" text-anchor="middle" x="467.44" y="-41.8" font-family="Times,serif" font-size="14.00">base_code</text>
<text xml:space="preserve" text-anchor="middle" x="467.44" y="-25" font-family="Times,serif" font-size="14.00">ベースコード</text>
</a>
</g>
<text xml:space="preserve" text-anchor="middle" x="399.83" y="-4.2" font-family="Times,serif" font-size="14.00">done</text>
</g>
<!-- develop_fix -->
<g id="node4" class="node">
<title>develop_fix</title>
<g id="a_node4"><a xlink:title="修正開発&#10;&#10;非公開ブランチで脆弱性を修正するコードを開発しテストする&#10;owner: 開発チーム">
<ellipse fill="none" stroke="black" cx="623.23" cy="-45.6" rx="58.6" ry="29.42"/>
<text xml:space="preserve" text-anchor="middle" x="623.23" y="-49.8" font-family="Times,serif" font-size="14.00">develop_fix</text>
<text xml:space="preserve" text-anchor="middle" x="623.23" y="-33" font-family="Times,serif" font-size="14.00">修正開発</text>
</a>
</g>
</g>
<!-- base_code&#45;&gt;develop_fix -->
<g id="edge7" class="edge">
<title>base_code&#45;&gt;develop_fix</title>
<path fill="none" stroke="black" d="M522.23,-40.4C532.28,-40.92 542.91,-41.47 553.34,-42.02"/>
<polygon fill="black" stroke="black" points="552.87,-45.5 563.04,-42.52 553.23,-38.51 552.87,-45.5"/>
</g>
<!-- coordinate_disclosure -->
<g id="node2" class="node">
<title>coordinate_disclosure</title>
<g id="a_node2"><a xlink:title="公開調整&#10;&#10;公開日を設定しディストリビュータ・下流パッケージ管理者と事前共有して公開調整計画を作成する&#10;owner: セキュリティ担当">
<ellipse fill="none" stroke="black" cx="1363.21" cy="-110.6" rx="98.18" ry="29.42"/>
<text xml:space="preserve" text-anchor="middle" x="1363.21" y="-114.8" font-family="Times,serif" font-size="14.00">coordinate_disclosure</text>
<text xml:space="preserve" text-anchor="middle" x="1363.21" y="-98" font-family="Times,serif" font-size="14.00">公開調整</text>
</a>
</g>
</g>
<!-- disclosure_plan -->
<g id="node5" class="node">
<title>disclosure_plan</title>
<g id="a_node5"><a xlink:title="公開調整計画&#10;&#10;公開日・連携先（ディストリビュータ・下流パッケージ）・通知スケジュールを記載した計画書&#10;owner: セキュリティ担当">
<polygon fill="none" stroke="black" points="1626.99,-127.4 1497.39,-127.4 1497.39,-85.8 1626.99,-85.8 1626.99,-127.4"/>
<text xml:space="preserve" text-anchor="middle" x="1562.19" y="-110.8" font-family="Times,serif" font-size="14.00">disclosure_plan</text>
<text xml:space="preserve" text-anchor="middle" x="1562.19" y="-94" font-family="Times,serif" font-size="14.00">公開調整計画</text>
</a>
</g>
</g>
<!-- coordinate_disclosure&#45;&gt;disclosure_plan -->
<g id="edge13" class="edge">
<title>coordinate_disclosure&#45;&gt;disclosure_plan</title>
<path fill="none" stroke="black" d="M1461.55,-108.62C1469.62,-108.46 1477.71,-108.3 1485.59,-108.14"/>
<polygon fill="black" stroke="black" points="1485.52,-111.64 1495.44,-107.94 1485.37,-104.64 1485.52,-111.64"/>
</g>
<!-- cveid -->
<g id="node3" class="node">
<title>cveid</title>
<g id="a_node3"><a xlink:title="予約済み CVE ID&#10;&#10;MITRE/NVD から払い出した CVE 識別子&#10;owner: セキュリティ担当">
<polygon fill="none" stroke="black" points="1034.63,-140.4 905.03,-140.4 905.03,-98.8 1034.63,-98.8 1034.63,-140.4"/>
<text xml:space="preserve" text-anchor="middle" x="969.83" y="-123.8" font-family="Times,serif" font-size="14.00">cveid</text>
<text xml:space="preserve" text-anchor="middle" x="969.83" y="-107" font-family="Times,serif" font-size="14.00">予約済み CVE ID</text>
</a>
</g>
</g>
<!-- cveid&#45;&gt;coordinate_disclosure -->
<g id="edge12" class="edge">
<title>cveid&#45;&gt;coordinate_disclosure</title>
<path fill="none" stroke="black" d="M1035.02,-118.12C1094.31,-116.76 1183.56,-114.71 1253.88,-113.09"/>
<polygon fill="black" stroke="black" points="1253.56,-116.6 1263.48,-112.87 1253.4,-109.6 1253.56,-116.6"/>
</g>
<!-- fix_patch -->
<g id="node6" class="node">
<title>fix_patch</title>
<g id="a_node6"><a xlink:title="修正パッチ（非公開）&#10;&#10;非公開ブランチで開発・テスト済みの脆弱性修正コード&#10;owner: 開発チーム">
<polygon fill="none" stroke="black" points="869.03,-78.8 717.83,-78.8 717.83,-20.4 869.03,-20.4 869.03,-78.8"/>
<text xml:space="preserve" text-anchor="middle" x="793.43" y="-62.2" font-family="Times,serif" font-size="14.00">fix_patch</text>
<text xml:space="preserve" text-anchor="middle" x="793.43" y="-45.4" font-family="Times,serif" font-size="14.00">修正パッチ（非公開</text>
<text xml:space="preserve" text-anchor="middle" x="793.43" y="-28.6" font-family="Times,serif" font-size="14.00">）</text>
</a>
</g>
</g>
<!-- develop_fix&#45;&gt;fix_patch -->
<g id="edge8" class="edge">
<title>develop_fix&#45;&gt;fix_patch</title>
<path fill="none" stroke="black" d="M682.12,-46.98C689.87,-47.16 697.95,-47.35 706.06,-47.55"/>
<polygon fill="black" stroke="black" points="705.91,-51.04 715.99,-47.78 706.08,-44.05 705.91,-51.04"/>
</g>
<!-- publish_fix -->
<g id="node14" class="node">
<title>publish_fix</title>
<g id="a_node14"><a xlink:title="修正版・アドバイザリ公開&#10;&#10;調整した公開日に修正済みリリースとセキュリティアドバイザリを同時公開する&#10;owner: リリースマネージャー">
<ellipse fill="none" stroke="black" cx="1741.13" cy="-97.6" rx="78.14" ry="41.3"/>
<text xml:space="preserve" text-anchor="middle" x="1741.13" y="-110.2" font-family="Times,serif" font-size="14.00">publish_fix</text>
<text xml:space="preserve" text-anchor="middle" x="1741.13" y="-93.4" font-family="Times,serif" font-size="14.00">修正版・アドバイザ</text>
<text xml:space="preserve" text-anchor="middle" x="1741.13" y="-76.6" font-family="Times,serif" font-size="14.00">リ公開</text>
</a>
</g>
</g>
<!-- disclosure_plan&#45;&gt;publish_fix -->
<g id="edge15" class="edge">
<title>disclosure_plan&#45;&gt;publish_fix</title>
<path fill="none" stroke="black" d="M1627.32,-103.34C1635.18,-102.94 1643.33,-102.52 1651.47,-102.11"/>
<polygon fill="black" stroke="black" points="1651.64,-105.61 1661.45,-101.6 1651.28,-98.61 1651.64,-105.61"/>
</g>
<!-- review_patch -->
<g id="node9" class="node">
<title>review_patch</title>
<g id="a_node9"><a xlink:title="パッチレビュー&#10;&#10;修正パッチをセキュリティ観点でレビューし承認する&#10;owner: セキュリティ担当">
<ellipse fill="none" stroke="black" cx="969.83" cy="-49.6" rx="64.63" ry="29.42"/>
<text xml:space="preserve" text-anchor="middle" x="969.83" y="-53.8" font-family="Times,serif" font-size="14.00">review_patch</text>
<text xml:space="preserve" text-anchor="middle" x="969.83" y="-37" font-family="Times,serif" font-size="14.00">パッチレビュー</text>
</a>
</g>
</g>
<!-- fix_patch&#45;&gt;review_patch -->
<g id="edge9" class="edge">
<title>fix_patch&#45;&gt;review_patch</title>
<path fill="none" stroke="black" d="M869.4,-49.6C877.44,-49.6 885.61,-49.6 893.64,-49.6"/>
<polygon fill="black" stroke="black" points="893.37,-53.1 903.37,-49.6 893.37,-46.1 893.37,-53.1"/>
</g>
<!-- patch_review_record -->
<g id="node7" class="node">
<title>patch_review_record</title>
<g id="a_node7"><a xlink:title="パッチレビュー記録&#10;&#10;セキュリティ観点のコードレビューと承認記録&#10;owner: セキュリティ担当">
<polygon fill="none" stroke="black" points="1229.03,-74.4 1070.63,-74.4 1070.63,-32.8 1229.03,-32.8 1229.03,-74.4"/>
<text xml:space="preserve" text-anchor="middle" x="1149.83" y="-57.8" font-family="Times,serif" font-size="14.00">patch_review_record</text>
<text xml:space="preserve" text-anchor="middle" x="1149.83" y="-41" font-family="Times,serif" font-size="14.00">パッチレビュー記録</text>
</a>
</g>
</g>
<!-- patch_review_record&#45;&gt;coordinate_disclosure -->
<g id="edge11" class="edge">
<title>patch_review_record&#45;&gt;coordinate_disclosure</title>
<path fill="none" stroke="black" d="M1229.24,-74.74C1245.18,-79.04 1262.01,-83.58 1278.14,-87.93"/>
<polygon fill="black" stroke="black" points="1277.15,-91.29 1287.72,-90.51 1278.97,-84.53 1277.15,-91.29"/>
</g>
<!-- patch_review_record&#45;&gt;publish_fix -->
<g id="edge14" class="edge">
<title>patch_review_record&#45;&gt;publish_fix</title>
<path fill="none" stroke="black" d="M1229.12,-53.73C1325.11,-54.71 1492.59,-59.1 1634.99,-76.6 1642.23,-77.49 1649.71,-78.6 1657.2,-79.84"/>
<polygon fill="black" stroke="black" points="1656.59,-83.29 1667.04,-81.55 1657.79,-76.39 1656.59,-83.29"/>
</g>
<!-- reserve_cve -->
<g id="node8" class="node">
<title>reserve_cve</title>
<g id="a_node8"><a xlink:title="CVE 予約&#10;&#10;MITRE に連絡し CVE ID を非公開状態で予約する&#10;owner: セキュリティ担当">
<ellipse fill="none" stroke="black" cx="623.23" cy="-122.6" rx="58.58" ry="29.42"/>
<text xml:space="preserve" text-anchor="middle" x="623.23" y="-126.8" font-family="Times,serif" font-size="14.00">reserve_cve</text>
<text xml:space="preserve" text-anchor="middle" x="623.23" y="-110" font-family="Times,serif" font-size="14.00">CVE 予約</text>
</a>
</g>
</g>
<!-- reserve_cve&#45;&gt;cveid -->
<g id="edge4" class="edge">
<title>reserve_cve&#45;&gt;cveid</title>
<path fill="none" stroke="black" d="M682.3,-122.09C740.38,-121.59 829.99,-120.81 893.51,-120.26"/>
<polygon fill="black" stroke="black" points="893.18,-123.76 903.15,-120.17 893.12,-116.76 893.18,-123.76"/>
</g>
<!-- review_patch&#45;&gt;patch_review_record -->
<g id="edge10" class="edge">
<title>review_patch&#45;&gt;patch_review_record</title>
<path fill="none" stroke="black" d="M1034.84,-51.04C1042.63,-51.21 1050.7,-51.39 1058.78,-51.58"/>
<polygon fill="black" stroke="black" points="1058.59,-55.07 1068.67,-51.8 1058.75,-48.07 1058.59,-55.07"/>
</g>
<!-- triage_result -->
<g id="node10" class="node">
<title>triage_result</title>
<g id="a_node10"><a xlink:title="トリアージ結果&#10;&#10;影響範囲・深刻度（CVSS）・影響バージョンを評価した記録&#10;owner: セキュリティ担当">
<polygon fill="#d4edda" stroke="black" points="528.64,-143.4 406.24,-143.4 406.24,-101.8 528.64,-101.8 528.64,-143.4"/>
<text xml:space="preserve" text-anchor="middle" x="467.44" y="-126.8" font-family="Times,serif" font-size="14.00">triage_result</text>
<text xml:space="preserve" text-anchor="middle" x="467.44" y="-110" font-family="Times,serif" font-size="14.00">トリアージ結果</text>
</a>
</g>
<text xml:space="preserve" text-anchor="middle" x="392.63" y="-89.2" font-family="Times,serif" font-size="14.00">done</text>
</g>
<!-- triage_result&#45;&gt;develop_fix -->
<g id="edge5" class="edge">
<title>triage_result&#45;&gt;develop_fix</title>
<path fill="none" stroke="black" d="M510.87,-101.36C529.33,-92.11 551.14,-81.19 570.54,-71.48"/>
<polygon fill="black" stroke="black" points="572.01,-74.66 579.38,-67.05 568.87,-68.4 572.01,-74.66"/>
</g>
<!-- triage_result&#45;&gt;reserve_cve -->
<g id="edge3" class="edge">
<title>triage_result&#45;&gt;reserve_cve</title>
<path fill="none" stroke="black" d="M528.78,-122.6C536.73,-122.6 544.93,-122.6 553.01,-122.6"/>
<polygon fill="black" stroke="black" points="552.81,-126.1 562.81,-122.6 552.81,-119.1 552.81,-126.1"/>
</g>
<!-- triage_vuln -->
<g id="node11" class="node">
<title>triage_vuln</title>
<g id="a_node11"><a xlink:title="脆弱性トリアージ&#10;&#10;報告を検証し影響範囲と深刻度を評価してトリアージ結果を作成する&#10;owner: セキュリティ担当">
<ellipse fill="none" stroke="black" cx="299.52" cy="-122.6" rx="70.71" ry="29.42"/>
<text xml:space="preserve" text-anchor="middle" x="299.52" y="-126.8" font-family="Times,serif" font-size="14.00">triage_vuln</text>
<text xml:space="preserve" text-anchor="middle" x="299.52" y="-110" font-family="Times,serif" font-size="14.00">脆弱性トリアージ</text>
</a>
</g>
</g>
<!-- triage_vuln&#45;&gt;triage_result -->
<g id="edge2" class="edge">
<title>triage_vuln&#45;&gt;triage_result</title>
<path fill="none" stroke="black" d="M370.4,-122.6C378.32,-122.6 386.39,-122.6 394.34,-122.6"/>
<polygon fill="black" stroke="black" points="394.33,-126.1 404.33,-122.6 394.33,-119.1 394.33,-126.1"/>
</g>
<!-- vulnerability_report -->
<g id="node12" class="node">
<title>vulnerability_report</title>
<g id="a_node12"><a xlink:title="脆弱性報告（非公開）&#10;&#10;外部研究者から受け取った脆弱性の詳細・再現手順・PoC&#10;owner: セキュリティ担当">
<polygon fill="#d4edda" stroke="black" stroke-width="2" points="192.81,-127.8 27.21,-127.8 27.21,-69.4 192.81,-69.4 192.81,-127.8"/>
<text xml:space="preserve" text-anchor="middle" x="110.01" y="-111.2" font-family="Times,serif" font-size="14.00">vulnerability_report</text>
<text xml:space="preserve" text-anchor="middle" x="110.01" y="-94.4" font-family="Times,serif" font-size="14.00">脆弱性報告（非公開</text>
<text xml:space="preserve" text-anchor="middle" x="110.01" y="-77.6" font-family="Times,serif" font-size="14.00">）</text>
</a>
</g>
<text xml:space="preserve" text-anchor="middle" x="13.61" y="-56.8" font-family="Times,serif" font-size="14.00">done</text>
</g>
<!-- vulnerability_report&#45;&gt;develop_fix -->
<g id="edge6" class="edge">
<title>vulnerability_report&#45;&gt;develop_fix</title>
<path fill="none" stroke="black" d="M193.65,-88.13C205.44,-86.82 217.43,-85.6 228.81,-84.6 361.77,-72.94 396.54,-86.72 528.64,-67.6 538.83,-66.12 549.54,-64.08 559.93,-61.83"/>
<polygon fill="black" stroke="black" points="560.58,-65.27 569.57,-59.66 559.05,-58.45 560.58,-65.27"/>
</g>
<!-- vulnerability_report&#45;&gt;triage_vuln -->
<g id="edge1" class="edge">
<title>vulnerability_report&#45;&gt;triage_vuln</title>
<path fill="none" stroke="black" d="M193.8,-109.2C202.54,-110.31 211.4,-111.45 220.08,-112.56"/>
<polygon fill="black" stroke="black" points="219.49,-116.01 229.86,-113.81 220.38,-109.07 219.49,-116.01"/>
</g>
<!-- fixed_release -->
<g id="node13" class="node">
<title>fixed_release</title>
<g id="a_node13"><a xlink:title="修正済みリリース&#10;&#10;パッチを含む正式リリース版（タグ・配布物）&#10;owner: リリースマネージャー">
<polygon fill="none" stroke="black" stroke-width="2" points="1999.26,-88.4 1862.46,-88.4 1862.46,-46.8 1999.26,-46.8 1999.26,-88.4"/>
<text xml:space="preserve" text-anchor="middle" x="1930.86" y="-71.8" font-family="Times,serif" font-size="14.00">fixed_release</text>
<text xml:space="preserve" text-anchor="middle" x="1930.86" y="-55" font-family="Times,serif" font-size="14.00">修正済みリリース</text>
</a>
</g>
</g>
<!-- publish_fix&#45;&gt;fixed_release -->
<g id="edge16" class="edge">
<title>publish_fix&#45;&gt;fixed_release</title>
<path fill="none" stroke="black" d="M1816.32,-85.74C1827.55,-83.95 1839.16,-82.09 1850.49,-80.28"/>
<polygon fill="black" stroke="black" points="1850.88,-83.77 1860.2,-78.73 1849.77,-76.85 1850.88,-83.77"/>
</g>
<!-- security_advisory -->
<g id="node15" class="node">
<title>security_advisory</title>
<g id="a_node15"><a xlink:title="セキュリティアドバイザリ&#10;&#10;CVE・影響バージョン・修正方法・回避策を記載した公開勧告文書&#10;owner: セキュリティ担当">
<polygon fill="none" stroke="black" stroke-width="2" points="2006.46,-164.8 1855.26,-164.8 1855.26,-106.4 2006.46,-106.4 2006.46,-164.8"/>
<text xml:space="preserve" text-anchor="middle" x="1930.86" y="-148.2" font-family="Times,serif" font-size="14.00">security_advisory</text>
<text xml:space="preserve" text-anchor="middle" x="1930.86" y="-131.4" font-family="Times,serif" font-size="14.00">セキュリティアドバ</text>
<text xml:space="preserve" text-anchor="middle" x="1930.86" y="-114.6" font-family="Times,serif" font-size="14.00">イザリ</text>
</a>
</g>
</g>
<!-- publish_fix&#45;&gt;security_advisory -->
<g id="edge17" class="edge">
<title>publish_fix&#45;&gt;security_advisory</title>
<path fill="none" stroke="black" d="M1814.71,-112.29C1824.05,-114.18 1833.7,-116.13 1843.24,-118.07"/>
<polygon fill="black" stroke="black" points="1842.39,-121.47 1852.88,-120.02 1843.78,-114.6 1842.39,-121.47"/>
</g>
</g>
</svg>
