<?xml version="1.0" encoding="UTF-8" standalone="no"?>
<!DOCTYPE svg PUBLIC "-//W3C//DTD SVG 1.1//EN"
 "http://www.w3.org/Graphics/SVG/1.1/DTD/svg11.dtd">
<!-- Generated by graphviz version 15.0.0 (0)
 -->
<!-- Title: PFDSL Pages: 1 -->
<svg width="2192pt" height="385pt"
 viewBox="0.00 0.00 2192.00 385.00" xmlns="http://www.w3.org/2000/svg" xmlns:xlink="http://www.w3.org/1999/xlink">
<g id="graph0" class="graph" transform="scale(1 1) rotate(0) translate(4 380.82)">
<title>PFDSL</title>
<polygon fill="white" stroke="none" points="-4,4 -4,-380.82 2188.29,-380.82 2188.29,4 -4,4"/>
<text xml:space="preserve" text-anchor="middle" x="1092.15" y="-360.22" font-family="Times,serif" font-size="14.00">Pipeline Scale Test Fixture</text>
<!-- adr_set -->
<g id="node1" class="node">
<title>adr_set</title>
<g id="a_node1"><a xlink:title="ADR Set&#10;&#10;Architectural decision records.&#10;criteria: decisions documented in docs/adr/&#10;location: docs/adr/">
<polygon fill="#d4edda" stroke="black" stroke-width="2" points="94.16,-189.4 27.21,-189.4 27.21,-147.8 94.16,-147.8 94.16,-189.4"/>
<text xml:space="preserve" text-anchor="middle" x="60.69" y="-172.8" font-family="Times,serif" font-size="14.00">adr_set</text>
<text xml:space="preserve" text-anchor="middle" x="60.69" y="-156" font-family="Times,serif" font-size="14.00">ADR Set</text>
</a>
</g>
<text xml:space="preserve" text-anchor="middle" x="13.61" y="-135.2" font-family="Times,serif" font-size="14.00">done</text>
</g>
<!-- draft_alpha -->
<g id="node7" class="node">
<title>draft_alpha</title>
<ellipse fill="none" stroke="black" cx="210.75" cy="-130.6" rx="80.59" ry="29.42"/>
<text xml:space="preserve" text-anchor="middle" x="210.75" y="-134.8" font-family="Times,serif" font-size="14.00">draft_alpha</text>
<text xml:space="preserve" text-anchor="middle" x="210.75" y="-118" font-family="Times,serif" font-size="14.00">Draft Alpha Spec</text>
</g>
<!-- adr_set&#45;&gt;draft_alpha -->
<g id="edge1" class="edge">
<title>adr_set&#45;&gt;draft_alpha</title>
<path fill="none" stroke="black" d="M94.92,-160.07C106.35,-157.14 119.68,-153.72 133.12,-150.27"/>
<polygon fill="black" stroke="black" points="133.61,-153.76 142.43,-147.88 131.87,-146.97 133.61,-153.76"/>
</g>
<!-- draft_beta -->
<g id="node8" class="node">
<title>draft_beta</title>
<ellipse fill="none" stroke="black" cx="210.75" cy="-284.6" rx="74.53" ry="29.42"/>
<text xml:space="preserve" text-anchor="middle" x="210.75" y="-288.8" font-family="Times,serif" font-size="14.00">draft_beta</text>
<text xml:space="preserve" text-anchor="middle" x="210.75" y="-272" font-family="Times,serif" font-size="14.00">Draft Beta Spec</text>
</g>
<!-- adr_set&#45;&gt;draft_beta -->
<g id="edge3" class="edge">
<title>adr_set&#45;&gt;draft_beta</title>
<path fill="none" stroke="black" d="M77.23,-190.28C90.02,-206.98 109.37,-229.8 130.16,-245.6 136.01,-250.04 142.44,-254.18 149.03,-257.98"/>
<polygon fill="black" stroke="black" points="146.98,-260.85 157.43,-262.57 150.33,-254.7 146.98,-260.85"/>
</g>
<!-- write_article -->
<g id="node28" class="node">
<title>write_article</title>
<ellipse fill="none" stroke="black" cx="210.75" cy="-53.6" rx="63.81" ry="29.42"/>
<text xml:space="preserve" text-anchor="middle" x="210.75" y="-57.8" font-family="Times,serif" font-size="14.00">write_article</text>
<text xml:space="preserve" text-anchor="middle" x="210.75" y="-41" font-family="Times,serif" font-size="14.00">Write Article</text>
</g>
<!-- adr_set&#45;&gt;write_article -->
<g id="edge37" class="edge">
<title>adr_set&#45;&gt;write_article</title>
<path fill="none" stroke="black" d="M77.55,-146.88C90.37,-130.44 109.61,-108.11 130.16,-92.6 137.07,-87.39 144.79,-82.58 152.62,-78.25"/>
<polygon fill="black" stroke="black" points="153.99,-81.49 161.21,-73.74 150.73,-75.29 153.99,-81.49"/>
</g>
<!-- write_policy -->
<g id="node29" class="node">
<title>write_policy</title>
<ellipse fill="none" stroke="black" cx="210.75" cy="-207.6" rx="80.59" ry="29.42"/>
<text xml:space="preserve" text-anchor="middle" x="210.75" y="-211.8" font-family="Times,serif" font-size="14.00">write_policy</text>
<text xml:space="preserve" text-anchor="middle" x="210.75" y="-195" font-family="Times,serif" font-size="14.00">Write Policy Doc</text>
</g>
<!-- adr_set&#45;&gt;write_policy -->
<g id="edge5" class="edge">
<title>adr_set&#45;&gt;write_policy</title>
<path fill="none" stroke="black" d="M94.92,-177.35C106.49,-180.4 119.99,-183.96 133.6,-187.54"/>
<polygon fill="black" stroke="black" points="132.46,-190.86 143.03,-190.02 134.25,-184.09 132.46,-190.86"/>
</g>
<!-- article -->
<g id="node2" class="node">
<title>article</title>
<g id="a_node2"><a xlink:href="https://example.com/issues/30" xlink:title="Public Article (#30)&#10;criteria: published at external URL&#10;updated_at: 2026&#45;03&#45;01T00:00:00Z&#10;location: https://example.com/issues/30">
<polygon fill="#f8f9fa" stroke="black" stroke-width="2" points="455.32,-74.4 327.34,-74.4 327.34,-32.8 455.32,-32.8 455.32,-74.4"/>
<text xml:space="preserve" text-anchor="middle" x="391.33" y="-57.8" font-family="Times,serif" font-size="14.00">article</text>
<text xml:space="preserve" text-anchor="middle" x="391.33" y="-41" font-family="Times,serif" font-size="14.00">Public Article (#30)</text>
</a>
</g>
<text xml:space="preserve" text-anchor="middle" x="314.9" y="-20.2" font-family="Times,serif" font-size="14.00">todo</text>
</g>
<!-- build_plugin_a -->
<g id="node3" class="node">
<title>build_plugin_a</title>
<ellipse fill="none" stroke="black" cx="987.19" cy="-189.6" rx="71.27" ry="29.42"/>
<text xml:space="preserve" text-anchor="middle" x="987.19" y="-193.8" font-family="Times,serif" font-size="14.00">build_plugin_a</text>
<text xml:space="preserve" text-anchor="middle" x="987.19" y="-177" font-family="Times,serif" font-size="14.00">Build Plugin A</text>
</g>
<!-- impl_plugin_a -->
<g id="node15" class="node">
<title>impl_plugin_a</title>
<g id="a_node15"><a xlink:href="https://example.com/issues/10" xlink:title="Plugin A (#10)&#10;criteria: plugin loads without errors&#10;updated_at: 2026&#45;02&#45;01T00:00:00Z&#10;location: https://example.com/issues/10">
<polygon fill="#f8f9fa" stroke="black" points="1221.88,-286.4 1121.88,-286.4 1121.88,-244.8 1221.88,-244.8 1221.88,-286.4"/>
<text xml:space="preserve" text-anchor="middle" x="1171.88" y="-269.8" font-family="Times,serif" font-size="14.00">impl_plugin_a</text>
<text xml:space="preserve" text-anchor="middle" x="1171.88" y="-253" font-family="Times,serif" font-size="14.00">Plugin A (#10)</text>
</a>
</g>
<text xml:space="preserve" text-anchor="middle" x="1109.43" y="-232.2" font-family="Times,serif" font-size="14.00">todo</text>
</g>
<!-- build_plugin_a&#45;&gt;impl_plugin_a -->
<g id="edge24" class="edge">
<title>build_plugin_a&#45;&gt;impl_plugin_a</title>
<path fill="none" stroke="black" d="M1038.5,-210.16C1052.94,-216.08 1068.69,-222.57 1083.17,-228.6 1092.26,-232.38 1101.87,-236.41 1111.26,-240.36"/>
<polygon fill="black" stroke="black" points="1109.77,-243.53 1120.34,-244.19 1112.49,-237.08 1109.77,-243.53"/>
</g>
<!-- build_plugin_b -->
<g id="node4" class="node">
<title>build_plugin_b</title>
<ellipse fill="none" stroke="black" cx="1356" cy="-322.6" rx="71.81" ry="29.42"/>
<text xml:space="preserve" text-anchor="middle" x="1356" y="-326.8" font-family="Times,serif" font-size="14.00">build_plugin_b</text>
<text xml:space="preserve" text-anchor="middle" x="1356" y="-310" font-family="Times,serif" font-size="14.00">Build Plugin B</text>
</g>
<!-- impl_plugin_b -->
<g id="node16" class="node">
<title>impl_plugin_b</title>
<g id="a_node16"><a xlink:href="https://example.com/issues/11" xlink:title="Plugin B (#11)&#10;&#10;depends on plugin_a for shared types&#10;criteria: plugin loads without errors&#10;location: https://example.com/issues/11">
<polygon fill="#f8f9fa" stroke="black" points="1745.38,-337.4 1646.15,-337.4 1646.15,-295.8 1745.38,-295.8 1745.38,-337.4"/>
<text xml:space="preserve" text-anchor="middle" x="1695.77" y="-320.8" font-family="Times,serif" font-size="14.00">impl_plugin_b</text>
<text xml:space="preserve" text-anchor="middle" x="1695.77" y="-304" font-family="Times,serif" font-size="14.00">Plugin B (#11)</text>
</a>
</g>
<text xml:space="preserve" text-anchor="middle" x="1633.71" y="-283.2" font-family="Times,serif" font-size="14.00">todo</text>
</g>
<!-- build_plugin_b&#45;&gt;impl_plugin_b -->
<g id="edge27" class="edge">
<title>build_plugin_b&#45;&gt;impl_plugin_b</title>
<path fill="none" stroke="black" d="M1428.22,-321.33C1489.33,-320.25 1576.44,-318.7 1634.24,-317.68"/>
<polygon fill="black" stroke="black" points="1634.3,-321.17 1644.24,-317.5 1634.18,-314.18 1634.3,-321.17"/>
</g>
<!-- do_release_v1 -->
<g id="node5" class="node">
<title>do_release_v1</title>
<ellipse fill="none" stroke="black" cx="1695.77" cy="-151.6" rx="68.49" ry="29.42"/>
<text xml:space="preserve" text-anchor="middle" x="1695.77" y="-155.8" font-family="Times,serif" font-size="14.00">do_release_v1</text>
<text xml:space="preserve" text-anchor="middle" x="1695.77" y="-139" font-family="Times,serif" font-size="14.00">Release v1.0</text>
</g>
<!-- release_v1 -->
<g id="node24" class="node">
<title>release_v1</title>
<g id="a_node24"><a xlink:title="v1.0 Release&#10;criteria: all core features shipped and tested">
<polygon fill="#f8f9fa" stroke="black" points="1887.78,-205.4 1800.25,-205.4 1800.25,-163.8 1887.78,-163.8 1887.78,-205.4"/>
<text xml:space="preserve" text-anchor="middle" x="1844.02" y="-188.8" font-family="Times,serif" font-size="14.00">release_v1</text>
<text xml:space="preserve" text-anchor="middle" x="1844.02" y="-172" font-family="Times,serif" font-size="14.00">v1.0 Release</text>
</a>
</g>
<text xml:space="preserve" text-anchor="middle" x="1787.81" y="-151.2" font-family="Times,serif" font-size="14.00">todo</text>
</g>
<!-- do_release_v1&#45;&gt;release_v1 -->
<g id="edge32" class="edge">
<title>do_release_v1&#45;&gt;release_v1</title>
<path fill="none" stroke="black" d="M1757.1,-165.21C1767.61,-167.59 1778.5,-170.04 1788.83,-172.37"/>
<polygon fill="black" stroke="black" points="1787.8,-175.73 1798.32,-174.51 1789.34,-168.9 1787.8,-175.73"/>
</g>
<!-- do_release_v2 -->
<g id="node6" class="node">
<title>do_release_v2</title>
<ellipse fill="none" stroke="black" cx="1992.27" cy="-265.6" rx="68.49" ry="29.42"/>
<text xml:space="preserve" text-anchor="middle" x="1992.27" y="-269.8" font-family="Times,serif" font-size="14.00">do_release_v2</text>
<text xml:space="preserve" text-anchor="middle" x="1992.27" y="-253" font-family="Times,serif" font-size="14.00">Release v2.0</text>
</g>
<!-- release_v2 -->
<g id="node25" class="node">
<title>release_v2</title>
<g id="a_node25"><a xlink:title="v2.0 Release&#10;criteria: plugins available and marketplace published">
<polygon fill="#f8f9fa" stroke="black" stroke-width="2" points="2184.29,-286.4 2096.76,-286.4 2096.76,-244.8 2184.29,-244.8 2184.29,-286.4"/>
<text xml:space="preserve" text-anchor="middle" x="2140.52" y="-269.8" font-family="Times,serif" font-size="14.00">release_v2</text>
<text xml:space="preserve" text-anchor="middle" x="2140.52" y="-253" font-family="Times,serif" font-size="14.00">v2.0 Release</text>
</a>
</g>
<text xml:space="preserve" text-anchor="middle" x="2084.31" y="-232.2" font-family="Times,serif" font-size="14.00">todo</text>
</g>
<!-- do_release_v2&#45;&gt;release_v2 -->
<g id="edge36" class="edge">
<title>do_release_v2&#45;&gt;release_v2</title>
<path fill="none" stroke="black" d="M2060.83,-265.6C2068.79,-265.6 2076.83,-265.6 2084.58,-265.6"/>
<polygon fill="black" stroke="black" points="2084.55,-269.1 2094.55,-265.6 2084.55,-262.1 2084.55,-269.1"/>
</g>
<!-- spec_alpha -->
<g id="node26" class="node">
<title>spec_alpha</title>
<g id="a_node26"><a xlink:title="Alpha Spec&#10;criteria: drafted and reviewed&#10;location: docs/spec/alpha.md">
<polygon fill="#d4edda" stroke="black" points="431.79,-159.4 350.87,-159.4 350.87,-117.8 431.79,-117.8 431.79,-159.4"/>
<text xml:space="preserve" text-anchor="middle" x="391.33" y="-142.8" font-family="Times,serif" font-size="14.00">spec_alpha</text>
<text xml:space="preserve" text-anchor="middle" x="391.33" y="-126" font-family="Times,serif" font-size="14.00">Alpha Spec</text>
</a>
</g>
<text xml:space="preserve" text-anchor="middle" x="337.26" y="-105.2" font-family="Times,serif" font-size="14.00">done</text>
</g>
<!-- draft_alpha&#45;&gt;spec_alpha -->
<g id="edge2" class="edge">
<title>draft_alpha&#45;&gt;spec_alpha</title>
<path fill="none" stroke="black" d="M291.12,-134.16C307.6,-134.89 324.53,-135.65 339.64,-136.33"/>
<polygon fill="black" stroke="black" points="339.14,-139.81 349.29,-136.76 339.46,-132.82 339.14,-139.81"/>
</g>
<!-- spec_beta -->
<g id="node27" class="node">
<title>spec_beta</title>
<g id="a_node27"><a xlink:title="Beta Spec&#10;criteria: drafted and reviewed&#10;location: docs/spec/beta.md">
<polygon fill="#d4edda" stroke="black" points="427.51,-296.4 355.15,-296.4 355.15,-254.8 427.51,-254.8 427.51,-296.4"/>
<text xml:space="preserve" text-anchor="middle" x="391.33" y="-279.8" font-family="Times,serif" font-size="14.00">spec_beta</text>
<text xml:space="preserve" text-anchor="middle" x="391.33" y="-263" font-family="Times,serif" font-size="14.00">Beta Spec</text>
</a>
</g>
<text xml:space="preserve" text-anchor="middle" x="341.54" y="-242.2" font-family="Times,serif" font-size="14.00">done</text>
</g>
<!-- draft_beta&#45;&gt;spec_beta -->
<g id="edge4" class="edge">
<title>draft_beta&#45;&gt;spec_beta</title>
<path fill="none" stroke="black" d="M285.16,-280.9C304.89,-279.91 325.69,-278.86 343.53,-277.96"/>
<polygon fill="black" stroke="black" points="343.47,-281.47 353.28,-277.47 343.11,-274.48 343.47,-281.47"/>
</g>
<!-- feature_x -->
<g id="node9" class="node">
<title>feature_x</title>
<g id="a_node9"><a xlink:href="https://example.com/issues/20" xlink:title="Feature X (#20)&#10;criteria: feature works end&#45;to&#45;end&#10;updated_at: 2026&#45;01&#45;15T00:00:00Z&#10;location: https://example.com/issues/20">
<polygon fill="#fff3cd" stroke="black" points="1224.58,-58.4 1119.17,-58.4 1119.17,-16.8 1224.58,-16.8 1224.58,-58.4"/>
<text xml:space="preserve" text-anchor="middle" x="1171.88" y="-41.8" font-family="Times,serif" font-size="14.00">feature_x</text>
<text xml:space="preserve" text-anchor="middle" x="1171.88" y="-25" font-family="Times,serif" font-size="14.00">Feature X (#20)</text>
</a>
</g>
<text xml:space="preserve" text-anchor="middle" x="1108.67" y="-4.2" font-family="Times,serif" font-size="14.00">wip</text>
</g>
<!-- feature_x&#45;&gt;do_release_v1 -->
<g id="edge29" class="edge">
<title>feature_x&#45;&gt;do_release_v1</title>
<path fill="none" stroke="black" d="M1225.02,-31.67C1306.46,-24.52 1467.36,-18.99 1591.28,-68.6 1617.61,-79.14 1642.55,-98.74 1661.35,-116.25"/>
<polygon fill="black" stroke="black" points="1658.81,-118.67 1668.45,-123.06 1663.66,-113.62 1658.81,-118.67"/>
</g>
<!-- implement_feature_z -->
<g id="node22" class="node">
<title>implement_feature_z</title>
<ellipse fill="none" stroke="black" cx="1356" cy="-94.6" rx="95.42" ry="29.42"/>
<text xml:space="preserve" text-anchor="middle" x="1356" y="-98.8" font-family="Times,serif" font-size="14.00">implement_feature_z</text>
<text xml:space="preserve" text-anchor="middle" x="1356" y="-82" font-family="Times,serif" font-size="14.00">Implement Feature Z</text>
</g>
<!-- feature_x&#45;&gt;implement_feature_z -->
<g id="edge20" class="edge">
<title>feature_x&#45;&gt;implement_feature_z</title>
<path fill="none" stroke="black" d="M1225.07,-53.93C1241.26,-59 1259.47,-64.7 1277.01,-70.19"/>
<polygon fill="black" stroke="black" points="1275.8,-73.48 1286.39,-73.12 1277.89,-66.8 1275.8,-73.48"/>
</g>
<!-- feature_y -->
<g id="node10" class="node">
<title>feature_y</title>
<g id="a_node10"><a xlink:href="https://example.com/issues/21" xlink:title="Feature Y (#21)&#10;criteria: feature works end&#45;to&#45;end&#10;updated_at: 2026&#45;01&#45;16T00:00:00Z&#10;location: https://example.com/issues/21">
<polygon fill="#f8f9fa" stroke="black" points="1224.58,-133.4 1119.17,-133.4 1119.17,-91.8 1224.58,-91.8 1224.58,-133.4"/>
<text xml:space="preserve" text-anchor="middle" x="1171.88" y="-116.8" font-family="Times,serif" font-size="14.00">feature_y</text>
<text xml:space="preserve" text-anchor="middle" x="1171.88" y="-100" font-family="Times,serif" font-size="14.00">Feature Y (#21)</text>
</a>
</g>
<text xml:space="preserve" text-anchor="middle" x="1106.72" y="-79.2" font-family="Times,serif" font-size="14.00">todo</text>
</g>
<!-- feature_y&#45;&gt;do_release_v1 -->
<g id="edge30" class="edge">
<title>feature_y&#45;&gt;do_release_v1</title>
<path fill="none" stroke="black" d="M1225,-126.11C1236.64,-128.67 1248.97,-131.04 1260.58,-132.6 1383.85,-149.21 1528.4,-152.31 1615.71,-152.41"/>
<polygon fill="black" stroke="black" points="1615.61,-155.91 1625.61,-152.4 1615.6,-148.91 1615.61,-155.91"/>
</g>
<!-- feature_y&#45;&gt;implement_feature_z -->
<g id="edge21" class="edge">
<title>feature_y&#45;&gt;implement_feature_z</title>
<path fill="none" stroke="black" d="M1225.07,-107.44C1233.98,-106.56 1243.51,-105.62 1253.2,-104.66"/>
<polygon fill="black" stroke="black" points="1253.51,-108.15 1263.12,-103.68 1252.82,-101.18 1253.51,-108.15"/>
</g>
<!-- feature_z -->
<g id="node11" class="node">
<title>feature_z</title>
<g id="a_node11"><a xlink:href="https://example.com/issues/22" xlink:title="Feature Z (#22)&#10;&#10;depends on feature_x and feature_y for shared state&#10;criteria: feature works end&#45;to&#45;end&#10;location: https://example.com/issues/22">
<polygon fill="#f8f9fa" stroke="black" points="1591.28,-119.4 1487.42,-119.4 1487.42,-77.8 1591.28,-77.8 1591.28,-119.4"/>
<text xml:space="preserve" text-anchor="middle" x="1539.35" y="-102.8" font-family="Times,serif" font-size="14.00">feature_z</text>
<text xml:space="preserve" text-anchor="middle" x="1539.35" y="-86" font-family="Times,serif" font-size="14.00">Feature Z (#22)</text>
</a>
</g>
<text xml:space="preserve" text-anchor="middle" x="1474.98" y="-65.2" font-family="Times,serif" font-size="14.00">todo</text>
</g>
<!-- feature_z&#45;&gt;do_release_v1 -->
<g id="edge31" class="edge">
<title>feature_z&#45;&gt;do_release_v1</title>
<path fill="none" stroke="black" d="M1591.77,-116.25C1604.24,-120.53 1617.73,-125.16 1630.71,-129.61"/>
<polygon fill="black" stroke="black" points="1629.43,-132.88 1640.03,-132.81 1631.71,-126.26 1629.43,-132.88"/>
</g>
<!-- impl_cli -->
<g id="node12" class="node">
<title>impl_cli</title>
<g id="a_node12"><a xlink:href="https://example.com/issues/5" xlink:title="CLI Implementation (#5)&#10;&#10;command&#45;line interface wrapping core&#10;criteria: pfdsl &#45;&#45;version exits 0&#10;location: https://example.com/issues/5">
<polygon fill="#d4edda" stroke="black" points="1423.1,-237.8 1288.91,-237.8 1288.91,-179.4 1423.1,-179.4 1423.1,-237.8"/>
<text xml:space="preserve" text-anchor="middle" x="1356" y="-221.2" font-family="Times,serif" font-size="14.00">impl_cli</text>
<text xml:space="preserve" text-anchor="middle" x="1356" y="-204.4" font-family="Times,serif" font-size="14.00">CLI Implementation </text>
<text xml:space="preserve" text-anchor="middle" x="1356" y="-187.6" font-family="Times,serif" font-size="14.00">#5)</text>
</a>
</g>
<text xml:space="preserve" text-anchor="middle" x="1275.3" y="-166.8" font-family="Times,serif" font-size="14.00">done</text>
</g>
<!-- impl_cli&#45;&gt;do_release_v1 -->
<g id="edge28" class="edge">
<title>impl_cli&#45;&gt;do_release_v1</title>
<path fill="none" stroke="black" d="M1423.33,-197.41C1480,-187.84 1561.48,-174.09 1620.36,-164.16"/>
<polygon fill="black" stroke="black" points="1620.68,-167.65 1629.96,-162.54 1619.51,-160.75 1620.68,-167.65"/>
</g>
<!-- impl_core -->
<g id="node13" class="node">
<title>impl_core</title>
<g id="a_node13"><a xlink:title="Core Implementation&#10;criteria: tests pass, published">
<polygon fill="#d4edda" stroke="black" points="855.21,-193.4 719.85,-193.4 719.85,-151.8 855.21,-151.8 855.21,-193.4"/>
<text xml:space="preserve" text-anchor="middle" x="787.53" y="-176.8" font-family="Times,serif" font-size="14.00">impl_core</text>
<text xml:space="preserve" text-anchor="middle" x="787.53" y="-160" font-family="Times,serif" font-size="14.00">Core Implementation</text>
</a>
</g>
<text xml:space="preserve" text-anchor="middle" x="706.24" y="-139.2" font-family="Times,serif" font-size="14.00">done</text>
</g>
<!-- impl_core&#45;&gt;build_plugin_a -->
<g id="edge23" class="edge">
<title>impl_core&#45;&gt;build_plugin_a</title>
<path fill="none" stroke="black" d="M855.45,-178.36C871.55,-179.74 888.93,-181.23 905.58,-182.67"/>
<polygon fill="black" stroke="black" points="905.21,-186.15 915.47,-183.52 905.81,-179.17 905.21,-186.15"/>
</g>
<!-- implement_cli -->
<g id="node17" class="node">
<title>implement_cli</title>
<ellipse fill="none" stroke="black" cx="987.19" cy="-266.6" rx="72.62" ry="29.42"/>
<text xml:space="preserve" text-anchor="middle" x="987.19" y="-270.8" font-family="Times,serif" font-size="14.00">implement_cli</text>
<text xml:space="preserve" text-anchor="middle" x="987.19" y="-254" font-family="Times,serif" font-size="14.00">Implement CLI</text>
</g>
<!-- impl_core&#45;&gt;implement_cli -->
<g id="edge13" class="edge">
<title>impl_core&#45;&gt;implement_cli</title>
<path fill="none" stroke="black" d="M825.61,-193.65C844.93,-204.3 869.07,-217.16 891.21,-227.6 901.59,-232.5 912.76,-237.4 923.67,-241.99"/>
<polygon fill="black" stroke="black" points="922.03,-245.11 932.61,-245.71 924.72,-238.64 922.03,-245.11"/>
</g>
<!-- implement_feature_x -->
<g id="node20" class="node">
<title>implement_feature_x</title>
<ellipse fill="none" stroke="black" cx="987.19" cy="-35.6" rx="95.98" ry="29.42"/>
<text xml:space="preserve" text-anchor="middle" x="987.19" y="-39.8" font-family="Times,serif" font-size="14.00">implement_feature_x</text>
<text xml:space="preserve" text-anchor="middle" x="987.19" y="-23" font-family="Times,serif" font-size="14.00">Implement Feature X</text>
</g>
<!-- impl_core&#45;&gt;implement_feature_x -->
<g id="edge16" class="edge">
<title>impl_core&#45;&gt;implement_feature_x</title>
<path fill="none" stroke="black" d="M806.35,-151.46C825.5,-129.81 857.72,-96.34 891.21,-74.6 897.81,-70.31 904.96,-66.34 912.28,-62.71"/>
<polygon fill="black" stroke="black" points="913.77,-65.87 921.33,-58.44 910.79,-59.54 913.77,-65.87"/>
</g>
<!-- implement_feature_y -->
<g id="node21" class="node">
<title>implement_feature_y</title>
<ellipse fill="none" stroke="black" cx="987.19" cy="-112.6" rx="95.98" ry="29.42"/>
<text xml:space="preserve" text-anchor="middle" x="987.19" y="-116.8" font-family="Times,serif" font-size="14.00">implement_feature_y</text>
<text xml:space="preserve" text-anchor="middle" x="987.19" y="-100" font-family="Times,serif" font-size="14.00">Implement Feature Y</text>
</g>
<!-- impl_core&#45;&gt;implement_feature_y -->
<g id="edge18" class="edge">
<title>impl_core&#45;&gt;implement_feature_y</title>
<path fill="none" stroke="black" d="M855.45,-152.29C872.14,-147.22 890.2,-141.74 907.4,-136.51"/>
<polygon fill="black" stroke="black" points="907.99,-139.99 916.54,-133.74 905.96,-133.3 907.99,-139.99"/>
</g>
<!-- impl_ext -->
<g id="node14" class="node">
<title>impl_ext</title>
<g id="a_node14"><a xlink:title="Extension Implementation&#10;criteria: tests pass">
<polygon fill="#d4edda" stroke="black" points="839.85,-299.8 735.21,-299.8 735.21,-241.4 839.85,-241.4 839.85,-299.8"/>
<text xml:space="preserve" text-anchor="middle" x="787.53" y="-283.2" font-family="Times,serif" font-size="14.00">impl_ext</text>
<text xml:space="preserve" text-anchor="middle" x="787.53" y="-266.4" font-family="Times,serif" font-size="14.00">Extension</text>
<text xml:space="preserve" text-anchor="middle" x="787.53" y="-249.6" font-family="Times,serif" font-size="14.00">Implementation</text>
</a>
</g>
<text xml:space="preserve" text-anchor="middle" x="721.6" y="-228.8" font-family="Times,serif" font-size="14.00">done</text>
</g>
<!-- impl_ext&#45;&gt;build_plugin_b -->
<g id="edge26" class="edge">
<title>impl_ext&#45;&gt;build_plugin_b</title>
<path fill="none" stroke="black" d="M840.29,-290.88C856.36,-296.32 874.3,-301.54 891.21,-304.6 1023.26,-328.53 1179.8,-328.94 1273.07,-326.31"/>
<polygon fill="black" stroke="black" points="1273,-329.81 1282.89,-326.01 1272.79,-322.82 1273,-329.81"/>
</g>
<!-- impl_ext&#45;&gt;implement_cli -->
<g id="edge14" class="edge">
<title>impl_ext&#45;&gt;implement_cli</title>
<path fill="none" stroke="black" d="M840.2,-269.55C859.4,-269.17 881.7,-268.71 903,-268.28"/>
<polygon fill="black" stroke="black" points="902.93,-271.79 912.85,-268.08 902.79,-264.79 902.93,-271.79"/>
</g>
<!-- impl_plugin_a&#45;&gt;build_plugin_b -->
<g id="edge25" class="edge">
<title>impl_plugin_a&#45;&gt;build_plugin_b</title>
<path fill="none" stroke="black" d="M1222.16,-281.03C1242.26,-287.31 1265.82,-294.69 1287.48,-301.47"/>
<polygon fill="black" stroke="black" points="1286.23,-304.74 1296.82,-304.39 1288.32,-298.06 1286.23,-304.74"/>
</g>
<!-- impl_plugin_a&#45;&gt;do_release_v2 -->
<g id="edge34" class="edge">
<title>impl_plugin_a&#45;&gt;do_release_v2</title>
<path fill="none" stroke="black" d="M1222.24,-265.6C1292.46,-265.6 1425.25,-265.6 1538.35,-265.6 1538.35,-265.6 1538.35,-265.6 1696.77,-265.6 1769.78,-265.6 1852.97,-265.6 1912.27,-265.6"/>
<polygon fill="black" stroke="black" points="1911.91,-269.1 1921.91,-265.6 1911.91,-262.1 1911.91,-269.1"/>
</g>
<!-- impl_plugin_b&#45;&gt;do_release_v2 -->
<g id="edge35" class="edge">
<title>impl_plugin_b&#45;&gt;do_release_v2</title>
<path fill="none" stroke="black" d="M1745.73,-308.12C1792.45,-300.03 1863.48,-287.73 1917.14,-278.44"/>
<polygon fill="black" stroke="black" points="1917.57,-281.92 1926.83,-276.76 1916.38,-275.02 1917.57,-281.92"/>
</g>
<!-- implement_cli&#45;&gt;impl_cli -->
<g id="edge15" class="edge">
<title>implement_cli&#45;&gt;impl_cli</title>
<path fill="none" stroke="black" d="M1048.85,-250.66C1070.88,-245.29 1096.03,-239.65 1119.17,-235.6 1171.56,-226.43 1231.07,-219.65 1277.2,-215.17"/>
<polygon fill="black" stroke="black" points="1277.5,-218.66 1287.12,-214.23 1276.83,-211.69 1277.5,-218.66"/>
</g>
<!-- implement_core -->
<g id="node18" class="node">
<title>implement_core</title>
<ellipse fill="none" stroke="black" cx="587.58" cy="-172.6" rx="75.92" ry="29.42"/>
<text xml:space="preserve" text-anchor="middle" x="587.58" y="-176.8" font-family="Times,serif" font-size="14.00">implement_core</text>
<text xml:space="preserve" text-anchor="middle" x="587.58" y="-160" font-family="Times,serif" font-size="14.00">Implement Core</text>
</g>
<!-- implement_core&#45;&gt;impl_core -->
<g id="edge9" class="edge">
<title>implement_core&#45;&gt;impl_core</title>
<path fill="none" stroke="black" d="M663.98,-172.6C678.38,-172.6 693.48,-172.6 707.98,-172.6"/>
<polygon fill="black" stroke="black" points="707.93,-176.1 717.93,-172.6 707.93,-169.1 707.93,-176.1"/>
</g>
<!-- implement_ext -->
<g id="node19" class="node">
<title>implement_ext</title>
<ellipse fill="none" stroke="black" cx="587.58" cy="-270.6" rx="96.27" ry="29.42"/>
<text xml:space="preserve" text-anchor="middle" x="587.58" y="-274.8" font-family="Times,serif" font-size="14.00">implement_ext</text>
<text xml:space="preserve" text-anchor="middle" x="587.58" y="-258" font-family="Times,serif" font-size="14.00">Implement Extension</text>
</g>
<!-- implement_ext&#45;&gt;impl_ext -->
<g id="edge12" class="edge">
<title>implement_ext&#45;&gt;impl_ext</title>
<path fill="none" stroke="black" d="M684.08,-270.6C697.47,-270.6 710.96,-270.6 723.54,-270.6"/>
<polygon fill="black" stroke="black" points="723.3,-274.1 733.3,-270.6 723.3,-267.1 723.3,-274.1"/>
</g>
<!-- implement_feature_x&#45;&gt;feature_x -->
<g id="edge17" class="edge">
<title>implement_feature_x&#45;&gt;feature_x</title>
<path fill="none" stroke="black" d="M1083.54,-36.64C1091.59,-36.73 1099.59,-36.82 1107.3,-36.9"/>
<polygon fill="black" stroke="black" points="1107.19,-40.4 1117.23,-37.01 1107.27,-33.4 1107.19,-40.4"/>
</g>
<!-- implement_feature_y&#45;&gt;feature_y -->
<g id="edge19" class="edge">
<title>implement_feature_y&#45;&gt;feature_y</title>
<path fill="none" stroke="black" d="M1083.54,-112.6C1091.59,-112.6 1099.59,-112.6 1107.3,-112.6"/>
<polygon fill="black" stroke="black" points="1107.23,-116.1 1117.23,-112.6 1107.23,-109.1 1107.23,-116.1"/>
</g>
<!-- implement_feature_z&#45;&gt;feature_z -->
<g id="edge22" class="edge">
<title>implement_feature_z&#45;&gt;feature_z</title>
<path fill="none" stroke="black" d="M1451.66,-96.69C1459.76,-96.87 1467.81,-97.04 1475.57,-97.22"/>
<polygon fill="black" stroke="black" points="1475.48,-100.71 1485.56,-97.44 1475.64,-93.72 1475.48,-100.71"/>
</g>
<!-- policy_doc -->
<g id="node23" class="node">
<title>policy_doc</title>
<g id="a_node23"><a xlink:title="Policy Document&#10;&#10;Design decisions for the multi&#45;module architecture.&#10;criteria: documented and approved&#10;location: docs/policy.md">
<polygon fill="#d4edda" stroke="black" points="448.13,-228.4 334.53,-228.4 334.53,-186.8 448.13,-186.8 448.13,-228.4"/>
<text xml:space="preserve" text-anchor="middle" x="391.33" y="-211.8" font-family="Times,serif" font-size="14.00">policy_doc</text>
<text xml:space="preserve" text-anchor="middle" x="391.33" y="-195" font-family="Times,serif" font-size="14.00">Policy Document</text>
</a>
</g>
<text xml:space="preserve" text-anchor="middle" x="320.92" y="-174.2" font-family="Times,serif" font-size="14.00">done</text>
</g>
<!-- policy_doc&#45;&gt;implement_core -->
<g id="edge8" class="edge">
<title>policy_doc&#45;&gt;implement_core</title>
<path fill="none" stroke="black" d="M448.52,-197.48C466.77,-194.19 487.39,-190.47 507.02,-186.94"/>
<polygon fill="black" stroke="black" points="507.41,-190.42 516.63,-185.2 506.17,-183.53 507.41,-190.42"/>
</g>
<!-- policy_doc&#45;&gt;implement_ext -->
<g id="edge11" class="edge">
<title>policy_doc&#45;&gt;implement_ext</title>
<path fill="none" stroke="black" d="M448.52,-225.82C467.61,-232.01 489.28,-239.04 509.71,-245.67"/>
<polygon fill="black" stroke="black" points="508.54,-248.97 519.13,-248.73 510.7,-242.31 508.54,-248.97"/>
</g>
<!-- release_v1&#45;&gt;do_release_v2 -->
<g id="edge33" class="edge">
<title>release_v1&#45;&gt;do_release_v2</title>
<path fill="none" stroke="black" d="M1883.45,-205.88C1900.51,-215.33 1920.86,-226.6 1939.26,-236.79"/>
<polygon fill="black" stroke="black" points="1937.48,-239.81 1947.92,-241.59 1940.87,-233.69 1937.48,-239.81"/>
</g>
<!-- spec_alpha&#45;&gt;implement_core -->
<g id="edge7" class="edge">
<title>spec_alpha&#45;&gt;implement_core</title>
<path fill="none" stroke="black" d="M432.11,-139.99C455.62,-143 486.12,-148.01 513.79,-153.3"/>
<polygon fill="black" stroke="black" points="513.08,-156.73 523.56,-155.21 514.42,-149.86 513.08,-156.73"/>
</g>
<!-- spec_alpha&#45;&gt;implement_core -->
<g id="edge39" class="edge">
<title>spec_alpha&#45;&gt;implement_core</title>
<path fill="none" stroke="#888888" stroke-dasharray="5,2" d="M432.11,-151.13C452.32,-155.62 477.7,-160.44 502.01,-164.5"/>
<polygon fill="#888888" stroke="#888888" points="501.15,-167.9 511.59,-166.06 502.28,-160.99 501.15,-167.9"/>
</g>
<!-- spec_beta&#45;&gt;implement_ext -->
<g id="edge10" class="edge">
<title>spec_beta&#45;&gt;implement_ext</title>
<path fill="none" stroke="black" d="M427.96,-274.68C442.9,-274.3 461.15,-273.83 479.88,-273.35"/>
<polygon fill="black" stroke="black" points="479.83,-276.85 489.74,-273.09 479.65,-269.85 479.83,-276.85"/>
</g>
<!-- write_article&#45;&gt;article -->
<g id="edge38" class="edge">
<title>write_article&#45;&gt;article</title>
<path fill="none" stroke="black" d="M274.96,-53.6C288.05,-53.6 301.96,-53.6 315.43,-53.6"/>
<polygon fill="black" stroke="black" points="315.09,-57.1 325.09,-53.6 315.09,-50.1 315.09,-57.1"/>
</g>
<!-- write_policy&#45;&gt;policy_doc -->
<g id="edge6" class="edge">
<title>write_policy&#45;&gt;policy_doc</title>
<path fill="none" stroke="black" d="M291.64,-207.6C302.1,-207.6 312.73,-207.6 322.95,-207.6"/>
<polygon fill="black" stroke="black" points="322.78,-211.1 332.78,-207.6 322.78,-204.1 322.78,-211.1"/>
</g>
</g>
</svg>
