<?xml version="1.0" encoding="UTF-8" standalone="no"?>
<!DOCTYPE svg PUBLIC "-//W3C//DTD SVG 1.1//EN"
 "http://www.w3.org/Graphics/SVG/1.1/DTD/svg11.dtd">
<!-- Generated by graphviz version 15.1.0 (0)
 -->
<!-- Title: PFDSL Pages: 1 -->
<svg width="1036pt" height="132pt"
 viewBox="0.00 0.00 1036.00 132.00" xmlns="http://www.w3.org/2000/svg" xmlns:xlink="http://www.w3.org/1999/xlink">
<g id="graph0" class="graph" transform="scale(1 1) rotate(0) translate(4 128.19)">
<title>PFDSL</title>
<polygon fill="white" stroke="none" points="-4,4 -4,-128.19 1031.84,-128.19 1031.84,4 -4,4"/>
<text xml:space="preserve" text-anchor="middle" x="513.92" y="-107.59" font-family="Times,serif" font-size="14.00">Issue 依存フロー（2026&#45;06） — diff</text>
<text xml:space="preserve" text-anchor="middle" x="513.92" y="-90.79" font-family="Times,serif" font-size="14.00">green = added · red = removed · yellow = changed</text>
<!-- ansi_color -->
<g id="node1" class="node">
<title>ansi_color</title>
<polygon fill="#c3e6cb" stroke="#28a745" points="619.18,-70.5 475.18,-70.5 475.18,-12.1 619.18,-12.1 619.18,-70.5"/>
<text xml:space="preserve" text-anchor="middle" x="547.18" y="-53.9" font-family="Times,serif" font-size="14.00">ansi_color</text>
<text xml:space="preserve" text-anchor="middle" x="547.18" y="-37.1" font-family="Times,serif" font-size="14.00">CLI 診断 ANSI</text>
<text xml:space="preserve" text-anchor="middle" x="547.18" y="-20.3" font-family="Times,serif" font-size="14.00">カラー出力 (#435)</text>
</g>
<!-- publish_cli_v0020 -->
<g id="node5" class="node">
<title>publish_cli_v0020</title>
<ellipse fill="#c3e6cb" stroke="#28a745" cx="744.31" cy="-41.3" rx="89.13" ry="29.42"/>
<text xml:space="preserve" text-anchor="middle" x="744.31" y="-45.5" font-family="Times,serif" font-size="14.00">publish_cli_v0020</text>
<text xml:space="preserve" text-anchor="middle" x="744.31" y="-28.7" font-family="Times,serif" font-size="14.00">CLI v0.0.20リリース</text>
</g>
<!-- ansi_color&#45;&gt;publish_cli_v0020 -->
<g id="edge1" class="edge">
<title>ansi_color&#45;&gt;publish_cli_v0020</title>
<path fill="none" stroke="#28a745" d="M619.45,-41.3C627.3,-41.3 635.38,-41.3 643.49,-41.3"/>
<polygon fill="#28a745" stroke="#28a745" points="643.44,-44.8 653.44,-41.3 643.44,-37.8 643.44,-44.8"/>
</g>
<!-- cli_tool_v0018 -->
<g id="node2" class="node">
<title>cli_tool_v0018</title>
<polygon fill="#f5f5f5" stroke="#bbbbbb" points="158.4,-62.1 0,-62.1 0,-20.5 158.4,-20.5 158.4,-62.1"/>
<text xml:space="preserve" text-anchor="middle" x="79.2" y="-45.5" font-family="Times,serif" font-size="14.00" fill="#777777">cli_tool_v0018</text>
<text xml:space="preserve" text-anchor="middle" x="79.2" y="-28.7" font-family="Times,serif" font-size="14.00" fill="#777777">CLI v0.0.18（次期）</text>
</g>
<!-- i435_implement_ansi_color -->
<g id="node4" class="node">
<title>i435_implement_ansi_color</title>
<ellipse fill="#c3e6cb" stroke="#28a745" cx="316.79" cy="-41.3" rx="122.39" ry="41.3"/>
<text xml:space="preserve" text-anchor="middle" x="316.79" y="-53.9" font-family="Times,serif" font-size="14.00">i435_implement_ansi_color</text>
<text xml:space="preserve" text-anchor="middle" x="316.79" y="-37.1" font-family="Times,serif" font-size="14.00">診断 ANSI</text>
<text xml:space="preserve" text-anchor="middle" x="316.79" y="-20.3" font-family="Times,serif" font-size="14.00">カラー実装</text>
</g>
<!-- cli_tool_v0018&#45;&gt;i435_implement_ansi_color -->
<g id="edge2" class="edge">
<title>cli_tool_v0018&#45;&gt;i435_implement_ansi_color</title>
<path fill="none" stroke="#28a745" d="M158.65,-41.3C166.38,-41.3 174.37,-41.3 182.46,-41.3"/>
<polygon fill="#28a745" stroke="#28a745" points="182.43,-44.8 192.43,-41.3 182.43,-37.8 182.43,-44.8"/>
</g>
<!-- cli_tool_v0020 -->
<g id="node3" class="node">
<title>cli_tool_v0020</title>
<polygon fill="#c3e6cb" stroke="#28a745" points="1027.84,-62.1 869.44,-62.1 869.44,-20.5 1027.84,-20.5 1027.84,-62.1"/>
<text xml:space="preserve" text-anchor="middle" x="948.64" y="-45.5" font-family="Times,serif" font-size="14.00">cli_tool_v0020</text>
<text xml:space="preserve" text-anchor="middle" x="948.64" y="-28.7" font-family="Times,serif" font-size="14.00">CLI v0.0.20（次期）</text>
</g>
<!-- i435_implement_ansi_color&#45;&gt;ansi_color -->
<g id="edge3" class="edge">
<title>i435_implement_ansi_color&#45;&gt;ansi_color</title>
<path fill="none" stroke="#28a745" d="M439.67,-41.3C447.74,-41.3 455.76,-41.3 463.57,-41.3"/>
<polygon fill="#28a745" stroke="#28a745" points="463.32,-44.8 473.31,-41.3 463.31,-37.8 463.32,-44.8"/>
</g>
<!-- publish_cli_v0020&#45;&gt;cli_tool_v0020 -->
<g id="edge4" class="edge">
<title>publish_cli_v0020&#45;&gt;cli_tool_v0020</title>
<path fill="none" stroke="#28a745" d="M833.76,-41.3C841.78,-41.3 849.91,-41.3 857.95,-41.3"/>
<polygon fill="#28a745" stroke="#28a745" points="857.7,-44.8 867.7,-41.3 857.7,-37.8 857.7,-44.8"/>
</g>
</g>
</svg>
